<svg width="319" height="142" viewBox="0 0 319 142" xmlns="http://www.w3.org/2000/svg" fill-rule="evenodd" clip-rule="evenodd" stroke-linecap="round" stroke-linejoin="round" stroke-miterlimit="1.5">
  <path fill="none" d="M-500-550h2004V661H-500z"/>
  <path d="M30.876 57.01c1.502 1.549 2.311 1.859 3.57 0 8.764-12.939 28.047-2.057 27.037 9.641-.114 1.308 1.004 1.018 1.766 1.071 7.283.506 11.35 5.927 11.088 12.171-.262 6.252-5.365 11.169-12.854 11.166-19.021-.006-37.78 0-47.318 0-18.352.002-15.645-21.306-3.316-24.206 1.829-.43 1.808-2.136 1.801-2.865-.108-10.627 13.054-12.308 18.226-6.978z" fill="#ff6767" fill-rule="nonzero"/>
  <path d="M154.54 90.909c-16.552 0-14.281-19.974-.392-19.698 1.589.031 2.3.347 1.82-1.381-2.374-8.538 6.044-17.487 16.86-12.27 1.787.862 2.146-.133 2.622-1.293 5.407-13.187 30.576-11.258 30.427 5.199-.034 3.738.581 2.593 3.443 3.166 15.554 3.116 13.903 26.276-1.848 26.276l-52.932.001z" fill="#8791a5" fill-rule="nonzero"/>
  <g fill="none" stroke="#374b64" stroke-width="3">
    <path d="M266 71h-31M259.836 62.817L268.02 71l-8.184 8.183"/>
  </g>
  <g fill="none" stroke="#374b64" stroke-width="3">
    <path d="M265.527 104.027L232.5 71M266.955 93.882v11.573h-11.573"/>
  </g>
  <g fill="none" stroke="#374b64" stroke-width="3">
    <path d="M265.527 37.428L232.5 70.455M266.955 47.573V36h-11.573"/>
  </g>
  <path d="M130.912 71h-46M91.797 62.817L83.614 71l8.183 8.183M124.748 62.817L132.932 71l-8.184 8.183" fill="none" stroke="#8791a5" stroke-width="3"/>
  <path d="M51.196 76.264l-4.644 4.776c-.917.944-2.545.812-3.275-.264l-4.468-6.588a3.247 3.247 0 01-.568-1.826v-1.121c0-1.141.844-2.13 2.034-2.386l11.668-2.517c.415-.09.674-.476.578-.865-.096-.388-.51-.629-.927-.539l-13.301 2.868a3.946 3.946 0 01-1.648 0l-13.302-2.868c-.456-.1-.913.203-.945.66-.025.358.264.672.639.753l11.626 2.508c1.19.256 2.033 1.245 2.033 2.386v1.121c0 .646-.197 1.28-.567 1.826l-4.468 6.588c-.73 1.076-2.358 1.208-3.276.264l-4.643-4.776a.814.814 0 00-1.092-.05.69.69 0 00-.053 1.019l4.721 4.855c1.565 1.61 4.342 1.385 5.587-.45l4.055-5.979a.626.626 0 011.017 0l4.055 5.979c1.246 1.835 4.023 2.06 5.588.45l4.721-4.855a.688.688 0 00-.054-1.019.812.812 0 00-1.091.05" fill="#fff" fill-rule="nonzero" stroke="#fff" stroke-linecap="butt" stroke-miterlimit="2"/>
  <path d="M318 21.001C318 32.046 309.046 41 297.999 41 286.955 41 278 32.046 278 21.001 278 9.954 286.955 1 297.999 1 309.046 1 318 9.954 318 21.001" fill="#374b64" fill-rule="nonzero"/>
  <g fill="none" stroke="#fff" stroke-miterlimit="4">
    <path d="M293.4 11.801h9.199a1.84 1.84 0 011.84 1.84V28.36a1.839 1.839 0 01-1.84 1.839H293.4a1.84 1.84 0 01-1.84-1.839V13.641a1.84 1.84 0 011.84-1.84z" stroke-width="2"/>
    <path d="M298 25.52h.01" stroke-width="3"/>
  </g>
  <path d="M318 70.999C318 82.046 309.046 91 297.999 91c-11.044 0-19.998-8.954-19.998-20.001 0-11.045 8.954-19.999 19.998-19.999C309.046 51 318 59.954 318 70.999" fill="#374b64" fill-rule="nonzero"/>
  <g fill="none" stroke="#fff" stroke-width="3" stroke-miterlimit="4">
    <path d="M303.799 77.397v-7.996M298 77.397V64.602M292.202 77.397v-4.798"/>
  </g>
  <g fill-rule="nonzero">
    <path d="M318 121.001c0 11.045-8.954 19.999-20.001 19.999-11.044 0-19.998-8.954-19.998-19.999 0-11.047 8.954-20.001 19.998-20.001 11.047 0 20.001 8.954 20.001 20.001" fill="#374b64"/>
    <path d="M297.7 124.959h-4.449l-.846 2.537h-2.698l4.585-12.315h2.351l4.61 12.315h-2.698l-.855-2.537zm-3.764-2.056h3.079l-1.548-4.61-1.531 4.61zM302.564 115.181h2.538v12.315h-2.538z" fill="#fff"/>
  </g>
</svg>
