<svg width="317" height="244" xmlns="http://www.w3.org/2000/svg" fill-rule="evenodd" clip-rule="evenodd" stroke-linecap="round" stroke-linejoin="round" stroke-miterlimit="1.5">
  <path fill="none" d="M-465-497h2004V714H-465z"/>
  <g fill-rule="nonzero">
    <path d="M72.304 206.307C72.304 225.466 56.772 241 37.61 241c-19.16 0-34.692-15.534-34.692-34.693 0-19.16 15.532-34.694 34.692-34.694 19.162 0 34.694 15.534 34.694 34.694M153.132 206.307c0 19.159-15.533 34.693-34.693 34.693-19.161 0-34.694-15.534-34.694-34.693 0-19.16 15.533-34.694 34.694-34.694 19.16 0 34.693 15.534 34.693 34.694M233.98 206.307c0 19.159-15.532 34.693-34.694 34.693-19.16 0-34.692-15.534-34.692-34.693 0-19.16 15.532-34.694 34.692-34.694 19.162 0 34.694 15.534 34.694 34.694M314 206.307C314 225.466 298.466 241 279.305 241c-19.16 0-34.692-15.534-34.692-34.693 0-19.16 15.532-34.694 34.692-34.694 19.161 0 34.695 15.534 34.695 34.694" fill="#ff6767"/>
    <path d="M46.126 211.295h-2.838v2.838h2.838v-2.838zm0-5.679h-2.838v2.838h2.838v-2.838zm2.84 11.357H37.611v-2.84h2.838v-2.838h-2.838v-2.839h2.838v-2.84h-2.838v-2.838h11.355v14.195zM34.773 199.94h-2.838v-2.838h2.838v2.838zm0 5.676h-2.838v-2.838h2.838v2.838zm0 5.679h-2.838v-2.839h2.838v2.839zm0 5.678h-2.838v-2.838h2.838v2.838zm-5.678-17.033h-2.838v-2.838h2.838v2.838zm0 5.676h-2.838v-2.838h2.838v2.838zm0 5.679h-2.838v-2.839h2.838v2.839zm0 5.678h-2.838v-2.838h2.838v2.838zm8.516-17.033v-4.259c0-.779-.638-1.419-1.419-1.419H24.836c-.779 0-1.419.64-1.419 1.419v22.709c0 .783.64 1.421 1.419 1.421h25.549c.781 0 1.421-.638 1.421-1.421v-17.031c0-.781-.64-1.419-1.421-1.419H37.611zM132.068 207.861c-3.256 1.728-5.716 4.769-6.646 8.407h7.875c.914 0 1.661.748 1.661 1.66 0 .914-.747 1.662-1.661 1.662h-11.63c0-1.129-.117-2.243-.333-3.322a16.941 16.941 0 00-1.112-3.441c2.31-3.902 6.546-6.527 11.414-6.527h.033c.448 0 .813.381.813.829.018.317-.165.581-.414.732m-13.724 11.729h-14.953c-.914 0-1.66-.748-1.66-1.662 0-.912.746-1.66 1.66-1.66h7.892a13.343 13.343 0 00-6.646-8.407.805.805 0 01-.432-.732c0-.448.365-.814.815-.829h.032c7.343 0 13.292 5.948 13.292 13.29m-.965-18.524c-.995-2.593-2.706-4.837-4.917-6.431-.697-.498-1.594.316-1.195 1.081a18.099 18.099 0 012.093 8.439c0 .349-.051.682-.067 1.014.716.4 1.38.864 2.027 1.363.35-1.961 1.081-3.806 2.059-5.466m7.012 3.605a16.666 16.666 0 014.253-6.364c.632-.597.067-1.661-.763-1.412-5.516 1.628-9.554 6.729-9.537 12.776a16.519 16.519 0 016.047-5M38.429 191.26c0 .451.335.822.771.899a4.54 4.54 0 013.707 3.695c.079.438.445.78.895.78.553 0 .988-.489.906-1.024a6.325 6.325 0 00-1.781-3.476 6.315 6.315 0 00-3.477-1.779c-.539-.092-1.021.351-1.021.905" fill="#fff"/>
    <path d="M45.498 189.563a9.975 9.975 0 00-6.053-2.879.916.916 0 00-1.01.905c0 .465.347.849.804.895a8.217 8.217 0 014.974 2.365 8.122 8.122 0 012.351 4.974c.046.457.43.803.894.803a.914.914 0 00.906-1.01 9.886 9.886 0 00-2.866-6.053M193.684 203.017c-.803 0-1.46-.655-1.46-1.459 0-.803.657-1.46 1.46-1.46.803 0 1.46.657 1.46 1.46 0 .804-.657 1.459-1.46 1.459m20.336.309l-5.255 2.452-3.402-3.199v-2.042l3.402-3.199 5.255 2.453a1.098 1.098 0 001.46-.524 1.1 1.1 0 00-.527-1.46l-5.723-2.672a1.447 1.447 0 00-1.648.292l-2.542 2.335a1.418 1.418 0 00-1.137-.584c-.803 0-1.46.657-1.46 1.46v1.46h-4.644c-.758-2.116-2.991-3.503-5.517-2.671a4.326 4.326 0 00-2.761 2.773c-.699 2.19.365 4.131 2.002 5.124l3.737 12.293h-2.306c-1.212 0-2.19.979-2.19 2.19 0 1.211.978 2.189 2.19 2.189h14.599c1.212 0 2.19-.978 2.19-2.189s-.978-2.19-2.19-2.19h-3.095l-7.256-13.474c.248-.352.453-.717.597-1.126h4.644v1.46c0 .805.657 1.46 1.46 1.46.466 0 .876-.232 1.137-.582l2.542 2.334a1.447 1.447 0 001.648.292l5.723-2.671c.556-.262.789-.906.527-1.46a1.096 1.096 0 00-1.46-.524M186.716 198.505c.45 0 .822-.334.9-.771a4.5 4.5 0 011.259-2.442 4.553 4.553 0 012.436-1.266c.436-.077.778-.444.778-.893 0-.554-.488-.989-1.022-.907a6.322 6.322 0 00-3.476 1.781 6.334 6.334 0 00-1.781 3.478c-.091.538.353 1.02.906 1.02" fill="#fff"/>
    <path d="M185.02 191.437a9.978 9.978 0 00-2.881 6.052.917.917 0 00.907 1.011.897.897 0 00.895-.805 8.212 8.212 0 012.363-4.974 8.123 8.123 0 014.974-2.35.897.897 0 00.805-.895.917.917 0 00-1.011-.907 9.884 9.884 0 00-6.052 2.868M280.134 192.34a3.213 3.213 0 013.213 3.214 3.212 3.212 0 11-6.426 0 3.213 3.213 0 013.213-3.214M294.596 209.921c0-.805-.578-1.495-1.366-1.576-3.021-.338-5.606-1.816-7.633-4.226l-2.153-2.571a3.145 3.145 0 00-2.459-1.174h-1.687c-.948 0-1.847.418-2.459 1.158l-2.153 2.571c-2.009 2.41-4.612 3.889-7.633 4.226-.804.097-1.381.787-1.381 1.592 0 .963.851 1.719 1.815 1.607 3.697-.435 6.943-2.235 9.434-5.127v3.615l-6.043 2.411c-1.045.418-1.864 1.333-1.978 2.459a2.878 2.878 0 002.862 3.165h3.552v-.803a4.016 4.016 0 014.016-4.016h4.822c.448 0 .803.353.803.801a.797.797 0 01-.803.805h-4.822a2.406 2.406 0 00-2.409 2.41v.803h11.408c1.368 0 2.651-.867 2.974-2.2a2.876 2.876 0 00-1.736-3.345l-6.219-2.49v-3.615c2.508 2.892 5.737 4.676 9.434 5.127.963.095 1.814-.644 1.814-1.607" fill="#fff"/>
    <path d="M269.311 206.318c.3 0 .548-.221.597-.513a3.018 3.018 0 012.456-2.461.612.612 0 00.515-.593c0-.368-.324-.658-.678-.601a4.195 4.195 0 00-2.309 1.181 4.21 4.21 0 00-1.182 2.308c-.06.359.235.679.601.679" fill="#fff"/>
    <path d="M268.185 201.625a6.622 6.622 0 00-1.912 4.019.608.608 0 00.602.67.592.592 0 00.593-.533 5.452 5.452 0 011.571-3.304 5.396 5.396 0 013.304-1.56.597.597 0 00.533-.595.608.608 0 00-.67-.601 6.554 6.554 0 00-4.021 1.904" fill="#fff"/>
    <path d="M97.684 86.301c-22.918.004-24.133-42.404 10.24-38.416 3.061.355 4.042.763 3.527-2.678-1.342-8.956 2.071-16.193 9.101-21.471 7.229-5.426 15.411-6.223 23.581-2.312 3.468 1.663 3.953-.352 5.082-2.505 6.603-12.604 19.634-19.106 33.4-16.744 13.321 2.285 23.617 13.081 25.577 26.82.886 6.213.886 6.213 6.967 7.04 10.888 1.483 18.558 9.452 21.344 20.474 3.044 12.04-.586 29.792-31.503 29.792-32.083 0-75.234-.005-107.316 0z" fill="#fac864"/>
  </g>
  <path d="M147 92.301v23.769a1.612 1.612 0 01-1.611 1.611H43a5 5 0 00-5 5V158.5" fill="none" stroke="#8791a5" stroke-width="3"/>
  <path d="M169.746 92.301v23.769a1.612 1.612 0 001.612 1.611h103.298a5 5 0 015 5V158.5" fill="none" stroke="#8791a5" stroke-width="3.01"/>
  <path d="M162.086 92.301v28.1a5 5 0 005 5h26.743a5 5 0 015 5V158.5M155.086 92.301v28.1a5.002 5.002 0 01-5 5h-26.257a5 5 0 00-5 5V158.5M29.817 153.5L38 161.683l8.183-8.183M271.473 153.5l8.183 8.183 8.184-8.183" fill="none" stroke="#8791a5" stroke-width="3"/>
  <path d="M190.646 153.5l8.183 8.183 8.183-8.183M110.646 153.5l8.183 8.183 8.183-8.183" fill="none" stroke="#8791a5" stroke-width="3"/>
</svg>
