<?xml version="1.0" encoding="UTF-8" standalone="no"?>
<!DOCTYPE svg PUBLIC "-//W3C//DTD SVG 1.1//EN" "http://www.w3.org/Graphics/SVG/1.1/DTD/svg11.dtd">
<svg width="318" height="82" viewBox="0 0 318 82" version="1.1" xmlns="http://www.w3.org/2000/svg" xmlns:xlink="http://www.w3.org/1999/xlink" xml:space="preserve" xmlns:serif="http://www.serif.com/" style="fill-rule:evenodd;clip-rule:evenodd;stroke-linecap:round;stroke-linejoin:round;stroke-miterlimit:10;">
    <rect id="Artboard1" x="-1643.75" y="-798" width="3328.5" height="2291.5" style="fill:none;"/>
    <g id="Layer-2" serif:id="Layer 2">
    </g>
    <g id="Layer-1" serif:id="Layer 1">
        <g>
            <g>
                <path d="M18.233,68.887C16.731,68.866 15.232,68.845 13.729,68.824L9.126,67.612C-2.029,61.852 -1.144,47.196 8.395,42.202C12.024,40.303 15.802,39.834 19.668,41.264C21.746,42.033 22.573,41.812 22.204,39.338C21.238,32.896 23.693,27.693 28.747,23.9C33.945,19.996 39.829,19.424 45.703,22.236C48.198,23.431 48.548,21.982 49.359,20.434C54.106,11.372 63.476,6.695 73.377,8.394C82.956,10.037 90.359,17.8 91.768,27.68C92.407,32.147 92.407,32.147 96.78,32.743C104.609,33.809 110.493,39.454 112.126,47.464C113.596,54.684 109.954,62.555 103.35,66.401C102.612,66.83 101.835,67.194 101.077,67.589C99.356,68.004 97.636,68.416 95.913,68.831C94.41,68.851 92.906,68.869 91.404,68.889C90.743,68.829 90.084,68.719 89.424,68.719C66.354,68.711 43.283,68.711 20.214,68.719C19.552,68.719 18.893,68.829 18.233,68.887" style="fill:rgb(250,200,100);fill-rule:nonzero;"/>
            </g>
        </g>
        <path d="M226.687,54.126L176.145,54.126L176.145,54.124L137.497,54.124" style="fill:none;fill-rule:nonzero;stroke:rgb(217,217,217);stroke-width:3.12px;"/>
        <g>
            <g>
                <path d="M143.081,62.419L134.793,54.198L143.225,45.835L134.793,54.198" style="fill:rgb(239,241,243);fill-rule:nonzero;stroke:rgb(217,217,217);stroke-width:3.12px;"/>
            </g>
        </g>
        <path d="M224.998,33.193L174.571,33.193L174.571,33.191L136.011,33.191" style="fill:none;fill-rule:nonzero;stroke:rgb(217,217,217);stroke-width:3.12px;"/>
        <g>
            <g>
                <path d="M219.755,24.897L227.974,33.118L219.611,41.481L227.974,33.118" style="fill:rgb(239,241,243);fill-rule:nonzero;stroke:rgb(217,217,217);stroke-width:3.12px;"/>
            </g>
        </g>
        <g>
            <path d="M172.261,5.592L165.761,5.592C164.736,5.592 163.903,6.423 163.903,7.448L163.903,22.306C163.903,23.334 164.736,24.165 165.761,24.165L176.905,24.165C177.93,24.165 178.761,23.334 178.761,22.306L178.761,12.092L172.261,5.592Z" style="fill:white;fill-rule:nonzero;stroke:black;stroke-width:2.08px;stroke-miterlimit:4;"/>
            <path d="M171.642,5.984L171.642,12.486L178.142,12.486" style="fill:white;fill-rule:nonzero;stroke:black;stroke-width:2.08px;stroke-miterlimit:4;"/>
            <path d="M182.646,21.525C182.646,21.289 182.725,21.098 182.884,20.951C183.043,20.804 183.242,20.731 183.482,20.731C183.724,20.731 183.925,20.804 184.084,20.951C184.243,21.098 184.323,21.289 184.323,21.525C184.323,21.758 184.244,21.947 184.087,22.092C183.929,22.237 183.728,22.31 183.482,22.31C183.239,22.31 183.039,22.237 182.882,22.092C182.725,21.947 182.646,21.758 182.646,21.525Z" style="fill-rule:nonzero;"/>
            <path d="M187.393,15.342L187.393,16.706L188.342,16.706L188.342,17.793L187.393,17.793L187.393,20.561C187.393,20.767 187.433,20.913 187.511,21.002C187.59,21.091 187.74,21.136 187.962,21.136C188.126,21.136 188.272,21.124 188.398,21.1L188.398,22.223C188.108,22.311 187.809,22.356 187.501,22.356C186.462,22.356 185.932,21.831 185.912,20.782L185.912,17.793L185.102,17.793L185.102,16.706L185.912,16.706L185.912,15.342L187.393,15.342Z" style="fill-rule:nonzero;"/>
            <path d="M188.782,19.428C188.782,18.878 188.888,18.388 189.1,17.957C189.312,17.526 189.617,17.193 190.015,16.957C190.414,16.721 190.876,16.603 191.402,16.603C192.151,16.603 192.762,16.832 193.235,17.29C193.709,17.748 193.973,18.371 194.027,19.157L194.038,19.536C194.038,20.387 193.8,21.07 193.325,21.584C192.85,22.099 192.212,22.356 191.413,22.356C190.613,22.356 189.974,22.1 189.498,21.587C189.021,21.074 188.782,20.377 188.782,19.495L188.782,19.428ZM190.264,19.536C190.264,20.062 190.363,20.465 190.561,20.743C190.76,21.022 191.043,21.161 191.413,21.161C191.771,21.161 192.052,21.024 192.253,20.749C192.455,20.473 192.556,20.033 192.556,19.428C192.556,18.912 192.455,18.512 192.253,18.229C192.052,17.945 191.768,17.803 191.402,17.803C191.04,17.803 190.76,17.944 190.561,18.226C190.363,18.508 190.264,18.945 190.264,19.536Z" style="fill-rule:nonzero;"/>
            <path d="M196.514,22.253L195.027,22.253L195.027,16.706L196.514,16.706L196.514,22.253ZM194.94,15.27C194.94,15.048 195.014,14.865 195.163,14.722C195.311,14.578 195.514,14.507 195.77,14.507C196.023,14.507 196.225,14.578 196.375,14.722C196.526,14.865 196.601,15.048 196.601,15.27C196.601,15.496 196.525,15.681 196.373,15.824C196.221,15.968 196.02,16.039 195.77,16.039C195.521,16.039 195.32,15.968 195.168,15.824C195.016,15.681 194.94,15.496 194.94,15.27Z" style="fill-rule:nonzero;"/>
            <path d="M199.507,15.342L199.507,16.706L200.456,16.706L200.456,17.793L199.507,17.793L199.507,20.561C199.507,20.767 199.547,20.913 199.625,21.002C199.704,21.091 199.854,21.136 200.077,21.136C200.241,21.136 200.386,21.124 200.512,21.1L200.512,22.223C200.222,22.311 199.923,22.356 199.615,22.356C198.576,22.356 198.046,21.831 198.026,20.782L198.026,17.793L197.216,17.793L197.216,16.706L198.026,16.706L198.026,15.342L199.507,15.342Z" style="fill-rule:nonzero;"/>
        </g>
        <path d="M297.638,66.702L271.23,66.702C265.819,66.702 261.432,62.315 261.432,56.904L261.432,30.496C261.432,25.084 265.819,20.696 271.23,20.696L297.638,20.696C303.051,20.696 307.436,25.084 307.436,30.496L307.436,56.904C307.436,62.315 303.051,66.702 297.638,66.702Z" style="fill:rgb(250,200,100);fill-rule:nonzero;stroke:rgb(29,29,27);stroke-width:2.08px;stroke-linecap:butt;stroke-linejoin:miter;"/>
        <path d="M294.414,60.91L274.453,60.91C270.461,60.91 267.224,57.672 267.224,53.679L267.224,33.718C267.224,29.727 270.461,26.489 274.453,26.489L294.414,26.489C298.407,26.489 301.645,29.727 301.645,33.718L301.645,53.679C301.645,57.672 298.407,60.91 294.414,60.91Z" style="fill:white;fill-rule:nonzero;stroke:rgb(29,29,27);stroke-width:2.08px;stroke-linecap:butt;stroke-linejoin:miter;"/>
        <rect x="289.348" y="48.381" width="6.619" height="6.617" style="fill:rgb(29,29,27);"/>
        <path d="M284.434,20.697L284.434,13.712" style="fill:none;fill-rule:nonzero;stroke:rgb(29,29,27);stroke-width:2.08px;stroke-linejoin:miter;"/>
        <path d="M272.728,20.697L272.728,13.712" style="fill:none;fill-rule:nonzero;stroke:rgb(29,29,27);stroke-width:2.08px;stroke-linejoin:miter;"/>
        <path d="M296.141,20.697L296.141,13.712" style="fill:none;fill-rule:nonzero;stroke:rgb(29,29,27);stroke-width:2.08px;stroke-linejoin:miter;"/>
        <path d="M308.395,43.699L315.38,43.699" style="fill:none;fill-rule:nonzero;stroke:rgb(29,29,27);stroke-width:2.08px;stroke-linejoin:miter;"/>
        <path d="M308.395,31.992L315.38,31.992" style="fill:none;fill-rule:nonzero;stroke:rgb(29,29,27);stroke-width:2.08px;stroke-linejoin:miter;"/>
        <path d="M308.395,55.407L315.38,55.407" style="fill:none;fill-rule:nonzero;stroke:rgb(29,29,27);stroke-width:2.08px;stroke-linejoin:miter;"/>
        <path d="M254.102,43.699L261.085,43.699" style="fill:none;fill-rule:nonzero;stroke:rgb(29,29,27);stroke-width:2.08px;stroke-linejoin:miter;"/>
        <path d="M254.102,31.992L261.085,31.992" style="fill:none;fill-rule:nonzero;stroke:rgb(29,29,27);stroke-width:2.08px;stroke-linejoin:miter;"/>
        <path d="M254.102,55.407L261.085,55.407" style="fill:none;fill-rule:nonzero;stroke:rgb(29,29,27);stroke-width:2.08px;stroke-linejoin:miter;"/>
        <path d="M284.434,73.687L284.434,66.701" style="fill:none;fill-rule:nonzero;stroke:rgb(29,29,27);stroke-width:2.08px;stroke-linejoin:miter;"/>
        <path d="M272.728,73.687L272.728,66.701" style="fill:none;fill-rule:nonzero;stroke:rgb(29,29,27);stroke-width:2.08px;stroke-linejoin:miter;"/>
        <path d="M296.141,73.687L296.141,66.701" style="fill:none;fill-rule:nonzero;stroke:rgb(29,29,27);stroke-width:2.08px;stroke-linejoin:miter;"/>
        <g>
            <path d="M186.727,69.596C186.727,69.254 186.863,68.927 187.104,68.685C187.346,68.444 187.673,68.308 188.015,68.308L188.015,68.308C188.726,68.308 189.302,68.885 189.302,69.596L189.302,73.792C189.302,74.133 189.166,74.461 188.925,74.702C188.684,74.944 188.356,75.079 188.015,75.079L188.015,75.079C187.304,75.079 186.727,74.503 186.727,73.792L186.727,69.596Z" style="fill-rule:nonzero;"/>
            <path d="M182.292,63.485C182.292,63.144 182.427,62.816 182.669,62.575C182.91,62.334 183.238,62.198 183.579,62.198L183.579,62.198C184.29,62.198 184.867,62.774 184.867,63.485L184.867,73.792C184.867,74.133 184.731,74.461 184.49,74.702C184.248,74.944 183.921,75.079 183.579,75.079L183.579,75.079C182.868,75.079 182.292,74.503 182.292,73.792L182.292,63.485Z" style="fill-rule:nonzero;"/>
            <path d="M177.671,67.443C177.671,66.68 178.289,66.063 179.051,66.062L179.051,66.062C179.813,66.063 180.431,66.68 180.431,67.443L180.431,73.699C180.431,74.461 179.813,75.079 179.051,75.079L179.051,75.079C178.289,75.079 177.671,74.461 177.671,73.699L177.671,67.443Z" style="fill-rule:nonzero;"/>
        </g>
    </g>
</svg>
