<?xml version="1.0" encoding="UTF-8" standalone="no"?>
<!DOCTYPE svg PUBLIC "-//W3C//DTD SVG 1.1//EN" "http://www.w3.org/Graphics/SVG/1.1/DTD/svg11.dtd">
<svg width="288" height="172" viewBox="0 0 288 172" version="1.1" xmlns="http://www.w3.org/2000/svg" xmlns:xlink="http://www.w3.org/1999/xlink" xml:space="preserve" xmlns:serif="http://www.serif.com/" style="fill-rule:evenodd;clip-rule:evenodd;stroke-miterlimit:10;">
    <rect id="Artboard1" x="-2529.5" y="-463" width="3328.5" height="2291.5" style="fill:none;"/>
    <g id="Layer-2" serif:id="Layer 2">
    </g>
    <g id="Layer-1" serif:id="Layer 1">
        <path d="M163.223,67.847L126.071,67.847C120.658,67.847 116.273,63.462 116.273,58.049L116.273,20.897C116.273,15.487 120.658,11.099 126.071,11.099L163.223,11.099C168.635,11.099 173.021,15.487 173.021,20.897L173.021,58.049C173.021,63.462 168.635,67.847 163.223,67.847Z" style="fill:rgb(250,200,100);fill-rule:nonzero;stroke:rgb(29,29,27);stroke-width:3.12px;"/>
        <path d="M158.645,60.703L130.649,60.703C126.656,60.703 123.418,57.465 123.418,53.472L123.418,25.474C123.418,21.482 126.656,18.245 130.649,18.245L158.645,18.245C162.639,18.245 165.876,21.482 165.876,25.474L165.876,53.472C165.876,57.465 162.639,60.703 158.645,60.703Z" style="fill:white;fill-rule:nonzero;stroke:rgb(29,29,27);stroke-width:3.12px;"/>
        <rect x="150.708" y="45.248" width="8.162" height="8.162" style="fill:rgb(29,29,27);"/>
        <path d="M144.646,11.1L144.646,2.485" style="fill:none;fill-rule:nonzero;stroke:rgb(29,29,27);stroke-width:3.12px;stroke-linecap:round;"/>
        <path d="M130.205,11.1L130.205,2.485" style="fill:none;fill-rule:nonzero;stroke:rgb(29,29,27);stroke-width:3.12px;stroke-linecap:round;"/>
        <path d="M159.087,11.1L159.087,2.485" style="fill:none;fill-rule:nonzero;stroke:rgb(29,29,27);stroke-width:3.12px;stroke-linecap:round;"/>
        <path d="M174.203,39.474L182.82,39.474" style="fill:none;fill-rule:nonzero;stroke:rgb(29,29,27);stroke-width:3.12px;stroke-linecap:round;"/>
        <path d="M174.203,25.033L182.82,25.033" style="fill:none;fill-rule:nonzero;stroke:rgb(29,29,27);stroke-width:3.12px;stroke-linecap:round;"/>
        <path d="M174.203,53.915L182.82,53.915" style="fill:none;fill-rule:nonzero;stroke:rgb(29,29,27);stroke-width:3.12px;stroke-linecap:round;"/>
        <path d="M107.231,39.474L115.846,39.474" style="fill:none;fill-rule:nonzero;stroke:rgb(29,29,27);stroke-width:3.12px;stroke-linecap:round;"/>
        <path d="M107.231,25.033L115.846,25.033" style="fill:none;fill-rule:nonzero;stroke:rgb(29,29,27);stroke-width:3.12px;stroke-linecap:round;"/>
        <path d="M107.231,53.915L115.846,53.915" style="fill:none;fill-rule:nonzero;stroke:rgb(29,29,27);stroke-width:3.12px;stroke-linecap:round;"/>
        <path d="M125.113,168.489L87.96,168.489C82.548,168.489 78.163,164.104 78.163,158.691L78.163,121.539C78.163,116.129 82.548,111.741 87.96,111.741L125.113,111.741C130.523,111.741 134.908,116.129 134.908,121.539L134.908,158.691C134.908,164.104 130.523,168.489 125.113,168.489Z" style="fill:white;fill-rule:nonzero;stroke:rgb(29,29,27);stroke-width:3.12px;"/>
        <path d="M121.035,138.099C121.035,149.376 106.535,159.042 106.535,159.042C106.535,159.042 92.038,149.376 92.038,138.099C92.038,130.09 98.527,123.601 106.535,123.601C114.544,123.601 121.035,130.09 121.035,138.099" style="fill:white;fill-rule:nonzero;"/>
        <path d="M121.035,138.099C121.035,149.376 106.535,159.042 106.535,159.042C106.535,159.042 92.038,149.376 92.038,138.099C92.038,130.09 98.527,123.601 106.535,123.601C114.544,123.601 121.035,130.09 121.035,138.099Z" style="fill:none;fill-rule:nonzero;stroke:black;stroke-width:3.12px;stroke-linecap:round;stroke-linejoin:round;stroke-miterlimit:4;"/>
        <path d="M106.535,133.266C109.204,133.266 111.369,135.43 111.369,138.099C111.369,140.768 109.204,142.932 106.535,142.932C103.867,142.932 101.704,140.768 101.704,138.099C101.704,135.43 103.867,133.266 106.535,133.266" style="fill:rgb(55,75,100);fill-rule:nonzero;"/>
        <ellipse cx="106.536" cy="138.099" rx="4.832" ry="4.833" style="fill:none;stroke:black;stroke-width:3.12px;stroke-linecap:round;stroke-linejoin:round;stroke-miterlimit:4;"/>
        <path d="M200.023,168.489L162.873,168.489C157.46,168.489 153.075,164.104 153.075,158.691L153.075,121.539C153.075,116.129 157.46,111.741 162.873,111.741L200.023,111.741C205.435,111.741 209.821,116.129 209.821,121.539L209.821,158.691C209.821,164.104 205.435,168.489 200.023,168.489Z" style="fill:white;fill-rule:nonzero;stroke:rgb(29,29,27);stroke-width:3.12px;"/>
        <path d="M185.499,144.161L185.499,127.197C185.499,124.959 183.686,123.147 181.449,123.147C179.209,123.147 177.396,124.959 177.396,127.197L177.396,144.249L185.499,144.161Z" style="fill:white;fill-rule:nonzero;"/>
        <path d="M185.499,145.791L185.499,132.876L177.396,136.201L177.396,145.791C174.049,148.029 173.149,152.556 175.386,155.904C177.624,159.251 182.151,160.154 185.499,157.916C188.846,155.679 189.749,151.151 187.511,147.804C186.978,147.006 186.294,146.322 185.499,145.791" style="fill:rgb(250,200,100);fill-rule:nonzero;"/>
        <path d="M185.499,145.791L185.499,127.547C185.499,125.31 183.686,123.495 181.449,123.495C179.209,123.495 177.396,125.31 177.396,127.547L177.396,145.791C174.049,148.029 173.149,152.556 175.386,155.904C177.624,159.251 182.151,160.154 185.499,157.916C188.846,155.679 189.749,151.151 187.511,147.804C186.978,147.006 186.294,146.322 185.499,145.791Z" style="fill:none;fill-rule:nonzero;stroke:black;stroke-width:3.12px;stroke-linecap:round;stroke-linejoin:round;stroke-miterlimit:4;"/>
        <path d="M274.935,168.489L237.785,168.489C232.373,168.489 227.988,164.104 227.988,158.691L227.988,121.539C227.988,116.129 232.373,111.741 237.785,111.741L274.935,111.741C280.348,111.741 284.733,116.129 284.733,121.539L284.733,158.691C284.733,164.104 280.348,168.489 274.935,168.489Z" style="fill:white;fill-rule:nonzero;stroke:rgb(29,29,27);stroke-width:3.12px;"/>
        <path d="M256.36,141.372L256.36,157.93" style="fill:none;fill-rule:nonzero;stroke:rgb(55,75,100);stroke-width:4.17px;stroke-linecap:round;"/>
        <path d="M248.68,157.931C240.795,154.675 236.272,145.664 238.084,136.983C239.859,128.485 247.828,122.158 256.574,122.302C265.684,122.452 273.172,128.945 274.791,138.102C276.205,146.106 271.324,155.11 264.001,157.904C263.78,157.085 263.474,156.281 263.391,155.456C263.359,155.154 263.793,154.689 264.128,154.481C269.389,151.204 272.124,146.487 271.895,140.289C271.568,131.581 264.039,124.889 255.368,125.406C248.709,125.804 242.778,130.731 241.205,137.175C239.57,143.889 242.418,150.831 248.332,154.308C249.228,154.833 249.559,155.293 249.157,156.258C248.947,156.762 248.851,157.312 248.68,157.931" style="fill-rule:nonzero;"/>
        <path d="M250.737,150.143C247.187,148.639 244.87,143.549 245.614,139.03C246.425,134.128 250.645,130.466 255.893,130.118C260.687,129.797 265.275,133.068 266.75,137.855C268.181,142.505 266.2,147.759 261.956,150.224C261.7,149.249 261.41,148.324 261.237,147.378C261.198,147.157 261.502,146.826 261.714,146.611C263.96,144.334 264.743,141.649 263.737,138.605C262.758,135.641 260.662,133.826 257.535,133.301C254.304,132.755 251.064,134.361 249.462,137.293C247.895,140.155 248.243,143.722 250.556,146.105C251.423,146.997 251.548,147.751 251.141,148.786C250.97,149.222 250.87,149.684 250.737,150.143" style="fill-rule:nonzero;"/>
        <path d="M50.2,168.489L13.048,168.489C7.635,168.489 3.25,164.104 3.25,158.691L3.25,121.539C3.25,116.129 7.635,111.741 13.048,111.741L50.2,111.741C55.613,111.741 59.998,116.129 59.998,121.539L59.998,158.691C59.998,164.104 55.613,168.489 50.2,168.489Z" style="fill:white;fill-rule:nonzero;stroke:rgb(29,29,27);stroke-width:3.12px;"/>
        <path d="M25.845,131.892C24.325,131.433 22.679,131.183 21.012,131.183C16.241,131.183 13.22,134.142 13.22,138.579C13.22,143.017 16.241,145.975 20.908,145.975C22.491,145.975 24.304,145.683 26.137,145.121L25.845,143.829C23.929,144.35 22.22,144.6 20.97,144.6C17.2,144.6 14.762,142.183 14.762,138.558C14.762,135.037 17.095,132.6 21.179,132.6C22.491,132.6 23.929,132.829 25.554,133.267L25.845,131.892Z" style="fill-rule:nonzero;"/>
        <path d="M34.95,131.183C30.533,131.183 27.512,134.142 27.512,138.579C27.512,143.017 30.533,145.975 34.95,145.975C39.366,145.975 42.408,143.017 42.408,138.579C42.408,134.142 39.366,131.183 34.95,131.183ZM34.95,144.6C31.47,144.6 29.054,142.183 29.054,138.579C29.054,134.975 31.47,132.579 34.95,132.579C38.45,132.579 40.866,134.975 40.866,138.579C40.866,142.183 38.45,144.6 34.95,144.6Z" style="fill-rule:nonzero;"/>
        <path d="M25.845,131.892C24.326,131.434 22.678,131.184 21.014,131.184C16.243,131.184 13.22,134.142 13.22,138.58C13.22,143.017 16.243,145.975 20.907,145.975C22.493,145.975 24.305,145.684 26.139,145.121L25.845,143.83C23.928,144.35 22.222,144.6 20.97,144.6C17.201,144.6 14.764,142.184 14.764,138.559C14.764,135.038 17.095,132.6 21.18,132.6C22.493,132.6 23.928,132.83 25.553,133.267L25.845,131.892Z" style="fill:none;fill-rule:nonzero;stroke:black;stroke-width:1.04px;"/>
        <path d="M34.951,131.183C30.535,131.183 27.514,134.141 27.514,138.579C27.514,143.016 30.535,145.975 34.951,145.975C39.366,145.975 42.408,143.016 42.408,138.579C42.408,134.141 39.366,131.183 34.951,131.183ZM34.951,144.6C31.47,144.6 29.055,142.183 29.055,138.579C29.055,134.975 31.47,132.579 34.951,132.579C38.451,132.579 40.868,134.975 40.868,138.579C40.868,142.183 38.451,144.6 34.951,144.6Z" style="fill:none;fill-rule:nonzero;stroke:black;stroke-width:1.04px;"/>
        <path d="M50.939,153.235L50.939,152.302L45.66,152.302L48.168,150.056C49.568,148.787 50.75,147.591 50.75,146.075C50.75,144.398 49.525,143.1 47.352,143.1C46.273,143.1 45.033,143.42 44.085,143.945L44.377,144.82C45.412,144.295 46.433,144.048 47.206,144.048C48.679,144.048 49.685,144.85 49.685,146.206C49.685,147.387 48.737,148.248 47.643,149.268L44.129,152.564L44.129,153.235L50.939,153.235Z" style="fill:rgb(250,200,100);fill-rule:nonzero;"/>
        <path d="M50.939,153.235L50.939,152.302L45.661,152.302L48.168,150.056C49.57,148.787 50.749,147.591 50.749,146.075C50.749,144.398 49.524,143.1 47.351,143.1C46.274,143.1 45.032,143.42 44.084,143.945L44.378,144.82C45.414,144.295 46.432,144.048 47.205,144.048C48.678,144.048 49.684,144.85 49.684,146.206C49.684,147.387 48.736,148.248 47.643,149.268L44.128,152.564L44.128,153.235L50.939,153.235Z" style="fill:none;fill-rule:nonzero;stroke:rgb(250,200,100);stroke-width:1.04px;"/>
        <path d="M31.625,103.295L31.625,85.414C31.625,81.956 34.427,79.154 37.885,79.154L123.944,79.154C127.404,79.154 130.204,76.351 130.204,72.893L130.204,67.847" style="fill:none;fill-rule:nonzero;stroke:rgb(29,29,27);stroke-width:3.12px;stroke-linecap:round;"/>
        <path d="M106.535,103.295L106.535,98.654C106.535,95.204 109.333,92.408 112.781,92.408L133.098,92.408C136.548,92.408 139.344,89.612 139.344,86.162L139.344,67.847" style="fill:none;fill-rule:nonzero;stroke:rgb(29,29,27);stroke-width:3.12px;stroke-linecap:round;"/>
        <path d="M181.448,103.295L181.448,98.656C181.448,95.206 178.65,92.408 175.2,92.408L155.79,92.408C152.338,92.408 149.542,89.61 149.542,86.16L149.542,67.847" style="fill:none;fill-rule:nonzero;stroke:rgb(29,29,27);stroke-width:3.12px;stroke-linecap:round;"/>
        <path d="M256.342,103.295L256.342,85.426C256.342,81.962 253.534,79.154 250.069,79.154L165.361,79.154C161.896,79.154 159.086,76.343 159.086,72.879L159.086,67.847" style="fill:none;fill-rule:nonzero;stroke:rgb(29,29,27);stroke-width:3.12px;stroke-linecap:round;"/>
    </g>
</svg>
