<svg width="200" height="36" viewBox="0 0 200 36" fill="#2F4158" xmlns="http://www.w3.org/2000/svg">
<path fill-rule="evenodd" clip-rule="evenodd" d="M35.9466 16.4603C35.9466 14.2915 35.5179 12.1441 34.685 10.1415C33.8521 8.13885 32.6315 6.3205 31.0933 4.79092C29.5551 3.26133 27.7297 2.05068 25.722 1.22853C23.7142 0.406383 21.5637 -0.0110499 19.394 0.000222347C18.812 0.000222347 18.2472 0.000222347 17.6823 0.0857737L17.3057 1.18083C21.3135 2.58472 24.9543 4.87135 27.9588 7.87155C30.9632 10.8718 33.2543 14.5088 34.6628 18.5135L35.7583 18.12C35.7583 17.8543 35.7825 17.5886 35.8074 17.3151L35.8074 17.3151C35.8338 17.0249 35.861 16.726 35.861 16.409L35.9466 16.4603ZM26.5376 9.31975C30.549 13.3295 33.1534 18.53 33.961 24.1428C33.2383 25.4727 32.3465 26.7034 31.3078 27.8044H28.86C28.8509 22.2861 26.6527 16.9967 22.7474 13.0962C18.8421 9.19582 13.5487 7.00284 8.02808 6.99832V4.55155C9.12806 3.50386 10.3663 2.61156 11.7083 1.89946C17.3235 2.70672 22.5262 5.31003 26.5376 9.31975ZM11.4354 28.1847C11.7138 27.7682 11.8624 27.2786 11.8624 26.7778C11.8624 26.4452 11.7969 26.1159 11.6695 25.8087C11.5422 25.5015 11.3556 25.2223 11.1204 24.9872C10.8851 24.752 10.6058 24.5655 10.2985 24.4382C9.99112 24.311 9.66169 24.2455 9.329 24.2455C8.82795 24.2455 8.33815 24.394 7.92153 24.6722C7.50492 24.9505 7.18021 25.346 6.98847 25.8087C6.79672 26.2714 6.74655 26.7806 6.8443 27.2718C6.94205 27.763 7.18333 28.2143 7.53763 28.5684C7.89193 28.9226 8.34334 29.1637 8.83477 29.2615C9.32619 29.3592 9.83557 29.309 10.2985 29.1173C10.7614 28.9257 11.1571 28.6011 11.4354 28.1847ZM5.7657 30.2289C9.43565 33.8813 14.4036 35.9318 19.5823 35.9318C22.1674 35.979 24.736 35.5099 27.1374 34.5521C29.5388 33.5943 31.7248 32.167 33.5673 30.3538L32.5231 29.3101C30.8426 31.0049 28.8428 32.3501 26.6393 33.2682C24.4358 34.1862 22.0723 34.6589 19.685 34.6589C17.2978 34.6589 14.9342 34.1862 12.7307 33.2682C10.5272 32.3501 8.52751 31.0049 6.84697 29.3101C5.15149 27.6303 3.80569 25.6314 2.88727 23.4288C1.96884 21.2262 1.49597 18.8636 1.49597 16.4774C1.49597 14.0912 1.96884 11.7286 2.88727 9.52602C3.80569 7.32345 5.15149 5.32455 6.84697 3.64471L5.73434 2.60098C3.90993 4.41433 2.46366 6.57154 1.47933 8.94763C0.494995 11.3237 -0.00782562 13.8714 -1.63148e-06 16.4432C0.0226328 21.6197 2.09575 26.5765 5.7657 30.2289ZM19.3598 28.9337C19.5364 27.0075 19.2188 25.0682 18.4371 23.2988C17.6554 21.5295 16.4353 19.9885 14.8922 18.8215C13.2389 17.5202 11.2507 16.7134 9.15783 16.4945C8.89616 16.4604 8.65714 16.3284 8.48883 16.1253C8.32052 15.9221 8.2354 15.6628 8.2506 15.3995C8.26128 15.2651 8.29876 15.1343 8.36083 15.0147C8.4229 14.8951 8.5083 14.7891 8.61199 14.7029C8.71569 14.6168 8.83558 14.5523 8.9646 14.5133C9.09363 14.4742 9.22917 14.4614 9.36323 14.4755C12.8961 14.8427 16.1398 16.5932 18.3851 19.3442C20.6304 22.0952 21.6948 25.6229 21.3454 29.1561C21.275 29.939 21.1259 30.7129 20.9004 31.466L23.8788 32.3044C24.7603 32.051 25.6191 31.7248 26.4464 31.3291C26.668 30.1732 26.7769 28.9985 26.7717 27.8215C26.7666 23.3287 25.1538 18.9858 22.2247 15.5779C19.2957 12.17 15.2437 9.92186 10.8011 9.23977C9.81088 9.05783 8.79577 9.05783 7.80555 9.23977C6.55205 9.57079 5.42571 10.2678 4.57036 11.2417C3.88073 12.0398 3.39913 12.996 3.16842 14.0251C2.9377 15.0542 2.96501 16.1243 3.24791 17.1403C3.53082 18.1563 4.06055 19.0867 4.79 19.8487C5.51944 20.6106 6.42597 21.1806 7.42897 21.5078C7.95955 21.6343 8.49671 21.7314 9.038 21.7987C10.4362 22.037 11.7049 22.7621 12.6197 23.8456C13.5345 24.929 14.0363 26.3011 14.0363 27.7189C14.0362 28.8668 13.7033 29.99 13.0777 30.9527L15.1318 32.2702C16.1386 32.5462 17.171 32.7182 18.2129 32.7835C18.827 31.5517 19.2099 30.2179 19.3427 28.8481L19.3598 28.9337ZM178.329 5.42418H182.112V30.5763H178.329V5.42418ZM117.066 20.0706C117.848 19.7121 118.504 19.1275 118.949 18.3924C119.395 17.6572 119.609 16.8054 119.565 15.947V9.94129C119.583 9.32343 119.474 8.70851 119.244 8.13461C119.014 7.56071 118.669 7.04002 118.23 6.60478C117.404 5.83306 116.314 5.40482 115.183 5.40707H104.262V30.6105H108.062V20.5325H111.948C112.784 20.5255 113.593 20.8243 114.224 21.3727C114.855 21.9212 115.263 22.6813 115.371 23.5097L116.861 30.6447H121.003L119.394 23.9546C119.316 23.1873 119.067 22.4474 118.664 21.7898C118.261 21.1322 117.715 20.5738 117.066 20.1561V20.0706ZM108.062 8.966H114.567C114.743 8.97412 114.916 9.0186 115.075 9.09664C115.234 9.17467 115.374 9.2846 115.488 9.41952C115.602 9.55444 115.687 9.71146 115.738 9.88073C115.789 10.05 115.804 10.2279 115.782 10.4033V15.5363C115.804 15.7117 115.789 15.8896 115.738 16.0589C115.687 16.2281 115.602 16.3852 115.488 16.5201C115.374 16.655 115.234 16.7649 115.075 16.843C114.916 16.921 114.743 16.9655 114.567 16.9736H108.062V8.966ZM48.7678 8.19288C48.9976 7.60384 49.3472 7.06889 49.7946 6.62189H49.7432C50.5752 5.85884 51.6611 5.43198 52.7901 5.42418H63.0606V8.966H53.4748C53.2977 8.97433 53.1241 9.01878 52.9647 9.09662C52.8053 9.17447 52.6636 9.28406 52.5482 9.41867C52.4328 9.55328 52.3461 9.71006 52.2935 9.87938C52.2409 10.0487 52.2235 10.227 52.2424 10.4033V15.639H61.6227V19.1637H52.2937V25.6314C52.2749 25.8077 52.2923 25.986 52.3448 26.1553C52.3974 26.3246 52.4841 26.4814 52.5995 26.616C52.715 26.7506 52.8567 26.8602 53.0161 26.938C53.1754 27.0159 53.349 27.0603 53.5262 27.0687H63.1119V30.6618H52.8415C51.7111 30.6607 50.6229 30.2329 49.7946 29.4641C49.3555 29.0289 49.0104 28.5082 48.7808 27.9343C48.5511 27.3604 48.4418 26.7455 48.4594 26.1276V10.0439C48.433 9.41224 48.538 8.78193 48.7678 8.19288ZM190.414 8.966H200V5.42418H189.73C188.6 5.43198 187.515 5.85884 186.683 6.62189C186.239 7.07132 185.891 7.60669 185.662 8.19514C185.432 8.78359 185.325 9.41272 185.348 10.0439V30.5763H189.13V19.1637H198.562V15.639H189.113V10.4033C189.094 10.227 189.112 10.0487 189.164 9.87938C189.217 9.71006 189.304 9.55328 189.419 9.41867C189.535 9.28406 189.676 9.17447 189.836 9.09662C189.995 9.01878 190.169 8.97433 190.346 8.966H190.414ZM71.4995 15.639H77.3708C77.9565 15.6367 78.5369 15.7509 79.078 15.9749C79.6192 16.199 80.1104 16.5284 80.523 16.944C80.9356 17.3596 81.2613 17.8531 81.4813 18.3957C81.7012 18.9384 81.811 19.5193 81.8042 20.1048V26.0934C81.8297 26.6834 81.7351 27.2725 81.5261 27.8249C81.3171 28.3774 80.9981 28.8816 80.5883 29.3072C80.1786 29.7327 79.6867 30.0707 79.1425 30.3006C78.5982 30.5305 78.013 30.6476 77.4221 30.6447H66.3643V27.1029H76.7888C76.966 27.0946 77.1395 27.0501 77.2989 26.9723C77.4583 26.8944 77.6 26.7848 77.7154 26.6502C77.8309 26.5156 77.9175 26.3588 77.9701 26.1895C78.0227 26.0202 78.0401 25.8419 78.0212 25.6656V20.9774C78.0212 20.6189 77.8788 20.2751 77.6252 20.0216C77.3716 19.7681 77.0276 19.6257 76.669 19.6257H70.7806C69.6077 19.6212 68.4845 19.1523 67.6567 18.3217C66.829 17.4911 66.3643 16.3665 66.3643 15.1941V10.0439C66.3378 9.41224 66.4428 8.78193 66.6726 8.19288C66.9025 7.60384 67.2521 7.06889 67.6994 6.62189C68.5314 5.85884 69.6173 5.43198 70.7463 5.42418H80.7943V8.966H71.3968C71.2202 8.97412 71.0473 9.0186 70.8887 9.09664C70.7301 9.17467 70.5894 9.2846 70.4753 9.41952C70.3612 9.55444 70.2763 9.71146 70.2257 9.88073C70.1751 10.05 70.1601 10.2279 70.1815 10.4033V14.2873C70.1813 14.6399 70.3191 14.9787 70.5653 15.2312C70.8116 15.4837 71.1468 15.6301 71.4995 15.639ZM124.358 6.62189C123.911 7.06889 123.561 7.60384 123.331 8.19288C123.101 8.78193 122.996 9.41224 123.023 10.0439V26.1276C123.005 26.7455 123.115 27.3604 123.344 27.9343C123.574 28.5082 123.919 29.0289 124.358 29.4641C125.186 30.2329 126.275 30.6607 127.405 30.6618H137.675V27.0687H128.09C127.913 27.0605 127.74 27.0161 127.582 26.938C127.423 26.86 127.282 26.7501 127.168 26.6151C127.054 26.4802 126.969 26.3232 126.919 26.1539C126.868 25.9847 126.853 25.8068 126.874 25.6314V19.1637H136.306V15.639H126.806V10.4033C126.785 10.2279 126.8 10.05 126.85 9.88073C126.901 9.71146 126.986 9.55444 127.1 9.41952C127.214 9.2846 127.355 9.17467 127.513 9.09663C127.672 9.0186 127.845 8.97412 128.021 8.966H137.607V5.42418H127.337C126.207 5.43198 125.122 5.85884 124.29 6.62189H124.358ZM146.063 15.639H151.934V15.6048C152.516 15.6025 153.092 15.7151 153.63 15.9359C154.167 16.1567 154.656 16.4815 155.068 16.8917C155.48 17.3018 155.807 17.7892 156.03 18.3259C156.253 18.8626 156.368 19.4381 156.368 20.0192V26.0078C156.396 26.6413 156.29 27.2736 156.057 27.8633C155.824 28.4531 155.469 28.9869 155.015 29.4299C154.196 30.2038 153.113 30.638 151.986 30.6447H140.928V27.1029H151.352C151.529 27.0948 151.702 27.0503 151.86 26.9722C152.019 26.8942 152.16 26.7843 152.274 26.6494C152.388 26.5144 152.473 26.3574 152.523 26.1882C152.574 26.0189 152.589 25.841 152.568 25.6656V20.9774C152.568 20.6189 152.425 20.2751 152.172 20.0216C151.918 19.7681 151.574 19.6257 151.215 19.6257H145.344C144.763 19.6257 144.187 19.511 143.65 19.288C143.113 19.0651 142.626 18.7384 142.215 18.3267C141.805 17.915 141.48 17.4263 141.259 16.8887C141.038 16.3512 140.926 15.7753 140.928 15.1941V10.0439C140.901 9.41224 141.006 8.78193 141.236 8.19288C141.466 7.60384 141.816 7.06889 142.263 6.62189C143.089 5.85997 144.169 5.43295 145.293 5.42418H155.358V8.966H145.926C145.75 8.97412 145.577 9.0186 145.418 9.09664C145.259 9.17467 145.119 9.2846 145.005 9.41952C144.891 9.55444 144.806 9.71146 144.755 9.88073C144.704 10.05 144.689 10.2279 144.711 10.4033V14.2873C144.711 14.4648 144.746 14.6406 144.814 14.8046C144.882 14.9686 144.981 15.1176 145.107 15.2431C145.232 15.3686 145.381 15.4682 145.546 15.5361C145.71 15.604 145.885 15.639 146.063 15.639ZM170.49 15.639H164.618C164.26 15.639 163.916 15.4966 163.662 15.2431C163.408 14.9896 163.266 14.6458 163.266 14.2873V10.4033C163.245 10.2279 163.26 10.05 163.31 9.88073C163.361 9.71146 163.446 9.55444 163.56 9.41952C163.674 9.2846 163.815 9.17467 163.973 9.09664C164.132 9.0186 164.305 8.97412 164.481 8.966H173.913V5.42418H163.865C162.736 5.43198 161.65 5.85884 160.818 6.62189C160.371 7.06889 160.021 7.60384 159.791 8.19288C159.562 8.78193 159.457 9.41224 159.483 10.0439V15.1941C159.483 16.3665 159.948 17.4911 160.776 18.3217C161.603 19.1523 162.727 19.6212 163.899 19.6257H169.788C170.146 19.6257 170.49 19.7681 170.744 20.0216C170.998 20.2751 171.14 20.6189 171.14 20.9774V25.6656C171.159 25.8419 171.142 26.0202 171.089 26.1895C171.036 26.3588 170.95 26.5156 170.834 26.6502C170.719 26.7848 170.577 26.8944 170.418 26.9723C170.258 27.0501 170.085 27.0946 169.908 27.1029H159.483V30.6447H170.541C171.132 30.6476 171.717 30.5305 172.261 30.3006C172.806 30.0707 173.297 29.7327 173.707 29.3072C174.117 28.8816 174.436 28.3774 174.645 27.8249C174.854 27.2725 174.948 26.6834 174.923 26.0934V20.1048C174.93 19.5193 174.82 18.9384 174.6 18.3957C174.38 17.8531 174.054 17.3596 173.642 16.944C173.229 16.5284 172.738 16.199 172.197 15.9749C171.656 15.7509 171.075 15.6367 170.49 15.639ZM85.2277 5.40707H96.6792C97.8053 5.40398 98.8897 5.83265 99.709 6.60478C100.15 7.03918 100.498 7.55931 100.731 8.13314C100.963 8.70697 101.076 9.32232 101.061 9.94129V16.2036C101.09 16.8371 100.984 17.4694 100.751 18.0591C100.518 18.6489 100.163 19.1827 99.709 19.6257C98.8897 20.3978 97.8053 20.8265 96.6792 20.8234H89.0106V30.6105H85.2277V5.40707ZM97.217 16.384C97.2675 16.2147 97.2826 16.0368 97.2612 15.8614V10.369C97.2826 10.1937 97.2675 10.0158 97.217 9.84651C97.1664 9.67724 97.0814 9.52022 96.9673 9.3853C96.8532 9.25038 96.7125 9.14045 96.554 9.06242C96.3954 8.98438 96.2224 8.9399 96.0459 8.93178H89.0106V17.2987H96.0459C96.2224 17.2906 96.3954 17.2461 96.554 17.1681C96.7125 17.09 96.8532 16.9801 96.9673 16.8452C97.0814 16.7103 97.1664 16.5532 97.217 16.384Z" />
</svg>
