<svg xmlns="http://www.w3.org/2000/svg" width="472.03" height="308.64" viewBox="0 0 472.03 308.64"><path d="M1119.36,334.73" transform="translate(-799.48 -204.57)" fill="none" stroke="#8682bc" stroke-miterlimit="10" stroke-width="8"/><line x1="352.57" y1="153.87" x2="308.63" y2="153.87" fill="none" stroke="#616e7e" stroke-miterlimit="10" stroke-width="8"/><line x1="308.63" y1="128.22" x2="352.57" y2="128.22" fill="none" stroke="#616e7e" stroke-miterlimit="10" stroke-width="8"/><line x1="352.57" y1="91.5" x2="352.57" y2="191.62" fill="none" stroke="#616e7e" stroke-miterlimit="10" stroke-width="8"/><path d="M1050.45,293.63v-31.4H857.12v27.71h42.24a11.13,11.13,0,1,1,0,2.76H857.12v17.87h33v2.75h-33v38.12H937.7c.12,0,8,.11,13.17-5,3.11-3,4.69-7.37,4.69-12.87V317.15a11.14,11.14,0,1,1,2.76,0v16.44c0,6.28-1.86,11.28-5.53,14.86-5.66,5.52-13.62,5.75-14.94,5.75H857.12v24.12h95.82a11.14,11.14,0,1,1,0,2.76H857.12v16.17h66.29c.2,0,15,.7,15,18.27v40h43V426h2.77v29.6h15V418.22a11.13,11.13,0,1,1,2.76,0v37.34h13.78v-22.1h2.76v22.1h32V325.15h-42.23a11.14,11.14,0,1,1,0-2.76h42.23v-26h-31v-2.76Z" transform="translate(-799.48 -204.57)" fill="#5a6e7f"/><path d="M890.07,429.5a11.1,11.1,0,0,1-11-9.76h-22v35.82h78.52v-40c0-14.93-11.77-15.5-12.28-15.51H857.12v17h22a11.11,11.11,0,1,1,11,12.52Z" transform="translate(-799.48 -204.57)" fill="#5a6e7f"/><path d="M1108.11,284.33V276h-32.8V255.53a18.16,18.16,0,0,0-18.16-18.16h-20.51v-32.8h-8.29v32.8H1010.4v-32.8h-8.28v32.8h-18v-32.8h-8.28v32.8h-18v-32.8h-8.28v32.8h-18v-32.8h-8.28v32.8H905.46v-32.8h-8.28v32.8h-18v-32.8h-8.28v32.8H850.43a18.15,18.15,0,0,0-18.15,18.16V276h-32.8v8.29h32.8v17.95h-32.8v8.29h32.8v17.94h-32.8v8.29h32.8v17.95h-32.8V363h32.8V381h-32.8v8.29h32.8v18h-32.8v8.29h32.8v17.94h-32.8v8.29h32.8v20.51a18.15,18.15,0,0,0,18.15,18.16h20.51v32.79h8.28V480.42h18v32.79h8.28V480.42h17.95v32.79h8.28V480.42h18v32.79h8.28V480.42h18v32.79h8.28V480.42h18v32.79h8.28V480.42h17.95v32.79h8.29V480.42h20.51a18.16,18.16,0,0,0,18.16-18.16V441.75h32.8v-8.29h-32.8V415.52h32.8v-8.29h-32.8v-18h32.8V381h-32.8V363h32.8v-8.29h-32.8V336.8h32.8v-8.29h-32.8V310.57h32.8v-8.29h-32.8V284.33ZM1056,461.08H851.6V256.71H1056Z" transform="translate(-799.48 -204.57)" fill="#5a6e7f"/><path d="M997.22,312.63a11.14,11.14,0,1,0,11,12.52h42.23v-2.76h-42.23A11.09,11.09,0,0,0,997.22,312.63Z" transform="translate(-799.48 -204.57)" fill="#fff"/><path d="M879.07,417h-22v2.76h22a11.13,11.13,0,1,0,0-2.76Z" transform="translate(-799.48 -204.57)" fill="#fff"/><path d="M950.87,346.46c-5.19,5.09-13,5-13.17,5H857.12v2.76h80.73c1.32,0,9.28-.23,14.94-5.75,3.67-3.58,5.53-8.58,5.53-14.86V317.15a11.14,11.14,0,1,0-2.76,0v16.44C955.56,339.09,954,343.42,950.87,346.46Z" transform="translate(-799.48 -204.57)" fill="#fff"/><path d="M857.12,378.32v2.76h95.82a6.87,6.87,0,0,1,0-2.76Z" transform="translate(-799.48 -204.57)" fill="#fff"/><path d="M938.4,455.56v-40c0-17.57-14.79-18.26-15-18.27H857.12V400h66.24c.51,0,12.28.58,12.28,15.51v40Z" transform="translate(-799.48 -204.57)" fill="#fff"/><path d="M999.19,455.56H1002V418.22a10.55,10.55,0,0,1-1.39.14,10.42,10.42,0,0,1-1.37-.14Z" transform="translate(-799.48 -204.57)" fill="#fff"/><rect x="181.93" y="221.39" width="2.77" height="29.6" fill="#fff"/><rect x="216.25" y="228.89" width="2.76" height="22.1" fill="#fff"/><rect x="220.02" y="89.05" width="30.95" height="2.76" fill="#fff"/><path d="M857.12,289.94v2.76h42.24a10.58,10.58,0,0,1-.14-1.38,10.4,10.4,0,0,1,.14-1.38Z" transform="translate(-799.48 -204.57)" fill="#fff"/><rect x="57.65" y="105.99" width="32.95" height="2.76" fill="#fff"/><path d="M1056,461.08V256.71H851.6V461.08ZM857.12,419.74V262.23h193.33V455.56H857.12Z" transform="translate(-799.48 -204.57)" fill="#5cbfab"/><path d="M899.36,289.94a10.4,10.4,0,0,0-.14,1.38,10.58,10.58,0,0,0,.14,1.38,11.14,11.14,0,1,0,0-2.76Z" transform="translate(-799.48 -204.57)" fill="#97d5c9"/><path d="M952.94,378.32a6.87,6.87,0,0,0,0,2.76,11.14,11.14,0,1,0,0-2.76Z" transform="translate(-799.48 -204.57)" fill="#97d5c9"/><path d="M989.43,407.23a11.09,11.09,0,0,0,9.76,11,10.42,10.42,0,0,0,1.37.14,10.55,10.55,0,0,0,1.39-.14,11.11,11.11,0,1,0-12.52-11Z" transform="translate(-799.48 -204.57)" fill="#5cbfab"/><path d="M1267.51,346.13a33.35,33.35,0,0,0-33.35-33.35h-66.71v66.7h66.71A33.35,33.35,0,0,0,1267.51,346.13Z" transform="translate(-799.48 -204.57)" fill="#fff" stroke="#616e7e" stroke-miterlimit="10" stroke-width="8"/></svg>