<?xml version="1.0" encoding="UTF-8" standalone="no"?>
<!DOCTYPE svg PUBLIC "-//W3C//DTD SVG 1.1//EN" "http://www.w3.org/Graphics/SVG/1.1/DTD/svg11.dtd">
<svg width="126px" height="221px" version="1.1" xmlns="http://www.w3.org/2000/svg" xmlns:xlink="http://www.w3.org/1999/xlink" xml:space="preserve" xmlns:serif="http://www.serif.com/" style="fill-rule:evenodd;clip-rule:evenodd;stroke-linecap:round;stroke-linejoin:round;stroke-miterlimit:10;">
    <rect id="Artboard1" x="-867.5" y="-263.5" width="2219" height="1527.67" style="fill:none;"/>
    <g id="Layer-2" serif:id="Layer 2">
    </g>
    <g id="Layer-1" serif:id="Layer 1">
        <g>
            <g>
                <path d="M19.889,68.573C18.228,68.55 16.564,68.526 14.903,68.504C13.204,68.057 11.506,67.609 9.807,67.162C-2.54,60.786 -1.562,44.563 9,39.036C13.017,36.933 17.199,36.413 21.476,37.995C23.775,38.847 24.692,38.604 24.282,35.865C23.215,28.734 25.932,22.975 31.526,18.775C37.281,14.455 43.794,13.82 50.297,16.934C53.057,18.257 53.444,16.654 54.343,14.938C59.599,4.908 69.971,-0.268 80.929,1.611C91.532,3.43 99.726,12.023 101.288,22.959C101.993,27.905 101.993,27.905 106.833,28.563C115.501,29.744 122.015,35.993 123.821,44.859C125.45,52.852 121.419,61.565 114.107,65.822C113.29,66.297 112.432,66.7 111.592,67.136L105.875,68.512C104.211,68.533 102.547,68.554 100.882,68.575C100.153,68.509 99.422,68.387 98.692,68.387C73.156,68.377 47.618,68.377 22.079,68.388C21.35,68.388 20.618,68.509 19.889,68.573" style="fill:rgb(250,200,100);fill-rule:nonzero;"/>
            </g>
        </g>
        <path d="M63.45,158.102L63.45,114.052L63.452,114.052C63.453,114.052 63.453,108.427 63.453,101.487L63.453,80.368" style="fill:none;fill-rule:nonzero;stroke:rgb(55,75,100);stroke-width:2.08px;"/>
        <g>
            <g>
                <path d="M85.441,119.235C85.441,131.38 75.596,141.224 63.453,141.224C51.309,141.224 41.464,131.38 41.464,119.235C41.464,107.091 51.309,97.246 63.453,97.246C75.596,97.246 85.441,107.091 85.441,119.235" style="fill:rgb(56,75,100);fill-rule:nonzero;"/>
            </g>
        </g>
        <path d="M56.96,118.308L69.941,118.308C70.964,118.308 71.795,119.139 71.795,120.162L71.795,126.652C71.795,127.676 70.964,128.507 69.941,128.507L56.96,128.507C55.937,128.507 55.106,127.676 55.106,126.652L55.106,120.162C55.106,119.139 55.937,118.308 56.96,118.308Z" style="fill:none;fill-rule:nonzero;stroke:white;stroke-width:2.08px;stroke-miterlimit:4;"/>
        <path d="M58.814,118.308L58.814,114.6C58.814,112.039 60.889,109.964 63.451,109.964C66.012,109.964 68.087,112.039 68.087,114.6L68.087,118.308" style="fill:none;fill-rule:nonzero;stroke:white;stroke-width:2.08px;stroke-miterlimit:4;"/>
        <path d="M75.584,212.963L50.818,212.963C47.209,212.963 44.286,210.039 44.286,206.431L44.286,181.663C44.286,178.056 47.209,175.131 50.818,175.131L75.584,175.131C79.193,175.131 82.116,178.056 82.116,181.663L82.116,206.431C82.116,210.039 79.193,212.963 75.584,212.963Z" style="fill:rgb(250,200,100);fill-rule:nonzero;stroke:rgb(29,29,27);stroke-width:2.08px;stroke-linecap:butt;stroke-linejoin:miter;"/>
        <path d="M72.534,208.2L53.868,208.2C51.206,208.2 49.048,206.042 49.048,203.379L49.048,184.714C49.048,182.051 51.206,179.894 53.868,179.894L72.534,179.894C75.195,179.894 77.353,182.051 77.353,184.714L77.353,203.379C77.353,206.042 75.195,208.2 72.534,208.2Z" style="fill:white;fill-rule:nonzero;stroke:rgb(29,29,27);stroke-width:2.08px;stroke-linecap:butt;stroke-linejoin:miter;"/>
        <rect x="67.242" y="197.897" width="5.442" height="5.442" style="fill:rgb(29,29,27);"/>
        <path d="M63.201,175.131L63.201,169.388" style="fill:none;fill-rule:nonzero;stroke:rgb(29,29,27);stroke-width:2.08px;stroke-linejoin:miter;"/>
        <path d="M53.574,175.131L53.574,169.388" style="fill:none;fill-rule:nonzero;stroke:rgb(29,29,27);stroke-width:2.08px;stroke-linejoin:miter;"/>
        <path d="M72.828,175.131L72.828,169.388" style="fill:none;fill-rule:nonzero;stroke:rgb(29,29,27);stroke-width:2.08px;stroke-linejoin:miter;"/>
        <path d="M82.904,194.047L88.649,194.047" style="fill:none;fill-rule:nonzero;stroke:rgb(29,29,27);stroke-width:2.08px;stroke-linejoin:miter;"/>
        <path d="M82.904,184.419L88.649,184.419" style="fill:none;fill-rule:nonzero;stroke:rgb(29,29,27);stroke-width:2.08px;stroke-linejoin:miter;"/>
        <path d="M82.904,203.674L88.649,203.674" style="fill:none;fill-rule:nonzero;stroke:rgb(29,29,27);stroke-width:2.08px;stroke-linejoin:miter;"/>
        <path d="M38.256,194.047L44.001,194.047" style="fill:none;fill-rule:nonzero;stroke:rgb(29,29,27);stroke-width:2.08px;stroke-linejoin:miter;"/>
        <path d="M38.256,184.419L44.001,184.419" style="fill:none;fill-rule:nonzero;stroke:rgb(29,29,27);stroke-width:2.08px;stroke-linejoin:miter;"/>
        <path d="M38.256,203.674L44.001,203.674" style="fill:none;fill-rule:nonzero;stroke:rgb(29,29,27);stroke-width:2.08px;stroke-linejoin:miter;"/>
        <path d="M63.201,218.706L63.201,212.963" style="fill:none;fill-rule:nonzero;stroke:rgb(29,29,27);stroke-width:2.08px;stroke-linejoin:miter;"/>
        <path d="M53.574,218.706L53.574,212.963" style="fill:none;fill-rule:nonzero;stroke:rgb(29,29,27);stroke-width:2.08px;stroke-linejoin:miter;"/>
        <path d="M72.828,218.706L72.828,212.963" style="fill:none;fill-rule:nonzero;stroke:rgb(29,29,27);stroke-width:2.08px;stroke-linejoin:miter;"/>
        <g>
            <g>
                <path d="M68.98,154.097L63.501,159.578L57.925,154.001L63.501,159.578" style="fill:rgb(239,241,243);fill-rule:nonzero;stroke:rgb(55,75,100);stroke-width:2.08px;"/>
            </g>
        </g>
        <g>
            <g>
                <path d="M57.922,84.23L63.401,78.75L68.979,84.326L63.401,78.75" style="fill:rgb(239,241,243);fill-rule:nonzero;stroke:rgb(55,75,100);stroke-width:2.08px;"/>
            </g>
        </g>
    </g>
</svg>
