<svg width="27" height="23" viewBox="0 0 27 23" fill="none" xmlns="http://www.w3.org/2000/svg">
<path d="M8.0742 21.1976L8.0807 21.2033L8.08738 21.2087C8.75926 21.7577 9.45908 21.9844 10.1189 21.9168C10.7727 21.8499 11.3105 21.5013 11.6752 21.0454L24.0744 5.54887C24.7836 4.66251 24.8367 3.31581 23.9346 2.57471C23.8918 2.5395 23.8421 2.49782 23.7866 2.45131C23.4874 2.20042 23.0206 1.80896 22.5564 1.53427C22.2827 1.37233 21.9541 1.21575 21.6178 1.17165C21.2522 1.12369 20.837 1.20969 20.54 1.58089L20.528 1.59589L20.5171 1.61166L9.97264 16.7876L5.98113 13.5092C5.96285 13.4942 5.94369 13.4784 5.92369 13.4619C5.62922 13.2192 5.15252 12.8263 4.62296 12.5585C4.06831 12.2781 3.29113 12.0534 2.56139 12.4852L2.47197 12.5381L2.40707 12.6192C2.14685 12.9445 2.07711 13.3793 2.06925 13.7472C2.06093 14.136 2.12008 14.5608 2.21426 14.9606C2.30889 15.3623 2.44406 15.7607 2.601 16.0994C2.74747 16.4155 2.94388 16.7485 3.19302 16.9563L8.0742 21.1976Z" fill="black" stroke="black" stroke-width="1.13628"/>
<path d="M22.7254 4.63976C23.4346 3.7534 23.4877 2.4067 22.5856 1.6656C21.6767 0.918874 20.3751 1.25593 19.6645 2.14411L8.65474 15.9041L4.63209 12.6001C3.72307 11.8535 2.42156 12.1906 1.71097 13.0789C1.00184 13.9653 0.948837 15.312 1.85102 16.053L7.4052 20.6149C8.31416 21.3615 9.61558 21.0244 10.3262 20.1363L22.7254 4.63976Z" fill="#BDDCD8" stroke="black" stroke-width="1.13628"/>
</svg>
