<svg width="295" height="232" viewBox="0 0 295 232" xmlns="http://www.w3.org/2000/svg" fill-rule="evenodd" clip-rule="evenodd" stroke-linejoin="round" stroke-miterlimit="2">
  <path fill="none" d="M-1091-406.002H912.997V805.255H-1091z"/>
  <path d="M283.152 36c0-5.519-4.47-10-9.997-10H21.991c-5.527 0-10.008 4.481-10.008 10v44c0 5.52 4.481 10 10.008 10h251.164c5.527 0 9.997-4.48 9.997-10V36z" fill="#fff" fill-opacity=".4"/>
  <path d="M31.577 15.747h-3.084l-.588 1.752h-1.872l3.18-8.532h1.632l3.192 8.532h-1.872l-.588-1.752zm-2.604-1.428h2.124l-1.068-3.192-1.056 3.192zM40.15 14.391c0 .972-.228 1.752-.672 2.34-.444.588-1.032.888-1.788.888-.648 0-1.164-.228-1.56-.672v2.988h-1.692v-8.772h1.572l.06.612c.408-.492.948-.732 1.608-.732.78 0 1.38.288 1.824.864.432.576.648 1.38.648 2.388v.096zm-1.692-.132c0-.588-.108-1.044-.312-1.356-.216-.324-.516-.48-.912-.48-.54 0-.9.204-1.104.6v2.604c.216.42.576.624 1.116.624.804 0 1.212-.66 1.212-1.992zM46.906 14.391c0 .972-.228 1.752-.672 2.34-.444.588-1.032.888-1.788.888-.648 0-1.164-.228-1.56-.672v2.988h-1.692v-8.772h1.572l.06.612c.408-.492.948-.732 1.608-.732.78 0 1.38.288 1.824.864.432.576.648 1.38.648 2.388v.096zm-1.692-.132c0-.588-.108-1.044-.312-1.356-.216-.324-.516-.48-.912-.48-.54 0-.9.204-1.104.6v2.604c.216.42.576.624 1.116.624.804 0 1.212-.66 1.212-1.992zM51.382 15.747c0-.204-.096-.372-.3-.492s-.54-.228-.996-.312c-1.5-.324-2.256-.96-2.256-1.932 0-.552.228-1.032.696-1.404.468-.372 1.08-.564 1.836-.564.804 0 1.452.192 1.932.564.48.384.72.876.72 1.476h-1.692a.823.823 0 00-.24-.6c-.156-.156-.396-.24-.732-.24-.276 0-.504.072-.66.204a.587.587 0 00-.228.492.5.5 0 00.264.444c.18.12.48.216.9.3.42.084.78.18 1.068.288.888.324 1.344.9 1.344 1.704 0 .576-.252 1.044-.744 1.404-.504.36-1.14.54-1.932.54-.528 0-.996-.096-1.416-.288-.408-.192-.732-.444-.96-.78a1.763 1.763 0 01-.36-1.068h1.608c.012.3.132.528.336.696.204.156.48.24.828.24.324 0 .576-.06.744-.192a.575.575 0 00.24-.48z" fill="#8791a5" fill-rule="nonzero"/>
  <g>
    <path d="M283.139 109.999c0-5.518-4.47-10-9.997-10H21.98c-5.527 0-10.008 4.482-10.008 10v99.964c0 5.518 4.481 10 10.008 10h251.163c5.527 0 9.997-4.482 9.997-10v-99.964z" fill="#fff5dc"/>
    <path d="M283.139 109.999c0-5.518-4.47-10-9.997-10H21.98c-5.527 0-10.008 4.482-10.008 10v99.964c0 5.518 4.481 10 10.008 10h251.163c5.527 0 9.997-4.482 9.997-10v-99.964zm-5.998 0v99.964c0 2.207-1.792 4-3.999 4H21.98a4.002 4.002 0 01-3.998-4v-99.964c0-2.207 1.792-4 3.998-4h251.163a4.002 4.002 0 014 4z" fill="#fac864"/>
    <g fill-rule="nonzero">
      <path d="M934.518 621.996h10.76v-2.6h-24.36v2.6h10.76v24.6h2.84v-24.6zM961.638 618.796c-8.48 0-14.28 5.68-14.28 14.2s5.8 14.2 14.28 14.2 14.32-5.68 14.32-14.2-5.84-14.2-14.32-14.2zm0 25.76c-6.68 0-11.32-4.64-11.32-11.56 0-6.92 4.64-11.52 11.32-11.52 6.72 0 11.36 4.6 11.36 11.52s-4.64 11.56-11.36 11.56zM982.318 619.396h2.84v27.2h-2.84zM1002.52 621.996h10.76v-2.6h-24.362v2.6h10.76v24.6h2.842v-24.6z" fill="#374b64" stroke="#374b64" transform="matrix(1 0 0 1 -853.113 -472.414)"/>
      <path d="M1031.08 646.596l12.28-27.2h-3.24l-10.4 23.44-10.4-23.44h-3.28l12.28 27.2h2.76zM1074 625.596l1.28 21h2.8l-1.6-27.2h-2.72l-10.92 23.8-10.92-23.8h-2.72l-1.6 27.2h2.8l1.24-21 9.92 21h2.56l9.88-21z" fill="#8791a5" stroke="#8791a5" transform="matrix(1 0 0 1 -853.113 -472.414)"/>
    </g>
    <g>
      <path d="M28.76 120.596l-.913.984v2.436h-1.764v-8.532h1.764v3.864l.768-1.056 2.184-2.808h2.16l-3.036 3.792 3.12 4.74h-2.088l-2.196-3.42zM36.356 124.136c-.924 0-1.68-.288-2.268-.864-.588-.564-.876-1.32-.876-2.268v-.168c0-.636.12-1.212.372-1.704.24-.504.588-.9 1.044-1.164.456-.276.972-.408 1.548-.408.864 0 1.548.276 2.04.816.504.552.756 1.32.756 2.328v.696h-4.044c.06.408.228.744.492.996.276.252.624.372 1.056.372.648 0 1.152-.24 1.524-.708l.828.936a2.575 2.575 0 01-1.032.84c-.432.192-.912.3-1.44.3zm-.192-5.208c-.336 0-.6.12-.816.336-.204.228-.336.552-.396.984h2.352v-.144c-.012-.372-.108-.66-.3-.864-.204-.204-.48-.312-.84-.312zM43.49 119.264a3.9 3.9 0 00-.612-.048c-.636 0-1.056.216-1.26.648v4.152h-1.692v-6.336h1.608l.036.756c.348-.588.816-.876 1.416-.876.192 0 .36.024.528.072l-.024 1.632zM45.863 117.68l.048.732c.456-.564 1.068-.852 1.824-.852.672 0 1.176.192 1.5.588.336.396.504.984.504 1.776v4.092h-1.692v-4.056c0-.36-.072-.624-.228-.78-.156-.168-.42-.24-.78-.24-.48 0-.84.204-1.08.6v4.476h-1.692v-6.336h1.596zM53.94 124.136c-.924 0-1.68-.288-2.268-.864-.588-.564-.876-1.32-.876-2.268v-.168c0-.636.12-1.212.372-1.704.24-.504.588-.9 1.044-1.164.456-.276.972-.408 1.548-.408.864 0 1.548.276 2.04.816.504.552.756 1.32.756 2.328v.696h-4.044c.06.408.228.744.492.996.276.252.624.372 1.056.372.648 0 1.152-.24 1.524-.708l.828.936a2.575 2.575 0 01-1.032.84c-.432.192-.912.3-1.44.3zm-.192-5.208c-.336 0-.6.12-.816.336-.204.228-.336.552-.396.984h2.352v-.144c-.012-.372-.108-.66-.3-.864-.204-.204-.48-.312-.84-.312zM57.606 115.016h1.704v9h-1.704zM68.612 122.264h-3.084l-.588 1.752h-1.872l3.18-8.532h1.632l3.192 8.532H69.2l-.588-1.752zm-2.604-1.428h2.124l-1.068-3.192-1.056 3.192zM77.185 120.908c0 .972-.228 1.752-.672 2.34-.444.588-1.032.888-1.788.888-.648 0-1.164-.228-1.56-.672v2.988h-1.692v-8.772h1.572l.06.612c.408-.492.948-.732 1.608-.732.78 0 1.38.288 1.824.864.432.576.648 1.38.648 2.388v.096zm-1.692-.132c0-.588-.108-1.044-.312-1.356-.216-.324-.516-.48-.912-.48-.54 0-.9.204-1.104.6v2.604c.216.42.576.624 1.116.624.804 0 1.212-.66 1.212-1.992zM83.941 120.908c0 .972-.228 1.752-.672 2.34-.444.588-1.032.888-1.788.888-.648 0-1.164-.228-1.56-.672v2.988H78.23v-8.772h1.572l.06.612c.408-.492.948-.732 1.608-.732.78 0 1.38.288 1.824.864.432.576.648 1.38.648 2.388v.096zm-1.692-.132c0-.588-.108-1.044-.312-1.356-.216-.324-.516-.48-.912-.48-.54 0-.9.204-1.104.6v2.604c.216.42.576.624 1.116.624.804 0 1.212-.66 1.212-1.992z" fill="#eea108" fill-rule="nonzero"/>
    </g>
  </g>
  <g>
    <path d="M99.175 46.018c0-5.519-4.482-10-10-10h-57c-5.518 0-10 4.481-10 10v24c0 5.52 4.482 10 10 10h57c5.518 0 10-4.48 10-10v-24z" fill="#ff6767"/>
    <path d="M37.205 54.525h-3.28l-.692 1.992h-1.527l3.197-8.532h1.324l3.208 8.532h-1.538l-.692-1.992zm-2.875-1.188h2.47l-1.23-3.54-1.24 3.54zM41.768 56.517h-1.42v-6.336h1.42v6.336zm-1.503-7.992c0-.216.072-.396.203-.54.143-.144.334-.216.597-.216.25 0 .453.072.596.216a.776.776 0 01.203.54.776.776 0 01-.203.54c-.143.144-.346.216-.596.216-.263 0-.454-.072-.597-.216a.776.776 0 01-.203-.54zM46.603 51.477a2.91 2.91 0 00-.573-.048c-.644 0-1.085.252-1.312.756v4.332h-1.407v-6.336h1.348l.036.708c.334-.552.81-.828 1.419-.828.203 0 .37.024.5.084l-.011 1.332zM47.194 52.317h3.054v1.152h-3.054zM56.928 53.41c0 .983-.214 1.763-.656 2.351-.441.576-1.037.876-1.789.876-.692 0-1.24-.228-1.658-.684v3h-1.407v-8.772h1.3l.06.636c.417-.504.978-.756 1.693-.756.764 0 1.372.288 1.813.864.43.576.644 1.38.644 2.4v.084zm-1.407-.12c0-.637-.12-1.14-.37-1.513-.25-.36-.608-.552-1.073-.552-.585 0-1.002.24-1.253.72v2.82c.263.492.68.732 1.265.732.44 0 .799-.18 1.05-.552.262-.36.38-.912.38-1.656zM58.216 47.517h1.42v9h-1.42zM64.937 56.517c-.06-.12-.108-.324-.155-.588a2.22 2.22 0 01-1.658.708c-.632 0-1.145-.18-1.55-.552a1.746 1.746 0 01-.597-1.344c0-.672.25-1.188.751-1.56.501-.36 1.205-.54 2.135-.54h.87v-.408c0-.336-.095-.6-.273-.792-.18-.204-.466-.3-.835-.3-.322 0-.585.084-.788.252a.712.712 0 00-.31.612h-1.42c0-.348.12-.672.347-.972.226-.312.537-.54.93-.72a3.341 3.341 0 011.324-.252c.74 0 1.324.18 1.765.564.442.372.668.888.68 1.572v2.856c0 .564.072 1.02.239 1.368v.096h-1.455zm-1.55-1.02c.285 0 .548-.072.786-.216.25-.132.43-.312.56-.54v-1.2h-.762c-.525 0-.919.096-1.181.276-.263.18-.394.444-.394.78 0 .276.084.492.263.648.178.168.429.252.727.252zM71.163 54.79a.65.65 0 00-.31-.577c-.215-.132-.549-.252-1.038-.348-.477-.108-.883-.228-1.205-.384-.703-.348-1.061-.852-1.061-1.5 0-.552.226-1.008.692-1.368.453-.372 1.037-.552 1.741-.552.751 0 1.36.192 1.825.564.465.372.704.864.704 1.452h-1.42a.905.905 0 00-.298-.684c-.203-.18-.477-.264-.811-.264-.31 0-.56.072-.751.216a.667.667 0 00-.299.576c0 .216.096.396.275.516.179.12.548.24 1.109.36.549.12.99.276 1.3.444.322.168.549.372.704.612.155.24.238.528.238.864 0 .576-.238 1.032-.703 1.392-.477.348-1.086.528-1.85.528-.524 0-.977-.096-1.383-.288a2.233 2.233 0 01-.942-.768 1.826 1.826 0 01-.334-1.068h1.372c.012.336.143.6.381.78.227.18.537.276.919.276.37 0 .656-.072.859-.216a.664.664 0 00.286-.564zM75.553 48.633v1.548h1.121v1.056h-1.12v3.528c0 .252.047.42.142.528.096.108.275.168.513.168.167 0 .334-.024.501-.06v1.104a3.7 3.7 0 01-.93.132c-1.097 0-1.634-.612-1.634-1.812v-3.588h-1.038v-1.056h1.038v-1.548h1.407zM79.258 56.517h-1.42v-6.336h1.42v6.336zm-1.503-7.992c0-.216.071-.396.203-.54.143-.144.334-.216.596-.216.25 0 .453.072.596.216a.776.776 0 01.203.54.776.776 0 01-.203.54c-.143.144-.346.216-.596.216-.262 0-.453-.072-.596-.216a.776.776 0 01-.203-.54zM83.389 55.497c.346 0 .644-.108.882-.312.227-.204.358-.456.37-.768h1.336a2.178 2.178 0 01-.37 1.104 2.378 2.378 0 01-.93.816c-.394.192-.823.3-1.276.3-.883 0-1.575-.288-2.088-.864-.525-.576-.775-1.368-.775-2.376v-.144c0-.972.25-1.74.763-2.328.513-.576 1.217-.864 2.1-.864.751 0 1.36.216 1.825.66.477.432.727 1.02.751 1.728h-1.336a1.337 1.337 0 00-.37-.9 1.22 1.22 0 00-.882-.348c-.466 0-.811.168-1.062.504-.25.336-.37.84-.382 1.524v.228c0 .684.132 1.2.37 1.536.25.336.608.504 1.074.504zM86.733 52.317h3.054v1.152h-3.054z" fill="#fff" fill-rule="nonzero"/>
    <g>
      <path d="M44.28 66.79a.65.65 0 00-.31-.577c-.215-.132-.549-.252-1.038-.348-.477-.108-.882-.228-1.204-.384-.704-.348-1.062-.852-1.062-1.5 0-.552.227-1.008.692-1.368.453-.372 1.038-.552 1.741-.552.752 0 1.36.192 1.825.564.465.372.704.864.704 1.452h-1.42a.905.905 0 00-.298-.684c-.202-.18-.477-.264-.81-.264-.31 0-.561.072-.752.216a.667.667 0 00-.298.576c0 .216.095.396.274.516.179.12.549.24 1.11.36.548.12.99.276 1.3.444.321.168.548.372.703.612.155.24.239.528.239.864 0 .576-.239 1.032-.704 1.392-.477.348-1.085.528-1.849.528-.525 0-.978-.096-1.383-.288a2.233 2.233 0 01-.943-.768 1.826 1.826 0 01-.334-1.068h1.372c.012.336.143.6.382.78.226.18.536.276.918.276.37 0 .656-.072.859-.216a.664.664 0 00.286-.564zM49.672 68.637c-.894 0-1.622-.288-2.17-.852-.561-.576-.835-1.332-.835-2.268v-.18c0-.636.119-1.2.357-1.692a2.705 2.705 0 011.026-1.164c.442-.288.93-.42 1.467-.42.86 0 1.515.276 1.992.828.465.552.692 1.332.692 2.34v.564h-4.115c.048.528.215.948.525 1.248.298.3.692.456 1.145.456.656 0 1.18-.264 1.586-.792l.764.732c-.25.384-.585.672-1.014.888a3.206 3.206 0 01-1.42.312zm-.167-5.436a1.23 1.23 0 00-.942.408c-.238.276-.382.66-.453 1.152h2.696v-.108c-.024-.48-.156-.84-.382-1.08-.215-.252-.525-.372-.919-.372zM54.617 62.181l.036.732c.465-.564 1.086-.852 1.837-.852 1.312 0 1.98.756 2.004 2.268v4.188h-1.42v-4.104c0-.408-.083-.708-.25-.9-.179-.192-.453-.288-.847-.288-.572 0-1.002.264-1.276.78v4.512h-1.42v-6.336h1.336zM63.47 66.79a.65.65 0 00-.31-.577c-.215-.132-.55-.252-1.038-.348-.477-.108-.883-.228-1.205-.384-.704-.348-1.061-.852-1.061-1.5 0-.552.226-1.008.691-1.368.454-.372 1.038-.552 1.742-.552.751 0 1.36.192 1.825.564.465.372.703.864.703 1.452h-1.419a.905.905 0 00-.298-.684c-.203-.18-.477-.264-.811-.264-.31 0-.56.072-.752.216a.667.667 0 00-.298.576c0 .216.096.396.275.516.178.12.548.24 1.109.36.548.12.99.276 1.3.444.322.168.549.372.704.612.155.24.238.528.238.864 0 .576-.238 1.032-.704 1.392-.477.348-1.085.528-1.848.528-.525 0-.978-.096-1.384-.288a2.233 2.233 0 01-.942-.768 1.826 1.826 0 01-.334-1.068h1.372c.011.336.143.6.381.78.227.18.537.276.919.276.37 0 .656-.072.858-.216a.664.664 0 00.287-.564zM67.598 68.517h-1.42v-6.336h1.42v6.336zm-1.503-7.992c0-.216.071-.396.203-.54.143-.144.333-.216.596-.216.25 0 .453.072.596.216a.776.776 0 01.203.54.776.776 0 01-.203.54c-.143.144-.346.216-.596.216-.263 0-.453-.072-.596-.216a.776.776 0 01-.203-.54zM70.452 62.181l.036.732c.465-.564 1.085-.852 1.837-.852 1.312 0 1.98.756 2.004 2.268v4.188h-1.42v-4.104c0-.408-.083-.708-.25-.9-.179-.192-.453-.288-.847-.288-.572 0-1.002.264-1.276.78v4.512h-1.42v-6.336h1.336zM75.523 65.301c0-.984.226-1.776.691-2.364.454-.588 1.074-.876 1.825-.876.728 0 1.288.252 1.706.756l.06-.636h1.276v6.144c0 .828-.263 1.488-.776 1.968-.512.48-1.204.72-2.075.72-.465 0-.918-.096-1.36-.288-.441-.192-.775-.444-1.002-.756l.668-.864c.43.528.966.78 1.61.78.466 0 .836-.12 1.11-.384.274-.252.405-.624.405-1.128v-.42c-.405.456-.954.684-1.634.684-.727 0-1.336-.3-1.8-.888-.466-.588-.704-1.404-.704-2.448zm1.407.12c0 .636.131 1.14.394 1.5.25.372.608.552 1.073.552.573 0 .99-.24 1.264-.732v-2.796c-.262-.48-.68-.72-1.252-.72-.465 0-.835.192-1.085.552-.263.372-.394.924-.394 1.644z" fill="#fff" fill-rule="nonzero"/>
    </g>
  </g>
  <g>
    <path d="M186.166 46.018c0-5.519-4.481-10-10-10h-57c-5.518 0-10 4.481-10 10v24c0 5.52 4.482 10 10 10h57c5.519 0 10-4.48 10-10v-24z" fill="#ff6767"/>
    <path d="M142.198 56.517h-1.467l-3.781-6.048v6.048h-1.48v-8.532h1.48l3.793 6.072v-6.072h1.455v8.532zM150.713 52.473c0 .84-.143 1.572-.43 2.196-.297.636-.703 1.116-1.24 1.464-.537.336-1.145.504-1.837.504-.691 0-1.3-.168-1.836-.504a3.462 3.462 0 01-1.253-1.452c-.286-.624-.441-1.344-.441-2.16v-.48c0-.828.143-1.572.441-2.208.286-.636.704-1.116 1.24-1.452.525-.348 1.146-.516 1.837-.516.692 0 1.3.168 1.837.504.537.336.943.816 1.24 1.44.287.624.43 1.356.442 2.196v.468zm-1.479-.444c0-.948-.179-1.668-.537-2.172-.346-.504-.858-.756-1.503-.756-.644 0-1.133.252-1.502.756-.358.492-.537 1.212-.55 2.124v.492c0 .936.192 1.668.55 2.172.357.516.87.768 1.514.768s1.145-.252 1.503-.744c.346-.504.525-1.236.525-2.196v-.444zM154.296 52.27l1.205-2.089h1.575l-1.933 3.12 1.992 3.216h-1.562l-1.253-2.172-1.252 2.172h-1.575l1.992-3.216-1.92-3.12h1.562l1.17 2.088zM157.73 52.317h3.054v1.152h-3.053z" fill="#fff" fill-rule="nonzero"/>
    <g>
      <path d="M131.284 66.79a.65.65 0 00-.31-.577c-.215-.132-.549-.252-1.038-.348-.477-.108-.883-.228-1.205-.384-.703-.348-1.061-.852-1.061-1.5 0-.552.226-1.008.692-1.368.453-.372 1.037-.552 1.741-.552.752 0 1.36.192 1.825.564.465.372.704.864.704 1.452h-1.42a.905.905 0 00-.298-.684c-.203-.18-.477-.264-.81-.264-.311 0-.561.072-.752.216a.667.667 0 00-.299.576c0 .216.096.396.275.516.179.12.548.24 1.11.36.548.12.99.276 1.3.444.321.168.548.372.703.612.155.24.238.528.238.864 0 .576-.238 1.032-.703 1.392-.477.348-1.086.528-1.849.528-.525 0-.978-.096-1.384-.288a2.233 2.233 0 01-.942-.768 1.826 1.826 0 01-.334-1.068h1.372c.012.336.143.6.381.78.227.18.537.276.919.276.37 0 .656-.072.859-.216a.664.664 0 00.286-.564zM136.676 68.637c-.894 0-1.622-.288-2.17-.852-.561-.576-.836-1.332-.836-2.268v-.18c0-.636.12-1.2.358-1.692a2.705 2.705 0 011.026-1.164c.441-.288.93-.42 1.467-.42.859 0 1.515.276 1.992.828.465.552.692 1.332.692 2.34v.564h-4.115c.048.528.215.948.525 1.248.298.3.691.456 1.145.456.656 0 1.18-.264 1.586-.792l.763.732c-.25.384-.584.672-1.013.888a3.206 3.206 0 01-1.42.312zm-.167-5.436a1.23 1.23 0 00-.942.408c-.239.276-.382.66-.453 1.152h2.695v-.108c-.023-.48-.155-.84-.381-1.08-.215-.252-.525-.372-.919-.372zM141.622 62.181l.036.732c.465-.564 1.085-.852 1.837-.852 1.312 0 1.98.756 2.004 2.268v4.188h-1.42v-4.104c0-.408-.083-.708-.25-.9-.18-.192-.453-.288-.847-.288-.573 0-1.002.264-1.276.78v4.512h-1.42v-6.336h1.336zM150.474 66.79a.65.65 0 00-.31-.577c-.215-.132-.55-.252-1.038-.348-.477-.108-.883-.228-1.205-.384-.704-.348-1.062-.852-1.062-1.5 0-.552.227-1.008.692-1.368.454-.372 1.038-.552 1.742-.552.751 0 1.36.192 1.825.564.465.372.703.864.703 1.452h-1.419a.905.905 0 00-.298-.684c-.203-.18-.477-.264-.811-.264-.31 0-.56.072-.752.216a.667.667 0 00-.298.576c0 .216.096.396.274.516.18.12.55.24 1.11.36.548.12.99.276 1.3.444.322.168.548.372.704.612.155.24.238.528.238.864 0 .576-.238 1.032-.704 1.392-.477.348-1.085.528-1.848.528-.525 0-.978-.096-1.384-.288a2.233 2.233 0 01-.942-.768 1.826 1.826 0 01-.334-1.068h1.371c.012.336.144.6.382.78.227.18.537.276.918.276.37 0 .657-.072.86-.216a.664.664 0 00.286-.564zM154.603 68.517h-1.42v-6.336h1.42v6.336zm-1.503-7.992c0-.216.071-.396.202-.54.144-.144.334-.216.597-.216.25 0 .453.072.596.216a.776.776 0 01.203.54.776.776 0 01-.203.54c-.143.144-.346.216-.596.216-.263 0-.453-.072-.597-.216a.776.776 0 01-.202-.54zM157.457 62.181l.036.732c.465-.564 1.085-.852 1.837-.852 1.312 0 1.98.756 2.004 2.268v4.188h-1.42v-4.104c0-.408-.083-.708-.25-.9-.18-.192-.453-.288-.847-.288-.573 0-1.002.264-1.276.78v4.512h-1.42v-6.336h1.336zM162.528 65.301c0-.984.227-1.776.692-2.364.453-.588 1.074-.876 1.825-.876.728 0 1.288.252 1.706.756l.06-.636h1.276v6.144c0 .828-.263 1.488-.776 1.968-.512.48-1.204.72-2.075.72-.465 0-.918-.096-1.36-.288-.441-.192-.775-.444-1.002-.756l.668-.864c.43.528.966.78 1.61.78.466 0 .835-.12 1.11-.384.274-.252.405-.624.405-1.128v-.42c-.405.456-.954.684-1.634.684-.727 0-1.336-.3-1.8-.888-.466-.588-.705-1.404-.705-2.448zm1.408.12c0 .636.131 1.14.394 1.5.25.372.608.552 1.073.552.573 0 .99-.24 1.264-.732v-2.796c-.262-.48-.68-.72-1.252-.72-.465 0-.835.192-1.085.552-.263.372-.394.924-.394 1.644z" fill="#fff" fill-rule="nonzero"/>
    </g>
  </g>
  <g>
    <path d="M273.175 46.018c0-5.519-4.482-10-10-10h-57c-5.518 0-10 4.481-10 10v24c0 5.52 4.482 10 10 10h57c5.518 0 10-4.48 10-10v-24z" fill="#ff6767"/>
    <path d="M232.279 53.745c-.084.9-.418 1.62-1.002 2.124-.584.516-1.36.768-2.326.768-.68 0-1.276-.168-1.789-.492-.513-.312-.907-.78-1.193-1.368-.274-.588-.417-1.284-.43-2.064v-.804c0-.804.144-1.512.418-2.124.287-.612.692-1.092 1.229-1.416.525-.336 1.145-.504 1.837-.504.93 0 1.681.264 2.254.768.573.516.906 1.236 1.002 2.172h-1.467c-.072-.612-.25-1.056-.537-1.332-.286-.264-.704-.408-1.252-.408-.644 0-1.133.24-1.48.708-.345.468-.524 1.164-.524 2.076v.756c0 .924.167 1.62.489 2.112.334.48.81.72 1.443.72.573 0 1.014-.132 1.3-.396.298-.252.477-.696.56-1.296h1.468zM240.37 52.473c0 .84-.143 1.572-.43 2.196-.298.636-.703 1.116-1.24 1.464-.537.336-1.145.504-1.837.504s-1.3-.168-1.837-.504a3.462 3.462 0 01-1.252-1.452c-.286-.624-.441-1.344-.441-2.16v-.48c0-.828.143-1.572.44-2.208.287-.636.705-1.116 1.241-1.452.525-.348 1.145-.516 1.837-.516s1.3.168 1.837.504c.537.336.942.816 1.24 1.44.287.624.43 1.356.442 2.196v.468zm-1.48-.444c0-.948-.178-1.668-.536-2.172-.346-.504-.859-.756-1.503-.756-.644 0-1.133.252-1.503.756-.358.492-.536 1.212-.548 2.124v.492c0 .936.19 1.668.548 2.172.358.516.871.768 1.515.768.644 0 1.145-.252 1.503-.744.346-.504.525-1.236.525-2.196v-.444zM241.384 52.317h3.053v1.152h-3.053z" fill="#fff" fill-rule="nonzero"/>
    <g>
      <path d="M218.279 66.79a.65.65 0 00-.31-.577c-.215-.132-.55-.252-1.038-.348-.477-.108-.883-.228-1.205-.384-.704-.348-1.061-.852-1.061-1.5 0-.552.226-1.008.691-1.368.454-.372 1.038-.552 1.742-.552.751 0 1.36.192 1.825.564.465.372.703.864.703 1.452h-1.419a.905.905 0 00-.298-.684c-.203-.18-.477-.264-.811-.264-.31 0-.56.072-.752.216a.667.667 0 00-.298.576c0 .216.096.396.274.516.18.12.55.24 1.11.36.548.12.99.276 1.3.444.322.168.549.372.704.612.155.24.238.528.238.864 0 .576-.238 1.032-.704 1.392-.477.348-1.085.528-1.848.528-.525 0-.978-.096-1.384-.288a2.233 2.233 0 01-.942-.768 1.826 1.826 0 01-.334-1.068h1.371c.012.336.144.6.382.78.227.18.537.276.919.276.37 0 .656-.072.858-.216a.664.664 0 00.287-.564zM223.67 68.637c-.894 0-1.621-.288-2.17-.852-.56-.576-.835-1.332-.835-2.268v-.18c0-.636.12-1.2.358-1.692a2.705 2.705 0 011.026-1.164c.441-.288.93-.42 1.467-.42.859 0 1.515.276 1.992.828.465.552.692 1.332.692 2.34v.564h-4.116c.048.528.215.948.525 1.248.298.3.692.456 1.145.456.656 0 1.181-.264 1.587-.792l.763.732c-.25.384-.584.672-1.014.888a3.206 3.206 0 01-1.42.312zm-.166-5.436a1.23 1.23 0 00-.942.408c-.239.276-.382.66-.454 1.152h2.696v-.108c-.024-.48-.155-.84-.382-1.08-.214-.252-.525-.372-.918-.372zM228.617 62.181l.036.732c.465-.564 1.085-.852 1.836-.852 1.313 0 1.98.756 2.004 2.268v4.188h-1.42v-4.104c0-.408-.083-.708-.25-.9-.178-.192-.453-.288-.846-.288-.573 0-1.002.264-1.277.78v4.512h-1.419v-6.336h1.336zM237.465 66.79a.65.65 0 00-.31-.577c-.215-.132-.549-.252-1.038-.348-.477-.108-.882-.228-1.204-.384-.704-.348-1.062-.852-1.062-1.5 0-.552.227-1.008.692-1.368.453-.372 1.038-.552 1.741-.552.752 0 1.36.192 1.825.564.465.372.704.864.704 1.452h-1.42a.905.905 0 00-.298-.684c-.202-.18-.477-.264-.81-.264-.31 0-.561.072-.752.216a.667.667 0 00-.298.576c0 .216.095.396.274.516.179.12.549.24 1.11.36.548.12.99.276 1.3.444.321.168.548.372.703.612.155.24.239.528.239.864 0 .576-.239 1.032-.704 1.392-.477.348-1.085.528-1.849.528-.525 0-.978-.096-1.383-.288a2.233 2.233 0 01-.943-.768 1.826 1.826 0 01-.334-1.068h1.372c.012.336.143.6.382.78.226.18.536.276.918.276.37 0 .656-.072.859-.216a.664.664 0 00.286-.564zM241.6 68.517h-1.42v-6.336h1.42v6.336zm-1.503-7.992c0-.216.072-.396.203-.54.143-.144.334-.216.596-.216.25 0 .454.072.597.216a.776.776 0 01.202.54.776.776 0 01-.202.54c-.143.144-.346.216-.597.216-.262 0-.453-.072-.596-.216a.776.776 0 01-.203-.54zM244.45 62.181l.037.732c.465-.564 1.085-.852 1.836-.852 1.312 0 1.98.756 2.004 2.268v4.188h-1.42v-4.104c0-.408-.083-.708-.25-.9-.179-.192-.453-.288-.847-.288-.572 0-1.001.264-1.276.78v4.512h-1.42v-6.336h1.337zM249.528 65.301c0-.984.227-1.776.692-2.364.453-.588 1.073-.876 1.825-.876.727 0 1.288.252 1.705.756l.06-.636h1.276v6.144c0 .828-.262 1.488-.775 1.968s-1.205.72-2.076.72c-.465 0-.918-.096-1.36-.288-.44-.192-.775-.444-1.001-.756l.668-.864c.43.528.966.78 1.61.78.465 0 .835-.12 1.11-.384.274-.252.405-.624.405-1.128v-.42c-.406.456-.954.684-1.634.684-.728 0-1.336-.3-1.801-.888-.466-.588-.704-1.404-.704-2.448zm1.407.12c0 .636.132 1.14.394 1.5.25.372.608.552 1.073.552.573 0 .99-.24 1.265-.732v-2.796c-.263-.48-.68-.72-1.253-.72-.465 0-.835.192-1.085.552-.262.372-.394.924-.394 1.644z" fill="#fff" fill-rule="nonzero"/>
    </g>
  </g>
  <g>
    <path d="M0 58.504s23.401-11.701 23.401-29.252V8.775L0 0l-23.402 8.775v20.477C-23.402 46.803 0 58.504 0 58.504z" fill="#fac864" fill-rule="nonzero" stroke="#374b64" stroke-width="3.1" stroke-linejoin="miter" stroke-miterlimit="10" transform="matrix(1.04266 0 0 1.04266 267.937 95)"/>
    <path d="M0-13.46c-1.802 0-3.503.701-4.716 1.914l-3.54 3.14-1.901 1.676h.011l-3.364 2.99a4.208 4.208 0 01-3.003 1.238 4.233 4.233 0 01-4.24-4.228 4.233 4.233 0 014.24-4.228c1.139 0 2.202.437 3.053 1.288l1.413 1.251 1.89-1.676-1.576-1.388a6.723 6.723 0 00-4.78-1.977c-3.727 0-6.755 3.027-6.755 6.73 0 3.703 3.028 6.73 6.755 6.73 1.802 0 3.503-.7 4.717-1.914l3.54-3.127.012.013 1.89-1.702h-.013l3.364-2.99A4.208 4.208 0 010-10.958 4.233 4.233 0 014.24-6.73 4.233 4.233 0 010-2.502c-1.126 0-2.202-.437-3.053-1.288l-1.426-1.264-1.888 1.676 1.588 1.401A6.736 6.736 0 000-.013c3.728 0 6.755-3.014 6.755-6.729 0-3.716-3.027-6.718-6.755-6.718" fill="#374b64" fill-rule="nonzero" stroke="#374b64" stroke-width=".96" transform="matrix(1.04266 0 0 1.04266 276.545 130.478)"/>
  </g>
</svg>
