<svg width="320" height="80" viewBox="0 0 320 80" fill="none" xmlns="http://www.w3.org/2000/svg">
<path d="M191.676 71.0735V17.9868H215.976V9H157.398V17.9868H181.79V71.0735H191.676Z" fill="black"/>
<path d="M228.076 72C243.414 72 253.669 62.2721 253.669 48.0971C253.669 33.7368 243.414 24.1015 228.076 24.1015C212.831 24.1015 202.575 33.7368 202.575 48.0971C202.575 62.2721 212.831 72 228.076 72ZM228.076 63.1059C216.989 63.1059 212.369 57.825 212.369 48.0971C212.369 38.2765 216.989 32.9029 228.076 32.9029C239.256 32.9029 243.876 38.2765 243.876 48.0971C243.876 57.825 239.256 63.1059 228.076 63.1059Z" fill="black"/>
<path d="M275.447 19.6544V9H265.468V19.6544H275.447ZM275.447 71.0735V25.0279H265.468V71.0735H275.447Z" fill="black"/>
<path d="M320 71.0735V62.0868H311.685C305.956 62.0868 303.369 60.6044 303.369 54.9529V33.3662H320V25.0279H303.369V9H293.483V25.0279H285.722V33.3662H293.483V55.5088C293.483 66.7191 299.581 71.0735 309.467 71.0735H320Z" fill="black"/>
<path fill-rule="evenodd" clip-rule="evenodd" d="M4.35636 0.00053483C4.70517 -0.00488347 5.06031 0.0322642 5.4153 0.115948L52.9253 11.3158C52.984 11.3296 53.0424 11.3447 53.1005 11.361C58.2309 12.8004 63.6387 12.9302 68.8235 11.7465C69.6212 11.4372 70.4465 11.1796 71.2956 10.9777L116.988 0.11777C117.328 0.0369561 117.668 -0.00112679 118.003 3.77682e-05C119.946 -0.00776852 121.712 1.30827 122.188 3.2708C122.744 5.56434 121.327 7.87231 119.023 8.42582L73.8658 19.275L72.0334 19.7571C71.8492 19.8056 71.6648 19.8527 71.4801 19.8985C67.848 21.513 65.4297 25.1197 65.4297 29.1729L65.4296 33.43C65.4296 36.1659 66.2241 38.8445 67.719 41.1449L85.6005 68.6622C87.7734 72.006 92.5469 72.4245 95.2767 69.5025L114.842 48.5595C116.456 46.8318 119.171 46.7338 120.907 48.3406C122.642 49.9474 122.741 52.6505 121.127 54.3782L101.561 75.3213C95.0265 82.3162 83.6075 81.3253 78.3944 73.303L61.9769 48.0387C61.5825 47.4318 60.6942 47.4318 60.2999 48.0387L43.8824 73.303C38.6692 81.3253 27.2502 82.3162 20.7154 75.3212L1.14992 54.3782C-0.46411 52.6505 -0.365672 49.9474 1.36979 48.3406C3.10525 46.7338 5.82056 46.8318 7.43459 48.5595L27.0001 69.5025C29.7298 72.4245 34.5034 72.0059 36.6762 68.6621L54.5577 41.1449C56.0526 38.8445 56.8471 36.1659 56.8471 33.43V27.7127C56.8471 23.8744 54.1949 20.5258 50.418 19.6281L3.29574 8.42825C0.990515 7.88035 -0.432076 5.57583 0.118289 3.28095C0.594141 1.29677 2.38909 -0.0305583 4.35636 0.00053483Z" fill="black"/>
</svg>
