<svg width="60" height="60" viewBox="0 0 60 60" fill="none" xmlns="http://www.w3.org/2000/svg">
<path d="M45.7399 11.5683L45.768 11.5694L45.7956 11.5642L48.1839 11.1175L51.3416 14.3293C52.5273 15.8047 53.1425 17.7497 52.9143 19.8581L50.2387 44.5812C49.7604 49.0014 45.7561 52.4486 41.3001 52.274L16.3848 51.2977C14.484 51.2232 12.812 50.5021 11.5572 49.3599L7.88778 44.0624L9.10791 43.1839L9.19839 43.1188L9.21039 43.0079L11.886 18.2848C12.3644 13.8646 16.3686 10.4174 20.8246 10.592L45.7399 11.5683Z" fill="#5E6FDB" stroke="black" stroke-width="0.5"/>
<path d="M9.66758 15.3396C10.1428 11.0027 14.1219 7.61567 18.5551 7.78725L43.3314 8.74616C47.7516 8.91723 50.938 12.5608 50.4644 16.8833L47.8038 41.167C47.3286 45.5039 43.3495 48.8909 38.9163 48.7193L14.1399 47.7604C9.71972 47.5894 6.53329 43.9458 7.0069 39.6233L9.66758 15.3396Z" fill="#B0B8ED" stroke="black" stroke-width="0.5"/>
<path d="M32.3901 24.2011L32.3915 24.1877V24.1742C32.3915 23.9872 32.2935 23.7886 32.1872 23.6183C32.0737 23.4365 31.9194 23.2392 31.7504 23.0434C31.4117 22.651 30.9944 22.2423 30.6728 21.941C30.2819 21.5748 29.6881 21.5731 29.2844 21.9088L28.2189 22.7948C28.1262 22.8719 28.0119 22.9095 27.8472 22.9638C27.8145 22.9746 27.7798 22.986 27.7429 22.9985C27.3408 23.1349 27.0227 23.4952 26.9685 23.9394L23.5992 39.0008C23.5229 39.342 23.6163 39.7032 23.8637 39.9596C24.1319 40.2375 24.5497 40.655 24.9629 41.0045C25.1691 41.1789 25.3798 41.3412 25.5739 41.4612C25.754 41.5727 25.9627 41.6756 26.1557 41.6775L29.4166 41.8053C30.0061 41.8284 30.5312 41.3772 30.5947 40.7908L32.3901 24.2011ZM28.2932 16.4582L28.2932 16.4582L28.2912 16.46C28.1938 16.5419 28.0309 16.6183 27.8073 16.698C27.6988 16.7366 27.5832 16.7736 27.462 16.812C27.4499 16.8158 27.4377 16.8197 27.4254 16.8236C27.3168 16.858 27.2043 16.8936 27.0946 16.9311C26.854 17.0133 26.6034 17.1119 26.4049 17.2474C26.2037 17.3847 26.0251 17.582 25.9944 17.8653C25.9654 18.1333 26.0766 18.4031 26.219 18.638C26.3652 18.8793 26.5684 19.1226 26.7795 19.3485C26.9915 19.5756 27.2193 19.7933 27.4186 19.9819C27.4384 20.0007 27.4578 20.019 27.4769 20.0371C27.6539 20.2045 27.7984 20.3412 27.892 20.4441L27.892 20.4441L27.8941 20.4463C28.4075 20.9971 29.1185 21.2778 29.995 21.3122C30.8719 21.3465 31.6226 21.1232 32.2267 20.6261C32.8404 20.131 33.1917 19.4731 33.2788 18.6687C33.3646 17.8756 33.1637 17.1911 32.6629 16.6407C32.5829 16.5528 32.4768 16.4234 32.3465 16.2644C32.3037 16.2121 32.2583 16.1567 32.2103 16.0985C32.02 15.8677 31.7965 15.6021 31.5592 15.3498C31.3229 15.0985 31.0668 14.8538 30.8102 14.6681C30.5596 14.4868 30.2773 14.3385 29.9929 14.3273C29.6848 14.3153 29.4503 14.4619 29.2762 14.6572C29.1084 14.8455 28.9823 15.0939 28.8768 15.3302C28.8258 15.4447 28.7819 15.5502 28.7398 15.6516C28.6866 15.7793 28.6363 15.9005 28.5776 16.025C28.4762 16.2399 28.3844 16.3832 28.2932 16.4582Z" fill="white" stroke="black" stroke-width="0.5"/>
<path d="M26.5907 14.7121L26.5906 14.7121L26.5884 14.714C25.9925 15.2156 25.6537 15.8725 25.568 16.6641C25.481 17.4674 25.6809 18.1521 26.1765 18.6968L26.1765 18.6968L26.1783 18.6988C26.686 19.2435 27.3918 19.5242 28.2691 19.5586C29.1457 19.5929 29.9013 19.3699 30.5117 18.8677C31.1318 18.3673 31.4842 17.704 31.5713 16.8993C31.6572 16.1059 31.4559 15.4273 30.961 14.8834C30.4634 14.3365 29.7557 14.0564 28.8683 14.0216C27.9707 13.9865 27.2026 14.2082 26.5907 14.7121ZM27.6961 40.0519C28.2898 40.0752 28.8229 39.6152 28.8869 39.0245L30.6829 22.4286C30.7468 21.8379 30.3174 21.3402 29.7237 21.3169L26.4479 21.1886C25.8542 21.1653 25.3211 21.6253 25.2571 22.216L23.4611 38.8119C23.3972 39.4026 23.8266 39.9003 24.4203 39.9236L27.6961 40.0519Z" fill="white" stroke="black" stroke-width="0.5"/>
<path d="M27.9045 40.2725H24.1643L25.8266 41.9303H29.5668L30.8135 41.1014L29.1512 39.4436L27.9045 40.2725Z" fill="black"/>
<path d="M29.1518 19.5491H27.4895L27.9051 21.2069H29.983L30.8141 21.6213L32.892 20.378L30.8141 18.7202L29.1518 19.5491Z" fill="black"/>
<path d="M37.2002 52.2L34.2002 48.6H37.8002H40.8002L43.8002 47.4L46.2002 45L49.2002 47.4C49.4002 47.4 49.3202 47.88 47.4002 49.8C45.4802 51.72 43.0002 52.2 42.0002 52.2H37.2002Z" fill="black"/>
</svg>
