<svg width="427" height="428" viewBox="0 0 427 428" fill="none" xmlns="http://www.w3.org/2000/svg">
<path d="M325.62 83.9266L325.92 83.9383L326.214 83.8832L342.722 80.7954L364.799 103.251C373.06 113.548 377.352 127.122 375.757 141.855L356.743 317.551C353.394 348.496 325.341 372.65 294.138 371.427L117.077 364.489C103.815 363.97 92.1611 358.954 83.4076 351.017L57.8849 314.17L65.8479 308.437L66.8124 307.743L66.9403 306.561L85.9545 130.865C89.3036 99.9193 117.357 75.7661 148.559 76.9887L325.62 83.9266Z" fill="#53978E" stroke="black" stroke-width="5.32989"/>
<path d="M70.1956 109.93C73.5205 79.5842 101.387 55.8482 132.437 57.0499L308.511 63.8645C339.422 65.0608 361.661 90.5149 358.353 120.707L339.445 293.28C336.12 323.625 308.253 347.361 277.203 346.16L101.13 339.345C70.2184 338.149 47.9793 312.695 51.2874 282.503L70.1956 109.93Z" fill="#BDDCD8" stroke="black" stroke-width="5.32989"/>
<path d="M231.671 172.913L231.687 172.77V172.626C231.687 171.03 230.867 169.435 230.105 168.213C229.267 166.869 228.14 165.431 226.929 164.026C224.498 161.208 221.512 158.283 219.218 156.132C216.085 153.195 211.336 153.194 208.121 155.867L200.59 162.13C200.068 162.564 199.442 162.773 198.293 163.155C198.041 163.239 197.763 163.332 197.455 163.437C194.32 164.51 191.827 167.317 191.384 170.806L167.454 277.776C166.846 280.494 167.587 283.383 169.571 285.438C171.487 287.423 174.478 290.411 177.445 292.919C178.924 294.17 180.457 295.352 181.887 296.236C183.171 297.03 184.829 297.88 186.461 297.902L209.623 298.809C214.276 298.992 218.411 295.441 218.912 290.808L231.671 172.913ZM201.109 117.107L201.098 117.116L201.087 117.125C200.527 117.597 199.503 118.096 197.922 118.659C197.168 118.928 196.36 119.187 195.498 119.46C195.412 119.487 195.325 119.514 195.238 119.542C194.468 119.786 193.658 120.042 192.869 120.312C191.148 120.9 189.27 121.632 187.754 122.667C186.208 123.721 184.711 125.325 184.454 127.696C184.216 129.895 185.129 132.02 186.173 133.743C187.259 135.535 188.75 137.315 190.267 138.939C191.795 140.574 193.431 142.138 194.847 143.479C194.986 143.61 195.121 143.738 195.254 143.863C196.523 145.064 197.524 146.011 198.166 146.716L198.177 146.728L198.187 146.74C202.031 150.863 207.327 152.924 213.733 153.175C220.143 153.426 225.701 151.791 230.189 148.1C234.738 144.428 237.344 139.536 237.987 133.597C238.621 127.737 237.133 122.612 233.384 118.491C232.832 117.885 232.1 116.992 231.18 115.869C230.873 115.495 230.545 115.094 230.196 114.671C228.841 113.027 227.238 111.122 225.531 109.307C223.834 107.503 221.97 105.718 220.081 104.351C218.257 103.031 216.074 101.851 213.788 101.762C211.257 101.662 209.353 102.88 207.996 104.402C206.706 105.849 205.764 107.723 205.01 109.414C204.624 110.28 204.31 111.036 204.013 111.752C203.648 112.632 203.308 113.45 202.891 114.334C202.177 115.85 201.593 116.708 201.109 117.107Z" fill="white" stroke="black" stroke-width="5.32989"/>
<path d="M189.033 104.719L189.02 104.729L189.008 104.739C184.568 108.477 182.052 113.377 181.42 119.219C180.779 125.147 182.257 130.255 185.951 134.315L185.96 134.326L185.97 134.336C189.753 138.395 194.994 140.455 201.408 140.707C207.814 140.958 213.425 139.326 217.979 135.581C222.597 131.853 225.215 126.903 225.858 120.96C226.492 115.098 225.001 110.035 221.315 105.983C217.599 101.9 212.339 99.8459 205.857 99.5919C199.307 99.3352 193.604 100.954 189.033 104.719ZM197.293 286.341C202.026 286.527 206.276 282.86 206.786 278.15L219.54 160.297C220.05 155.588 216.626 151.62 211.893 151.434L188.699 150.526C183.966 150.34 179.716 154.007 179.207 158.717L166.452 276.57C165.942 281.279 169.366 285.247 174.099 285.433L197.293 286.341Z" fill="white" stroke="black" stroke-width="5.32989"/>
<path d="M198.91 287.02H172.33L184.143 298.801H210.723L219.583 292.911L207.77 281.13L198.91 287.02Z" fill="black"/>
<path d="M207.774 139.748H195.961L198.914 151.529H213.681L219.587 154.474L234.354 145.638L219.587 133.857L207.774 139.748Z" fill="black"/>
</svg>
