<svg width="426" height="426" viewBox="0 0 426 426" fill="none" xmlns="http://www.w3.org/2000/svg">
<path d="M133.59 350.484L60.1216 200.42C57.8148 195.615 57.1736 191.089 57.9677 187.216L71.6429 149.366L371.288 328.953L354.942 361.407C352.345 366.691 346.497 370.133 338.246 370.348L173.218 374.657C157.933 375.056 140.192 364.233 133.59 350.484Z" fill="#53978E"/>
<path d="M173.218 374.657L338.246 370.348C346.497 370.133 352.345 366.691 354.942 361.407L371.288 328.953L71.6429 149.366L57.9677 187.216C57.1735 191.089 57.8148 195.615 60.1216 200.42L133.59 350.484C140.192 364.233 157.933 375.056 173.218 374.657ZM173.218 374.657L184.615 344.526" stroke="black" stroke-width="5.25452" stroke-linecap="round" stroke-linejoin="round"/>
<rect width="103.814" height="96.6559" rx="10.509" transform="matrix(-0.999659 0.0260981 0.432832 0.901475 244.085 217.201)" fill="#BAD5D2" stroke="black" stroke-width="5.25452"/>
<path d="M291.964 158.85C286.944 148.395 273.481 140.164 261.894 140.467L83.4771 145.124C71.89 145.427 66.5664 154.148 71.5865 164.604L148.592 324.986C153.612 335.442 167.075 343.673 178.662 343.37L357.079 338.712C368.666 338.41 373.99 329.688 368.97 319.233L291.964 158.85Z" fill="#BAD5D2" stroke="black" stroke-width="5.25452"/>
<rect width="58.9066" height="148.296" rx="29.4533" transform="matrix(-0.999659 0.0260981 0.432832 0.901475 217.386 173.787)" fill="#797979" stroke="black" stroke-width="5.25452"/>
<path d="M230.143 200.352L268.818 280.901C275.863 295.574 268.392 307.813 252.131 308.237C235.87 308.662 216.976 297.111 209.931 282.438L190.594 242.164L214.701 183.211C221.374 187.747 226.964 193.732 230.143 200.352Z" fill="black" stroke="black" stroke-width="5.25452"/>
<rect width="38.9355" height="52.6426" rx="6.78152" transform="matrix(-0.999659 0.0260981 0.432832 0.901475 135.954 169.644)" fill="#FF8484" stroke="black" stroke-width="5.25452"/>
<path d="M179.889 215.225L210.057 99.1734L251.774 80.661L207.08 273.75L179.889 215.225Z" fill="white" stroke="black" stroke-width="5.08614"/>
<path d="M266.017 77.7797C275.478 98.1427 266.652 122.325 246.305 131.793C225.957 141.261 201.793 132.429 192.333 112.066C182.872 91.7029 191.697 67.5201 212.045 58.0522C232.392 48.5843 256.556 57.4166 266.017 77.7797Z" fill="#FF8484" stroke="black" stroke-width="5.08614" stroke-linecap="round" stroke-linejoin="round"/>
<ellipse rx="11.5975" ry="18.9653" transform="matrix(0.906653 -0.421876 0.421343 0.906901 240.819 86.7181)" fill="#FFB5B5"/>
<path d="M283.255 186.652L242.625 187.782" stroke="black" stroke-width="6.78152" stroke-linecap="round"/>
<path d="M276.482 217.147L256.167 217.713" stroke="black" stroke-width="6.78152" stroke-linecap="round"/>
<path d="M286.642 237.479L266.327 238.044" stroke="black" stroke-width="6.78152" stroke-linecap="round"/>
<path d="M320.5 271.363L279.87 272.493" stroke="black" stroke-width="6.78152" stroke-linecap="round"/>
</svg>
