<svg width="427" height="427" viewBox="0 0 427 427" fill="none" xmlns="http://www.w3.org/2000/svg">
<path d="M121.585 306.469L164.97 251.089L196.963 251.377L215.671 274.934C212.858 283.681 203.808 303.653 199.635 312.546L141.422 359.016L136.391 353.877L169.234 302.054C183.185 297.733 185.007 292.55 187.304 288.156C189.601 283.762 180.191 267.073 163.002 279.58C149.251 289.585 154.331 298.134 158.589 301.158L127.912 362.641L123.101 357.155L121.585 306.469Z" fill="#FAC864"/>
<path d="M121.585 306.469L164.97 251.089L196.963 251.377L215.671 274.934C212.858 283.681 203.808 303.653 199.635 312.546L141.422 359.016L136.391 353.877L169.234 302.054M121.585 306.469L123.101 357.155L127.912 362.641L158.589 301.158C154.331 298.134 149.251 289.585 163.002 279.58C180.191 267.073 189.601 283.762 187.304 288.156C185.007 292.55 183.185 297.733 169.234 302.054M121.585 306.469L126.176 312.304M169.234 302.054L174.044 307.54" stroke="black" stroke-width="5" stroke-linecap="round" stroke-linejoin="round"/>
<path d="M126.396 311.954L169.781 256.574L201.773 256.862L220.482 280.418C217.668 289.165 208.619 309.137 204.445 318.03L141.201 359.362L174.044 307.538C187.995 303.217 189.817 298.035 192.115 293.64C194.412 289.246 185.001 272.557 167.812 285.064C154.062 295.069 159.141 303.619 163.4 306.642L127.912 362.639L126.396 311.954Z" fill="#FFE496" stroke="black" stroke-width="5" stroke-linecap="round" stroke-linejoin="round"/>
<path d="M163.79 247.354C170.783 260.711 186.193 272.502 201.829 277.539C206.421 279.018 211.032 279.914 215.456 280.097C225.199 280.499 232.187 277.362 235.608 271.964L338.233 110.028L265.167 63.7227L162.542 225.658C159.121 231.056 159.267 238.715 163.79 247.354Z" fill="#BDDCD8"/>
<path d="M201.829 277.539C206.421 279.018 211.032 279.914 215.456 280.097C225.199 280.499 232.187 277.362 235.608 271.964L338.233 110.028L265.167 63.7227L162.542 225.658C159.121 231.056 159.267 238.715 163.79 247.354C170.783 260.711 186.193 272.502 201.829 277.539ZM201.829 277.539L303.962 116.382" stroke="black" stroke-width="5" stroke-linecap="round" stroke-linejoin="round"/>
<path d="M187.89 185.66L265.166 63.7227L338.232 110.028L260.956 231.966C257.535 237.364 250.547 240.502 240.804 240.099C226.988 239.529 211.341 231.994 200.179 221.5" stroke="black" stroke-width="5" stroke-linecap="round" stroke-linejoin="round"/>
<path d="M337.298 88.3666C346.411 105.773 337.885 119.226 318.254 118.415C298.624 117.605 275.322 102.837 266.209 85.4313C257.095 68.0253 265.621 54.572 285.252 55.3826C304.883 56.1932 328.184 70.9606 337.298 88.3666Z" fill="#BDDCD8" stroke="black" stroke-width="5" stroke-linecap="round" stroke-linejoin="round"/>
<path d="M126.293 310.5L121.793 306L164.793 251L169.293 257.5L126.293 310.5Z" fill="black"/>
<path d="M334.947 83.5593C342.711 98.3886 335.447 109.85 318.722 109.16C301.998 108.469 282.145 95.8878 274.381 81.0584C266.617 66.2291 273.881 54.7674 290.605 55.458C307.33 56.1485 327.183 68.7299 334.947 83.5593Z" fill="#53978E" stroke="black" stroke-width="5" stroke-linecap="round" stroke-linejoin="round"/>
<path d="M225.347 148.382C225.611 134.15 218.369 117.122 207.946 105.473C204.886 102.052 201.551 99.0948 198.052 96.8086C190.344 91.7726 183.297 90.9448 178.134 93.6773L97.197 136.568L135.798 209.504L216.734 166.613C221.898 163.881 225.176 157.588 225.347 148.382Z" fill="#FAC864" stroke="black" stroke-width="5" stroke-linecap="round" stroke-linejoin="round"/>
<path d="M205.437 158.67C205.76 144.55 198.606 127.688 188.256 116.176C185.217 112.795 181.902 109.875 178.421 107.622C170.751 102.659 163.723 101.867 158.56 104.6L95.0617 137.314L133.269 209.506L196.767 176.792C201.93 174.059 205.228 167.803 205.437 158.67Z" fill="#53978E" stroke="black" stroke-width="5" stroke-linecap="round" stroke-linejoin="round"/>
<path d="M144.777 190.76C144.391 209.395 131.137 216.7 115.175 207.078C99.2122 197.455 86.5854 174.548 86.9719 155.913C87.3584 137.278 100.612 129.973 116.574 139.596C132.537 149.218 145.164 172.126 144.777 190.76Z" fill="#53978E" stroke="black" stroke-width="5" stroke-linecap="round" stroke-linejoin="round"/>
<path fill-rule="evenodd" clip-rule="evenodd" d="M106.798 136.997C109.564 137.642 112.497 138.859 115.527 140.686C131.49 150.308 144.116 173.216 143.73 191.85C143.66 195.22 143.17 198.218 142.318 200.814C138.171 201.425 133.271 200.276 128.052 197.13C113.591 188.413 102.153 167.661 102.503 150.78C102.626 144.842 104.191 140.175 106.798 136.997Z" fill="black"/>
<path d="M106.798 136.997L107.366 134.562C106.439 134.346 105.469 134.675 104.865 135.411L106.798 136.997ZM115.527 140.686L116.818 138.545L115.527 140.686ZM143.73 191.85L146.229 191.902L143.73 191.85ZM142.318 200.814L142.683 203.287C143.62 203.149 144.399 202.493 144.694 201.593L142.318 200.814ZM128.052 197.13L129.343 194.989V194.989L128.052 197.13ZM102.503 150.78L100.003 150.728L102.503 150.78ZM106.23 139.432C108.702 140.008 111.393 141.112 114.236 142.827L116.818 138.545C113.6 136.605 110.425 135.276 107.366 134.562L106.23 139.432ZM114.236 142.827C121.753 147.358 128.622 155.12 133.57 164.095C138.518 173.071 141.413 183.024 141.231 191.798L146.229 191.902C146.434 182.042 143.209 171.224 137.949 161.682C132.689 152.139 125.264 143.636 116.818 138.545L114.236 142.827ZM141.231 191.798C141.165 194.959 140.706 197.709 139.943 200.035L144.694 201.593C145.633 198.728 146.155 195.48 146.229 191.902L141.231 191.798ZM141.954 198.341C138.54 198.844 134.224 197.931 129.343 194.989L126.761 199.271C132.319 202.621 137.802 204.006 142.683 203.287L141.954 198.341ZM129.343 194.989C122.577 190.91 116.38 183.914 111.913 175.81C107.446 167.705 104.839 158.73 105.002 150.832L100.003 150.728C99.8172 159.711 102.754 169.552 107.534 178.223C112.314 186.894 119.066 194.632 126.761 199.271L129.343 194.989ZM105.002 150.832C105.118 145.28 106.576 141.209 108.731 138.583L104.865 135.411C101.806 139.14 100.135 144.405 100.003 150.728L105.002 150.832Z" fill="black"/>
<path d="M189.93 106.753C194.462 104.366 200.071 106.105 202.458 110.636C204.845 115.168 203.107 120.777 198.575 123.164L121.9 163.554C121.549 163.739 121.174 163.873 120.785 163.953L102.967 167.622C98.8291 168.474 96.1497 163.387 99.1923 160.457L112.296 147.837C112.582 147.561 112.905 147.328 113.255 147.143L189.93 106.753Z" fill="#FAC864" stroke="black" stroke-width="5" stroke-linecap="round" stroke-linejoin="round"/>
</svg>
