<svg width="428" height="428" viewBox="0 0 428 428" fill="none" xmlns="http://www.w3.org/2000/svg">
<path d="M340.693 328.407C340.604 328.398 340.514 328.393 340.425 328.393H74.1025C73.8783 328.307 73.6415 328.252 73.398 328.229C63.3637 327.298 51.0859 322.008 41.7601 314.205C32.3826 306.358 26.6193 296.541 28.1399 286.668C28.7696 282.58 31.1383 279.156 34.9377 276.182C38.7695 273.182 43.9164 270.756 49.7403 268.718C55.5438 266.687 61.8626 265.094 67.9565 263.686C69.7951 263.261 71.6236 262.851 73.4113 262.45C77.4834 261.536 81.3439 260.67 84.6308 259.786C85.3812 259.584 86.006 259.065 86.3418 258.364C86.6775 257.663 86.6907 256.851 86.3778 256.139C83.2192 248.959 82.0348 240.486 83.4421 231.349C87.5824 204.467 112.471 182.679 138.794 182.679C140.674 182.679 142.507 182.79 144.288 183.004C145.327 183.13 146.343 182.635 146.886 181.741C156.438 165.997 169.305 147.883 184.244 133.737C199.125 119.646 215.712 109.822 232.869 109.682C274.741 121.793 305.005 156.562 309.696 193.923C309.798 194.733 310.266 195.452 310.965 195.873C311.664 196.295 312.518 196.373 313.282 196.084C314.694 195.551 315.814 194.557 316.698 193.502C317.591 192.437 318.369 191.159 319.061 189.832C320.272 187.51 321.379 184.717 322.421 182.087C322.56 181.736 322.698 181.388 322.835 181.044C324.042 178.015 325.166 175.327 326.372 173.398C327.323 171.876 328.01 171.335 328.412 171.153C339.635 175.989 352.79 187.013 362.657 200.642C372.742 214.571 379.005 230.677 376.785 245.089C376.694 245.681 376.593 246.272 376.484 246.861C376.24 248.169 377 249.457 378.263 249.877C395.377 255.569 405.971 272.63 402.81 293.153C400.911 305.485 393.081 314.295 382.325 320.102C371.521 325.934 357.923 328.626 345.09 328.626C343.592 328.626 342.126 328.551 340.693 328.407Z" fill="#5E6FDB" stroke="black" stroke-width="5.32989" stroke-linejoin="round"/>
<path d="M322.234 309.162C322.145 309.153 322.056 309.148 321.966 309.148H55.6442C55.42 309.063 55.1832 309.007 54.9398 308.984C35.2793 307.159 22.1881 290.219 25.4367 269.196C28.326 250.497 43.2518 234.651 60.9571 229.888C61.7073 229.686 62.3322 229.167 62.668 228.467C63.0038 227.766 63.0172 226.954 62.7046 226.243C59.5498 219.063 58.3695 210.591 59.7813 201.455C63.9349 174.574 88.8351 152.787 115.159 152.787C117.038 152.787 118.871 152.898 120.653 153.113C121.691 153.238 122.707 152.744 123.249 151.85C142.076 120.849 176.2 99.4369 211.748 99.4369C251.896 99.4369 281.388 126.725 286.054 164.029C286.155 164.84 286.623 165.559 287.322 165.98C288.021 166.402 288.875 166.48 289.639 166.192C295.987 163.795 302.681 162.487 309.452 162.487C338.062 162.487 357.641 185.915 353.117 215.191C353.026 215.783 352.925 216.374 352.815 216.962C352.571 218.271 353.33 219.56 354.594 219.98C371.704 225.671 382.29 242.73 379.119 263.251C375.182 288.73 351.576 309.381 326.632 309.381C325.134 309.381 323.667 309.307 322.234 309.162Z" fill="#B0B8ED" stroke="black" stroke-width="5.32989" stroke-linejoin="round"/>
<path d="M210.345 180.06C210.72 179.894 211.099 179.735 211.481 179.581C240.472 170.306 251.68 191.241 253.66 202.868C254.678 207.674 254.806 212.607 254.16 217.441C279.475 215.174 301.893 231.805 307.834 259.834" stroke="black" stroke-width="5.32989" stroke-linecap="round" stroke-linejoin="round"/>
</svg>
