<svg width="161" height="160" viewBox="0 0 161 160" fill="none" xmlns="http://www.w3.org/2000/svg">
<path d="M47.926 125.126C48.5955 123.409 49.7071 121.322 51.1886 118.814C52.4801 116.627 54.0292 114.159 55.7745 111.378C56.1615 110.761 56.5581 110.129 56.9638 109.482C61.4263 102.355 66.9302 93.3991 72.4192 82.3976C85.5653 56.0491 96.927 33.4214 97.6885 32.0709C98.1148 31.3151 99.4233 29.7856 101.253 28.5612C103.074 27.3417 105.249 26.5336 107.433 26.9292L107.434 26.9292C109.081 27.2274 110.028 28.297 110.732 29.6781C111.089 30.3778 111.363 31.1192 111.633 31.8516L111.655 31.9134C111.904 32.5891 112.171 33.3147 112.5 33.868C112.912 34.5594 113.074 35.7095 112.602 37.8401C112.136 39.9488 111.094 42.8235 109.364 46.7977C106.138 54.2096 100.613 65.2399 92.2834 81.8696C91.6899 83.0545 91.0822 84.2678 90.46 85.5102L91.3516 85.9566L90.46 85.5102L65.8609 134.637L59.2192 134.226C59.1165 134.22 59.0148 134.214 58.9141 134.208C56.9748 134.088 55.3895 133.991 54.1139 133.768C52.7583 133.531 51.9576 133.183 51.5002 132.704C51.277 132.47 50.9216 131.901 50.487 131.052C50.0711 130.24 49.6331 129.274 49.2313 128.338C48.8304 127.405 48.4704 126.514 48.2103 125.855C48.0933 125.558 47.9967 125.309 47.926 125.126ZM47.4372 108.887L47.4371 108.887C47.1253 109.13 46.8298 109.362 46.5485 109.582C44.9348 110.848 43.792 111.745 42.7717 112.267C42.2004 112.559 41.7241 112.701 41.2799 112.727C40.8427 112.753 40.372 112.67 39.8051 112.418C38.6173 111.891 37.1223 110.676 34.8701 108.423C32.9715 106.524 30.6126 103.969 27.5262 100.625C26.9878 100.042 26.4272 99.435 25.843 98.8031L25.1109 99.4799L25.843 98.803C23.9805 96.7884 22.2692 95.0135 20.7174 93.404C18.9165 91.5362 17.3304 89.8911 15.9721 88.3527C13.4558 85.503 11.9886 83.2968 11.6077 81.1904C11.2432 79.1746 11.8464 77.0429 14.0528 74.2515C16.2771 71.4375 20.0309 68.0831 25.7205 63.6859L25.1108 62.8969L25.7205 63.6859C36.3879 55.4414 42.8631 51.7386 47.3314 50.8299C49.5103 50.3867 51.1721 50.6186 52.6197 51.2952C54.0997 51.987 55.4367 53.1802 56.8951 54.8106C58.857 57.0039 60.1596 58.6204 60.8711 59.9787C61.5545 61.2835 61.6437 62.2533 61.2912 63.2382C60.9061 64.314 59.9504 65.5399 58.1847 67.2063C56.5022 68.7943 54.1998 70.6798 51.2049 73.1323C51.0858 73.2298 50.9656 73.3283 50.8443 73.4276C50.8442 73.4277 50.8442 73.4277 50.8442 73.4277L40.053 82.2633L39.2748 82.9006L39.9188 83.6732L47.2839 92.5088C47.2839 92.5089 47.284 92.5089 47.284 92.5089C49.4563 95.1158 51.0424 97.0625 52.089 98.6378C53.1451 100.227 53.5457 101.288 53.5457 102.137C53.5457 102.934 53.1887 103.742 52.1866 104.829C51.1704 105.932 49.6163 107.188 47.4372 108.887ZM110.211 53.938L110.211 53.938C112.227 52.2486 114.048 51.2055 115.84 50.7697C117.609 50.3394 119.432 50.4808 121.501 51.3067C125.73 52.9952 130.859 57.4824 138.232 65.5158C142.217 69.8579 145.123 73.0696 146.94 75.7321C148.754 78.389 149.35 80.3089 149.012 82.1023C148.664 83.9503 147.283 85.9287 144.442 88.5734C141.62 91.2 137.528 94.3359 132.014 98.5372L132.619 99.3303L132.014 98.5372C131.166 99.184 130.351 99.8054 129.569 100.402C125.16 103.765 121.778 106.345 119.116 108.265C115.96 110.541 113.909 111.821 112.422 112.388C111.695 112.666 111.159 112.75 110.732 112.726C110.319 112.703 109.944 112.573 109.539 112.316C109.117 112.047 108.671 111.644 108.129 111.075C107.751 110.678 107.356 110.231 106.906 109.723C106.707 109.497 106.496 109.26 106.272 109.008L106.271 109.008C105.501 108.148 104.724 107.344 103.99 106.586L103.928 106.522C103.213 105.784 102.544 105.093 101.94 104.417C100.687 103.012 99.8181 101.773 99.4669 100.51C99.1326 99.3072 99.239 97.9708 100.195 96.2824C101.159 94.5804 102.973 92.5483 106.023 90.0346L123.549 83.9772L124.913 83.5055L123.989 82.3964L116.624 73.5608C116.624 73.5608 116.624 73.5607 116.624 73.5607C115.398 72.0898 114.187 70.6995 113.082 69.4308C112.277 68.5062 111.528 67.6462 110.87 66.8666C109.248 64.9432 108.047 63.3561 107.353 61.9202C106.675 60.5167 106.519 59.3347 106.884 58.1613C107.264 56.9434 108.254 55.5785 110.211 53.938Z" fill="#FF8484" stroke="black" stroke-width="1.99412"/>
<path d="M69.5375 76.5641L69.5394 76.5601C82.6853 50.212 94.0469 27.5845 94.8087 26.2335C95.1458 25.6356 95.6696 25.2351 96.7573 25.0727C97.9156 24.8997 99.6149 25.0177 102.137 25.4744L102.138 25.4745C102.446 25.5303 102.746 25.5838 103.036 25.6357C104.317 25.8643 105.422 26.0617 106.381 26.2968C107.56 26.5862 108.391 26.9055 108.957 27.3191C109.478 27.7001 109.806 28.1823 109.941 28.9274C110.086 29.723 110.016 30.8522 109.608 32.4912C108.791 35.7732 106.726 40.7113 103.114 48.309C99.8424 55.1914 95.3357 64.1888 89.4128 76.0138C88.8164 77.2045 88.2056 78.4239 87.5802 79.6727L88.4718 80.1191L87.5802 79.6727L62.9811 128.799L56.3394 128.389C56.2135 128.381 56.0889 128.373 55.9658 128.366C54.3737 128.268 53.0129 128.184 51.857 128.03C50.6022 127.862 49.7067 127.624 49.0902 127.272C48.5249 126.949 48.181 126.524 48.0161 125.86C47.8368 125.137 47.8572 124.072 48.2167 122.485C48.936 119.308 50.9031 114.476 54.404 107.06C57.8933 99.6677 62.8638 89.7932 69.5375 76.5641ZM44.5574 103.049L44.5573 103.049C44.2456 103.292 43.95 103.524 43.6687 103.745C42.055 105.011 40.9122 105.907 39.8919 106.429C39.3206 106.721 38.8443 106.863 38.4001 106.889C37.9629 106.915 37.4922 106.833 36.9253 106.581C35.7375 106.053 34.2425 104.839 31.9904 102.586C30.0917 100.686 27.7327 98.131 24.6462 94.7877C24.1078 94.2045 23.5473 93.5974 22.9632 92.9655L22.2311 93.6423L22.9632 92.9655C22.2925 92.24 21.6516 91.55 21.0407 90.8922C18.0177 87.6373 15.7281 85.1721 14.1817 83.1028C12.32 80.6115 11.7377 78.9487 12.0465 77.4041C12.3715 75.7785 13.7306 73.9752 16.659 71.3732C19.0682 69.2326 22.3889 66.6742 26.732 63.3282C27.6077 62.6535 28.525 61.9468 29.4848 61.205C29.8269 60.9406 30.1634 60.6805 30.4943 60.4247C35.3213 56.6934 38.9623 53.8789 41.7978 51.8349C44.848 49.6361 46.8734 48.3992 48.3743 47.8587C49.1075 47.5946 49.6694 47.5147 50.1331 47.5472C50.5873 47.579 51.0078 47.7227 51.457 47.9988C52.3824 48.5676 53.3074 49.6025 54.7245 51.1877C54.7946 51.2661 54.8659 51.3459 54.9384 51.4269C56.4155 53.0782 57.4011 54.2542 57.9293 55.2705C58.4168 56.2086 58.474 56.929 58.1406 57.7573C57.7658 58.6885 56.8679 59.8278 55.1674 61.4413C53.4861 63.0367 51.1287 64.9986 47.9644 67.5902L37.1732 76.4258L36.395 77.0631L37.039 77.8357L44.4041 86.6713C44.4042 86.6713 44.4042 86.6714 44.4042 86.6714C46.5765 89.2783 48.1626 91.225 49.2092 92.8002C50.2654 94.3898 50.6659 95.4508 50.6659 96.2994C50.6659 97.0964 50.309 97.9049 49.3068 98.9919C48.2906 100.094 46.7366 101.35 44.5574 103.049ZM113.088 51.7443L113.088 51.7443C113.194 51.6549 113.299 51.5669 113.402 51.4803C115.353 49.8441 116.715 48.7026 117.907 48.0542C118.513 47.7249 119.026 47.5529 119.502 47.5036C119.969 47.4552 120.457 47.5191 121.024 47.7422C122.212 48.2096 123.682 49.3429 125.847 51.4745C127.863 53.46 130.386 56.2093 133.749 59.8743C133.96 60.1048 134.175 60.339 134.394 60.5768L134.394 60.5769C134.886 61.1135 135.363 61.6322 135.825 62.1339C139.236 65.8419 141.798 68.6278 143.509 70.9394C145.46 73.5738 146.117 75.3546 145.858 76.9678C145.592 78.6298 144.312 80.4241 141.503 82.95C139.054 85.1529 135.607 87.7751 131.048 91.2436C130.43 91.7131 129.793 92.1981 129.134 92.6997L129.739 93.4927L129.134 92.6997C128.286 93.3465 127.471 93.9679 126.689 94.5646C122.28 97.9273 118.898 100.507 116.236 102.427C113.08 104.704 111.029 105.983 109.542 106.551C108.816 106.828 108.279 106.913 107.852 106.889C107.439 106.865 107.064 106.736 106.66 106.478C106.238 106.21 105.791 105.807 105.25 105.237C104.872 104.84 104.477 104.394 104.026 103.885C103.827 103.66 103.616 103.422 103.392 103.171L103.391 103.171C101.863 101.463 100.835 100.246 100.275 99.1979C99.7539 98.2233 99.6866 97.4881 100.008 96.6599C100.369 95.7271 101.257 94.5884 102.959 92.9712C104.641 91.3726 107.005 89.4071 110.184 86.8044L120.975 77.9687L121.753 77.3315L121.109 76.5589L113.744 67.7233C111.582 65.1289 110.003 63.2151 108.95 61.678C107.887 60.1244 107.475 59.1107 107.451 58.3078C107.428 57.5655 107.734 56.8117 108.659 55.7596C109.599 54.6891 111.047 53.4546 113.088 51.7443Z" fill="#FFB5B5" stroke="black" stroke-width="1.99412"/>
</svg>
