<svg width="160" height="161" viewBox="0 0 160 161" fill="none" xmlns="http://www.w3.org/2000/svg">
<path d="M71.8374 38.7738L71.8995 38.7631L71.9595 38.7437C91.785 32.3398 113.188 36.5926 127.554 44.5784C134.743 48.575 140.072 53.4521 142.59 58.2878C143.844 60.6955 144.386 63.0614 144.155 65.2967C143.927 67.5084 142.936 69.6667 140.994 71.6779C140.424 72.1387 139.921 72.5658 139.457 72.9594C138.647 73.6461 137.958 74.2308 137.249 74.7147C136.187 75.4393 135.222 75.8278 134.018 75.8057C132.773 75.7829 131.17 75.3201 128.855 74.1098C126.546 72.903 123.602 70.9928 119.692 68.1615C97.6485 52.1989 65.3068 50.7702 36.6162 68.963C33.6638 70.8351 31.443 72.2253 29.691 73.187C27.9249 74.1564 26.7271 74.637 25.807 74.7674C24.958 74.8878 24.3191 74.7144 23.6164 74.2291C22.8532 73.7021 22.0449 72.8294 20.9032 71.5215L20.8855 71.5012L20.8665 71.482C16.1172 66.6624 15.1351 62.7661 16.3252 59.5484C17.5618 56.2054 21.2563 53.2039 26.8285 50.5291C37.9136 45.2078 55.5099 41.5989 71.8374 38.7738ZM69.5103 71.475L69.6032 71.4563L69.6901 71.4184C82.9114 65.6589 97.6215 68.4114 107.62 73.9523C112.624 76.7253 116.348 80.1426 118.126 83.4257C119.01 85.0594 119.39 86.6167 119.259 88.0281C119.13 89.4223 118.494 90.7553 117.197 91.9569L117.803 92.6117L117.197 91.9569C113.802 95.1008 111.137 96.9379 109.039 97.6535C108.006 98.006 107.154 98.0711 106.437 97.923C105.729 97.7767 105.081 97.4077 104.472 96.7661L104.472 96.7659C98.3758 90.3476 88.4738 87.2159 78.1324 87.2159C67.7757 87.2159 56.82 90.3528 48.5111 96.67L48.511 96.6701C46.9962 97.822 45.0348 97.9205 42.8881 97.1751C40.7368 96.4281 38.5178 94.8633 36.6942 92.9107C34.8688 90.9561 33.508 88.6866 32.9923 86.5919C32.4814 84.5161 32.8132 82.7238 34.1883 81.4487C35.4148 80.3113 37.5801 79.2135 40.4075 78.1814C43.2081 77.1591 46.5564 76.2366 50.061 75.4051C54.955 74.2438 60.09 73.2739 64.4144 72.4571C66.2952 72.1018 68.0227 71.7755 69.5103 71.475ZM70.8616 104.209L71.3421 104.162L71.5658 103.734C72.8663 101.247 74.3837 100.425 75.7964 100.415C77.2955 100.405 78.9936 101.298 80.6046 102.921C82.1965 104.526 83.5935 106.737 84.4887 109.099C85.386 111.466 85.751 113.907 85.3719 115.982C84.0975 122.955 77.437 128.607 70.5677 128.607C63.7088 128.607 58.4268 123.003 57.5469 117.107C57.112 114.193 57.7646 111.263 59.7991 108.93C61.8387 106.591 65.3605 104.746 70.8616 104.209Z" fill="#FFCA31" stroke="black" stroke-width="1.78505"/>
<path d="M131.915 68.8841L133.736 75.2972" stroke="#FFCA31" stroke-width="1.78505"/>
<path d="M67.645 33.2771L67.6451 33.2771C86.4885 30.0158 108.654 34.6373 123.668 42.0339C131.192 45.7408 136.779 50.0764 139.307 54.3361C140.559 56.4462 141.031 58.4844 140.688 60.4074C140.345 62.3293 139.164 64.2727 136.844 66.1469C135.324 67.3746 134.3 68.0863 133.368 68.391C132.517 68.6695 131.67 68.6276 130.44 68.0925C129.162 67.5367 127.556 66.4857 125.234 64.8146C124.142 64.0278 122.933 63.1357 121.552 62.116C119.973 60.95 118.167 59.617 116.05 58.0838C93.9223 42.0609 61.0089 45.3405 32.4238 63.4663C29.4714 65.3384 27.2507 66.7285 25.4987 67.6903C23.7326 68.6597 22.5348 69.1402 21.6147 69.2707C20.7657 69.3911 20.1268 69.2176 19.424 68.7324C18.6609 68.2055 17.8527 67.3328 16.7111 66.025C15.7335 64.9041 15.2841 63.705 15.2616 62.442C15.2387 61.1614 15.6544 59.746 16.53 58.2201C18.2905 55.1522 21.8095 51.8143 26.7087 48.5566C36.4838 42.0565 51.4406 36.0809 67.645 33.2771ZM65.318 65.9783L65.1413 65.1035L65.318 65.9783C77.2417 63.5696 92.0545 66.3474 102.452 71.0693C107.662 73.4356 111.634 76.2323 113.602 78.9906C114.577 80.3576 115.017 81.6525 114.951 82.8466C114.885 84.0247 114.319 85.2434 113.005 86.4601L113.611 87.115L113.005 86.4602C109.61 89.6041 106.945 91.4412 104.847 92.1568C103.814 92.5093 102.961 92.5744 102.245 92.4263C101.537 92.28 100.889 91.911 100.279 91.2694L100.279 91.2692C94.1835 84.8509 84.2815 81.7192 73.9401 81.7192C63.5834 81.7192 52.6276 84.8561 44.3187 91.1733L44.3187 91.1734C41.1677 93.5695 37.3037 92.3394 34.856 89.5295C33.6469 88.1415 32.8711 86.4436 32.7616 84.7812C32.654 83.1461 33.1846 81.5079 34.6628 80.1372C37.2828 77.7077 42.5133 74.6521 48.3707 71.9426C54.2101 69.2415 60.547 66.942 65.318 65.9783ZM66.897 98.6591L66.5825 97.8239L66.8971 98.6591C74.9783 95.6162 82.7214 102.049 81.1796 110.485C79.9052 117.458 73.2447 123.111 66.3753 123.111C62.916 123.111 60.4165 121.908 58.78 120.096C57.131 118.271 56.2882 115.749 56.31 113.006C56.3536 107.514 59.8682 101.306 66.897 98.6591Z" fill="#FFE598" stroke="black" stroke-width="1.78505"/>
</svg>
