<svg width="427" height="428" viewBox="0 0 427 428" fill="none" xmlns="http://www.w3.org/2000/svg">
<path d="M323.099 161.711L267.727 276.948C262.599 287.621 248.816 296.022 236.943 295.712L108.742 292.368C102.333 292.201 97.7896 289.529 95.7726 285.427L88.9687 264.904L299.502 141.529L317.469 131L323.705 148.471C324.196 149.396 324.554 150.397 324.773 151.462C325.39 154.468 324.891 157.982 323.099 161.711Z" fill="#53978E"/>
<path d="M236.943 295.712L108.742 292.368C102.333 292.201 97.7896 289.529 95.7726 285.427L88.9687 264.904L317.469 131L324.773 151.462M236.943 295.712C248.816 296.022 262.599 287.621 267.727 276.948L323.099 161.711C324.891 157.982 325.39 154.468 324.773 151.462M236.943 295.712L232.137 280.663M151.902 157.245C157.03 146.573 170.813 138.172 182.686 138.482L310.887 141.826C318.611 142.027 323.624 145.866 324.773 151.462" stroke="black" stroke-width="5.25935" stroke-linecap="round" stroke-linejoin="round"/>
<rect width="80.6469" height="75.0391" rx="10.5187" transform="matrix(0.99966 0.026078 -0.433103 0.901345 185.938 181.821)" fill="#BAD5D2" stroke="black" stroke-width="5.25935"/>
<rect width="171.256" height="170.73" rx="21.0374" transform="matrix(0.99966 0.026078 -0.433103 0.901345 155.807 121.839)" fill="#BAD5D2" stroke="black" stroke-width="5.25935"/>
<rect width="80.6469" height="75.0391" rx="10.5187" transform="matrix(0.99966 0.026078 -0.433103 0.901345 180.561 165.749)" fill="white" stroke="black" stroke-width="5.25935"/>
<rect width="50.9203" height="25.5405" rx="12.7703" transform="matrix(-0.433103 0.901345 -0.99966 -0.0260781 334.529 78.5962)" fill="#53978E" stroke="black" stroke-width="5.25935"/>
<rect width="50.9203" height="25.5405" rx="12.7703" transform="matrix(-0.433103 0.901345 -0.99966 -0.0260781 287.112 77.3682)" fill="#53978E" stroke="black" stroke-width="5.25935"/>
<rect width="50.9203" height="25.5405" rx="12.7703" transform="matrix(-0.433103 0.901345 -0.99966 -0.0260781 239.711 76.1191)" fill="#53978E" stroke="black" stroke-width="5.25935"/>
<path d="M336.877 173.413C339.922 167.076 348.105 162.088 355.155 162.272L380.685 162.938C387.734 163.121 390.981 168.408 387.936 174.744C384.891 181.081 376.708 186.069 369.658 185.885L344.129 185.219C337.079 185.036 333.832 179.749 336.877 173.413Z" fill="#53978E"/>
<path d="M316.399 216.032C319.444 209.695 327.627 204.707 334.677 204.891L360.206 205.557C367.256 205.74 370.503 211.027 367.458 217.364C364.413 223.7 356.229 228.688 349.18 228.505L323.65 227.839C316.6 227.655 313.354 222.368 316.399 216.032Z" fill="#53978E"/>
<path d="M295.922 258.648C298.967 252.311 307.15 247.323 314.2 247.507L339.729 248.173C346.779 248.357 350.026 253.643 346.981 259.98C343.936 266.317 335.752 271.305 328.703 271.121L303.173 270.455C296.123 270.271 292.877 264.985 295.922 258.648Z" fill="#53978E"/>
<path d="M336.877 173.413C339.922 167.076 348.105 162.088 355.155 162.272L380.685 162.938C387.734 163.121 390.981 168.408 387.936 174.744C384.891 181.081 376.708 186.069 369.658 185.885L344.129 185.219C337.079 185.036 333.832 179.749 336.877 173.413Z" stroke="black" stroke-width="5.25935"/>
<path d="M316.399 216.032C319.444 209.695 327.627 204.707 334.677 204.891L360.206 205.557C367.256 205.74 370.503 211.027 367.458 217.364C364.413 223.7 356.229 228.688 349.18 228.505L323.65 227.839C316.6 227.655 313.354 222.368 316.399 216.032Z" stroke="black" stroke-width="5.25935"/>
<path d="M295.922 258.648C298.967 252.311 307.15 247.323 314.2 247.507L339.729 248.173C346.779 248.357 350.026 253.643 346.981 259.98C343.936 266.317 335.752 271.305 328.703 271.121L303.173 270.455C296.123 270.271 292.877 264.985 295.922 258.648Z" stroke="black" stroke-width="5.25935"/>
<path d="M79.4084 164.71C82.4533 158.373 90.6367 153.385 97.6864 153.569L123.216 154.235C130.266 154.419 133.512 159.705 130.467 166.042C127.422 172.379 119.239 177.367 112.189 177.183L86.6598 176.517C79.61 176.333 76.3634 171.047 79.4084 164.71Z" fill="#53978E"/>
<path d="M58.9299 207.329C61.9749 200.992 70.1582 196.004 77.208 196.188L102.738 196.854C109.787 197.038 113.034 202.324 109.989 208.661C106.944 214.998 98.7606 219.986 91.7108 219.802L66.1813 219.136C59.1316 218.952 55.885 213.666 58.9299 207.329Z" fill="#53978E"/>
<path d="M38.4529 249.945C41.4978 243.608 49.6812 238.62 56.731 238.804L82.2605 239.47C89.3102 239.654 92.5568 244.94 89.5119 251.277C86.4669 257.614 78.2836 262.602 71.2338 262.418L45.7043 261.752C38.6545 261.568 35.408 256.282 38.4529 249.945Z" fill="#53978E"/>
<path d="M79.4084 164.71C82.4533 158.373 90.6367 153.385 97.6864 153.569L123.216 154.235C130.266 154.419 133.512 159.705 130.467 166.042C127.422 172.379 119.239 177.367 112.189 177.183L86.6598 176.517C79.61 176.333 76.3634 171.047 79.4084 164.71Z" stroke="black" stroke-width="5.25935"/>
<path d="M58.9299 207.329C61.9749 200.992 70.1582 196.004 77.208 196.188L102.738 196.854C109.787 197.038 113.034 202.324 109.989 208.661C106.944 214.998 98.7606 219.986 91.7108 219.802L66.1813 219.136C59.1316 218.952 55.885 213.666 58.9299 207.329Z" stroke="black" stroke-width="5.25935"/>
<path d="M38.4529 249.945C41.4978 243.608 49.6812 238.62 56.731 238.804L82.2605 239.47C89.3102 239.654 92.5568 244.94 89.5119 251.277C86.4669 257.614 78.2836 262.602 71.2338 262.418L45.7043 261.752C38.6545 261.568 35.408 256.282 38.4529 249.945Z" stroke="black" stroke-width="5.25935"/>
<rect width="50.9203" height="25.5405" rx="12.7703" transform="matrix(-0.433103 0.901345 -0.99966 -0.0260781 230.352 306.701)" fill="#53978E" stroke="black" stroke-width="5.25935"/>
<rect width="50.9203" height="25.5405" rx="12.7703" transform="matrix(-0.433103 0.901345 -0.99966 -0.0260781 182.934 305.474)" fill="#53978E" stroke="black" stroke-width="5.25935"/>
<rect width="50.9203" height="25.5405" rx="12.7703" transform="matrix(-0.433103 0.901345 -0.99966 -0.0260781 135.527 304.224)" fill="#53978E" stroke="black" stroke-width="5.25935"/>
</svg>
