<svg width="427" height="428" viewBox="0 0 427 428" fill="none" xmlns="http://www.w3.org/2000/svg">
<path d="M187.693 113.178L187.603 115.93H190.357H368.221C378.597 115.93 386.75 124.398 386.406 134.933L380.184 325.286C379.837 335.887 371.023 344.463 360.577 344.463H80.3065C69.9307 344.463 61.7774 335.995 62.1218 325.46L69.4099 102.475C69.7564 91.8745 78.5706 83.2982 89.0167 83.2982H169.864C180.24 83.2982 188.393 91.766 188.049 102.301L187.693 113.178Z" fill="#FAC864" stroke="black" stroke-width="5.32989"/>
<path d="M382.761 208.517L361.202 203.075L56.6772 271.096L64.762 333.674L72.8467 344.557L369.287 341.837L380.066 328.233L382.761 208.517Z" fill="black"/>
<path d="M40.085 167.303C38.9727 156.898 46.3859 148.61 56.681 148.61H336.952C347.476 148.61 357.039 157.252 358.174 167.869L374.947 324.765C376.059 335.17 368.646 343.458 358.351 343.458H78.0802C67.5557 343.458 57.9924 334.817 56.8573 324.199L40.085 167.303Z" fill="#FFE496" stroke="black" stroke-width="5.32989"/>
<rect x="2.94822" y="2.64985" width="80.9072" height="32.7573" rx="2.66495" transform="matrix(1 0 0.106295 0.994335 65.2593 178.419)" fill="white" stroke="black" stroke-width="5.32989"/>
<path d="M89.0151 102.286H148.303" stroke="black" stroke-width="5.32989" stroke-linecap="round"/>
</svg>
