<svg width="427" height="427" viewBox="0 0 427 427" fill="none" xmlns="http://www.w3.org/2000/svg">
<path d="M123.646 329.098L101.146 340.098L76.6455 310.598L87.6455 202.598L112.146 194.098L131.646 213.098C103.246 258.298 114.479 309.264 123.646 329.098Z" fill="#FF8484" stroke="black" stroke-width="5" stroke-linecap="round" stroke-linejoin="round"/>
<path d="M46.0437 139.967C45.5346 152.296 49.5049 161.139 56.3356 165.468L158.793 230.399L217.388 137.94L114.931 73.0092C108.1 68.6803 98.4094 68.8647 87.477 74.5886C70.5754 83.4379 55.6543 102.937 49.2808 122.724C47.4093 128.534 46.2748 134.369 46.0437 139.967Z" fill="#FF8484" stroke="black" stroke-width="5" stroke-linecap="round" stroke-linejoin="round"/>
<path d="M63.6459 219.598C70.0459 199.998 70.3122 181.431 70.1455 174.598L111.146 200.098L109.646 202.598C82.4455 259.398 92.9788 318.264 101.646 340.598C83.1455 335.098 67.6459 322.098 58.6459 307.598C49.6459 293.098 55.6459 244.098 63.6459 219.598Z" stroke="black" stroke-width="5" stroke-linecap="round" stroke-linejoin="round"/>
<path d="M64.141 220.098C70.541 200.498 70.8073 181.931 70.6406 175.098L111.641 200.598L110.141 203.098C82.9406 259.898 93.474 318.764 102.141 341.098C83.6406 335.598 68.141 322.598 59.141 308.098C50.141 293.598 56.141 244.598 64.141 220.098Z" fill="#FFB5B5" stroke="black" stroke-width="5" stroke-linecap="round" stroke-linejoin="round"/>
<path d="M161.477 120.589C144.575 129.438 129.654 148.937 123.281 168.724C121.409 174.534 120.275 180.369 120.044 185.967C119.535 198.296 123.505 207.139 130.336 211.468L216.145 340.094L208.645 294.598L219.645 240.598L255.145 183.598L295.145 152.098L342.146 138.097L188.931 119.009C182.1 114.68 172.409 114.865 161.477 120.589Z" fill="white" stroke="black" stroke-width="5" stroke-linecap="round" stroke-linejoin="round"/>
<path d="M287.737 346.469C239.067 371.952 201.449 348.111 203.715 293.22C205.982 238.329 247.274 173.173 295.945 147.691C344.615 122.208 382.233 146.048 379.966 200.939C377.7 255.83 336.407 320.986 287.737 346.469Z" fill="#FF8484" stroke="black" stroke-width="5" stroke-linecap="round" stroke-linejoin="round"/>
<path d="M288.21 335.001C245.156 357.543 211.879 336.454 213.884 287.897C215.889 239.34 252.416 181.703 295.47 159.161C338.524 136.618 371.801 157.708 369.796 206.265C367.791 254.821 331.264 312.459 288.21 335.001Z" fill="#FFB5B5" stroke="black" stroke-width="5" stroke-linecap="round" stroke-linejoin="round"/>
<path fill-rule="evenodd" clip-rule="evenodd" d="M222.646 248.729L293.19 277.266L324.194 221.267L268.562 179.098C248.601 197.619 232.021 222.84 222.646 248.729Z" fill="white"/>
<path d="M222.646 248.729L220.295 247.878C219.837 249.143 220.461 250.543 221.708 251.047L222.646 248.729ZM293.19 277.266L292.253 279.584C293.424 280.058 294.765 279.583 295.377 278.477L293.19 277.266ZM324.194 221.267L326.382 222.478C326.984 221.391 326.695 220.026 325.705 219.275L324.194 221.267ZM268.562 179.098L270.072 177.105C269.105 176.372 267.751 176.44 266.862 177.265L268.562 179.098ZM221.708 251.047L292.253 279.584L294.128 274.949L223.583 246.412L221.708 251.047ZM295.377 278.477L326.382 222.478L322.007 220.057L291.003 276.055L295.377 278.477ZM325.705 219.275L270.072 177.105L267.052 181.09L322.684 223.26L325.705 219.275ZM266.862 177.265C246.603 196.063 229.803 221.622 220.295 247.878L224.996 249.581C234.24 224.057 250.6 199.175 270.263 180.93L266.862 177.265Z" fill="black"/>
<path d="M307.026 275.646C294.17 282.378 284.233 276.08 284.832 261.581C285.431 247.082 296.338 229.871 309.194 223.14C322.05 216.408 331.987 222.706 331.388 237.205C330.789 251.705 319.882 268.915 307.026 275.646Z" fill="#FF8484" stroke="black" stroke-width="5" stroke-linecap="round" stroke-linejoin="round"/>
</svg>
