<svg width="160" height="160" viewBox="0 0 160 160" fill="none" xmlns="http://www.w3.org/2000/svg">
<rect width="65.2403" height="65.2403" transform="matrix(-0.866025 -0.5 -0.866025 0.5 137 47.6919)" fill="#FFDBC0" stroke="black" stroke-width="1.64544" stroke-linecap="round" stroke-linejoin="round"/>
<rect width="30.7941" height="65.2403" transform="matrix(-0.866025 -0.5 -0.866025 0.5 137 47.6929)" fill="#FFDBC0" stroke="black" stroke-width="1.64544" stroke-linecap="round" stroke-linejoin="round"/>
<rect width="11.9211" height="15.5077" transform="matrix(-0.866025 -0.5 -0.866025 0.5 128.605 47.5319)" fill="white" stroke="black" stroke-width="1.64544" stroke-linecap="round" stroke-linejoin="round"/>
<rect width="66.3223" height="8.84195" transform="matrix(-0.866025 -0.5 -0.866025 0.5 113.048 62.0615)" fill="white" stroke="black" stroke-width="1.64544" stroke-linecap="round" stroke-linejoin="round"/>
<rect width="65.2403" height="65.2403" transform="matrix(-0.866025 0.5 2.20305e-08 1 137 47.6919)" fill="#FFB681" stroke="black" stroke-width="1.64544" stroke-linecap="round" stroke-linejoin="round"/>
<rect width="65.2403" height="65.2403" transform="matrix(0.866025 0.5 -2.20305e-08 1 24 47.6919)" fill="#E0A173" stroke="black" stroke-width="1.64544" stroke-linecap="round" stroke-linejoin="round"/>
<rect width="18.4565" height="7.92862" transform="matrix(0.866025 0.5 -2.20305e-08 1 44.2588 70.0347)" fill="#4E4E4E" stroke="black" stroke-width="1.64544" stroke-linecap="round" stroke-linejoin="round"/>
<rect width="9.06682" height="22.0522" transform="matrix(-0.866025 0.5 2.20305e-08 1 112.704 61.7032)" fill="white" stroke="black" stroke-width="1.64544" stroke-linecap="round" stroke-linejoin="round"/>
</svg>
