<svg width="171" height="44" viewBox="0 0 171 44" fill="none" xmlns="http://www.w3.org/2000/svg">
<path fill-rule="evenodd" clip-rule="evenodd" d="M101.509 13.3005V26.496H103.904H106.299L106.3 25.3943L106.301 24.2927L106.473 24.5106C106.568 24.6304 106.815 24.897 107.021 25.103C107.228 25.309 107.589 25.6088 107.824 25.7693C108.059 25.9298 108.426 26.1456 108.639 26.2488C108.852 26.352 109.186 26.4952 109.382 26.5671C109.577 26.639 109.919 26.7396 110.141 26.7906C110.362 26.8417 110.811 26.8973 111.137 26.9141C111.483 26.9321 111.966 26.9213 112.299 26.888C112.612 26.8568 113.081 26.7872 113.342 26.7333C113.603 26.6795 114.008 26.5702 114.243 26.4904C114.478 26.4107 114.894 26.2367 115.167 26.1038C115.44 25.9709 115.874 25.7188 116.132 25.5437C116.39 25.3685 116.814 25.0155 117.076 24.7593C117.337 24.503 117.72 24.0644 117.927 23.7846C118.157 23.4717 118.427 23.0208 118.627 22.6138C118.806 22.2497 119.017 21.7485 119.097 21.5C119.177 21.2516 119.285 20.874 119.337 20.6609C119.389 20.4478 119.468 20.0229 119.514 19.7166C119.572 19.3296 119.597 18.8644 119.598 18.1913C119.598 17.6586 119.571 17.0158 119.538 16.7628C119.505 16.5098 119.424 16.0554 119.359 15.7532C119.293 15.451 119.155 14.9498 119.052 14.6395C118.948 14.3291 118.737 13.8112 118.583 13.4886C118.429 13.1659 118.154 12.6757 117.972 12.3991C117.79 12.1225 117.502 11.7366 117.333 11.5416C117.163 11.3466 116.868 11.0454 116.677 10.8724C116.486 10.6994 116.126 10.418 115.876 10.2471C115.626 10.0762 115.216 9.83802 114.964 9.71783C114.712 9.59765 114.319 9.444 114.091 9.3764C113.862 9.30885 113.472 9.21887 113.224 9.17655C112.932 9.12663 112.489 9.10009 111.967 9.10101C111.489 9.10188 110.952 9.13355 110.649 9.17878C110.368 9.22071 110.005 9.28923 109.843 9.33102C109.681 9.37276 109.377 9.46317 109.168 9.53184C108.96 9.6005 108.608 9.75149 108.386 9.86732C108.164 9.9831 107.807 10.2198 107.592 10.3932C107.378 10.5667 107.089 10.8489 106.952 11.0203L106.702 11.332L106.69 5.71851L106.678 0.10498H104.093H101.509V13.3005ZM23.8215 1.15544C23.6781 1.16406 23.2726 1.20527 22.9204 1.24701C22.5682 1.2888 22.0142 1.37766 21.6893 1.44453C21.3643 1.5114 20.8414 1.64234 20.5273 1.73556C20.2132 1.82872 19.7107 2.00363 19.4107 2.1242C19.1107 2.24478 18.5955 2.48303 18.2658 2.65357C17.9361 2.82417 17.4132 3.13587 17.1038 3.34632C16.7944 3.55673 16.3919 3.8509 16.2093 4C16.0267 4.14914 15.6453 4.50501 15.3618 4.79086C15.0782 5.0767 14.7084 5.48487 14.5399 5.69793C14.3715 5.911 14.0772 6.32502 13.8859 6.61798C13.6946 6.91095 13.4303 7.35795 13.2985 7.61135C13.1667 7.8647 12.9653 8.30052 12.851 8.57983C12.7367 8.85909 12.5656 9.32729 12.4708 9.62026C12.376 9.91322 12.2458 10.3817 12.1817 10.6614C12.1175 10.941 12.019 11.4749 11.9628 11.8478C11.8857 12.3583 11.8546 12.8366 11.8367 13.7847C11.8184 14.7512 11.8309 15.2181 11.8903 15.7943C11.9329 16.2071 12.0196 16.8074 12.083 17.1283C12.1464 17.4492 12.2734 17.9779 12.3651 18.3032C12.4568 18.6285 12.6295 19.1383 12.749 19.436C12.8684 19.7337 13.0949 20.2351 13.2523 20.5503C13.4096 20.8655 13.6938 21.3609 13.8838 21.6512C14.0738 21.9415 14.3653 22.3491 14.5316 22.5569C14.6978 22.7648 14.962 23.0752 15.1185 23.2469C15.275 23.4185 15.6378 23.7648 15.9248 24.0164C16.2117 24.268 16.7346 24.6692 17.0867 24.9079C17.4389 25.1467 18.0472 25.5019 18.4384 25.6973C18.8297 25.8926 19.4166 26.1502 19.7427 26.2697C20.0688 26.3892 20.645 26.5652 21.0233 26.6609C21.4015 26.7566 21.9564 26.877 22.2564 26.9283C22.5564 26.9797 23.1057 27.0479 23.4772 27.0799C23.8861 27.1152 24.5594 27.1281 25.1846 27.1128C25.9951 27.0929 26.3643 27.0611 26.9044 26.9642C27.2826 26.8963 27.855 26.7633 28.1762 26.6686C28.4975 26.5738 29.0002 26.4006 29.2932 26.2836C29.5863 26.1666 30.0051 25.979 30.2238 25.8667C30.4426 25.7544 30.7928 25.5541 31.0021 25.4216C31.2114 25.289 31.5648 25.0355 31.7876 24.8583C32.0103 24.681 32.3769 24.3481 32.6022 24.1185C32.8275 23.8889 33.1529 23.5188 33.3255 23.296C33.498 23.0732 33.6392 22.8663 33.6392 22.8361C33.6392 22.8059 32.6485 22.0263 31.4377 21.1036C30.227 20.181 29.2185 19.4266 29.1968 19.4271C29.175 19.4277 29.0732 19.5479 28.9704 19.6943C28.8677 19.8407 28.6406 20.1109 28.4658 20.2949C28.2909 20.4788 27.9793 20.7568 27.7734 20.9127C27.5674 21.0687 27.2272 21.2874 27.0174 21.3988C26.8076 21.5103 26.4456 21.6658 26.2129 21.7444C25.9802 21.8231 25.5886 21.9219 25.3427 21.9642C25.0809 22.0092 24.6176 22.041 24.2247 22.041C23.823 22.041 23.3742 22.0095 23.1066 21.9628C22.8607 21.9197 22.4675 21.8206 22.2327 21.7425C21.9979 21.6643 21.6196 21.5054 21.392 21.3894C21.1645 21.2734 20.8337 21.08 20.6569 20.9598C20.4802 20.8395 20.1755 20.6006 19.9799 20.4287C19.7842 20.2569 19.4829 19.9447 19.3101 19.7349C19.1374 19.5251 18.8748 19.163 18.7264 18.9302C18.5781 18.6974 18.353 18.2834 18.2262 18.0101C18.0993 17.7369 17.9293 17.3195 17.8483 17.0825C17.7673 16.8454 17.6481 16.3845 17.5833 16.0581C17.5186 15.7317 17.4457 15.1622 17.4213 14.7925C17.3947 14.3872 17.394 13.8771 17.4196 13.508C17.443 13.1712 17.4956 12.6983 17.5366 12.4571C17.5776 12.216 17.6651 11.8277 17.7311 11.5942C17.7971 11.3608 17.9352 10.955 18.0381 10.6925C18.1409 10.43 18.3228 10.0379 18.4421 9.82112C18.5615 9.60438 18.7803 9.25359 18.9282 9.04164C19.0762 8.82964 19.3787 8.46835 19.6004 8.23873C19.8222 8.0091 20.1636 7.70093 20.3593 7.55387C20.5549 7.40681 20.8644 7.20028 21.047 7.09486C21.2296 6.98944 21.5604 6.82388 21.7821 6.72699C22.0038 6.63009 22.3453 6.50622 22.541 6.45174C22.7366 6.39727 23.1101 6.31989 23.371 6.27979C23.6318 6.23974 24.0879 6.20682 24.3846 6.20667C24.6812 6.20653 25.1467 6.24018 25.4191 6.28144C25.6913 6.32274 26.0975 6.41073 26.3215 6.47702C26.5456 6.54331 26.887 6.67217 27.0802 6.7633C27.2734 6.85444 27.585 7.03278 27.7727 7.15965C27.9603 7.28647 28.3062 7.57978 28.5414 7.81139L28.9691 8.23258L31.0174 6.52942C32.144 5.59271 33.0667 4.79676 33.0679 4.76069C33.0691 4.72456 32.7766 4.39606 32.4179 4.03065C31.9117 3.51499 31.633 3.27659 31.1729 2.96562C30.8468 2.74524 30.3239 2.43794 30.0109 2.28279C29.6979 2.12764 29.2177 1.92145 28.9438 1.82466C28.6699 1.72786 28.2472 1.5958 28.0046 1.53126C27.7619 1.46666 27.3137 1.37083 27.0086 1.31829C26.7035 1.2657 26.1977 1.20023 25.8847 1.17277C25.5716 1.14537 25.0381 1.12667 24.699 1.13132C24.3598 1.13597 23.965 1.14682 23.8215 1.15544ZM94.1466 1.19975C93.9711 1.23819 93.7271 1.31364 93.6044 1.36734C93.4816 1.42109 93.2484 1.56176 93.0862 1.67996C92.9239 1.79817 92.6808 2.02063 92.5459 2.17423C92.4111 2.32783 92.2189 2.62786 92.1188 2.84093C92.0187 3.05399 91.9136 3.34381 91.8851 3.48491C91.8567 3.62607 91.8334 3.9538 91.8334 4.21321C91.8334 4.4822 91.865 4.80892 91.9068 4.97351C91.9472 5.13224 92.0295 5.37107 92.0896 5.50424C92.1498 5.6374 92.2995 5.8818 92.4222 6.04736C92.5449 6.21292 92.7668 6.44772 92.9152 6.56917C93.0637 6.69062 93.3132 6.85429 93.4697 6.93293C93.6262 7.01157 93.8823 7.11021 94.0388 7.1521C94.2115 7.19829 94.5192 7.22807 94.8214 7.22778C95.1207 7.22749 95.4306 7.19713 95.5981 7.15166C95.7514 7.11007 96.0182 7.00566 96.1909 6.91966C96.4127 6.80926 96.6248 6.64215 96.9118 6.35165C97.2217 6.03806 97.3602 5.85356 97.4934 5.57687C97.5896 5.37712 97.6997 5.06116 97.7381 4.87473C97.7764 4.68829 97.8081 4.37034 97.8086 4.16822C97.809 3.96053 97.7695 3.64137 97.7176 3.43441C97.6671 3.23296 97.5682 2.95162 97.4977 2.80926C97.4272 2.66689 97.2746 2.4269 97.1587 2.27597C97.0427 2.12503 96.8225 1.90097 96.6693 1.77802C96.516 1.65512 96.2544 1.48951 96.088 1.41C95.9216 1.33044 95.6378 1.2335 95.4575 1.19447C95.2772 1.15549 94.9803 1.12498 94.7977 1.12667C94.6151 1.12837 94.3221 1.16125 94.1466 1.19975ZM124.565 1.19326C124.399 1.23185 124.126 1.32894 123.958 1.40899C123.791 1.48908 123.53 1.65386 123.379 1.77521C123.227 1.89652 123.013 2.10968 122.901 2.2489C122.79 2.38807 122.645 2.61043 122.579 2.74301C122.513 2.87555 122.418 3.10435 122.367 3.25146C122.311 3.41475 122.265 3.70742 122.25 4.0031C122.233 4.34531 122.248 4.59387 122.301 4.85051C122.342 5.05026 122.454 5.37712 122.549 5.57687C122.683 5.85608 122.817 6.03535 123.131 6.35238C123.416 6.64021 123.633 6.81139 123.849 6.91928C124.02 7.00426 124.286 7.10823 124.442 7.15031C124.614 7.19679 124.92 7.22677 125.223 7.22677C125.52 7.22677 125.835 7.19641 126.005 7.15132C126.162 7.10987 126.418 7.01181 126.575 6.93351C126.731 6.85516 126.973 6.69459 127.113 6.57668C127.253 6.45872 127.46 6.24681 127.574 6.10571C127.687 5.96455 127.844 5.71628 127.922 5.55397C128 5.3916 128.097 5.12963 128.138 4.97182C128.18 4.80504 128.211 4.48056 128.211 4.19679C128.211 3.92005 128.18 3.5837 128.139 3.42007C128.099 3.26134 127.994 2.97879 127.905 2.79211C127.816 2.60549 127.623 2.31795 127.477 2.15307C127.331 1.98823 127.067 1.75555 126.891 1.636C126.715 1.51644 126.401 1.36027 126.193 1.28889C125.912 1.19219 125.695 1.15457 125.341 1.14115C125.036 1.12958 124.759 1.14813 124.565 1.19326ZM165.655 3.10905C165.316 3.12692 164.77 3.18861 164.441 3.24609C164.111 3.30357 163.695 3.40264 163.516 3.46617C163.336 3.52971 163.082 3.63072 162.952 3.69067C162.821 3.75057 162.565 3.90267 162.383 4.02866C162.2 4.15466 161.922 4.39659 161.765 4.56622C161.607 4.73589 161.349 5.03816 161.192 5.2379C161.034 5.43765 160.748 5.86257 160.557 6.18217C160.365 6.50177 160.064 7.07205 159.887 7.44947C159.71 7.82693 159.46 8.41528 159.332 8.75691C159.203 9.09859 159.079 9.44119 159.055 9.51828C159.012 9.65328 159.008 9.64709 158.921 9.34879C158.872 9.17849 158.74 8.79488 158.629 8.49629C158.517 8.19771 158.35 7.80122 158.259 7.61513C158.167 7.42908 157.992 7.11772 157.87 6.9232C157.748 6.72868 157.496 6.41562 157.31 6.22749C157.036 5.94973 156.864 5.8294 156.4 5.58743C156.085 5.42356 155.616 5.21093 155.358 5.11491C155.1 5.01893 154.473 4.82122 153.964 4.67566C153.456 4.53005 152.566 4.31374 151.988 4.1949C151.409 4.07612 150.91 3.97889 150.878 3.97889C150.836 3.97889 150.83 4.05399 150.853 4.25732C150.87 4.41044 150.939 4.80814 151.006 5.14106C151.072 5.47397 151.19 5.98605 151.266 6.27902C151.343 6.57198 151.451 6.95332 151.506 7.12643C151.56 7.29955 151.697 7.66999 151.809 7.94964C151.921 8.22929 152.125 8.6651 152.262 8.91811C152.399 9.17113 152.603 9.50118 152.715 9.65154C152.827 9.8019 153.021 10.0166 153.145 10.1286C153.27 10.2405 153.51 10.4148 153.68 10.5158C153.849 10.6168 154.223 10.7769 154.51 10.8715C154.797 10.9662 155.298 11.0889 155.624 11.1441C155.973 11.2033 156.574 11.2573 157.086 11.2755L157.954 11.3064L157.925 12.2792C157.91 12.8143 157.876 13.8731 157.85 14.6321C157.825 15.3912 157.772 16.6332 157.732 17.3923C157.693 18.1513 157.618 19.3716 157.567 20.104C157.515 20.8364 157.419 21.9913 157.354 22.6705C157.289 23.3496 157.192 24.2539 157.139 24.6801C157.087 25.1062 156.99 25.8144 156.924 26.2538C156.858 26.6933 156.74 27.3906 156.662 27.8034C156.584 28.2162 156.444 28.859 156.351 29.2319C156.257 29.6048 156.107 30.1277 156.017 30.3941C155.927 30.6604 155.758 31.0651 155.643 31.2934C155.528 31.5217 155.375 31.7652 155.304 31.8346C155.175 31.9595 155.16 31.9616 153.727 32.0605C152.932 32.1153 151.8 32.1826 151.213 32.2098C150.627 32.2371 149.154 32.2807 147.941 32.3067C146.728 32.3327 140.955 32.354 135.112 32.3541C129.268 32.3543 119.515 32.3333 113.437 32.3076C107.359 32.2819 96.6664 32.2381 89.6755 32.2104C82.6846 32.1827 71.597 32.1392 65.0366 32.1137C58.4761 32.0883 45.2436 32.0432 35.6311 32.0134L18.1539 31.9592L13.4837 33.8253C10.915 34.8516 8.81196 35.6871 8.81016 35.6818C8.80835 35.6766 8.68201 35.5136 8.52948 35.3197C8.3769 35.1259 8.09504 34.8383 7.90309 34.6806C7.7112 34.523 7.4171 34.3158 7.24958 34.2201C7.08211 34.1245 6.77137 33.9815 6.55903 33.9024C6.34674 33.8233 5.9768 33.7236 5.73696 33.6808C5.42199 33.6246 5.14937 33.6107 4.75543 33.6305C4.45545 33.6457 4.03087 33.7031 3.81195 33.7582C3.59297 33.8132 3.2383 33.9422 3.02374 34.0449C2.80917 34.1475 2.49743 34.3252 2.33096 34.4398C2.16453 34.5543 1.86706 34.8131 1.67 35.0149C1.47293 35.2167 1.2089 35.5411 1.08331 35.7359C0.957723 35.9308 0.785843 36.2577 0.701421 36.4623C0.616952 36.667 0.507488 36.987 0.458115 37.1734C0.384934 37.4497 0.368903 37.6736 0.371322 38.384C0.374073 39.1915 0.383843 39.2875 0.50412 39.6884C0.5755 39.9265 0.728408 40.308 0.843895 40.5363C0.959383 40.7646 1.19093 41.1263 1.35849 41.3401C1.5261 41.554 1.83073 41.8654 2.03548 42.0323C2.24023 42.1992 2.62117 42.444 2.88202 42.5764C3.14288 42.7089 3.5057 42.8627 3.6883 42.9182C3.93701 42.9939 4.20394 43.0254 4.75249 43.0442C5.2356 43.0607 5.59766 43.0485 5.81692 43.0085C5.99966 42.9752 6.29742 42.8964 6.47854 42.8336C6.65962 42.7707 6.96658 42.6318 7.16056 42.5249C7.35454 42.4181 7.6346 42.2353 7.78291 42.1188C7.93122 42.0023 8.19397 41.754 8.36685 41.5669C8.53967 41.3798 8.78924 41.0473 8.92147 40.828C9.05365 40.6086 9.22586 40.2485 9.30412 40.0277C9.38238 39.8069 9.48188 39.4339 9.52523 39.1988C9.58252 38.8882 9.59827 38.6047 9.5829 38.1617L9.5617 37.5521L14.0863 35.7488L18.6109 33.9454L33.5594 33.9981C41.781 34.0271 54.2917 34.0723 61.3609 34.0987C68.43 34.125 79.8057 34.1678 86.6401 34.1937C93.4744 34.2197 101.457 34.253 104.378 34.2679C107.3 34.2828 116.413 34.3168 124.63 34.3436C134.699 34.3763 141.132 34.3762 144.36 34.343C146.995 34.3161 149.716 34.2717 150.407 34.2445C151.098 34.2173 152.037 34.1733 152.494 34.1467C152.95 34.1201 153.804 34.0644 154.391 34.0229C154.978 33.9815 155.576 33.9144 155.719 33.8739C155.863 33.8335 156.075 33.7443 156.19 33.6758C156.306 33.6072 156.495 33.4622 156.611 33.3533C156.727 33.2446 156.912 33.0246 157.024 32.8644C157.135 32.7042 157.324 32.3723 157.444 32.1268C157.565 31.8813 157.759 31.3957 157.875 31.0477C157.992 30.6997 158.175 30.0616 158.281 29.6297C158.387 29.1979 158.547 28.4414 158.635 27.9487C158.723 27.456 158.85 26.6715 158.916 26.2054C158.983 25.7393 159.09 24.8895 159.155 24.3169C159.22 23.7443 159.326 22.6547 159.391 21.8957C159.456 21.1367 159.542 20.0035 159.582 19.3777C159.623 18.7518 159.687 17.586 159.725 16.787C159.763 15.988 159.819 14.4626 159.849 13.3973C159.88 12.332 159.909 11.4554 159.914 11.4494C159.918 11.4433 160.198 11.493 160.536 11.5597C160.873 11.6265 161.463 11.7242 161.847 11.777C162.23 11.8298 162.894 11.8934 163.321 11.9184C163.763 11.9442 164.219 11.946 164.379 11.9224C164.533 11.8997 164.766 11.8535 164.896 11.8196C165.027 11.7858 165.335 11.6744 165.582 11.5721C165.829 11.4699 166.159 11.3002 166.317 11.1952C166.475 11.0901 166.724 10.878 166.87 10.7238C167.017 10.5696 167.234 10.2964 167.353 10.1166C167.472 9.93676 167.904 9.09781 168.314 8.25224C168.902 7.04024 169.187 6.51499 169.663 5.77057C169.995 5.25122 170.419 4.5669 170.606 4.24986C170.792 3.93283 170.938 3.66621 170.929 3.6574C170.92 3.64859 170.701 3.59672 170.442 3.5422C170.183 3.48763 169.715 3.40192 169.402 3.35165C169.089 3.30139 168.513 3.22696 168.122 3.18624C167.73 3.14551 167.154 3.10416 166.841 3.09438C166.528 3.08455 165.994 3.09113 165.655 3.10905ZM43.931 9.09346C43.7876 9.10314 43.4568 9.13428 43.1959 9.16265C42.9351 9.19098 42.4762 9.26962 42.1762 9.33737C41.8762 9.40511 41.4607 9.51528 41.2528 9.5822C41.0449 9.64907 40.6533 9.80044 40.3825 9.91855C40.1117 10.0366 39.6967 10.2446 39.4602 10.3807C39.2237 10.5168 38.8169 10.7923 38.5561 10.9928C38.2954 11.1934 37.8939 11.5508 37.6639 11.7872C37.4339 12.0236 37.1074 12.4063 36.9383 12.6376C36.7691 12.8691 36.5048 13.2872 36.3508 13.5668C36.1968 13.8464 35.9944 14.2605 35.9011 14.4869C35.8078 14.7132 35.6758 15.0946 35.6078 15.3343C35.5397 15.574 35.4415 16.0207 35.3893 16.327C35.3373 16.6332 35.2819 17.2216 35.2664 17.6344C35.249 18.0974 35.2605 18.6076 35.2964 18.9661C35.3285 19.2857 35.3941 19.7436 35.4422 19.9839C35.4903 20.2241 35.5976 20.6381 35.6806 20.9039C35.7636 21.1697 35.9323 21.6052 36.0554 21.8715C36.1786 22.1378 36.3712 22.5083 36.4835 22.6947C36.5957 22.8811 36.8034 23.1909 36.9449 23.3831C37.0865 23.5753 37.3511 23.8952 37.5329 24.094C37.7147 24.2929 38.0602 24.618 38.3006 24.8165C38.541 25.0151 38.8871 25.2753 39.0697 25.3949C39.2523 25.5145 39.6151 25.7212 39.8759 25.8543C40.1368 25.9874 40.5585 26.1758 40.8131 26.2729C41.0677 26.37 41.5159 26.5124 41.8091 26.5893C42.1023 26.6662 42.577 26.7649 42.8639 26.8085C43.1509 26.8521 43.7058 26.9007 44.097 26.9166C44.5099 26.9332 45.0772 26.9213 45.4487 26.888C45.8009 26.8566 46.3558 26.7763 46.6819 26.7096C47.0079 26.643 47.5571 26.4924 47.9021 26.375C48.2472 26.2576 48.7642 26.0421 49.0511 25.896C49.3379 25.75 49.7279 25.5281 49.9177 25.4029C50.1074 25.2776 50.3908 25.0749 50.5473 24.9523C50.7038 24.8297 51.0001 24.5658 51.2057 24.3657C51.4113 24.1658 51.7018 23.8496 51.8512 23.6632C52.0006 23.4767 52.2406 23.139 52.3847 22.9126C52.5287 22.6862 52.7424 22.3049 52.8596 22.0652C52.9768 21.8255 53.1481 21.4224 53.2403 21.1693C53.3325 20.9163 53.4621 20.4587 53.5282 20.1524C53.5944 19.8462 53.6711 19.384 53.6986 19.1253C53.7261 18.8667 53.7487 18.3592 53.7487 17.9976C53.7487 17.6359 53.7259 17.1284 53.6981 16.8698C53.6702 16.6112 53.604 16.1926 53.5508 15.9396C53.4976 15.6866 53.39 15.2834 53.3117 15.0437C53.2334 14.804 53.0642 14.3799 52.9358 14.1012C52.8074 13.8225 52.5453 13.354 52.3536 13.06C52.1618 12.7662 51.8449 12.339 51.6495 12.1109C51.4541 11.8827 51.0941 11.5247 50.8496 11.3152C50.605 11.1057 50.2129 10.8052 49.9781 10.6474C49.7434 10.4897 49.3128 10.2424 49.0212 10.0979C48.7297 9.95337 48.2068 9.73991 47.8592 9.62355C47.5117 9.50719 47.0032 9.36676 46.7293 9.31146C46.4554 9.25621 46.0499 9.18982 45.8282 9.16401C45.6064 9.1382 45.1476 9.10774 44.8085 9.09641C44.4694 9.08508 44.0745 9.08372 43.931 9.09346ZM66.1511 9.09336C66.0468 9.10343 65.7907 9.135 65.582 9.16348C65.3733 9.19195 64.986 9.28865 64.7214 9.37838C64.4568 9.46811 64.0491 9.63958 63.8153 9.75943C63.5816 9.87933 63.2187 10.1094 63.0089 10.2708C62.7991 10.4322 62.5149 10.6896 62.3774 10.8428C62.2398 10.996 62.0242 11.2822 61.8982 11.4787L61.6692 11.836V10.6676V9.4992H59.2029H56.7366V17.9976V26.496H59.3215H61.9063V21.8734C61.9063 18.8113 61.9241 17.0826 61.959 16.7526C61.9881 16.4785 62.063 16.0736 62.1255 15.8525C62.188 15.6316 62.3056 15.3164 62.3868 15.1521C62.468 14.9879 62.661 14.719 62.8156 14.5545C62.9703 14.3902 63.2228 14.1871 63.3768 14.1033C63.5308 14.0195 63.7591 13.9172 63.8842 13.8761C64.0127 13.8339 64.3747 13.7896 64.7159 13.7745C65.1068 13.7572 65.4249 13.7687 65.617 13.8072C65.7803 13.8399 66.0259 13.9225 66.1627 13.9908C66.3017 14.0601 66.5347 14.2459 66.6905 14.4116C66.8439 14.5747 67.0383 14.8474 67.1224 15.0175C67.2065 15.1875 67.326 15.5309 67.388 15.7804C67.4651 16.0905 67.5159 16.4902 67.5487 17.0432C67.5751 17.4882 67.597 19.7972 67.5972 22.1741L67.5977 26.496H70.1856H72.7735L72.7534 21.012C72.7362 16.2995 72.7224 15.4394 72.6555 14.8985C72.6126 14.5522 72.5445 14.0837 72.5041 13.8573C72.4637 13.631 72.3869 13.2823 72.3333 13.0826C72.2798 12.8828 72.1615 12.5342 72.0705 12.3078C71.9795 12.0814 71.8056 11.7235 71.6841 11.5126C71.5625 11.3016 71.2846 10.9367 71.0666 10.7017C70.8484 10.4666 70.5243 10.1754 70.3461 10.0545C70.168 9.93356 69.8449 9.75037 69.6281 9.64742C69.4113 9.54448 69.0727 9.41455 68.8758 9.35882C68.6787 9.30303 68.3053 9.22619 68.0458 9.18803C67.7862 9.14992 67.2965 9.10886 66.9574 9.09685C66.6183 9.08479 66.2555 9.08324 66.1511 9.09336ZM81.9684 9.11249C81.6945 9.13413 81.2676 9.18769 81.0198 9.23151C80.772 9.27534 80.4039 9.35393 80.2018 9.40618C79.9997 9.45848 79.6796 9.55799 79.4904 9.62743C79.3012 9.69682 78.9437 9.85778 78.6959 9.98508C78.448 10.1124 78.0896 10.3288 77.8992 10.466C77.7089 10.6032 77.3946 10.879 77.2007 11.0789C77.0067 11.2788 76.7303 11.6232 76.5863 11.8441C76.4423 12.0651 76.261 12.3889 76.1833 12.5637C76.1057 12.7385 76.0007 13.0344 75.95 13.2214C75.8992 13.4084 75.8315 13.7735 75.7996 14.0327C75.7634 14.3262 75.7522 14.7523 75.7698 15.1613C75.7896 15.6205 75.8331 15.9585 75.9143 16.2828C75.9782 16.5382 76.0885 16.8651 76.1594 17.0092C76.2303 17.1533 76.3795 17.402 76.4908 17.5618C76.6022 17.7216 76.8398 17.9953 77.0187 18.17C77.1977 18.3448 77.4402 18.5544 77.5576 18.6359C77.675 18.7173 77.9715 18.8866 78.2166 19.0122C78.4616 19.1377 78.9099 19.3243 79.2126 19.427C79.5153 19.5296 80.4229 19.7694 81.2296 19.9599C82.0362 20.1505 82.8792 20.3722 83.103 20.4527C83.3267 20.5332 83.5952 20.6426 83.6995 20.6958C83.8039 20.7489 83.9605 20.8609 84.0475 20.9446C84.1346 21.0282 84.2467 21.1776 84.2965 21.2764C84.3508 21.384 84.3872 21.5547 84.3872 21.702C84.3872 21.8479 84.3507 22.0211 84.2974 22.1276C84.248 22.2264 84.168 22.3429 84.1195 22.3864C84.0711 22.4299 83.9409 22.512 83.8302 22.5688C83.7195 22.6257 83.442 22.7193 83.2137 22.7769C82.8844 22.8599 82.6559 22.8816 82.1107 22.8816C81.5616 22.8816 81.3369 22.86 80.9961 22.7745C80.7613 22.7157 80.3985 22.581 80.1898 22.4753C79.9812 22.3695 79.6717 22.1762 79.5021 22.0457C79.3326 21.9151 79.0369 21.6427 78.8451 21.4404C78.6533 21.238 78.4823 21.0725 78.4653 21.0725C78.4481 21.0725 77.7407 21.8588 76.8932 22.8198C76.0456 23.7808 75.3462 24.5836 75.3389 24.6038C75.3315 24.6239 75.4916 24.7872 75.6946 24.9666C75.8975 25.146 76.2023 25.387 76.3719 25.5022C76.5414 25.6175 76.8786 25.8132 77.1212 25.9371C77.3638 26.0612 77.789 26.2384 78.0662 26.3311C78.3433 26.4238 78.8811 26.5634 79.2614 26.6413C79.6416 26.7192 80.1555 26.8107 80.4033 26.8445C80.6644 26.8801 81.3225 26.9049 81.9684 26.9036C82.7515 26.902 83.2592 26.8766 83.6758 26.8179C84.0019 26.772 84.4795 26.6907 84.7372 26.6372C84.9949 26.5837 85.4111 26.473 85.6621 26.3912C85.913 26.3093 86.3111 26.1506 86.5467 26.0384C86.7823 25.9263 87.1025 25.7514 87.2581 25.6498C87.4138 25.5483 87.6981 25.3328 87.8898 25.171C88.0816 25.0092 88.3855 24.691 88.5652 24.4637C88.7449 24.2365 88.9876 23.8544 89.1046 23.6147C89.2216 23.375 89.3624 22.9937 89.4175 22.7673C89.4895 22.4719 89.525 22.1348 89.5434 21.573C89.5595 21.0792 89.548 20.6412 89.5121 20.3866C89.4809 20.1646 89.3946 19.7967 89.3205 19.569C89.2463 19.3413 89.1109 19.0253 89.0195 18.8668C88.9282 18.7083 88.7396 18.4455 88.6004 18.2829C88.4613 18.1202 88.2408 17.8931 88.1103 17.7781C87.9799 17.6632 87.7272 17.4725 87.5487 17.3544C87.3702 17.2363 87.0494 17.0561 86.8357 16.9539C86.6221 16.8516 86.254 16.7019 86.0179 16.6211C85.7817 16.5403 84.93 16.3193 84.1252 16.1299C83.3205 15.9404 82.4792 15.7241 82.2559 15.6491C82.0326 15.5741 81.7536 15.4701 81.636 15.4181C81.5184 15.3661 81.35 15.2615 81.2617 15.1857C81.1734 15.1098 81.062 14.9597 81.0141 14.852C80.9662 14.7444 80.9266 14.5843 80.926 14.4962C80.9254 14.4081 80.9485 14.2405 80.9773 14.1237C81.0061 14.007 81.1045 13.8222 81.1958 13.7132C81.2872 13.6042 81.44 13.4744 81.5354 13.4248C81.6307 13.3751 81.8654 13.2859 82.0569 13.2265C82.3624 13.1317 82.4786 13.1214 83.0049 13.1421C83.4905 13.1612 83.6768 13.1906 83.9841 13.2968C84.1928 13.3689 84.5007 13.506 84.6684 13.6014C84.8361 13.6968 85.1513 13.9494 85.3689 14.1627L85.7645 14.5504L87.0086 13.2994C87.6928 12.6113 88.4127 11.8873 88.6083 11.6904L88.964 11.3325L88.7032 11.0876C88.5597 10.953 88.2805 10.7189 88.0826 10.5674C87.8847 10.416 87.5326 10.1923 87.3 10.0705C87.0675 9.94862 86.7171 9.79042 86.5215 9.719C86.3259 9.64752 85.9097 9.52501 85.5966 9.44681C85.2836 9.36855 84.7394 9.26279 84.3872 9.21176C84.0351 9.16077 83.4588 9.10871 83.1067 9.09607C82.7545 9.08343 82.2423 9.09084 81.9684 9.11249ZM139.262 9.11641C138.962 9.13781 138.471 9.19897 138.171 9.25224C137.871 9.3055 137.436 9.40545 137.204 9.47431C136.972 9.54322 136.577 9.67779 136.326 9.77338C136.076 9.86896 135.701 10.0339 135.494 10.1399C135.287 10.2459 134.949 10.4391 134.744 10.5691C134.539 10.6992 134.238 10.9093 134.077 11.036C133.916 11.1627 133.627 11.4182 133.435 11.6038C133.244 11.7895 132.953 12.1056 132.789 12.3062C132.626 12.5068 132.372 12.8591 132.225 13.089C132.079 13.3189 131.854 13.722 131.725 13.9848C131.597 14.2476 131.415 14.6899 131.32 14.9677C131.226 15.2455 131.094 15.7358 131.027 16.0573C130.925 16.5509 130.902 16.8111 130.881 17.7312C130.862 18.5814 130.874 18.9431 130.933 19.3777C130.975 19.6839 131.064 20.1524 131.131 20.4188C131.197 20.6851 131.327 21.0991 131.419 21.3388C131.512 21.5785 131.695 21.9816 131.826 22.2347C131.957 22.4877 132.195 22.8906 132.354 23.1301C132.514 23.3695 132.88 23.8134 133.167 24.1165C133.454 24.4196 133.894 24.8256 134.145 25.0186C134.396 25.2117 134.817 25.4945 135.081 25.6471C135.345 25.7998 135.823 26.0333 136.143 26.166C136.463 26.2988 137.002 26.4804 137.342 26.5696C137.682 26.6587 138.205 26.7704 138.504 26.8177C138.9 26.8804 139.331 26.904 140.092 26.9047C140.861 26.9054 141.278 26.8829 141.68 26.8193C141.98 26.7718 142.45 26.6773 142.724 26.6091C142.998 26.541 143.425 26.4104 143.672 26.319C143.92 26.2275 144.347 26.0434 144.621 25.9099C144.895 25.7765 145.354 25.5065 145.641 25.3101C145.928 25.1136 146.344 24.7904 146.565 24.5918C146.787 24.3933 147.118 24.0524 147.301 23.8342C147.483 23.6161 147.757 23.2487 147.91 23.0178C148.062 22.7868 148.304 22.3602 148.447 22.0697C148.591 21.7793 148.79 21.289 148.891 20.9802C148.992 20.6714 149.117 20.2009 149.17 19.9345C149.222 19.6682 149.289 19.1452 149.319 18.7724C149.348 18.3995 149.358 17.8438 149.341 17.5376C149.324 17.2313 149.27 16.7192 149.22 16.3996C149.17 16.08 149.084 15.6551 149.03 15.4553C148.975 15.2556 148.847 14.8742 148.744 14.6079C148.642 14.3416 148.444 13.913 148.305 13.6555C148.165 13.398 147.925 13.0073 147.771 12.7872C147.616 12.5671 147.298 12.1809 147.063 11.9291C146.829 11.6772 146.487 11.3465 146.305 11.1941C146.122 11.0417 145.791 10.7968 145.569 10.6497C145.348 10.5026 144.965 10.2794 144.719 10.1536C144.473 10.0278 144.079 9.85022 143.845 9.75894C143.611 9.66767 143.183 9.52927 142.894 9.45136C142.605 9.37344 142.174 9.27606 141.938 9.23495C141.701 9.19384 141.199 9.13873 140.823 9.11254C140.447 9.08629 140.064 9.06765 139.973 9.07113C139.882 9.07457 139.562 9.09496 139.262 9.11641ZM92.2129 17.9976V26.496H94.7977H97.3825V17.9976V9.4992H94.7977H92.2129V17.9976ZM122.662 17.9976V26.496H125.247H127.831V17.9976V9.4992H125.247H122.662V17.9976ZM45.5028 13.8369C45.7209 13.8789 46.037 13.9693 46.2052 14.0378C46.3735 14.1062 46.6399 14.2393 46.7973 14.3335C46.9546 14.4276 47.2357 14.6603 47.422 14.8505C47.6142 15.0467 47.8561 15.3622 47.9812 15.58C48.1025 15.7911 48.264 16.1614 48.3401 16.4031C48.4161 16.6447 48.5039 17.0369 48.535 17.2747C48.5694 17.5366 48.5804 17.936 48.5631 18.2881C48.5474 18.6077 48.4911 19.0505 48.4381 19.272C48.3851 19.4935 48.2697 19.834 48.1817 20.0285C48.0937 20.223 47.9352 20.5122 47.8294 20.6712C47.7237 20.8301 47.4862 21.1029 47.3017 21.2774C47.1052 21.4631 46.8084 21.6783 46.5857 21.7966C46.3764 21.9078 45.9976 22.0548 45.7439 22.1233C45.3455 22.231 45.1828 22.2481 44.5476 22.2496C44.017 22.2508 43.7069 22.2276 43.4331 22.1662C43.2244 22.1195 42.9002 22.0162 42.7126 21.9367C42.525 21.8572 42.2254 21.6874 42.0469 21.5594C41.8683 21.4314 41.6107 21.2021 41.4745 21.0499C41.3383 20.8977 41.1425 20.6281 41.0395 20.4507C40.9365 20.2734 40.7971 19.9782 40.7297 19.7948C40.6623 19.6115 40.5729 19.3064 40.5311 19.1169C40.4815 18.8921 40.4535 18.52 40.4504 18.046C40.4469 17.5116 40.4685 17.2108 40.5319 16.908C40.5794 16.6817 40.6733 16.3548 40.7406 16.1817C40.8079 16.0086 40.9436 15.731 41.0421 15.5648C41.1406 15.3986 41.3129 15.1515 41.4251 15.0157C41.5373 14.8799 41.7574 14.6702 41.9142 14.5499C42.071 14.4295 42.3168 14.2706 42.4604 14.1968C42.6041 14.1229 42.8283 14.0252 42.9588 13.9797C43.0892 13.9341 43.3346 13.8682 43.5042 13.8332C43.6738 13.7982 44.1036 13.7676 44.4594 13.765C44.8678 13.7622 45.2524 13.7887 45.5028 13.8369ZM111.728 13.9259C111.962 13.9978 112.295 14.133 112.469 14.2263C112.643 14.3196 112.896 14.4919 113.03 14.609C113.164 14.7262 113.378 14.9458 113.504 15.097C113.631 15.2483 113.821 15.5379 113.926 15.7405C114.032 15.9432 114.173 16.3002 114.239 16.5339C114.305 16.7676 114.383 17.2001 114.412 17.495C114.45 17.8861 114.45 18.1643 114.412 18.5228C114.383 18.7932 114.327 19.1561 114.286 19.3292C114.245 19.5023 114.108 19.8619 113.982 20.1282C113.854 20.3996 113.635 20.7571 113.485 20.9416C113.338 21.1226 113.086 21.3701 112.924 21.4915C112.763 21.6129 112.535 21.7619 112.417 21.8226C112.3 21.8832 112.033 21.9877 111.824 22.0549C111.616 22.122 111.232 22.2032 110.971 22.2354C110.687 22.2704 110.309 22.281 110.031 22.2618C109.774 22.2442 109.364 22.1778 109.119 22.1143C108.874 22.0507 108.496 21.9049 108.28 21.7903C108.028 21.6562 107.765 21.4625 107.543 21.2474C107.353 21.0635 107.098 20.7589 106.975 20.5707C106.853 20.3825 106.683 20.0391 106.598 19.8077C106.513 19.5763 106.408 19.1833 106.366 18.9344C106.308 18.5956 106.295 18.3053 106.313 17.7797C106.33 17.2879 106.367 16.9615 106.438 16.6901C106.493 16.4771 106.613 16.1413 106.704 15.9439C106.796 15.7465 106.964 15.4523 107.077 15.2902C107.19 15.128 107.391 14.8928 107.522 14.7676C107.653 14.6423 107.883 14.4595 108.034 14.3614C108.184 14.2632 108.437 14.1288 108.595 14.0626C108.754 13.9964 109.065 13.9017 109.287 13.8521C109.614 13.7789 109.842 13.7651 110.496 13.7786C111.207 13.7931 111.353 13.8106 111.728 13.9259ZM141.465 13.9259C141.699 13.9978 142.037 14.1351 142.216 14.2311C142.395 14.3271 142.701 14.5585 142.897 14.7452C143.093 14.9321 143.339 15.2143 143.444 15.3724C143.55 15.5306 143.699 15.8025 143.776 15.9768C143.854 16.1511 143.958 16.4565 144.008 16.6555C144.058 16.8545 144.119 17.2433 144.145 17.5195C144.176 17.8494 144.176 18.1952 144.145 18.5272C144.119 18.8052 144.045 19.2201 143.98 19.4491C143.915 19.6782 143.789 20.0119 143.701 20.1906C143.613 20.3694 143.439 20.6538 143.315 20.8227C143.19 20.9916 142.964 21.2354 142.812 21.3645C142.66 21.4936 142.402 21.6749 142.239 21.7673C142.075 21.8597 141.77 21.99 141.56 22.0569C141.35 22.1237 140.956 22.2048 140.685 22.237C140.393 22.2716 140.018 22.2822 139.766 22.2627C139.532 22.2447 139.198 22.1993 139.023 22.1617C138.848 22.1242 138.563 22.0389 138.39 21.9723C138.216 21.9057 137.93 21.7556 137.753 21.6388C137.576 21.522 137.318 21.3086 137.179 21.1647C137.04 21.0208 136.841 20.7753 136.737 20.6191C136.633 20.463 136.487 20.1995 136.413 20.0336C136.34 19.8677 136.231 19.5487 136.171 19.3248C136.075 18.9662 136.063 18.808 136.064 17.9976C136.065 17.2055 136.08 17.0236 136.169 16.6901C136.226 16.4771 136.382 16.0753 136.516 15.7973C136.726 15.3641 136.819 15.2328 137.169 14.8773C137.394 14.6492 137.7 14.3893 137.85 14.2997C138 14.2101 138.3 14.0743 138.516 13.9981C138.733 13.9218 139.027 13.8385 139.169 13.8129C139.311 13.7874 139.79 13.773 140.234 13.7808C140.949 13.7935 141.088 13.8099 141.465 13.9259ZM5.79069 35.7741C5.98183 35.8389 6.24861 35.9645 6.38355 36.053C6.51848 36.1416 6.72266 36.3101 6.83734 36.4274C6.95202 36.5447 7.1184 36.752 7.20713 36.888C7.29583 37.0241 7.41933 37.2841 7.48151 37.4659C7.54373 37.6477 7.60847 37.9504 7.6254 38.1386C7.64646 38.3732 7.63275 38.5952 7.58186 38.844C7.54103 39.0438 7.42933 39.3706 7.33367 39.5704C7.20794 39.8329 7.06542 40.0289 6.81927 40.2776C6.59868 40.5005 6.37155 40.6749 6.17434 40.7729C6.00697 40.8561 5.74279 40.9573 5.58732 40.9978C5.43185 41.0384 5.14681 41.0715 4.95387 41.0715C4.76098 41.0715 4.47352 41.0372 4.31511 40.9953C4.1567 40.9534 3.91885 40.8636 3.78652 40.7957C3.65425 40.7279 3.43859 40.5833 3.30731 40.4745C3.17598 40.3657 2.9885 40.1776 2.89061 40.0567C2.79272 39.9357 2.64982 39.706 2.57308 39.5462C2.49629 39.3864 2.40106 39.1258 2.36136 38.967C2.32166 38.8083 2.2895 38.5359 2.28988 38.3617C2.29026 38.1875 2.32275 37.9056 2.36207 37.7353C2.40143 37.5649 2.51294 37.2707 2.60988 37.0816C2.71764 36.8713 2.90626 36.6149 3.09498 36.422C3.30964 36.2026 3.51614 36.0498 3.77258 35.9208C3.97543 35.8188 4.29557 35.7057 4.484 35.6697C4.67917 35.6323 4.95923 35.6153 5.13486 35.6301C5.30441 35.6445 5.59956 35.7093 5.79069 35.7741Z" fill="black"/>
</svg>
