<svg width="187" height="53" viewBox="0 0 187 53" fill="none" xmlns="http://www.w3.org/2000/svg">
<path d="M49.2722 0.0785235C48.9689 0.160917 48.3172 0.533346 47.8241 0.906051C47.331 1.27848 46.7359 1.95477 46.5018 2.40904C46.2674 2.86303 45.9637 4.44316 45.8267 5.91988C45.6899 7.39688 45.4412 9.07295 45.274 9.645C45.1069 10.2168 44.3221 11.6476 43.5298 12.8246C42.7374 14.0013 41.6059 15.6487 41.0149 16.485C40.424 17.3214 39.6843 18.379 39.3716 18.8352C39.0586 19.2914 38.5909 19.9135 38.3316 20.2176C37.9061 20.7175 37.5242 20.77 34.3577 20.7648L30.8545 20.759L30.0429 19.3188C29.5967 18.5266 29.0573 17.2227 28.8447 16.4214C28.6318 15.6199 28.4561 14.0304 28.4545 12.8888C28.4525 11.7474 28.3295 10.3882 28.1809 9.8684C28.0322 9.34861 27.5667 8.56062 27.1467 8.11741C26.7264 7.6742 26.0478 7.13615 25.6382 6.9216C25.2284 6.70704 24.2356 6.53202 23.432 6.53258C22.4271 6.53313 21.6687 6.71782 21.0052 7.12316C20.4743 7.44748 19.8282 7.9576 19.5695 8.25648C19.3105 8.55564 18.9548 9.23746 18.7789 9.77219C18.5897 10.3473 18.5351 11.2674 18.6457 12.025C18.7085 12.4102 18.9566 13.4248 19.4462 14.4011C19.5309 14.6218 20.0998 15.1189 20.7107 15.5054C21.274 15.748 22.7731 16.3794 24.2629 16.9642C25.1636 17.3983 26.553 18.4445 27.5265 19.4216C28.4589 20.3575 29.3027 21.3794 29.4017 21.6924C29.5203 22.067 29.3477 22.6203 28.8954 23.3132C28.5179 23.8916 28.1271 24.702 28.0273 25.1139C27.9272 25.5259 27.6768 26.0034 27.4705 26.1748C27.2066 26.3946 24.9885 26.4585 19.9826 26.3908C13.2807 26.3004 12.7909 26.2583 11.505 25.6666C10.7546 25.3213 9.51361 24.5604 8.74722 23.9756C7.98112 23.3909 6.90559 22.7688 6.35707 22.5926C5.78594 22.4096 4.8665 22.3521 4.20464 22.458C3.56925 22.56 2.66443 22.9062 2.19368 23.2277C1.72293 23.549 1.08644 24.1523 0.778952 24.5687C0.414376 25.062 0.178312 25.9003 0.100543 26.9772C-0.00149427 28.3942 0.0859268 28.8081 0.715248 29.8845C1.19041 30.6976 1.84565 31.3427 2.57508 31.7159C3.47549 32.1763 4.0127 32.2606 5.25204 32.1362C6.46588 31.7655 7.76949 31.1979 8.35175 30.9444C8.53819 30.8633 8.65066 30.8143 8.66256 30.8143C9.25335 30.5818 10.8267 29.5943 11.5395 29.1296C12.7884 28.5537 13.3199 28.5103 20.2178 28.4218L27.5659 28.3278L27.9048 29.3876C28.0913 29.9707 28.5386 30.8436 28.899 31.3277C29.2594 31.8119 29.5542 32.3225 29.5542 32.4627C29.5542 32.6029 28.8935 33.3439 28.0863 34.1097C27.2788 34.8753 26.1308 35.7477 25.5354 36.0485C24.9397 36.3496 23.6457 36.798 22.6598 37.0452C21.674 37.2927 20.5648 37.7212 20.195 37.9974C19.8251 38.2739 19.2725 38.8358 18.9667 39.2463C18.5844 39.7595 18.382 40.5309 18.318 41.7176C18.2422 43.1268 18.3415 43.6433 18.861 44.5402C19.2107 45.1441 19.9073 45.9155 20.409 46.2545C20.9109 46.5934 21.8794 46.9548 22.5617 47.0574C23.4251 47.1871 24.1424 47.1096 24.9234 46.8019C25.1935 46.6896 25.952 46.2975 26.8257 45.628C27.1382 45.3446 27.5695 44.6907 27.7846 44.1747C27.9994 43.6588 28.1754 42.4301 28.1754 41.4441C28.1754 40.4582 28.3659 38.914 28.599 38.0124C28.832 37.111 29.279 35.9111 29.5923 35.3459C29.9056 34.7808 30.346 34.11 30.5716 33.8554C30.9455 33.4326 31.0809 33.4288 32.1292 33.8103C32.9747 34.118 33.895 34.1869 35.6213 34.0719L37.9654 33.9154L39.8388 36.5307C40.8693 37.9692 42.0767 39.9268 42.5221 40.8807C42.9672 41.8348 43.4583 43.2853 43.613 44.1037C43.768 44.9221 43.8946 46.3261 43.8946 47.2238C43.8946 48.3066 44.0791 49.2184 44.4423 49.9323C44.7434 50.5243 45.1177 51.0878 45.274 51.1845L45.825 51.8232C45.825 51.9645 46.3609 52.2305 47.0156 52.4143C47.6705 52.5982 48.9195 52.6955 49.7912 52.6308C51.2895 52.5197 51.4349 52.4423 52.4464 51.2149C53.1863 50.3169 53.5738 49.5331 53.7023 48.6735C53.8134 47.9319 53.7492 46.9327 53.5437 46.1964C53.3212 45.3993 52.8355 44.6331 52.1723 44.0323C51.5068 43.4299 50.6216 42.9778 49.6572 42.7486C48.8387 42.554 47.6727 42.0521 47.066 41.6333C46.4593 41.2144 45.4519 40.3924 44.8273 39.8071C44.2026 39.2215 42.9572 37.7469 42.0599 36.5304C41.1625 35.3139 40.2155 33.9806 39.9551 33.5678C39.6951 33.155 39.4822 32.6745 39.4822 32.5003C39.4822 32.3258 39.9951 31.5691 40.622 30.8184C41.2488 30.0678 42.2725 29.1858 42.8971 28.8581C43.8314 28.3679 44.4961 28.2637 46.6524 28.2695C48.0933 28.2736 49.7686 28.4415 50.3753 28.643C50.982 28.8446 52.2779 29.6724 53.255 30.4831C54.4119 31.4427 55.422 32.0369 56.1506 32.1865C56.7662 32.3126 57.7661 32.3112 58.3728 32.1829C58.9795 32.0549 59.7785 31.7286 60.1483 31.4582C60.5181 31.1878 61.0686 30.6337 61.3714 30.227C61.7232 29.7545 61.964 28.909 62.0379 27.8849C62.1135 26.8345 62.0084 25.9343 61.7321 25.2718C61.4955 24.7039 60.7999 23.8899 60.1453 23.4144C59.1949 22.724 58.7104 22.5678 57.5221 22.5678C56.7204 22.5678 55.7315 22.6947 55.3241 22.8501C54.9168 23.0054 54.0572 23.5966 53.4144 24.1642C52.7713 24.7316 51.6842 25.4767 50.9986 25.8201C49.973 26.3338 49.2664 26.4494 47.012 26.4732C44.7079 26.4972 44.0852 26.4062 43.0984 25.9017C42.4531 25.5715 41.3872 24.7387 40.7301 24.0511C40.0729 23.3635 39.4734 22.5636 39.3978 22.2736C39.3137 21.9512 39.571 21.3543 40.0605 20.7366C40.5009 20.1814 40.8611 19.6494 40.8611 19.5546C40.8611 19.46 41.2025 19.0152 41.6194 18.5659C42.0364 18.1169 42.5121 17.4959 42.6762 17.1862L44.7228 14.4103C45.5029 13.4274 46.4874 12.3759 46.9108 12.0737C47.6505 11.5718 49.2287 10.548 49.6238 10.4681C50.6439 10.0064 51.9376 9.48409 52.4988 9.30741C53.06 9.13073 53.8926 8.55979 54.3487 8.03888C54.8049 7.51798 55.3079 6.60917 55.4662 6.01969C55.6245 5.42994 55.6741 4.52611 55.5762 4.01129C55.4786 3.49647 55.2301 2.73972 55.0244 2.32941C54.8186 1.9191 54.2246 1.25774 53.7042 0.859878C53.0294 0.343675 52.338 0.106449 51.2909 0.03235C50.484 -0.024883 49.5756 -0.00414638 49.2722 0.0785235Z" fill="black"/>
<path fill-rule="evenodd" clip-rule="evenodd" d="M97.528 21.044C96.1795 22.4625 95.5052 24.4285 95.5052 26.942C95.5052 28.271 95.7942 29.5312 96.3721 30.7225C96.9501 31.9138 97.7997 32.8538 98.9212 33.5424C100.043 34.231 101.315 34.5753 102.74 34.5753C104.054 34.5753 105.278 34.2654 106.414 33.6457C107.549 33.019 108.426 32.0997 109.045 30.8878C109.664 29.6758 109.974 28.302 109.974 26.7664C109.974 25.2514 109.678 23.8983 109.086 22.707C108.502 21.5088 107.648 20.5757 106.527 19.9077C105.406 19.2398 104.147 18.9058 102.75 18.9058C100.617 18.9058 98.8765 19.6185 97.528 21.044ZM99.0347 31.2906C98.0577 30.237 97.5693 28.7978 97.5693 26.973C97.5693 24.6936 98.0784 23.0685 99.0966 22.0975C100.122 21.1197 101.343 20.6308 102.76 20.6308C103.758 20.6308 104.656 20.8856 105.454 21.3951C106.259 21.8978 106.868 22.6106 107.28 23.5333C107.7 24.4492 107.91 25.5234 107.91 26.756C107.91 28.7048 107.421 30.2095 106.444 31.2699C105.474 32.3304 104.236 32.8606 102.729 32.8606C101.25 32.8606 100.019 32.3373 99.0347 31.2906Z" fill="black"/>
<path d="M88.8819 29.514L86.8798 29.0078C86.6046 30.2818 86.0782 31.2424 85.3008 31.8897C84.5234 32.537 83.5739 32.8606 82.4525 32.8606C81.5305 32.8606 80.674 32.6231 79.8828 32.1479C79.0916 31.6728 78.5068 30.9566 78.1284 29.9994C77.7569 29.0354 77.5711 27.9095 77.5711 26.6218C77.5711 25.6233 77.7293 24.6558 78.0458 23.7192C78.3623 22.7758 78.9093 22.0252 79.6867 21.4675C80.471 20.9097 81.4445 20.6308 82.6073 20.6308C83.6186 20.6308 84.458 20.8821 85.1254 21.3848C85.7927 21.8875 86.3018 22.6898 86.6527 23.7915L88.6238 23.3267C88.2179 21.9288 87.499 20.8443 86.467 20.073C85.435 19.3017 84.1622 18.9161 82.6486 18.9161C81.3138 18.9161 80.0892 19.2226 78.9746 19.8354C77.8669 20.4414 77.0104 21.3332 76.4049 22.5107C75.8064 23.6814 75.5071 25.0552 75.5071 26.6321C75.5071 28.0782 75.772 29.4313 76.3017 30.6915C76.8384 31.9517 77.6158 32.9157 78.6341 33.5837C79.6592 34.2448 80.987 34.5753 82.6176 34.5753C84.1931 34.5753 85.5244 34.1449 86.6114 33.2841C87.7054 32.4165 88.4622 31.1598 88.8819 29.514Z" fill="black"/>
<path d="M116.639 29.452L118.527 29.2867C118.617 30.0442 118.823 30.6674 119.146 31.1563C119.477 31.6383 119.986 32.0309 120.674 32.3339C121.362 32.63 122.136 32.778 122.996 32.778C123.759 32.778 124.434 32.6644 125.018 32.4371C125.603 32.2099 126.037 31.9 126.319 31.5075C126.608 31.1081 126.752 30.6743 126.752 30.206C126.752 29.7309 126.615 29.3177 126.339 28.9665C126.064 28.6084 125.61 28.3089 124.977 28.0679C124.571 27.9095 123.673 27.665 122.284 27.3345C120.894 26.9971 119.92 26.6803 119.363 26.3842C118.641 26.0054 118.101 25.5372 117.743 24.9794C117.392 24.4147 117.217 23.7847 117.217 23.0891C117.217 22.3248 117.433 21.6121 117.867 20.951C118.3 20.283 118.933 19.7769 119.766 19.4326C120.598 19.0883 121.523 18.9161 122.542 18.9161C123.663 18.9161 124.65 19.0986 125.504 19.4636C126.364 19.8217 127.024 20.3519 127.485 21.0543C127.946 21.7567 128.194 22.552 128.228 23.4403L126.308 23.585C126.205 22.6278 125.854 21.9047 125.256 21.4158C124.664 20.9269 123.787 20.6824 122.624 20.6824C121.413 20.6824 120.529 20.9062 119.972 21.3538C119.422 21.7945 119.146 22.3282 119.146 22.9549C119.146 23.4989 119.342 23.9465 119.735 24.2977C120.12 24.6489 121.124 25.0104 122.748 25.3822C124.379 25.7472 125.497 26.0674 126.102 26.3429C126.983 26.7492 127.633 27.2656 128.053 27.8923C128.472 28.512 128.682 29.2282 128.682 30.0408C128.682 30.8464 128.452 31.6074 127.991 32.3235C127.53 33.0328 126.866 33.5871 125.999 33.9865C125.139 34.3791 124.169 34.5753 123.089 34.5753C121.719 34.5753 120.571 34.3756 119.642 33.9762C118.72 33.5768 117.994 32.9777 117.464 32.1789C116.941 31.3732 116.666 30.4643 116.639 29.452Z" fill="black"/>
<path d="M136.214 19.1744V34.3171H147.504V32.5301H138.216V27.3758H146.585V25.5992H138.216V20.9613H147.153V19.1744H136.214Z" fill="black"/>
<path d="M154.344 29.452L156.232 29.2867C156.322 30.0442 156.528 30.6674 156.852 31.1563C157.182 31.6383 157.691 32.0309 158.379 32.3339C159.067 32.63 159.841 32.778 160.701 32.778C161.465 32.778 162.139 32.6644 162.724 32.4371C163.309 32.2099 163.742 31.9 164.024 31.5075C164.313 31.1081 164.458 30.6743 164.458 30.206C164.458 29.7309 164.32 29.3177 164.045 28.9665C163.77 28.6084 163.315 28.3089 162.682 28.0679C162.277 27.9095 161.379 27.665 159.989 27.3345C158.599 26.9971 157.626 26.6803 157.068 26.3842C156.346 26.0054 155.806 25.5372 155.448 24.9794C155.097 24.4147 154.922 23.7847 154.922 23.0891C154.922 22.3248 155.139 21.6121 155.572 20.951C156.005 20.283 156.638 19.7769 157.471 19.4326C158.303 19.0883 159.229 18.9161 160.247 18.9161C161.368 18.9161 162.356 19.0986 163.209 19.4636C164.069 19.8217 164.729 20.3519 165.19 21.0543C165.651 21.7567 165.899 22.552 165.933 23.4403L164.014 23.585C163.911 22.6278 163.56 21.9047 162.961 21.4158C162.369 20.9269 161.492 20.6824 160.329 20.6824C159.119 20.6824 158.235 20.9062 157.677 21.3538C157.127 21.7945 156.852 22.3282 156.852 22.9549C156.852 23.4989 157.048 23.9465 157.44 24.2977C157.825 24.6489 158.83 25.0104 160.453 25.3822C162.084 25.7472 163.202 26.0674 163.807 26.3429C164.688 26.7492 165.338 27.2656 165.758 27.8923C166.178 28.512 166.387 29.2282 166.387 30.0408C166.387 30.8464 166.157 31.6074 165.696 32.3235C165.235 33.0328 164.571 33.5871 163.704 33.9865C162.844 34.3791 161.874 34.5753 160.794 34.5753C159.425 34.5753 158.276 34.3756 157.347 33.9762C156.425 33.5768 155.699 32.9777 155.169 32.1789C154.647 31.3732 154.371 30.4643 154.344 29.452Z" fill="black"/>
<path d="M178.14 27.9026V34.3171H180.142V27.9026L186.179 19.1744H183.847L180.916 23.6263C180.269 24.6179 179.719 25.5096 179.265 26.3016C178.79 25.4477 178.277 24.5938 177.727 23.7399L174.745 19.1744H172.309L178.14 27.9026Z" fill="black"/>
</svg>
