<svg width="227" height="49" viewBox="0 0 227 49" fill="none" xmlns="http://www.w3.org/2000/svg">
<path d="M0.59668 9.69538C0.59668 16.411 0.669862 18.8138 0.880883 19.027C1.03719 19.1849 1.70957 19.3141 2.37508 19.3141C3.04059 19.3141 3.77312 19.1754 4.00285 19.0055C4.39884 18.7128 4.40027 18.5949 4.02843 16.7415C3.70468 15.1276 3.68171 14.4815 3.8958 13.0423C4.03862 12.0833 4.43887 10.4642 4.78536 9.44414C5.29385 7.94749 5.50842 7.58978 5.89707 7.58978C6.17796 7.58978 7.00499 8.23797 7.88081 9.14505C8.70689 10.0005 9.46453 10.7003 9.56447 10.7003C9.66442 10.7003 9.99433 10.2426 10.2975 9.68341C10.6009 9.12423 11.1056 8.31669 11.4189 7.88887C11.7325 7.46129 12.1166 7.11722 12.2729 7.12487C12.429 7.13229 13.0287 7.79244 13.6051 8.59185C14.1816 9.39126 15.3006 10.5223 16.0919 11.1052C16.8832 11.688 18.1739 12.8583 18.9602 13.7058C20.269 15.1161 20.4722 15.2465 21.3627 15.2465C21.8979 15.2465 23.013 15.4592 23.8409 15.7191C24.6687 15.9789 25.9322 16.5891 26.6486 17.075C27.3651 17.5607 28.6172 18.6504 29.4312 19.4962C30.2452 20.342 31.4841 21.9124 32.1842 22.9855C32.8843 24.0589 34.0017 26.0138 34.6677 27.3298C35.3336 28.6458 36.1256 30.0321 36.4281 30.4106C36.7961 30.8712 37.2845 31.149 37.9062 31.2512C38.5631 31.3591 38.9262 31.5778 39.1472 31.9987C39.34 32.3662 39.4143 33.0285 39.3414 33.73C39.2765 34.355 39.0001 35.3779 38.7275 36.0031C38.4547 36.6284 37.9509 37.5505 37.6077 38.0523C37.2648 38.554 36.5005 39.251 35.9094 39.6011C34.8507 40.2277 34.7584 40.2387 29.7351 40.3215C26.485 40.3754 23.6477 40.2909 21.9119 40.089C20.4139 39.9145 18.5488 39.7786 17.7673 39.787C16.8917 39.7963 16.0282 39.9672 15.5173 40.232C15.0614 40.4687 14.2796 41.0539 13.7802 41.533C13.2807 42.012 12.668 42.8035 12.4183 43.2919C12.169 43.78 11.8457 44.9885 11.7 45.977C11.5546 46.9656 11.498 47.939 11.5743 48.14C11.6972 48.4633 13.8012 48.5054 29.8386 48.5054H47.9639V0.650879H0.59668V9.69538Z" fill="black"/>
<path d="M61.4191 17.4897V21.7318H68.7729V24.7127H61.4191V30.5599H57.7422V14.5087H69.7488V17.4897H61.4191Z" fill="black"/>
<path fill-rule="evenodd" clip-rule="evenodd" d="M82.0363 27.1204H74.6599L73.2527 30.5599H69.485L76.5664 14.5087H80.1979L87.302 30.5599H83.4435L82.0363 27.1204ZM80.8788 24.3L78.3594 18.1547L75.8401 24.3H80.8788Z" fill="black"/>
<path fill-rule="evenodd" clip-rule="evenodd" d="M99.0731 30.5599L96.009 26.0885H92.6272V30.5599H88.9503V14.5087H95.8274C97.2346 14.5087 98.4527 14.7457 99.4816 15.2196C100.526 15.6935 101.328 16.3661 101.887 17.2374C102.447 18.1088 102.727 19.1407 102.727 20.333C102.727 21.5254 102.44 22.5573 101.865 23.4286C101.305 24.2847 100.503 24.942 99.4589 25.4006L103.022 30.5599H99.0731ZM99.005 20.333C99.005 19.4311 98.7175 18.7432 98.1425 18.2693C97.5675 17.7801 96.7278 17.5355 95.6232 17.5355H92.6272V23.1305H95.6232C96.7278 23.1305 97.5675 22.8859 98.1425 22.3968C98.7175 21.9076 99.005 21.2197 99.005 20.333Z" fill="black"/>
<path fill-rule="evenodd" clip-rule="evenodd" d="M115.763 30.5599L112.699 26.0885H109.317V30.5599H105.64V14.5087H112.518C113.925 14.5087 115.143 14.7457 116.172 15.2196C117.216 15.6935 118.018 16.3661 118.578 17.2374C119.137 18.1088 119.417 19.1407 119.417 20.333C119.417 21.5254 119.13 22.5573 118.555 23.4286C117.995 24.2847 117.193 24.942 116.149 25.4006L119.712 30.5599H115.763ZM115.695 20.333C115.695 19.4311 115.408 18.7432 114.833 18.2693C114.258 17.7801 113.418 17.5355 112.313 17.5355H109.317V23.1305H112.313C113.418 23.1305 114.258 22.8859 114.833 22.3968C115.408 21.9076 115.695 21.2197 115.695 20.333Z" fill="black"/>
<path fill-rule="evenodd" clip-rule="evenodd" d="M130.025 30.8351C128.375 30.8351 126.885 30.4759 125.553 29.7574C124.237 29.0389 123.201 28.0529 122.444 26.7994C121.703 25.5306 121.332 24.1089 121.332 22.5343C121.332 20.9598 121.703 19.5458 122.444 18.2922C123.201 17.0234 124.237 16.0298 125.553 15.3113C126.885 14.5928 128.375 14.2336 130.025 14.2336C131.674 14.2336 133.157 14.5928 134.473 15.3113C135.79 16.0298 136.826 17.0234 137.583 18.2922C138.339 19.5458 138.718 20.9598 138.718 22.5343C138.718 24.1089 138.339 25.5306 137.583 26.7994C136.826 28.0529 135.79 29.0389 134.473 29.7574C133.157 30.4759 131.674 30.8351 130.025 30.8351ZM130.025 27.6707C130.963 27.6707 131.81 27.4567 132.567 27.0287C133.323 26.5854 133.913 25.9739 134.337 25.1943C134.776 24.4146 134.995 23.528 134.995 22.5343C134.995 21.5407 134.776 20.6541 134.337 19.8744C133.913 19.0948 133.323 18.491 132.567 18.0629C131.81 17.6196 130.963 17.398 130.025 17.398C129.087 17.398 128.239 17.6196 127.483 18.0629C126.726 18.491 126.128 19.0948 125.69 19.8744C125.266 20.6541 125.054 21.5407 125.054 22.5343C125.054 23.528 125.266 24.4146 125.69 25.1943C126.128 25.9739 126.726 26.5854 127.483 27.0287C128.239 27.4567 129.087 27.6707 130.025 27.6707Z" fill="black"/>
<path d="M159.765 30.5599H155.815L152.32 19.691L148.711 30.5599H144.785L139.564 14.5087H143.378L146.964 25.7904L150.709 14.5087H154.113L157.745 25.8822L161.444 14.5087H164.962L159.765 30.5599Z" fill="black"/>
<path d="M171.001 16.5037H165.554V14.5087H178.696V16.5037H173.248V30.5599H171.001V16.5037Z" fill="black"/>
<path d="M192.698 28.565V30.5599H181.168V14.5087H192.38V16.5037H183.437V21.4337H191.404V23.3828H183.437V28.565H192.698Z" fill="black"/>
<path d="M203.41 30.7434C201.822 30.7434 200.384 30.3918 199.098 29.6886C197.827 28.9701 196.828 27.9917 196.102 26.7535C195.376 25.5 195.013 24.0936 195.013 22.5343C195.013 20.9751 195.376 19.5763 196.102 18.3381C196.828 17.0846 197.835 16.1062 199.121 15.403C200.407 14.6845 201.844 14.3253 203.433 14.3253C204.674 14.3253 205.809 14.5393 206.838 14.9673C207.867 15.3801 208.744 15.9992 209.47 16.8247L207.995 18.2693C206.8 17.0005 205.309 16.3661 203.524 16.3661C202.344 16.3661 201.277 16.6336 200.324 17.1687C199.37 17.7037 198.621 18.4451 198.077 19.3929C197.547 20.3254 197.282 21.3725 197.282 22.5343C197.282 23.6961 197.547 24.7509 198.077 25.6987C198.621 26.6312 199.37 27.365 200.324 27.9C201.277 28.4351 202.344 28.7026 203.524 28.7026C205.294 28.7026 206.785 28.0605 207.995 26.7764L209.47 28.221C208.744 29.0465 207.859 29.6733 206.815 30.1013C205.786 30.5294 204.651 30.7434 203.41 30.7434Z" fill="black"/>
<path d="M226.372 30.5599H224.102V23.4057H214.978V30.5599H212.708V14.5087H214.978V21.4108H224.102V14.5087H226.372V30.5599Z" fill="black"/>
<path d="M110.218 39.5566H107.298V40.4668H110.218V39.5566Z" fill="black"/>
<path fill-rule="evenodd" clip-rule="evenodd" d="M119.916 40.4668C119.93 40.3352 119.937 40.2292 119.937 40.1488C119.937 39.5639 119.814 39.0448 119.568 38.5915C119.33 38.1382 118.993 37.7873 118.559 37.5387C118.132 37.2828 117.643 37.1549 117.093 37.1549C116.543 37.1549 116.048 37.2828 115.606 37.5387C115.172 37.7873 114.828 38.1382 114.575 38.5915C114.329 39.0448 114.206 39.5529 114.206 40.1159C114.206 40.6861 114.333 41.1979 114.586 41.6512C114.846 42.1045 115.212 42.4591 115.682 42.715C116.153 42.9636 116.692 43.0878 117.3 43.0878C117.777 43.0878 118.208 43.0074 118.591 42.8466C118.982 42.6857 119.308 42.4518 119.568 42.1447L118.993 41.4648C118.573 41.9327 118.02 42.1666 117.332 42.1666C116.768 42.1666 116.294 42.0131 115.91 41.706C115.534 41.3917 115.313 40.9786 115.248 40.4668H119.916ZM115.834 38.5038C116.174 38.1967 116.594 38.0432 117.093 38.0432C117.593 38.0432 118.009 38.2004 118.342 38.5147C118.682 38.8218 118.881 39.2203 118.939 39.7101H115.248C115.306 39.213 115.501 38.8108 115.834 38.5038Z" fill="black"/>
<path d="M122.787 43.022H123.851L126.369 37.2097H125.349L123.33 41.8705L121.354 37.2097H120.269L122.787 43.022Z" fill="black"/>
<path fill-rule="evenodd" clip-rule="evenodd" d="M132.361 40.4668C132.375 40.3352 132.382 40.2292 132.382 40.1488C132.382 39.5639 132.259 39.0448 132.013 38.5915C131.775 38.1382 131.438 37.7873 131.004 37.5387C130.577 37.2828 130.088 37.1549 129.538 37.1549C128.988 37.1549 128.493 37.2828 128.051 37.5387C127.617 37.7873 127.273 38.1382 127.02 38.5915C126.774 39.0448 126.651 39.5529 126.651 40.1159C126.651 40.6861 126.778 41.1979 127.031 41.6512C127.291 42.1045 127.657 42.4591 128.127 42.715C128.598 42.9636 129.137 43.0878 129.745 43.0878C130.222 43.0878 130.653 43.0074 131.036 42.8466C131.427 42.6857 131.753 42.4518 132.013 42.1447L131.438 41.4648C131.018 41.9327 130.465 42.1666 129.777 42.1666C129.213 42.1666 128.739 42.0131 128.355 41.706C127.979 41.3917 127.758 40.9786 127.693 40.4668H132.361ZM128.279 38.5038C128.619 38.1967 129.039 38.0432 129.538 38.0432C130.038 38.0432 130.454 38.2004 130.787 38.5147C131.127 38.8218 131.326 39.2203 131.384 39.7101H127.693C127.751 39.213 127.946 38.8108 128.279 38.5038Z" fill="black"/>
<path d="M135.631 37.4181C135.277 37.5935 135.009 37.8494 134.828 38.1857V37.2097H133.829V43.022H134.872V40.1268C134.872 39.4981 135.031 39.0156 135.349 38.6792C135.675 38.3356 136.12 38.1638 136.684 38.1638C136.786 38.1638 136.865 38.1675 136.923 38.1748V37.1549C136.417 37.1549 135.986 37.2426 135.631 37.4181Z" fill="black"/>
<path d="M140.742 43.6033L143.532 37.2097H142.511L140.525 41.8596L138.517 37.2097H137.431L139.971 43.0111L139.787 43.4168C139.649 43.7458 139.494 43.9761 139.32 44.1077C139.154 44.2467 138.944 44.3161 138.69 44.3161C138.3 44.3161 137.956 44.1735 137.659 43.8884L137.214 44.678C137.388 44.8535 137.605 44.9851 137.865 45.0728C138.133 45.1678 138.408 45.2154 138.69 45.2154C139.154 45.2154 139.548 45.0947 139.874 44.8535C140.206 44.6122 140.496 44.1955 140.742 43.6033Z" fill="black"/>
<path fill-rule="evenodd" clip-rule="evenodd" d="M151.968 37.5277C151.526 37.2792 151.027 37.1549 150.47 37.1549C150.043 37.1549 149.652 37.239 149.297 37.4071C148.943 37.568 148.65 37.8092 148.418 38.1309V37.2097H147.419V45.1496H148.461V42.1447C148.7 42.4518 148.99 42.6857 149.33 42.8466C149.677 43.0074 150.057 43.0878 150.47 43.0878C151.027 43.0878 151.526 42.9636 151.968 42.715C152.409 42.4664 152.753 42.1191 152.999 41.6731C153.252 41.2199 153.379 40.7008 153.379 40.1159C153.379 39.531 153.252 39.0156 152.999 38.5696C152.753 38.1236 152.409 37.7763 151.968 37.5277ZM151.371 41.9144C151.081 42.0826 150.752 42.1666 150.383 42.1666C150.021 42.1666 149.692 42.0826 149.395 41.9144C149.098 41.7389 148.867 41.4977 148.7 41.1906C148.534 40.8762 148.451 40.518 148.451 40.1159C148.451 39.7138 148.534 39.3592 148.7 39.0521C148.874 38.745 149.106 38.5074 149.395 38.3393C149.692 38.1638 150.021 38.0761 150.383 38.0761C150.752 38.0761 151.081 38.1602 151.371 38.3283C151.667 38.4965 151.899 38.7377 152.065 39.0521C152.239 39.3592 152.326 39.7138 152.326 40.1159C152.326 40.518 152.239 40.8762 152.065 41.1906C151.899 41.4977 151.667 41.7389 151.371 41.9144Z" fill="black"/>
<path d="M154.829 35.8937C154.967 36.0253 155.137 36.0911 155.34 36.0911C155.542 36.0911 155.709 36.0253 155.839 35.8937C155.976 35.7548 156.045 35.5867 156.045 35.3892C156.045 35.1992 155.976 35.042 155.839 34.9177C155.709 34.7861 155.542 34.7203 155.34 34.7203C155.137 34.7203 154.967 34.7897 154.829 34.9286C154.699 35.0602 154.634 35.2211 154.634 35.4112C154.634 35.6013 154.699 35.7621 154.829 35.8937Z" fill="black"/>
<path fill-rule="evenodd" clip-rule="evenodd" d="M163.354 42.2324V37.2097H162.366V38.109C162.127 37.7946 161.82 37.557 161.443 37.3961C161.074 37.2353 160.673 37.1549 160.238 37.1549C159.688 37.1549 159.189 37.2719 158.74 37.5058C158.299 37.7398 157.952 38.0724 157.698 38.5038C157.445 38.9278 157.318 39.414 157.318 39.9623C157.318 40.5107 157.445 41.0005 157.698 41.4319C157.952 41.8559 158.299 42.1886 158.74 42.4298C159.189 42.6638 159.688 42.7808 160.238 42.7808C160.658 42.7808 161.045 42.7077 161.4 42.5614C161.762 42.4079 162.066 42.1813 162.312 41.8815V42.3421C162.312 43.0001 162.149 43.49 161.823 43.8116C161.505 44.1333 161.009 44.2942 160.336 44.2942C159.916 44.2942 159.508 44.2247 159.11 44.0858C158.719 43.9542 158.389 43.7714 158.122 43.5375L157.622 44.349C157.926 44.6268 158.324 44.8389 158.816 44.9851C159.309 45.1386 159.826 45.2154 160.369 45.2154C161.36 45.2154 162.106 44.9705 162.605 44.4806C163.104 43.9981 163.354 43.2487 163.354 42.2324ZM161.367 41.6183C161.071 41.7792 160.734 41.8596 160.358 41.8596C159.974 41.8596 159.631 41.7792 159.327 41.6183C159.03 41.4575 158.795 41.2345 158.621 40.9493C158.455 40.6569 158.371 40.3279 158.371 39.9623C158.371 39.3994 158.556 38.9461 158.925 38.6025C159.294 38.2515 159.772 38.0761 160.358 38.0761C160.937 38.0761 161.411 38.2515 161.78 38.6025C162.149 38.9461 162.333 39.3994 162.333 39.9623C162.333 40.3279 162.247 40.6569 162.073 40.9493C161.906 41.2345 161.671 41.4575 161.367 41.6183Z" fill="black"/>
<path d="M155.861 37.2097H154.819V43.022H155.861V37.2097Z" fill="black"/>
<path d="M166.387 34.8848H165.345V43.022H166.387V34.8848Z" fill="black"/>
<path fill-rule="evenodd" clip-rule="evenodd" d="M173.555 40.4668C173.569 40.3352 173.576 40.2292 173.576 40.1488C173.576 39.5639 173.453 39.0448 173.207 38.5915C172.968 38.1382 172.632 37.7873 172.198 37.5387C171.771 37.2828 171.282 37.1549 170.732 37.1549C170.182 37.1549 169.687 37.2828 169.245 37.5387C168.811 37.7873 168.467 38.1382 168.214 38.5915C167.968 39.0448 167.845 39.5529 167.845 40.1159C167.845 40.6861 167.971 41.1979 168.225 41.6512C168.485 42.1045 168.851 42.4591 169.321 42.715C169.791 42.9636 170.331 43.0878 170.938 43.0878C171.416 43.0878 171.847 43.0074 172.23 42.8466C172.621 42.6857 172.947 42.4518 173.207 42.1447L172.632 41.4648C172.212 41.9327 171.659 42.1666 170.971 42.1666C170.407 42.1666 169.933 42.0131 169.549 41.706C169.173 41.3917 168.952 40.9786 168.887 40.4668H173.555ZM169.473 38.5038C169.813 38.1967 170.233 38.0432 170.732 38.0432C171.232 38.0432 171.648 38.2004 171.981 38.5147C172.321 38.8218 172.52 39.2203 172.578 39.7101H168.887C168.945 39.213 169.14 38.8108 169.473 38.5038Z" fill="black"/>
<path d="M177.694 42.9891C177.918 42.916 178.106 42.8137 178.258 42.6821L177.932 41.9254C177.708 42.1082 177.437 42.1995 177.118 42.1995C176.829 42.1995 176.604 42.1155 176.445 41.9473C176.293 41.7792 176.217 41.5379 176.217 41.2235V38.0761H177.867V37.2097H176.217V35.9376H175.175V37.2097H174.198V38.0761H175.175V41.2674C175.175 41.8523 175.334 42.3019 175.653 42.6163C175.971 42.9307 176.42 43.0878 176.999 43.0878C177.238 43.0878 177.469 43.0549 177.694 42.9891Z" fill="black"/>
<path d="M191.345 37.7909C190.925 37.3669 190.354 37.1549 189.63 37.1549C189.145 37.1549 188.707 37.2499 188.316 37.44C187.933 37.6301 187.633 37.8933 187.416 38.2296C187.227 37.8787 186.96 37.6118 186.612 37.429C186.265 37.2463 185.867 37.1549 185.418 37.1549C184.984 37.1549 184.597 37.2353 184.257 37.3961C183.917 37.5497 183.642 37.7763 183.432 38.0761V37.2097H182.433V43.022H183.475V40.0281C183.475 39.4067 183.631 38.9315 183.942 38.6025C184.253 38.2662 184.673 38.098 185.201 38.098C185.679 38.098 186.044 38.2406 186.297 38.5257C186.558 38.8108 186.688 39.2349 186.688 39.7978V43.022H187.73V40.0281C187.73 39.4067 187.886 38.9315 188.197 38.6025C188.508 38.2662 188.928 38.098 189.456 38.098C189.934 38.098 190.299 38.2406 190.553 38.5257C190.813 38.8108 190.943 39.2349 190.943 39.7978V43.022H191.985V39.6772C191.985 38.8437 191.772 38.215 191.345 37.7909Z" fill="black"/>
<path fill-rule="evenodd" clip-rule="evenodd" d="M197.822 37.7471C197.402 37.3523 196.794 37.1549 195.998 37.1549C195.535 37.1549 195.097 37.2207 194.684 37.3523C194.272 37.4766 193.917 37.6593 193.621 37.9006L194.055 38.6902C194.279 38.5001 194.554 38.3502 194.88 38.2406C195.205 38.1236 195.538 38.0651 195.879 38.0651C196.385 38.0651 196.769 38.1857 197.029 38.427C197.29 38.6683 197.42 39.0156 197.42 39.4688V39.6772H195.77C194.967 39.6772 194.381 39.8344 194.011 40.1488C193.642 40.4558 193.458 40.8653 193.458 41.377C193.458 41.8888 193.65 42.3019 194.033 42.6163C194.424 42.9307 194.941 43.0878 195.585 43.0878C196.027 43.0878 196.407 43.0184 196.725 42.8795C197.051 42.7333 197.301 42.5249 197.474 42.2544V43.022H198.462V39.5127C198.462 38.7304 198.249 38.1419 197.822 37.7471ZM196.79 42.0131C196.501 42.1886 196.157 42.2763 195.759 42.2763C195.361 42.2763 195.05 42.1922 194.826 42.0241C194.601 41.8559 194.489 41.6256 194.489 41.3332C194.489 40.7337 194.93 40.4339 195.813 40.4339H197.42V41.2454C197.29 41.5744 197.08 41.8303 196.79 42.0131Z" fill="black"/>
<path d="M203.061 42.9891C203.285 42.916 203.473 42.8137 203.625 42.6821L203.3 41.9254C203.075 42.1082 202.804 42.1995 202.485 42.1995C202.196 42.1995 201.972 42.1155 201.812 41.9473C201.66 41.7792 201.584 41.5379 201.584 41.2235V38.0761H203.234V37.2097H201.584V35.9376H200.542V37.2097H199.565V38.0761H200.542V41.2674C200.542 41.8523 200.702 42.3019 201.02 42.6163C201.338 42.9307 201.787 43.0878 202.366 43.0878C202.605 43.0878 202.836 43.0549 203.061 42.9891Z" fill="black"/>
<path d="M207.418 42.9891C207.642 42.916 207.83 42.8137 207.982 42.6821L207.656 41.9254C207.432 42.1082 207.161 42.1995 206.842 42.1995C206.553 42.1995 206.328 42.1155 206.169 41.9473C206.017 41.7792 205.941 41.5379 205.941 41.2235V38.0761H207.591V37.2097H205.941V35.9376H204.899V37.2097H203.922V38.0761H204.899V41.2674C204.899 41.8523 205.058 42.3019 205.377 42.6163C205.695 42.9307 206.144 43.0878 206.723 43.0878C206.962 43.0878 207.193 43.0549 207.418 42.9891Z" fill="black"/>
<path fill-rule="evenodd" clip-rule="evenodd" d="M214.229 40.4668C214.243 40.3352 214.251 40.2292 214.251 40.1488C214.251 39.5639 214.128 39.0448 213.882 38.5915C213.643 38.1382 213.306 37.7873 212.872 37.5387C212.445 37.2828 211.957 37.1549 211.407 37.1549C210.857 37.1549 210.361 37.2828 209.919 37.5387C209.485 37.7873 209.142 38.1382 208.888 38.5915C208.642 39.0448 208.519 39.5529 208.519 40.1159C208.519 40.6861 208.646 41.1979 208.899 41.6512C209.16 42.1045 209.525 42.4591 209.995 42.715C210.466 42.9636 211.005 43.0878 211.613 43.0878C212.09 43.0878 212.521 43.0074 212.905 42.8466C213.295 42.6857 213.621 42.4518 213.882 42.1447L213.306 41.4648C212.887 41.9327 212.333 42.1666 211.645 42.1666C211.081 42.1666 210.607 42.0131 210.223 41.706C209.847 41.3917 209.626 40.9786 209.561 40.4668H214.229ZM210.147 38.5038C210.488 38.1967 210.907 38.0432 211.407 38.0432C211.906 38.0432 212.322 38.2004 212.655 38.5147C212.995 38.8218 213.194 39.2203 213.252 39.7101H209.561C209.619 39.213 209.815 38.8108 210.147 38.5038Z" fill="black"/>
<path d="M217.5 37.4181C217.145 37.5935 216.877 37.8494 216.696 38.1857V37.2097H215.698V43.022H216.74V40.1268C216.74 39.4981 216.899 39.0156 217.217 38.6792C217.543 38.3356 217.988 38.1638 218.553 38.1638C218.654 38.1638 218.733 38.1675 218.791 38.1748V37.1549C218.285 37.1549 217.854 37.2426 217.5 37.4181Z" fill="black"/>
<path d="M220.411 42.9014C220.845 43.0257 221.298 43.0878 221.768 43.0878C222.535 43.0878 223.139 42.9343 223.581 42.6272C224.03 42.3129 224.254 41.8925 224.254 41.3661C224.254 40.9713 224.153 40.6642 223.95 40.4449C223.747 40.2255 223.501 40.072 223.212 39.9843C222.93 39.8892 222.557 39.8015 222.094 39.7211C221.746 39.6553 221.475 39.5968 221.28 39.5456C221.091 39.4944 220.932 39.414 220.802 39.3043C220.672 39.1947 220.607 39.0448 220.607 38.8547C220.607 38.6134 220.722 38.4197 220.954 38.2735C221.186 38.1273 221.522 38.0541 221.963 38.0541C222.6 38.0541 223.154 38.2077 223.624 38.5147L224.069 37.6813C223.823 37.5204 223.508 37.3925 223.125 37.2974C222.741 37.2024 222.358 37.1549 221.974 37.1549C221.243 37.1549 220.661 37.3157 220.227 37.6374C219.792 37.9518 219.575 38.3722 219.575 38.8986C219.575 39.308 219.68 39.626 219.89 39.8527C220.1 40.0793 220.35 40.2402 220.639 40.3352C220.936 40.4303 221.316 40.5143 221.779 40.5874C222.119 40.6459 222.38 40.7008 222.56 40.7519C222.749 40.7958 222.904 40.8689 223.027 40.9713C223.15 41.0736 223.212 41.2125 223.212 41.388C223.212 41.9144 222.756 42.1776 221.844 42.1776C221.475 42.1776 221.11 42.1228 220.748 42.0131C220.386 41.9034 220.078 41.7572 219.825 41.5744L219.391 42.4079C219.637 42.6053 219.977 42.7698 220.411 42.9014Z" fill="black"/>
</svg>
