<svg width="211" height="50" viewBox="0 0 211 50" fill="none" xmlns="http://www.w3.org/2000/svg">
<path d="M78.7988 27.508V34.0743H79.8472H80.8956L80.8736 27.5301L80.8405 20.9969L79.8252 20.9638L78.7988 20.9307V27.508Z" fill="black"/>
<path d="M97.1191 22.1559V23.3698H99.1608H101.202V28.7222V34.0746H102.251H103.299V28.7222V23.3698H105.341H107.382V22.1559V20.942H102.251H97.1191V22.1559Z" fill="black"/>
<path d="M119.156 21.0965C118.913 21.1848 118.604 21.3613 118.461 21.5048C117.942 21.9904 117.92 22.2111 117.92 27.5635C117.92 32.5075 117.92 32.5958 118.163 33.1145C118.35 33.5338 118.505 33.6883 118.88 33.8539C119.321 34.0525 119.619 34.0746 122.72 34.0746C127.08 34.0746 127.168 34.0415 127.466 32.2978C127.532 31.9116 127.576 31.106 127.554 30.499L127.521 29.4064L126.528 29.1085L125.535 28.7995L125.502 30.2231L125.468 31.6467H122.72H119.962V27.5083V23.3698H122.72H125.479V24.5948C125.479 25.6984 125.502 25.8088 125.678 25.7536C125.777 25.7315 126.252 25.6212 126.726 25.5108L127.576 25.3122V24.1975C127.576 22.9946 127.356 21.9131 127.047 21.571C126.55 21.0192 126.406 20.9971 122.886 20.9751C120.271 20.953 119.487 20.9751 119.156 21.0965Z" fill="black"/>
<path d="M135.07 23.5575C135.004 23.723 134.055 26.0737 132.962 28.7774C131.87 31.4812 130.943 33.7767 130.91 33.876C130.866 34.0526 130.954 34.0746 131.693 34.0746C132.223 34.0746 132.554 34.0305 132.62 33.9312C132.687 33.8649 132.918 33.3132 133.139 32.7172L133.558 31.6467H135.964H138.37L138.789 32.7172C139.01 33.3132 139.242 33.8649 139.308 33.9312C139.418 34.0857 141.261 34.1408 141.261 33.9863C141.261 33.9422 140.279 31.5254 139.087 28.6119L136.902 23.3147L136.041 23.2816C135.203 23.2485 135.192 23.2485 135.07 23.5575ZM136.836 27.5525C137.266 28.6781 137.597 29.6051 137.575 29.6272C137.553 29.6493 136.825 29.6493 135.942 29.6382L134.342 29.6051L135.125 27.4862C135.556 26.3165 135.942 25.4005 135.986 25.4446C136.03 25.4888 136.406 26.4378 136.836 27.5525Z" fill="black"/>
<path d="M155.708 23.5575C155.642 23.723 154.693 26.0737 153.6 28.7774C152.508 31.4812 151.581 33.7767 151.547 33.876C151.503 34.0526 151.592 34.0746 152.331 34.0746C152.861 34.0746 153.192 34.0305 153.258 33.9312C153.324 33.8649 153.556 33.3132 153.777 32.7172L154.196 31.6467H156.602H159.008L159.427 32.7172C159.648 33.3132 159.879 33.8649 159.946 33.9312C160.056 34.0857 161.899 34.1408 161.899 33.9863C161.899 33.9422 160.917 31.5254 159.725 28.6119L157.54 23.3147L156.679 23.2816C155.84 23.2485 155.829 23.2485 155.708 23.5575ZM157.474 27.5525C157.904 28.6781 158.235 29.6051 158.213 29.6272C158.191 29.6493 157.463 29.6493 156.58 29.6382L154.98 29.6051L155.763 27.4862C156.194 26.3165 156.58 25.4005 156.624 25.4446C156.668 25.4888 157.043 26.4378 157.474 27.5525Z" fill="black"/>
<path d="M86.0816 23.5574C85.8719 23.6677 85.6071 23.9326 85.4746 24.1422C85.2649 24.5175 85.2539 24.7051 85.2539 28.7221C85.2539 33.302 85.2539 33.313 85.894 33.7875C86.192 34.0083 86.3575 34.0193 89.8117 34.0524C93.8618 34.0855 93.9612 34.0634 94.4136 33.302C94.6233 32.9378 94.6343 32.706 94.6564 28.9428C94.6895 25.4003 94.6675 24.9148 94.4909 24.4292C94.1377 23.4139 94.215 23.4249 90.0766 23.3918C86.7989 23.3697 86.4347 23.3808 86.0816 23.5574ZM92.9238 28.6669V31.9777H89.9441H86.9645V28.6669V25.3562H89.9441H92.9238V28.6669Z" fill="black"/>
<path d="M141.924 24.3631V25.3563H143.69H145.455V29.7154V34.0746H146.338H147.221V29.7154V25.3563H148.987H150.752V24.3631V23.3698H146.338H141.924V24.3631Z" fill="black"/>
<path d="M164.547 28.7222V34.0746H168.299H172.051V33.0814V32.0881H169.182H166.313V27.729V23.3698H165.43H164.547V28.7222Z" fill="black"/>
<path d="M171.721 23.3919C171.721 23.414 172.615 24.7383 173.707 26.3495L175.694 29.274V31.6688V34.0746H176.576H177.459V31.6357V29.1968L178.265 28.027C178.717 27.3758 179.611 26.0626 180.262 25.1025L181.443 23.3698H180.384H179.324L178.011 25.3563L176.698 27.3538L175.672 25.7757C175.098 24.9038 174.524 24.0099 174.38 23.7782L174.127 23.3698H172.924C172.261 23.3698 171.721 23.3809 171.721 23.3919Z" fill="black"/>
<path d="M185.019 23.5355C184.103 23.8665 183.937 24.3963 183.992 26.8352C184.026 28.3581 184.059 28.6671 184.246 28.9651C184.632 29.6162 184.864 29.6603 187.877 29.6603H190.592V30.8743V32.0882H187.888H185.184V31.4702C185.184 30.8743 185.173 30.8522 184.941 30.9184C184.798 30.9626 184.445 31.0509 184.147 31.1171L183.617 31.2495L183.661 32.0772C183.717 33.0263 183.882 33.4567 184.335 33.7877C184.632 34.0084 184.798 34.0195 187.811 34.0526C191.431 34.0857 191.563 34.0526 191.971 33.247C192.17 32.8607 192.192 32.5848 192.192 30.8743C192.181 28.645 192.082 28.2036 191.464 27.8394C191.122 27.6408 190.857 27.6187 188.307 27.5856L185.515 27.5415V26.4489V25.3564H188.054H190.592V25.9192C190.592 26.3827 190.625 26.471 190.757 26.4158C190.857 26.3827 191.199 26.2723 191.53 26.173L192.137 26.0075V25.4888C192.126 24.6501 191.817 23.9107 191.364 23.6458C191.011 23.4472 190.768 23.4251 188.219 23.403C186.023 23.381 185.372 23.403 185.019 23.5355Z" fill="black"/>
<path d="M195.005 24.3631V25.3563H196.771H198.536V29.7154V34.0746H199.419H200.302V29.7154V25.3563H202.068H203.834V24.3631V23.3698H199.419H195.005V24.3631Z" fill="black"/>
<path d="M56.2599 0.0964693C52.9269 0.14755 50.8135 0.19863 50.673 0.243325C50.5453 0.281635 50.3665 0.390183 50.2771 0.485959C50.0472 0.728591 43.8729 11.7875 43.8218 12.0493C43.7963 12.1706 43.8154 12.3558 43.8665 12.4963C43.9687 12.7836 50.3665 23.5233 50.5644 23.7404C50.8837 24.0852 50.5836 24.0724 57.6008 23.9702C64.535 23.8681 64.3306 23.8808 64.6307 23.5488C64.7393 23.4275 70.4986 13.1858 70.9392 12.3239C71.003 12.2089 71.0541 11.9855 71.0541 11.8258C71.0541 11.5704 70.7795 11.0915 67.753 6.00904C65.9397 2.96336 64.3881 0.402952 64.3179 0.319946C64.0561 0.0326186 63.8454 -0.00569174 62.6961 0.000693324C62.1086 0.00707839 59.2098 0.0517738 56.2599 0.0964693ZM66.144 6.85825L69.1322 11.8641L66.2845 16.9658L63.4303 22.0675L60.838 22.1058C59.4078 22.1313 56.7771 22.1696 54.9829 22.1888L51.7265 22.2335L50.3601 19.9412C49.6131 18.6834 48.2658 16.4231 47.3719 14.9226L45.7437 12.1898L48.5978 7.08173L51.452 1.97368L52.6779 1.96729C53.3483 1.96091 55.0787 1.93537 56.5153 1.91621C57.9583 1.89067 60.0399 1.86513 61.1445 1.85875L63.1622 1.84598L66.144 6.85825Z" fill="black"/>
<path d="M35.0625 13.1283C31.1293 13.1794 28.9009 13.2368 28.7285 13.2815C28.5816 13.3198 28.3965 13.4284 28.3071 13.5241C28.0836 13.7668 21.9348 24.8129 21.8709 25.0747C21.839 25.2216 21.8518 25.3812 21.9028 25.5281C22.0178 25.8601 28.505 36.7211 28.6646 36.8552C28.7412 36.919 28.8753 37.002 28.9647 37.0339C29.1499 37.1106 41.058 36.9893 41.8753 36.8999C42.1946 36.8679 42.4244 36.8041 42.5458 36.7211C42.6671 36.6317 43.6887 34.863 45.9107 30.8979C48.8734 25.5919 49.0904 25.1769 49.0904 24.8896C49.0904 24.6022 48.918 24.2894 45.7894 19.0408C43.9696 15.9952 42.4181 13.422 42.3287 13.3326C42.1435 13.1347 41.7923 13.0133 41.4092 13.0261C41.256 13.0325 38.4018 13.0772 35.0625 13.1283ZM44.1867 19.8964C47.1238 24.8257 47.1749 24.9215 47.0791 25.0811C47.0281 25.1705 45.7574 27.4436 44.257 30.1317C42.7565 32.8198 41.5114 35.0418 41.4858 35.0673C41.4028 35.1504 29.8395 35.2972 29.7565 35.2142C29.6479 35.1057 23.8439 25.3429 23.8311 25.2535C23.8311 25.2088 25.1018 22.891 26.6597 20.0944L29.5011 15.0183L34.0345 14.9544C36.531 14.9225 39.1617 14.8905 39.8832 14.8842L41.1921 14.8714L44.1867 19.8964Z" fill="black"/>
<path d="M57.5047 25.6494C53.4565 25.7005 51.0557 25.758 50.8834 25.7963C50.7365 25.8346 50.5449 25.9431 50.4556 26.0389C50.2321 26.2751 44.0449 37.3596 44.0003 37.6214C43.9747 37.7427 44.0003 37.9343 44.0513 38.0811C44.1663 38.4195 50.5705 49.1401 50.7812 49.3635C50.8897 49.4785 51.043 49.5487 51.2345 49.5806C51.6879 49.6509 64.0047 49.4848 64.3175 49.4018C64.4644 49.3635 64.6623 49.2486 64.7709 49.1337C64.873 49.0251 66.3671 46.42 68.0783 43.3488C71.1432 37.864 71.2006 37.7555 71.2006 37.4107C71.2006 37.0595 71.1879 37.034 67.8868 31.5045C66.067 28.4461 64.4963 25.8857 64.4069 25.809C64.3175 25.7388 64.1579 25.6494 64.0494 25.6175C63.9408 25.5919 61.0548 25.6047 57.5047 25.6494ZM66.3224 32.4303C67.9634 35.1823 69.2979 37.449 69.2851 37.4745C69.2723 37.4937 67.9953 39.7732 66.4501 42.5443C64.8986 45.3154 63.6216 47.5949 63.6088 47.614C63.5577 47.6587 51.9177 47.812 51.8794 47.7673C51.8603 47.7417 50.513 45.4878 48.8912 42.7614C46.9693 39.5305 45.9477 37.7619 45.9732 37.6916C46.0115 37.5895 51.5602 27.6352 51.6112 27.5777C51.6432 27.5458 60.7866 27.3989 62.3509 27.4117L63.3342 27.4181L66.3224 32.4303Z" fill="black"/>
<path d="M11.5008 25.8656C8.79357 25.8975 7.05683 25.9486 6.89082 25.9869C6.74396 26.0252 6.5588 26.1338 6.4694 26.2295C6.27785 26.4339 0.180118 37.3332 0.052417 37.6971C-0.00504855 37.8695 -0.0178187 38.0164 0.0268768 38.176C0.0971124 38.4633 6.56518 49.3179 6.8142 49.5733L7.00575 49.7649L11.1369 49.7457C13.41 49.733 16.4173 49.7074 17.8284 49.6819L20.3888 49.6372L20.6251 49.4776C20.8358 49.3371 21.27 48.5964 24.0347 43.6672L27.2017 38.0164L27.2081 37.6333V37.2502L23.8879 31.6824C21.7872 28.1642 20.4974 26.0635 20.3761 25.9678L20.1909 25.8209L18.0136 25.8145C16.8196 25.8145 13.8888 25.8337 11.5008 25.8656ZM22.3299 32.6146C24.9414 36.9884 25.3053 37.6397 25.2479 37.7546C24.9733 38.2782 19.6801 47.7344 19.6354 47.7791C19.5907 47.8302 7.9699 48.0409 7.91881 47.9898C7.8805 47.9579 1.99986 38.0738 1.97432 38.0036C1.94878 37.9334 7.44632 28.0174 7.61233 27.8386C7.68257 27.762 8.53817 27.7364 12.7587 27.6726C15.5426 27.6279 18.1668 27.596 18.5883 27.6023L19.3481 27.6087L22.3299 32.6146Z" fill="black"/>
</svg>
