<svg id="svg" version="1.1" xmlns="http://www.w3.org/2000/svg" xmlns:xlink="http://www.w3.org/1999/xlink" width="400" height="66.4198234121333" viewBox="0, 0, 400,66.4198234121333"><g id="svgg"><path id="path0" d="M151.833 4.840 C 149.200 5.173,147.796 6.212,147.199 8.269 C 146.787 9.690,146.926 59.242,147.345 60.108 C 148.545 62.586,156.289 62.731,157.617 60.299 C 157.899 59.782,157.922 58.648,158.000 41.104 L 158.083 22.459 159.930 24.688 C 162.239 27.476,169.175 35.841,172.833 40.250 C 180.768 49.813,184.105 53.841,186.155 56.330 C 190.332 61.402,191.665 62.184,195.749 61.958 C 198.917 61.783,199.961 61.074,203.704 56.551 C 205.196 54.748,207.133 52.405,208.010 51.345 C 208.886 50.284,210.877 47.879,212.435 46.000 C 213.993 44.121,217.622 39.733,220.500 36.250 C 223.377 32.767,227.086 28.283,228.741 26.287 L 231.750 22.658 231.833 41.037 L 231.917 59.417 232.298 60.132 C 233.465 62.317,240.280 62.753,242.264 60.770 C 243.201 59.832,243.178 60.562,243.129 33.497 L 243.083 8.583 242.700 7.750 C 241.748 5.681,240.020 4.800,236.917 4.800 C 232.997 4.800,232.442 5.195,226.683 12.083 C 215.575 25.369,209.309 32.857,207.090 35.500 C 205.743 37.104,202.464 41.023,199.804 44.208 C 197.143 47.394,194.917 50.000,194.857 50.000 C 194.738 50.000,193.979 49.101,187.745 41.583 C 185.464 38.833,181.791 34.408,179.582 31.750 C 177.373 29.092,172.800 23.579,169.419 19.500 C 158.080 5.819,158.480 6.265,156.946 5.593 C 155.408 4.918,153.468 4.632,151.833 4.840 " stroke="none" fill="#000000" fill-rule="evenodd"></path><path id="path1" d="M386.250 4.561 C 381.338 5.822,381.042 12.822,385.833 14.420 C 387.825 15.084,392.270 14.763,393.772 13.847 C 396.893 11.944,396.138 5.865,392.641 4.734 C 391.482 4.360,387.458 4.250,386.250 4.561 M6.250 4.982 C 5.443 5.354,4.935 5.882,4.591 6.705 C 4.362 7.254,4.333 10.229,4.333 33.293 L 4.333 59.263 4.708 60.005 C 5.546 61.663,8.748 62.455,12.105 61.833 C 15.543 61.196,15.483 61.399,15.493 50.375 C 15.497 45.585,15.541 41.667,15.591 41.667 C 15.684 41.667,19.546 43.318,26.500 46.332 C 28.654 47.266,31.992 48.707,33.917 49.534 C 35.842 50.361,37.749 51.187,38.155 51.370 C 38.561 51.553,39.911 52.136,41.155 52.667 C 42.399 53.197,45.179 54.396,47.333 55.332 C 49.487 56.268,52.825 57.708,54.750 58.532 C 56.675 59.356,58.800 60.285,59.471 60.597 C 63.323 62.387,69.324 62.502,71.238 60.821 C 72.603 59.623,72.717 56.779,71.460 55.255 C 70.806 54.461,70.796 54.456,62.833 51.255 C 59.029 49.726,53.517 47.510,50.583 46.331 C 45.166 44.153,39.423 41.903,38.667 41.661 C 38.061 41.468,34.941 40.330,34.898 40.287 C 34.878 40.266,39.899 40.250,46.056 40.250 C 55.906 40.250,57.465 40.215,59.040 39.959 C 68.003 38.504,73.090 35.438,74.768 30.481 C 75.337 28.799,75.391 16.540,74.838 14.683 C 73.293 9.493,67.399 6.090,57.922 4.914 C 54.530 4.493,7.174 4.555,6.250 4.982 M57.333 14.221 C 61.510 14.936,63.463 15.940,63.969 17.630 C 64.275 18.651,64.240 26.950,63.927 27.700 C 63.227 29.375,61.066 30.370,56.927 30.923 C 55.415 31.125,51.732 31.167,35.302 31.167 L 15.500 31.167 15.500 22.487 L 15.500 13.808 35.625 13.879 C 53.235 13.941,55.948 13.984,57.333 14.221 M96.167 17.255 C 86.543 18.216,81.387 21.204,79.638 26.833 L 79.250 28.083 79.250 39.167 C 79.250 51.331,79.244 51.252,80.263 53.417 C 82.400 57.959,87.398 60.527,95.838 61.417 C 99.146 61.766,111.582 61.776,112.409 61.431 C 113.764 60.864,114.375 58.052,113.762 55.197 C 113.298 53.032,113.360 53.047,104.667 52.947 C 96.345 52.852,94.644 52.588,92.216 51.019 C 90.230 49.735,89.833 48.929,89.833 46.175 L 89.833 44.173 114.708 44.128 L 139.583 44.083 140.306 43.698 C 141.701 42.953,141.742 42.731,141.799 35.562 C 141.855 28.505,141.722 27.317,140.612 24.999 C 138.351 20.278,133.871 18.065,124.917 17.250 C 121.414 16.931,99.373 16.934,96.167 17.255 M266.417 17.187 C 256.791 18.091,251.545 20.923,249.624 26.254 C 248.890 28.288,248.833 29.233,248.833 39.333 C 248.833 49.379,248.893 50.385,249.603 52.355 C 251.500 57.619,256.512 60.468,265.551 61.422 C 268.998 61.786,290.425 61.775,293.937 61.407 C 303.587 60.398,308.879 57.025,310.268 51.000 C 310.639 49.393,310.823 31.988,310.498 29.333 C 309.589 21.922,304.445 18.300,293.333 17.248 C 290.435 16.974,269.199 16.926,266.417 17.187 M333.583 17.188 C 323.374 18.157,318.347 21.041,316.475 27.004 L 316.083 28.250 316.083 44.000 L 316.083 59.750 316.475 60.380 C 317.854 62.598,324.813 62.598,326.192 60.379 L 326.583 59.750 326.667 44.917 L 326.750 30.083 327.129 29.474 C 328.224 27.713,330.278 26.646,333.667 26.077 C 335.738 25.729,357.929 25.729,360.000 26.077 C 363.530 26.670,365.786 27.915,366.647 29.745 C 366.998 30.492,367.000 30.572,367.000 44.963 L 367.000 59.429 367.375 60.172 C 368.779 62.954,376.604 62.591,377.469 59.705 C 377.788 58.639,377.748 29.573,377.425 28.039 C 376.050 21.503,370.954 18.269,360.417 17.247 C 357.599 16.973,336.338 16.927,333.583 17.188 M386.167 17.561 C 384.938 17.966,384.446 18.397,384.054 19.411 C 383.909 19.787,383.855 24.976,383.846 39.673 L 383.833 59.429 384.208 60.172 C 385.612 62.954,393.437 62.591,394.302 59.705 C 394.681 58.440,394.569 20.085,394.184 19.237 C 393.516 17.767,392.306 17.325,389.011 17.351 C 387.768 17.360,386.488 17.455,386.167 17.561 M124.417 26.079 C 129.812 26.959,131.167 28.383,131.167 33.173 L 131.167 35.667 110.500 35.667 L 89.833 35.667 89.837 33.042 C 89.843 28.579,91.420 26.959,96.605 26.088 C 98.628 25.748,122.341 25.741,124.417 26.079 M292.951 26.084 C 296.312 26.629,298.713 27.968,299.522 29.746 C 299.991 30.779,299.990 47.890,299.520 48.923 C 298.821 50.462,296.437 51.892,293.500 52.534 C 291.107 53.057,268.800 53.136,266.387 52.630 C 262.695 51.857,260.413 50.453,259.767 48.557 C 259.377 47.413,259.365 31.258,259.753 30.157 C 260.472 28.119,262.667 26.766,266.337 26.097 C 268.255 25.747,290.808 25.736,292.951 26.084 " stroke="none" fill="#000000" fill-rule="evenodd"></path></g></svg>