<svg width="209" height="49" viewBox="0 0 209 49" fill="none" xmlns="http://www.w3.org/2000/svg">
<path fill-rule="evenodd" clip-rule="evenodd" d="M157.039 13.5041C156.837 13.6793 156.6 13.9988 156.512 14.2142C156.424 14.4295 156.397 14.7971 156.453 15.0311C156.508 15.2649 156.773 15.6291 157.043 15.8402C157.354 16.0835 157.734 16.2242 158.08 16.2242C158.426 16.2242 158.805 16.0835 159.116 15.8402C159.386 15.6291 159.653 15.2562 159.711 15.0118C159.777 14.732 159.718 14.3754 159.552 14.0494C159.407 13.7647 159.104 13.4538 158.88 13.3587C158.656 13.2635 158.233 13.1857 157.94 13.1857C157.624 13.1857 157.257 13.3157 157.039 13.5041ZM130.359 13.7428C130.299 13.7984 130.25 18.6182 130.25 24.4534V35.0628H131.475H132.699V30.5722C132.699 28.0793 132.778 25.6056 132.877 25.0119C132.975 24.4235 133.153 23.7268 133.272 23.4635C133.391 23.2002 133.697 22.7996 133.952 22.5731C134.241 22.3169 134.817 22.0659 135.476 21.9089C136.24 21.7265 136.943 21.677 138.003 21.731C138.939 21.7787 139.693 21.9051 140.079 22.0792C140.452 22.2473 140.798 22.562 140.977 22.8965C141.238 23.385 141.273 24.034 141.314 29.2517L141.361 35.0628H142.588H143.815L143.762 29.0238C143.715 23.6815 143.675 22.9059 143.42 22.3017C143.261 21.926 142.904 21.4007 142.627 21.1343C142.349 20.868 141.747 20.4995 141.287 20.3153C140.815 20.126 139.92 19.9399 139.228 19.8874C138.554 19.8363 137.338 19.8392 136.525 19.894C135.712 19.949 134.767 20.1025 134.426 20.2353C134.084 20.368 133.556 20.7296 133.252 21.0388L132.699 21.6009V17.6211V13.6414H131.583C130.97 13.6414 130.419 13.687 130.359 13.7428ZM58.678 19.8135C58.4984 19.8463 57.9476 19.949 57.4538 20.0416C56.9601 20.1339 56.3357 20.3135 56.0664 20.4405C55.7971 20.5675 55.3014 20.9469 54.9647 21.2837L54.3526 21.8959V20.9522V20.0084L53.2509 20.0533L52.1491 20.0982L52.1069 27.5805L52.0644 35.0628H53.2902H54.5158L54.5171 30.4671C54.5178 27.9395 54.5935 25.427 54.6854 24.8838C54.7913 24.2578 55.0148 23.6739 55.2962 23.2886C55.5944 22.8803 56.0612 22.5314 56.7193 22.2252C57.6209 21.8055 57.8346 21.7694 59.4125 21.7694C60.8013 21.7694 61.2492 21.827 61.7746 22.0732C62.1343 22.2417 62.5703 22.6138 62.7539 22.9088C63.0681 23.4137 63.0874 23.7344 63.1331 29.2517L63.1811 35.0628H64.4942H65.8073L65.7332 29.1757C65.6832 25.2158 65.5946 23.0898 65.4626 22.6809C65.3545 22.3467 65.0666 21.7998 64.8227 21.4655C64.5681 21.1164 64.0347 20.6853 63.569 20.4522C63.064 20.1996 62.2771 19.9847 61.4818 19.8825C60.7794 19.7922 59.9348 19.7263 59.6047 19.736C59.2745 19.7458 58.8575 19.7806 58.678 19.8135ZM3.34603 20.076C2.89717 20.1828 2.25359 20.3936 1.91589 20.5443C1.57819 20.6948 1.12198 21.0172 0.902122 21.2606C0.6821 21.5038 0.426334 21.9572 0.333625 22.2679C0.240915 22.5785 0.164689 23.453 0.1642 24.2111C0.163547 25.0794 0.260012 25.8539 0.425028 26.3043C0.586617 26.7461 0.885964 27.1607 1.208 27.3895C1.49478 27.5931 2.20332 27.864 2.78259 27.9916C3.3617 28.1191 4.90071 28.2951 6.2024 28.3828C7.50409 28.4705 8.96084 28.5792 9.4394 28.6245C9.97607 28.6754 10.4266 28.8156 10.6141 28.9902C10.7816 29.1461 11.0032 29.566 11.1065 29.9235C11.2138 30.2939 11.2487 30.8953 11.1878 31.3225C11.1291 31.7346 10.9804 32.2529 10.8575 32.4743C10.7344 32.6956 10.4293 32.9633 10.1794 33.0694C9.92939 33.1754 9.06089 33.3323 8.24935 33.4183C7.43765 33.5042 6.29103 33.534 5.70115 33.4846C5.11127 33.4351 4.34005 33.3023 3.98733 33.1895C3.60147 33.0662 3.20223 32.7879 2.98531 32.4908C2.77002 32.1964 2.58036 31.6349 2.51524 31.0992L2.40621 30.2012H1.2031H0V31.2376C0 31.8076 0.116704 32.5929 0.259359 32.9826C0.402014 33.3725 0.737434 33.8626 1.00479 34.0719C1.27198 34.2813 2.01839 34.6068 2.66328 34.7955C3.70381 35.1001 4.17536 35.1387 6.85528 35.1387C9.30637 35.1387 10.0843 35.0849 10.9872 34.8533C11.7276 34.6634 12.2812 34.4084 12.6426 34.0912C12.9901 33.7861 13.28 33.3185 13.4481 32.7918C13.595 32.3312 13.7102 31.4298 13.7096 30.7433C13.7091 30.0692 13.6285 29.2441 13.5304 28.9098C13.4323 28.5756 13.1659 28.0727 12.9385 27.7923C12.711 27.5118 12.2643 27.1809 11.9457 27.0571C11.6271 26.9331 10.8103 26.7353 10.131 26.6174C9.45148 26.4996 7.70028 26.3488 6.23945 26.2823C3.64799 26.1643 3.57258 26.1513 3.14135 25.75C2.75762 25.3926 2.69184 25.1938 2.64173 24.2377C2.6099 23.6321 2.6605 22.952 2.75403 22.7262C2.84739 22.5005 3.16584 22.1928 3.46143 22.0426C3.91975 21.8097 4.41203 21.7694 6.8024 21.7694C9.38929 21.7694 9.6413 21.7939 10.0668 22.0866C10.4145 22.326 10.5655 22.5978 10.681 23.194L10.8343 23.984L12.0684 23.9402L13.3025 23.8963L13.2545 23.0607C13.2281 22.6012 13.0761 21.9898 12.9168 21.7021C12.7575 21.4143 12.4487 21.0557 12.2303 20.9049C12.0121 20.7542 11.3928 20.4808 10.8542 20.2971C10.0082 20.0086 9.48575 19.9575 7.01851 19.9224C5.09805 19.8951 3.89478 19.9454 3.34603 20.076ZM29.7062 20.0741C29.2125 20.183 28.5514 20.3772 28.2372 20.5057C27.923 20.6342 27.4543 20.9368 27.1956 21.1784C26.9369 21.4198 26.6 21.8909 26.4469 22.2252C26.2939 22.5594 26.0827 23.1557 25.9776 23.5504C25.8725 23.9449 25.7132 25.1019 25.6237 26.121C25.5163 27.3443 25.5159 28.5113 25.6221 29.5549C25.7106 30.4244 25.8645 31.4211 25.9641 31.77C26.0636 32.1186 26.332 32.7259 26.5605 33.1192C26.7888 33.5124 27.2489 34.0025 27.5827 34.2082C27.9167 34.4139 28.5862 34.6974 29.0705 34.8382C29.6129 34.9961 30.766 35.1244 32.0729 35.1726C33.2948 35.2176 34.6951 35.1784 35.3744 35.0799C36.0232 34.986 36.9611 34.7674 37.4582 34.5942C38.1152 34.3654 38.4743 34.1268 38.7714 33.7216C38.9961 33.4147 39.2462 32.9244 39.3268 32.632C39.4074 32.3395 39.523 31.7412 39.5834 31.3026L39.6934 30.505H38.395H37.0966L37.0071 31.4222C36.958 31.9267 36.8246 32.444 36.7107 32.5717C36.5969 32.6994 36.278 32.9149 36.0022 33.0502C35.6485 33.224 34.921 33.3156 33.5349 33.3614C32.353 33.4004 31.1924 33.3533 30.6242 33.2436C30.0351 33.1298 29.4952 32.9079 29.1906 32.6546C28.8407 32.3637 28.6388 31.9945 28.4788 31.3543C28.3559 30.8625 28.2053 29.9242 28.1439 29.2691L28.0322 28.0782L33.8067 28.0382L39.5811 27.9983L39.5447 26.4031C39.5248 25.5257 39.4283 24.3671 39.3304 23.8286C39.2325 23.29 38.9752 22.5008 38.7588 22.0749C38.5422 21.6489 38.1503 21.1526 37.8878 20.9719C37.6254 20.7913 36.9441 20.4947 36.374 20.313C35.543 20.0482 34.8678 19.9721 32.9706 19.9293C31.4021 19.894 30.3012 19.9428 29.7062 20.0741ZM81.3657 20.0767C80.9168 20.1839 80.2925 20.3945 79.9783 20.5446C79.6641 20.6947 79.2404 20.9592 79.0368 21.1325C78.8332 21.3059 78.5578 21.7888 78.4248 22.2059C78.2917 22.6227 78.1829 23.5024 78.1829 24.1605C78.1829 24.8185 78.2656 25.6628 78.3667 26.0363C78.4677 26.4101 78.7478 26.9125 78.989 27.1528C79.2474 27.4103 79.7922 27.6906 80.315 27.8351C80.8031 27.97 81.6432 28.1446 82.1818 28.2228C82.7204 28.3012 84.116 28.4076 85.283 28.4591C86.45 28.5107 87.6805 28.6189 88.0174 28.6994C88.3865 28.7875 88.7433 29.0069 88.9152 29.2512C89.1286 29.5549 89.1985 29.9633 89.1933 30.8785C89.1895 31.5518 89.0958 32.2529 88.9845 32.4406C88.8734 32.6276 88.5598 32.888 88.2877 33.0189C88.0156 33.1499 87.1181 33.3286 86.2932 33.4158C85.4683 33.5031 84.3107 33.534 83.7208 33.4846C83.1309 33.4351 82.363 33.3026 82.0142 33.1902C81.6655 33.0779 81.243 32.8149 81.0753 32.6058C80.9077 32.3968 80.7347 31.9242 80.6908 31.5553C80.6469 31.1866 80.5773 30.7311 80.5364 30.543C80.467 30.2252 80.3761 30.2012 79.2407 30.2012H78.0197V31.2091C78.0197 31.7634 78.1078 32.4908 78.2157 32.8258C78.3234 33.1607 78.6376 33.6576 78.9138 33.9302C79.268 34.2798 79.7751 34.5307 80.6356 34.7823C81.7364 35.1039 82.1581 35.1387 84.9566 35.1387C87.7039 35.1387 88.189 35.1003 89.2075 34.8021C89.8398 34.6169 90.5106 34.3092 90.6982 34.1184C90.8857 33.9276 91.1728 33.5321 91.3364 33.2397C91.5515 32.8549 91.6516 32.2664 91.6986 31.1108C91.7345 30.2323 91.6845 29.2412 91.5877 28.9079C91.491 28.5747 91.1857 28.0474 90.9094 27.7361C90.5294 27.3078 90.1609 27.0995 89.3957 26.8806C88.8394 26.7214 87.9435 26.545 87.4049 26.4885C86.8662 26.4321 85.3453 26.3323 84.0252 26.2667C82.3602 26.184 81.5398 26.0819 81.3476 25.9335C81.195 25.8157 80.9715 25.4994 80.8507 25.2305C80.7299 24.9616 80.6312 24.3679 80.6312 23.9111C80.6312 23.4542 80.7015 22.9084 80.7874 22.6981C80.8732 22.4878 81.1855 22.1983 81.4811 22.0547C81.8813 21.8605 82.5672 21.7761 84.1662 21.7243C85.3475 21.686 86.6526 21.7019 87.0665 21.7598C87.4804 21.8176 88.0085 22.0166 88.2401 22.2019C88.5458 22.4467 88.6852 22.7368 88.7487 23.2617L88.8362 23.9843L90.0792 23.9404L91.3222 23.8963L91.2848 23.0791C91.2641 22.6296 91.1172 22.0152 90.9584 21.7138C90.7994 21.4124 90.4187 21.0104 90.1124 20.8205C89.8062 20.6306 89.1819 20.3626 88.725 20.2249C88.1159 20.0413 87.1334 19.9623 85.0382 19.9282C83.0939 19.8966 81.9213 19.944 81.3657 20.0767ZM107.808 20.0832C107.359 20.186 106.714 20.3942 106.374 20.5458C106.034 20.6973 105.514 21.0853 105.217 21.4081C104.92 21.731 104.581 22.2861 104.464 22.6417C104.347 22.9975 104.154 23.6988 104.035 24.2002C103.903 24.7585 103.819 26.1421 103.817 27.7704C103.815 29.4876 103.896 30.7866 104.044 31.4385C104.17 31.9936 104.419 32.7114 104.597 33.0337C104.774 33.3559 105.092 33.7653 105.303 33.9435C105.513 34.1217 105.921 34.3785 106.21 34.514C106.498 34.6495 107.232 34.8716 107.842 35.0075C108.539 35.1626 109.738 35.2606 111.072 35.2714C112.392 35.2818 113.533 35.2092 114.092 35.079C114.585 34.9639 115.253 34.7462 115.576 34.5953C115.899 34.4444 116.387 34.0833 116.661 33.7928C117.03 33.4018 117.258 32.8963 117.537 31.8468C117.87 30.6015 117.916 30.0502 117.921 27.3146C117.927 24.5101 117.891 24.0943 117.565 23.1367C117.366 22.5518 117.022 21.827 116.8 21.5259C116.551 21.1875 116.066 20.8332 115.53 20.5976C115.053 20.3879 114.179 20.1386 113.588 20.0434C112.998 19.9483 111.639 19.8761 110.569 19.8833C109.499 19.8904 108.256 19.9803 107.808 20.0832ZM198.803 20.0776C198.309 20.1885 197.707 20.3551 197.465 20.4478C197.223 20.5405 196.732 20.8629 196.373 21.1641C195.898 21.5637 195.633 21.9664 195.393 22.6522C195.213 23.1694 194.993 24.0027 194.906 24.504C194.819 25.0054 194.702 26.0309 194.647 26.7829C194.592 27.5349 194.624 28.8339 194.718 29.6695C194.812 30.505 194.996 31.5305 195.126 31.9483C195.256 32.3661 195.568 33.0022 195.818 33.362C196.151 33.8399 196.537 34.1351 197.253 34.4584C197.791 34.7016 198.741 34.9804 199.363 35.078C200.055 35.1866 201.351 35.2237 202.709 35.1738C204.347 35.1135 205.219 35.0053 206.057 34.7586C206.784 34.5446 207.349 34.2664 207.633 33.983C207.878 33.74 208.194 33.2217 208.337 32.8316C208.48 32.4413 208.596 31.7583 208.596 31.3136V30.505H207.395H206.194L206.104 31.4222C206.055 31.9267 205.922 32.444 205.808 32.5717C205.694 32.6994 205.375 32.9191 205.099 33.0598C204.69 33.2685 204.132 33.3156 202.068 33.3156C199.815 33.3156 199.466 33.2807 198.885 32.9969C198.526 32.8217 198.098 32.4643 197.933 32.2026C197.769 31.9409 197.533 31.1955 197.409 30.5462C197.284 29.8969 197.18 29.075 197.177 28.7199L197.171 28.0743H202.884H208.596V26.2028C208.596 24.8518 208.51 24.0261 208.287 23.2327C208.116 22.6284 207.779 21.8686 207.538 21.5442C207.293 21.2158 206.798 20.8231 206.419 20.6578C206.046 20.4944 205.446 20.2793 205.087 20.1797C204.728 20.08 203.369 19.9709 202.068 19.9372C200.451 19.8954 199.416 19.9399 198.803 20.0776ZM156.855 27.5425V35.0628H158.08H159.304V27.5425V20.0223H158.08H156.855V27.5425ZM170.215 20.0961C170.171 20.1367 171.321 23.5038 172.771 27.5784L175.407 34.9868L177.13 35.0298L178.853 35.0726L179.274 33.9663C179.506 33.3577 180.69 30.0851 181.904 26.6937C183.119 23.3023 184.113 20.4109 184.113 20.2685C184.113 20.0429 183.95 20.0153 182.848 20.0539L181.583 20.0982L180.906 22.0732C180.533 23.1595 179.624 25.86 178.885 28.0743C178.147 30.2885 177.467 32.3395 177.375 32.632C177.214 33.1409 177.153 33.0077 175.93 29.5175C175.227 27.5121 174.197 24.5552 173.64 22.9468L172.627 20.0223H171.46C170.819 20.0223 170.258 20.0555 170.215 20.0961ZM35.6285 22.1152C36.2341 22.3675 36.4678 22.5697 36.6697 23.0165C36.813 23.3333 36.9676 24.1908 37.0133 24.9218L37.0964 26.2512H32.5735H28.0505L28.1529 25.3776C28.2092 24.8971 28.3285 24.193 28.4178 23.8131C28.5072 23.4331 28.7431 22.9324 28.9417 22.7004C29.149 22.4585 29.685 22.1521 30.1983 21.9818C30.9364 21.7372 31.4233 21.6942 32.9706 21.7375C34.4512 21.7787 35.0125 21.8584 35.6285 22.1152ZM204.105 21.9269C204.635 22.0555 205.176 22.2435 205.307 22.3447C205.439 22.4461 205.655 22.7683 205.787 23.0607C205.92 23.3532 206.075 24.1908 206.132 24.9218L206.235 26.2512H201.703C197.494 26.2512 197.171 26.2322 197.174 25.9853C197.176 25.8391 197.25 25.255 197.338 24.6872C197.426 24.1195 197.645 23.3869 197.825 23.0591C198.004 22.7314 198.317 22.3806 198.518 22.2797C198.72 22.1787 199.179 22.0102 199.538 21.9049C199.897 21.7998 200.855 21.7092 201.666 21.7036C202.504 21.6978 203.558 21.7943 204.105 21.9269ZM113.995 22.151C114.257 22.2753 114.605 22.548 114.77 22.7569C114.935 22.9658 115.149 23.5373 115.245 24.0271C115.347 24.5423 115.398 26.239 115.368 28.0531C115.32 30.9084 115.283 31.2537 114.955 31.9163C114.657 32.5164 114.457 32.7 113.814 32.965C113.217 33.2107 112.588 33.3032 111.136 33.3589C109.944 33.4047 108.933 33.3635 108.418 33.2483C107.966 33.1475 107.448 32.9164 107.267 32.7345C107.086 32.5528 106.805 31.9939 106.642 31.4925C106.397 30.7393 106.346 30.0534 106.351 27.5425C106.356 25.157 106.416 24.322 106.63 23.6572C106.78 23.1914 107.045 22.6902 107.219 22.5433C107.394 22.3965 107.854 22.1808 108.243 22.064C108.74 21.9148 109.629 21.8625 111.235 21.8882C112.872 21.9145 113.655 21.9891 113.995 22.151Z" fill="black"/>
</svg>
