<svg width="194" height="53" viewBox="0 0 194 53" fill="none" xmlns="http://www.w3.org/2000/svg">
<path fill-rule="evenodd" clip-rule="evenodd" d="M36.5741 7.32915C38.3668 7.08227 39.7481 5.5434 39.7481 3.68188C39.7481 1.64844 38.1002 0 36.0677 0C34.0352 0 32.3873 1.64844 32.3873 3.68188C32.3873 4.20557 32.4966 4.70374 32.6935 5.15476L18.96 17.5471C18.6244 17.3246 18.2502 17.1558 17.8498 17.0526V8.35232C19.437 7.94354 20.6101 6.50203 20.6101 4.78644C20.6101 2.753 18.9622 1.10456 16.9297 1.10456C14.8973 1.10456 13.2494 2.753 13.2494 4.78644C13.2494 6.50203 14.4225 7.94354 16.0096 8.35232V17.0526C15.1905 17.2636 14.4818 17.7494 13.9876 18.406L7.31942 15.6487C7.34674 15.4683 7.36075 15.2837 7.36075 15.0957C7.36075 13.0623 5.71285 11.4138 3.68038 11.4138C1.6479 11.4138 0 13.0623 0 15.0957C0 17.1291 1.6479 18.7776 3.68038 18.7776C4.86751 18.7776 5.92382 18.215 6.59664 17.3418L13.2846 20.1072C13.2763 20.1669 13.2695 20.2271 13.2641 20.2877C13.254 20.3967 13.2494 20.5071 13.2494 20.6185C13.2494 21.1539 13.3636 21.6625 13.5689 22.1214L6.46726 27.7845C5.82031 27.2198 4.97426 26.8777 4.04841 26.8777C2.01594 26.8777 0.368038 28.5262 0.368038 30.5596C0.368038 32.593 2.01594 34.2415 4.04841 34.2415C5.36674 34.2415 6.52332 33.548 7.17314 32.5058L19.5107 35.894C19.5074 35.9564 19.506 36.0192 19.506 36.0824C19.506 37.0249 19.86 37.8846 20.4423 38.5359L16.5121 45.4405C16.1778 45.3407 15.8242 45.2871 15.4576 45.2871C13.4251 45.2871 11.7772 46.9355 11.7772 48.969C11.7772 51.0024 13.4251 52.6509 15.4576 52.6509C17.4901 52.6509 19.138 51.0024 19.138 48.969C19.138 47.9664 18.7372 47.0573 18.0874 46.3933L21.9766 39.5608C22.3554 39.6926 22.7626 39.7643 23.1864 39.7643C25.2188 39.7643 26.8667 38.1158 26.8667 36.0824C26.8667 34.049 25.2188 32.4005 23.1864 32.4005C22.9937 32.4005 22.8047 32.4154 22.6199 32.4439L19.1017 23.5913C19.2645 23.4721 19.4169 23.3397 19.5578 23.196L35.0962 32.154C35.0096 32.4669 34.9636 32.7965 34.9636 33.1369C34.9636 35.1703 36.6115 36.8188 38.644 36.8188C40.6764 36.8188 42.3243 35.1703 42.3243 33.1369C42.3243 31.1569 40.7616 29.5419 38.8032 29.4584L37.1732 21.7842C37.7702 21.523 38.2842 21.108 38.6659 20.5892L47.8517 24.075C47.847 24.1495 47.8449 24.2247 47.8449 24.3004C47.8449 26.3338 49.4928 27.9823 51.5253 27.9823C53.5577 27.9823 55.2056 26.3338 55.2056 24.3004C55.2056 22.267 53.5577 20.6185 51.5253 20.6185C50.2206 20.6185 49.0744 21.2977 48.4207 22.322L39.3502 18.8801C39.37 18.7259 39.38 18.5689 39.38 18.4094C39.38 18.0791 39.3365 17.7589 39.255 17.4544L46.3566 13.659C47.0218 14.3195 47.938 14.7275 48.949 14.7275C50.9815 14.7275 52.6294 13.0791 52.6294 11.0456C52.6294 9.0122 50.9815 7.36376 48.949 7.36376C46.9165 7.36376 45.2686 9.0122 45.2686 11.0456C45.2686 11.403 45.3197 11.7485 45.4146 12.0753L38.3474 15.8523C37.8507 15.3376 37.2052 14.9673 36.4807 14.8106L36.5741 7.32915ZM20.0616 34.1362C20.2924 33.7664 20.5867 33.4405 20.9296 33.1738L17.3916 24.2717C17.2403 24.2906 17.0861 24.3004 16.9297 24.3004C16.0991 24.3004 15.3325 24.0251 14.7165 23.5606L7.51027 29.3071C7.65152 29.6981 7.72879 30.1198 7.72879 30.5596C7.72879 30.6228 7.72735 30.6856 7.72412 30.748L20.0616 34.1362ZM33.8318 6.60671L20.1928 18.9139C20.2144 18.9551 20.2352 18.9968 20.2552 19.0389C20.2932 19.119 20.3284 19.2006 20.3607 19.2837L32.0552 17.8938C32.2561 16.4594 33.2833 15.29 34.6397 14.8825L34.7364 7.11557C34.4097 6.98869 34.1057 6.81651 33.8318 6.60671ZM35.3535 22.0752C33.9349 21.9429 32.75 21.005 32.2604 19.7233L20.5774 21.1119C20.5551 21.2789 20.5213 21.4423 20.4775 21.6014L36.0159 30.5594C36.3013 30.2683 36.6345 30.0243 37.0029 29.8404L35.3535 22.0752Z" fill="black"/>
<path d="M74.7922 29.0178C74.7922 28.0896 74.4663 27.3571 73.8146 26.8202C73.1628 26.2756 71.9705 25.7616 70.2377 25.2784C68.5048 24.7875 67.2397 24.2544 66.4423 23.6791C65.3075 22.866 64.7401 21.7998 64.7401 20.4804C64.7401 19.1995 65.2653 18.1601 66.3158 17.3624C67.3739 16.5569 68.7234 16.1542 70.3642 16.1542C71.476 16.1542 72.4689 16.369 73.343 16.7986C74.2247 17.2281 74.9072 17.8264 75.3902 18.5935C75.8733 19.3606 76.1148 20.2158 76.1148 21.1593H74.6886C74.6886 20.0164 74.2976 19.0997 73.5155 18.4094C72.7334 17.7114 71.683 17.3624 70.3642 17.3624C69.0837 17.3624 68.064 17.65 67.3049 18.2253C66.5458 18.7929 66.1663 19.537 66.1663 20.4574C66.1663 21.3089 66.5075 22.003 67.1899 22.54C67.8723 23.077 68.9649 23.5525 70.4677 23.9667C71.9705 24.3733 73.1091 24.799 73.8836 25.2439C74.658 25.6811 75.2407 26.2066 75.6317 26.8202C76.0228 27.4338 76.2183 28.1587 76.2183 28.9948C76.2183 30.3141 75.6892 31.3727 74.6311 32.1704C73.5807 32.9681 72.1929 33.367 70.4677 33.367C69.2869 33.367 68.202 33.1561 67.2129 32.7342C66.2314 32.3123 65.4839 31.7217 64.9701 30.9623C64.4641 30.2029 64.2111 29.3323 64.2111 28.3505H65.6257C65.6257 29.5317 66.0666 30.4637 66.9483 31.1464C67.8301 31.8291 69.0032 32.1704 70.4677 32.1704C71.7712 32.1704 72.8178 31.8828 73.6075 31.3075C74.3973 30.7322 74.7922 29.969 74.7922 29.0178Z" fill="black"/>
<path d="M84.7775 25.52L89.8955 16.3844H91.5286L85.479 26.8317V33.1369H84.0644V26.8317L78.0263 16.3844H79.7054L84.7775 25.52Z" fill="black"/>
<path d="M105.608 33.1369H107.023V16.3844H105.62V30.7322L95.9819 16.3844H94.5558V33.1369H95.9819V18.8006L105.608 33.1369Z" fill="black"/>
<path fill-rule="evenodd" clip-rule="evenodd" d="M121.114 28.4425H113.512L111.787 33.1369H110.303L116.64 16.3844H117.986L124.323 33.1369H122.851L121.114 28.4425ZM113.949 27.2344H120.666L117.307 18.1102L113.949 27.2344Z" fill="black"/>
<path fill-rule="evenodd" clip-rule="evenodd" d="M128.799 33.1369V26.3139H133.055C134.895 26.3139 136.298 25.8882 137.264 25.0368C138.238 24.1777 138.725 22.9619 138.725 21.3894C138.725 19.8323 138.219 18.6088 137.207 17.719C136.202 16.8293 134.83 16.3844 133.089 16.3844H127.385V33.1369H128.799ZM133.089 25.1173H128.799V17.5925H133.181C134.5 17.6078 135.516 17.9607 136.229 18.651C136.95 19.3337 137.31 20.2542 137.31 21.4124C137.31 22.5783 136.95 23.4873 136.229 24.1393C135.508 24.7913 134.462 25.1173 133.089 25.1173Z" fill="black"/>
<path d="M163.163 33.1369H161.748V16.3844H163.163V33.1369Z" fill="black"/>
<path fill-rule="evenodd" clip-rule="evenodd" d="M167.915 23.495C167.455 24.4538 167.225 25.5315 167.225 26.7281V27.0043C167.225 28.9219 167.739 30.4637 168.766 31.6296C169.801 32.7879 171.143 33.367 172.791 33.367C173.872 33.367 174.835 33.1062 175.678 32.5846C176.522 32.063 177.173 31.3228 177.633 30.364C178.101 29.3975 178.335 28.3121 178.335 27.1078V26.8202C178.335 24.9025 177.821 23.3646 176.794 22.2063C175.766 21.0404 174.425 20.4574 172.768 20.4574C171.695 20.4574 170.733 20.7259 169.882 21.2628C169.038 21.7921 168.383 22.5362 167.915 23.495ZM169.755 30.7782C168.988 29.8194 168.605 28.5959 168.605 27.1078V26.8547C168.605 25.2976 168.992 24.0396 169.767 23.0808C170.541 22.1143 171.542 21.631 172.768 21.631C173.589 21.631 174.317 21.8496 174.954 22.2869C175.59 22.7164 176.085 23.3262 176.437 24.1163C176.79 24.9064 176.966 25.777 176.966 26.7281V26.9928C176.966 28.5576 176.579 29.8194 175.805 30.7782C175.038 31.7294 174.034 32.2049 172.791 32.2049C171.542 32.2049 170.529 31.7294 169.755 30.7782Z" fill="black"/>
<path d="M193.461 17.5925H187.722V33.1369H186.308V17.5925H180.58V16.3844H193.461V17.5925Z" fill="black"/>
<path d="M151.263 27.9823C153.296 27.9823 154.944 26.3338 154.944 24.3004C154.944 22.267 153.296 20.6185 151.263 20.6185C149.231 20.6185 147.583 22.267 147.583 24.3004C147.583 26.3338 149.231 27.9823 151.263 27.9823Z" fill="black"/>
</svg>
