<svg width="212" height="53" viewBox="0 0 212 53" fill="none" xmlns="http://www.w3.org/2000/svg">
<path fill-rule="evenodd" clip-rule="evenodd" d="M109.069 16.1899C108.604 16.256 107.872 16.407 107.442 16.5253C107.013 16.6435 106.347 16.8916 105.962 17.0763C105.578 17.2612 104.945 17.6941 104.557 18.0384C104.169 18.3826 103.661 19.0214 103.428 19.4579C103.196 19.8944 102.916 20.6526 102.806 21.1429C102.659 21.8035 102.607 23.1673 102.607 26.4098C102.607 29.665 102.659 31.0149 102.808 31.6823C102.918 32.1757 103.179 32.9207 103.387 33.3379C103.595 33.755 104.066 34.3813 104.434 34.7294C104.801 35.0777 105.514 35.5516 106.018 35.7826C106.522 36.0136 107.357 36.3023 107.874 36.4241C108.392 36.546 109.606 36.7039 110.573 36.7751C111.539 36.8464 114.957 36.9061 118.167 36.9077C121.378 36.9095 124.808 36.849 125.789 36.7735C126.771 36.698 128.052 36.5201 128.636 36.3783C129.221 36.2366 130.033 35.9602 130.442 35.7639C130.85 35.5678 131.497 35.1299 131.879 34.7911C132.295 34.4221 132.737 33.8461 132.98 33.3551C133.203 32.9043 133.473 32.2022 133.58 31.7949C133.725 31.2395 133.774 29.877 133.774 26.3425C133.774 21.8023 133.762 21.5946 133.448 20.646C133.268 20.1045 132.927 19.363 132.691 18.9981C132.454 18.6333 131.995 18.1201 131.672 17.8577C131.349 17.5953 130.763 17.2321 130.37 17.0506C129.977 16.8691 129.144 16.5855 128.519 16.4203C127.406 16.126 127.208 16.1195 118.65 16.0949C113.846 16.081 109.535 16.1238 109.069 16.1899ZM0.921875 18.8062V21.4355L5.75027 21.3984L10.5788 21.3613L10.5787 29.0014V36.6415H14.129H17.6793V29.0368V21.4321L22.5432 21.3967L27.4071 21.3613V18.8033V16.2454L14.1645 16.2111L0.921875 16.1767V18.8062ZM30.4056 16.3882C30.3588 16.5039 30.3361 21.093 30.3549 26.5863L30.3893 36.5742L33.9041 36.6102L37.4189 36.6463V34.0186V31.3911L43.4189 31.3913C48.8506 31.3915 49.465 31.4138 49.9058 31.6269C50.1737 31.7563 50.5252 32.0331 50.6869 32.2418C50.9475 32.5781 50.9863 32.8507 51.0267 34.6314L51.0725 36.6415H54.6125H58.1526V34.51C58.1526 33.3376 58.0782 32.0269 57.9872 31.5974C57.8957 31.166 57.6256 30.5385 57.3836 30.1953C57.1083 29.805 56.6817 29.4368 56.2355 29.2047C55.8449 29.0015 55.2767 28.7954 54.9728 28.7467L54.4201 28.658L55.2898 28.3595C55.7681 28.1954 56.3867 27.8967 56.6645 27.6957C56.9424 27.4948 57.3221 27.1081 57.5086 26.8365C57.6949 26.5648 57.9299 26.0699 58.0308 25.7367C58.1475 25.351 58.214 24.3238 58.2134 22.9095C58.213 21.1784 58.1572 20.5099 57.961 19.8804C57.8227 19.4361 57.486 18.7604 57.2131 18.3787C56.9401 17.9971 56.4645 17.5267 56.1563 17.3333C55.8482 17.14 55.2862 16.866 54.9076 16.7245C54.529 16.5831 53.7257 16.4022 53.1224 16.3227C52.4196 16.2301 48.1574 16.1781 41.2582 16.1781C31.6305 16.1781 30.4818 16.2003 30.4056 16.3882ZM63.265 26.4098V36.6415H66.7443H70.2236V26.4098V16.1781H66.7443H63.265V26.4098ZM75.2895 16.2671C75.237 16.3169 75.194 20.9214 75.194 26.4996V36.6415H78.7443H82.2946V33.1412V29.6409H90.2473H98.1999V27.2849V24.9289H90.2473H82.2946V23.0441V21.1593H90.6766H99.0584L99.0198 18.7024L98.981 16.2454L87.1829 16.2109C80.6941 16.1921 75.342 16.2173 75.2895 16.2671ZM137.963 26.4098V36.6415H141.442H144.922V34.0163V31.3911L150.922 31.3913C156.353 31.3915 156.968 31.4138 157.409 31.6269C157.677 31.7563 158.028 32.0331 158.19 32.2418C158.45 32.5781 158.489 32.8507 158.53 34.6314L158.575 36.6415H162.115H165.656V34.4268C165.656 33.2087 165.588 31.9122 165.505 31.5456C165.422 31.179 165.169 30.6031 164.944 30.2658C164.718 29.9287 164.283 29.5028 163.976 29.3193C163.67 29.1359 163.115 28.9018 162.744 28.7992L162.069 28.6125L162.962 28.3039C163.587 28.0878 164.058 27.8021 164.534 27.3515C165.036 26.8752 165.28 26.5027 165.47 25.9194C165.674 25.2925 165.726 24.6753 165.725 22.9095C165.724 21.0006 165.68 20.5555 165.412 19.7457C165.24 19.2274 164.907 18.5552 164.672 18.252C164.436 17.9489 163.994 17.537 163.689 17.3368C163.385 17.1368 162.815 16.8574 162.422 16.7162C162.03 16.575 161.177 16.3961 160.526 16.3188C159.798 16.2322 155.234 16.1781 148.653 16.1781H137.963V26.4098ZM170.342 26.4075V36.6415H173.892H177.442V32.7373V28.8331H178.929H180.416L185.422 32.7373L190.428 36.6415L195.403 36.6371L200.377 36.6325L200.022 36.3524C199.827 36.1982 196.74 33.8572 193.163 31.1498L186.659 26.2275L186.986 25.9268C187.165 25.7615 189.869 23.5585 192.993 21.0314C196.117 18.5043 198.695 16.3784 198.721 16.3073C198.75 16.2264 197.015 16.1781 194.083 16.1781H189.399L184.974 19.9477L180.549 23.7173H178.998H177.447L177.409 19.9813L177.371 16.2454L173.857 16.2095L170.342 16.1734V26.4075ZM124.827 21.7652C125.58 22.1221 125.729 22.2621 126.105 22.9671L126.531 23.7653L126.53 26.4001C126.53 28.2106 126.47 29.2231 126.339 29.636C126.231 29.9779 125.924 30.4497 125.628 30.7304C125.235 31.1036 124.913 31.2622 124.312 31.3807C123.762 31.4888 121.743 31.5251 117.781 31.4978L112.046 31.4584L111.336 31.1218C110.768 30.8525 110.555 30.6506 110.271 30.1121C109.936 29.4768 109.913 29.2938 109.867 26.8567C109.829 24.7853 109.864 24.1277 110.046 23.5335C110.171 23.1261 110.432 22.6143 110.626 22.396C110.819 22.1778 111.203 21.8978 111.479 21.7738C111.754 21.6498 112.25 21.4959 112.581 21.4317C112.912 21.3675 115.611 21.3253 118.579 21.3381L123.975 21.3613L124.827 21.7652ZM50.3109 21.6344C50.6094 21.7477 50.9623 22.0145 51.0949 22.2275C51.2717 22.5111 51.336 22.9251 51.336 23.7784C51.336 24.534 51.2635 25.0753 51.1293 25.3214C51.0155 25.5298 50.7024 25.7994 50.4333 25.9204C50.0034 26.1138 49.1836 26.1406 43.6815 26.1406H37.4189V23.7846V21.4286H43.5936C48.8033 21.4286 49.853 21.4608 50.3109 21.6344ZM157.847 21.6472C158.195 21.779 158.506 22.017 158.631 22.2463C158.766 22.4936 158.839 23.0323 158.839 23.7846C158.839 24.5721 158.768 25.0727 158.617 25.35C158.493 25.5769 158.18 25.8429 157.911 25.9493C157.518 26.1048 156.258 26.1406 151.175 26.1406H144.922V23.7846V21.4286H151.096C156.463 21.4286 157.347 21.4571 157.847 21.6472ZM204.993 33.747V36.6415H208.259H211.525V33.747V30.8525H208.259H204.993V33.747Z" fill="black"/>
</svg>
