<svg width="67" height="61" viewBox="0 0 67 61" fill="none" xmlns="http://www.w3.org/2000/svg">
<path d="M54.8163 32.6027L54.801 32.5958L54.7853 32.5896C54.1976 32.3589 53.6406 32.4309 53.1839 32.7763C52.7889 33.075 52.5285 33.5359 52.3372 33.9541C52.1687 34.3226 52.0173 34.7448 51.875 35.1418C51.8511 35.2082 51.8276 35.2739 51.8042 35.3386C51.6345 35.8084 51.4713 36.2363 51.2816 36.5928L50.1605 38.6996C50.1604 38.6997 50.1604 38.6998 50.1603 38.6999C45.6179 47.2252 36.3258 52.6257 27.3767 52.0152C18.4691 51.4075 12.0025 44.9972 11.4324 36.2472C10.8594 27.4517 16.383 18.3345 25.0741 13.9033C31.5719 10.5903 38.6134 10.5233 44.0011 13.3174C45.8199 14.2606 48.1641 13.4075 49.3144 11.6173C49.891 10.72 50.2376 9.57052 49.883 8.28471C49.5334 7.01694 48.536 5.7419 46.699 4.5008L46.6661 4.47858L46.6309 4.46031C39.0436 0.52552 30.9513 2.79577 22.2689 7.22257C10.5071 13.2194 2.93388 25.5955 3.72263 37.7028C4.51434 49.8555 13.5436 58.7782 25.8626 59.6186C38.14 60.4563 50.7488 53.0753 56.905 41.5208L56.9051 41.5205L58.0282 39.41C58.5407 38.447 58.7296 37.1761 58.2666 35.9104C57.8002 34.6354 56.706 33.4536 54.8163 32.6027Z" fill="currentColor" stroke="black" stroke-width="1.37024"/>
<path d="M26.2071 42.3711L26.2135 42.3793L26.2201 42.3873C27.2894 43.6875 28.499 44.3457 29.7038 44.461C30.9013 44.5755 32.0014 44.1444 32.8371 43.4426L64.0936 17.1958C65.735 15.8174 66.2582 13.4191 64.9485 11.8178C64.872 11.7243 64.7852 11.6161 64.6895 11.4967C64.1847 10.8671 63.4323 9.92867 62.6401 9.21714C62.1704 8.7953 61.6291 8.39836 61.0611 8.20515C60.4593 8.0004 59.7762 8.01488 59.1889 8.50807L59.1712 8.52296L59.1545 8.53902L31.3901 35.251L24.3323 26.6237C24.3023 26.587 24.2711 26.5488 24.2388 26.5092C23.7398 25.8974 22.9684 24.9516 22.0527 24.2327C21.0893 23.4763 19.7912 22.8359 18.3832 23.3289L18.2649 23.3703L18.169 23.4509C17.6361 23.8985 17.3504 24.6188 17.1936 25.3239C17.0312 26.0538 16.98 26.8914 17.0076 27.7082C17.0354 28.5273 17.1435 29.3525 17.3148 30.0638C17.479 30.7455 17.7218 31.4113 18.0723 31.8443L26.2071 42.3711Z" fill="currentColor" stroke="black" stroke-width="1.37024"/>
<path d="M54.5544 39.1429L54.5546 39.1426L55.6776 37.0322C56.6905 35.1288 56.1006 32.8353 54.114 32.0555C52.207 31.3069 49.9268 32.3436 48.931 34.215L47.8099 36.3218C47.8098 36.3219 47.8098 36.322 47.8097 36.3221C43.2673 44.8474 33.9752 50.2479 25.0261 49.6374C16.1185 49.0296 9.65187 42.6194 9.08183 33.8694C8.50884 25.0739 14.0324 15.9567 22.7235 11.5255C29.2214 8.21248 36.2628 8.14545 41.6505 10.9396C43.4693 11.8828 45.8135 11.0297 46.9638 9.23949L46.3874 8.86912L46.9638 9.23948C48.128 7.42773 47.784 5.06633 45.9012 4.08989C38.4095 0.204664 28.7391 0.347403 19.9183 4.84473C8.15649 10.8416 0.583297 23.2177 1.37204 35.325C2.16375 47.4777 11.193 56.4004 23.512 57.2408C35.7894 58.0784 48.3982 50.6975 54.5544 39.1429Z" fill="currentColor" stroke="black" stroke-width="1.37024"/>
<path d="M61.7375 14.8181C63.379 13.4397 63.9021 11.0414 62.5924 9.44016C61.276 7.83059 58.8372 7.91031 57.1936 9.29051L29.0648 32.9109L21.9763 24.246C20.6596 22.6366 18.2209 22.7165 16.5773 24.0968C14.936 25.4753 14.413 27.8737 15.7229 29.4748L25.0824 40.9156C26.3989 42.5249 28.8375 42.4451 30.481 41.065L61.7375 14.8181Z" fill="currentColor" stroke="black" stroke-width="1.37024"/>
</svg>
