<svg width="52" height="68" viewBox="0 0 52 68" fill="none" xmlns="http://www.w3.org/2000/svg">
<path d="M15.3318 52.2598L15.3317 52.2597C13.4693 50.2452 11.758 48.4702 10.2062 46.8607C8.40531 44.9929 6.8192 43.3478 5.46083 41.8094C2.94457 38.9597 1.47738 36.7536 1.09648 34.6471C0.731984 32.6313 1.33512 30.4997 3.54157 27.7082C5.76589 24.8942 9.51963 21.5399 15.2093 17.1426C25.8767 8.89812 32.3518 5.19532 36.8201 4.2866C38.9991 3.84345 40.6609 4.07535 42.1085 4.75192C43.5885 5.44367 44.9255 6.63694 46.3838 8.26728C48.3458 10.4606 49.6484 12.0771 50.3598 13.4354C51.0433 14.7402 51.1325 15.71 50.7799 16.6949C50.3949 17.7707 49.4392 18.9967 47.6735 20.6631C45.9909 22.2511 43.6885 24.1365 40.6937 26.589C40.5745 26.6866 40.4543 26.7851 40.3329 26.8844L29.5418 35.7201L28.7635 36.3573L29.4076 37.1299L36.7727 45.9655C38.945 48.5725 40.5312 50.5192 41.5778 52.0945C42.6339 53.684 43.0344 54.745 43.0345 55.5937C43.0345 56.3906 42.6775 57.1992 41.6754 58.2862C40.6591 59.3884 39.1051 60.6446 36.9259 62.3434L36.9259 62.3435C36.6142 62.5866 36.3186 62.8184 36.0374 63.039C34.4236 64.305 33.2808 65.2015 32.2604 65.7234C31.6892 66.0155 31.2128 66.1573 30.7687 66.1835C30.3314 66.2093 29.8607 66.127 29.2939 65.8751C28.106 65.3473 26.611 64.1332 24.3589 61.88C22.4603 59.9805 20.1012 57.4252 17.0147 54.0819C16.4763 53.4987 15.9158 52.8916 15.3318 52.2598Z" fill="#FF8484" stroke="black" stroke-width="1.99412"/>
<path d="M12.4515 46.4222L12.4515 46.4222C11.7808 45.6967 11.1399 45.0067 10.529 44.349C7.50597 41.094 5.21637 38.6288 3.66998 36.5594C1.80833 34.0682 1.22596 32.4054 1.5348 30.8608C1.85983 29.2352 3.21893 27.4319 6.14729 24.8299C8.55642 22.6893 11.8772 20.1309 16.2202 16.7849C17.0959 16.1102 18.0133 15.4035 18.9731 14.6617C19.315 14.3974 19.6513 14.1374 19.982 13.8818C24.8093 10.1503 28.4505 7.33566 31.2861 5.29159C34.3362 3.09282 36.3617 1.8559 37.8626 1.31536C38.5958 1.05129 39.1577 0.971437 39.6214 1.00391C40.0756 1.03571 40.496 1.17939 40.9453 1.4555C41.8706 2.02428 42.7957 3.05917 44.2128 4.64445C44.2829 4.72283 44.3541 4.80256 44.4267 4.88363C45.9037 6.53491 46.8894 7.71088 47.4176 8.72718C47.9051 9.66533 47.9623 10.3857 47.6289 11.214C47.2541 12.1452 46.3562 13.2845 44.6557 14.898C42.9744 16.4934 40.617 18.4552 37.4528 21.0468C37.4527 21.0468 37.4527 21.0469 37.4527 21.0469L26.6615 29.8825L25.8833 30.5198L26.5273 31.2924L33.8924 40.128C33.8924 40.128 33.8925 40.1281 33.8925 40.1281C36.0648 42.735 37.6509 44.6817 38.6975 46.2569C39.7536 47.8464 40.1542 48.9075 40.1542 49.7561C40.1542 50.5531 39.7972 51.3616 38.7951 52.4486C37.7789 53.5509 36.2248 54.807 34.0457 56.5059L34.0456 56.5059C33.7339 56.749 33.4383 56.9808 33.1571 57.2015C31.5433 58.4674 30.4005 59.364 29.3802 59.8858C28.8089 60.178 28.3326 60.3197 27.8884 60.3459C27.4512 60.3717 26.9805 60.2894 26.4136 60.0375C25.2258 59.5097 23.7307 58.2956 21.4786 56.0425C19.58 54.1429 17.221 51.5877 14.1346 48.2445C13.5962 47.6613 13.0356 47.0541 12.4515 46.4222Z" fill="#FFB5B5" stroke="black" stroke-width="1.99412"/>
</svg>
