<svg width="52" height="68" viewBox="0 0 52 68" fill="none" xmlns="http://www.w3.org/2000/svg">
<path d="M11.9136 7.44655L11.9136 7.44651C13.9293 5.75712 15.7503 4.71407 17.5422 4.27822C19.311 3.84799 21.1339 3.98932 23.203 4.81528C27.4327 6.5038 32.5616 10.991 39.9345 19.0244C43.9195 23.3665 46.8249 26.5782 48.6427 29.2407C50.4567 31.8976 51.0525 33.8175 50.7148 35.6109C50.3668 37.4589 48.9853 39.4373 46.144 42.082C43.3221 44.7086 39.2301 47.8444 33.7166 52.0458L33.7166 52.0458C32.868 52.6925 32.0534 53.3139 31.2711 53.9107C26.8627 57.2733 23.4806 59.8532 20.8184 61.7736C17.6626 64.05 15.6111 65.3294 14.1245 65.8969C13.3978 66.1744 12.8613 66.2589 12.4346 66.2346C12.0215 66.2111 11.6466 66.082 11.2418 65.8244C10.8198 65.5558 10.3735 65.153 9.83184 64.5835C9.45385 64.1861 9.05877 63.7399 8.60862 63.2314C8.40897 63.0058 8.1985 62.7681 7.97388 62.5169L7.97364 62.5167C7.20064 61.653 6.42112 60.8571 5.68408 60.1141C5.55986 59.9889 5.43714 59.8655 5.31598 59.7436C4.71233 59.1365 4.14726 58.5682 3.62817 58.0111C2.36837 56.6589 1.51049 55.5045 1.16532 54.3304C0.841062 53.2274 0.936369 51.9837 1.89037 50.3534C2.86824 48.6823 4.72457 46.6527 7.86263 44.0827L7.86341 44.082L21.614 32.7974L22.3715 32.1757L21.763 31.4075L18.3415 27.0885L18.3339 27.0789L18.326 27.0694C17.1004 25.5985 15.8895 24.2081 14.7845 22.9394C13.9792 22.0148 13.2301 21.1547 12.5727 20.3752C10.9505 18.4517 9.74955 16.8646 9.05586 15.4287C8.37783 14.0252 8.22108 12.8433 8.58681 11.6699C8.96639 10.452 9.95597 9.08705 11.9136 7.44655Z" fill="#FF8484" stroke="black" stroke-width="1.99412"/>
<path d="M14.7903 5.25299L14.7903 5.25295C16.9029 3.48239 18.3685 2.27794 19.648 1.63128C20.8349 1.03141 21.7788 0.952993 22.9195 1.42019C24.1695 1.9322 25.6962 3.11674 27.8971 5.27848C30.0028 7.34669 32.6299 10.2093 36.1261 14.0191C36.252 14.1563 36.3791 14.2948 36.5073 14.4345L36.5073 14.4345C36.9956 14.9665 37.4684 15.4805 37.9257 15.9776C41.3393 19.6888 43.8895 22.4615 45.5801 24.7517C47.5046 27.3588 48.1228 29.096 47.8401 30.6653C47.5465 32.2948 46.2364 34.0576 43.3963 36.5628C41.0916 38.5957 37.9296 40.9957 33.8193 44.1154C32.9182 44.7994 31.9715 45.5179 30.9783 46.2747C29.5089 47.3945 28.1431 48.4397 26.8709 49.4133C23.7003 51.8398 21.1113 53.8211 18.9487 55.4014C15.9043 57.626 13.7923 58.989 12.1669 59.6693C10.5949 60.3273 9.60311 60.2966 8.69318 59.8754C7.67237 59.4029 6.62352 58.3879 5.09427 56.6792C3.56467 54.9702 2.55233 53.7723 2.01042 52.7475C1.51151 51.804 1.45691 51.0977 1.78779 50.2819C2.16334 49.3559 3.06333 48.2213 4.75999 46.5866C6.43675 44.9711 8.77645 42.9713 11.9024 40.2996C16.0444 36.7593 18.3972 34.835 22.6612 31.4905L23.4694 30.8565L22.8117 30.0675L19.1291 25.6497L15.4466 21.232C13.285 18.6376 11.7055 16.7237 10.6532 15.1867C9.58962 13.6331 9.17789 12.6194 9.15333 11.8165C9.13062 11.0741 9.4372 10.3204 10.3613 9.26825C11.3016 8.19776 12.7495 6.9632 14.7903 5.25299Z" fill="#FFB5B5" stroke="black" stroke-width="1.99412"/>
</svg>
