<svg width="317" height="292" viewBox="0 0 317 292" fill="none" xmlns="http://www.w3.org/2000/svg">
<rect x="49" y="40" width="219" height="213" fill="#5E6FDB"/>
<path fill-rule="evenodd" clip-rule="evenodd" d="M74.146 23.356C59.0134 23.356 45.2276 35.4141 43.3546 50.2886L5.47777 237.483C3.60473 252.357 25.523 289.316 40.6557 289.316H256.431C271.563 289.316 285.349 277.258 287.222 262.383L313.93 50.2886C315.803 35.4141 278.355 3 263.223 3L74.146 23.356ZM122.583 56.7057C97.119 56.7057 73.8974 77.1865 70.7161 102.451L57.1454 210.221C53.9641 235.485 72.0277 255.966 97.4915 255.966H207.996C233.46 255.966 256.682 235.485 259.863 210.221L273.434 102.451C276.615 77.1865 258.552 56.7057 233.088 56.7057H122.583Z" fill="#5E6FDB"/>
<path d="M43.3546 50.2886L45.9029 50.8043L45.9221 50.7094L45.9342 50.6135L43.3546 50.2886ZM74.146 23.356V25.956H74.2856L74.4243 25.941L74.146 23.356ZM5.47777 237.483L2.92941 236.967L2.91023 237.062L2.89814 237.158L5.47777 237.483ZM287.222 262.383L289.802 262.708L287.222 262.383ZM313.93 50.2886L316.509 50.6135V50.6134L313.93 50.2886ZM263.223 3V0.4H263.083L262.944 0.414938L263.223 3ZM70.7161 102.451L68.1364 102.126L70.7161 102.451ZM57.1454 210.221L59.7251 210.545L57.1454 210.221ZM259.863 210.221L262.443 210.545L259.863 210.221ZM273.434 102.451L270.854 102.126L273.434 102.451ZM45.9342 50.6135C47.6411 37.0579 60.3047 25.956 74.146 25.956V20.756C57.7221 20.756 42.814 33.7704 40.7749 49.9638L45.9342 50.6135ZM8.02613 237.999L45.9029 50.8043L40.8062 49.773L2.92941 236.967L8.02613 237.999ZM40.6557 286.716C37.85 286.716 34.2549 284.94 30.2403 281.367C26.3129 277.871 22.3593 272.987 18.8765 267.571C15.3993 262.164 12.453 256.321 10.4985 250.966C8.51409 245.528 7.6676 240.903 8.0574 237.808L2.89814 237.158C2.35142 241.5 3.54233 247.073 5.61368 252.748C7.71502 258.506 10.8429 264.692 14.5027 270.384C18.157 276.066 22.4032 281.352 26.7829 285.251C31.0756 289.072 35.895 291.916 40.6557 291.916V286.716ZM256.431 286.716H40.6557V291.916H256.431V286.716ZM284.643 262.058C282.936 275.614 270.272 286.716 256.431 286.716V291.916C272.855 291.916 287.763 278.901 289.802 262.708L284.643 262.058ZM311.35 49.9638L284.643 262.058L289.802 262.708L316.509 50.6135L311.35 49.9638ZM263.223 5.6C266.274 5.6 270.942 7.31133 276.483 10.5431C281.912 13.709 287.81 18.1126 293.21 22.995C298.615 27.8823 303.439 33.1742 306.774 38.0852C310.208 43.143 311.691 47.2579 311.35 49.9638L316.509 50.6134C317.105 45.8821 314.609 40.3673 311.076 35.164C307.443 29.8139 302.311 24.2133 296.697 19.1378C291.078 14.0573 284.893 9.42768 279.103 6.05113C273.426 2.74044 267.738 0.4 263.223 0.4V5.6ZM74.4243 25.941L263.501 5.58506L262.944 0.414938L73.8677 20.7709L74.4243 25.941ZM73.2957 102.776C76.3133 78.8114 98.4293 59.3057 122.583 59.3057V54.1057C95.8086 54.1057 71.4815 75.5616 68.1364 102.126L73.2957 102.776ZM59.7251 210.545L73.2957 102.776L68.1364 102.126L54.5658 209.896L59.7251 210.545ZM97.4915 253.366C73.5925 253.366 56.7392 234.257 59.7251 210.545L54.5658 209.896C51.189 236.713 70.4628 258.566 97.4915 258.566V253.366ZM207.996 253.366H97.4915V258.566H207.996V253.366ZM257.284 209.896C254.266 233.86 232.15 253.366 207.996 253.366V258.566C234.771 258.566 259.098 237.11 262.443 210.545L257.284 209.896ZM270.854 102.126L257.284 209.896L262.443 210.545L276.013 102.776L270.854 102.126ZM233.088 59.3057C256.987 59.3057 273.84 78.4143 270.854 102.126L276.013 102.776C279.39 75.9587 260.116 54.1057 233.088 54.1057V59.3057ZM122.583 59.3057H233.088V54.1057H122.583V59.3057Z" fill="black"/>
<path d="M213.348 156.507C210.104 182.265 186.231 203.146 160.026 203.146C133.821 203.146 104.626 170.936 104.626 139.554C107.87 113.795 138.358 91.208 164.564 91.208C190.769 91.208 216.591 130.749 213.348 156.507Z" fill="#5E6FDB" stroke="black" stroke-width="5.2"/>
<path fill-rule="evenodd" clip-rule="evenodd" d="M77.1997 3C51.7359 3 28.5143 23.4808 25.333 48.7452L3.36333 223.215C0.181981 248.479 18.2455 268.96 43.7094 268.96H222.072C247.536 268.96 270.757 248.479 273.938 223.215L295.908 48.7452C299.089 23.4808 281.026 3 255.562 3H77.1997ZM106.925 36.3502C81.4608 36.3502 58.2393 56.831 55.0579 82.0954L41.4873 189.865C38.3059 215.129 56.3695 235.61 81.8334 235.61H192.338C217.802 235.61 241.024 215.129 244.205 189.865L257.776 82.0953C260.957 56.831 242.894 36.3502 217.43 36.3502H106.925Z" fill="#B0B8ED"/>
<path d="M25.333 48.7452L22.7534 48.4203L25.333 48.7452ZM3.36333 223.215L0.783704 222.89L3.36333 223.215ZM273.938 223.215L276.518 223.54L273.938 223.215ZM295.908 48.7452L293.328 48.4203L295.908 48.7452ZM55.0579 82.0954L57.6376 82.4202L55.0579 82.0954ZM41.4873 189.865L38.9077 189.54L41.4873 189.865ZM244.205 189.865L241.625 189.54L244.205 189.865ZM257.776 82.0953L260.355 82.4202V82.4202L257.776 82.0953ZM27.9126 49.07C30.9303 25.1057 53.0462 5.6 77.1997 5.6V0.4C50.4255 0.4 26.0984 21.8559 22.7534 48.4203L27.9126 49.07ZM5.94296 223.54L27.9126 49.07L22.7534 48.4203L0.783704 222.89L5.94296 223.54ZM43.7094 266.36C19.8104 266.36 2.95711 247.251 5.94296 223.54L0.783704 222.89C-2.59315 249.707 16.6807 271.56 43.7094 271.56V266.36ZM222.072 266.36H43.7094V271.56H222.072V266.36ZM271.359 222.89C268.341 246.854 246.225 266.36 222.072 266.36V271.56C248.846 271.56 273.173 250.104 276.518 223.54L271.359 222.89ZM293.328 48.4203L271.359 222.89L276.518 223.54L298.488 49.07L293.328 48.4203ZM255.562 5.6C279.461 5.6 296.314 24.7086 293.328 48.4203L298.488 49.07C301.865 22.2531 282.591 0.4 255.562 0.4V5.6ZM77.1997 5.6H255.562V0.4H77.1997V5.6ZM57.6376 82.4202C60.6552 58.4559 82.7712 38.9502 106.925 38.9502V33.7502C80.1505 33.7502 55.8234 55.2061 52.4783 81.7705L57.6376 82.4202ZM44.0669 190.19L57.6376 82.4202L52.4783 81.7705L38.9077 189.54L44.0669 190.19ZM81.8334 233.01C57.9344 233.01 41.0811 213.902 44.0669 190.19L38.9077 189.54C35.5308 216.357 54.8047 238.21 81.8334 238.21V233.01ZM192.338 233.01H81.8334V238.21H192.338V233.01ZM241.625 189.54C238.608 213.504 216.492 233.01 192.338 233.01V238.21C219.113 238.21 243.44 216.754 246.785 190.19L241.625 189.54ZM255.196 81.7705L241.625 189.54L246.785 190.19L260.355 82.4202L255.196 81.7705ZM217.43 38.9502C241.329 38.9502 258.182 58.0587 255.196 81.7705L260.355 82.4202C263.732 55.6032 244.458 33.7502 217.43 33.7502V38.9502ZM106.925 38.9502H217.43V33.7502H106.925V38.9502Z" fill="black"/>
<ellipse rx="47.4485" ry="47.0075" transform="matrix(1 0 -0.124936 0.992165 150.245 136.153)" fill="#B0B8ED" stroke="black" stroke-width="5.2"/>
</svg>
