<svg width="65" height="60" viewBox="0 0 65 60" fill="none" xmlns="http://www.w3.org/2000/svg">
<path fill-rule="evenodd" clip-rule="evenodd" d="M15.4128 5.12358C12.3473 5.12358 9.55467 7.56624 9.17524 10.5794L1.50241 48.5C1.12298 51.5132 5.56305 59 8.62851 59H52.3388C55.4043 59 58.1969 56.5573 58.5763 53.5441L63.9866 10.5794C64.366 7.56624 56.7801 1 53.7147 1L15.4128 5.12358ZM25.2244 11.8793C20.0661 11.8793 15.3621 16.0282 14.7176 21.1461L11.9685 42.9774C11.3241 48.0952 14.9833 52.2441 20.1416 52.2441H42.527C47.6853 52.2441 52.3893 48.0953 53.0338 42.9774L55.7828 21.1461C56.4273 16.0282 52.7681 11.8793 47.6098 11.8793H25.2244Z" fill="#B0B8ED"/>
<path d="M9.17524 10.5794L9.46928 10.6389L9.4715 10.628L9.47289 10.6169L9.17524 10.5794ZM15.4128 5.12358V5.42358H15.4289L15.4449 5.42186L15.4128 5.12358ZM1.50241 48.5L1.20837 48.4405L1.20616 48.4514L1.20476 48.4625L1.50241 48.5ZM58.5763 53.5441L58.874 53.5816L58.5763 53.5441ZM63.9866 10.5794L63.6889 10.5419V10.5419L63.9866 10.5794ZM53.7147 1V0.7H53.6986L53.6826 0.701724L53.7147 1ZM14.7176 21.1461L14.4199 21.1086L14.7176 21.1461ZM11.9685 42.9774L12.2662 43.0148L11.9685 42.9774ZM53.0338 42.9774L53.3314 43.0149L53.0338 42.9774ZM55.7828 21.1461L55.4852 21.1086L55.7828 21.1461ZM9.47289 10.6169C9.83315 7.75591 12.4963 5.42358 15.4128 5.42358V4.82358C12.1983 4.82358 9.27618 7.37658 8.87759 10.5419L9.47289 10.6169ZM1.79645 48.5595L9.46928 10.6389L8.8812 10.5199L1.20837 48.4405L1.79645 48.5595ZM8.62851 58.7C7.97493 58.7 7.19329 58.2937 6.36793 57.559C5.55261 56.8333 4.73895 55.8265 4.02596 54.7177C3.31361 53.6099 2.70885 52.4114 2.30653 51.309C1.90075 50.1971 1.71426 49.2189 1.80006 48.5375L1.20476 48.4625C1.10085 49.2877 1.32708 50.3753 1.74289 51.5147C2.16217 52.6635 2.78787 53.9016 3.5213 55.0422C4.25407 56.1818 5.10149 57.235 5.969 58.0072C6.82645 58.7704 7.74936 59.3 8.62851 59.3V58.7ZM52.3388 58.7H8.62851V59.3H52.3388V58.7ZM58.2787 53.5067C57.9184 56.3677 55.2553 58.7 52.3388 58.7V59.3C55.5533 59.3 58.4754 56.747 58.874 53.5816L58.2787 53.5067ZM63.6889 10.5419L58.2787 53.5067L58.874 53.5816L64.2842 10.6169L63.6889 10.5419ZM53.7147 1.3C54.3966 1.3 55.3866 1.6741 56.5151 2.33221C57.6306 2.98272 58.8378 3.88463 59.9413 4.8823C61.0454 5.88054 62.036 6.966 62.7245 7.97998C63.4246 9.01089 63.7691 9.90549 63.6889 10.5419L64.2842 10.6169C64.3938 9.74675 63.9323 8.69063 63.2209 7.64292C62.498 6.57827 61.4718 5.4572 60.3437 4.43724C59.2149 3.4167 57.9746 2.48872 56.8174 1.8139C55.6733 1.14668 54.5655 0.7 53.7147 0.7V1.3ZM15.4449 5.42186L53.7468 1.29828L53.6826 0.701724L15.3807 4.8253L15.4449 5.42186ZM15.0152 21.1836C15.6408 16.2157 20.2173 12.1793 25.2244 12.1793V11.5793C19.9149 11.5793 15.0833 15.8407 14.4199 21.1086L15.0152 21.1836ZM12.2662 43.0148L15.0152 21.1836L14.4199 21.1086L11.6709 42.9399L12.2662 43.0148ZM20.1416 51.9441C15.1638 51.9441 11.6443 47.9536 12.2662 43.0148L11.6709 42.9399C11.0039 48.2369 14.8027 52.5441 20.1416 52.5441V51.9441ZM42.527 51.9441H20.1416V52.5441H42.527V51.9441ZM52.7361 42.9399C52.1106 47.9078 47.5341 51.9441 42.527 51.9441V52.5441C47.8364 52.5441 52.6681 48.2827 53.3314 43.0149L52.7361 42.9399ZM55.4852 21.1086L52.7361 42.9399L53.3314 43.0149L56.0805 21.1836L55.4852 21.1086ZM47.6098 12.1793C52.5875 12.1793 56.1071 16.1699 55.4852 21.1086L56.0805 21.1836C56.7475 15.8865 52.9486 11.5793 47.6098 11.5793V12.1793ZM25.2244 12.1793H47.6098V11.5793H25.2244V12.1793Z" fill="black"/>
<path d="M43.6117 32.0966C42.9546 37.3145 38.1186 41.5445 32.8102 41.5445C27.5017 41.5445 21.5876 35.0195 21.5876 28.6623C22.2446 23.4444 28.4209 18.8688 33.7293 18.8688C39.0378 18.8688 44.2687 26.8787 43.6117 32.0966Z" fill="#B0B8ED" stroke="black" stroke-width="0.6"/>
<path fill-rule="evenodd" clip-rule="evenodd" d="M16.0309 1C10.8726 1 6.16853 5.14886 5.52407 10.2668L1.0736 45.6097C0.429144 50.7275 4.08834 54.8764 9.24665 54.8764H45.3781C50.5364 54.8764 55.2405 50.7275 55.8849 45.6097L60.3354 10.2668C60.9799 5.14887 57.3207 1 52.1623 1H16.0309ZM22.0533 7.7558C16.895 7.7558 12.1909 11.9047 11.5465 17.0225L8.79743 38.8538C8.15297 43.9717 11.8122 48.1206 16.9705 48.1206H39.3558C44.5141 48.1206 49.2182 43.9717 49.8627 38.8538L52.6117 17.0226C53.2562 11.9047 49.597 7.7558 44.4387 7.7558H22.0533Z" fill="#D6DBFF"/>
<path d="M5.52407 10.2668L5.82172 10.3042L5.52407 10.2668ZM1.0736 45.6097L0.775952 45.5722L1.0736 45.6097ZM55.8849 45.6097L55.5873 45.5722L55.8849 45.6097ZM60.3354 10.2668L60.633 10.3042L60.3354 10.2668ZM11.5465 17.0225L11.2488 16.9851L11.5465 17.0225ZM8.79743 38.8538L8.49978 38.8163L8.79743 38.8538ZM49.8627 38.8538L50.1603 38.8913L49.8627 38.8538ZM52.6117 17.0226L52.9094 17.06L52.6117 17.0226ZM5.82172 10.3042C6.44729 5.33635 11.0238 1.3 16.0309 1.3V0.7C10.7214 0.7 5.88977 4.96138 5.22642 10.2293L5.82172 10.3042ZM1.37125 45.6471L5.82172 10.3042L5.22642 10.2293L0.775952 45.5722L1.37125 45.6471ZM9.24665 54.5764C4.2689 54.5764 0.749352 50.5859 1.37125 45.6471L0.775952 45.5722C0.108936 50.8692 3.90779 55.1764 9.24665 55.1764V54.5764ZM45.3781 54.5764H9.24665V55.1764H45.3781V54.5764ZM55.5873 45.5722C54.9617 50.5401 50.3852 54.5764 45.3781 54.5764V55.1764C50.6876 55.1764 55.5192 50.915 56.1826 45.6471L55.5873 45.5722ZM60.0377 10.2293L55.5873 45.5722L56.1826 45.6471L60.633 10.3042L60.0377 10.2293ZM52.1623 1.3C57.1401 1.3 60.6596 5.29053 60.0377 10.2293L60.633 10.3042C61.3001 5.0072 57.5012 0.7 52.1623 0.7V1.3ZM16.0309 1.3H52.1623V0.7H16.0309V1.3ZM11.8441 17.06C12.4697 12.0921 17.0462 8.0558 22.0533 8.0558V7.4558C16.7438 7.4558 11.9122 11.7172 11.2488 16.9851L11.8441 17.06ZM9.09508 38.8913L11.8441 17.06L11.2488 16.9851L8.49978 38.8163L9.09508 38.8913ZM16.9705 47.8206C11.9927 47.8206 8.47318 43.8301 9.09508 38.8913L8.49978 38.8163C7.83276 44.1134 11.6316 48.4206 16.9705 48.4206V47.8206ZM39.3558 47.8206H16.9705V48.4206H39.3558V47.8206ZM49.565 38.8164C48.9394 43.7842 44.3629 47.8206 39.3558 47.8206V48.4206C44.6653 48.4206 49.497 44.1592 50.1603 38.8913L49.565 38.8164ZM52.3141 16.9851L49.565 38.8164L50.1603 38.8913L52.9094 17.06L52.3141 16.9851ZM44.4387 8.0558C49.4164 8.0558 52.936 12.0463 52.3141 16.9851L52.9094 17.06C53.5764 11.763 49.7775 7.4558 44.4387 7.4558V8.0558ZM22.0533 8.0558H44.4387V7.4558H22.0533V8.0558Z" fill="black"/>
<ellipse rx="9.61181" ry="9.52248" transform="matrix(1 0 -0.124936 0.992165 30.8286 27.9731)" fill="#D6DBFF" stroke="black" stroke-width="0.6"/>
</svg>
