<svg width="350" height="263" viewBox="0 0 350 263" fill="none" xmlns="http://www.w3.org/2000/svg">
<path d="M153.605 19.9167L153.771 19.8879L153.932 19.8361C206.921 2.7198 264.127 14.0866 302.524 35.4312C321.74 46.1134 335.982 59.1488 342.713 72.0738C346.064 78.5089 347.513 84.8326 346.897 90.8071C346.287 96.7185 343.637 102.487 338.446 107.863C336.924 109.094 335.578 110.236 334.338 111.288C332.174 113.123 330.331 114.686 328.437 115.98C325.6 117.916 323.021 118.955 319.801 118.896C316.474 118.835 312.19 117.598 306.002 114.363C299.831 111.137 291.963 106.032 281.512 98.464C222.593 55.7994 136.15 51.9807 59.4657 100.606C51.5745 105.61 45.6388 109.326 40.9561 111.896C36.2357 114.487 33.0342 115.772 30.575 116.12C28.3057 116.442 26.5982 115.979 24.7198 114.682C22.68 113.273 20.5195 110.941 17.4681 107.445L17.4207 107.39L17.3701 107.339C4.67602 94.4573 2.05094 84.0432 5.23199 75.4431C8.53701 66.5078 18.4119 58.4855 33.3052 51.3362C62.9334 37.1135 109.965 27.4676 153.605 19.9167ZM147.385 107.321L147.633 107.27L147.866 107.169C183.204 91.7751 222.521 99.1321 249.246 113.942C262.62 121.353 272.574 130.487 277.325 139.262C279.689 143.629 280.705 147.791 280.354 151.564C280.008 155.29 278.31 158.853 274.842 162.064C265.768 170.467 258.646 175.378 253.038 177.291C250.277 178.233 247.999 178.406 246.083 178.011C244.191 177.62 242.458 176.633 240.83 174.918L240.83 174.918C224.537 157.763 198.071 149.393 170.43 149.393C142.749 149.393 113.466 157.777 91.2584 174.662L91.2582 174.662C87.2094 177.741 81.9671 178.004 76.2294 176.012C70.4792 174.015 64.5484 169.833 59.6743 164.614C54.7953 159.39 51.1581 153.324 49.7799 147.725C48.4142 142.177 49.301 137.386 52.9764 133.978C56.2547 130.938 62.042 128.004 69.5993 125.245C77.0847 122.513 86.034 120.047 95.4009 117.825C108.482 114.721 122.206 112.129 133.764 109.945C138.792 108.996 143.409 108.124 147.385 107.321ZM150.997 194.812L152.281 194.686L152.879 193.543C156.355 186.896 160.411 184.698 164.187 184.672C168.193 184.643 172.732 187.032 177.038 191.371C181.293 195.658 185.027 201.57 187.419 207.881C189.818 214.208 190.793 220.734 189.78 226.279C186.374 244.916 168.572 260.024 150.211 260.024C131.879 260.024 117.761 245.046 115.409 229.286C114.247 221.497 115.991 213.666 121.429 207.43C126.88 201.179 136.293 196.248 150.997 194.812Z" fill="#FFCA31" stroke="black" stroke-width="4.77108"/>
<path d="M314.181 100.396L319.048 117.536" stroke="#FFCA31" stroke-width="4.77108"/>
<path d="M141.992 2.8746L142.399 5.2252C192.763 -3.49148 252.008 8.8607 292.136 28.6304C312.247 38.5382 327.179 50.1264 333.937 61.5118C337.284 67.1517 338.546 72.5993 337.629 77.7391C336.712 82.8761 333.553 88.0702 327.353 93.0796C323.29 96.361 320.554 98.2633 318.063 99.0778C315.787 99.8222 313.525 99.7102 310.237 98.2798C306.822 96.7943 302.528 93.9853 296.324 89.5187C293.402 87.4158 290.173 85.0313 286.481 82.3056C282.259 79.1891 277.434 75.6266 271.775 71.5287C212.633 28.7025 124.661 37.4682 48.2592 85.9148C40.3681 90.9186 34.4324 94.6343 29.7496 97.2048C25.0293 99.796 21.8278 101.08 19.3686 101.429C17.0993 101.751 15.3917 101.287 13.5133 99.9902C11.4737 98.5818 9.31335 96.2494 6.26226 92.754C3.64916 89.758 2.44813 86.553 2.38793 83.1772C2.32689 79.7545 3.43784 75.9714 5.7782 71.893C10.4837 63.693 19.8892 54.7716 32.9837 46.0642C59.1108 28.6908 99.0873 12.7192 142.399 5.22522L141.992 2.8746ZM136.179 92.6291L135.706 90.2908L136.179 92.6291C168.048 86.1909 207.64 93.6157 235.43 106.236C249.357 112.561 259.972 120.036 265.232 127.408C267.84 131.062 269.015 134.523 268.837 137.715C268.661 140.863 267.147 144.121 263.636 147.373C254.562 155.776 247.439 160.686 241.832 162.599C239.07 163.541 236.792 163.715 234.877 163.319C232.984 162.928 231.252 161.942 229.624 160.227L229.623 160.227C213.33 143.072 186.865 134.701 159.224 134.701C131.543 134.701 102.26 143.086 80.052 159.97L80.0518 159.97C71.6298 166.375 61.3022 163.087 54.76 155.577C51.5283 151.867 49.4547 147.329 49.1621 142.885C48.8743 138.515 50.2926 134.137 54.2435 130.473C61.2463 123.979 75.2262 115.812 90.8821 108.57C106.49 101.351 123.427 95.2048 136.179 92.6291ZM140.399 179.978L139.559 177.746L140.399 179.978C161.999 171.845 182.695 189.039 178.574 211.587C175.167 230.225 157.365 245.332 139.005 245.332C129.759 245.332 123.078 242.117 118.704 237.276C114.296 232.397 112.044 225.657 112.102 218.325C112.219 203.645 121.612 187.052 140.399 179.978Z" fill="#FFE598" stroke="black" stroke-width="4.77108"/>
</svg>
