<svg width="83" height="55" viewBox="0 0 83 55" fill="none" xmlns="http://www.w3.org/2000/svg">
<path d="M38.7492 4.1658L38.7889 4.15893L38.8282 4.14626C49.9102 0.566605 61.9065 2.93836 69.981 7.42694C74.0174 9.67069 77.025 12.4173 78.4509 15.1554C79.1626 16.5221 79.4684 17.8633 79.3385 19.1226C79.211 20.36 78.6606 21.5478 77.6001 22.6484C77.3022 22.8897 77.0241 23.1254 76.7676 23.3427C76.6654 23.4293 76.5666 23.513 76.4713 23.593C76.122 23.8865 75.8157 24.1341 75.5192 24.3365C74.9463 24.7277 74.4253 24.9405 73.7575 24.9283C73.056 24.9154 72.1487 24.6533 70.8428 23.9707C69.543 23.2912 67.889 22.2176 65.6969 20.6304C53.3961 11.723 35.2784 10.8834 19.1481 21.1116C17.4933 22.1609 16.2531 22.9372 15.2762 23.4734C14.2923 24.0136 13.6349 24.2758 13.1329 24.347C12.6668 24.413 12.2946 24.3197 11.8764 24.0309C11.4349 23.7261 10.9724 23.2252 10.3347 22.4946L10.3272 22.486L10.3191 22.4778C7.63029 19.7492 7.07507 17.5304 7.74167 15.7282C8.41943 13.8959 10.4456 12.2376 13.5594 10.7429C19.7532 7.76964 29.598 5.74921 38.7492 4.1658ZM37.4472 22.485L37.5081 22.4727L37.5667 22.4472C44.9386 19.2358 53.1815 20.7611 58.8141 23.8824C61.6263 25.4408 63.7343 27.3692 64.745 29.2362C65.2499 30.1687 65.4658 31.0576 65.3915 31.8568C65.3188 32.6396 64.9664 33.3634 64.2687 34.0096L64.5841 34.335L64.2687 34.0096C62.3714 35.7666 60.8969 36.779 59.7467 37.1714C59.1836 37.3634 58.7112 37.4024 58.3027 37.318C57.893 37.2334 57.5114 37.0171 57.1539 36.6406L57.1539 36.6405C53.7699 33.0776 48.2511 31.3204 42.45 31.3204C36.6489 31.3204 30.4877 33.0776 25.8015 36.6405L25.8014 36.6405C25.0043 37.2467 23.9291 37.3256 22.6947 36.897C21.474 36.4731 20.2163 35.5857 19.1837 34.48C18.1504 33.3737 17.3763 32.085 17.0823 30.8909C16.786 29.6872 16.998 28.7075 17.7179 28.0399C18.3818 27.4243 19.5719 26.8166 21.156 26.2384C22.7197 25.6676 24.5916 25.1517 26.5538 24.6861C29.2939 24.036 32.1676 23.4932 34.5895 23.0357C35.6438 22.8366 36.6125 22.6536 37.4472 22.485ZM38.1992 40.8235L38.5264 40.7916L38.6839 40.4903C39.0456 39.7988 39.4316 39.3555 39.8044 39.0861C40.1693 38.8223 40.5536 38.7013 40.9616 38.6984C41.8117 38.6924 42.7855 39.2041 43.7048 40.1304C44.6101 41.0426 45.4011 42.2966 45.9073 43.6318C46.4157 44.9729 46.6204 46.3523 46.4075 47.5171C45.6993 51.392 42.023 54.5082 38.2121 54.5082C34.3466 54.5082 31.3369 51.3317 30.8365 47.9786C30.5892 46.3209 30.9674 44.6955 32.0762 43.424C33.1844 42.1531 35.1197 41.1243 38.1992 40.8235Z" fill="#FFCA31" stroke="black"/>
<path d="M72.4905 21.0427L73.5106 24.6353" stroke="#FFCA31"/>
<path d="M36.4012 1.08644L36.4012 1.08644C46.9473 -0.738784 59.3717 1.8467 67.8005 5.99923C72.0193 8.07768 75.1745 10.5188 76.6092 12.9359C77.324 14.1402 77.59 15.3014 77.3968 16.3837C77.2064 17.4509 76.5564 18.5153 75.2832 19.5438C74.4314 20.2318 73.8764 20.6147 73.3776 20.7778C72.9228 20.9266 72.4471 20.9113 71.7371 20.6024C71.011 20.2865 70.1027 19.6916 68.8025 18.7555C68.1918 18.3159 67.5135 17.8152 66.7384 17.2429C65.8523 16.5888 64.8397 15.8412 63.6569 14.9847C51.3076 6.04231 32.8692 7.84287 16.8002 18.0322C15.1453 19.0816 13.9052 19.8578 12.9282 20.3941C11.9443 20.9342 11.2869 21.1964 10.7849 21.2676C10.3188 21.3337 9.94663 21.2404 9.5284 20.9516C9.08696 20.6468 8.62447 20.1459 7.9868 19.4153C7.41941 18.7648 7.16078 18.0688 7.14792 17.3473C7.135 16.6232 7.36916 15.8362 7.85119 14.9962C8.82364 13.3016 10.7741 11.4473 13.5095 9.62833C18.966 5.99997 27.3293 2.65613 36.4012 1.08644ZM35.0993 19.4056L35.0993 19.4056C41.7673 18.0586 50.0709 19.6109 55.9126 22.2639C58.8349 23.591 61.0822 25.1677 62.2036 26.7391C62.763 27.5232 63.0167 28.2701 62.9785 28.9533C62.9416 29.6152 62.6281 30.2751 61.9207 30.9302L62.2361 31.2556L61.9207 30.9302C60.0234 32.6873 58.5489 33.6996 57.3987 34.092C56.8356 34.2841 56.3633 34.323 55.9547 34.2386C55.545 34.154 55.1634 33.9378 54.806 33.5612L54.8059 33.5611C51.4219 29.9982 45.9031 28.241 40.102 28.241C34.3009 28.241 28.1398 29.9982 23.4535 33.5611L23.4534 33.5612C22.5932 34.2154 21.6421 34.3755 20.7052 34.1699C19.7566 33.9616 18.8449 33.3785 18.1517 32.5827C17.4582 31.7866 17.0142 30.8131 16.9517 29.8642C16.8901 28.9291 17.1956 28.0366 17.9844 27.3051C19.4337 25.9612 22.3461 24.257 25.6265 22.7396C28.8922 21.229 32.4345 19.9439 35.0993 19.4056ZM35.8642 51.4288C32.0264 51.4288 30.1191 48.759 30.1436 45.6727C30.1681 42.5838 32.1303 39.1657 35.9973 37.7098L35.8903 37.2548L35.9973 37.7097C38.2356 36.8669 40.4643 37.3302 42.04 38.6358C43.6153 39.9411 44.4948 42.0563 44.0596 44.4377C43.3514 48.3127 39.675 51.4288 35.8642 51.4288Z" fill="#FFCA31" stroke="black"/>
</svg>
