<svg width="66" height="66" viewBox="0 0 66 66" fill="none" xmlns="http://www.w3.org/2000/svg">
<path d="M39.5972 35.1835C37.0554 35.5899 34.8632 35.0809 34.6988 34.0502C34.5345 33.0194 36.4619 31.8549 39.004 31.4513C41.5445 31.0476 43.7364 31.5539 43.9007 32.5833C44.0653 33.6141 42.1393 34.7799 39.5972 35.1835ZM37.1833 45.8016C36.2523 46.2754 34.55 44.8028 33.3815 42.5121C32.2117 40.2183 32.0163 37.9725 32.9486 37.4986C33.8765 37.0261 35.5761 38.4983 36.7473 40.7908C37.9172 43.0815 38.1139 45.326 37.1833 45.8016ZM27.1703 41.5333C25.3522 43.3546 23.2815 44.2321 22.5432 43.4936C21.8039 42.7568 22.6795 40.6821 24.4975 38.8612C26.3139 37.0372 28.3847 36.1596 29.126 36.8978C29.8639 37.6349 28.9893 39.7107 27.1703 41.5333ZM20.2123 28.851C20.6833 27.9198 22.9272 28.1139 25.2173 29.2797C27.5117 30.4458 28.9896 32.1472 28.5156 33.0767C28.0418 34.0049 25.8007 33.8152 23.5079 32.6494C21.2148 31.4837 19.7385 29.7819 20.2123 28.851ZM33.4112 22.1104C34.4431 22.2707 34.9532 24.4659 34.55 27.0085C34.1519 29.5514 32.9935 31.4793 31.9603 31.3176C30.9312 31.1546 30.4193 28.9617 30.8185 26.4209C31.2193 23.878 32.3791 21.9487 33.4112 22.1104ZM65.957 29.069C65.7434 27.7173 65.0095 27.3308 63.2394 26.7655C61.8951 26.3334 52.8916 23.4645 52.8916 23.4645C52.8916 23.4645 46.6156 21.0921 41.9649 24.4464C41.3376 24.899 40.6881 25.4137 40.0372 25.9622C40.5842 25.3097 41.0987 24.6614 41.5502 24.0343C44.8934 19.3751 42.5118 13.1 42.5118 13.1C42.5118 13.1 39.6282 4.1007 39.1936 2.75366C38.6244 0.987081 38.2377 0.252976 36.885 0.0433762C35.5299 -0.171624 34.9394 0.406547 33.8539 1.91391C33.0272 3.05878 27.5161 10.7387 27.5161 10.7387C27.5161 10.7387 23.326 15.976 25.0739 21.4394C25.3114 22.1722 25.5999 22.9498 25.9218 23.7403C25.469 23.0173 25.0108 22.3271 24.5539 21.705C21.1557 17.0874 14.4579 17.4094 14.4579 17.4094C14.4579 17.4094 5.00871 17.3726 3.59694 17.3713C1.73841 17.3645 0.922864 17.5093 0.30167 18.7285C-0.319862 19.9479 0.0469161 20.6928 1.14523 22.1894C1.97866 23.3302 7.57987 30.944 7.57987 30.944C7.57987 30.944 11.2635 36.5522 16.9956 36.5748C17.766 36.5792 18.5913 36.5437 19.4389 36.482C18.6471 36.6772 17.8627 36.9011 17.0871 37.153C11.6445 38.9587 9.88581 45.4333 9.88581 45.4333C9.88581 45.4333 6.93033 54.4114 6.48898 55.7557C5.91266 57.5192 5.79592 58.3391 6.76331 59.3054C7.73171 60.2758 8.55299 60.1559 10.316 59.5741C11.6586 59.1339 20.6297 56.1594 20.6297 56.1594C20.6297 56.1594 27.0957 54.386 28.8881 48.9392C29.1314 48.2081 29.352 47.4119 29.5575 46.5907C29.4968 47.4372 29.4647 48.2614 29.4718 49.032C29.5012 54.7671 35.1152 58.442 35.1152 58.442C35.1152 58.442 42.7352 64.0249 43.8767 64.8603C45.3782 65.9532 46.1206 66.3201 47.341 65.6973C48.5585 65.0756 48.7008 64.2598 48.6921 62.4008C48.6867 60.9886 48.6303 51.5367 48.6303 51.5367C48.6303 51.5367 48.9451 44.8356 44.3211 41.4449C43.6996 40.9892 43.0119 40.5322 42.2898 40.0823C43.0784 40.3999 43.8514 40.6885 44.5883 40.919C50.0502 42.6613 55.2802 38.4592 55.2802 38.4592C55.2802 38.4592 62.9455 32.934 64.0913 32.1071C65.5956 31.0186 66.1705 30.4205 65.957 29.069Z" fill="black"/>
</svg>
