<svg width="257" height="66" viewBox="0 0 257 66" fill="none" xmlns="http://www.w3.org/2000/svg">
<path d="M21.7353 37.866C21.6566 39.5761 21.1953 41.0892 20.3516 42.4055C19.5078 43.7105 18.3209 44.723 16.7909 45.443C15.2721 46.163 13.534 46.5231 11.5764 46.5231C8.34763 46.5231 5.80509 45.4712 3.94881 43.3674C2.09253 41.2636 1.16439 38.2935 1.16439 34.4572V33.2422C1.16439 30.8347 1.58065 28.7309 2.41316 26.9309C3.25693 25.1196 4.46632 23.7246 6.04134 22.7458C7.61637 21.7558 9.4389 21.2608 11.5089 21.2608C14.4902 21.2608 16.8865 22.0483 18.6978 23.6233C20.5091 25.1871 21.5385 27.3471 21.786 30.1034H15.8796C15.8346 28.6071 15.4577 27.5328 14.749 26.8802C14.0402 26.2277 12.9602 25.9015 11.5089 25.9015C10.0352 25.9015 8.95514 26.4527 8.26888 27.5553C7.58262 28.6578 7.22261 30.4184 7.18886 32.8372V34.5754C7.18886 37.1967 7.51512 39.0698 8.16763 40.1948C8.83139 41.3198 9.96765 41.8824 11.5764 41.8824C12.9377 41.8824 13.9783 41.5617 14.6984 40.9205C15.4184 40.2792 15.8009 39.2611 15.8459 37.866H21.7353ZM46.2666 46.1855H40.3771L31.6695 30.8966V46.1855H25.7462V21.6152H31.6695L40.3602 36.9042V21.6152H46.2666V46.1855ZM60.6895 29.7828L64.7058 21.6152H71.4728L64.6046 33.7991L71.6584 46.1855H64.824L60.6895 37.866L56.5551 46.1855H49.7375L56.7745 33.7991L49.9231 21.6152H56.6732L60.6895 29.7828ZM97.298 39.6548C97.298 38.7886 96.9887 38.1135 96.3699 37.6298C95.7624 37.146 94.688 36.6454 93.1467 36.1279C91.6054 35.6104 90.3454 35.1098 89.3667 34.626C86.1829 33.0622 84.591 30.9134 84.591 28.1796C84.591 26.8184 84.9847 25.6202 85.7722 24.5852C86.571 23.5389 87.696 22.7289 89.1473 22.1552C90.5986 21.5702 92.2298 21.2777 94.0411 21.2777C95.8074 21.2777 97.388 21.5927 98.7831 22.2227C100.189 22.8527 101.281 23.7527 102.057 24.9227C102.833 26.0815 103.221 27.409 103.221 28.9053H97.3149C97.3149 27.904 97.0055 27.1278 96.3868 26.5765C95.7793 26.0252 94.9524 25.7496 93.9061 25.7496C92.8486 25.7496 92.0105 25.9859 91.3917 26.4584C90.7842 26.9196 90.4804 27.5103 90.4804 28.2303C90.4804 28.8603 90.8179 29.434 91.4929 29.9515C92.168 30.4578 93.3548 30.9866 95.0536 31.5378C96.7524 32.0778 98.1474 32.6628 99.2387 33.2928C101.894 34.8229 103.221 36.9323 103.221 39.6211C103.221 41.7699 102.411 43.4574 100.791 44.6836C99.1712 45.9099 96.9493 46.5231 94.1255 46.5231C92.1342 46.5231 90.3285 46.1687 88.7085 45.4599C87.0997 44.7399 85.8847 43.7611 85.0635 42.5236C84.2535 41.2748 83.8484 39.8404 83.8484 38.2204H89.7885C89.7885 39.5367 90.126 40.5098 90.8011 41.1398C91.4873 41.7586 92.5955 42.068 94.1255 42.068C95.1042 42.068 95.8749 41.8599 96.4374 41.4436C97.0112 41.0161 97.298 40.4198 97.298 39.6548ZM106.49 36.8873C106.49 35.0647 106.844 33.4447 107.553 32.0272C108.262 30.5984 109.28 29.5015 110.607 28.7365C111.935 27.9715 113.493 27.589 115.282 27.589C118.015 27.589 120.17 28.4384 121.745 30.1372C123.32 31.8247 124.107 34.1254 124.107 37.0392V37.2417C124.107 40.088 123.314 42.3492 121.728 44.0255C120.153 45.6905 118.015 46.5231 115.315 46.5231C112.717 46.5231 110.63 45.7468 109.055 44.1943C107.48 42.6305 106.63 40.5155 106.507 37.8492L106.49 36.8873ZM112.177 37.2417C112.177 38.9292 112.441 40.1667 112.97 40.9542C113.499 41.7417 114.28 42.1355 115.315 42.1355C117.34 42.1355 118.375 40.5773 118.42 37.461V36.8873C118.42 33.6135 117.374 31.9766 115.282 31.9766C113.38 31.9766 112.351 33.3885 112.193 36.2123L112.177 37.2417ZM129.08 46.1855V31.8753H126.431V27.9265H129.08V26.4752C129.08 24.394 129.693 22.7796 130.92 21.632C132.146 20.4845 133.867 19.9108 136.083 19.9108C136.893 19.9108 137.782 20.0289 138.75 20.2651L138.767 24.4502C138.418 24.349 137.951 24.2983 137.366 24.2983C135.645 24.2983 134.784 25.0408 134.784 26.5259V27.9265H138.345V31.8753H134.784V46.1855H129.08ZM148.178 23.3871V27.9265H151.181V31.8753H148.178V40.2286C148.178 40.9148 148.301 41.393 148.549 41.663C148.796 41.933 149.286 42.068 150.017 42.068C150.58 42.068 151.052 42.0342 151.435 41.9667V46.0337C150.411 46.3599 149.342 46.5231 148.228 46.5231C146.271 46.5231 144.825 46.0618 143.891 45.1393C142.958 44.2168 142.491 42.8161 142.491 40.9373V31.8753H140.162V27.9265H142.491V23.3871H148.178ZM170.414 38.6929L172.253 27.9265H177.704L173.401 46.1855H168.591L165.571 35.3516L162.533 46.1855H157.724L153.42 27.9265H158.871L160.677 38.9461L163.579 27.9265H167.545L170.414 38.6929ZM191.249 46.1855C191.047 45.8143 190.867 45.2687 190.709 44.5486C189.663 45.8649 188.201 46.5231 186.322 46.5231C184.601 46.5231 183.138 46.0055 181.934 44.9705C180.73 43.9243 180.129 42.6136 180.129 41.0386C180.129 39.0586 180.86 37.5623 182.322 36.5498C183.785 35.5373 185.911 35.031 188.701 35.031H190.456V34.0691C190.456 32.3928 189.731 31.5547 188.279 31.5547C186.929 31.5547 186.254 32.2185 186.254 33.546H180.567C180.567 31.7797 181.315 30.3453 182.812 29.2428C184.319 28.1403 186.237 27.589 188.566 27.589C190.895 27.589 192.734 28.1571 194.084 29.2934C195.434 30.4297 196.126 31.9878 196.16 33.9679V42.0511C196.183 43.7274 196.441 45.0099 196.936 45.8987V46.1855H191.249ZM187.689 42.473C188.397 42.473 188.982 42.3211 189.444 42.0174C189.916 41.7136 190.254 41.3705 190.456 40.988V38.0685H188.802C186.822 38.0685 185.832 38.9573 185.832 40.7348C185.832 41.2523 186.007 41.6742 186.356 42.0005C186.704 42.3155 187.149 42.473 187.689 42.473ZM211.579 33.0735L209.706 32.9385C207.917 32.9385 206.769 33.501 206.263 34.626V46.1855H200.576V27.9265H205.909L206.094 30.2722C207.05 28.4834 208.384 27.589 210.094 27.589C210.701 27.589 211.23 27.6565 211.68 27.7915L211.579 33.0735ZM223.335 46.5231C220.534 46.5231 218.267 45.6905 216.535 44.0255C214.802 42.3492 213.936 40.1723 213.936 37.4948V37.0223C213.936 35.1548 214.279 33.5066 214.965 32.0778C215.663 30.6491 216.675 29.5465 218.003 28.7703C219.33 27.9828 220.905 27.589 222.728 27.589C225.293 27.589 227.318 28.3878 228.803 29.9853C230.288 31.5716 231.03 33.7879 231.03 36.6341V38.8448H219.724C219.927 39.8686 220.371 40.673 221.057 41.258C221.743 41.843 222.632 42.1355 223.723 42.1355C225.523 42.1355 226.93 41.5055 227.942 40.2455L230.541 43.3168C229.832 44.2955 228.825 45.0774 227.52 45.6624C226.227 46.2362 224.832 46.5231 223.335 46.5231ZM222.694 31.9766C221.029 31.9766 220.039 33.0791 219.724 35.2841H225.462V34.8454C225.484 33.9341 225.253 33.231 224.77 32.736C224.286 32.2297 223.594 31.9766 222.694 31.9766Z" fill="black"/>
</svg>
