<svg width="127" height="66" viewBox="0 0 127 66" fill="none" xmlns="http://www.w3.org/2000/svg">
<path d="M18.5371 47H3.82901V21.4617H18.5371V25.8985H9.24412V31.5058H17.8908V35.9427H9.24412V42.5282H18.5371V47ZM28.5813 36.3794L30.9045 33.4098L36.3721 27.4707H42.3811L34.6252 35.9427L42.8527 47H36.704L31.0792 39.087L28.7909 40.9211V47H23.4631V19.8197H28.7909V31.9425L28.5114 36.3794H28.5813ZM49.8924 37.2004C49.8924 39.1335 50.2068 40.595 50.8356 41.5849C51.4761 42.5748 52.5126 43.0697 53.945 43.0697C55.3657 43.0697 56.3847 42.5806 57.0019 41.6024C57.6307 40.6125 57.9451 39.1452 57.9451 37.2004C57.9451 35.2673 57.6307 33.8174 57.0019 32.8508C56.373 31.8843 55.3424 31.401 53.91 31.401C52.4893 31.401 51.4645 31.8843 50.8356 32.8508C50.2068 33.8058 49.8924 35.2556 49.8924 37.2004ZM63.3952 37.2004C63.3952 40.3796 62.5567 42.8659 60.8798 44.6593C59.2028 46.4527 56.8679 47.3494 53.8751 47.3494C52.0002 47.3494 50.3465 46.9418 48.9141 46.1266C47.4818 45.2998 46.3813 44.1178 45.6127 42.5806C44.8441 41.0434 44.4598 39.25 44.4598 37.2004C44.4598 34.0096 45.2924 31.5291 46.9577 29.759C48.623 27.9889 50.9637 27.1038 53.9799 27.1038C55.8548 27.1038 57.5084 27.5114 58.9408 28.3266C60.3732 29.1418 61.4737 30.3122 62.2423 31.8377C63.0109 33.3632 63.3952 35.1508 63.3952 37.2004ZM78.6972 27.1038C79.4193 27.1038 80.019 27.1563 80.4965 27.2611L80.0947 32.2569C79.6638 32.1405 79.1398 32.0823 78.5226 32.0823C76.8223 32.0823 75.4948 32.519 74.5398 33.3924C73.5966 34.2658 73.1249 35.4885 73.1249 37.0607V47H67.7972V27.4707H71.8323L72.6183 30.7547H72.8804C73.4859 29.66 74.3011 28.7808 75.3259 28.117C76.3623 27.4416 77.4861 27.1038 78.6972 27.1038ZM96.4448 47L95.4142 44.3449H95.2744C94.3778 45.4745 93.4519 46.2605 92.497 46.703C91.5537 47.1339 90.3193 47.3494 88.7938 47.3494C86.9189 47.3494 85.4399 46.8137 84.3569 45.7423C83.2855 44.6709 82.7498 43.1454 82.7498 41.1657C82.7498 39.0928 83.4718 37.5672 84.9159 36.589C86.3715 35.5992 88.5609 35.0518 91.4839 34.947L94.8727 34.8422V33.9863C94.8727 32.0066 93.8595 31.0167 91.8332 31.0167C90.2728 31.0167 88.4386 31.4883 86.3308 32.4316L84.5665 28.8332C86.8141 27.657 89.3062 27.0689 92.0429 27.0689C94.6631 27.0689 96.6719 27.6395 98.0693 28.7808C99.4668 29.922 100.166 31.6572 100.166 33.9863V47H96.4448ZM94.8727 37.9515L92.8114 38.0214C91.2626 38.068 90.1097 38.3475 89.3528 38.8599C88.5958 39.3723 88.2173 40.1525 88.2173 41.2006C88.2173 42.7029 89.0791 43.454 90.8026 43.454C92.037 43.454 93.0211 43.0988 93.7547 42.3884C94.5 41.6781 94.8727 40.7348 94.8727 39.5586V37.9515ZM119.503 47L118.787 44.5021H118.507C117.936 45.4104 117.127 46.115 116.079 46.6157C115.031 47.1048 113.837 47.3494 112.498 47.3494C110.204 47.3494 108.475 46.738 107.31 45.5152C106.145 44.2808 105.563 42.5107 105.563 40.2049V27.4707H110.891V38.8773C110.891 40.2864 111.141 41.3462 111.642 42.0565C112.143 42.7553 112.941 43.1046 114.035 43.1046C115.526 43.1046 116.603 42.6097 117.267 41.6198C117.931 40.6183 118.262 38.9647 118.262 36.6589V27.4707H123.59V47H119.503Z" fill="black"/>
</svg>
