<svg width="195" height="66" viewBox="0 0 195 66" fill="none" xmlns="http://www.w3.org/2000/svg">
<path fill-rule="evenodd" clip-rule="evenodd" d="M5.19405 7.12571C2.81855 7.76348 1.23717 9.47479 0.697137 11.9922C0.445941 13.1642 0.294645 18.5497 0.294645 26.3263C0.294645 39.5901 0.42712 40.782 2.17789 43.2509C3.64887 45.3256 5.3515 45.8388 11.2437 45.9833L16.5826 46.1139V43.379V40.6437L12.9105 40.5406C9.35579 40.4407 9.21427 40.4048 8.47661 39.416C7.78129 38.4839 7.70384 37.827 7.5891 31.9054L7.4635 25.4163H11.2991H15.1347V22.3397V19.2631H11.2879H7.4407L7.60792 16.3718C7.84464 12.2875 8.13927 12.024 12.4762 12.024H15.8587V9.30938V6.59473L11.4247 6.61898C8.95475 6.63273 6.19485 6.85714 5.19405 7.12571ZM46.9867 26.3212V46.0477H50.0633C51.9429 46.0477 53.1399 45.9018 53.1399 45.6731C53.1399 45.4146 53.3574 45.4146 53.8399 45.6731C54.8834 46.2316 58.8103 46.1288 60.0029 45.512C62.5992 44.1695 63.5663 41.7784 64.0684 35.4638C64.587 28.9392 64.0379 21.1949 62.8819 18.7357C61.5224 15.8437 59.3405 14.8324 55.9559 15.5256L54.2257 15.8803V11.2375V6.59473H50.6062H46.9867V26.3212ZM92.9548 11.1235V15.6523L91.5244 15.4235C86.4385 14.6102 83.8777 17.8471 83.1296 26.036C82.7126 30.5988 83.1723 39.0109 83.9762 41.5233C84.6049 43.4876 87.0358 45.8754 88.7312 46.1932C90.2372 46.4759 92.523 46.1519 93.2853 45.5482C93.6675 45.2449 93.8347 45.2568 93.9487 45.5952C94.0533 45.9062 94.9966 46.0477 96.9663 46.0477H99.8319V26.3212V6.59473H96.3933H92.9548V11.1235ZM111.776 11.0305V15.4662L109.333 15.4644C107.329 15.463 106.67 15.6193 105.667 16.3345C104.265 17.3346 102.908 20.0225 102.368 22.8682C101.884 25.421 101.901 36.6644 102.393 39.3754C102.862 41.9554 104.127 44.2582 105.685 45.3679C107.067 46.3517 110.934 46.5327 111.988 45.6633C112.473 45.2622 112.653 45.2467 112.77 45.5952C112.875 45.9062 113.818 46.0477 115.788 46.0477H118.654V26.3212V6.59473H115.215H111.776V11.0305ZM147.972 11.0931V15.5911L146.069 15.3949C142.694 15.0467 140.397 16.6867 139.094 20.3739C138.27 22.706 137.873 29.3906 138.212 35.2003C138.557 41.103 139.353 43.425 141.626 45.1587C142.774 46.0343 143.303 46.1834 145.261 46.1834C146.72 46.1834 147.782 45.9945 148.183 45.6633C148.669 45.2622 148.848 45.2467 148.966 45.5952C149.07 45.9062 150.014 46.0477 151.983 46.0477H154.849V26.3212V6.59473H151.41H147.972V11.0931ZM25.8171 15.8079C24.8919 16.1499 24.2491 16.2158 24.0254 15.9921C23.8339 15.8007 22.4878 15.6436 21.0346 15.6436H18.3923V30.8456V46.0477H21.8309H25.2695V33.5603V21.0729H26.3426C27.0332 21.0729 27.5494 21.3226 27.7905 21.7729C28.0268 22.2145 28.1651 26.8272 28.1651 34.2603V46.0477H31.6036H35.0422V33.5603V21.0729H36.1154C36.806 21.0729 37.3221 21.3226 37.5632 21.7729C37.7996 22.2145 37.9378 26.8272 37.9378 34.2603V46.0477H41.3764H44.815V33.0742C44.815 20.2299 44.8066 20.0851 43.9814 18.5247C42.3587 15.4557 38.5524 14.4346 35.2605 16.1851L33.5614 17.0885L32.493 16.2987C31.1353 15.295 27.8574 15.0539 25.8171 15.8079ZM70.8756 16.0725C67.188 17.9695 65.6233 22.4537 65.6581 31.0266C65.6964 40.3835 67.6057 44.875 72.0545 46.0727C73.815 46.5468 76.8131 46.081 78.3083 45.1012C79.5835 44.2658 80.5231 42.2892 80.8362 39.7833L81.0979 37.6891L78.43 37.7966L75.762 37.9037L75.581 39.1706C75.4475 40.1062 75.2024 40.4656 74.6443 40.5453C73.355 40.7295 73.0484 39.8489 72.955 35.6925L72.8664 31.7505L77.1544 31.6481L81.4429 31.546L81.2767 26.7617C81.0588 20.4833 80.264 18.1671 77.667 16.2433C76.125 15.1006 72.921 15.0203 70.8756 16.0725ZM125.966 16.0519C125.111 16.4753 124.005 17.3538 123.509 18.0046C119.582 23.153 119.603 38.5661 123.545 43.7333C124.933 45.5533 126.398 46.1827 129.208 46.1664C133.292 46.1429 135.371 44.1507 135.887 39.7663L136.131 37.6891L133.455 37.7962L130.779 37.9037L130.598 39.1706C130.462 40.1268 130.223 40.4649 129.627 40.55C128.468 40.715 128.156 39.8119 127.863 35.449L127.604 31.5695H131.997H136.389V27.2641C136.389 20.5994 135.003 17.1124 131.825 15.7844C130.089 15.0594 127.756 15.1662 125.966 16.0519ZM75.1836 21.8507C75.4022 22.4776 75.581 23.7806 75.581 24.7463V26.5022H74.0807H72.5808L72.8045 24.1079C73.0296 21.6958 73.4697 20.7109 74.3232 20.7109C74.5777 20.7109 74.965 21.2238 75.1836 21.8507ZM92.5085 21.0132C92.8639 21.2386 92.945 23.4947 92.8705 31.0516C92.7742 40.761 92.7706 40.7997 91.984 40.9119C90.5945 41.1095 90.2854 39.8413 90.1243 33.2823C89.8735 23.0586 90.5163 19.7485 92.5085 21.0132ZM111.204 20.9306C111.707 21.1235 111.776 22.3582 111.776 31.0653V40.9803H110.884C109.315 40.9803 109.155 40.0573 109.149 30.9803C109.144 23.7231 109.227 22.4179 109.744 21.6285C110.409 20.6139 110.395 20.6204 111.204 20.9306ZM130.245 21.6393C130.439 22.15 130.598 23.4531 130.598 24.535V26.5022H129.108H127.618L127.877 24.059C128.019 22.7154 128.302 21.4124 128.506 21.1634C129.105 20.4329 129.865 20.6411 130.245 21.6393ZM147.399 20.9306C147.902 21.1235 147.972 22.3582 147.972 31.0653V40.9803H147.08C145.628 40.9803 145.361 39.8948 145.176 33.2284C144.993 26.6332 145.432 21.5293 146.224 21.0269C146.808 20.6566 146.707 20.665 147.399 20.9306ZM56.4753 21.8873C56.817 22.4856 56.9404 24.9089 56.9404 31.0266C56.9404 40.0534 56.7706 40.9803 55.118 40.9803H54.2257V31.0266V21.0729H55.118C55.6638 21.0729 56.1904 21.3889 56.4753 21.8873ZM2.64734 49.7693C0.0868833 51.2084 -0.724255 54.0103 0.690622 56.5277C1.60456 58.1536 2.95645 59.0103 5.06447 59.2992C6.72475 59.5268 9.51216 58.9593 9.91212 58.3128C10.4149 57.4992 9.46148 57.3157 7.81278 57.9085C6.27738 58.4605 5.95994 58.4681 4.59212 57.9849C0.123441 56.4068 0.762289 50.6575 5.46515 50.1273C6.53979 50.0064 7.48485 50.1323 8.20912 50.4936C9.12812 50.9522 9.38077 50.9634 9.71594 50.5594C10.0298 50.1816 9.87701 49.9492 9.02497 49.5087C7.39871 48.6675 4.38798 48.7906 2.64734 49.7693ZM13.9595 49.7682C12.0386 50.9308 11.3759 52.0373 11.3759 54.0823C11.3759 57.0739 13.3995 59.0284 16.7986 59.3198C20.761 59.6589 23.6957 57.1369 23.3406 53.6979C23.0337 50.7277 20.7686 48.9419 17.3123 48.9451C15.8793 48.9466 14.9328 49.1789 13.9595 49.7682ZM25.5109 49.1847C25.378 49.3172 25.2695 51.5975 25.2695 54.2521C25.2695 58.8366 25.3056 59.078 25.9934 59.078C26.6691 59.078 26.7173 58.8366 26.7173 55.4371C26.7173 53.4333 26.8606 51.8845 27.0358 51.9931C27.211 52.1014 28.2918 53.7396 29.4381 55.634C30.584 57.5281 31.6217 59.0733 31.7437 59.0679C31.8657 59.0624 32.9429 57.438 34.1373 55.4585C35.3318 53.479 36.4444 51.8545 36.6095 51.8491C36.7749 51.8436 36.7944 53.4677 36.6533 55.4585C36.4031 58.9901 36.4155 59.078 37.1672 59.078C37.9168 59.078 37.9378 58.939 37.9378 54.0107C37.9378 49.2441 37.8962 48.9433 37.2385 48.9433C36.7376 48.9433 35.8903 50.0179 34.2524 52.7308C32.9946 54.8142 31.8664 56.5244 31.7448 56.5313C31.6235 56.5385 30.4834 54.8388 29.2111 52.754C27.0912 49.2799 26.238 48.4572 25.5109 49.1847ZM40.4715 54.0107C40.4715 58.8366 40.5059 59.078 41.1954 59.078C41.8089 59.078 41.9193 58.8366 41.9193 57.4959V55.9138L43.6831 55.6796C46.662 55.2844 48.1963 53.0131 46.9972 50.773C46.5118 49.8656 44.0396 48.9433 42.0931 48.9433H40.4715V54.0107ZM48.7964 52.919C48.7964 56.7561 48.8316 56.9342 49.8034 58.0222C51.0605 59.4287 53.3665 59.8088 55.426 58.9481C57.3143 58.1594 57.8453 56.7202 57.8453 52.3935C57.8453 49.1847 57.7946 48.9433 57.1214 48.9433C56.4521 48.9433 56.3975 49.1847 56.3975 52.147C56.3975 53.909 56.2266 55.8411 56.0174 56.4405C55.3304 58.4117 52.6429 58.9759 51.1329 57.4655C50.3018 56.6348 50.2443 56.3304 50.2443 52.7601C50.2443 49.1847 50.1987 48.9433 49.5203 48.9433C48.8402 48.9433 48.7964 49.1847 48.7964 52.919ZM58.9311 49.6672C58.9311 50.2706 59.1726 50.3911 60.379 50.3911H61.8268V54.7346C61.8268 58.8366 61.867 59.078 62.5507 59.078C63.2344 59.078 63.2746 58.8366 63.2746 54.7346V50.3911H64.7224C65.9288 50.3911 66.1702 50.2706 66.1702 49.6672C66.1702 48.9914 65.9288 48.9433 62.5507 48.9433C59.1726 48.9433 58.9311 48.9914 58.9311 49.6672ZM67.618 54.0107C67.618 58.8366 67.6524 59.078 68.3419 59.078C69.0315 59.078 69.0658 58.8366 69.0658 54.0107C69.0658 49.1847 69.0315 48.9433 68.3419 48.9433C67.6524 48.9433 67.618 49.1847 67.618 54.0107ZM71.5995 54.0107C71.5995 58.8076 71.6375 59.078 72.3111 59.078C72.9673 59.078 73.0307 58.7798 73.1255 55.2464L73.2283 51.4144L76.3049 55.2424C80.5011 60.4636 80.6484 60.4219 80.6484 54.0107C80.6484 49.1847 80.614 48.9433 79.9245 48.9433C79.2458 48.9433 79.2006 49.1847 79.2006 52.7974V56.6515L76.0411 52.7974C71.7378 47.5476 71.5995 47.5853 71.5995 54.0107ZM85.2104 49.7635C82.608 51.2558 81.7397 54.2955 83.2725 56.548C84.7258 58.6831 85.8486 59.2594 88.5473 59.255C91.5189 59.2499 93.0297 58.4515 94.0482 56.3474C95.285 53.7928 95.1689 53.6487 91.8689 53.6487C89.5365 53.6487 88.9733 53.7544 88.9733 54.1916C88.9733 54.6086 89.4359 54.7346 90.964 54.7346C93.3135 54.7346 93.5531 55.2779 91.9232 56.9074C89.104 59.727 84.1032 57.864 84.1032 53.994C84.1032 51.0734 87.89 49.0747 90.7346 50.4936C91.6536 50.9522 91.9062 50.9634 92.2414 50.5594C92.5552 50.1816 92.4025 49.9492 91.5504 49.5087C89.9256 48.6686 86.9094 48.7898 85.2104 49.7635ZM100.556 53.9582V59.078L102.999 59.07C107.586 59.0552 109.96 57.0399 109.494 53.5575C109.098 50.6101 107.382 49.4106 103.041 49.0468L100.556 48.8383V53.9582ZM111.414 54.0107V59.078H114.491C116.985 59.078 117.568 58.9752 117.568 58.5351C117.568 58.1083 117.065 57.9922 115.215 57.9922H112.862V56.3634V54.7346H115.215C117.326 54.7346 117.568 54.6604 117.568 54.0107C117.568 53.361 117.326 53.2868 115.215 53.2868H112.862V51.8389V50.3911H115.215C117.326 50.3911 117.568 50.3169 117.568 49.6672C117.568 49.0001 117.326 48.9433 114.491 48.9433H111.414V54.0107ZM120.715 49.3454C119.74 49.9123 119.343 51.2699 119.782 52.5303C120.072 53.3624 120.548 53.7475 121.85 54.205C125.404 55.4549 126.179 56.3138 124.963 57.657C124.076 58.6372 122.429 58.543 121.335 57.4492C120.838 56.9515 120.194 56.5443 119.904 56.5443C118.45 56.5443 120.426 58.9705 122.143 59.2923C123.754 59.5945 126.125 58.9104 126.611 58.003C127.652 56.0571 126.568 54.4971 123.477 53.4931C121.316 52.7912 120.67 52.1756 121 51.1331C121.447 49.7259 124.378 49.6459 124.983 51.0245C125.457 52.1043 126.999 52.1766 126.719 51.1063C126.386 49.8305 124.866 48.9422 123.039 48.9542C122.12 48.9603 121.074 49.1362 120.715 49.3454ZM129.15 54.0107C129.15 58.8366 129.185 59.078 129.874 59.078C130.564 59.078 130.598 58.8366 130.598 54.0107C130.598 49.1847 130.564 48.9433 129.874 48.9433C129.185 48.9433 129.15 49.1847 129.15 54.0107ZM135.16 49.7635C133.594 50.6619 132.408 52.5458 132.408 54.1366C132.408 55.5859 133.704 57.7439 135.066 58.5637C136.722 59.5601 140.677 59.5315 142.041 58.5126C143.434 57.4731 144.304 56.2063 144.574 54.8251L144.805 53.6487H141.864C139.491 53.6487 138.923 53.7537 138.923 54.1916C138.923 54.6086 139.385 54.7346 140.914 54.7346C143.263 54.7346 143.503 55.2779 141.873 56.9074C139.826 58.9546 136.296 58.6111 134.676 56.2066C133.706 54.7682 133.656 53.9969 134.426 52.3739C135.407 50.3082 138.598 49.3921 140.805 50.5431C141.624 50.971 141.847 50.9742 142.188 50.5634C142.506 50.1801 142.357 49.9517 141.5 49.5087C139.875 48.6686 136.859 48.7898 135.16 49.7635ZM146.403 49.1847C146.271 49.3172 146.162 51.5975 146.162 54.2521C146.162 58.8366 146.198 59.078 146.886 59.078C147.564 59.078 147.61 58.8366 147.61 55.2775C147.61 53.1872 147.732 51.4868 147.881 51.4991C148.031 51.511 149.511 53.2212 151.171 55.2996C153.109 57.7247 154.437 59.078 154.881 59.078C155.529 59.078 155.573 58.7577 155.573 54.0107C155.573 49.2137 155.535 48.9433 154.861 48.9433C154.204 48.9433 154.142 49.2416 154.047 52.8173L153.944 56.6913L150.867 52.839C148.055 49.3179 147.073 48.5144 146.403 49.1847ZM20.6882 51.4343C21.66 52.4061 21.8255 52.8289 21.7947 54.2608C21.7647 55.6677 21.5717 56.1114 20.6212 56.9606C19.9954 57.5198 19.0743 58.0797 18.5737 58.2053C17.0929 58.5771 15.0986 58.0117 13.9946 56.9074C12.1381 55.0513 12.8515 51.406 15.2752 50.3643C15.6958 50.1834 16.8283 50.0932 17.7926 50.1635C19.181 50.2648 19.783 50.529 20.6882 51.4343ZM45.2388 50.9902C46.6971 52.3098 45.5457 54.3929 43.3005 54.4975L42.1003 54.5536L41.9917 52.4724L41.8831 50.3911H43.23C43.9756 50.3911 44.8725 50.6586 45.2388 50.9902ZM106.314 50.917C108.368 51.9794 108.679 55.2257 106.887 56.9088C106.242 57.5144 105.431 57.7978 103.997 57.9165L102.004 58.0819V54.2365V50.3911H103.651C104.556 50.3911 105.755 50.6278 106.314 50.917Z" fill="black"/>
</svg>
