<svg width="202" height="36" viewBox="0 0 202 36" fill="none" xmlns="http://www.w3.org/2000/svg">
<path fill-rule="evenodd" clip-rule="evenodd" d="M36.3062 16.4603C36.3062 14.2915 35.8731 12.1441 35.0319 10.1415C34.1907 8.13885 32.9579 6.3205 31.4043 4.79092C29.8508 3.26133 28.0071 2.05068 25.9793 1.22853C23.9514 0.406383 21.7794 -0.0110499 19.5881 0.000222346C19.0003 0.000222346 18.4297 0.000222348 17.8592 0.0857737L17.4789 1.18083C21.5268 2.58472 25.204 4.87135 28.2384 7.87155C31.2729 10.8718 33.587 14.5088 35.0095 18.5135L36.116 18.12C36.116 17.8544 36.1404 17.5889 36.1656 17.3155V17.3154V17.3153V17.3152V17.3151V17.315C36.1922 17.0249 36.2197 16.726 36.2197 16.409L36.3062 16.4603ZM26.8031 9.31975C30.8546 13.3295 33.485 18.53 34.3007 24.1428C33.5708 25.4727 32.6701 26.7034 31.621 27.8044H29.1487C29.1395 22.2861 26.9193 16.9967 22.975 13.0962C19.0307 9.19582 13.6843 7.00285 8.10845 6.99832V4.55155C9.21944 3.50387 10.4701 2.61156 11.8255 1.89946C17.4969 2.70672 22.7515 5.31003 26.8031 9.31975ZM11.5499 28.1847C11.831 27.7682 11.9811 27.2786 11.9811 26.7778C11.9811 26.4452 11.9149 26.1159 11.7863 25.8087C11.6578 25.5015 11.4693 25.2223 11.2317 24.9872C10.9941 24.752 10.712 24.5655 10.4016 24.4382C10.0911 24.311 9.7584 24.2455 9.42239 24.2455C8.91632 24.2455 8.42162 24.394 8.00084 24.6722C7.58006 24.9505 7.25211 25.346 7.05844 25.8087C6.86478 26.2714 6.81411 26.7806 6.91284 27.2718C7.01157 27.763 7.25526 28.2143 7.6131 28.5684C7.97095 28.9226 8.42686 29.1637 8.92321 29.2615C9.41955 29.3592 9.93402 29.309 10.4016 29.1173C10.8691 28.9257 11.2687 28.6011 11.5499 28.1847ZM5.82345 30.2289C9.5301 33.8813 14.5477 35.9318 19.7783 35.9318C22.3892 35.979 24.9834 35.5099 27.4089 34.5521C29.8343 33.5943 32.0421 32.167 33.903 30.3538L32.8484 29.3101C31.1511 31.0049 29.1314 32.3501 26.9058 33.2681C24.6803 34.1862 22.2931 34.6589 19.882 34.6589C17.4709 34.6589 15.0837 34.1862 12.8581 33.2681C10.6326 32.3501 8.61288 31.0049 6.91553 29.3101C5.2031 27.6303 3.84384 25.6314 2.91623 23.4288C1.98862 21.2262 1.51102 18.8636 1.51102 16.4774C1.51102 14.0912 1.98862 11.7286 2.91623 9.52602C3.84384 7.32345 5.2031 5.32455 6.91553 3.64471L5.79177 2.60098C3.94912 4.41433 2.48838 6.57154 1.49421 8.94763C0.500038 11.3237 -0.00781141 13.8714 9.08204e-05 16.4432C0.0229517 21.6197 2.1168 26.5765 5.82345 30.2289ZM19.5535 28.9337C19.7318 27.0075 19.4111 25.0682 18.6215 23.2988C17.832 21.5295 16.5998 19.9885 15.0412 18.8215C13.3714 17.5202 11.3633 16.7134 9.24949 16.4945C8.98521 16.4604 8.7438 16.3284 8.57381 16.1253C8.40381 15.9221 8.31785 15.6628 8.3332 15.3995C8.34399 15.2651 8.38184 15.1343 8.44453 15.0147C8.50722 14.8951 8.59347 14.7891 8.6982 14.7029C8.80294 14.6168 8.92403 14.5523 9.05434 14.5133C9.18465 14.4742 9.32155 14.4614 9.45696 14.4755C13.0251 14.8427 16.3012 16.5932 18.569 19.3442C20.8368 22.0952 21.9118 25.6229 21.559 29.1561C21.4878 29.9391 21.3372 30.7129 21.1095 31.466L24.1177 32.3044C25.008 32.0511 25.8754 31.7248 26.711 31.3291C26.9348 30.1732 27.0448 28.9985 27.0395 27.8215C27.0343 23.3287 25.4054 18.9858 22.4471 15.5779C19.4888 12.17 15.3963 9.92186 10.9092 9.23977C9.90908 9.05782 8.88382 9.05782 7.8837 9.23977C6.61767 9.57079 5.48006 10.2678 4.61615 11.2417C3.91962 12.0398 3.43322 12.996 3.20019 14.0251C2.96717 15.0542 2.99475 16.1243 3.28048 17.1403C3.56622 18.1563 4.10125 19.0867 4.83799 19.8487C5.57472 20.6106 6.49032 21.1806 7.50335 21.5078C8.03924 21.6343 8.58177 21.7314 9.12848 21.7987C10.5406 22.037 11.8221 22.7621 12.746 23.8456C13.6699 24.9291 14.1767 26.3011 14.1768 27.7189C14.1767 28.8668 13.8404 29.99 13.2086 30.9527L15.2832 32.2702C16.3001 32.5462 17.3428 32.7182 18.3952 32.7835C19.0154 31.5518 19.4021 30.2179 19.5362 28.8481L19.5535 28.9337ZM180.113 5.42418H183.933V30.5763H180.113V5.42418ZM118.237 20.0706C119.026 19.7121 119.689 19.1275 120.139 18.3924C120.589 17.6572 120.805 16.8054 120.761 15.947V9.94129C120.779 9.32343 120.668 8.70851 120.436 8.13461C120.204 7.56071 119.856 7.04002 119.412 6.60479C118.578 5.83306 117.477 5.40482 116.335 5.40707H105.305V30.6105H109.143V20.5325H113.067C113.912 20.5255 114.729 20.8243 115.366 21.3727C116.003 21.9212 116.415 22.6813 116.525 23.5097L118.029 30.6447H122.213L120.588 23.9546C120.51 23.1873 120.257 22.4474 119.85 21.7898C119.443 21.1322 118.892 20.5738 118.237 20.1561V20.0706ZM109.143 8.966H115.713C115.891 8.97412 116.066 9.0186 116.226 9.09664C116.386 9.17467 116.528 9.2846 116.643 9.41952C116.758 9.55444 116.844 9.71146 116.895 9.88074C116.946 10.05 116.962 10.2279 116.94 10.4033V15.5363C116.962 15.7117 116.946 15.8896 116.895 16.0589C116.844 16.2281 116.758 16.3852 116.643 16.5201C116.528 16.655 116.386 16.7649 116.226 16.843C116.066 16.921 115.891 16.9655 115.713 16.9736H109.143V8.966ZM49.2556 8.19288C49.4877 7.60384 49.8408 7.06889 50.2926 6.62189H50.2408C51.081 5.85884 52.1778 5.43198 53.3181 5.42418H63.6913V8.966H54.0097C53.8307 8.97433 53.6554 9.01878 53.4945 9.09662C53.3335 9.17447 53.1903 9.28406 53.0738 9.41867C52.9572 9.55328 52.8696 9.71006 52.8165 9.87938C52.7634 10.0487 52.7458 10.227 52.7649 10.4033V15.639H62.239V19.1637H52.8168V25.6314C52.7977 25.8077 52.8153 25.986 52.8684 26.1553C52.9215 26.3246 53.009 26.4814 53.1256 26.616C53.2422 26.7506 53.3854 26.8602 53.5463 26.938C53.7073 27.0159 53.8826 27.0603 54.0615 27.0687H63.7431V30.6618H53.37C52.2283 30.6607 51.1292 30.2329 50.2926 29.4641C49.8491 29.0289 49.5006 28.5082 49.2687 27.9343C49.0367 27.3604 48.9263 26.7455 48.9441 26.1276V10.0439C48.9174 9.41224 49.0234 8.78193 49.2556 8.19288ZM192.318 8.966H202V5.42418H191.627C190.486 5.43198 189.39 5.85884 188.549 6.62189C188.101 7.07132 187.75 7.60669 187.518 8.19514C187.286 8.78359 187.178 9.41272 187.201 10.0439V30.5763H191.022V19.1637H200.548V15.639H191.004V10.4033C190.985 10.227 191.003 10.0487 191.056 9.87938C191.109 9.71006 191.197 9.55328 191.313 9.41867C191.43 9.28406 191.573 9.17447 191.734 9.09662C191.895 9.01878 192.07 8.97433 192.249 8.966H192.318ZM72.2146 15.639H78.1446C78.7362 15.6367 79.3223 15.7509 79.8689 15.9749C80.4155 16.199 80.9116 16.5284 81.3283 16.944C81.745 17.3596 82.074 17.8531 82.2962 18.3957C82.5183 18.9384 82.6292 19.5193 82.6223 20.1048V26.0934C82.6481 26.6834 82.5525 27.2725 82.3414 27.8249C82.1303 28.3774 81.8081 28.8816 81.3943 29.3072C80.9805 29.7327 80.4837 30.0707 79.934 30.3006C79.3843 30.5305 78.7932 30.6476 78.1964 30.6447H67.028V27.1029H77.5568C77.7357 27.0946 77.911 27.0501 78.072 26.9723C78.2329 26.8944 78.3761 26.7848 78.4927 26.6502C78.6093 26.5156 78.6968 26.3588 78.7499 26.1895C78.803 26.0202 78.8206 25.8419 78.8016 25.6656V20.9774C78.8016 20.6189 78.6576 20.2751 78.4015 20.0216C78.1454 19.7681 77.798 19.6257 77.4357 19.6257H71.4885C70.3039 19.6212 69.1694 19.1523 68.3334 18.3217C67.4974 17.4911 67.028 16.3665 67.028 15.1941V10.0439C67.0013 9.41224 67.1073 8.78193 67.3395 8.19288C67.5716 7.60384 67.9247 7.06889 68.3765 6.62189C69.2168 5.85884 70.3135 5.43198 71.4539 5.42418H81.6023V8.966H72.1109C71.9325 8.97412 71.7578 9.0186 71.5977 9.09663C71.4376 9.17467 71.2954 9.2846 71.1802 9.41952C71.0649 9.55444 70.9791 9.71146 70.928 9.88073C70.877 10.05 70.8618 10.2279 70.8834 10.4033V14.2873C70.8832 14.6399 71.0224 14.9787 71.2711 15.2312C71.5198 15.4837 71.8584 15.6301 72.2146 15.639ZM125.602 6.62189C125.15 7.06889 124.797 7.60384 124.565 8.19288C124.333 8.78193 124.226 9.41224 124.253 10.0439V26.1276C124.235 26.7455 124.346 27.3604 124.578 27.9343C124.81 28.5082 125.158 29.0289 125.602 29.4641C126.438 30.2329 127.537 30.6607 128.679 30.6618H139.052V27.0687H129.371C129.192 27.0605 129.018 27.0161 128.857 26.938C128.697 26.86 128.555 26.7501 128.44 26.6151C128.325 26.4802 128.239 26.3232 128.188 26.1539C128.137 25.9847 128.122 25.8068 128.143 25.6314V19.1637H137.669V15.639H128.074V10.4033C128.052 10.2279 128.068 10.05 128.119 9.88073C128.17 9.71146 128.256 9.55444 128.371 9.41952C128.486 9.2846 128.628 9.17467 128.788 9.09663C128.948 9.0186 129.123 8.97412 129.301 8.966H138.983V5.42418H128.61C127.47 5.43198 126.373 5.85884 125.533 6.62189H125.602ZM147.524 15.639H153.454V15.6048C154.041 15.6025 154.623 15.7151 155.166 15.9359C155.709 16.1567 156.203 16.4815 156.619 16.8917C157.035 17.3018 157.365 17.7892 157.59 18.3259C157.815 18.8626 157.931 19.4381 157.931 20.0192V26.0078C157.96 26.6413 157.853 27.2736 157.618 27.8633C157.383 28.4531 157.024 28.9869 156.566 29.4299C155.738 30.2038 154.644 30.638 153.505 30.6447H142.337V27.1029H152.866C153.044 27.0948 153.219 27.0503 153.379 26.9722C153.539 26.8942 153.681 26.7843 153.796 26.6494C153.912 26.5144 153.998 26.3574 154.049 26.1881C154.1 26.0189 154.115 25.841 154.093 25.6656V20.9774C154.093 20.6189 153.949 20.2751 153.693 20.0216C153.437 19.7681 153.09 19.6257 152.727 19.6257H146.798C146.21 19.6257 145.629 19.511 145.087 19.288C144.544 19.0651 144.052 18.7384 143.637 18.3267C143.223 17.915 142.895 17.4263 142.672 16.8887C142.448 16.3512 142.335 15.7753 142.337 15.1941V10.0439C142.31 9.41224 142.416 8.78193 142.648 8.19288C142.881 7.60384 143.234 7.06889 143.686 6.62189C144.52 5.85997 145.611 5.43295 146.746 5.42418H156.911V8.966H147.385C147.207 8.97412 147.032 9.0186 146.872 9.09663C146.712 9.17467 146.57 9.2846 146.455 9.41952C146.339 9.55444 146.254 9.71146 146.202 9.88073C146.151 10.05 146.136 10.2279 146.158 10.4033V14.2873C146.158 14.4648 146.193 14.6406 146.262 14.8046C146.33 14.9686 146.431 15.1176 146.558 15.2431C146.685 15.3686 146.835 15.4682 147.001 15.5361C147.167 15.604 147.344 15.639 147.524 15.639ZM172.194 15.639H166.264C165.902 15.639 165.555 15.4966 165.299 15.2431C165.043 14.9896 164.899 14.6458 164.899 14.2873V10.4033C164.877 10.2279 164.892 10.05 164.943 9.88073C164.994 9.71146 165.08 9.55444 165.196 9.41952C165.311 9.2846 165.453 9.17467 165.613 9.09663C165.773 9.0186 165.948 8.97412 166.126 8.966H175.652V5.42418H165.504C164.363 5.43198 163.267 5.85884 162.426 6.62189C161.975 7.06889 161.621 7.60384 161.389 8.19288C161.157 8.78193 161.051 9.41224 161.078 10.0439V15.1941C161.078 16.3665 161.547 17.4911 162.383 18.3217C163.219 19.1523 164.354 19.6212 165.538 19.6257H171.486C171.848 19.6257 172.195 19.7681 172.451 20.0216C172.708 20.2751 172.851 20.6189 172.851 20.9774V25.6656C172.871 25.8419 172.853 26.0202 172.8 26.1895C172.747 26.3588 172.659 26.5156 172.543 26.6502C172.426 26.7848 172.283 26.8944 172.122 26.9723C171.961 27.0501 171.786 27.0946 171.607 27.1029H161.078V30.6447H172.246C172.843 30.6476 173.434 30.5305 173.984 30.3006C174.534 30.0707 175.03 29.7327 175.444 29.3072C175.858 28.8816 176.18 28.3774 176.391 27.8249C176.602 27.2725 176.698 26.6834 176.672 26.0934V20.1048C176.679 19.5193 176.568 18.9384 176.346 18.3957C176.124 17.8531 175.795 17.3596 175.378 16.944C174.961 16.5284 174.465 16.199 173.919 15.9749C173.372 15.7509 172.786 15.6367 172.194 15.639ZM86.08 5.40707H97.6461C98.7834 5.40399 99.8786 5.83265 100.706 6.60479C101.152 7.03918 101.503 7.55932 101.738 8.13314C101.973 8.70697 102.086 9.32233 102.072 9.94129V16.2036C102.101 16.8371 101.994 17.4694 101.759 18.0591C101.523 18.6489 101.165 19.1827 100.706 19.6257C99.8786 20.3978 98.7834 20.8265 97.6461 20.8234H89.9008V30.6105H86.08V5.40707ZM98.1892 16.384C98.2403 16.2147 98.2555 16.0368 98.2339 15.8614V10.369C98.2555 10.1937 98.2403 10.0158 98.1892 9.84651C98.1382 9.67724 98.0523 9.52022 97.9371 9.3853C97.8219 9.25038 97.6797 9.14046 97.5196 9.06242C97.3594 8.98438 97.1847 8.9399 97.0064 8.93178H89.9008V17.2987H97.0064C97.1847 17.2906 97.3594 17.2461 97.5196 17.1681C97.6797 17.09 97.8219 16.9801 97.9371 16.8452C98.0523 16.7103 98.1382 16.5532 98.1892 16.384Z" fill="black"/>
</svg>
