<svg width="160" height="161" viewBox="0 0 160 161" fill="none" xmlns="http://www.w3.org/2000/svg">
<path fill-rule="evenodd" clip-rule="evenodd" d="M22.0025 14.9092C21.1787 15.0375 20.395 15.2039 20.2606 15.2793C20.0816 15.3794 21.5694 16.8017 25.8136 20.588C29.0023 23.4324 31.6111 25.8321 31.6111 25.9205C31.6111 26.1108 18.6234 40.5294 18.4519 40.5294C18.3874 40.5294 15.6572 38.1576 12.3848 35.2588C5.658 29.2996 6.31388 29.6119 6.09326 32.2633C5.83098 35.4141 6.56318 38.9316 8.13414 42.0672C10.7421 47.273 15.4596 50.8825 21.2081 52.0707C23.5033 52.545 27.3576 52.4726 29.3908 51.9171L30.6709 51.5673L31.0983 51.9598C31.9282 52.7219 45.3662 64.6249 45.6497 64.8491C45.907 65.0526 46.0119 64.9274 46.6512 63.653C47.6358 61.6903 49.3539 58.9682 50.8926 56.9328C52.1969 55.2073 55.6799 51.5723 57.3768 50.1653L58.2973 49.4022L50.9971 42.9154L43.6968 36.4285L43.6604 33.4383C43.6288 30.8256 43.568 30.2388 43.179 28.7897C40.6578 19.3972 31.5437 13.4231 22.0025 14.9092ZM133.553 14.7535C128.909 15.4515 125.654 16.9839 122.579 19.9195C119.733 22.6376 118.011 25.6886 117.119 29.5938C116.851 30.7651 116.763 31.7671 116.75 33.7982L116.733 36.4648L109.45 42.9161L102.167 49.3674L103.644 50.6069C107.458 53.8066 110.615 57.7237 113.286 62.5714C113.908 63.6992 114.476 64.7105 114.55 64.8189C114.638 64.948 117.296 62.7015 122.28 58.2843C128.074 53.1508 129.952 51.5769 130.194 51.6538C132.723 52.457 136.6 52.6255 139.404 52.0538C146.724 50.5609 152.411 44.9069 154.078 37.4638C154.449 35.809 154.551 32.1988 154.269 30.7215L154.125 29.9699L148.098 35.3104C144.782 38.2476 142.044 40.6235 142.012 40.59C141.98 40.5567 138.989 37.2243 135.365 33.1848C129.188 26.3001 128.794 25.8229 129.072 25.5639C129.236 25.4119 131.853 23.0755 134.89 20.3717C138.032 17.5733 140.346 15.3915 140.261 15.3068C139.856 14.9015 135.15 14.5134 133.553 14.7535ZM76.0932 45.4871C72.5744 45.9411 69.3603 46.9224 66.0186 48.5631C55.7325 53.6131 48.3137 63.5861 45.8102 75.7283C45.176 78.8041 45.0217 80.5685 45.0324 84.6135C45.0463 89.8033 45.5884 93.2543 47.1283 97.9559C49.3702 104.801 53.9072 111.53 59.142 115.774L60.2726 116.69L59.9296 117.349C59.7409 117.711 59.5005 118.51 59.3954 119.123C58.8909 122.071 60.45 125.09 63.1681 126.429C64.222 126.949 64.427 126.989 66.015 126.989C67.5142 126.989 67.847 126.932 68.7025 126.531C71.1133 125.4 72.7635 122.771 72.7635 120.06C72.7635 119.464 72.8106 119.385 73.169 119.385C73.557 119.385 73.5776 119.446 73.6487 120.795C73.7815 123.313 75.0193 125.203 77.2569 126.303C79.9322 127.618 82.7584 127.161 84.8525 125.076C86.0939 123.84 86.6388 122.6 86.7341 120.795L86.8084 119.385H87.4058C87.975 119.385 87.9987 119.409 87.9039 119.883C87.746 120.674 88.1012 122.41 88.6389 123.477C88.9285 124.05 89.5271 124.816 90.0843 125.326C93.3663 128.327 98.5573 127.255 100.479 123.179C100.96 122.159 101.02 121.866 101.02 120.496C101.021 119.195 100.949 118.787 100.548 117.847L100.075 116.737L100.891 116.054C102.526 114.685 105.44 111.744 106.666 110.224C110.042 106.039 112.794 100.511 114.168 95.1588C116.74 85.1406 115.626 74.3808 111.082 65.3433C104.103 51.4619 90.3357 43.6491 76.0932 45.4871ZM67.4591 74.7219C70.0022 75.3461 71.8221 76.6396 73.4282 78.9644C74.1572 80.0195 74.3435 80.4361 74.4205 81.1821C74.6886 83.7812 72.3043 86.3881 68.2954 87.8795C66.4301 88.5735 63.7378 89.8335 63.0057 90.355C62.3581 90.8165 61.6706 92.3019 61.6472 93.29C61.6213 94.3911 61.4389 94.8439 60.9203 95.0939C60.4934 95.2996 60.3517 95.2755 59.4779 94.8477C58.2022 94.2231 56.2641 92.2699 55.6412 90.9811C55.3808 90.4423 55.0936 89.6097 55.0027 89.1306C54.1332 84.5426 54.5316 82.0751 56.6133 79.1558C57.5677 77.8177 59.2913 76.2064 60.421 75.5961C62.3625 74.5474 65.2748 74.1857 67.4591 74.7219ZM97.7148 74.6925C99.9646 75.1697 101.942 76.5528 103.703 78.8803C105.434 81.1683 106.021 83.1502 105.83 86.0583C105.558 90.2137 104.552 92.2788 101.867 94.1963C99.8875 95.6094 99.0298 95.3792 98.8155 93.3778C98.6701 92.0193 98.0723 90.6797 97.3965 90.1982C96.7493 89.737 93.9129 88.4175 92.3769 87.8631C90.8838 87.3241 90.3861 87.066 88.867 86.0421C86.9491 84.7495 86.0207 83.2337 86.0374 81.4232C86.0492 80.1598 86.6299 79.082 88.2168 77.3791C89.5149 75.986 90.9031 75.1901 92.8649 74.7146C94.155 74.4019 96.2982 74.3921 97.7148 74.6925ZM81.2627 95.107C82.9856 97.2542 84.2936 104.287 83.355 106.357C82.82 107.536 82.5244 107.306 81.9758 105.283C80.9758 101.595 79.8119 101.573 78.4022 105.216C77.7424 106.921 77.4051 107.235 77.0566 106.47C76.6828 105.649 76.6495 104.619 76.9337 102.679C77.3754 99.6656 78.5011 96.2944 79.4614 95.1094C80.0314 94.4061 80.6995 94.4053 81.2627 95.107ZM37.429 106.732C30.5202 112.875 30.3426 113.018 29.8303 112.868C27.6071 112.217 24.4337 112.059 21.8923 112.471C12.2243 114.04 5.17288 123.058 6.14892 132.604C6.24369 133.531 6.34461 134.313 6.37296 134.342C6.40147 134.37 9.14861 131.978 12.4778 129.025C15.8071 126.073 18.5464 123.657 18.5653 123.657C18.6 123.657 30.2343 136.539 31.2493 137.701L31.8005 138.333L25.6507 143.8C21.182 147.774 19.5806 149.293 19.7929 149.357C21.5756 149.897 24.5119 150.157 26.6003 149.96C35.2088 149.145 42.0846 142.686 43.5031 134.081C43.6993 132.891 43.7439 131.858 43.67 130.217L43.569 127.977L49.1577 123.04C52.2315 120.325 54.9745 117.901 55.2534 117.654L55.7604 117.203L54.4163 115.774C52.301 113.524 50.7686 111.619 49.2868 109.395C47.8726 107.273 45.7926 103.362 45.0809 101.487C44.8581 100.899 44.6369 100.424 44.5895 100.43C44.542 100.437 41.3198 103.273 37.429 106.732ZM115.405 101.479C113.439 106.386 110.317 111.209 106.505 115.226L104.696 117.133L106.104 118.399C106.879 119.096 109.549 121.46 112.037 123.652C114.526 125.845 116.653 127.723 116.762 127.826C116.911 127.966 116.919 128.431 116.795 129.637C116.68 130.754 116.687 131.81 116.817 133.021C117.985 143.906 128.048 151.579 138.715 149.718C141.295 149.267 141.689 149.866 134.773 143.733L128.625 138.281L129.168 137.673C135.338 130.763 141.829 123.656 141.934 123.694C142.01 123.721 144.737 126.111 147.996 129.007C152.336 132.863 153.972 134.22 154.11 134.081C154.235 133.956 154.294 132.921 154.284 131.038C154.27 128.551 154.212 127.975 153.832 126.549C152.326 120.903 148.812 116.565 143.733 114.082C141.202 112.845 139.164 112.357 136.114 112.258C134.037 112.19 133.355 112.235 131.88 112.539C130.912 112.739 130.029 112.845 129.916 112.775C129.803 112.705 126.714 109.999 123.051 106.761C119.389 103.522 116.267 100.768 116.114 100.639C115.866 100.429 115.79 100.52 115.405 101.479Z" fill="white"/>
</svg>
