<svg width="160" height="161" viewBox="0 0 160 161" fill="none" xmlns="http://www.w3.org/2000/svg">
<circle cx="80.5" cy="80.4082" r="70" stroke="white" stroke-width="11"/>
<path d="M125.098 88.5539C124.738 88.8737 123.547 89.1261 122.602 89.3892C116.857 90.9612 98.3041 96.033 92.5483 97.6019C91.6 97.8627 90.8303 97.2786 90.8303 96.2907V88.5332C90.8311 88.2994 90.7856 88.0676 90.6966 87.8514C90.6075 87.6351 90.4766 87.4386 90.3114 87.2731C90.1461 87.1075 89.9498 86.9763 89.7337 86.8868C89.5176 86.7974 89.2859 86.7515 89.0521 86.7519H56.064C55.8307 86.7522 55.5996 86.7066 55.384 86.6175C55.1684 86.5284 54.9725 86.3977 54.8075 86.2328C54.6425 86.0679 54.5116 85.8721 54.4224 85.6565C54.3331 85.441 54.2873 85.21 54.2875 84.9767V75.9499C54.2876 75.4776 54.1001 75.0245 53.7663 74.6904C53.4326 74.3563 52.9797 74.1684 52.5074 74.1681H36.6732C36.5251 74.1689 36.3783 74.1406 36.2412 74.0846C36.1041 74.0287 35.9794 73.9462 35.8743 73.842C35.7691 73.7377 35.6855 73.6138 35.6283 73.4772C35.5711 73.3406 35.5415 73.1941 35.541 73.046C35.541 72.6853 35.6954 72.4346 35.8841 72.2574C36.2417 71.9293 37.4376 71.6733 38.3877 71.4142L68.3175 63.2341C69.2658 62.9745 70.0307 63.5587 70.0307 64.543V72.3915C70.032 72.8629 70.22 73.3146 70.5537 73.6475C70.8873 73.9805 71.3394 74.1677 71.8107 74.1681H104.773C105.246 74.1682 105.699 74.3559 106.033 74.69C106.368 75.024 106.556 75.4772 106.556 75.9499V84.8856C106.556 85.8705 107.35 86.6692 108.329 86.6692H124.32C124.618 86.6692 124.905 86.7877 125.116 86.9988C125.328 87.2098 125.447 87.4961 125.447 87.7948C125.447 88.1435 125.287 88.3841 125.098 88.5539ZM106.556 102.94C106.556 103.925 105.787 104.924 104.836 105.187L92.5483 108.541C91.6 108.802 90.8339 108.214 90.8339 107.235V102.651C90.8339 101.669 91.6291 100.866 92.6121 100.866H104.773C105.246 100.867 105.699 101.056 106.033 101.39C106.367 101.725 106.556 102.178 106.556 102.651V102.94ZM70.0083 112.922C70.0083 113.902 69.2385 114.915 68.292 115.168L56.0037 118.532C55.0572 118.79 54.2875 118.202 54.2875 117.217V93.5712C54.2876 93.3374 54.3339 93.1059 54.4237 92.89C54.5134 92.674 54.6449 92.4779 54.8105 92.3129C54.9761 92.1478 55.1727 92.0171 55.3889 91.9281C55.6051 91.8391 55.8368 91.7936 56.0706 91.7942H68.2265C68.6983 91.7938 69.1511 91.9807 69.4852 92.3139C69.8193 92.6471 70.0074 93.0993 70.0083 93.5712V112.922ZM54.2875 58.1398C54.2875 57.1603 55.0572 56.1535 56.009 55.8922L68.2885 52.5371C69.2385 52.2723 70.0083 52.8635 70.0083 53.8426V58.4248C70.0088 58.8971 69.8218 59.3503 69.4884 59.6848C69.1549 60.0192 68.7023 60.2076 68.23 60.2084H56.0706C55.8363 60.2086 55.6044 60.1626 55.3879 60.073C55.1715 59.9834 54.9748 59.852 54.8092 59.6864C54.6436 59.5207 54.5123 59.324 54.4227 59.1075C54.3332 58.8911 54.2872 58.6591 54.2875 58.4248V58.1398ZM90.8303 48.1559C90.8303 47.1711 91.6 46.1678 92.5483 45.9048L104.836 42.5479C105.787 42.2884 106.556 42.8795 106.556 43.8569V67.5036C106.556 67.9765 106.368 68.4301 106.034 68.7645C105.699 69.0989 105.246 69.2869 104.773 69.2871H92.6121C92.378 69.287 92.1462 69.2408 91.93 69.1511C91.7137 69.0614 91.5173 68.93 91.3518 68.7644C91.1864 68.5988 91.0552 68.4022 90.9657 68.1859C90.8762 67.9695 90.8302 67.7377 90.8303 67.5036V48.1559Z" fill="white"/>
</svg>
