<svg width="160" height="161" viewBox="0 0 160 161" fill="none" xmlns="http://www.w3.org/2000/svg">
<path d="M32.5156 151.181C33.429 151.638 41.1519 153.03 64.2404 155.514C63.488 154.227 63.5416 154.254 62.993 153.158C38.7345 151.185 32.9416 151.029 32.5156 151.181Z" stroke="black" stroke-width="1.57905" stroke-linejoin="round"/>
<path d="M84.4277 151.076C108.004 152.443 120.304 152.052 131.042 151.564C110.298 151.076 109.175 150.588 84.4277 151.076Z" stroke="black" stroke-width="1.57905" stroke-linejoin="round"/>
<path d="M63.6926 140.455C63.0865 131.821 62.7271 126.942 61.7188 116.77H81.8516V137.297C78.0064 138.624 75.0549 139.387 71.8672 139.841C77.4642 139.104 83.1169 141.137 84.1367 148.646C84.9465 154.61 76.4798 158.806 71.3261 158.512C66.1724 158.217 63.6926 156.377 62.7121 152.327C61.9355 149.12 60.7743 141.461 71.5379 139.887C69.2117 140.202 66.7406 140.359 63.6926 140.455Z" fill="white"/>
<path d="M61.7188 116.77C62.7271 126.942 63.0865 131.821 63.6926 140.455C71.0846 140.222 75.0836 139.632 81.8516 137.297V116.77H61.7188ZM71.8667 139.842C60.7509 141.307 61.9277 149.088 62.7121 152.327C63.6926 156.377 66.1724 158.217 71.3261 158.512C76.4798 158.806 84.9465 154.61 84.1367 148.646C83.1168 141.137 77.4638 139.104 71.8667 139.842ZM71.3261 142.388C74.4183 142.388 79.5278 143.507 79.6456 147.689C79.7928 152.916 76.038 154.757 72.7986 154.683C69.5591 154.61 65.3763 152.78 64.9208 148.646C64.4652 144.513 68.7148 142.388 71.3261 142.388Z" stroke="black" stroke-width="1.57905" stroke-linecap="round" stroke-linejoin="round"/>
<path d="M69.2205 139.993C69.1508 143.48 69.317 150.464 70.539 150.506C72.0664 150.558 74.5963 150.4 75.0442 150.031C75.4025 149.736 74.6665 142.777 74.2537 139.334" stroke="black" stroke-width="1.57905"/>
<path d="M75.2692 144.549C75.5378 143.422 74.8394 142.24 71.6716 142.133C70.4365 142.02 68.1285 142.884 68.0748 144.925C68.0211 146.965 71.6716 147.663 72.9067 147.555C74.1418 147.448 75.0005 145.676 75.2692 144.549Z" stroke="black" stroke-width="2.36857"/>
<path d="M62.4395 122.484L81.4991 122.968" stroke="black" stroke-width="1.57905" stroke-linejoin="round"/>
<path d="M81.5076 124.958C73.9627 125.02 69.8047 124.741 62.3828 124.202" stroke="black" stroke-width="1.57905" stroke-linejoin="round"/>
<path d="M81.55 127.423C75.7522 127.681 66.7506 126.528 62.9746 125.92" stroke="black" stroke-width="1.57905" stroke-linejoin="round"/>
<path d="M98.0374 132.955C97.9897 126.202 97.9906 122.22 98.0374 114.796L116.591 112.032C116.65 120.033 116.627 124.612 116.591 132.955C109.497 132.817 105.477 132.802 98.0374 132.955Z" fill="white" stroke="black" stroke-width="1.57905" stroke-linecap="round" stroke-linejoin="round"/>
<path d="M97.3888 143.713C97.0944 140.989 97.6097 134.584 107.255 133.921C114.912 133.406 118.74 138.78 119.182 140.915C119.623 143.051 117.783 151.002 108.506 151.812C99.2296 152.622 97.6833 146.437 97.3888 143.713Z" fill="white" stroke="black" stroke-width="1.57905" stroke-linecap="round" stroke-linejoin="round"/>
<path d="M103.766 132.659C103.647 136.421 100.948 143.391 102.847 143.391C105.221 143.391 110.142 143.749 110.662 143.391C111.079 143.105 110.836 136.117 110.662 132.659" stroke="black" stroke-width="1.57905"/>
<path d="M110.484 138.483C110.753 137.356 110.054 136.174 106.886 136.066C105.651 135.954 103.343 136.818 103.29 138.858C103.236 140.898 106.886 141.596 108.122 141.489C109.357 141.381 110.215 139.61 110.484 138.483Z" stroke="black" stroke-width="2.36857"/>
<path d="M98.1387 121.34H116.474" stroke="black" stroke-width="1.57905" stroke-linejoin="round"/>
<path d="M116.472 124.25C111.184 123.419 102.018 123.266 98.0957 123.294" stroke="black" stroke-width="1.57905" stroke-linejoin="round"/>
<path d="M115.891 126.495C109.006 126.695 101.325 125.664 98.3457 125.123" stroke="black" stroke-width="1.57905" stroke-linejoin="round"/>
<path d="M111.867 21.3738L94.4082 20.9287" stroke="white" stroke-width="1.57905" stroke-linecap="round" stroke-linejoin="round"/>
<path d="M93.8373 21.751C93.8368 17.6283 92.0645 15.1175 90.6167 14.1357C89.7723 15.6092 88.0891 19.1952 88.1115 21.751C88.134 24.3069 89.497 28.2427 90.1757 29.8912C91.7709 29.0568 93.8378 25.8738 93.8373 21.751Z" fill="white" stroke="black" stroke-width="1.57905" stroke-linecap="round" stroke-linejoin="round"/>
<path d="M47.6424 40.7512L46.8422 22.1353C46.7606 20.2382 47.0229 18.3391 47.7286 16.5764C50.1069 10.6354 54.3698 2.28906 58.1669 2.28906C62.4764 2.28906 80.3879 4.28935 89.4553 5.36535C89.8505 5.41225 90.1445 5.7527 90.147 6.15065C90.2298 19.6214 90.2168 23.7587 90.1426 37.5504L55.596 36.6774L47.6424 40.7512Z" fill="white"/>
<path d="M58.1669 2.28906C54.3698 2.28906 50.1069 10.6354 47.7286 16.5764C47.0229 18.3391 46.7606 20.2382 46.8422 22.1353L47.6424 40.7512L55.596 36.6774M58.1669 2.28906C62.4764 2.28906 80.3879 4.28935 89.4553 5.36535C89.8505 5.41225 90.1445 5.7527 90.147 6.15065C90.2298 19.6214 90.2168 23.7587 90.1426 37.5504L55.596 36.6774M58.1669 2.28906C56.4444 16.0473 56.0427 21.0997 55.596 36.6774" stroke="black" stroke-width="1.57905" stroke-linecap="round" stroke-linejoin="round"/>
<path d="M68.2363 10.6758C76.2615 10.1603 85.4639 12.0745 87.2312 12.8108" stroke="black" stroke-width="1.57905" stroke-linecap="round" stroke-linejoin="round"/>
<path d="M61.0938 23.8535C68.8977 25.6208 81.8562 27.7553 86.1997 27.6084" stroke="black" stroke-width="1.57905" stroke-linecap="round" stroke-linejoin="round"/>
<path d="M76.9985 16.5278C76.9985 19.4279 75.6465 21.1756 73.0578 21.1756C70.7602 21.1756 69.3448 19.2171 69.6612 16.2691C69.9195 13.8623 71.4275 12.5508 73.4096 12.5508C75.3917 12.5508 76.9985 14.4743 76.9985 16.5278Z" stroke="black" stroke-width="1.57905" stroke-linecap="round" stroke-linejoin="round"/>
<path d="M74.9349 16.2692C74.9349 15.1245 74.2513 14.542 73.4092 14.542C72.5672 14.542 71.7637 15.7063 71.7637 16.5279C71.7637 17.7456 72.5079 18.5222 73.4092 18.5222C74.6113 18.5222 74.9349 17.5838 74.9349 16.2692Z" stroke="black" stroke-width="0.789524" stroke-linecap="round" stroke-linejoin="round"/>
<path d="M84.5661 18.1161C84.5661 17.3997 84.1148 17.0352 83.5589 17.0352C83.0031 17.0352 82.4727 17.7638 82.4727 18.278C82.4727 19.0401 82.964 19.5262 83.5589 19.5262C84.3524 19.5262 84.5661 18.9389 84.5661 18.1161Z" stroke="black" stroke-width="0.789524" stroke-linecap="round" stroke-linejoin="round"/>
<path d="M86.2923 18.4906C86.2923 20.117 85.2889 21.4032 83.9621 21.6297C82.4791 21.8829 80.9203 21.3061 80.7526 18.8482C80.6418 17.2255 81.9722 15.3838 83.4768 15.3838C84.9813 15.3838 86.2923 16.8641 86.2923 18.4906Z" stroke="black" stroke-width="1.57905" stroke-linecap="round" stroke-linejoin="round"/>
<path d="M45.7802 20.6875H24.1348" stroke="white" stroke-width="1.57905" stroke-linecap="round" stroke-linejoin="round"/>
<path d="M53.215 21.3506C53.1558 18.7591 51.6689 15.2643 50.9328 13.8408C49.2149 14.3316 45.7793 16.3882 45.7793 20.6878C45.7793 24.9874 49.2149 27.633 50.9328 28.4183C51.7182 27.1422 53.2742 23.942 53.215 21.3506Z" fill="white" stroke="black" stroke-width="1.57905" stroke-linecap="round" stroke-linejoin="round"/>
<path d="M136.283 83.6717C137.266 85.8779 138.718 90.944 137.609 91.1906C136.718 91.3887 135.701 88.784 135.069 86.6736C135.589 88.7751 136.005 91.4555 135.067 91.6529C133.896 91.8993 132.269 87.4937 131.601 85.2601C132.037 87.6221 132.648 92.3769 131.601 92.5001C130.554 92.6234 129.162 88.2383 128.597 86.0303C128.751 88.2898 128.884 92.8087 128.189 92.8087C127.493 92.8087 126.126 89.0924 125.529 87.2343L124.564 86.0303C125.679 85.4855 128.39 84.2131 130.32 83.4824L136.283 83.6717Z" fill="white"/>
<path d="M136.283 83.6717C137.266 85.8779 138.718 90.944 137.609 91.1906C136.5 91.4372 135.195 87.3397 134.682 85.2601C135.298 87.2883 136.238 91.4064 135.067 91.6529C133.896 91.8993 132.269 87.4937 131.601 85.2601C132.037 87.6221 132.648 92.3769 131.601 92.5001C130.554 92.6234 129.162 88.2383 128.597 86.0303C128.751 88.2898 128.884 92.8087 128.189 92.8087C127.493 92.8087 126.126 89.0924 125.529 87.2343L124.564 86.0303C125.679 85.4855 128.39 84.2131 130.32 83.4824L136.283 83.6717Z" stroke="black" stroke-width="0.789524"/>
<path d="M137.001 84.8151C134.719 76.9373 127.651 66.5563 117.777 61.8984L114.904 67.0049L122.498 88.1053L126.501 86.3393L137.001 84.8151Z" fill="white" stroke="black" stroke-width="1.57905" stroke-linecap="round" stroke-linejoin="round"/>
<path d="M136.469 83.2207H125.738" stroke="black" stroke-width="1.57905" stroke-linejoin="round"/>
<path d="M124.809 80.9668H135.29" stroke="black" stroke-width="1.57905" stroke-linejoin="round"/>
<ellipse cx="123.053" cy="68.5485" rx="1.1387" ry="1.69047" transform="rotate(-25.4302 123.053 68.5485)" fill="black"/>
<path d="M21.6632 94.5632C20.9151 94.1866 22.0932 90.7238 22.5034 89.7224C23.7606 89.3727 26.8344 88.7134 29.072 88.8732C31.3096 89.033 34.0285 89.7827 35.1083 90.1375C35.0827 91.8063 34.7541 95.1439 33.6449 95.1439C32.5838 95.1439 32.2371 92.0888 32.1866 90.3631C32.2118 92.0888 31.9561 95.1439 30.7181 95.1439C29.7723 95.1439 29.3999 93.3606 29.288 91.7493C29.2351 93.3606 28.9042 95.1439 27.8683 95.1439C26.4511 95.1439 26.1995 91.8063 26.2509 90.1375C26.1225 91.8063 25.5885 95.1439 24.4794 95.1439C23.3703 95.1439 23.6065 92.1658 23.8632 90.6767C23.4259 92.35 22.8871 95.1792 21.6632 94.5632Z" fill="white"/>
<path d="M22.5034 89.7224C22.0932 90.7238 20.9151 94.1866 21.6632 94.5632C22.8871 95.1792 23.4259 92.35 23.8632 90.6767C23.6065 92.1658 23.3703 95.1439 24.4794 95.1439C25.5885 95.1439 26.1225 91.8063 26.2509 90.1375C26.1995 91.8063 26.4511 95.1439 27.8683 95.1439C29.2855 95.1439 29.3831 91.8063 29.2547 90.1375C29.2034 91.8063 29.4242 95.1439 30.7181 95.1439C32.0121 95.1439 32.2329 91.8063 32.1815 90.1375C32.2072 91.8063 32.5358 95.1439 33.6449 95.1439C34.7541 95.1439 35.0827 91.8063 35.1083 90.1375C34.0285 89.7827 31.3096 89.033 29.072 88.8732C26.8344 88.7134 23.7606 89.3727 22.5034 89.7224Z" stroke="black" stroke-width="0.789524"/>
<path d="M22 90.1159C23.0055 79.3668 28.2436 63.8363 36.4592 60.3154L40.24 69.9032L39.1386 87.4096L35.5183 90.1159H22Z" fill="white" stroke="black" stroke-width="1.57905" stroke-linecap="round" stroke-linejoin="round"/>
<path d="M22.418 87.4422L35.4698 87.928M35.82 85.9381L22.7062 84.79" stroke="black" stroke-width="1.57905" stroke-linejoin="round"/>
<ellipse cx="33.8066" cy="66.8055" rx="1.1387" ry="1.69047" transform="rotate(10.5914 33.8066 66.8055)" fill="black"/>
<path d="M34.9245 113.296L36.7596 55.3039C36.8188 53.4343 37.48 51.6338 38.6449 50.1702L40.6445 47.6579C47.8495 38.6055 59.2518 33.9628 70.731 35.4078L89.8001 37.8081C101.423 39.2711 111.269 47.0613 115.804 57.863C122.979 74.9563 128.725 87.8662 130.619 107.567C130.734 108.761 129.91 109.847 128.734 110.08C94.5073 116.888 73.648 117.905 36.3863 114.919C35.5477 114.852 34.8978 114.137 34.9245 113.296Z" fill="white" stroke="black" stroke-width="1.57905" stroke-linecap="round" stroke-linejoin="round"/>
<path d="M35.1074 108.395C77.083 113.51 112.004 106.719 130.17 103.897" stroke="black" stroke-width="1.57905" stroke-linecap="round" stroke-linejoin="round"/>
<ellipse cx="41.4109" cy="110.907" rx="1.10231" ry="1.10215" stroke="black" stroke-width="1.57905" stroke-linecap="round" stroke-linejoin="round"/>
<ellipse cx="59.0496" cy="113.112" rx="1.10231" ry="1.10215" stroke="black" stroke-width="1.57905" stroke-linecap="round" stroke-linejoin="round"/>
<ellipse cx="86.2" cy="112.009" rx="1.10231" ry="1.10215" stroke="black" stroke-width="1.57905" stroke-linecap="round" stroke-linejoin="round"/>
<ellipse cx="110.538" cy="109.146" rx="1.10231" ry="1.10215" stroke="black" stroke-width="1.57905" stroke-linecap="round" stroke-linejoin="round"/>
<ellipse cx="126.147" cy="106.943" rx="1.10231" ry="1.10215" stroke="black" stroke-width="1.57905" stroke-linecap="round" stroke-linejoin="round"/>
<ellipse cx="66.6084" cy="63.9768" rx="3.9619" ry="3.05396" stroke="black" stroke-width="1.57905" stroke-linecap="round" stroke-linejoin="round"/>
<path d="M62.6211 64.3164V68.0651C62.9224 68.7975 64.1456 70.2495 66.6273 70.1978C69.109 70.1461 70.4188 68.7544 70.7634 68.0651L70.4403 63.8643" stroke="black" stroke-width="1.57905" stroke-linecap="round" stroke-linejoin="round"/>
<path d="M95.0625 65.4789V68.4519C95.3855 69.5506 96.6777 71.6704 99.2628 71.3602C101.848 71.0499 103.184 69.7229 103.528 69.0982L103.785 64.9648" stroke="black" stroke-width="1.57905" stroke-linecap="round" stroke-linejoin="round"/>
<ellipse cx="83.5609" cy="64.4934" rx="4.5238" ry="3.24827" stroke="black" stroke-width="1.57905" stroke-linecap="round" stroke-linejoin="round"/>
<ellipse cx="99.4237" cy="64.9786" rx="4.42758" ry="3.57038" stroke="black" stroke-width="1.57905" stroke-linecap="round" stroke-linejoin="round"/>
<path d="M79.1016 64.9621V67.8704C79.7262 68.6889 81.5441 70.2742 83.819 70.0674C86.0939 69.8606 87.5243 68.9903 87.9551 68.581V64.6387" stroke="black" stroke-width="1.57905" stroke-linecap="round" stroke-linejoin="round"/>
<path d="M61.8281 77.707L110.065 78.1481V80.1764M61.8281 78.1481V81.411M61.8281 81.411V83.1747L110.065 84.8502V80.1764M61.8281 81.411C73.3688 80.0452 86.8076 80.1249 110.065 80.1764" stroke="black" stroke-width="1.57905" stroke-linecap="round" stroke-linejoin="round"/>
</svg>
