<svg width="205" height="66" viewBox="0 0 205 66" fill="none" xmlns="http://www.w3.org/2000/svg">
<path d="M2.26345 11.0197V52.9268H13.1804V11.0197H2.26345ZM29.1312 37.0796C29.1312 35.084 29.1704 33.4406 29.2486 32.1493C29.3269 30.8581 29.4834 29.8407 29.7182 29.0973C29.9529 28.3538 30.2464 27.8451 30.5986 27.5712C30.9899 27.2973 31.479 27.1604 32.0659 27.1604C32.6528 27.1604 33.1419 27.2973 33.5332 27.5712C33.9245 27.8451 34.218 28.3538 34.4136 29.0973C34.6484 29.8407 34.8049 30.8581 34.8832 32.1493C34.9614 33.4406 35.0006 35.084 35.0006 37.0796C35.0006 39.0751 34.9614 40.7185 34.8832 42.0098C34.8049 43.2619 34.6484 44.2597 34.4136 45.0032C34.218 45.7466 33.9245 46.2553 33.5332 46.5292C33.1419 46.8031 32.6528 46.94 32.0659 46.94C31.479 46.94 30.9899 46.8031 30.5986 46.5292C30.2464 46.2553 29.9529 45.7466 29.7182 45.0032C29.4834 44.2597 29.3269 43.2619 29.2486 42.0098C29.1704 40.7185 29.1312 39.0751 29.1312 37.0796ZM45.5654 37.0796C45.5654 34.771 45.4284 32.6189 45.1545 30.6233C44.9197 28.5886 44.3524 26.8082 43.4524 25.2822C42.5524 23.7562 41.2025 22.5627 39.4026 21.7019C37.6026 20.8019 35.1571 20.352 32.0659 20.352C29.0921 20.352 26.7052 20.8411 24.9053 21.8193C23.1445 22.7584 21.7946 24.0105 20.8555 25.5757C19.9164 27.1408 19.2903 28.9212 18.9773 30.9168C18.7034 32.9123 18.5664 34.947 18.5664 37.0209C18.5664 39.3295 18.6838 41.5011 18.9186 43.5358C19.1925 45.5314 19.7794 47.2922 20.6794 48.8182C21.5794 50.3051 22.9293 51.479 24.7292 52.3398C26.5292 53.1615 28.9747 53.5724 32.0659 53.5724C35.0397 53.5724 37.407 53.1224 39.1678 52.2224C40.9677 51.2833 42.3372 50.0508 43.2763 48.5248C44.2154 46.9596 44.8219 45.1792 45.0958 43.1837C45.4089 41.1881 45.5654 39.1534 45.5654 37.0796ZM53.0781 20.2933V52.9268H63.9951V20.2933H72.2121V11.0197H44.9784V20.2933H53.0781Z" fill="black"/>
<path d="M106.633 17.8487H83.2577V23.8977H91.2547V54.4502H98.6365V23.8977H106.633V17.8487ZM108.986 17.4386V23.4876H116.06V17.4386H108.986ZM108.986 26.8709V54.4502H116.06V26.8709H108.986ZM121.045 26.8709V54.4502H128.119V36.3032C128.119 34.6628 128.444 33.4667 129.093 32.7148C129.776 31.963 130.682 31.5871 131.81 31.5871C132.801 31.5871 133.502 31.8946 133.912 32.5098C134.356 33.1249 134.578 34.0135 134.578 35.1754V54.4502H141.652V36.3032C141.652 34.6628 141.977 33.4667 142.626 32.7148C143.31 31.963 144.215 31.5871 145.343 31.5871C146.334 31.5871 147.035 31.8946 147.445 32.5098C147.889 33.1249 148.111 34.0135 148.111 35.1754V54.4502H155.186V34.4065C155.186 31.7408 154.622 29.7074 153.494 28.3062C152.4 26.8709 150.675 26.1532 148.316 26.1532C146.642 26.1532 145.189 26.5291 143.959 27.281C142.763 27.9987 141.892 29.0923 141.345 30.5618H141.242C140.866 29.1264 140.114 28.0328 138.987 27.281C137.893 26.5291 136.526 26.1532 134.886 26.1532C133.348 26.1532 132.015 26.4266 130.887 26.9734C129.794 27.5202 128.802 28.4259 127.914 29.6903H127.811V26.8709H121.045ZM173.169 37.5335H165.941V36.457C165.941 35.8077 165.992 35.1584 166.095 34.509C166.232 33.8597 166.437 33.2787 166.71 32.7661C166.984 32.2193 167.342 31.7921 167.787 31.4845C168.265 31.1428 168.863 30.9719 169.581 30.9719C170.299 30.9719 170.879 31.1257 171.324 31.4333C171.802 31.7067 172.161 32.1339 172.4 32.7148C172.674 33.2616 172.862 33.9451 172.964 34.7653C173.067 35.5514 173.135 36.4741 173.169 37.5335ZM165.941 41.7371H179.936V40.1479C179.936 38.0291 179.799 36.1153 179.526 34.4065C179.252 32.6636 178.74 31.194 177.988 29.9979C177.236 28.7676 176.194 27.8278 174.861 27.1785C173.562 26.495 171.888 26.1532 169.837 26.1532C167.445 26.1532 165.531 26.5462 164.096 27.3323C162.66 28.1183 161.55 29.1777 160.764 30.5105C160.012 31.8434 159.499 33.3642 159.226 35.0729C158.987 36.7817 158.867 38.5588 158.867 40.4042C158.867 42.1472 158.935 43.8901 159.072 45.633C159.243 47.3759 159.67 48.948 160.354 50.3492C161.037 51.7504 162.096 52.8781 163.532 53.7325C164.967 54.5869 166.966 55.0141 169.53 55.0141C172.913 55.0141 175.391 54.1768 176.963 52.5022C178.535 50.8276 179.389 48.3841 179.526 45.1717H173.169C172.964 46.9146 172.588 48.2132 172.041 49.0676C171.495 49.922 170.623 50.3492 169.427 50.3492C168.778 50.3492 168.231 50.1783 167.787 49.8366C167.342 49.4606 166.984 48.9822 166.71 48.4012C166.437 47.7861 166.232 47.1025 166.095 46.3507C165.992 45.5647 165.941 44.7616 165.941 43.9414V41.7371ZM188.799 45.428H182.442V46.402C182.442 47.7348 182.596 48.948 182.904 50.0416C183.211 51.101 183.741 52.0067 184.493 52.7585C185.279 53.5104 186.321 54.0743 187.62 54.4502C188.953 54.8261 190.61 55.0141 192.592 55.0141C194.096 55.0141 195.463 54.8603 196.693 54.5527C197.958 54.2451 199.034 53.7325 199.923 53.0148C200.845 52.2972 201.563 51.4086 202.076 50.3492C202.588 49.2556 202.845 47.974 202.845 46.5045C202.845 44.4198 202.383 42.7794 201.461 41.5833C200.538 40.353 198.966 39.3619 196.744 38.61L192.49 37.1747C191.293 36.7988 190.473 36.3374 190.029 35.7906C189.619 35.2438 189.414 34.6286 189.414 33.9451C189.414 32.9541 189.739 32.2193 190.388 31.7408C191.071 31.2282 191.857 30.9719 192.746 30.9719C193.908 30.9719 194.711 31.3137 195.155 31.9972C195.634 32.6465 195.873 33.6888 195.873 35.1242H202.23V33.9964C202.23 31.5016 201.461 29.5707 199.923 28.2037C198.385 26.8367 196.01 26.1532 192.797 26.1532C190.986 26.1532 189.431 26.3753 188.132 26.8196C186.868 27.2639 185.825 27.862 185.005 28.6138C184.185 29.3657 183.587 30.2542 183.211 31.2795C182.835 32.2706 182.647 33.33 182.647 34.4578C182.647 36.4057 183.143 38.012 184.134 39.2765C185.125 40.5068 186.594 41.4637 188.542 42.1472L193.515 43.9414C194.198 44.2148 194.796 44.5907 195.309 45.0691C195.822 45.5134 196.078 46.1798 196.078 47.0684C196.078 48.162 195.753 48.9822 195.104 49.529C194.455 50.0758 193.583 50.3492 192.49 50.3492C191.293 50.3492 190.371 49.9903 189.721 49.2727C189.106 48.5208 188.799 47.5468 188.799 46.3507V45.428Z" fill="black"/>
<path d="M82 2L82 64" stroke="black" stroke-width="3.06427" stroke-linecap="square" stroke-linejoin="round"/>
</svg>
