<svg width="185" height="36" viewBox="0 0 185 36" fill="none" xmlns="http://www.w3.org/2000/svg">
<path fill-rule="evenodd" clip-rule="evenodd" d="M157.559 9.67334C157.559 12.2437 157.542 14.3467 157.522 14.3467C157.502 14.3467 157.392 14.2512 157.278 14.1345C157.164 14.0178 156.91 13.7882 156.713 13.6242C156.517 13.4602 156.13 13.1755 155.853 12.9917C155.576 12.8078 155.109 12.54 154.815 12.3964C154.521 12.2529 154.077 12.0602 153.828 11.9683C153.579 11.8763 153.121 11.7392 152.809 11.6636C152.498 11.588 152.016 11.4946 151.738 11.456C151.442 11.415 150.899 11.3861 150.431 11.3867C149.991 11.3871 149.408 11.417 149.136 11.4531C148.864 11.4891 148.456 11.562 148.23 11.6151C148.003 11.6682 147.587 11.7864 147.306 11.8779C147.025 11.9694 146.518 12.1754 146.18 12.3359C145.842 12.4963 145.382 12.746 145.159 12.8908C144.936 13.0356 144.592 13.2761 144.395 13.4252C144.198 13.5743 143.856 13.8668 143.635 14.0753C143.413 14.2837 143.073 14.6434 142.878 14.8747C142.683 15.1059 142.378 15.5137 142.2 15.7809C142.022 16.048 141.734 16.5581 141.56 16.9143C141.386 17.2706 141.171 17.7806 141.083 18.0478C140.994 18.315 140.868 18.773 140.803 19.0656C140.738 19.3582 140.661 19.785 140.631 20.014C140.602 20.243 140.577 20.7635 140.577 21.1706C140.576 21.5778 140.601 22.1087 140.631 22.3504C140.662 22.5921 140.739 23.0262 140.803 23.3149C140.867 23.6037 141.003 24.0816 141.106 24.3769C141.208 24.6723 141.391 25.123 141.512 25.3787C141.634 25.6342 141.853 26.0389 142 26.2779C142.146 26.517 142.424 26.918 142.618 27.1692C142.811 27.4203 143.171 27.8284 143.418 28.0762C143.665 28.324 144.034 28.6603 144.238 28.8237C144.442 28.9871 144.808 29.2506 145.051 29.4093C145.294 29.568 145.723 29.8117 146.004 29.951C146.286 30.0903 146.652 30.2572 146.818 30.322C146.984 30.3868 147.361 30.5122 147.655 30.6006C147.949 30.689 148.451 30.8064 148.771 30.8614C149.092 30.9167 149.674 30.9732 150.073 30.9881C150.51 31.0042 151.013 30.9926 151.351 30.9584C151.658 30.9275 152.158 30.8502 152.463 30.7868C152.767 30.7234 153.229 30.6022 153.489 30.5175C153.749 30.4328 154.19 30.2618 154.47 30.1374C154.749 30.0131 155.182 29.7916 155.432 29.6453C155.681 29.499 156.089 29.2261 156.338 29.0387C156.588 28.8513 156.964 28.538 157.175 28.3423L157.559 27.9866V29.0785V30.1703L159.012 30.1581L160.465 30.1459V17.5852V5.02443L159.012 5.01221L157.559 5V9.67334ZM33.9773 11.3883C33.7125 11.4119 33.294 11.4632 33.0474 11.5025C32.8007 11.5418 32.3896 11.6262 32.1339 11.6902C31.8782 11.7542 31.4806 11.8701 31.2505 11.9479C31.0203 12.0256 30.5709 12.2128 30.2519 12.3639C29.9328 12.515 29.4411 12.7923 29.1592 12.9803C28.8773 13.1682 28.4584 13.4874 28.2282 13.6896C27.998 13.8918 27.6633 14.2281 27.4842 14.437C27.3052 14.6459 27.1518 14.8359 27.1433 14.8593C27.1347 14.8827 27.1086 14.9018 27.0852 14.9018C27.0603 14.9018 27.0425 14.3425 27.0425 13.5602V12.2185H25.5779H24.1132V21.1938V30.169H25.576H27.0388L27.0549 24.9527C27.0698 20.1647 27.0779 19.708 27.1531 19.3895C27.1983 19.1986 27.2971 18.8571 27.3729 18.6306C27.4486 18.404 27.6079 18.031 27.7269 17.8017C27.8459 17.5724 28.0678 17.2165 28.22 17.0108C28.3721 16.8051 28.6678 16.4702 28.8771 16.2666C29.0863 16.0631 29.4276 15.7755 29.6355 15.6276C29.8433 15.4798 30.229 15.2476 30.4925 15.1117C30.7559 14.9759 31.1806 14.7876 31.4361 14.6933C31.6916 14.5989 32.1206 14.4718 32.3893 14.4106C32.658 14.3495 33.1393 14.2684 33.4588 14.2305C33.7783 14.1926 34.2761 14.1616 34.5649 14.1616C34.8538 14.1616 35.2914 14.184 35.5373 14.2112C35.7833 14.2385 36.1783 14.3098 36.4152 14.3695C36.652 14.4293 37.0122 14.55 37.2155 14.6376C37.4188 14.7253 37.7316 14.8913 37.9107 15.0066C38.0898 15.1219 38.383 15.3538 38.5623 15.5221C38.7415 15.6903 38.9926 15.9787 39.1203 16.163C39.248 16.3472 39.4361 16.6645 39.5383 16.8681C39.6405 17.0716 39.7794 17.4026 39.8469 17.6035C39.9144 17.8044 40.0105 18.1687 40.0605 18.4131C40.1105 18.6575 40.1728 19.1697 40.1988 19.5514C40.2262 19.9534 40.2465 22.3331 40.2469 25.2072L40.2476 30.169H41.6908H43.134L43.1188 24.1663C43.1038 18.2316 43.1025 18.1572 43.0022 17.6083C42.9465 17.303 42.8379 16.8307 42.7609 16.5588C42.6839 16.287 42.541 15.8801 42.4434 15.6548C42.3457 15.4295 42.1883 15.1072 42.0935 14.9386C41.9988 14.7699 41.7995 14.4689 41.6508 14.2696C41.502 14.0702 41.2184 13.7463 41.0206 13.5498C40.8227 13.3532 40.481 13.0581 40.2612 12.8939C40.0414 12.7297 39.6397 12.4815 39.3687 12.3424C39.0977 12.2032 38.6772 12.0162 38.4342 11.9271C38.1913 11.8379 37.7728 11.7115 37.5043 11.6462C37.2358 11.581 36.7916 11.4954 36.5173 11.456C36.243 11.4166 35.6676 11.3757 35.2386 11.3649C34.8097 11.3543 34.2421 11.3648 33.9773 11.3883ZM129.312 11.3673C129.184 11.3772 128.87 11.4077 128.614 11.4351C128.359 11.4625 127.898 11.5368 127.592 11.6001C127.285 11.6635 126.753 11.8082 126.409 11.9217C126.065 12.0352 125.553 12.2406 125.27 12.3781C124.987 12.5157 124.567 12.751 124.337 12.901C124.107 13.0509 123.761 13.3002 123.57 13.4548C123.378 13.6095 123.053 13.9098 122.847 14.1223C122.642 14.3348 122.396 14.6023 122.302 14.7168L122.13 14.925L122.129 13.5717L122.128 12.2185H120.664H119.199V21.1944V30.1703L120.652 30.1581L122.105 30.1459L122.131 24.8718C122.154 20.1318 122.165 19.5657 122.236 19.282C122.279 19.1083 122.367 18.8111 122.43 18.6215C122.494 18.432 122.633 18.1058 122.739 17.8967C122.845 17.6876 123.036 17.3602 123.164 17.1692C123.292 16.9781 123.629 16.5917 123.913 16.3106C124.207 16.0197 124.602 15.686 124.829 15.5363C125.049 15.3916 125.411 15.1806 125.634 15.0674C125.857 14.9542 126.2 14.8007 126.397 14.7264C126.594 14.6521 126.964 14.537 127.22 14.4705C127.475 14.404 127.894 14.3137 128.15 14.2697C128.489 14.2114 128.885 14.1893 129.614 14.1879C130.396 14.1864 130.704 14.204 131.026 14.2689C131.253 14.3145 131.609 14.4047 131.817 14.4693C132.025 14.5339 132.377 14.6818 132.6 14.7979C132.823 14.914 133.165 15.1351 133.36 15.2891C133.555 15.4431 133.85 15.7365 134.015 15.941C134.196 16.1666 134.423 16.5313 134.59 16.8681C134.741 17.1734 134.918 17.6106 134.982 17.8396C135.046 18.0686 135.134 18.433 135.178 18.6492C135.249 19.0031 135.258 19.5997 135.274 24.6058L135.291 30.169H136.73H138.17V24.319C138.17 19.3382 138.159 18.3878 138.098 17.9229C138.059 17.6227 137.976 17.164 137.914 16.9038C137.851 16.6436 137.723 16.2272 137.63 15.9785C137.537 15.7298 137.392 15.3898 137.307 15.2229C137.223 15.0559 137.029 14.7333 136.876 14.5058C136.723 14.2783 136.436 13.9195 136.238 13.7083C136.041 13.4971 135.708 13.1912 135.498 13.0286C135.289 12.8658 134.952 12.6346 134.749 12.5146C134.546 12.3946 134.202 12.2195 133.985 12.1255C133.767 12.0316 133.422 11.9 133.218 11.8331C133.013 11.7663 132.665 11.6694 132.445 11.6178C132.225 11.5662 131.827 11.493 131.562 11.4552C131.296 11.4173 130.734 11.378 130.312 11.3678C129.89 11.3576 129.44 11.3574 129.312 11.3673ZM10.4989 11.4558C10.2611 11.4918 9.84551 11.5741 9.57541 11.6388C9.30535 11.7036 8.89321 11.8212 8.65952 11.9003C8.42582 11.9794 7.9417 12.1843 7.58368 12.3558C7.22565 12.5272 6.71303 12.8125 6.44451 12.9898C6.17599 13.167 5.76463 13.4721 5.53038 13.6676C5.29613 13.8632 4.92235 14.2157 4.69968 14.4509C4.47705 14.6862 4.15357 15.0661 3.98088 15.2951C3.80819 15.5241 3.57711 15.8572 3.46733 16.0353C3.3576 16.2134 3.15845 16.5778 3.02482 16.8449C2.89114 17.1121 2.70674 17.5313 2.61504 17.7765C2.52331 18.0217 2.39632 18.4212 2.33286 18.6642C2.26939 18.9073 2.18514 19.2896 2.14557 19.5138C2.10605 19.738 2.05188 20.2078 2.02519 20.5576C1.9912 21.004 1.99157 21.3905 2.02654 21.853C2.05392 22.2156 2.12906 22.7725 2.19355 23.0906C2.258 23.4087 2.40716 23.9576 2.52493 24.3105C2.64271 24.6634 2.86989 25.2151 3.02975 25.5365C3.18965 25.858 3.46049 26.3291 3.63165 26.5836C3.80285 26.838 4.06114 27.1909 4.20565 27.3677C4.35016 27.5446 4.65671 27.8786 4.88687 28.11C5.11703 28.3414 5.47273 28.6636 5.67731 28.8259C5.8819 28.9883 6.26475 29.2612 6.52811 29.4324C6.79147 29.6036 7.24699 29.8616 7.54034 30.0057C7.83374 30.1498 8.38193 30.3688 8.75865 30.4924C9.13532 30.6159 9.6737 30.7601 9.95501 30.8128C10.2363 30.8655 10.6548 30.9294 10.8849 30.9548C11.1151 30.9802 11.565 31.0005 11.8846 31C12.2043 30.9994 12.7064 30.97 13.0005 30.9346C13.2946 30.8993 13.7445 30.8249 14.0002 30.7693C14.2559 30.7137 14.6758 30.5997 14.9333 30.5159C15.1907 30.4321 15.6301 30.2618 15.9097 30.1374C16.1893 30.0131 16.6221 29.7916 16.8715 29.6453C17.1209 29.499 17.5394 29.2195 17.8015 29.0241C18.0635 28.8287 18.5294 28.4183 18.8368 28.112C19.1443 27.8057 19.5453 27.3573 19.728 27.1156C19.9107 26.8739 20.1807 26.4783 20.3281 26.2366C20.4755 25.9948 20.6893 25.5993 20.8032 25.3576C20.9172 25.1158 21.1099 24.6162 21.2315 24.2472C21.353 23.8783 21.4965 23.3474 21.5502 23.0675C21.604 22.7876 21.6691 22.343 21.695 22.0795C21.7208 21.8159 21.7419 21.407 21.7419 21.1706C21.7419 20.9343 21.7201 20.5254 21.6934 20.2618C21.6666 19.9983 21.5929 19.5259 21.5295 19.212C21.4661 18.898 21.3293 18.3879 21.2253 18.0785C21.1215 17.769 20.9223 17.2768 20.7829 16.9847C20.6434 16.6925 20.4321 16.297 20.3133 16.1056C20.1946 15.9143 19.9514 15.5606 19.773 15.3196C19.5945 15.0786 19.2479 14.6747 19.0027 14.4221C18.7575 14.1695 18.3686 13.8059 18.1384 13.614C17.9083 13.4221 17.5003 13.1224 17.2317 12.9479C16.9632 12.7734 16.5134 12.5189 16.2321 12.3823C15.9508 12.2458 15.5218 12.061 15.2789 11.9718C15.0359 11.8825 14.6279 11.7563 14.3722 11.6912C14.1165 11.6262 13.7294 11.5395 13.512 11.4986C13.2432 11.448 12.7672 11.4188 12.0241 11.4074C11.2418 11.3953 10.8086 11.4091 10.4989 11.4558ZM54.1036 11.4594C53.8606 11.4944 53.4003 11.588 53.0807 11.6674C52.761 11.7468 52.2873 11.8909 52.0279 11.9877C51.7686 12.0845 51.3457 12.2691 51.0883 12.3978C50.8308 12.5266 50.4362 12.7456 50.2114 12.8844C49.9866 13.0232 49.5829 13.3125 49.3144 13.5272C49.0459 13.742 48.62 14.1314 48.368 14.3928C48.116 14.6542 47.7541 15.0762 47.5639 15.3305C47.3736 15.5849 47.1005 15.9915 46.957 16.2341C46.8135 16.4767 46.5973 16.8956 46.4764 17.1649C46.3556 17.4342 46.1815 17.8868 46.0896 18.1705C45.9977 18.4543 45.8703 18.9436 45.8063 19.2578C45.7425 19.5719 45.6657 20.136 45.6358 20.5114C45.5943 21.0323 45.5943 21.3552 45.6358 21.8762C45.6657 22.2515 45.7419 22.813 45.8051 23.1239C45.8684 23.4348 46.0043 23.9449 46.1072 24.2573C46.2101 24.5699 46.4292 25.1025 46.594 25.4409C46.759 25.7793 47.0122 26.2374 47.1569 26.4587C47.3015 26.6801 47.5582 27.0381 47.7272 27.2544C47.8962 27.4707 48.2336 27.8463 48.4768 28.0891C48.7202 28.3319 49.0761 28.6566 49.2679 28.8105C49.4597 28.9645 49.805 29.2154 50.0351 29.3682C50.2653 29.5211 50.6314 29.7417 50.8488 29.8586C51.0662 29.9755 51.4786 30.1648 51.7652 30.2794C52.0519 30.394 52.5122 30.5512 52.7881 30.6289C53.0641 30.7065 53.541 30.8132 53.8479 30.866C54.1615 30.9199 54.7316 30.9732 55.1498 30.9878C55.5926 31.0031 56.1007 30.9916 56.4052 30.9592C56.6865 30.9293 57.1677 30.8547 57.4746 30.7933C57.7815 30.7319 58.2627 30.606 58.544 30.5133C58.8253 30.4207 59.2752 30.2475 59.5437 30.1285C59.8122 30.0094 60.2355 29.7911 60.4843 29.6433C60.7332 29.4955 61.1241 29.2359 61.353 29.0663C61.5819 28.8967 61.9584 28.5853 62.1895 28.3742C62.4207 28.1631 62.7799 27.7883 62.9877 27.5414C63.1954 27.2945 63.5186 26.8635 63.7057 26.5836C63.8929 26.3037 64.1604 25.8456 64.3003 25.5657C64.44 25.2858 64.6305 24.8536 64.7235 24.6053C64.8166 24.357 64.9538 23.9178 65.0286 23.6294C65.1033 23.3409 65.2014 22.8674 65.2464 22.5773C65.3034 22.2099 65.3281 21.7826 65.3276 21.1706C65.3272 20.5568 65.3022 20.1381 65.2449 19.7827C65.1998 19.5028 65.1127 19.0744 65.0513 18.8307C64.9899 18.587 64.8644 18.1706 64.7723 17.9054C64.6803 17.6402 64.4827 17.1734 64.3332 16.8681C64.1837 16.5627 63.9172 16.0943 63.7409 15.8271C63.5647 15.5599 63.2631 15.154 63.0706 14.925C62.8782 14.696 62.5195 14.3177 62.2735 14.0843C62.0275 13.8509 61.6631 13.5366 61.4638 13.3857C61.2644 13.2348 60.9444 13.0113 60.7526 12.8891C60.5608 12.7668 60.1842 12.5564 59.9157 12.4216C59.6471 12.2867 59.2287 12.101 58.9857 12.0088C58.7428 11.9166 58.2718 11.7714 57.9391 11.6862C57.6064 11.601 57.0982 11.4985 56.8099 11.4585C56.4698 11.4113 55.9802 11.3875 55.4155 11.3907C54.9369 11.3935 54.3465 11.4243 54.1036 11.4594ZM105.715 11.436C105.549 11.4572 105.193 11.519 104.924 11.5733C104.656 11.6276 104.164 11.761 103.832 11.8698C103.499 11.9785 103.02 12.1639 102.768 12.2816C102.515 12.3993 102.128 12.6029 101.907 12.7339C101.687 12.8651 101.276 13.1444 100.993 13.3547C100.71 13.5651 100.271 13.9423 100.016 14.193C99.7621 14.4437 99.4221 14.8126 99.2607 15.0128C99.0994 15.213 98.8671 15.525 98.7446 15.7061C98.6221 15.8871 98.424 16.2073 98.3044 16.4176C98.1848 16.6278 98.0109 16.9713 97.918 17.181C97.8252 17.3905 97.6694 17.7971 97.5719 18.0845C97.4744 18.3718 97.3431 18.8506 97.2803 19.1485C97.2174 19.4465 97.1436 19.8924 97.1162 20.1395C97.0889 20.3865 97.0665 20.8695 97.0665 21.2127C97.0665 21.5559 97.0987 22.081 97.138 22.3795C97.1773 22.6781 97.2516 23.1111 97.3031 23.3419C97.3546 23.5726 97.4816 24.0157 97.5852 24.3264C97.6889 24.6372 97.9046 25.1577 98.0646 25.483C98.2246 25.8084 98.5011 26.2933 98.6791 26.5604C98.8571 26.8276 99.161 27.2336 99.3545 27.4626C99.5481 27.6916 99.8709 28.0374 100.072 28.2309C100.273 28.4245 100.573 28.6936 100.74 28.8289C100.906 28.9641 101.262 29.2193 101.53 29.3959C101.799 29.5725 102.29 29.8483 102.623 30.0088C102.955 30.1693 103.413 30.3649 103.639 30.4435C103.866 30.522 104.254 30.6374 104.501 30.6999C104.749 30.7624 105.16 30.8495 105.415 30.8936C105.755 30.9526 106.148 30.9744 106.901 30.976C107.675 30.9777 108.043 30.9582 108.416 30.8958C108.687 30.8505 109.138 30.7534 109.419 30.6799C109.7 30.6066 110.138 30.4693 110.392 30.3751C110.645 30.2808 111.06 30.1002 111.314 29.9738C111.568 29.8474 111.94 29.6422 112.142 29.5178C112.343 29.3933 112.669 29.1715 112.866 29.0247C113.063 28.878 113.472 28.519 113.775 28.2269C114.078 27.9347 114.467 27.5183 114.641 27.3016C114.814 27.0848 115.077 26.7225 115.224 26.4966C115.372 26.2706 115.593 25.8896 115.716 25.6499C115.839 25.4103 116.024 24.9967 116.129 24.7309C116.233 24.4651 116.391 23.9669 116.479 23.624C116.568 23.281 116.672 22.7595 116.71 22.4648C116.749 22.1703 116.781 21.5875 116.781 21.1699C116.781 20.7379 116.75 20.1854 116.709 19.8884C116.669 19.6013 116.583 19.1494 116.519 18.8843C116.454 18.6192 116.327 18.1924 116.238 17.9358C116.148 17.6794 115.966 17.2405 115.832 16.9606C115.698 16.6807 115.47 16.2612 115.325 16.0283C115.179 15.7955 114.91 15.4104 114.726 15.1724C114.541 14.9345 114.17 14.5204 113.9 14.2521C113.631 13.9838 113.214 13.6143 112.975 13.4309C112.736 13.2475 112.349 12.9794 112.115 12.8351C111.881 12.6909 111.46 12.4627 111.178 12.328C110.897 12.1934 110.384 11.9898 110.039 11.8757C109.694 11.7616 109.202 11.6264 108.946 11.5754C108.691 11.5244 108.304 11.4609 108.087 11.4342C107.871 11.4075 107.316 11.3884 106.855 11.3916C106.394 11.3949 105.881 11.4149 105.715 11.436ZM171.554 11.436C171.388 11.4572 171.032 11.5189 170.764 11.573C170.495 11.6271 169.993 11.7648 169.648 11.8789C169.303 11.9931 168.769 12.2088 168.462 12.3583C168.155 12.5079 167.684 12.7733 167.416 12.9481C167.147 13.123 166.771 13.3926 166.579 13.5471C166.387 13.7016 165.989 14.0748 165.694 14.3765C165.4 14.6782 165.038 15.0852 164.892 15.2811C164.745 15.477 164.522 15.8013 164.397 16.0019C164.272 16.2025 164.066 16.5732 163.939 16.8256C163.812 17.0779 163.63 17.4915 163.535 17.7445C163.44 17.9976 163.302 18.4348 163.229 18.7161C163.155 18.9974 163.062 19.4253 163.021 19.6671C162.981 19.9088 162.935 20.4397 162.921 20.8468C162.905 21.29 162.916 21.7912 162.948 22.0959C162.978 22.3758 163.035 22.7792 163.074 22.9923C163.114 23.2055 163.207 23.5958 163.281 23.8597C163.356 24.1236 163.493 24.5321 163.586 24.7676C163.679 25.003 163.828 25.3414 163.917 25.5195C164.006 25.6976 164.184 26.0172 164.312 26.2296C164.44 26.4421 164.695 26.8169 164.879 27.0624C165.063 27.308 165.396 27.7001 165.62 27.934C165.843 28.1678 166.199 28.5051 166.41 28.6836C166.622 28.8621 167.026 29.1621 167.309 29.3503C167.592 29.5385 168.03 29.7972 168.282 29.9251C168.535 30.0531 168.935 30.2333 169.171 30.3255C169.408 30.4178 169.826 30.5565 170.101 30.6338C170.376 30.711 170.842 30.8162 171.136 30.8675C171.44 30.9205 172.002 30.9722 172.438 30.9873C172.907 31.0035 173.403 30.9924 173.716 30.9586C173.998 30.9282 174.447 30.8615 174.714 30.8102C174.982 30.759 175.486 30.624 175.834 30.5104C176.183 30.3967 176.741 30.1712 177.076 30.0093C177.41 29.8474 177.858 29.6037 178.071 29.4678C178.284 29.3319 178.658 29.0629 178.901 28.8699C179.144 28.677 179.528 28.3335 179.754 28.1065C179.981 27.8796 180.293 27.5378 180.448 27.3469C180.603 27.1561 180.875 26.7813 181.053 26.5142C181.23 26.247 181.499 25.7763 181.65 25.4681C181.8 25.16 182.016 24.6291 182.128 24.2884C182.24 23.9477 182.375 23.4607 182.427 23.2063C182.48 22.9518 182.545 22.5672 182.571 22.3516C182.598 22.136 182.62 21.5947 182.619 21.1487C182.619 20.6895 182.589 20.1312 182.551 19.8612C182.513 19.599 182.437 19.193 182.382 18.959C182.327 18.725 182.201 18.2942 182.101 18.0015C182.001 17.7089 181.786 17.1989 181.624 16.8681C181.461 16.5373 181.204 16.0793 181.052 15.8503C180.9 15.6212 180.647 15.2733 180.49 15.0771C180.333 14.8808 180.063 14.5709 179.889 14.3882C179.716 14.2056 179.376 13.8906 179.133 13.6882C178.89 13.4859 178.474 13.1752 178.208 12.9978C177.942 12.8205 177.45 12.5423 177.115 12.3797C176.78 12.2171 176.286 12.0088 176.018 11.917C175.749 11.825 175.32 11.699 175.065 11.6368C174.809 11.5747 174.363 11.4927 174.074 11.4548C173.752 11.4125 173.222 11.388 172.703 11.3916C172.237 11.3949 171.72 11.4149 171.554 11.436ZM75.6548 11.7421C75.5525 11.7515 75.2336 11.8002 74.9461 11.8503C74.6586 11.9005 74.1769 12.0221 73.8757 12.1205C73.5745 12.2189 73.1297 12.3985 72.8873 12.5196C72.6449 12.6408 72.321 12.8237 72.1675 12.9261C72.0141 13.0285 71.7189 13.2545 71.5115 13.4283C71.3041 13.602 71.0216 13.879 70.8838 14.0437L70.6331 14.3431L70.6099 13.2693L70.5866 12.1954H69.1685H67.7504L67.7386 21.1829L67.7269 30.1704L69.1567 30.1581L70.5866 30.1459L70.6102 24.1316L70.6337 18.1172L70.7376 17.7471C70.7947 17.5435 70.9354 17.1871 71.0502 16.955C71.1651 16.7228 71.3727 16.3884 71.5116 16.2117C71.6505 16.0351 71.9072 15.7756 72.0821 15.6351C72.2569 15.4946 72.5291 15.3029 72.6869 15.2091C72.8447 15.1152 73.1271 14.9753 73.3146 14.8981C73.502 14.8209 73.8448 14.7085 74.0763 14.6484C74.3077 14.5883 74.7157 14.5138 74.983 14.4829C75.2809 14.4484 75.7296 14.437 76.143 14.4535C76.5869 14.4711 76.9522 14.5133 77.2124 14.5769C77.4298 14.63 77.7855 14.7608 78.0029 14.8674C78.3031 15.0147 78.4826 15.145 78.7497 15.4095C79.0068 15.6641 79.1544 15.8606 79.299 16.1406C79.4078 16.3512 79.5527 16.7259 79.6212 16.9734L79.7456 17.4232L79.7591 23.7961L79.7726 30.169H81.2114H82.6502L82.6633 24.1431L82.6765 18.1172L82.7815 17.7471C82.8392 17.5435 82.9578 17.2273 83.0449 17.0443C83.132 16.8613 83.291 16.583 83.3983 16.4259C83.5055 16.2688 83.7177 16.0164 83.8699 15.865C84.022 15.7137 84.3256 15.4736 84.5446 15.3316C84.7637 15.1895 85.1128 15.002 85.3205 14.9148C85.5281 14.8276 85.8968 14.7072 86.1398 14.6471C86.3827 14.587 86.7883 14.5127 87.0411 14.482C87.325 14.4475 87.7606 14.4366 88.1803 14.4533C88.6292 14.4711 88.994 14.5131 89.2551 14.5769C89.4724 14.63 89.8215 14.7577 90.0309 14.8605C90.2595 14.9728 90.5319 15.1572 90.713 15.3223C90.8788 15.4735 91.0966 15.727 91.1969 15.8856C91.2972 16.0443 91.4349 16.3129 91.5027 16.4824C91.5706 16.652 91.6616 16.933 91.705 17.107C91.7768 17.395 91.7852 17.9922 91.7994 23.7961L91.8149 30.169H93.255H94.6952L94.695 23.773C94.6949 19.5853 94.6776 17.1942 94.645 16.8477C94.6176 16.5566 94.5367 16.088 94.4652 15.8064C94.3938 15.5248 94.2693 15.1369 94.1888 14.9443C94.1082 14.7517 93.9381 14.4257 93.8108 14.2198C93.6834 14.0138 93.4202 13.6772 93.2259 13.4717C93.0317 13.2663 92.7335 12.9938 92.5634 12.8663C92.3933 12.7388 92.0742 12.5416 91.8544 12.428C91.6346 12.3145 91.2685 12.1597 91.0407 12.084C90.813 12.0084 90.407 11.8993 90.1385 11.8416C89.7131 11.7503 89.5156 11.7368 88.6041 11.7364C87.791 11.7361 87.4543 11.7548 87.093 11.8204C86.8372 11.8669 86.4536 11.955 86.2405 12.0163C86.0274 12.0776 85.6925 12.1894 85.4964 12.2646C85.3004 12.3399 84.9517 12.5082 84.7215 12.6387C84.4914 12.7692 84.1567 12.9854 83.9777 13.1193C83.7987 13.2533 83.5115 13.4919 83.3394 13.6497C83.1674 13.8075 82.8745 14.1173 82.6885 14.3383C82.5025 14.5593 82.3056 14.8015 82.251 14.8766L82.1517 15.0131L81.9783 14.6683C81.8829 14.4787 81.7108 14.182 81.5959 14.009C81.481 13.8361 81.2221 13.5304 81.0205 13.3298C80.8189 13.1293 80.4741 12.846 80.2542 12.7005C80.0344 12.5549 79.6651 12.3546 79.4336 12.2553C79.2021 12.156 78.7803 12.0154 78.4961 11.9428C78.2121 11.8702 77.7913 11.7882 77.5611 11.7604C77.331 11.7326 76.8497 11.7133 76.4917 11.7175C76.1337 11.7217 75.7571 11.7328 75.6548 11.7421ZM13.2593 14.2487C13.5167 14.3017 13.8933 14.3982 14.0962 14.4633C14.2991 14.5283 14.6953 14.6937 14.9766 14.8306C15.2579 14.9676 15.6346 15.1779 15.8136 15.2979C15.9926 15.4179 16.3029 15.6517 16.5031 15.8175C16.7033 15.9832 17.014 16.2874 17.1934 16.4935C17.3729 16.6995 17.6443 17.0532 17.7966 17.2795C17.9489 17.5057 18.1649 17.8805 18.2768 18.1124C18.3886 18.3443 18.5357 18.6987 18.6036 18.9C18.6715 19.1014 18.7671 19.448 18.8158 19.6703C18.8646 19.8925 18.9261 20.3203 18.9526 20.6208C18.9857 20.9966 18.9858 21.3386 18.9528 21.7162C18.9264 22.0182 18.8722 22.4249 18.8323 22.6201C18.7924 22.8152 18.6893 23.1861 18.6032 23.4443C18.517 23.7024 18.353 24.0989 18.2386 24.3254C18.1243 24.552 17.8994 24.9341 17.7388 25.1747C17.5511 25.4561 17.2469 25.8106 16.886 26.1688C16.5582 26.4943 16.1512 26.8427 15.9066 27.0073C15.6764 27.1622 15.2789 27.3933 15.0231 27.5207C14.7674 27.6481 14.3662 27.8164 14.1317 27.8946C13.8971 27.9727 13.4682 28.0833 13.1785 28.1402C12.7608 28.2222 12.4931 28.2434 11.8846 28.2428C11.36 28.2423 10.9704 28.2162 10.6525 28.1602C10.3967 28.1152 9.95868 28.0052 9.67905 27.9157C9.39942 27.8263 8.92864 27.6309 8.63287 27.4815C8.33711 27.332 7.87307 27.0438 7.60167 26.841C7.33027 26.6381 6.92538 26.2789 6.70187 26.0426C6.47841 25.8064 6.15135 25.3986 5.97508 25.1363C5.79886 24.8741 5.56293 24.4679 5.45083 24.2336C5.33873 23.9994 5.18375 23.6099 5.10647 23.3682C5.0292 23.1265 4.92728 22.7517 4.87994 22.5354C4.81094 22.2202 4.7943 21.9493 4.79592 21.1706C4.79764 20.3496 4.8135 20.1297 4.89836 19.7511C4.95355 19.5048 5.05342 19.1404 5.12024 18.9415C5.1871 18.7426 5.33524 18.3829 5.44953 18.1423C5.56377 17.9017 5.79625 17.4957 5.96615 17.2402C6.17669 16.9234 6.46111 16.5905 6.85963 16.1942C7.23937 15.8165 7.5979 15.5112 7.88293 15.323C8.12425 15.1636 8.53226 14.9328 8.78961 14.8101C9.04697 14.6874 9.45707 14.524 9.70095 14.4471C9.94482 14.3701 10.3214 14.2751 10.5379 14.236C10.7543 14.1969 11.0047 14.1569 11.0942 14.1473C11.1837 14.1376 11.6022 14.1349 12.0241 14.1412C12.5829 14.1494 12.9185 14.1787 13.2593 14.2487ZM56.875 14.2491C57.1334 14.3022 57.51 14.3992 57.7119 14.4647C57.9138 14.5302 58.3301 14.7073 58.637 14.8584C58.9439 15.0095 59.3917 15.2735 59.6322 15.4452C59.8726 15.6169 60.2496 15.9344 60.4698 16.1507C60.69 16.3672 61.0104 16.7316 61.1819 16.9606C61.3533 17.1896 61.6191 17.6179 61.7726 17.9123C61.926 18.2068 62.1241 18.6648 62.2129 18.9302C62.3016 19.1955 62.4121 19.5896 62.4585 19.8059C62.525 20.1161 62.5427 20.4089 62.5427 21.1938C62.5427 22.0672 62.5295 22.2477 62.434 22.6742C62.3742 22.9414 62.2512 23.3578 62.1608 23.5995C62.0703 23.8412 61.9171 24.1963 61.8203 24.3885C61.7235 24.5807 61.513 24.9346 61.3525 25.175C61.166 25.4544 60.8586 25.8133 60.4998 26.1701C60.141 26.5272 59.7805 26.833 59.4994 27.0187C59.2576 27.1785 58.8727 27.4027 58.6441 27.5169C58.4154 27.6312 57.9855 27.8047 57.6887 27.9024C57.3919 28.0001 56.9399 28.1164 56.6841 28.1608C56.3717 28.2152 55.9751 28.2417 55.4752 28.2417C54.9754 28.2417 54.5787 28.2152 54.2663 28.1608C54.0106 28.1164 53.5586 28.0001 53.2618 27.9024C52.965 27.8047 52.5351 27.6312 52.3064 27.5169C52.0777 27.4027 51.697 27.1803 51.4603 27.0227C51.2236 26.8652 50.8399 26.5564 50.6076 26.3365C50.3754 26.1166 50.0521 25.7668 49.8891 25.5591C49.7262 25.3515 49.4791 24.9901 49.34 24.756C49.2011 24.5219 49.0126 24.1527 48.9212 23.9355C48.8298 23.7183 48.7043 23.3667 48.6425 23.1543C48.5806 22.9418 48.4945 22.5439 48.4514 22.27C48.3898 21.8799 48.3783 21.5918 48.3982 20.9393C48.4183 20.2764 48.4471 20.0075 48.5393 19.6208C48.603 19.3536 48.712 18.9789 48.7814 18.788C48.8509 18.5972 49.002 18.2537 49.1173 18.0247C49.2325 17.7957 49.4387 17.4417 49.5753 17.2382C49.712 17.0346 49.9655 16.7063 50.1387 16.5085C50.3119 16.3108 50.6001 16.0226 50.7791 15.8683C50.9581 15.7138 51.3049 15.4543 51.5497 15.2916C51.7946 15.1288 52.1921 14.9042 52.4331 14.7923C52.6742 14.6805 53.0709 14.5255 53.3148 14.448C53.5587 14.3705 53.9353 14.2751 54.1518 14.236C54.3682 14.1969 54.6185 14.1569 54.708 14.1473C54.7975 14.1376 55.216 14.1349 55.638 14.1412C56.1977 14.1494 56.5322 14.1786 56.875 14.2491ZM107.923 14.1876C108.179 14.2221 108.555 14.293 108.758 14.3453C108.962 14.3976 109.35 14.53 109.621 14.6396C109.893 14.7492 110.286 14.9406 110.496 15.0648C110.706 15.1891 111.051 15.4202 111.263 15.5785C111.475 15.7367 111.836 16.0611 112.064 16.2993C112.293 16.5375 112.611 16.9232 112.772 17.1563C112.932 17.3896 113.168 17.7885 113.296 18.0428C113.424 18.2971 113.599 18.7198 113.685 18.982C113.77 19.2443 113.88 19.6671 113.928 19.9215C113.994 20.2736 114.014 20.5886 114.011 21.24C114.009 21.9429 113.989 22.1828 113.904 22.5817C113.846 22.8489 113.748 23.2236 113.684 23.4145C113.621 23.6053 113.447 24.0113 113.297 24.3166C113.147 24.622 112.891 25.0587 112.729 25.2873C112.567 25.5158 112.235 25.9018 111.992 26.1451C111.749 26.3884 111.407 26.6928 111.232 26.8216C111.057 26.9505 110.752 27.1537 110.553 27.2733C110.354 27.3928 109.999 27.5733 109.763 27.6745C109.527 27.7756 109.153 27.9107 108.931 27.9747C108.709 28.0387 108.34 28.1251 108.109 28.1667C107.831 28.2171 107.435 28.2422 106.924 28.2419C106.405 28.2415 106.018 28.216 105.727 28.163C105.491 28.1198 105.125 28.0346 104.913 27.9736C104.702 27.9125 104.351 27.7869 104.134 27.6945C103.917 27.602 103.572 27.4295 103.369 27.3112C103.166 27.1929 102.837 26.9758 102.638 26.829C102.439 26.6821 102.108 26.3947 101.902 26.1903C101.697 25.9859 101.403 25.6499 101.249 25.4434C101.095 25.237 100.882 24.9199 100.775 24.7386C100.669 24.5574 100.49 24.1942 100.378 23.9314C100.265 23.6686 100.115 23.221 100.043 22.9367C99.9709 22.6524 99.8865 22.1804 99.8553 21.8877C99.8206 21.562 99.8108 21.1497 99.83 20.8244C99.8473 20.5323 99.9029 20.0792 99.9537 19.8175C100.004 19.5558 100.12 19.1287 100.211 18.8683C100.301 18.6079 100.49 18.176 100.629 17.9086C100.768 17.6413 101.016 17.2417 101.18 17.0207C101.345 16.7997 101.632 16.4589 101.818 16.2633C102.005 16.0677 102.375 15.7453 102.641 15.5469C102.906 15.3486 103.37 15.0596 103.671 14.9048C103.972 14.75 104.434 14.5532 104.699 14.4674C104.964 14.3816 105.379 14.2781 105.622 14.2373C105.865 14.1964 106.116 14.156 106.18 14.1475C106.244 14.1389 106.558 14.1303 106.877 14.1284C107.197 14.1265 107.668 14.1531 107.923 14.1876ZM151.844 14.2478C152.09 14.2979 152.485 14.4036 152.722 14.4826C152.959 14.5617 153.382 14.7427 153.661 14.8849C153.94 15.0271 154.33 15.2581 154.527 15.3982C154.724 15.5383 155.019 15.7699 155.184 15.9128C155.348 16.0557 155.617 16.3291 155.783 16.5203C155.948 16.7116 156.208 17.0554 156.361 17.2844C156.513 17.5135 156.729 17.8882 156.84 18.1172C156.952 18.3462 157.105 18.721 157.181 18.95C157.257 19.179 157.351 19.5225 157.391 19.7133C157.43 19.9042 157.486 20.3059 157.515 20.606C157.555 21.0157 157.556 21.2983 157.516 21.7395C157.487 22.0628 157.424 22.5042 157.376 22.7205C157.328 22.9368 157.243 23.2491 157.188 23.4145C157.133 23.5799 156.976 23.9467 156.841 24.2296C156.705 24.5125 156.476 24.9198 156.332 25.1346C156.189 25.3494 155.935 25.6751 155.769 25.8584C155.603 26.0418 155.317 26.3269 155.133 26.4921C154.948 26.6573 154.629 26.905 154.423 27.0425C154.217 27.18 153.839 27.3961 153.583 27.5228C153.327 27.6494 152.928 27.8162 152.696 27.8934C152.464 27.9706 152.119 28.0664 151.929 28.1063C151.739 28.1463 151.328 28.2032 151.015 28.2326C150.582 28.2734 150.303 28.2733 149.849 28.232C149.52 28.2021 149.044 28.1276 148.79 28.0664C148.537 28.0052 148.172 27.8989 147.98 27.8303C147.789 27.7616 147.506 27.6432 147.353 27.5672C147.199 27.4912 146.906 27.3285 146.702 27.2056C146.497 27.0828 146.159 26.8456 145.95 26.6786C145.741 26.5116 145.411 26.2047 145.217 25.9965C145.022 25.7883 144.741 25.4395 144.59 25.2213C144.44 25.003 144.212 24.6165 144.084 24.3624C143.956 24.1082 143.787 23.7168 143.708 23.4926C143.629 23.2684 143.517 22.8728 143.461 22.6135C143.373 22.2127 143.358 22.0004 143.358 21.1938C143.358 20.3893 143.373 20.1744 143.46 19.7779C143.516 19.5208 143.617 19.1461 143.684 18.9452C143.751 18.7442 143.906 18.3703 144.029 18.1142C144.152 17.8582 144.384 17.4522 144.544 17.2121C144.734 16.9282 145.04 16.5723 145.42 16.1942C145.8 15.8161 146.158 15.5115 146.443 15.323C146.684 15.1636 147.092 14.9328 147.35 14.8101C147.607 14.6874 148.017 14.524 148.261 14.4471C148.505 14.3701 148.881 14.2751 149.098 14.236C149.314 14.1969 149.565 14.1557 149.654 14.1445C149.744 14.1333 150.173 14.1314 150.607 14.1403C151.156 14.1516 151.535 14.1845 151.844 14.2478ZM173.646 14.1698C173.889 14.1957 174.281 14.2654 174.516 14.3247C174.751 14.3841 175.138 14.5091 175.376 14.6024C175.614 14.6957 176.011 14.8846 176.258 15.0222C176.504 15.1597 176.892 15.4146 177.118 15.5885C177.344 15.7624 177.721 16.1062 177.955 16.3525C178.189 16.5988 178.51 16.9925 178.668 17.2274C178.826 17.4623 179.056 17.8628 179.179 18.1172C179.302 18.3717 179.466 18.7784 179.544 19.021C179.621 19.2637 179.722 19.6488 179.769 19.8769C179.835 20.2001 179.853 20.4958 179.851 21.2169C179.848 21.9862 179.831 22.2183 179.748 22.5937C179.693 22.842 179.583 23.237 179.504 23.4716C179.425 23.7062 179.236 24.138 179.083 24.4312C178.931 24.7244 178.674 25.1419 178.513 25.3589C178.351 25.5759 178.086 25.8951 177.923 26.0683C177.76 26.2415 177.459 26.5182 177.253 26.6833C177.047 26.8483 176.688 27.0966 176.457 27.2351C176.225 27.3736 175.848 27.5687 175.62 27.6687C175.391 27.7687 175.016 27.9045 174.786 27.9705C174.556 28.0365 174.201 28.1195 173.996 28.1551C173.791 28.1906 173.393 28.2334 173.112 28.2503C172.825 28.2675 172.391 28.259 172.125 28.2309C171.863 28.2034 171.49 28.1481 171.295 28.1082C171.1 28.0681 170.752 27.9738 170.521 27.8987C170.289 27.8235 169.894 27.6601 169.642 27.5356C169.389 27.4111 169.01 27.1939 168.799 27.0529C168.588 26.9119 168.261 26.6626 168.073 26.499C167.884 26.3354 167.596 26.0481 167.431 25.8605C167.267 25.6729 167.02 25.3529 166.882 25.1494C166.745 24.9458 166.529 24.5711 166.402 24.3166C166.275 24.0622 166.115 23.69 166.046 23.4896C165.978 23.2892 165.881 22.9434 165.833 22.7212C165.784 22.499 165.72 22.0622 165.69 21.7506C165.649 21.32 165.649 21.0426 165.69 20.5954C165.72 20.2716 165.796 19.7952 165.859 19.5365C165.921 19.2778 166.044 18.883 166.131 18.659C166.218 18.4351 166.353 18.1254 166.432 17.9708C166.51 17.8162 166.726 17.4644 166.911 17.1889C167.128 16.8656 167.422 16.5149 167.739 16.1997C168.009 15.9312 168.4 15.5915 168.608 15.4449C168.815 15.2983 169.182 15.076 169.421 14.9509C169.661 14.8258 170.023 14.6582 170.226 14.5784C170.429 14.4985 170.806 14.3828 171.063 14.3213C171.32 14.2598 171.677 14.1914 171.856 14.1694C172.035 14.1473 172.412 14.1278 172.693 14.126C172.975 14.1242 173.404 14.1439 173.646 14.1698Z" fill="black"/>
</svg>
