<svg width="98" height="66" viewBox="0 0 98 66" fill="none" xmlns="http://www.w3.org/2000/svg">
<path d="M18.2832 21.9404L21.9399 21.9404" stroke="black" stroke-width="5.85075" stroke-linecap="round" stroke-linejoin="round"/>
<path d="M5.11914 32.9106L8.77586 32.9106" stroke="black" stroke-width="5.85075" stroke-linecap="round" stroke-linejoin="round"/>
<path d="M19.0156 44.6123L22.6723 44.6123" stroke="black" stroke-width="5.85075" stroke-linecap="round" stroke-linejoin="round"/>
<path d="M30.7168 56.314L34.3735 56.314" stroke="black" stroke-width="5.85075" stroke-linecap="round" stroke-linejoin="round"/>
<path d="M16.0898 32.9106H71.6719" stroke="black" stroke-width="5.85075" stroke-linecap="round" stroke-linejoin="round"/>
<path d="M29.9844 44.6123H70.2081" stroke="black" stroke-width="5.85075" stroke-linecap="round" stroke-linejoin="round"/>
<path d="M29.2539 21.9406C31.0823 21.9406 36.5673 21.9406 36.5673 21.9406C36.5673 21.9406 36.5673 21.575 36.5673 21.2093C36.5673 12.7272 43.6072 5.85107 52.2912 5.85107C60.9753 5.85107 68.0151 12.7272 68.0151 21.2093H72.4032C82.097 21.2093 89.9554 29.0677 89.9554 38.7615C89.9554 48.4554 82.097 56.3138 72.4032 56.3138H41.6867" stroke="black" stroke-width="5.85075" stroke-linecap="round" stroke-linejoin="round"/>
</svg>
