<svg width="183" height="36" viewBox="0 0 183 36" fill="none" xmlns="http://www.w3.org/2000/svg">
<path fill-rule="evenodd" clip-rule="evenodd" d="M15.8451 0.198736C14.9306 0.29265 13.496 0.590536 12.6571 0.860662C11.8184 1.13059 10.593 1.62083 9.93408 1.94983C9.27519 2.27882 8.15675 2.96397 7.44855 3.47233C6.74055 3.98088 5.64638 4.93026 5.01722 5.58234C4.38787 6.23442 3.54175 7.25527 3.1366 7.85084C2.73144 8.44642 2.13612 9.4653 1.81372 10.115C1.49112 10.7647 1.04351 11.8722 0.818729 12.5761C0.593946 13.2799 0.317516 14.3815 0.204439 15.0241C0.0913633 15.6666 -0.000584107 16.9955 2.7941e-06 17.9774C0.000589695 18.9591 0.0860816 20.2939 0.190159 20.9437C0.294236 21.5934 0.573015 22.7451 0.809732 23.5032C1.04664 24.2612 1.58816 25.5458 2.01307 26.358C2.43819 27.1701 3.20624 28.3662 3.71997 29.0159C4.23371 29.6656 5.0812 30.5983 5.60334 31.0883C6.12529 31.5786 6.99293 32.3009 7.53112 32.6935C8.0693 33.0863 9.14411 33.7281 9.9194 34.1197C10.6947 34.5114 11.883 35.0028 12.5601 35.2119C13.2372 35.4208 14.3632 35.6842 15.0626 35.797C15.762 35.91 17.0385 36.0012 17.8993 36C18.7601 35.9986 20.063 35.9104 20.7947 35.8039C21.5265 35.6974 22.691 35.4263 23.3825 35.2014C24.0741 34.9766 25.1041 34.5704 25.6714 34.2985C26.2386 34.0268 27.3181 33.3915 28.0703 32.8869C28.8223 32.382 30.0108 31.3897 30.7113 30.6816C31.4117 29.9734 32.4347 28.7212 32.9842 27.8988C33.5339 27.0764 34.2697 25.7122 34.6193 24.867C34.9689 24.0219 35.4281 22.4833 35.6397 21.4479C35.9355 20.0006 36.0036 19.0648 35.934 17.3997C35.88 16.1052 35.6791 14.614 35.4345 13.6926C35.2095 12.845 34.787 11.6046 34.4957 10.9362C34.2044 10.268 33.5744 9.10106 33.0957 8.34305C32.617 7.58505 31.5993 6.31653 30.8342 5.52426C30.0689 4.732 29.0025 3.79168 28.4641 3.43473C27.9257 3.07778 26.9029 2.47098 26.191 2.08646C25.4791 1.70195 24.1891 1.16248 23.3244 0.887633C22.4597 0.612783 20.854 0.295012 19.7561 0.181606C18.6584 0.068201 17.7033 -0.0127187 17.634 0.00165381C17.5648 0.0160264 16.7597 0.104626 15.8451 0.198736ZM20.8896 3.63575C21.7183 3.80782 22.895 4.15296 23.5048 4.40222C24.1146 4.65167 25.2277 5.25551 25.9784 5.74418C26.7292 6.23304 27.8349 7.13556 28.4357 7.75004C29.0367 8.36432 29.8738 9.38792 30.2962 10.0246C30.7188 10.6612 31.338 11.9031 31.6723 12.7844C32.037 13.7456 32.3707 15.1275 32.5065 16.2383C32.6722 17.5956 32.6763 18.5501 32.5217 19.8133C32.4057 20.7613 32.117 22.1005 31.8801 22.7892C31.6431 23.4781 31.1106 24.6333 30.6965 25.356C30.2823 26.079 29.447 27.2227 28.8401 27.8976C28.2332 28.5725 27.1892 29.518 26.5201 29.9984C25.8508 30.479 24.7379 31.1267 24.0467 31.438C23.3557 31.7493 22.1739 32.1458 21.4207 32.3192C20.6675 32.4927 19.8091 32.6719 19.5133 32.7175C19.2175 32.7632 18.9753 32.7286 18.9753 32.6408C18.9753 32.5529 19.0954 32.4102 19.2421 32.3236C19.3891 32.2369 20.0151 31.7231 20.6333 31.1816C21.2515 30.6402 21.8464 30.1411 21.9552 30.0724C22.0641 30.0037 22.1203 29.8523 22.0804 29.7361C22.0403 29.62 21.6114 29.0382 21.1273 28.4432C20.6431 27.8482 20.2007 27.3572 20.1444 27.352C20.0882 27.3467 19.2304 28.0569 18.2381 28.9303L16.4344 30.5179L14.572 26.7279C13.5476 24.6433 12.778 22.8688 12.8617 22.7845C12.9455 22.7003 13.629 22.4963 14.3806 22.3311C15.1323 22.1659 16.5396 21.8444 17.508 21.6164C18.4764 21.3886 19.7529 21.0858 20.3447 20.9437C20.9365 20.8015 22.213 20.4993 23.1814 20.2721C24.1498 20.0449 25.4482 19.7551 26.067 19.6283L27.1919 19.3975V14.8135V10.2292L26.4583 10.029C26.0549 9.91891 24.9763 9.65351 24.0618 9.43911C23.1472 9.2247 21.4305 8.82168 20.2469 8.54348C19.0633 8.26509 17.6107 7.91522 17.0189 7.76579C16.4272 7.61655 14.5115 7.15762 12.762 6.74633C10.2254 6.14977 9.63104 5.94894 9.82746 5.75442C9.96303 5.62014 10.6902 5.20846 11.4434 4.8391C12.1966 4.46995 13.3851 4.024 14.0844 3.84799C14.7838 3.67197 15.5321 3.49202 15.7473 3.44812C15.9625 3.40421 16.8685 3.35794 17.7608 3.34534C18.6531 3.33274 20.0611 3.46347 20.8896 3.63575ZM9.38924 9.30345C10.519 9.572 12.5878 10.0624 13.9866 10.3934C15.3854 10.7242 18.0705 11.3577 19.9535 11.8013C21.8364 12.2447 23.4901 12.6432 23.6284 12.6867C23.8166 12.746 23.8659 13.2713 23.8241 14.7751L23.7683 16.7843L21.6163 17.3046C20.4328 17.5909 18.584 18.0272 17.508 18.2743C16.432 18.5216 15.0675 18.8437 14.4757 18.9904C13.8839 19.137 12.6514 19.43 11.7368 19.6417C10.8223 19.8533 9.61168 20.1309 9.04688 20.2587C8.48209 20.3863 8.0198 20.5662 8.0198 20.6588C8.0198 20.7511 9.24858 23.3301 10.7503 26.3899C12.2521 29.4498 13.4543 31.9798 13.422 32.0123C13.3898 32.0448 12.8874 31.8774 12.3056 31.6402C11.7237 31.4029 10.6755 30.8343 9.97614 30.3768C9.27675 29.9192 8.25633 29.1132 7.70855 28.5855C7.16058 28.0581 6.35672 27.0973 5.92183 26.4507C5.48713 25.8041 4.95697 24.9207 4.74392 24.4876C4.53088 24.0544 4.15017 23.1241 3.8978 22.4203C3.49323 21.291 3.43826 20.7818 3.43083 18.0888C3.42339 15.389 3.47504 14.8838 3.87922 13.7058C4.13061 12.9736 4.54438 11.9805 4.7987 11.4989C5.05322 11.0173 5.41416 10.3761 5.6008 10.0739C5.78743 9.77164 6.1161 9.32413 6.3311 9.0796C6.5461 8.83487 6.8599 8.6752 7.02853 8.72481C7.19717 8.77443 8.25946 9.0349 9.38924 9.30345ZM68.9313 8.84294C68.4852 8.93194 67.6616 9.23848 67.1009 9.52436C66.5403 9.81043 65.7162 10.4225 65.2696 10.885C64.8232 11.3473 64.2157 12.2071 63.9199 12.7956C63.6241 13.3839 63.2521 14.4835 63.093 15.2387C62.9341 15.9942 62.804 17.2324 62.804 17.9904C62.804 18.7484 62.9341 19.9866 63.093 20.742C63.2521 21.4973 63.6247 22.5989 63.9211 23.1899C64.2175 23.7808 64.9038 24.7185 65.4463 25.2737C66.1461 25.99 66.8278 26.4458 67.7939 26.8431C69.018 27.3465 69.3824 27.403 71.4051 27.403C73.4048 27.403 73.7996 27.3434 74.9574 26.8667C75.8129 26.5145 76.6017 25.9957 77.2553 25.3548C77.8027 24.8183 78.4645 23.9542 78.7261 23.4348C78.9876 22.9157 79.3517 21.921 79.535 21.225C79.743 20.4351 79.8684 19.2189 79.8684 17.9904C79.8684 16.8118 79.743 15.5474 79.5561 14.8402C79.3842 14.1905 79.0553 13.2671 78.8251 12.7885C78.5948 12.3097 77.9431 11.4519 77.3772 10.8821C76.811 10.3125 75.962 9.66631 75.4905 9.44639C75.0188 9.22648 74.2369 8.95674 73.7527 8.84728C73.2685 8.73761 72.168 8.65551 71.3073 8.66476C70.4465 8.67402 69.3773 8.75415 68.9313 8.84294ZM130.353 8.84117C129.796 8.94217 128.872 9.23632 128.299 9.49443C127.727 9.75274 126.912 10.2448 126.489 10.5879C126.066 10.9309 125.501 11.5357 125.234 11.9319C124.966 12.328 124.548 13.2331 124.303 13.943C124.059 14.6532 123.801 15.9871 123.729 16.9075C123.656 17.8429 123.692 19.2451 123.81 20.0866C123.926 20.9149 124.2 22.0736 124.419 22.6619C124.637 23.25 125.136 24.1078 125.528 24.5681C125.919 25.0284 126.576 25.6187 126.987 25.8797C127.398 26.1408 128.199 26.5387 128.768 26.7638C129.475 27.0435 130.451 27.2075 131.856 27.2819C132.986 27.342 134.518 27.2951 135.261 27.178C136.005 27.0609 136.676 26.8949 136.753 26.8092C136.83 26.7234 136.82 26.0004 136.731 25.2027C136.643 24.4047 136.542 23.7241 136.508 23.69C136.475 23.6559 135.588 23.7752 134.539 23.9548C132.739 24.2631 132.556 24.2619 131.314 23.9349C130.59 23.7443 129.701 23.347 129.338 23.0523C128.975 22.7574 128.447 22.0738 128.164 21.5329C127.688 20.6233 127.65 20.3662 127.651 18.0888C127.651 15.7437 127.679 15.5738 128.236 14.4827C128.641 13.6891 129.082 13.1632 129.672 12.7698C130.141 12.4575 130.991 12.097 131.561 11.9685C132.347 11.7915 132.948 11.7887 134.037 11.9569C134.828 12.0791 135.663 12.2317 135.892 12.2961C136.273 12.4026 136.329 12.3016 136.528 11.1494C136.648 10.4544 136.747 9.7053 136.747 9.48479C136.747 9.1747 136.58 9.05538 136.013 8.95911C135.61 8.89079 134.399 8.79471 133.323 8.74608C132.247 8.69725 130.911 8.74017 130.353 8.84117ZM147.461 8.81341C147.06 8.89886 146.356 9.13276 145.896 9.33318C145.437 9.53342 144.697 9.98822 144.252 10.3436C143.807 10.6992 143.135 11.4576 142.759 12.0291C142.382 12.6007 141.888 13.6981 141.66 14.4677C141.35 15.5152 141.246 16.4009 141.246 17.9904C141.246 19.5773 141.35 20.4654 141.658 21.506C141.885 22.2716 142.354 23.3445 142.701 23.8898C143.048 24.4352 143.658 25.1694 144.057 25.5216C144.456 25.8736 145.221 26.3855 145.757 26.659C146.309 26.9404 147.4 27.2514 148.27 27.3751C149.407 27.5371 150.197 27.5357 151.304 27.3702C152.127 27.2469 153.246 26.9189 153.79 26.6413C154.335 26.3637 155.166 25.7787 155.637 25.3415C156.109 24.9044 156.716 24.1472 156.987 23.6591C157.258 23.171 157.657 22.1736 157.873 21.4428C158.163 20.4613 158.266 19.5454 158.266 17.9408C158.266 16.2848 158.168 15.4464 157.853 14.4179C157.625 13.6757 157.131 12.6007 156.754 12.0291C156.377 11.4576 155.705 10.6974 155.26 10.3399C154.815 9.98231 153.968 9.48577 153.377 9.23652C152.539 8.88311 151.851 8.7697 150.247 8.72068C149.116 8.68603 147.863 8.72777 147.461 8.81341ZM50.4723 8.95576C50.3109 9.01738 49.8169 9.23159 49.3748 9.43182C48.9325 9.63206 48.326 10.0884 48.0269 10.4462C47.7279 10.8039 47.3195 11.481 47.1193 11.951C46.8928 12.4826 46.7568 13.2648 46.7596 14.0198C46.7623 14.7804 46.8994 15.5284 47.1269 16.0215C47.3267 16.4547 47.7868 17.0916 48.1497 17.4371C48.5126 17.7825 49.4256 18.3684 50.1788 18.7389C50.932 19.1095 51.8779 19.5676 52.2807 19.757C52.6835 19.9464 53.2779 20.4048 53.6012 20.7755C53.9675 21.1955 54.1893 21.6662 54.1893 22.0242C54.1893 22.3402 54.0939 22.8097 53.9771 23.0676C53.8603 23.3256 53.5165 23.6841 53.2131 23.8644C52.9099 24.0448 52.2792 24.1907 51.8116 24.1889C51.344 24.1869 50.3436 24.0239 49.5884 23.8264C48.8333 23.629 48.0247 23.3647 47.7917 23.2391C47.5585 23.1137 47.3251 23.0109 47.2729 23.0109C47.2207 23.0109 47.0432 23.4317 46.8783 23.9461C46.7136 24.4606 46.5224 25.204 46.4536 25.5984C46.3344 26.2804 46.3603 26.3253 46.982 26.5133C47.3416 26.622 48.0758 26.8309 48.6138 26.9774C49.1831 27.1325 50.5321 27.2402 51.8417 27.2347C53.7106 27.2272 54.2406 27.1552 54.9719 26.8096C55.456 26.5808 56.0944 26.1605 56.3904 25.8756C56.6862 25.5905 57.1225 24.9845 57.3596 24.5287C57.7027 23.869 57.7921 23.3588 57.7986 22.0265C57.8052 20.6643 57.7258 20.2004 57.3721 19.5332C57.133 19.0823 56.5612 18.4042 56.1014 18.026C55.6415 17.648 54.3609 16.8754 53.2554 16.3092C52.15 15.7432 51.0199 15.0098 50.7438 14.6796C50.358 14.2183 50.2688 13.9442 50.3582 13.4941C50.4222 13.1722 50.5842 12.7761 50.718 12.6135C50.8518 12.451 51.2446 12.199 51.5909 12.0533C51.9372 11.9076 52.5235 11.7885 52.894 11.7885C53.2644 11.7885 54.1255 11.9645 54.8077 12.1797C55.4897 12.3949 56.1554 12.5721 56.2867 12.5735C56.4182 12.5749 56.7142 11.9512 56.9448 11.1874C57.1753 10.4237 57.3083 9.7427 57.2402 9.67439C57.1721 9.60587 56.7881 9.42435 56.3865 9.27097C55.9516 9.1048 54.6682 8.96206 53.2112 8.91776C51.8662 8.87701 50.6337 8.89394 50.4723 8.95576ZM84.9934 9.27826C84.9417 9.41371 84.9226 13.467 84.9505 18.2857L85.0016 27.0471H86.6645H88.3274L88.3808 23.5524L88.4342 20.0577H89.8705C91.0324 20.0577 91.4065 20.1364 91.8279 20.4701C92.1145 20.697 92.5405 21.2506 92.7747 21.7007C93.0091 22.1506 93.614 23.5376 94.1191 24.7829L95.0376 27.0471L96.9157 27.1034C98.0386 27.137 98.7938 27.0829 98.7938 26.9685C98.7938 26.8634 98.0922 25.1989 97.235 23.2698C96.0391 20.5792 95.5151 19.62 94.9852 19.1508C94.6051 18.8145 94.2942 18.4822 94.2942 18.4125C94.2942 18.3428 94.4231 18.2857 94.5808 18.2857C94.7385 18.2857 95.1744 18.0146 95.5494 17.6832C95.9594 17.3208 96.391 16.651 96.6322 16.0023C96.8527 15.4092 97.0331 14.5443 97.0331 14.0805C97.0331 13.6164 96.8891 12.8003 96.7132 12.2666C96.5373 11.733 96.2087 11.0914 95.9829 10.8411C95.7571 10.5907 95.3068 10.2209 94.9822 10.0193C94.6577 9.81792 93.7924 9.51333 93.0594 9.34264C92.1244 9.12488 90.7358 9.03215 88.407 9.03215C85.9315 9.03215 85.0632 9.09476 84.9934 9.27826ZM109.491 9.77047C109.316 10.1766 108.109 13.2996 106.808 16.7106C105.507 20.1217 104.101 23.7985 103.684 24.8813C103.266 25.9642 102.994 26.9203 103.078 27.0059C103.162 27.0916 104.008 27.1359 104.958 27.1044L106.685 27.0471L107.364 24.9306L108.044 22.8141H111.395H114.747L115.217 24.2415C115.476 25.0266 115.813 26.0012 115.967 26.4072L116.248 27.1455H117.955C118.893 27.1455 119.715 27.0912 119.782 27.0246C119.848 26.9581 119.65 26.227 119.343 25.4003C119.035 24.5734 118.371 22.8337 117.868 21.5343C117.365 20.2349 116.791 18.7287 116.593 18.1873C116.395 17.6458 115.869 16.2726 115.425 15.1356C114.98 13.9986 114.356 12.3595 114.038 11.4932C113.719 10.6269 113.358 9.71888 113.234 9.47514C113.028 9.07035 112.871 9.03215 111.409 9.03215H109.809L109.491 9.77047ZM163.661 11.0502C163.594 12.1601 163.399 15.9477 163.226 19.467C163.054 22.9863 162.902 26.1316 162.888 26.4564L162.864 27.0471H164.527H166.19L166.333 26.0626C166.412 25.5212 166.533 22.5089 166.602 19.3686L166.728 13.6589L167.496 15.9231C167.919 17.1684 168.605 19.2504 169.02 20.5499C169.436 21.8493 170.028 23.6656 170.337 24.586L170.899 26.2595L172.378 26.3164C173.408 26.3562 173.918 26.2963 174.059 26.1195C174.171 25.98 175.144 23.2078 176.223 19.9592C177.301 16.7106 178.228 14.1856 178.284 14.348C178.339 14.5105 178.445 16.4596 178.52 18.6795C178.595 20.8994 178.712 23.6902 178.781 24.8813L178.906 27.0471L180.55 27.1048C181.455 27.1365 182.262 27.0922 182.345 27.0063C182.427 26.9205 182.416 25.3883 182.321 23.6016C182.227 21.8149 182.057 18.6253 181.944 16.5138C181.831 14.4022 181.687 11.8549 181.625 10.8533L181.51 9.03215H179.099H176.688L176.379 9.91813C176.208 10.4054 175.945 11.1807 175.794 11.6409C175.642 12.101 174.931 14.3382 174.214 16.6122C173.496 18.8862 172.846 20.9135 172.768 21.1173C172.669 21.3748 172.131 19.9663 170.998 16.4905C170.102 13.742 169.182 10.9396 168.954 10.2627L168.538 9.03215H166.16H163.782L163.661 11.0502ZM73.4731 12.1612C73.9111 12.3615 74.536 12.8505 74.8617 13.2484C75.1875 13.6461 75.5995 14.4979 75.7771 15.1413C75.9626 15.8125 76.1003 17.0333 76.1003 18.0063C76.1003 18.953 75.9667 20.1642 75.7978 20.7485C75.6315 21.3242 75.2366 22.1551 74.9202 22.5947C74.6037 23.0344 73.9694 23.5906 73.5107 23.8308C72.8766 24.1627 72.348 24.2661 71.3051 24.2619C70.1747 24.2576 69.7933 24.1676 69.1369 23.7504C68.6989 23.4722 68.1063 22.9645 67.8203 22.6223C67.5343 22.2803 67.1571 21.5054 66.9824 20.9003C66.74 20.0612 66.6846 19.2355 66.749 17.4186C66.8173 15.4967 66.9125 14.8851 67.2428 14.2496C67.4679 13.8164 67.9025 13.2232 68.208 12.9314C68.5138 12.6397 69.0721 12.2666 69.4487 12.1024C69.8253 11.9382 70.7057 11.8025 71.4051 11.8005C72.2308 11.7984 72.9561 11.9248 73.4731 12.1612ZM151.9 12.199C152.377 12.4247 152.975 12.8899 153.229 13.2327C153.484 13.5755 153.838 14.2545 154.018 14.7418C154.198 15.2291 154.399 16.248 154.465 17.006C154.531 17.764 154.491 18.96 154.376 19.6639C154.261 20.3678 153.921 21.428 153.621 22.02C153.219 22.8133 152.831 23.249 152.143 23.677C151.334 24.1804 151.021 24.2576 149.798 24.2562C148.753 24.2551 148.18 24.1476 147.589 23.8426C147.149 23.616 146.569 23.1369 146.298 22.7778C146.027 22.4187 145.64 21.6377 145.437 21.0421C145.174 20.2687 145.068 19.3965 145.065 17.9904C145.062 16.5313 145.162 15.7217 145.452 14.8629C145.684 14.1765 146.127 13.4101 146.539 12.9828C146.921 12.5861 147.538 12.164 147.908 12.0451C148.279 11.9262 149.134 11.8196 149.807 11.8086C150.674 11.7944 151.286 11.9086 151.9 12.199ZM92.3171 12.4668C92.6133 12.621 92.967 12.8822 93.1034 13.0476C93.2397 13.213 93.3964 13.6871 93.4516 14.1013C93.5121 14.555 93.4319 15.1434 93.2501 15.5813C93.0811 15.9885 92.6636 16.483 92.3007 16.7055C91.7897 17.0192 91.3127 17.103 90.0392 17.1036L88.4252 17.1044V14.5158V11.9273L90.1022 12.0571C91.0244 12.1284 92.0211 12.3128 92.3171 12.4668ZM111.99 16.2777C112.122 16.8807 112.144 16.891 113.431 16.9481L114.738 17.006L113.708 17.6805C112.868 18.2314 112.702 18.4298 112.803 18.7634C112.871 18.988 113.048 19.4704 113.196 19.8356C113.345 20.2008 113.466 20.5834 113.466 20.6857C113.466 20.7883 113.18 20.6696 112.83 20.4221C112.481 20.1746 112.078 19.8586 111.936 19.7196C111.794 19.5806 111.565 19.467 111.426 19.467C111.288 19.467 110.766 19.7812 110.267 20.1652C109.767 20.5491 109.358 20.7842 109.358 20.6875C109.358 20.591 109.48 20.2548 109.629 19.9403C109.778 19.6259 109.948 19.1471 110.008 18.8764C110.102 18.4548 109.973 18.2851 109.113 17.6951L108.109 17.006L109.384 16.9485L110.658 16.8912L111.014 15.6955L111.37 14.4998L111.613 15.0824C111.747 15.4029 111.917 15.9408 111.99 16.2777ZM24.4339 22.7648C24.3212 23.0625 24.1803 23.55 24.1208 23.8477C24.0175 24.3661 23.9618 24.3895 22.8146 24.4002L21.6163 24.411L22.1815 24.8431C22.4924 25.0808 22.9171 25.4098 23.1256 25.5746C23.4997 25.8701 23.4993 25.8872 23.0912 26.9291C22.8639 27.5094 22.7205 28.027 22.7723 28.0791C22.8242 28.1313 23.2546 27.8539 23.7288 27.4629C24.203 27.0717 24.6702 26.7535 24.7666 26.7555C24.8631 26.7576 25.2933 27.0677 25.7225 27.4446C26.1517 27.8216 26.5657 28.1299 26.6424 28.1299C26.719 28.1299 26.648 27.7092 26.4845 27.1947C26.3211 26.6803 26.1713 26.1329 26.1515 25.9782C26.132 25.8236 26.5121 25.4249 26.9963 25.0922L27.8766 24.4876L26.7535 24.4285C25.9334 24.3856 25.5816 24.2783 25.4502 24.0312C25.3512 23.8451 25.2086 23.3622 25.1332 22.9582C25.0579 22.554 24.9159 22.2234 24.8177 22.2234C24.7195 22.2234 24.5467 22.4671 24.4339 22.7648Z" fill="black"/>
</svg>
