<svg width="206" height="66" viewBox="0 0 206 66" fill="none" xmlns="http://www.w3.org/2000/svg">
<path d="M14.2512 23.9439C10.2369 22.5729 2.81508 21.4038 2.4966 28.321C2.13579 36.1577 15.7093 34.9433 15.2721 43.5235C14.8071 52.6492 2.92042 48.8766 1.77539 47.7993M17.5322 23.0249H25.9351M34.338 23.0249H25.9351M25.9351 23.0249V50.219M33.9225 49.2956L36.204 41.79M50.1282 49.2956L47.8596 41.79M47.8596 41.79L42.0484 22.5632L36.204 41.79M47.8596 41.79H36.204M66.934 48.1413C62.2555 50.3113 52.8984 51.5394 52.8984 39.092C52.8984 37.7531 52.8984 34.9367 52.8984 33.2284C52.8984 18.0385 66.2876 23.9945 66.2876 23.9945M83.232 23.0711H71.274V35.4908M83.232 49.2956H71.274V35.4908M71.274 35.4908H82.3548M86.6417 23.0711L94.5305 38.8585M94.5305 38.8585L102.479 23.0711M94.5305 38.8585V63.9097M135.115 49.5307V22.1807L149.731 49.21V4.95215M163.172 49.5307V22.1807M187.46 23.0898H195.695M203.93 23.0898H195.695M195.695 23.0898V49.5306M130.013 32.4754C130.013 36.4777 130.013 37.3419 130.013 39.9343C130.013 43.4378 129.193 49.5307 121.466 49.5307C115.634 49.5583 112.771 45.3634 112.771 39.9345V32.4756C112.771 28.4733 113.846 22.8661 121.431 22.8661C128.363 22.8661 130.013 27.2058 130.013 32.4754ZM185.743 32.4753V39.9342C185.743 43.4377 184.923 49.5306 177.196 49.5306C171.364 49.5581 168.501 45.3632 168.501 39.9343V32.4755C168.501 28.4732 169.576 22.8659 177.161 22.8659C184.093 22.8659 185.743 27.2057 185.743 32.4753Z" stroke="black" stroke-width="1.97265" stroke-linecap="round" stroke-linejoin="round"/>
<rect x="23.9082" y="47.5527" width="4.01053" height="4.91469" rx="1.57812" fill="black"/>
<rect x="92.5254" y="61.6348" width="4.01053" height="4.91469" rx="1.57812" fill="black"/>
<rect x="148.545" y="1.14551" width="0.712808" height="1.71182" fill="black"/>
<rect x="150.201" y="1.14648" width="0.712808" height="1.71182" fill="black"/>
<rect x="147.725" y="2.49512" width="4.01053" height="4.91469" rx="1.57812" fill="black"/>
<rect x="162.018" y="16.5332" width="0.712808" height="1.71182" fill="black"/>
<rect x="163.672" y="16.5332" width="0.712808" height="1.71182" fill="black"/>
<rect x="161.197" y="17.8809" width="4.01053" height="4.91469" rx="1.57812" fill="black"/>
</svg>
