<svg width="96" height="36" viewBox="0 0 96 36" fill="none" xmlns="http://www.w3.org/2000/svg">
<path fill-rule="evenodd" clip-rule="evenodd" d="M15.2244 0.164109C14.6384 0.274168 13.5426 0.570295 12.7893 0.822317C12.0358 1.07434 10.9766 1.50171 10.4353 1.77209C9.89398 2.04235 8.93817 2.60162 8.3113 3.01478C7.68442 3.42807 6.59359 4.32543 5.88733 5.00898C5.18093 5.69239 4.25999 6.72796 3.84082 7.31002C3.42165 7.89209 2.78096 8.93356 2.41717 9.62461C2.05338 10.3157 1.54384 11.5144 1.28504 12.2885C1.02624 13.0627 0.721185 14.2318 0.607208 14.8867C0.485721 15.5845 0.399902 16.867 0.399902 17.9859C0.399902 19.1047 0.485721 20.3872 0.607208 21.0851C0.721185 21.7399 1.0194 22.8885 1.26989 23.6376C1.52037 24.3867 1.94651 25.4424 2.21698 25.9836C2.4873 26.5247 3.04673 27.4803 3.46 28.107C3.87341 28.7337 4.77101 29.8242 5.45475 30.5303C6.13834 31.2365 7.1742 32.1572 7.75643 32.5762C8.33865 32.9953 9.38041 33.6358 10.0716 33.9995C10.7629 34.3632 11.9619 34.8727 12.7363 35.1317C13.5107 35.3907 14.7175 35.7021 15.4181 35.8238C16.4064 35.9954 17.2181 36.0299 19.0386 35.9776C20.9685 35.9221 21.6305 35.8482 22.7659 35.5615C23.5253 35.3698 24.6718 34.9959 25.3137 34.7305C25.9554 34.4652 26.865 34.0334 27.3348 33.7711C27.8046 33.5087 28.6493 32.9525 29.2121 32.5349C29.7748 32.1175 30.6124 31.4266 31.0733 30.9995C31.5343 30.5724 31.9114 30.1691 31.9114 30.1033C31.9114 30.0376 31.5192 29.9837 31.0398 29.9837H30.1682V29.1624V28.3409L29.5547 28.9062C29.2174 29.2172 28.6135 29.6215 28.2129 29.8049C27.8123 29.9883 27.0805 30.1956 26.5865 30.2654C26.0064 30.3476 25.3469 30.345 24.7238 30.2584C24.1934 30.1847 23.4242 29.999 23.0146 29.8458C22.5998 29.6907 21.9668 29.2948 21.5862 28.9527C21.2102 28.6148 20.7756 28.0901 20.6206 27.787C20.4655 27.4838 20.258 26.934 20.1595 26.5654C20.0242 26.0588 19.9801 24.5611 19.9789 20.4324L19.9772 14.9696H21.9839H23.9906L24.0288 19.9632C24.0653 24.7225 24.0802 24.9819 24.3465 25.4929C24.5207 25.8274 24.8358 26.1463 25.1838 26.3404C25.4906 26.5116 26.0633 26.6848 26.4564 26.7253C26.9252 26.7737 27.4329 26.7231 27.9312 26.5782C28.4265 26.4342 28.853 26.1955 29.1559 25.8927C29.441 25.6078 29.7008 25.1589 29.8275 24.7323C29.9958 24.1656 30.0341 23.1963 30.0341 19.5031V14.9696H32.0455H34.0568V20.9351C34.0568 24.216 34.1085 26.9005 34.1715 26.9005C34.2345 26.9005 34.5331 26.3691 34.835 25.7196C35.1367 25.0702 35.5365 24.0707 35.7233 23.4987C35.9101 22.9266 36.1672 21.9347 36.2947 21.2946C36.456 20.4841 36.5263 19.4796 36.5263 17.9859C36.5263 16.4921 36.456 15.4876 36.2947 14.6771C36.1672 14.037 35.9095 13.0417 35.7219 12.4652C35.5343 11.8888 35.1181 10.8617 34.7969 10.1825C34.4758 9.50356 33.8309 8.38956 33.3639 7.70723C32.897 7.02475 32.0321 5.97484 31.4421 5.37414C30.8521 4.77344 29.8787 3.92099 29.2792 3.47982C28.6795 3.03864 27.8046 2.46301 27.3348 2.20067C26.865 1.93832 25.9554 1.50653 25.3137 1.24124C24.6718 0.97581 23.5253 0.601395 22.7659 0.409027C21.5716 0.106466 21.0413 0.0528441 18.8375 0.0116894C16.9712 -0.0231648 16.0048 0.0177218 15.2244 0.164109ZM16.2388 8.64145C16.7509 8.90889 17.0667 9.19483 17.3428 9.64137C17.5554 9.98522 17.7603 10.5405 17.798 10.8753C17.8358 11.2102 17.7924 11.7492 17.7017 12.0731C17.6109 12.3971 17.3618 12.8744 17.1481 13.1336C16.9343 13.3929 16.4989 13.7311 16.1805 13.8851C15.8201 14.0595 15.3376 14.1653 14.9022 14.1653C14.5174 14.1653 13.9784 14.0716 13.7042 13.9571C13.43 13.8426 13.0341 13.5862 12.8245 13.3874C12.6151 13.1886 12.3284 12.802 12.1876 12.5285C12.0185 12.1997 11.9318 11.755 11.9318 11.2161C11.9318 10.6772 12.0185 10.2325 12.1876 9.90371C12.3284 9.63024 12.6151 9.24376 12.8245 9.04509C13.0341 8.84642 13.4168 8.59239 13.675 8.48059C13.9331 8.36879 14.4542 8.27508 14.833 8.27213C15.3337 8.26838 15.7173 8.36905 16.2388 8.64145ZM38.8841 19.5275V30.1178H40.8955H42.9069V29.1844V28.2511L43.5177 28.8445C43.8537 29.171 44.5311 29.6363 45.0232 29.8785C45.8901 30.3052 45.9698 30.3189 47.597 30.3189C48.8717 30.3189 49.4438 30.2604 49.9718 30.0764C50.3543 29.9429 51.0315 29.5985 51.4767 29.3108C51.9804 28.9853 52.5123 28.4807 52.8848 27.9748C53.214 27.5276 53.6142 26.8164 53.7741 26.3944C53.934 25.9723 54.1559 25.1142 54.2674 24.4875C54.4086 23.694 54.4471 22.9003 54.3945 21.8734C54.3531 21.0624 54.2242 20.0369 54.1083 19.5945C53.9924 19.1521 53.7061 18.4081 53.4719 17.9412C53.238 17.4743 52.7328 16.7787 52.3495 16.3956C51.9662 16.0123 51.3292 15.5367 50.9337 15.3384C50.5383 15.1403 49.8552 14.8857 49.4157 14.7728C48.9761 14.6598 48.1917 14.5681 47.6725 14.5691C47.1533 14.5699 46.4268 14.6513 46.058 14.7496C45.6893 14.8482 45.1252 15.0629 44.8044 15.2269C44.4835 15.3907 43.9556 15.7695 43.6311 16.0686L43.041 16.6125V12.7748V8.93718H40.9626H38.8841V19.5275ZM56.8851 19.494L56.9194 30.0508H58.9979H61.0763L61.1106 19.494L61.1449 8.93718H58.9979H56.8508L56.8851 19.494ZM69.1218 14.7885C68.6055 14.898 67.7413 15.1991 67.2013 15.4575C66.561 15.7639 65.9545 16.1925 65.4581 16.6893C65.0046 17.1431 64.526 17.8033 64.2746 18.3218C64.0424 18.8006 63.7558 19.6266 63.6377 20.1571C63.5194 20.6883 63.4229 21.7238 63.4229 22.4609C63.4229 23.1972 63.5143 24.2344 63.6262 24.7655C63.7379 25.2968 64.0197 26.1302 64.2524 26.6176C64.5142 27.1663 64.9602 27.7854 65.4235 28.2434C65.835 28.6502 66.5451 29.1796 67.0012 29.4196C67.4574 29.6597 68.2968 29.9754 68.8664 30.1211C69.5805 30.3036 70.3469 30.3859 71.3343 30.3859C72.3113 30.3859 73.0887 30.3035 73.7806 30.1265C74.3385 29.9839 75.091 29.7172 75.4526 29.534C75.8144 29.3507 76.4132 28.9616 76.7833 28.6691C77.1534 28.3766 77.6755 27.8071 77.9434 27.4037C78.2111 27.0004 78.5918 26.1943 78.7893 25.6124C79.0747 24.7714 79.161 24.2246 79.2099 22.9459C79.2544 21.7839 79.2123 21.0593 79.0586 20.3365C78.9415 19.7862 78.6408 18.9043 78.3902 18.3768C78.0914 17.7476 77.6768 17.164 77.1852 16.6803C76.7313 16.2338 76.0511 15.7545 75.4605 15.4652C74.9242 15.2025 74.0202 14.8931 73.4518 14.7775C72.8834 14.662 71.8878 14.5724 71.2393 14.5785C70.5909 14.5844 69.638 14.679 69.1218 14.7885ZM79.328 15.1372C79.382 15.2294 80.5946 16.914 82.0226 18.8807L84.6187 22.4566L81.8651 26.1553C80.3507 28.1894 79.1116 29.9147 79.1116 29.989C79.1116 30.076 79.9352 30.1111 81.4244 30.0875L83.7372 30.0508L85.3724 27.7718C86.2718 26.5184 87.036 25.4929 87.0706 25.4929C87.1052 25.4929 87.8832 26.5184 88.7995 27.7718L90.4658 30.0508L92.9837 30.0872C95.1753 30.1191 95.4918 30.0978 95.4246 29.923C95.3822 29.8126 94.1354 28.0855 92.6541 26.0853C90.0698 22.5957 89.9687 22.4361 90.1592 22.1454C90.2685 21.9787 91.4355 20.3714 92.7527 18.5736C94.0697 16.7757 95.1936 15.2294 95.25 15.1372C95.3305 15.0057 94.8492 14.9696 93.01 14.9696H90.6676L89.0921 17.1803C88.0269 18.6753 87.4695 19.3511 87.3705 19.2676C87.2899 19.1996 86.5603 18.2058 85.7491 17.0591L84.2741 14.9745L81.752 14.972C79.7708 14.9702 79.2509 15.0056 79.328 15.1372ZM48.2251 18.7021C48.5083 18.8477 48.9025 19.1382 49.1014 19.3476C49.3002 19.5571 49.5983 20.0302 49.7636 20.3988C50.0041 20.9349 50.066 21.3241 50.0726 22.3426C50.0772 23.0606 49.9992 23.897 49.8937 24.26C49.7796 24.6531 49.4776 25.1584 49.1188 25.5575C48.6957 26.0281 48.3392 26.2749 47.8471 26.4384C47.3572 26.601 46.8867 26.6477 46.189 26.6029C45.4479 26.5554 45.0663 26.4534 44.5942 26.1769C44.2529 25.9769 43.8163 25.5755 43.6239 25.2849C43.4316 24.9944 43.1925 24.4095 43.0926 23.9853C42.9928 23.5611 42.911 22.8822 42.911 22.4767C42.911 22.0712 42.9927 21.3929 43.0923 20.9692C43.1921 20.5458 43.4103 20.0028 43.5773 19.7628C43.7444 19.5228 44.0625 19.1792 44.284 18.9994C44.5055 18.8195 44.9651 18.5935 45.3054 18.4973C45.6614 18.3965 46.303 18.3466 46.8171 18.3797C47.3397 18.4135 47.9239 18.5473 48.2251 18.7021ZM73.032 18.7027C73.3152 18.8485 73.7403 19.1693 73.9768 19.4157C74.2135 19.6621 74.5038 20.1349 74.6222 20.4664C74.7406 20.7979 74.872 21.4693 74.9142 21.9583C74.9574 22.459 74.9181 23.2337 74.8243 23.7313C74.7305 24.2274 74.492 24.8759 74.2801 25.2098C74.0563 25.5626 73.6394 25.9593 73.2555 26.1849C72.6671 26.5306 72.492 26.5654 71.3343 26.5654C70.1765 26.5654 70.0014 26.5306 69.413 26.1849C69.0236 25.9561 68.6119 25.5622 68.3798 25.1964C68.1677 24.8618 67.9235 24.2488 67.8373 23.834C67.7493 23.4109 67.7108 22.5936 67.7495 21.9718C67.8008 21.1474 67.9089 20.6792 68.1717 20.142C68.3676 19.7417 68.7447 19.2527 69.0182 19.0441C69.2896 18.8371 69.7859 18.59 70.1213 18.495C70.4691 18.3963 71.1144 18.3469 71.624 18.3797C72.1479 18.4136 72.7302 18.5471 73.032 18.7027Z" fill="black"/>
</svg>
