<svg width="87" height="159" viewBox="0 0 87 159" fill="none" xmlns="http://www.w3.org/2000/svg">
<path d="M85.9265 4.96362C86.1246 4.33883 85.7787 3.67174 85.1539 3.47362L74.9723 0.245276C74.3475 0.0471629 73.6804 0.393062 73.4823 1.01785C73.2842 1.64265 73.6301 2.30974 74.2549 2.50785L83.3052 5.3775L80.4355 14.4278C80.2374 15.0526 80.5833 15.7197 81.2081 15.9178C81.8329 16.1159 82.5 15.77 82.6981 15.1452L85.9265 4.96362ZM2.97497 158.312C5.02883 154.982 6.27222 150.862 7.10596 146.186C7.9403 141.506 8.37802 136.184 8.77077 130.418C9.5587 118.848 10.1735 105.4 13.3658 91.1444C19.7256 62.7433 36.3358 31.0686 85.3415 5.6585L84.2489 3.55132C34.5932 29.2985 17.5557 61.5713 11.0496 90.6257C7.80879 105.098 7.18601 118.754 6.40267 130.256C6.00978 136.025 5.57846 141.231 4.76922 145.769C3.95937 150.311 2.78465 154.099 0.954713 157.066L2.97497 158.312Z" fill="white"/>
</svg>
