<svg width="209" height="223" viewBox="0 0 209 223" fill="none" xmlns="http://www.w3.org/2000/svg">
<path d="M159.556 215.31L101.458 205.531L92.5 190.38L114.624 189.937C95.5895 174.783 58.2996 134.24 57.1485 107.866C55.5151 70.446 57.8151 44.4461 53.0151 28.4461L66.5 5.5L75.5151 20.446C78.333 32.7424 79.7419 31.946 79.7419 96.6406C79.7419 126.946 111.967 157.689 128.046 173.652L133 141L142.055 155.277L159.556 215.31Z" fill="#FAC864"/>
<path d="M159.556 215.31L101.458 205.531L92.5 190.38L114.624 189.937C95.5895 174.783 58.2996 134.24 57.1485 107.866C55.5151 70.446 57.8151 44.4461 53.0151 28.4461L66.5 5.5L75.5151 20.446C78.333 32.7424 79.7419 31.946 79.7419 96.6406C79.7419 126.946 111.967 157.689 128.046 173.652L133 141L142.055 155.277L159.556 215.31ZM159.556 215.31L150 200" stroke="black" stroke-width="2" stroke-linecap="round" stroke-linejoin="round"/>
<path d="M150.556 200.31L92.4576 190.531C93.1725 188.095 101.906 179.415 106.183 175.38C87.3307 160.586 49.311 119.501 48.1485 92.8661C46.5151 55.446 48.8151 29.4461 44.0151 13.4461L66.5151 5.44604C69.333 17.7424 70.7419 16.946 70.7419 81.6406C70.7419 111.946 102.967 142.689 119.046 158.652L133.055 140.277L150.556 200.31Z" fill="white" stroke="black" stroke-width="2" stroke-linecap="round" stroke-linejoin="round"/>
</svg>
