<svg width="154" height="182" viewBox="0 0 154 182" fill="none" xmlns="http://www.w3.org/2000/svg">
<path d="M89.902 105.497L89.4078 106.576L89.4274 106.585L89.4473 106.593L89.902 105.497ZM64.0969 95.6336L63.0298 95.1143L64.0969 95.6336ZM71.1696 137.199L70.2042 137.889L70.2092 137.896L71.1696 137.199ZM121.58 174.808C122.156 174.495 122.37 173.775 122.057 173.199L116.96 163.813C116.647 163.237 115.926 163.023 115.35 163.336C114.774 163.649 114.561 164.369 114.874 164.945L119.405 173.289L111.061 177.82C110.485 178.133 110.272 178.853 110.585 179.429C110.897 180.005 111.618 180.218 112.194 179.906L121.58 174.808ZM69.2739 85.8579C66.8953 88.5521 64.7638 91.551 63.0298 95.1143L65.1641 96.1529C66.789 92.8138 68.7913 89.991 71.0533 87.4288L69.2739 85.8579ZM63.0298 95.1143C55.564 110.456 61.0955 125.15 70.2042 137.889L72.135 136.508C63.2158 124.035 58.2694 110.321 65.1641 96.1529L63.0298 95.1143ZM70.2092 137.896C77.008 147.259 96.5839 167.769 120.677 174.903L121.351 172.627C97.9657 165.702 78.7781 145.657 72.1299 136.501L70.2092 137.896ZM90.3961 104.418C70.4839 95.2994 56.5773 82.0381 47.773 64.8155C38.9565 47.5692 35.2152 26.2688 35.7937 1.02719L33.4207 0.972811C32.8366 26.4594 36.6063 48.1865 45.6595 65.8959C54.7249 83.6291 69.047 97.252 89.4078 106.576L90.3961 104.418ZM89.4473 106.593C96.3586 109.459 106.918 112.166 116.051 110.805C120.641 110.122 124.949 108.398 128.22 105.069C131.502 101.729 133.626 96.8919 134.055 90.2064L131.686 90.0545C131.286 96.2997 129.328 100.555 126.527 103.405C123.717 106.265 119.942 107.826 115.701 108.458C107.172 109.728 97.077 107.188 90.3566 104.4L89.4473 106.593ZM134.055 90.2064C134.553 82.4359 132.512 77.0987 128.683 73.5798C124.908 70.111 119.584 68.5894 113.883 67.9958L113.637 70.3566C119.144 70.9301 123.858 72.3693 127.077 75.3276C130.242 78.2359 132.152 82.7923 131.686 90.0545L134.055 90.2064ZM71.0533 87.4288C81.5206 75.5728 97.9532 68.7236 113.637 70.3566L113.883 67.9958C97.3898 66.2786 80.2174 73.4625 69.2739 85.8579L71.0533 87.4288Z" fill="black"/>
</svg>
