<svg width="171" height="146" viewBox="0 0 171 146" fill="none" xmlns="http://www.w3.org/2000/svg">
<path d="M64.6538 111.368L11.9808 145L8.17308 134.739L5 86.6207C7.53846 86.6207 18.3269 92.5432 23.4038 95.5044C32.2885 73.2949 60.4237 23.4024 86.2308 16.7428C101.68 12.7561 112.335 10.8358 121.769 11.011L166.192 16.7428L170 26.9722L159.846 46.0088C150.327 39.6632 125.704 28.6219 103.365 35.2213C81.0269 41.8207 53.8654 83.2363 43.0769 103.119L60.8462 101.107L64.6538 111.368Z" fill="#FAC864"/>
<path d="M159.846 46.0088L170 26.9722L166.192 16.7428L121.769 11.011C112.335 10.8358 101.68 12.7561 86.2308 16.7428C60.4237 23.4024 32.2885 73.2949 23.4038 95.5044C18.3269 92.5432 7.53846 86.6206 5 86.6206L8.17308 134.739L11.9808 145L64.6538 111.368L60.8462 101.107L43.0769 103.119C53.8654 83.2363 81.0269 41.8207 103.365 35.2213C125.704 28.6219 150.327 39.6632 159.846 46.0088ZM159.846 46.0088L156.038 35.7478" stroke="black" stroke-width="2" stroke-linecap="round" stroke-linejoin="round"/>
<path d="M7.98077 135L1 76.4991C3.53846 76.4991 14.3269 82.4339 19.4038 85.4013C28.2885 63.1455 57.4398 16.2813 82.2308 6.47568C106.346 -3.06274 129.827 -0.442467 166 16.7263L155.846 35.8026C146.327 29.4438 121.704 18.3795 99.3654 24.9926C77.0269 31.6058 49.8654 73.1076 39.0769 93.0319L60.6538 101.298L7.98077 135Z" fill="white" stroke="black" stroke-width="2" stroke-linecap="round" stroke-linejoin="round"/>
</svg>
