<svg width="114" height="71" viewBox="0 0 114 71" fill="none" xmlns="http://www.w3.org/2000/svg">
<path d="M6.13898 70.7345C5.53242 70.9829 4.83935 70.6926 4.59094 70.086L0.543036 60.2016C0.294635 59.5951 0.584984 58.902 1.19153 58.6536C1.79809 58.4052 2.49117 58.6955 2.73957 59.3021L6.33772 68.0882L15.1239 64.4901C15.7304 64.2417 16.4235 64.532 16.6719 65.1386C16.9203 65.7451 16.63 66.4382 16.0234 66.6866L6.13898 70.7345ZM112.619 14.3629C112.098 14.2121 111.401 13.876 110.64 13.4859C109.857 13.0849 108.863 12.5507 107.749 11.9685C105.492 10.7896 102.583 9.3285 99.1388 7.94369C92.2467 5.17224 83.2527 2.72207 73.1653 3.45758C53.1252 4.91876 28.1789 19.0227 6.78384 70.0948L4.59459 69.1777C26.179 17.6535 51.7193 2.64138 72.9927 1.09027C83.562 0.31963 92.9314 2.88925 100.024 5.74148C103.573 7.16851 106.562 8.67024 108.848 9.8648C110.005 10.4694 110.944 10.9747 111.722 11.3733C112.521 11.7828 113.015 12.0064 113.279 12.0829L112.619 14.3629Z" fill="black"/>
</svg>
