<svg width="1466" height="643" viewBox="0 0 1466 643" fill="none" xmlns="http://www.w3.org/2000/svg">

<style>
@keyframes pointer-appear {
  0% { opacity: 1; }
  10%, 60% { opacity: 1; }
  70%, 100% { opacity: 0.1; }
}

#arrow-segment1 {
  opacity: 0.1;
  animation: 5s ease-in-out 0ms infinite forwards pointer-appear; 
}
#arrow-segment2 {
  opacity: 0.1;
  animation: 5s ease-in-out 100ms infinite forwards pointer-appear;
}
#arrow-segment3 {
  opacity: 0.1;
  animation: 5s ease-in-out 200ms infinite forwards pointer-appear;
}
#arrow-segment4 {
  opacity: 0.1;
  animation: 5s ease-in-out 300ms infinite forwards pointer-appear;
}
#arrow-segment5 {
  opacity: 0.1;
  animation: 5s ease-in-out 400ms infinite forwards pointer-appear;
}
#arrow-pointer {
  opacity: 0.1;
  animation: 5s ease-in-out 500ms infinite forwards pointer-appear;
}
</style>


<g id="computer-with-belt">
<path id="Rectangle 1215" d="M1128.53 642.091L1464.73 447.983L1464.73 420.877L792.323 420.877L792.323 447.983L1128.53 642.091Z" fill="#5E6FDB" stroke="black" stroke-width="1.11334" stroke-linecap="round" stroke-linejoin="round"/>
<g id="Group 1258">
<rect id="Rectangle 1213" width="388.215" height="388.215" transform="matrix(-0.866025 -0.5 -0.866025 0.5 1464.69 420.652)" fill="#B0B8ED" stroke="black" stroke-width="1.11334" stroke-linecap="round" stroke-linejoin="round"/>
<g id="Group 1257">
<g id="Group 1256">
<g id="Group 1235">
<rect id="Rectangle 1304" width="39.6227" height="39.6227" transform="matrix(-0.866025 -0.5 -0.866025 0.5 1173.66 191.141)" fill="#B0B8ED" stroke="black" stroke-width="0.742229" stroke-linecap="round" stroke-linejoin="round"/>
<rect id="Rectangle 1301" width="39.6227" height="16.3864" transform="matrix(-0.866025 0.5 2.20305e-08 1 1173.66 190.995)" fill="#5E6FDB" stroke="black" stroke-width="0.742229" stroke-linecap="round" stroke-linejoin="round"/>
<rect id="Rectangle 1303" width="39.6227" height="16.371" transform="matrix(0.866025 0.5 -2.20305e-08 1 1105.03 191.011)" fill="#5E6FDB" stroke="black" stroke-width="0.742229" stroke-linecap="round" stroke-linejoin="round"/>
</g>
</g>
<g id="Group 1257_2">
<g id="Group 1235_2">
<rect id="Rectangle 1301_2" width="17.9486" height="71.3503" transform="matrix(-0.866025 0.5 2.20305e-08 1 1154.89 121.749)" fill="#F0EBE6" stroke="black" stroke-width="0.742229" stroke-linecap="round" stroke-linejoin="round"/>
<rect id="Rectangle 1303_2" width="17.9486" height="67.9054" transform="matrix(0.866025 0.5 -2.20305e-08 1 1123.8 125.194)" fill="#D6D2CD" stroke="black" stroke-width="0.742229" stroke-linecap="round" stroke-linejoin="round"/>
</g>
</g>
<g id="Group 1254">
<g id="Group 1253">
<g id="Group 1235_3">
<rect id="Rectangle 1304_2" width="36.0774" height="36.0774" transform="matrix(-0.866025 -0.5 -0.866025 0.5 1257.16 315.404)" fill="#D6D2CD" stroke="black" stroke-width="0.742229" stroke-linecap="round" stroke-linejoin="round"/>
<rect id="Rectangle 1301_3" width="36.0774" height="36.0774" transform="matrix(-0.866025 0.5 2.20305e-08 1 1257.16 315.404)" fill="#F0EBE6" stroke="black" stroke-width="0.742229" stroke-linecap="round" stroke-linejoin="round"/>
<rect id="Rectangle 1303_3" width="36.0774" height="36.0774" transform="matrix(0.866025 0.5 -2.20305e-08 1 1194.67 315.404)" fill="#F0EBE6" stroke="black" stroke-width="0.742229" stroke-linecap="round" stroke-linejoin="round"/>
</g>
</g>
<rect id="Rectangle 1305" width="20.3172" height="287.28" transform="matrix(-0.866025 0.5 2.20305e-08 1 1243.51 27.684)" fill="#F0EBE6" stroke="black" stroke-width="0.742229" stroke-linecap="round" stroke-linejoin="round"/>
<rect id="Rectangle 1306" width="20.3172" height="266.206" transform="matrix(0.866025 0.5 -2.20305e-08 1 1208.32 48.7583)" fill="#D6D2CD" stroke="black" stroke-width="0.742229" stroke-linecap="round" stroke-linejoin="round"/>
</g>
<path id="Rectangle 1305_2" d="M1006.93 167.586C1006.93 140.432 987.868 129.425 964.351 143.002C940.835 156.58 921.771 189.599 921.771 216.754L921.771 344.69L1006.93 295.523L1006.93 167.586Z" fill="black" stroke="black" stroke-width="0.742229" stroke-linecap="round" stroke-linejoin="round"/>
<g id="Group 1246">
<path id="Rectangle 1296" d="M1314.64 481.623C1318.48 479.409 1318.48 475.819 1314.64 473.604L1006.87 295.913L921.944 344.944L1229.71 522.636C1233.55 524.85 1239.77 524.85 1243.6 522.636L1314.64 481.623Z" fill="black" stroke="black" stroke-width="0.742229" stroke-linecap="round" stroke-linejoin="round"/>
<g id="Group 1232">
<path id="Union" d="M1246.65 485.479L1203.94 457.829L922.233 269.613L1007.16 220.581L1294.07 386.229L1294.07 386.226L1321.71 402.184C1329.58 406.727 1335.96 417.776 1335.96 426.862C1335.96 431.707 1334.15 435.016 1331.26 436.36L1246.65 485.479Z" fill="#EEEEEE" stroke="black" stroke-width="0.742229" stroke-linecap="round" stroke-linejoin="round"/>
<path id="Rectangle 1307" d="M1267.2 414.307L1273.59 400.313L1232.39 392.165L1191.19 400.313L1184.81 414.307L1226.01 438.093L1267.2 414.307Z" fill="#D6D2CD"/>
<path id="Rectangle 1308" d="M1144.73 341.051L1151.11 327.057L1109.91 318.908L1068.71 327.057L1062.33 341.051L1103.53 364.836L1144.73 341.051Z" fill="#D6D2CD"/>
<path id="Rectangle 1309" d="M1042.01 293.641L1048.39 279.647L1007.19 271.499L965.992 279.647L959.611 293.641L1000.81 317.427L1042.01 293.641Z" fill="#D6D2CD"/>
<g id="Group 1228">
<path id="Rectangle 1289" d="M1251.08 476.078C1251.08 466.992 1244.7 455.944 1236.83 451.401L922.31 269.812L922.31 302.715L1236.83 484.304C1244.7 488.847 1251.08 485.164 1251.08 476.078Z" fill="#D6D2CD" stroke="black" stroke-width="0.742229" stroke-linecap="round" stroke-linejoin="round"/>
<path id="Rectangle 1290" d="M1241.02 470.272C1241.02 466.684 1238.5 462.32 1235.4 460.526L922.312 279.767L922.312 292.762L1235.4 473.521C1238.5 475.315 1241.02 473.861 1241.02 470.272Z" fill="#D6D2CD" stroke="black" stroke-width="0.742229" stroke-linecap="round" stroke-linejoin="round"/>
<path id="Rectangle 1291" d="M1241.02 470.272C1241.02 466.684 1238.5 462.32 1235.4 460.526L922.312 279.767L922.312 292.762L1235.4 473.521C1238.5 475.315 1241.02 473.861 1241.02 470.272Z" fill="black" stroke="black" stroke-width="0.742229" stroke-linecap="round" stroke-linejoin="round"/>
<circle id="Ellipse 89" r="4.42393" transform="matrix(-0.866025 -0.5 -2.20305e-08 1 1234.8 466.815)" fill="#D6D2CD" stroke="black" stroke-width="0.742229" stroke-linecap="round" stroke-linejoin="round"/>
<circle id="Ellipse 96" r="4.42393" transform="matrix(-0.866025 -0.5 -2.20305e-08 1 1088.25 382.208)" fill="#D6D2CD" stroke="black" stroke-width="0.742229" stroke-linecap="round" stroke-linejoin="round"/>
<circle id="Ellipse 97" r="4.42393" transform="matrix(-0.866025 -0.5 -2.20305e-08 1 1014.98 339.904)" fill="#D6D2CD" stroke="black" stroke-width="0.742229" stroke-linecap="round" stroke-linejoin="round"/>
<circle id="Ellipse 98" r="4.42393" transform="matrix(-0.866025 -0.5 -2.20305e-08 1 1063.83 368.107)" fill="#D6D2CD" stroke="black" stroke-width="0.742229" stroke-linecap="round" stroke-linejoin="round"/>
<circle id="Ellipse 94" r="4.42393" transform="matrix(-0.866025 -0.5 -2.20305e-08 1 1137.1 410.41)" fill="#D6D2CD" stroke="black" stroke-width="0.742229" stroke-linecap="round" stroke-linejoin="round"/>
<circle id="Ellipse 92" r="4.42393" transform="matrix(-0.866025 -0.5 -2.20305e-08 1 1185.95 438.613)" fill="#D6D2CD" stroke="black" stroke-width="0.742229" stroke-linecap="round" stroke-linejoin="round"/>
<circle id="Ellipse 100" r="4.42393" transform="matrix(-0.866025 -0.5 -2.20305e-08 1 1039.4 354.005)" fill="#D6D2CD" stroke="black" stroke-width="0.742229" stroke-linecap="round" stroke-linejoin="round"/>
<circle id="Ellipse 101" r="4.42393" transform="matrix(-0.866025 -0.5 -2.20305e-08 1 966.13 311.701)" fill="#D6D2CD" stroke="black" stroke-width="0.742229" stroke-linecap="round" stroke-linejoin="round"/>
</g>
<path id="Vector 288" d="M1335.82 425.48L1251.08 474.834" stroke="black" stroke-width="0.742229"/>
<path id="Vector 289" d="M1317.44 399.765L1232.69 449.12" stroke="black" stroke-width="0.742229"/>
<g id="Group 1230">
<path id="Vector 296" d="M1317.43 399.776L1232.43 448.85" stroke="black" stroke-width="0.742229"/>
<path id="Vector 304" d="M1100.32 274.425L1015.33 323.499" stroke="black" stroke-width="0.742229"/>
<path id="Vector 300" d="M1208.88 337.099L1123.88 386.173" stroke="black" stroke-width="0.742229"/>
<path id="Vector 298" d="M1263.16 368.437L1178.16 417.511" stroke="black" stroke-width="0.742229"/>
<path id="Vector 306" d="M1046.05 243.087L961.048 292.161" stroke="black" stroke-width="0.742229"/>
<path id="Vector 301" d="M1154.6 305.762L1069.6 354.836" stroke="black" stroke-width="0.742229"/>
<path id="Vector 297" d="M1290.3 384.106L1205.3 433.179" stroke="black" stroke-width="0.742229"/>
<path id="Vector 308" d="M1073.18 258.756L988.186 307.83" stroke="black" stroke-width="0.742229"/>
<path id="Vector 302" d="M1181.74 321.431L1096.74 370.504" stroke="black" stroke-width="0.742229"/>
<path id="Vector 299" d="M1236.02 352.768L1151.02 401.842" stroke="black" stroke-width="0.742229"/>
<path id="Vector 310" d="M1018.91 227.419L933.908 276.492" stroke="black" stroke-width="0.742229"/>
<path id="Vector 303" d="M1127.46 290.093L1042.46 339.167" stroke="black" stroke-width="0.742229"/>
</g>
</g>
</g>
<g id="Group 1247">
<g id="Group 1235_4">
<rect id="Rectangle 1304_3" width="47.5711" height="47.5711" transform="matrix(-0.866025 -0.5 -0.866025 0.5 1273.75 353.045)" fill="#FFDBC0" stroke="black" stroke-width="0.742229" stroke-linecap="round" stroke-linejoin="round"/>
<rect id="Rectangle 1305_3" width="7.01697" height="47.5711" transform="matrix(-0.866025 -0.5 -0.866025 0.5 1256.19 342.906)" fill="white" stroke="black" stroke-width="0.742229" stroke-linecap="round" stroke-linejoin="round"/>
<rect id="Rectangle 1301_4" width="47.5711" height="47.5711" transform="matrix(-0.866025 0.5 2.20305e-08 1 1273.75 353.045)" fill="#FFB681" stroke="black" stroke-width="0.742229" stroke-linecap="round" stroke-linejoin="round"/>
<rect id="Rectangle 1303_4" width="47.5711" height="47.5711" transform="matrix(0.866025 0.5 -2.20305e-08 1 1191.36 353.045)" fill="#E0A173" stroke="black" stroke-width="0.742229" stroke-linecap="round" stroke-linejoin="round"/>
<rect id="Rectangle 1306_2" width="7.34319" height="16.0798" transform="matrix(0.866025 0.5 -2.20305e-08 1 1208.77 363.095)" fill="white" stroke="black" stroke-width="0.742229" stroke-linecap="round" stroke-linejoin="round"/>
</g>
</g>
<g id="Group 1248">
<g id="Group 1235_5">
<rect id="Rectangle 1304_4" width="47.5711" height="47.5711" transform="matrix(-0.866025 -0.5 -0.866025 0.5 1150.99 279.346)" fill="#FFDBC0" stroke="black" stroke-width="0.742229" stroke-linecap="round" stroke-linejoin="round"/>
<rect id="Rectangle 1301_5" width="47.5711" height="47.5711" transform="matrix(-0.866025 0.5 2.20305e-08 1 1150.99 279.346)" fill="#FFB681" stroke="black" stroke-width="0.742229" stroke-linecap="round" stroke-linejoin="round"/>
<rect id="Rectangle 1303_5" width="47.5711" height="47.5711" transform="matrix(0.866025 0.5 -2.20305e-08 1 1068.59 279.346)" fill="#E0A173" stroke="black" stroke-width="0.742229" stroke-linecap="round" stroke-linejoin="round"/>
</g>
</g>
<g id="Group 1249">
<g id="Group 1235_6">
<rect id="Rectangle 1305_4" width="53.1241" height="53.1241" transform="matrix(-0.866025 -0.5 -0.866025 0.5 1098.28 451.686)" fill="#D6D2CD" stroke="black" stroke-width="0.742229" stroke-linecap="round" stroke-linejoin="round"/>
<rect id="Rectangle 1304_5" width="36.0774" height="36.0774" transform="matrix(-0.866025 -0.5 -0.866025 0.5 1083.52 415.749)" fill="#D6D2CD" stroke="black" stroke-width="0.742229" stroke-linecap="round" stroke-linejoin="round"/>
<rect id="Rectangle 1301_6" width="36.0774" height="36.0774" transform="matrix(-0.866025 0.5 2.20305e-08 1 1083.52 415.749)" fill="#F0EBE6" stroke="black" stroke-width="0.742229" stroke-linecap="round" stroke-linejoin="round"/>
<rect id="Rectangle 1303_6" width="36.0774" height="36.0774" transform="matrix(0.866025 0.5 -2.20305e-08 1 1021.03 415.749)" fill="#F0EBE6" stroke="black" stroke-width="0.742229" stroke-linecap="round" stroke-linejoin="round"/>
</g>
</g>
<g id="Group 1250">
<g id="Group 1235_7">
<rect id="Rectangle 1304_6" width="47.5711" height="47.5711" transform="matrix(-0.866025 -0.5 -0.866025 0.5 1048.41 232.894)" fill="#FFDBC0" stroke="black" stroke-width="0.742229" stroke-linecap="round" stroke-linejoin="round"/>
<rect id="Rectangle 1301_7" width="47.5711" height="47.5711" transform="matrix(-0.866025 0.5 2.20305e-08 1 1048.41 232.894)" fill="#FFB681" stroke="black" stroke-width="0.742229" stroke-linecap="round" stroke-linejoin="round"/>
<rect id="Rectangle 1303_7" width="47.5711" height="47.5711" transform="matrix(0.866025 0.5 -2.20305e-08 1 966.012 232.894)" fill="#E0A173" stroke="black" stroke-width="0.742229" stroke-linecap="round" stroke-linejoin="round"/>
</g>
</g>
<ellipse id="Ellipse 103" rx="34.0089" ry="23.7786" transform="matrix(-1 0 0 1 1137.99 110.42)" fill="#B0B8ED" stroke="black" stroke-width="0.742229" stroke-linecap="round" stroke-linejoin="round"/>
<g id="Group 1252">
<g id="Group 1235_8">
<rect id="Rectangle 1301_8" width="20.3172" height="283.851" transform="matrix(-0.866025 0.5 2.20305e-08 1 1069.87 127.846)" fill="#F0EBE6" stroke="black" stroke-width="0.742229" stroke-linecap="round" stroke-linejoin="round"/>
<rect id="Rectangle 1304_7" width="180.068" height="20.8599" transform="matrix(-0.866025 0.5 2.20305e-08 1 1225.92 37.7592)" fill="#F0EBE6" stroke="black" stroke-width="0.742229" stroke-linecap="round" stroke-linejoin="round"/>
<rect id="Rectangle 1303_8" width="20.3172" height="284.007" transform="matrix(0.866025 0.5 -2.20305e-08 1 1034.68 127.793)" fill="#F0EBE6" stroke="black" stroke-width="0.742229" stroke-linecap="round" stroke-linejoin="round"/>
</g>
</g>
<rect id="Rectangle 1306_3" width="20.2518" height="220.711" transform="matrix(-0.866025 -0.5 -0.866025 0.5 1243.42 27.6177)" fill="#F0EBE6" stroke="black" stroke-width="0.742229" stroke-linecap="round" stroke-linejoin="round"/>
<g id="Group 1255">
<g id="Group 1235_9">
<rect id="Rectangle 1304_8" width="20.1432" height="10.1809" transform="matrix(-0.866025 -0.5 -0.866025 0.5 1052.28 381.806)" fill="#F0EBE6" stroke="black" stroke-width="0.742229" stroke-linecap="round" stroke-linejoin="round"/>
<g id="Union_2">
<path fill-rule="evenodd" clip-rule="evenodd" d="M1043.48 386.9L1026.03 376.828V395.199L1026.03 395.199L1015.23 415.499L1032.67 425.571L1043.04 406.104L1043.48 406.36L1043.48 386.9Z" fill="#F0EBE6"/>
<path d="M1026.03 376.828H1025.66C1025.66 376.695 1025.73 376.573 1025.85 376.507C1025.96 376.44 1026.11 376.44 1026.22 376.507L1026.03 376.828ZM1043.48 386.9L1043.66 386.578C1043.78 386.644 1043.85 386.767 1043.85 386.9H1043.48ZM1026.03 395.199H1026.41C1026.41 395.332 1026.33 395.455 1026.22 395.521C1026.1 395.587 1025.96 395.586 1025.85 395.519L1026.03 395.199ZM1026.03 395.199L1025.71 395.025C1025.75 394.935 1025.84 394.869 1025.93 394.842C1026.03 394.814 1026.13 394.828 1026.22 394.879L1026.03 395.199ZM1015.23 415.499L1015.04 415.821C1014.87 415.721 1014.81 415.502 1014.9 415.325L1015.23 415.499ZM1032.67 425.571L1033 425.745C1032.95 425.834 1032.87 425.9 1032.77 425.928C1032.68 425.956 1032.57 425.943 1032.49 425.892L1032.67 425.571ZM1043.04 406.104L1042.71 405.93C1042.76 405.841 1042.84 405.775 1042.93 405.747C1043.03 405.719 1043.13 405.732 1043.22 405.782L1043.04 406.104ZM1043.48 406.36H1043.85C1043.85 406.493 1043.78 406.615 1043.66 406.681C1043.55 406.748 1043.41 406.748 1043.29 406.681L1043.48 406.36ZM1026.22 376.507L1043.66 386.578L1043.29 387.221L1025.85 377.149L1026.22 376.507ZM1025.66 395.199V376.828H1026.41V395.199H1025.66ZM1026.22 394.879L1026.22 394.879L1025.85 395.519L1025.85 395.519L1026.22 394.879ZM1014.9 415.325L1025.71 395.025L1026.36 395.373L1015.56 415.674L1014.9 415.325ZM1032.49 425.892L1015.04 415.821L1015.41 415.178L1032.86 425.25L1032.49 425.892ZM1043.36 406.278L1033 425.745L1032.35 425.397L1042.71 405.93L1043.36 406.278ZM1043.29 406.681L1042.85 406.425L1043.22 405.782L1043.66 406.039L1043.29 406.681ZM1043.85 386.9L1043.85 406.36H1043.11L1043.11 386.9H1043.85Z" fill="black"/>
</g>
<g id="Group 1282">
<path id="Rectangle 1305_5" d="M1026.31 400.597L1038.2 407.463L1030.83 421.303L1018.94 414.436L1026.31 400.597Z" fill="#B0B8ED" stroke="black" stroke-width="0.888934" stroke-linecap="round" stroke-linejoin="round"/>
<path id="Rectangle 1310" d="M1022.81 407.472L1034.7 414.338L1030.83 421.301L1018.94 414.435L1022.81 407.472Z" fill="#B0B8ED" stroke="black" stroke-width="0.888934" stroke-linecap="round" stroke-linejoin="round"/>
<path id="Rectangle 1311" d="M1022.81 407.473L1026.67 409.662L1022.81 416.625L1018.94 414.436L1022.81 407.473Z" fill="#B0B8ED" stroke="black" stroke-width="0.888934" stroke-linecap="round" stroke-linejoin="round"/>
</g>
<rect id="Rectangle 1308_2" width="17.6476" height="10.5078" transform="matrix(0.866025 0.5 -2.20305e-08 1 1027.11 381.359)" fill="#F0EBE6" stroke="black" stroke-width="0.742229" stroke-linecap="round" stroke-linejoin="round"/>
<rect id="Rectangle 1307_2" width="14.0824" height="6.44055" transform="matrix(0.866025 0.5 -2.20305e-08 1 1028.66 384.298)" fill="#FFB681" stroke="black" stroke-width="0.742229" stroke-linecap="round" stroke-linejoin="round"/>
<g id="Union_3">
<path fill-rule="evenodd" clip-rule="evenodd" d="M1043.48 386.886L1052.28 381.806L1052.28 400.029L1052.28 400.028L1052.28 414.224L1032.67 425.543L1043.48 405.111L1043.48 386.886Z" fill="#F0EBE6"/>
<path d="M1052.28 381.806L1052.09 381.484C1052.21 381.418 1052.35 381.418 1052.46 381.484C1052.58 381.551 1052.65 381.673 1052.65 381.806L1052.28 381.806ZM1043.48 386.886H1043.11C1043.11 386.753 1043.18 386.631 1043.29 386.565L1043.48 386.886ZM1052.28 400.029L1052.46 400.35C1052.35 400.417 1052.21 400.417 1052.09 400.35C1051.98 400.284 1051.91 400.161 1051.91 400.029H1052.28ZM1052.28 400.028L1052.09 399.707C1052.21 399.641 1052.35 399.641 1052.46 399.707C1052.58 399.773 1052.65 399.896 1052.65 400.028H1052.28ZM1052.28 414.224H1052.65C1052.65 414.356 1052.58 414.479 1052.46 414.545L1052.28 414.224ZM1032.67 425.543L1032.86 425.865C1032.71 425.947 1032.53 425.925 1032.41 425.81C1032.3 425.696 1032.27 425.516 1032.34 425.37L1032.67 425.543ZM1043.48 405.111H1043.85C1043.85 405.171 1043.83 405.231 1043.81 405.284L1043.48 405.111ZM1052.46 382.127L1043.66 387.207L1043.29 386.565L1052.09 381.484L1052.46 382.127ZM1051.91 400.029L1051.91 381.806L1052.65 381.806L1052.65 400.029H1051.91ZM1052.09 399.708L1052.09 399.707L1052.46 400.35L1052.46 400.35L1052.09 399.708ZM1052.65 400.028L1052.65 414.224H1051.91L1051.91 400.028H1052.65ZM1052.46 414.545L1032.86 425.865L1032.49 425.222L1052.09 413.902L1052.46 414.545ZM1032.34 425.37L1043.15 404.937L1043.81 405.284L1033 425.717L1032.34 425.37ZM1043.85 386.886L1043.85 405.111H1043.11L1043.11 386.886H1043.85Z" fill="black"/>
</g>
</g>
</g>
</g>
</g>
<path id="Rectangle 1214" d="M337.473 642.091L673.677 447.983L673.677 420.877L1.26846 420.877L1.26846 447.983L337.473 642.091Z" fill="#5E6FDB" stroke="black" stroke-width="1.11334" stroke-linecap="round" stroke-linejoin="round"/>
<g id="Group 1264">
<g id="Group 1162">
<rect id="Rectangle 1198" x="0.482092" y="0.278336" width="27.5184" height="18.1419" rx="7.9901" transform="matrix(0.866025 -0.5 2.20305e-08 1 422.316 85.3532)" fill="#C4C4C4" stroke="black" stroke-width="1.11334"/>
</g>
<rect id="Rectangle 1211" width="388.215" height="388.215" transform="matrix(0.866025 -0.5 0.866025 0.5 1.49854 420.652)" fill="#B0B8ED" stroke="black" stroke-width="1.11334" stroke-linecap="round" stroke-linejoin="round"/>
<rect id="Rectangle 1215_2" width="311.107" height="20.2429" rx="10.1214" transform="matrix(0.866025 -0.5 0.866025 0.5 142.945 468.808)" fill="black"/>
<g id="Group 1159">
<g id="Group 1135">
<rect id="Rectangle 999" x="0.482092" y="0.278336" width="339.829" height="235.996" rx="14.9407" transform="matrix(0.866025 -0.5 2.20305e-08 1 108.495 206.722)" fill="#FFB681" stroke="black" stroke-width="1.11334" stroke-dasharray="7.41 7.41"/>
<g id="Subtract">
<mask id="path-79-inside-1" fill="white">
<path fill-rule="evenodd" clip-rule="evenodd" d="M147.422 218.103C140.01 222.382 134.001 232.79 134.001 241.349L134.001 447.464C134.001 456.023 140.01 459.492 147.422 455.213L415.844 300.239C423.256 295.96 429.265 285.552 429.265 276.993L429.265 70.8781C429.265 62.3191 423.256 58.8499 415.844 63.1294L147.422 218.103ZM147.423 228.175C145.57 229.245 144.068 231.847 144.068 233.987L144.068 443.201C144.068 445.341 145.57 446.208 147.423 445.138L415.845 290.165C417.698 289.095 419.2 286.493 419.2 284.353L419.2 75.1389C419.2 72.9992 417.698 72.1319 415.845 73.2018L147.423 228.175Z"/>
</mask>
<path fill-rule="evenodd" clip-rule="evenodd" d="M147.422 218.103C140.01 222.382 134.001 232.79 134.001 241.349L134.001 447.464C134.001 456.023 140.01 459.492 147.422 455.213L415.844 300.239C423.256 295.96 429.265 285.552 429.265 276.993L429.265 70.8781C429.265 62.3191 423.256 58.8499 415.844 63.1294L147.422 218.103ZM147.423 228.175C145.57 229.245 144.068 231.847 144.068 233.987L144.068 443.201C144.068 445.341 145.57 446.208 147.423 445.138L415.845 290.165C417.698 289.095 419.2 286.493 419.2 284.353L419.2 75.1389C419.2 72.9992 417.698 72.1319 415.845 73.2018L147.423 228.175Z" fill="white"/>
<path d="M147.422 218.103L147.422 219.216L147.422 218.103ZM147.422 455.213L147.422 454.099L147.422 455.213ZM415.844 300.239L415.844 301.352L415.844 300.239ZM415.844 63.1294L415.844 62.016L415.844 63.1294ZM144.068 233.987L145.032 233.43L144.068 233.987ZM147.423 228.175L147.423 229.289L147.423 228.175ZM144.068 443.201L143.104 443.758L144.068 443.201ZM147.423 445.138L147.423 444.025L147.423 445.138ZM415.845 290.165L415.845 291.278L415.845 290.165ZM419.2 284.353L418.236 284.91L419.2 284.353ZM419.2 75.1389L420.165 74.5823L419.2 75.1389ZM415.845 73.2018L415.845 72.0884L415.845 73.2018ZM134.965 240.792C134.965 232.848 140.542 223.188 147.422 219.216L147.422 216.99C139.477 221.577 133.037 232.732 133.037 241.906L134.965 240.792ZM134.965 446.907L134.965 240.792L133.037 241.906L133.037 448.021L134.965 446.907ZM147.422 454.099C140.542 458.071 134.965 454.851 134.965 446.907L133.037 448.021C133.037 457.194 139.477 460.913 147.422 456.326L147.422 454.099ZM415.844 299.126L147.422 454.099L147.422 456.326L415.844 301.352L415.844 299.126ZM428.301 277.55C428.301 285.494 422.724 295.154 415.844 299.126L415.844 301.352C423.789 296.765 430.229 285.61 430.229 276.436L428.301 277.55ZM428.301 71.4347L428.301 277.55L430.229 276.436L430.229 70.3214L428.301 71.4347ZM415.844 64.2427C422.724 60.2707 428.301 63.4907 428.301 71.4347L430.229 70.3214C430.229 61.1475 423.789 57.4291 415.844 62.016L415.844 64.2427ZM147.422 219.216L415.844 64.2427L415.844 62.016L147.422 216.99L147.422 219.216ZM145.032 233.43C145.032 231.905 146.102 230.051 147.423 229.289L147.423 227.062C145.037 228.439 143.104 231.789 143.104 234.544L145.032 233.43ZM145.032 442.645L145.032 233.43L143.104 234.544L143.104 443.758L145.032 442.645ZM147.423 444.025C146.102 444.788 145.032 444.169 145.032 442.645L143.104 443.758C143.104 446.513 145.037 447.629 147.423 446.252L147.423 444.025ZM415.845 289.051L147.423 444.025L147.423 446.252L415.845 291.278L415.845 289.051ZM418.236 284.91C418.236 286.435 417.166 288.289 415.845 289.051L415.845 291.278C418.231 289.901 420.165 286.551 420.165 283.797L418.236 284.91ZM418.236 75.6956L418.236 284.91L420.165 283.797L420.165 74.5823L418.236 75.6956ZM415.845 74.3151C417.166 73.5527 418.236 74.1707 418.236 75.6956L420.165 74.5823C420.165 71.8276 418.231 70.7111 415.845 72.0884L415.845 74.3151ZM147.423 229.289L415.845 74.3151L415.845 72.0884L147.423 227.062L147.423 229.289Z" fill="black" mask="url(#path-79-inside-1)"/>
</g>
<path id="$ toit run main.toit [11.21] Belt started .." d="M183.187 281.108L181.99 281.799L181.99 279.035L179.589 280.422L179.589 279.04L181.99 277.654L181.99 269.346L180.786 270.041L180.786 268.66L181.99 267.964L181.99 261.047L179.589 262.433L179.589 261.042L181.99 259.656L181.99 256.893L183.187 256.202L183.187 258.965L185.588 257.579L185.588 258.97L183.187 260.356L183.187 267.273L184.383 266.583L184.383 267.964L183.187 268.655L183.187 276.963L185.588 275.577L185.588 276.958L183.187 278.345L183.187 281.108ZM179.589 263.815L178.393 264.505L178.393 263.124L179.589 262.433L179.589 263.815ZM186.785 259.661L185.588 260.351L185.588 258.97L186.785 258.279L186.785 259.661ZM178.393 268.66L177.196 269.35L177.196 265.196L178.393 264.505L178.393 268.66ZM187.981 261.742L186.785 262.433L186.785 259.661L187.981 258.97L187.981 261.742ZM180.786 268.66L178.393 270.041L178.393 268.66L180.786 267.278L180.786 268.66ZM186.785 267.969L184.383 269.355L184.383 267.964L186.785 266.578L186.785 267.969ZM187.981 272.814L186.785 273.504L186.785 267.969L187.981 267.278L187.981 272.814ZM178.393 278.349L177.196 279.04L177.196 276.268L178.393 275.577L178.393 278.349ZM179.589 279.04L178.393 279.731L178.393 278.349L179.589 277.659L179.589 279.04ZM186.785 274.886L185.588 275.577L185.588 274.195L186.785 273.504L186.785 274.886ZM198.765 267.969L197.569 268.66L197.569 257.588L195.774 258.624L195.774 257.243L197.569 256.207L197.569 252.053L198.765 251.362L198.765 255.516L201.765 253.784L201.765 255.166L198.765 256.898L198.765 267.969ZM201.765 267.619L198.765 269.35L198.765 267.969L201.765 266.237L201.765 267.619ZM210.148 250.326L205.354 253.094L205.354 251.712L210.148 248.944L210.148 250.326ZM205.354 254.475L204.158 255.166L204.158 253.784L205.354 253.094L205.354 254.475ZM211.353 251.012L210.148 251.707L210.148 250.326L211.353 249.63L211.353 251.012ZM204.158 263.474L202.961 264.165L202.961 255.857L204.158 255.166L204.158 263.474ZM212.549 258.629L211.353 259.32L211.353 251.012L212.549 250.321L212.549 258.629ZM205.354 264.165L204.158 264.856L204.158 263.474L205.354 262.783L205.354 264.165ZM211.353 260.701L210.148 261.397L210.148 260.015L211.353 259.32L211.353 260.701ZM210.148 262.779L205.354 265.546L205.354 264.165L210.148 261.397L210.148 262.779ZM216.155 243.394L214.959 244.085L214.959 241.322L216.155 240.631L216.155 243.394ZM216.155 259.31L214.959 260.001L214.959 246.167L216.155 245.476L216.155 259.31ZM220.957 255.156L219.761 255.847L219.761 244.776L217.966 245.812L217.966 244.43L219.761 243.394L219.761 239.24L220.957 238.549L220.957 242.704L223.957 240.972L223.957 242.353L220.957 244.085L220.957 255.156ZM223.957 254.806L220.957 256.538L220.957 255.156L223.957 253.425L223.957 254.806ZM232.938 249.621L231.742 250.311L231.742 236.477L232.938 235.786L232.938 238.549L234.135 237.859L234.135 239.24L232.938 239.931L232.938 249.621ZM237.732 234.4L235.331 235.786L235.331 234.405L237.732 233.018L237.732 234.4ZM235.331 237.168L234.135 237.859L234.135 236.477L235.331 235.786L235.331 237.168ZM240.74 242.353L239.543 243.044L239.543 231.973L240.74 231.282L240.74 242.353ZM249.131 240.272L247.935 240.962L247.935 238.199L246.73 238.895L246.73 237.513L247.935 236.818L247.935 227.128L249.131 226.437L249.131 240.272ZM241.936 243.044L240.74 243.735L240.74 242.353L241.936 241.663L241.936 243.044ZM246.73 240.276L245.534 240.967L245.534 239.586L246.73 238.895L246.73 240.276ZM245.534 242.349L241.936 244.426L241.936 243.044L245.534 240.967L245.534 242.349ZM252.737 238.19L251.541 238.881L251.541 225.046L252.737 224.355L252.737 227.118L253.934 226.428L253.934 227.809L252.737 228.5L252.737 238.19ZM258.728 222.278L255.13 224.355L255.13 222.974L258.728 220.897L258.728 222.278ZM255.13 225.737L253.934 226.428L253.934 225.046L255.13 224.355L255.13 225.737ZM259.932 222.964L258.728 223.66L258.728 222.278L259.932 221.583L259.932 222.964ZM261.129 233.345L259.932 234.036L259.932 222.964L261.129 222.274L261.129 233.345ZM270.733 227.8L269.537 228.491L269.537 214.656L270.733 213.965L270.733 216.728L271.93 216.038L271.93 217.419L270.733 218.11L270.733 227.8ZM275.527 212.579L273.126 213.965L273.126 212.584L275.527 211.198L275.527 212.579ZM282.722 208.425L279.125 210.502L279.125 209.121L282.722 207.043L282.722 208.425ZM273.126 215.347L271.93 216.038L271.93 214.656L273.126 213.965L273.126 215.347ZM276.724 213.27L275.527 213.961L275.527 212.579L276.724 211.888L276.724 213.27ZM279.125 211.884L277.928 212.574L277.928 211.193L279.125 210.502L279.125 211.884ZM283.919 209.116L282.722 209.807L282.722 208.425L283.919 207.734L283.919 209.116ZM277.928 223.646L276.724 224.341L276.724 213.27L277.928 212.574L277.928 223.646ZM285.115 219.496L283.919 220.187L283.919 209.116L285.115 208.425L285.115 219.496ZM294.687 201.517L289.893 204.285L289.893 202.904L294.687 200.136L294.687 201.517ZM289.893 205.667L288.696 206.357L288.696 204.976L289.893 204.285L289.893 205.667ZM295.892 202.203L294.687 202.899L294.687 201.517L295.892 200.822L295.892 202.203ZM288.696 207.739L287.5 208.43L287.5 207.048L288.696 206.357L288.696 207.739ZM297.088 211.202L295.892 211.893L295.892 210.512L294.687 211.207L294.687 209.825L295.892 209.13L295.892 204.976L294.687 205.671L294.687 204.28L295.892 203.585L295.892 202.203L297.088 201.513L297.088 211.202ZM294.687 207.053L289.893 209.821L289.893 208.439L294.687 205.671L294.687 207.053ZM289.893 211.202L288.696 211.893L288.696 210.512L289.893 209.821L289.893 211.202ZM288.696 214.666L287.5 215.356L287.5 212.584L288.696 211.893L288.696 214.666ZM289.893 215.356L288.696 216.047L288.696 214.666L289.893 213.975L289.893 215.356ZM294.687 212.589L293.49 213.279L293.49 211.898L294.687 211.207L294.687 212.589ZM293.49 214.661L289.893 216.738L289.893 215.356L293.49 213.279L293.49 214.661ZM298.284 211.893L297.088 212.584L297.088 211.202L298.284 210.512L298.284 211.893ZM301.284 194.245L300.087 194.936L300.087 192.173L301.284 191.482L301.284 194.245ZM301.284 210.161L300.087 210.852L300.087 197.018L301.284 196.327L301.284 210.161ZM304.89 208.08L303.693 208.77L303.693 194.936L304.89 194.245L304.89 197.008L306.086 196.318L306.086 197.699L304.89 198.39L304.89 208.08ZM310.88 192.168L307.282 194.245L307.282 192.864L310.88 190.787L310.88 192.168ZM307.282 195.627L306.086 196.318L306.086 194.936L307.282 194.245L307.282 195.627ZM312.085 192.854L310.88 193.55L310.88 192.168L312.085 191.473L312.085 192.854ZM313.281 203.235L312.085 203.925L312.085 192.854L313.281 192.163L313.281 203.235ZM316.297 201.494L315.1 202.184L315.1 199.421L316.297 198.73L316.297 201.494ZM321.099 197.339L319.903 198.03L319.903 186.959L318.108 187.995L318.108 186.614L319.903 185.577L319.903 181.423L321.099 180.733L321.099 184.887L324.098 183.155L324.098 184.536L321.099 186.268L321.099 197.339ZM324.098 196.989L321.099 198.721L321.099 197.339L324.098 195.608L324.098 196.989ZM332.482 179.696L327.688 182.464L327.688 181.083L332.482 178.315L332.482 179.696ZM327.688 183.846L326.491 184.536L326.491 183.155L327.688 182.464L327.688 183.846ZM333.686 180.382L332.482 181.078L332.482 179.696L333.686 179.001L333.686 180.382ZM326.491 192.845L325.295 193.535L325.295 185.227L326.491 184.536L326.491 192.845ZM334.883 188L333.686 188.691L333.686 180.382L334.883 179.692L334.883 188ZM327.688 193.535L326.491 194.226L326.491 192.845L327.688 192.154L327.688 193.535ZM333.686 190.072L332.482 190.768L332.482 189.386L333.686 188.691L333.686 190.072ZM332.482 192.149L327.688 194.917L327.688 193.535L332.482 190.768L332.482 192.149ZM338.489 172.765L337.292 173.456L337.292 170.693L338.489 170.002L338.489 172.765ZM338.489 188.681L337.292 189.372L337.292 175.537L338.489 174.847L338.489 188.681ZM343.291 184.527L342.094 185.218L342.094 174.146L340.3 175.183L340.3 173.801L342.094 172.765L342.094 168.611L343.291 167.92L343.291 172.074L346.29 170.342L346.29 171.724L343.291 173.456L343.291 184.527ZM346.29 184.177L343.291 185.909L343.291 184.527L346.29 182.795L346.29 184.177ZM186.785 337.803L183.195 339.876L183.195 314.96L186.785 312.888L186.785 314.279L184.392 315.661L184.392 337.794L186.785 336.412L186.785 337.803ZM192.791 328.8L191.587 329.495L191.587 314.27L188.596 315.997L188.596 314.615L191.587 312.888L191.587 310.115L192.791 309.42L192.791 328.8ZM198.79 325.336L197.585 326.032L197.585 310.806L194.594 312.533L194.594 311.152L197.585 309.425L197.585 306.652L198.79 305.957L198.79 325.336ZM202.388 323.259L201.191 323.95L201.191 321.187L202.388 320.496L202.388 323.259ZM213.189 299.035L207.19 302.498L207.19 301.107L213.189 297.644L213.189 299.035ZM207.19 303.88L205.993 304.57L205.993 303.189L207.19 302.498L207.19 303.88ZM214.385 299.725L213.189 300.416L213.189 299.035L214.385 298.344L214.385 299.725ZM205.993 307.343L204.797 308.034L204.797 305.261L205.993 304.57L205.993 307.343ZM215.581 303.189L214.385 303.88L214.385 299.725L215.581 299.035L215.581 303.189ZM214.385 305.261L213.189 305.952L213.189 304.57L214.385 303.88L214.385 305.261ZM213.189 307.333L211.984 308.029L211.984 306.647L213.189 305.952L213.189 307.333ZM211.984 309.42L210.787 310.111L210.787 308.72L211.984 308.029L211.984 309.42ZM210.787 311.492L209.591 312.183L209.591 310.802L210.787 310.111L210.787 311.492ZM209.591 313.565L208.386 314.26L208.386 312.879L209.591 312.183L209.591 313.565ZM208.386 315.651L207.19 316.342L207.19 314.951L208.386 314.26L208.386 315.651ZM207.19 317.723L205.993 318.414L205.993 317.033L207.19 316.342L207.19 317.723ZM215.581 315.642L204.797 321.868L204.797 319.105L205.993 318.414L205.993 319.796L215.581 314.26L215.581 315.642ZM221.572 312.183L220.367 312.879L220.367 297.653L217.376 299.38L217.376 297.999L220.367 296.272L220.367 293.499L221.572 292.804L221.572 312.183ZM227.562 314.26L223.973 316.332L223.973 314.941L226.366 313.56L226.366 291.427L223.973 292.808L223.973 291.417L227.562 289.345L227.562 314.26ZM245.558 298.334L235.97 303.87L235.97 284.491L244.362 279.646L244.362 281.037L237.167 285.191L237.167 292.108L244.362 287.954L244.362 286.572L245.558 285.882L245.558 288.645L237.167 293.49L237.167 301.798L245.558 296.953L245.558 298.334ZM245.558 281.727L244.362 282.418L244.362 281.037L245.558 280.346L245.558 281.727ZM246.755 285.191L245.558 285.882L245.558 281.727L246.755 281.037L246.755 285.191ZM246.755 289.345L245.558 290.036L245.558 288.645L246.755 287.954L246.755 289.345ZM247.951 294.19L246.755 294.881L246.755 289.345L247.951 288.654L247.951 294.19ZM246.755 296.262L245.558 296.953L245.558 295.571L246.755 294.881L246.755 296.262ZM257.548 278.96L252.754 281.727L252.754 280.346L257.548 277.578L257.548 278.96ZM252.754 283.109L251.557 283.8L251.557 282.418L252.754 281.727L252.754 283.109ZM258.752 279.646L257.548 280.341L257.548 278.96L258.752 278.264L258.752 279.646ZM251.557 292.108L250.361 292.799L250.361 284.491L251.557 283.8L251.557 286.572L258.752 282.418L258.752 279.646L259.949 278.955L259.949 283.109L251.557 287.954L251.557 292.108ZM259.949 287.263L258.752 287.954L258.752 285.872L259.949 285.181L259.949 287.263ZM252.754 292.799L251.557 293.49L251.557 292.108L252.754 291.417L252.754 292.799ZM258.752 289.335L257.548 290.031L257.548 288.649L258.752 287.954L258.752 289.335ZM257.548 291.413L252.754 294.18L252.754 292.799L257.548 290.031L257.548 291.413ZM263.554 287.944L262.358 288.635L262.358 269.256L263.554 268.565L263.554 287.944ZM268.357 283.79L267.16 284.481L267.16 273.41L265.365 274.446L265.365 273.064L267.16 272.028L267.16 267.874L268.357 267.183L268.357 271.337L271.356 269.606L271.356 270.987L268.357 272.719L268.357 283.79ZM271.356 283.44L268.357 285.172L268.357 283.79L271.356 282.059L271.356 283.44ZM281.534 265.111L281.534 263.729L286.328 260.962L286.328 262.343L281.534 265.111ZM281.534 266.493L280.338 267.183L280.338 265.802L281.534 265.111L281.534 266.493ZM286.328 263.725L286.328 262.343L287.533 261.648L287.533 263.029L286.328 263.725ZM280.338 269.956L279.141 270.647L279.141 267.874L280.338 267.183L280.338 269.956ZM288.729 262.338L288.729 263.72L287.533 264.411L287.533 263.029L288.729 262.338ZM281.534 271.337L281.534 270.647L280.338 271.337L280.338 269.956L281.534 269.265L281.534 269.956L286.328 267.188L286.328 267.879L287.533 267.183L287.533 268.565L286.328 269.26L286.328 268.57L281.534 271.337ZM288.729 267.874L288.729 270.647L287.533 271.337L287.533 268.565L288.729 267.874ZM279.141 276.182L279.141 274.801L280.338 274.11L280.338 275.492L279.141 276.182ZM280.338 276.873L280.338 275.492L281.534 274.801L281.534 276.182L280.338 276.873ZM287.533 272.719L286.328 273.415L286.328 272.033L287.533 271.337L287.533 272.719ZM286.328 274.796L281.534 277.564L281.534 276.182L286.328 273.415L286.328 274.796ZM292.941 269.596L291.745 270.287L291.745 259.216L289.95 260.252L289.95 258.87L291.745 257.834L291.745 253.68L292.941 252.989L292.941 257.143L295.941 255.412L295.941 256.793L292.941 258.525L292.941 269.596ZM295.941 269.246L292.941 270.978L292.941 269.596L295.941 267.865L295.941 269.246ZM304.324 251.953L299.53 254.721L299.53 253.339L304.324 250.572L304.324 251.953ZM299.53 256.103L298.334 256.793L298.334 255.412L299.53 254.721L299.53 256.103ZM305.529 252.639L304.324 253.335L304.324 251.953L305.529 251.258L305.529 252.639ZM298.334 258.175L297.137 258.866L297.137 257.484L298.334 256.793L298.334 258.175ZM306.725 261.638L305.529 262.329L305.529 260.947L304.324 261.643L304.324 260.261L305.529 259.566L305.529 255.412L304.324 256.107L304.324 254.716L305.529 254.021L305.529 252.639L306.725 251.948L306.725 261.638ZM304.324 257.489L299.53 260.257L299.53 258.875L304.324 256.107L304.324 257.489ZM299.53 261.638L298.334 262.329L298.334 260.947L299.53 260.257L299.53 261.638ZM298.334 265.102L297.137 265.792L297.137 263.02L298.334 262.329L298.334 265.102ZM299.53 265.792L298.334 266.483L298.334 265.102L299.53 264.411L299.53 265.792ZM304.324 263.025L303.128 263.715L303.128 262.334L304.324 261.643L304.324 263.025ZM303.128 265.097L299.53 267.174L299.53 265.792L303.128 263.715L303.128 265.097ZM307.922 262.329L306.725 263.02L306.725 261.638L307.922 260.947L307.922 262.329ZM310.921 260.597L309.725 261.288L309.725 247.454L310.921 246.763L310.921 249.526L312.117 248.835L312.117 250.217L310.921 250.908L310.921 260.597ZM315.715 245.377L313.314 246.763L313.314 245.381L315.715 243.995L315.715 245.377ZM313.314 248.144L312.117 248.835L312.117 247.454L313.314 246.763L313.314 248.144ZM319.919 254.021L318.723 254.712L318.723 243.64L316.928 244.676L316.928 243.295L318.723 242.259L318.723 238.105L319.919 237.414L319.919 241.568L322.918 239.836L322.918 241.218L319.919 242.949L319.919 254.021ZM322.918 253.671L319.919 255.402L319.919 254.021L322.918 252.289L322.918 253.671ZM331.302 236.378L326.508 239.145L326.508 237.764L331.302 234.996L331.302 236.378ZM326.508 240.527L325.311 241.218L325.311 239.836L326.508 239.145L326.508 240.527ZM332.506 237.064L331.302 237.759L331.302 236.378L332.506 235.682L332.506 237.064ZM325.311 249.526L324.115 250.217L324.115 241.909L325.311 241.218L325.311 243.99L332.506 239.836L332.506 237.064L333.703 236.373L333.703 240.527L325.311 245.372L325.311 249.526ZM333.703 244.681L332.506 245.372L332.506 243.29L333.703 242.599L333.703 244.681ZM326.508 250.217L325.311 250.908L325.311 249.526L326.508 248.835L326.508 250.217ZM332.506 246.753L331.302 247.449L331.302 246.067L332.506 245.372L332.506 246.753ZM331.302 248.831L326.508 251.598L326.508 250.217L331.302 247.449L331.302 248.831ZM345.7 240.518L344.504 241.208L344.504 238.445L343.299 239.141L343.299 237.759L344.504 237.064L344.504 231.519L343.299 232.214L343.299 230.833L344.504 230.137L344.504 221.829L345.7 221.138L345.7 240.518ZM342.103 230.142L338.505 232.219L338.505 230.837L342.103 228.76L342.103 230.142ZM338.505 233.6L337.309 234.291L337.309 232.91L338.505 232.219L338.505 233.6ZM343.299 230.833L342.103 231.523L342.103 230.142L343.299 229.451L343.299 230.833ZM337.309 242.599L336.112 243.29L336.112 234.982L337.309 234.291L337.309 242.599ZM338.505 243.29L337.309 243.981L337.309 242.599L338.505 241.909L338.505 243.29ZM343.299 240.522L342.103 241.213L342.103 239.832L343.299 239.141L343.299 240.522ZM342.103 242.595L338.505 244.672L338.505 243.29L342.103 241.213L342.103 242.595ZM355.305 234.972L354.108 235.663L354.108 232.9L355.305 232.209L355.305 234.972ZM358.91 232.891L357.714 233.581L357.714 230.818L358.91 230.128L358.91 232.891Z" fill="black"/>
</g>
<g id="Group 1155">
<rect id="Rectangle 1135" width="229.8" height="81.5741" transform="matrix(0.866025 -0.5 0.866025 0.5 199.857 485.612)" fill="#F0EBE6" stroke="black" stroke-width="1.11334" stroke-linecap="round" stroke-linejoin="round"/>
<rect id="Rectangle 1134" width="229.8" height="81.5741" transform="matrix(0.866025 -0.5 0.866025 0.5 199.857 474.817)" stroke="black" stroke-width="1.11334" stroke-linecap="round" stroke-linejoin="round"/>
<g id="Group 1153">
<rect id="Rectangle 1135_2" width="66.652" height="10.4455" transform="matrix(0.866025 -0.5 0.866025 0.5 323.487 466.113)" fill="#FFB681" stroke="black" stroke-width="1.11334" stroke-linecap="round" stroke-linejoin="round"/>
<rect id="Rectangle 1136" width="10.4455" height="10.4455" transform="matrix(0.866025 -0.5 0.866025 0.5 310.994 473.325)" fill="#FFB681" stroke="black" stroke-width="1.11334" stroke-linecap="round" stroke-linejoin="round"/>
<rect id="Rectangle 1137" width="10.4455" height="10.4455" transform="matrix(0.866025 -0.5 0.866025 0.5 278.257 477.801)" fill="#FFB681" stroke="black" stroke-width="1.11334" stroke-linecap="round" stroke-linejoin="round"/>
<rect id="Rectangle 1138" width="10.4455" height="10.4455" transform="matrix(0.866025 -0.5 0.866025 0.5 261.027 473.325)" fill="#FFB681" stroke="black" stroke-width="1.11334" stroke-linecap="round" stroke-linejoin="round"/>
<rect id="Rectangle 1139" width="10.4455" height="10.4455" transform="matrix(0.866025 -0.5 0.866025 0.5 254.132 462.88)" fill="#FFB681" stroke="black" stroke-width="1.11334" stroke-linecap="round" stroke-linejoin="round"/>
<rect id="Rectangle 1140" width="10.4455" height="7.95845" transform="matrix(0.866025 -0.5 0.866025 0.5 243.795 456.911)" fill="#FFB681" stroke="black" stroke-width="1.11334" stroke-linecap="round" stroke-linejoin="round"/>
<rect id="Rectangle 1141" width="19.8961" height="7.95845" transform="matrix(0.866025 -0.5 0.866025 0.5 223.119 468.848)" fill="#FFB681" stroke="black" stroke-width="1.11334" stroke-linecap="round" stroke-linejoin="round"/>
<rect id="Rectangle 1142" width="10.4455" height="7.95845" transform="matrix(0.866025 -0.5 0.866025 0.5 293.764 428.061)" fill="#FFB681" stroke="black" stroke-width="1.11334" stroke-linecap="round" stroke-linejoin="round"/>
<rect id="Rectangle 1143" width="10.4455" height="7.95845" transform="matrix(0.866025 -0.5 0.866025 0.5 256.288 449.698)" fill="#FFB681" stroke="black" stroke-width="1.11334" stroke-linecap="round" stroke-linejoin="round"/>
<rect id="Rectangle 1144" width="10.4455" height="7.95845" transform="matrix(0.866025 -0.5 0.866025 0.5 306.256 420.849)" fill="#FFB681" stroke="black" stroke-width="1.11334" stroke-linecap="round" stroke-linejoin="round"/>
<rect id="Rectangle 1145" width="10.4455" height="7.95845" transform="matrix(0.866025 -0.5 0.866025 0.5 343.733 399.212)" fill="#FFB681" stroke="black" stroke-width="1.11334" stroke-linecap="round" stroke-linejoin="round"/>
<rect id="Rectangle 1146" width="10.4455" height="7.95845" transform="matrix(0.866025 -0.5 0.866025 0.5 268.78 442.486)" fill="#FFB681" stroke="black" stroke-width="1.11334" stroke-linecap="round" stroke-linejoin="round"/>
<rect id="Rectangle 1147" width="10.4455" height="7.95845" transform="matrix(0.866025 -0.5 0.866025 0.5 318.749 413.637)" fill="#FFB681" stroke="black" stroke-width="1.11334" stroke-linecap="round" stroke-linejoin="round"/>
<rect id="Rectangle 1148" width="10.4455" height="7.95845" transform="matrix(0.866025 -0.5 0.866025 0.5 356.225 392)" fill="#FFB681" stroke="black" stroke-width="1.11334" stroke-linecap="round" stroke-linejoin="round"/>
<rect id="Rectangle 1149" width="10.4455" height="7.95845" transform="matrix(0.866025 -0.5 0.866025 0.5 281.272 435.274)" fill="#FFB681" stroke="black" stroke-width="1.11334" stroke-linecap="round" stroke-linejoin="round"/>
<rect id="Rectangle 1150" width="10.4455" height="7.95845" transform="matrix(0.866025 -0.5 0.866025 0.5 331.241 406.424)" fill="#FFB681" stroke="black" stroke-width="1.11334" stroke-linecap="round" stroke-linejoin="round"/>
<rect id="Rectangle 1151" width="19.8961" height="7.95845" transform="matrix(0.866025 -0.5 0.866025 0.5 368.717 384.787)" fill="#FFB681" stroke="black" stroke-width="1.11334" stroke-linecap="round" stroke-linejoin="round"/>
<rect id="Rectangle 1191" width="14.9728" height="65.6572" transform="matrix(0.866025 -0.5 0.866025 0.5 389.394 372.85)" fill="#FFB681" stroke="black" stroke-width="1.11334" stroke-linecap="round" stroke-linejoin="round"/>
<rect id="Rectangle 1193" width="10.4455" height="65.6572" transform="matrix(0.866025 -0.5 0.866025 0.5 210.629 476.062)" fill="#FFB681" stroke="black" stroke-width="1.11334" stroke-linecap="round" stroke-linejoin="round"/>
<rect id="Rectangle 1152" width="19.8961" height="10.4455" transform="matrix(0.866025 -0.5 0.866025 0.5 233.457 474.817)" fill="#FFB681" stroke="black" stroke-width="1.11334" stroke-linecap="round" stroke-linejoin="round"/>
<rect id="Rectangle 1153" width="18.9013" height="10.4455" transform="matrix(0.866025 -0.5 0.866025 0.5 258.441 489.242)" fill="#FFB681" stroke="black" stroke-width="1.11334" stroke-linecap="round" stroke-linejoin="round"/>
<rect id="Rectangle 1154" width="13.4299" height="10.4455" transform="matrix(0.866025 -0.5 0.866025 0.5 245.95 482.03)" fill="#FFB681" stroke="black" stroke-width="1.11334" stroke-linecap="round" stroke-linejoin="round"/>
<rect id="Rectangle 1155" width="10.4455" height="10.4455" transform="matrix(0.866025 -0.5 0.866025 0.5 315.733 456.165)" fill="#FFB681" stroke="black" stroke-width="1.11334" stroke-linecap="round" stroke-linejoin="round"/>
<rect id="Rectangle 1156" width="10.4455" height="10.4455" transform="matrix(0.866025 -0.5 0.866025 0.5 298.502 451.688)" fill="#FFB681" stroke="black" stroke-width="1.11334" stroke-linecap="round" stroke-linejoin="round"/>
<rect id="Rectangle 1157" width="10.4455" height="10.4455" transform="matrix(0.866025 -0.5 0.866025 0.5 291.61 441.243)" fill="#FFB681" stroke="black" stroke-width="1.11334" stroke-linecap="round" stroke-linejoin="round"/>
<rect id="Rectangle 1158" width="10.4455" height="10.4455" transform="matrix(0.866025 -0.5 0.866025 0.5 365.701 427.315)" fill="#FFB681" stroke="black" stroke-width="1.11334" stroke-linecap="round" stroke-linejoin="round"/>
<rect id="Rectangle 1159" width="10.4455" height="10.4455" transform="matrix(0.866025 -0.5 0.866025 0.5 348.471 422.839)" fill="#FFB681" stroke="black" stroke-width="1.11334" stroke-linecap="round" stroke-linejoin="round"/>
<rect id="Rectangle 1160" width="10.4455" height="10.4455" transform="matrix(0.866025 -0.5 0.866025 0.5 341.58 412.393)" fill="#FFB681" stroke="black" stroke-width="1.11334" stroke-linecap="round" stroke-linejoin="round"/>
<rect id="Rectangle 1161" width="10.4455" height="10.4455" transform="matrix(0.866025 -0.5 0.866025 0.5 290.749 470.589)" fill="#FFB681" stroke="black" stroke-width="1.11334" stroke-linecap="round" stroke-linejoin="round"/>
<rect id="Rectangle 1162" width="10.4455" height="10.4455" transform="matrix(0.866025 -0.5 0.866025 0.5 273.518 466.113)" fill="#FFB681" stroke="black" stroke-width="1.11334" stroke-linecap="round" stroke-linejoin="round"/>
<rect id="Rectangle 1163" width="10.4455" height="10.4455" transform="matrix(0.866025 -0.5 0.866025 0.5 266.626 455.668)" fill="#FFB681" stroke="black" stroke-width="1.11334" stroke-linecap="round" stroke-linejoin="round"/>
<rect id="Rectangle 1164" width="10.4455" height="10.4455" transform="matrix(0.866025 -0.5 0.866025 0.5 328.226 448.952)" fill="#FFB681" stroke="black" stroke-width="1.11334" stroke-linecap="round" stroke-linejoin="round"/>
<rect id="Rectangle 1165" width="10.4455" height="10.4455" transform="matrix(0.866025 -0.5 0.866025 0.5 310.994 444.476)" fill="#FFB681" stroke="black" stroke-width="1.11334" stroke-linecap="round" stroke-linejoin="round"/>
<rect id="Rectangle 1166" width="10.4455" height="10.4455" transform="matrix(0.866025 -0.5 0.866025 0.5 304.103 434.03)" fill="#FFB681" stroke="black" stroke-width="1.11334" stroke-linecap="round" stroke-linejoin="round"/>
<rect id="Rectangle 1167" width="10.4455" height="10.4455" transform="matrix(0.866025 -0.5 0.866025 0.5 378.194 420.103)" fill="#FFB681" stroke="black" stroke-width="1.11334" stroke-linecap="round" stroke-linejoin="round"/>
<rect id="Rectangle 1168" width="10.4455" height="10.4455" transform="matrix(0.866025 -0.5 0.866025 0.5 360.963 415.627)" fill="#FFB681" stroke="black" stroke-width="1.11334" stroke-linecap="round" stroke-linejoin="round"/>
<rect id="Rectangle 1169" width="10.4455" height="10.4455" transform="matrix(0.866025 -0.5 0.866025 0.5 354.071 405.181)" fill="#FFB681" stroke="black" stroke-width="1.11334" stroke-linecap="round" stroke-linejoin="round"/>
<rect id="Rectangle 1170" width="10.4455" height="10.4455" transform="matrix(0.866025 -0.5 0.866025 0.5 303.241 463.377)" fill="#FFB681" stroke="black" stroke-width="1.11334" stroke-linecap="round" stroke-linejoin="round"/>
<rect id="Rectangle 1171" width="10.4455" height="10.4455" transform="matrix(0.866025 -0.5 0.866025 0.5 286.01 458.9)" fill="#FFB681" stroke="black" stroke-width="1.11334" stroke-linecap="round" stroke-linejoin="round"/>
<rect id="Rectangle 1172" width="10.4455" height="10.4455" transform="matrix(0.866025 -0.5 0.866025 0.5 279.119 448.455)" fill="#FFB681" stroke="black" stroke-width="1.11334" stroke-linecap="round" stroke-linejoin="round"/>
<rect id="Rectangle 1173" width="10.4455" height="10.4455" transform="matrix(0.866025 -0.5 0.866025 0.5 353.209 434.527)" fill="#FFB681" stroke="black" stroke-width="1.11334" stroke-linecap="round" stroke-linejoin="round"/>
<rect id="Rectangle 1174" width="10.4455" height="10.4455" transform="matrix(0.866025 -0.5 0.866025 0.5 335.979 430.051)" fill="#FFB681" stroke="black" stroke-width="1.11334" stroke-linecap="round" stroke-linejoin="round"/>
<rect id="Rectangle 1175" width="10.4455" height="10.4455" transform="matrix(0.866025 -0.5 0.866025 0.5 329.087 419.605)" fill="#FFB681" stroke="black" stroke-width="1.11334" stroke-linecap="round" stroke-linejoin="round"/>
<rect id="Rectangle 1176" width="10.4455" height="10.4455" transform="matrix(0.866025 -0.5 0.866025 0.5 340.718 441.74)" fill="#FFB681" stroke="black" stroke-width="1.11334" stroke-linecap="round" stroke-linejoin="round"/>
<rect id="Rectangle 1177" width="10.4455" height="10.4455" transform="matrix(0.866025 -0.5 0.866025 0.5 323.487 437.263)" fill="#FFB681" stroke="black" stroke-width="1.11334" stroke-linecap="round" stroke-linejoin="round"/>
<rect id="Rectangle 1178" width="10.4455" height="10.4455" transform="matrix(0.866025 -0.5 0.866025 0.5 316.594 426.818)" fill="#FFB681" stroke="black" stroke-width="1.11334" stroke-linecap="round" stroke-linejoin="round"/>
<rect id="Rectangle 1179" width="10.4455" height="10.4455" transform="matrix(0.866025 -0.5 0.866025 0.5 390.686 412.891)" fill="#FFB681" stroke="black" stroke-width="1.11334" stroke-linecap="round" stroke-linejoin="round"/>
<rect id="Rectangle 1180" width="10.4455" height="10.4455" transform="matrix(0.866025 -0.5 0.866025 0.5 373.456 408.414)" fill="#FFB681" stroke="black" stroke-width="1.11334" stroke-linecap="round" stroke-linejoin="round"/>
<rect id="Rectangle 1181" width="10.4455" height="10.4455" transform="matrix(0.866025 -0.5 0.866025 0.5 366.563 397.969)" fill="#FFB681" stroke="black" stroke-width="1.11334" stroke-linecap="round" stroke-linejoin="round"/>
<rect id="Rectangle 1182" width="10.4455" height="10.4455" transform="matrix(0.866025 -0.5 0.866025 0.5 385.948 401.202)" fill="#FFB681" stroke="black" stroke-width="1.11334" stroke-linecap="round" stroke-linejoin="round"/>
<g id="Union_4">
<path fill-rule="evenodd" clip-rule="evenodd" d="M396.286 380.808L379.056 390.756L388.102 395.979L394.994 391.999L407.486 399.211L417.825 393.243L404.116 385.328L404.115 385.328L396.286 380.808Z" fill="#FFB681"/>
<path d="M379.056 390.756L378.574 390.478C378.307 390.631 378.307 390.881 378.574 391.034L379.056 390.756ZM396.286 380.808L396.768 380.53C396.502 380.376 396.07 380.376 395.804 380.53L396.286 380.808ZM388.102 395.979L387.62 396.257C387.747 396.331 387.921 396.372 388.102 396.372C388.283 396.372 388.456 396.331 388.584 396.257L388.102 395.979ZM394.994 391.999L395.476 391.721C395.349 391.647 395.175 391.606 394.994 391.606C394.813 391.606 394.64 391.647 394.512 391.721L394.994 391.999ZM407.486 399.211L407.004 399.49C407.27 399.644 407.702 399.644 407.968 399.49L407.486 399.211ZM417.825 393.243L418.307 393.521C418.435 393.447 418.506 393.347 418.506 393.243C418.506 393.138 418.435 393.038 418.307 392.964L417.825 393.243ZM404.116 385.328L404.598 385.049C404.47 384.976 404.296 384.934 404.116 384.934C403.935 384.934 403.761 384.976 403.634 385.049L404.116 385.328ZM404.115 385.328L403.633 385.606C403.761 385.68 403.934 385.722 404.115 385.722C404.296 385.722 404.47 385.68 404.597 385.606L404.115 385.328ZM379.538 391.034L396.768 381.086L395.804 380.53L378.574 390.478L379.538 391.034ZM388.584 395.7L379.538 390.478L378.574 391.034L387.62 396.257L388.584 395.7ZM394.512 391.721L387.62 395.7L388.584 396.257L395.476 392.278L394.512 391.721ZM407.968 398.933L395.476 391.721L394.512 392.278L407.004 399.49L407.968 398.933ZM417.342 392.964L407.004 398.933L407.968 399.49L418.307 393.521L417.342 392.964ZM403.634 385.606L417.342 393.521L418.307 392.964L404.598 385.049L403.634 385.606ZM404.597 385.606L404.598 385.606L403.634 385.049L403.633 385.05L404.597 385.606ZM395.804 381.086L403.633 385.606L404.597 385.05L396.768 380.53L395.804 381.086Z" fill="black"/>
</g>
<rect id="Rectangle 1183" width="20.8909" height="10.4455" transform="matrix(0.866025 -0.5 0.866025 0.5 403.178 405.678)" fill="#FFB681" stroke="black" stroke-width="1.11334" stroke-linecap="round" stroke-linejoin="round"/>
<rect id="Rectangle 1184" width="10.4455" height="10.4455" transform="matrix(0.866025 -0.5 0.866025 0.5 298.502 480.537)" fill="#FFB681" stroke="black" stroke-width="1.11334" stroke-linecap="round" stroke-linejoin="round"/>
<rect id="Rectangle 1185" width="10.4455" height="10.4455" transform="matrix(0.866025 -0.5 0.866025 0.5 286.01 487.75)" fill="#FFB681" stroke="black" stroke-width="1.11334" stroke-linecap="round" stroke-linejoin="round"/>
<rect id="Rectangle 1186" width="10.4455" height="10.4455" transform="matrix(0.866025 -0.5 0.866025 0.5 384.656 430.797)" fill="#FFB681" stroke="black" stroke-width="1.11334" stroke-linecap="round" stroke-linejoin="round"/>
<rect id="Rectangle 1187" width="10.4455" height="10.4455" transform="matrix(0.866025 -0.5 0.866025 0.5 397.147 423.585)" fill="#FFB681" stroke="black" stroke-width="1.11334" stroke-linecap="round" stroke-linejoin="round"/>
<rect id="Rectangle 1188" width="10.4455" height="10.4455" transform="matrix(0.866025 -0.5 0.866025 0.5 409.64 416.373)" fill="#FFB681" stroke="black" stroke-width="1.11334" stroke-linecap="round" stroke-linejoin="round"/>
<rect id="Rectangle 1189" width="13.4299" height="10.4455" transform="matrix(0.866025 -0.5 0.866025 0.5 422.132 409.16)" fill="#FFB681" stroke="black" stroke-width="1.11334" stroke-linecap="round" stroke-linejoin="round"/>
<rect id="Rectangle 1190" width="13.4299" height="10.4455" transform="matrix(0.866025 -0.5 0.866025 0.5 270.934 496.454)" fill="#FFB681" stroke="black" stroke-width="1.11334" stroke-linecap="round" stroke-linejoin="round"/>
<g id="Group 1152">
<path id="Vector (Stroke)" fill-rule="evenodd" clip-rule="evenodd" d="M391.468 387.169C391.484 387.159 391.503 387.15 391.525 387.143L394.355 386.132C394.359 386.131 394.362 386.129 394.366 386.128C394.683 386.025 394.95 385.878 395.143 385.701C395.166 385.67 395.194 385.64 395.225 385.611L396.905 384.037C396.917 384.025 396.932 384.014 396.948 384.005C397.041 383.951 397.19 383.938 397.307 383.98C397.445 384.028 397.488 384.132 397.403 384.211L395.749 385.77L395.684 385.835C395.677 385.841 395.671 385.848 395.664 385.854C395.567 386 395.624 386.168 395.819 386.281L396.025 386.399C396.157 386.475 396.324 386.528 396.507 386.55L398.696 386.819C398.962 386.851 399.213 386.73 399.203 386.573L399.137 385.445C399.131 385.352 399.258 385.274 399.419 385.27C399.58 385.266 399.715 385.339 399.721 385.432L399.787 386.56C399.809 386.936 399.211 387.227 398.573 387.148L396.46 386.89L396.908 388.109C397.044 388.478 396.541 388.823 395.889 388.81L393.935 388.772C393.774 388.769 393.649 388.691 393.655 388.598C393.661 388.505 393.797 388.432 393.958 388.435L395.911 388.473C396.184 388.479 396.394 388.334 396.337 388.181L395.873 386.917C395.834 386.811 395.743 386.714 395.611 386.638L395.335 386.479C395.15 386.372 394.861 386.353 394.635 386.433L391.823 387.433C391.686 387.482 391.506 387.457 391.422 387.378C391.349 387.31 391.372 387.223 391.468 387.169Z" fill="black"/>
</g>
</g>
</g>
<rect id="Rectangle 1196" width="30.4087" height="56.8643" rx="15.2044" transform="matrix(0.866025 -0.5 0.866025 0.5 459.445 351.041)" fill="white" stroke="black" stroke-width="1.11334" stroke-linecap="round" stroke-linejoin="round"/>
<path id="Rectangle 1197" d="M474.163 354.769L497.074 367.997C504.346 372.195 516.136 372.195 523.409 367.997C526.643 366.129 528.439 363.746 528.796 361.305C528.796 351.305 524.147 346.617 521.822 345.523C515.494 342.165 501.288 334.984 495.089 333.125C488.89 331.265 478.555 336.643 474.163 339.565C466.89 343.763 466.89 350.57 474.163 354.769Z" stroke="black" stroke-width="1.11334" stroke-linecap="round" stroke-linejoin="round"/>
</g>
<g id="Group 1163">
<rect id="Rectangle 1199" x="438.306" y="17.8867" width="5.0856" height="67.075" rx="2.5428" fill="#C4C4C4" stroke="black" stroke-width="1.11334"/>
<rect id="Rectangle 1200" x="438.306" y="17.8867" width="5.0856" height="35.3055" rx="2.5428" fill="#D9D9D9" stroke="black" stroke-width="1.11334"/>
</g>
<path id="Ellipse 49" d="M452.113 21.108H460.566M428.869 21.108H420.416M440.491 9.48559V1.03296M426.227 6.84414L432.273 12.8897M448.709 12.8897L454.755 6.84414" stroke="black" stroke-width="0.955953" stroke-linecap="round" stroke-linejoin="round"/>
</g>
<g id="arrow">
<g id="arrow-segment1">
<rect id="Rectangle 1206" x="529.974" y="101.874" width="55.771" height="15.3217" rx="3.06434" transform="rotate(-24.2866 529.974 101.874)" fill="#53978E" stroke="black" stroke-width="0.88058" stroke-linecap="round" stroke-linejoin="round"/>
<rect id="Rectangle 1201" x="527.453" y="96.2872" width="55.771" height="15.3217" rx="3.06434" transform="rotate(-24.2866 527.453 96.2872)" fill="#ADCCBD" stroke="black" stroke-width="0.88058" stroke-linecap="round" stroke-linejoin="round"/>
</g>
<g id="arrow-segment2">
<rect id="Rectangle 1207" x="601.344" y="73.3367" width="55.771" height="15.3217" rx="3.06434" transform="rotate(-10.4935 601.344 73.3367)" fill="#53978E" stroke="black" stroke-width="0.88058" stroke-linecap="round" stroke-linejoin="round"/>
<rect id="Rectangle 1202" x="600.228" y="67.3107" width="55.771" height="15.3217" rx="3.06434" transform="rotate(-10.4935 600.228 67.3107)" fill="#ADCCBD" stroke="black" stroke-width="0.88058" stroke-linecap="round" stroke-linejoin="round"/>
</g>
<g id="arrow-segment3">
<rect id="Rectangle 1208" x="673.861" y="62.3468" width="55.771" height="15.3217" rx="3.06434" transform="rotate(-2.45712 673.861 62.3468)" fill="#53978E" stroke="black" stroke-width="0.88058" stroke-linecap="round" stroke-linejoin="round"/>
<rect id="Rectangle 1203" x="673.601" y="56.2235" width="55.771" height="15.3217" rx="3.06434" transform="rotate(-2.45712 673.601 56.2235)" fill="#ADCCBD" stroke="black" stroke-width="0.88058" stroke-linecap="round" stroke-linejoin="round"/>
</g>
<g id="arrow-segment4">
<rect id="Rectangle 1209" x="746.815" y="59.659" width="55.771" height="15.3217" rx="3.06434" transform="rotate(4.63867 746.815 59.659)" fill="#53978E" stroke="black" stroke-width="0.88058" stroke-linecap="round" stroke-linejoin="round"/>
<rect id="Rectangle 1204" x="747.311" y="53.5506" width="55.771" height="15.3217" rx="3.06434" transform="rotate(4.63867 747.311 53.5506)" fill="#ADCCBD" stroke="black" stroke-width="0.88058" stroke-linecap="round" stroke-linejoin="round"/>
</g>
<g id="arrow-segment5">
<rect id="Rectangle 1210" x="820.399" y="65.3127" width="55.771" height="15.3217" rx="3.06434" transform="rotate(12.8959 820.399 65.3127)" fill="#53978E" stroke="black" stroke-width="0.88058" stroke-linecap="round" stroke-linejoin="round"/>
<rect id="Rectangle 1205" x="821.767" y="59.3387" width="55.771" height="15.3217" rx="3.06434" transform="rotate(12.8959 821.767 59.3387)" fill="#ADCCBD" stroke="black" stroke-width="0.88058" stroke-linecap="round" stroke-linejoin="round"/>
</g>
<g id="arrow-pointer">
<g id="Union_5">
<path fill-rule="evenodd" clip-rule="evenodd" d="M902.44 57.2374C901.721 55.7058 899.895 55.0478 898.364 55.7677L890.044 59.6784C888.512 60.3984 887.854 62.2236 888.574 63.7552L904.449 97.5275L870.677 113.402C869.145 114.122 868.487 115.947 869.207 117.479L873.118 125.799C873.838 127.33 875.663 127.988 877.195 127.268L913.157 110.364C913.364 110.316 913.569 110.246 913.769 110.152L922.089 106.241C922.866 105.875 923.419 105.225 923.68 104.472C923.967 103.721 923.96 102.859 923.591 102.074L919.681 93.7539C919.586 93.5533 919.473 93.3676 919.344 93.1981L902.44 57.2374Z" fill="#53978E"/>
<path d="M898.364 55.7677L898.176 55.3693L898.176 55.3693L898.364 55.7677ZM902.44 57.2374L902.839 57.0501L902.44 57.2374ZM890.044 59.6784L890.231 60.0769L890.231 60.0769L890.044 59.6784ZM888.574 63.7552L888.176 63.9425L888.176 63.9425L888.574 63.7552ZM904.449 97.5275L904.636 97.926C904.856 97.8226 904.951 97.5603 904.847 97.3402L904.449 97.5275ZM870.677 113.402L870.49 113.004L870.49 113.004L870.677 113.402ZM869.207 117.479L868.809 117.666L868.809 117.666L869.207 117.479ZM873.118 125.799L873.517 125.611L873.118 125.799ZM877.195 127.268L877.008 126.87L877.195 127.268ZM913.157 110.364L913.057 109.935C913.027 109.942 912.998 109.953 912.97 109.966L913.157 110.364ZM913.769 110.152L913.582 109.753L913.769 110.152ZM922.089 106.241L922.276 106.639L922.089 106.241ZM923.68 104.472L923.269 104.315L923.264 104.328L923.68 104.472ZM923.591 102.074L923.193 102.261L923.591 102.074ZM919.681 93.7539L920.079 93.5666L920.079 93.5666L919.681 93.7539ZM919.344 93.1981L918.945 93.3854C918.959 93.4135 918.975 93.4401 918.994 93.4649L919.344 93.1981ZM898.551 56.1662C899.863 55.5497 901.426 56.1132 902.042 57.4247L902.839 57.0501C902.016 55.2984 899.928 54.5459 898.176 55.3693L898.551 56.1662ZM890.231 60.0769L898.551 56.1662L898.176 55.3693L889.857 59.28L890.231 60.0769ZM888.973 63.5679C888.356 62.2564 888.92 60.6934 890.231 60.0769L889.857 59.28C888.105 60.1033 887.352 62.1909 888.176 63.9425L888.973 63.5679ZM904.847 97.3402L888.973 63.5679L888.176 63.9425L904.05 97.7148L904.847 97.3402ZM870.864 113.8L904.636 97.926L904.262 97.1291L870.49 113.004L870.864 113.8ZM869.606 117.292C868.989 115.98 869.553 114.417 870.864 113.8L870.49 113.004C868.738 113.827 867.986 115.914 868.809 117.666L869.606 117.292ZM873.517 125.611L869.606 117.292L868.809 117.666L872.72 125.986L873.517 125.611ZM877.008 126.87C875.696 127.486 874.133 126.923 873.517 125.611L872.72 125.986C873.543 127.738 875.631 128.49 877.382 127.667L877.008 126.87ZM912.97 109.966L877.008 126.87L877.382 127.667L913.345 110.763L912.97 109.966ZM913.582 109.753C913.41 109.834 913.234 109.894 913.057 109.935L913.257 110.793C913.494 110.738 913.728 110.657 913.956 110.55L913.582 109.753ZM921.901 105.842L913.582 109.753L913.956 110.55L922.276 106.639L921.901 105.842ZM923.264 104.328C923.04 104.973 922.567 105.529 921.901 105.842L922.276 106.639C923.165 106.221 923.797 105.477 924.096 104.617L923.264 104.328ZM923.193 102.261C923.509 102.933 923.515 103.671 923.269 104.315L924.091 104.63C924.419 103.771 924.412 102.784 923.99 101.886L923.193 102.261ZM919.282 93.9412L923.193 102.261L923.99 101.886L920.079 93.5666L919.282 93.9412ZM918.994 93.4649C919.104 93.6098 919.201 93.7689 919.282 93.9412L920.079 93.5666C919.971 93.3377 919.842 93.1254 919.694 92.9313L918.994 93.4649ZM902.042 57.4247L918.945 93.3854L919.742 93.0108L902.839 57.0501L902.042 57.4247Z" fill="black"/>
</g>
<g id="Union_6">
<path fill-rule="evenodd" clip-rule="evenodd" d="M904.519 51.4724C903.799 49.9408 901.974 49.2828 900.442 50.0027L892.123 53.9134C890.591 54.6334 889.933 56.4586 890.653 57.9902L906.528 91.7626L872.756 107.637C871.224 108.357 870.566 110.182 871.286 111.714L875.197 120.034C875.917 121.565 877.742 122.223 879.274 121.503L915.236 104.599C915.443 104.551 915.648 104.48 915.847 104.387L924.167 100.476C924.945 100.11 925.497 99.4601 925.758 98.708C926.046 97.9568 926.039 97.0941 925.67 96.3087L921.759 87.989C921.665 87.7884 921.552 87.6028 921.423 87.4333L904.519 51.4724Z" fill="#ADCCBD"/>
<path d="M900.442 50.0027L900.255 49.6043L900.442 50.0027ZM904.519 51.4724L904.918 51.2851L904.519 51.4724ZM892.123 53.9134L891.935 53.5149L891.935 53.5149L892.123 53.9134ZM890.653 57.9902L890.254 58.1775L890.254 58.1775L890.653 57.9902ZM906.528 91.7626L906.715 92.161C906.821 92.1114 906.902 92.0218 906.942 91.9119C906.981 91.802 906.976 91.681 906.926 91.5753L906.528 91.7626ZM872.756 107.637L872.568 107.239L872.568 107.239L872.756 107.637ZM871.286 111.714L870.888 111.901L870.888 111.901L871.286 111.714ZM875.197 120.034L875.595 119.846L875.197 120.034ZM879.274 121.503L879.086 121.105L879.274 121.503ZM915.236 104.599L915.136 104.17C915.106 104.177 915.077 104.187 915.049 104.201L915.236 104.599ZM915.847 104.387L916.035 104.785L915.847 104.387ZM924.167 100.476L923.98 100.077L924.167 100.476ZM925.758 98.708L925.347 98.5505L925.342 98.5635L925.758 98.708ZM921.423 87.4333L921.024 87.6206C921.037 87.6487 921.053 87.6753 921.072 87.7L921.423 87.4333ZM900.63 50.4012C901.941 49.7847 903.504 50.3481 904.121 51.6597L904.918 51.2851C904.094 49.5334 902.007 48.7809 900.255 49.6043L900.63 50.4012ZM892.31 54.3119L900.63 50.4012L900.255 49.6043L891.935 53.5149L892.31 54.3119ZM891.051 57.8029C890.435 56.4914 890.998 54.9284 892.31 54.3119L891.935 53.5149C890.184 54.3383 889.431 56.4258 890.254 58.1775L891.051 57.8029ZM906.926 91.5753L891.051 57.8029L890.254 58.1775L906.129 91.9499L906.926 91.5753ZM872.943 108.036L906.715 92.161L906.34 91.3641L872.568 107.239L872.943 108.036ZM871.684 111.527C871.068 110.215 871.631 108.652 872.943 108.036L872.568 107.239C870.817 108.062 870.064 110.149 870.888 111.901L871.684 111.527ZM875.595 119.846L871.684 111.527L870.888 111.901L874.798 120.221L875.595 119.846ZM879.086 121.105C877.775 121.721 876.212 121.158 875.595 119.846L874.798 120.221C875.622 121.973 877.709 122.725 879.461 121.902L879.086 121.105ZM915.049 104.201L879.086 121.105L879.461 121.902L915.423 104.998L915.049 104.201ZM915.66 103.988C915.489 104.069 915.313 104.129 915.136 104.17L915.336 105.028C915.573 104.973 915.807 104.892 916.035 104.785L915.66 103.988ZM923.98 100.077L915.66 103.988L916.035 104.785L924.354 100.874L923.98 100.077ZM925.342 98.5635C925.118 99.2082 924.646 99.7644 923.98 100.077L924.354 100.874C925.244 100.456 925.876 99.7119 926.174 98.8525L925.342 98.5635ZM925.271 96.496C925.588 97.1687 925.594 97.9066 925.347 98.5506L926.17 98.8654C926.498 98.007 926.491 97.0196 926.068 96.1214L925.271 96.496ZM921.361 88.1763L925.271 96.496L926.068 96.1214L922.158 87.8017L921.361 88.1763ZM921.072 87.7C921.183 87.8449 921.28 88.0039 921.361 88.1763L922.158 87.8017C922.05 87.5728 921.921 87.3606 921.773 87.1665L921.072 87.7ZM904.121 51.6597L921.024 87.6206L921.821 87.246L904.918 51.2851L904.121 51.6597Z" fill="black"/>
</g>
</g>
</g>
</g>
</svg>
