<svg width="1831" height="1592" viewBox="0 0 1831 1592" fill="none" xmlns="http://www.w3.org/2000/svg">
<path d="M915.295 1590.46L1770.85 1096.5L1770.85 1027.52L59.7369 1027.52L59.7369 1096.5L915.295 1590.46Z" fill="#5E6FDB" stroke="black" stroke-width="2.83319" stroke-linecap="round" stroke-linejoin="round"/>
<rect width="987.913" height="987.913" transform="matrix(-0.866025 -0.5 -0.866025 0.5 1770.74 1026.95)" fill="#B0B8ED" stroke="black" stroke-width="2.83319" stroke-linecap="round" stroke-linejoin="round"/>
<rect width="100.83" height="100.83" transform="matrix(-0.866025 -0.5 -0.866025 0.5 1030.15 442.897)" fill="#B0B8ED" stroke="black" stroke-width="1.88879" stroke-linecap="round" stroke-linejoin="round"/>
<rect width="100.83" height="41.6995" transform="matrix(-0.866025 0.5 2.20305e-08 1 1030.15 442.529)" fill="#5E6FDB" stroke="black" stroke-width="1.88879" stroke-linecap="round" stroke-linejoin="round"/>
<rect width="100.83" height="41.6603" transform="matrix(0.866025 0.5 -2.20305e-08 1 855.504 442.566)" fill="#5E6FDB" stroke="black" stroke-width="1.88879" stroke-linecap="round" stroke-linejoin="round"/>
<rect width="45.6748" height="181.569" transform="matrix(-0.866025 0.5 2.20305e-08 1 982.382 266.315)" fill="#F0EBE6" stroke="black" stroke-width="1.88879" stroke-linecap="round" stroke-linejoin="round"/>
<rect width="45.6748" height="172.803" transform="matrix(0.866025 0.5 -2.20305e-08 1 903.27 275.085)" fill="#D6D2CD" stroke="black" stroke-width="1.88879" stroke-linecap="round" stroke-linejoin="round"/>
<rect width="91.8082" height="91.8082" transform="matrix(-0.866025 -0.5 -0.866025 0.5 1242.64 759.114)" fill="#D6D2CD" stroke="black" stroke-width="1.88879" stroke-linecap="round" stroke-linejoin="round"/>
<rect width="91.8082" height="91.8082" transform="matrix(-0.866025 0.5 2.20305e-08 1 1242.64 759.114)" fill="#F0EBE6" stroke="black" stroke-width="1.88879" stroke-linecap="round" stroke-linejoin="round"/>
<rect width="91.8082" height="91.8082" transform="matrix(0.866025 0.5 -2.20305e-08 1 1083.62 759.114)" fill="#F0EBE6" stroke="black" stroke-width="1.88879" stroke-linecap="round" stroke-linejoin="round"/>
<rect width="51.7023" height="731.059" transform="matrix(-0.866025 0.5 2.20305e-08 1 1207.91 26.9376)" fill="#F0EBE6" stroke="black" stroke-width="1.88879" stroke-linecap="round" stroke-linejoin="round"/>
<rect width="51.7023" height="677.43" transform="matrix(0.866025 0.5 -2.20305e-08 1 1118.35 80.5673)" fill="#D6D2CD" stroke="black" stroke-width="1.88879" stroke-linecap="round" stroke-linejoin="round"/>
<path d="M605.867 382.959C605.867 313.858 557.354 285.849 497.51 320.399C437.667 354.95 389.154 438.977 389.154 508.078L389.154 833.646L605.867 708.527L605.867 382.959Z" fill="black" stroke="black" stroke-width="1.88879" stroke-linecap="round" stroke-linejoin="round"/>
<path d="M1388.91 1182.1C1398.67 1176.47 1398.67 1167.33 1388.91 1161.7L605.706 709.516L389.592 834.289L1172.79 1286.47C1182.55 1292.11 1198.38 1292.11 1208.14 1286.47L1388.91 1182.1Z" fill="black" stroke="black" stroke-width="1.88879" stroke-linecap="round" stroke-linejoin="round"/>
<path d="M1215.9 1191.91L1107.19 1121.55L390.328 642.588L606.442 517.814L1336.56 939.347L1336.57 939.338L1406.91 979.95C1426.94 991.511 1443.17 1019.63 1443.17 1042.75C1443.17 1055.08 1438.55 1063.5 1431.21 1066.92L1215.9 1191.91Z" fill="#EEEEEE" stroke="black" stroke-width="1.88879" stroke-linecap="round" stroke-linejoin="round"/>
<path d="M1268.19 1010.8L1284.43 975.191L1179.59 954.456L1074.76 975.191L1058.52 1010.8L1163.36 1071.33L1268.19 1010.8Z" fill="#D6D2CD"/>
<path d="M956.526 824.384L972.764 788.772L867.926 768.037L763.087 788.772L746.849 824.384L851.688 884.913L956.526 824.384Z" fill="#D6D2CD"/>
<path d="M695.123 703.738L711.362 668.126L606.523 647.391L501.685 668.126L485.446 703.738L590.285 764.266L695.123 703.738Z" fill="#D6D2CD"/>
<path d="M1227.16 1167.99C1227.16 1144.87 1210.93 1116.76 1190.9 1105.2L390.525 643.098L390.525 726.828L1190.9 1188.93C1210.93 1200.49 1227.16 1191.11 1227.16 1167.99Z" fill="#D6D2CD" stroke="black" stroke-width="1.88879" stroke-linecap="round" stroke-linejoin="round"/>
<path d="M1201.57 1153.22C1201.57 1144.08 1195.15 1132.98 1187.25 1128.41L390.525 668.426L390.525 701.496L1187.25 1161.48C1195.15 1166.05 1201.57 1162.35 1201.57 1153.22Z" fill="#D6D2CD" stroke="black" stroke-width="1.88879" stroke-linecap="round" stroke-linejoin="round"/>
<path d="M1201.57 1153.22C1201.57 1144.08 1195.15 1132.98 1187.25 1128.41L390.525 668.426L390.525 701.496L1187.25 1161.48C1195.15 1166.05 1201.57 1162.35 1201.57 1153.22Z" fill="black" stroke="black" stroke-width="1.88879" stroke-linecap="round" stroke-linejoin="round"/>
<circle r="11.2578" transform="matrix(-0.866025 -0.5 -2.20305e-08 1 1185.72 1144.42)" fill="#D6D2CD" stroke="black" stroke-width="1.88879" stroke-linecap="round" stroke-linejoin="round"/>
<circle r="11.2578" transform="matrix(-0.866025 -0.5 -2.20305e-08 1 812.802 929.117)" fill="#D6D2CD" stroke="black" stroke-width="1.88879" stroke-linecap="round" stroke-linejoin="round"/>
<circle r="11.2578" transform="matrix(-0.866025 -0.5 -2.20305e-08 1 626.343 821.467)" fill="#D6D2CD" stroke="black" stroke-width="1.88879" stroke-linecap="round" stroke-linejoin="round"/>
<circle r="11.2578" transform="matrix(-0.866025 -0.5 -2.20305e-08 1 750.649 893.234)" fill="#D6D2CD" stroke="black" stroke-width="1.88879" stroke-linecap="round" stroke-linejoin="round"/>
<circle r="11.2578" transform="matrix(-0.866025 -0.5 -2.20305e-08 1 937.11 1000.88)" fill="#D6D2CD" stroke="black" stroke-width="1.88879" stroke-linecap="round" stroke-linejoin="round"/>
<circle r="11.2578" transform="matrix(-0.866025 -0.5 -2.20305e-08 1 1061.42 1072.66)" fill="#D6D2CD" stroke="black" stroke-width="1.88879" stroke-linecap="round" stroke-linejoin="round"/>
<circle r="11.2578" transform="matrix(-0.866025 -0.5 -2.20305e-08 1 688.496 857.351)" fill="#D6D2CD" stroke="black" stroke-width="1.88879" stroke-linecap="round" stroke-linejoin="round"/>
<circle r="11.2578" transform="matrix(-0.866025 -0.5 -2.20305e-08 1 502.035 749.694)" fill="#D6D2CD" stroke="black" stroke-width="1.88879" stroke-linecap="round" stroke-linejoin="round"/>
<path d="M1442.82 1039.23L1227.16 1164.82" stroke="black" stroke-width="1.88879"/>
<path d="M1396.03 973.796L1180.37 1099.39" stroke="black" stroke-width="1.88879"/>
<path d="M1396.02 973.824L1179.72 1098.71" stroke="black" stroke-width="1.88879"/>
<path d="M843.53 654.83L627.23 779.711" stroke="black" stroke-width="1.88879"/>
<path d="M1119.78 814.327L903.477 939.208" stroke="black" stroke-width="1.88879"/>
<path d="M1257.9 894.068L1041.6 1018.95" stroke="black" stroke-width="1.88879"/>
<path d="M705.405 575.089L489.105 699.97" stroke="black" stroke-width="1.88879"/>
<path d="M981.653 734.579L765.353 859.459" stroke="black" stroke-width="1.88879"/>
<path d="M1326.96 933.943L1110.66 1058.82" stroke="black" stroke-width="1.88879"/>
<path d="M774.467 614.963L558.167 739.844" stroke="black" stroke-width="1.88879"/>
<path d="M1050.71 774.453L834.415 899.334" stroke="black" stroke-width="1.88879"/>
<path d="M1188.84 854.201L972.539 979.082" stroke="black" stroke-width="1.88879"/>
<path d="M636.343 535.215L420.043 660.095" stroke="black" stroke-width="1.88879"/>
<path d="M912.591 694.704L696.291 819.585" stroke="black" stroke-width="1.88879"/>
<rect width="121.057" height="121.057" transform="matrix(-0.866025 -0.5 -0.866025 0.5 1284.85 854.9)" fill="#FFDBC0" stroke="black" stroke-width="1.88879" stroke-linecap="round" stroke-linejoin="round"/>
<rect width="17.8565" height="121.057" transform="matrix(-0.866025 -0.5 -0.866025 0.5 1240.17 829.098)" fill="white" stroke="black" stroke-width="1.88879" stroke-linecap="round" stroke-linejoin="round"/>
<rect width="121.057" height="121.057" transform="matrix(-0.866025 0.5 2.20305e-08 1 1284.85 854.9)" fill="#FFB681" stroke="black" stroke-width="1.88879" stroke-linecap="round" stroke-linejoin="round"/>
<rect width="121.057" height="121.057" transform="matrix(0.866025 0.5 -2.20305e-08 1 1075.18 854.9)" fill="#E0A173" stroke="black" stroke-width="1.88879" stroke-linecap="round" stroke-linejoin="round"/>
<rect width="18.6866" height="40.919" transform="matrix(0.866025 0.5 -2.20305e-08 1 1119.5 880.475)" fill="white" stroke="black" stroke-width="1.88879" stroke-linecap="round" stroke-linejoin="round"/>
<rect width="121.057" height="121.057" transform="matrix(-0.866025 -0.5 -0.866025 0.5 972.45 667.356)" fill="#FFDBC0" stroke="black" stroke-width="1.88879" stroke-linecap="round" stroke-linejoin="round"/>
<rect width="121.057" height="121.057" transform="matrix(-0.866025 0.5 2.20305e-08 1 972.45 667.356)" fill="#FFB681" stroke="black" stroke-width="1.88879" stroke-linecap="round" stroke-linejoin="round"/>
<rect width="121.057" height="121.057" transform="matrix(0.866025 0.5 -2.20305e-08 1 762.775 667.356)" fill="#E0A173" stroke="black" stroke-width="1.88879" stroke-linecap="round" stroke-linejoin="round"/>
<rect width="135.188" height="135.188" transform="matrix(-0.866025 -0.5 -0.866025 0.5 838.335 1105.92)" fill="#D6D2CD" stroke="black" stroke-width="1.88879" stroke-linecap="round" stroke-linejoin="round"/>
<rect width="91.8082" height="91.8082" transform="matrix(-0.866025 -0.5 -0.866025 0.5 800.768 1014.47)" fill="#D6D2CD" stroke="black" stroke-width="1.88879" stroke-linecap="round" stroke-linejoin="round"/>
<rect width="91.8082" height="91.8082" transform="matrix(-0.866025 0.5 2.20305e-08 1 800.768 1014.47)" fill="#F0EBE6" stroke="black" stroke-width="1.88879" stroke-linecap="round" stroke-linejoin="round"/>
<rect width="91.8082" height="91.8082" transform="matrix(0.866025 0.5 -2.20305e-08 1 641.751 1014.47)" fill="#F0EBE6" stroke="black" stroke-width="1.88879" stroke-linecap="round" stroke-linejoin="round"/>
<rect width="121.057" height="121.057" transform="matrix(-0.866025 -0.5 -0.866025 0.5 711.41 549.154)" fill="#FFDBC0" stroke="black" stroke-width="1.88879" stroke-linecap="round" stroke-linejoin="round"/>
<rect width="121.057" height="121.057" transform="matrix(-0.866025 0.5 2.20305e-08 1 711.41 549.154)" fill="#FFB681" stroke="black" stroke-width="1.88879" stroke-linecap="round" stroke-linejoin="round"/>
<rect width="121.057" height="121.057" transform="matrix(0.866025 0.5 -2.20305e-08 1 501.733 549.154)" fill="#E0A173" stroke="black" stroke-width="1.88879" stroke-linecap="round" stroke-linejoin="round"/>
<ellipse rx="86.5444" ry="60.5107" transform="matrix(-1 0 0 1 939.381 237.483)" fill="#B0B8ED" stroke="black" stroke-width="1.88879" stroke-linecap="round" stroke-linejoin="round"/>
<rect width="51.7023" height="722.331" transform="matrix(-0.866025 0.5 2.20305e-08 1 766.036 281.823)" fill="#F0EBE6" stroke="black" stroke-width="1.88879" stroke-linecap="round" stroke-linejoin="round"/>
<rect width="458.229" height="53.0833" transform="matrix(-0.866025 0.5 2.20305e-08 1 1163.13 52.5776)" fill="#F0EBE6" stroke="black" stroke-width="1.88879" stroke-linecap="round" stroke-linejoin="round"/>
<rect width="51.7023" height="722.728" transform="matrix(0.866025 0.5 -2.20305e-08 1 676.484 281.691)" fill="#F0EBE6" stroke="black" stroke-width="1.88879" stroke-linecap="round" stroke-linejoin="round"/>
<rect width="51.5359" height="561.655" transform="matrix(-0.866025 -0.5 -0.866025 0.5 1207.67 26.7679)" fill="#F0EBE6" stroke="black" stroke-width="1.88879" stroke-linecap="round" stroke-linejoin="round"/>
<rect width="51.2596" height="25.908" transform="matrix(-0.866025 -0.5 -0.866025 0.5 721.261 928.097)" fill="#F0EBE6" stroke="black" stroke-width="1.88879" stroke-linecap="round" stroke-linejoin="round"/>
<path fill-rule="evenodd" clip-rule="evenodd" d="M698.868 941.054L654.476 915.424V962.177L654.476 962.177L626.976 1013.84L671.369 1039.47L697.74 989.925L698.868 990.576L698.868 941.054Z" fill="#F0EBE6"/>
<path d="M654.476 915.424H653.532C653.532 915.086 653.712 914.775 654.004 914.606C654.296 914.437 654.656 914.437 654.948 914.606L654.476 915.424ZM698.868 941.054L699.34 940.236C699.633 940.404 699.813 940.716 699.813 941.054H698.868ZM654.476 962.177H655.42C655.42 962.515 655.239 962.828 654.946 962.996C654.652 963.164 654.29 963.163 653.998 962.991L654.476 962.177ZM654.476 962.177L653.642 961.733C653.763 961.506 653.971 961.338 654.219 961.268C654.466 961.198 654.732 961.232 654.954 961.362L654.476 962.177ZM626.976 1013.84L626.504 1014.65C626.063 1014.4 625.904 1013.84 626.143 1013.39L626.976 1013.84ZM671.369 1039.47L672.202 1039.91C672.082 1040.14 671.875 1040.3 671.629 1040.37C671.382 1040.44 671.118 1040.41 670.896 1040.28L671.369 1039.47ZM697.74 989.925L696.907 989.481C697.027 989.255 697.234 989.087 697.48 989.017C697.727 988.946 697.991 988.979 698.213 989.107L697.74 989.925ZM698.868 990.576H699.813C699.813 990.913 699.633 991.225 699.34 991.394C699.048 991.562 698.688 991.562 698.396 991.394L698.868 990.576ZM654.948 914.606L699.34 940.236L698.396 941.872L654.004 916.242L654.948 914.606ZM653.532 962.177V915.424H655.42V962.177H653.532ZM654.954 961.362L654.954 961.362L653.998 962.991L653.998 962.991L654.954 961.362ZM626.143 1013.39L653.642 961.733L655.31 962.62L627.81 1014.28L626.143 1013.39ZM670.896 1040.28L626.504 1014.65L627.449 1013.02L671.841 1038.65L670.896 1040.28ZM698.574 990.368L672.202 1039.91L670.535 1039.02L696.907 989.481L698.574 990.368ZM698.396 991.394L697.268 990.743L698.213 989.107L699.34 989.758L698.396 991.394ZM699.813 941.054L699.813 990.576H697.924L697.924 941.054H699.813Z" fill="black"/>
<path d="M655.171 975.908L685.435 993.381L666.688 1028.6L636.424 1011.13L655.171 975.908Z" fill="#B0B8ED" stroke="black" stroke-width="2.26212" stroke-linecap="round" stroke-linejoin="round"/>
<path d="M646.263 993.401L676.527 1010.87L666.688 1028.59L636.424 1011.12L646.263 993.401Z" fill="#B0B8ED" stroke="black" stroke-width="2.26212" stroke-linecap="round" stroke-linejoin="round"/>
<path d="M646.263 993.41L656.103 998.979L646.263 1016.7L636.424 1011.13L646.263 993.41Z" fill="#B0B8ED" stroke="black" stroke-width="2.26212" stroke-linecap="round" stroke-linejoin="round"/>
<rect width="44.9089" height="26.7399" transform="matrix(0.866025 0.5 -2.20305e-08 1 657.225 926.956)" fill="#F0EBE6" stroke="black" stroke-width="1.88879" stroke-linecap="round" stroke-linejoin="round"/>
<rect width="35.8364" height="16.3896" transform="matrix(0.866025 0.5 -2.20305e-08 1 661.155 934.437)" fill="#FFB681" stroke="black" stroke-width="1.88879" stroke-linecap="round" stroke-linejoin="round"/>
<path fill-rule="evenodd" clip-rule="evenodd" d="M698.868 941.025L721.26 928.097L721.26 974.467L721.261 974.467L721.261 1010.59L671.369 1039.4L698.868 987.396L698.868 941.025Z" fill="#F0EBE6"/>
<path d="M721.26 928.097L720.788 927.279C721.08 927.11 721.44 927.11 721.733 927.279C722.025 927.448 722.205 927.76 722.205 928.097L721.26 928.097ZM698.868 941.025H697.924C697.924 940.688 698.104 940.376 698.396 940.207L698.868 941.025ZM721.26 974.467L721.732 975.285C721.44 975.454 721.08 975.453 720.788 975.285C720.496 975.116 720.316 974.804 720.316 974.467H721.26ZM721.261 974.467L720.789 973.649C721.081 973.48 721.441 973.48 721.733 973.649C722.025 973.818 722.205 974.13 722.205 974.467H721.261ZM721.261 1010.59H722.205C722.205 1010.93 722.025 1011.24 721.733 1011.41L721.261 1010.59ZM671.369 1039.4L671.841 1040.21C671.476 1040.42 671.017 1040.37 670.713 1040.08C670.41 1039.78 670.337 1039.33 670.534 1038.95L671.369 1039.4ZM698.868 987.396H699.812C699.812 987.55 699.775 987.701 699.703 987.837L698.868 987.396ZM721.733 928.915L699.34 941.843L698.396 940.207L720.788 927.279L721.733 928.915ZM720.316 974.467L720.316 928.097L722.205 928.097L722.205 974.467H720.316ZM720.789 973.649L720.789 973.649L721.732 975.285L721.732 975.285L720.789 973.649ZM722.205 974.467L722.205 1010.59H720.316L720.316 974.467H722.205ZM721.733 1011.41L671.841 1040.21L670.896 1038.58L720.789 1009.77L721.733 1011.41ZM670.534 1038.95L698.033 986.954L699.703 987.837L672.204 1039.84L670.534 1038.95ZM699.812 941.025L699.812 987.396H697.924L697.924 941.025H699.812Z" fill="black"/>
</svg>
