<svg width="1466" height="643" viewBox="0 0 1466 643" fill="none" xmlns="http://www.w3.org/2000/svg">

<style>
@keyframes pointer-appear {
  0% { opacity: 1; }
  10%, 60% { opacity: 1; }
  70%, 100% { opacity: 0.1; }
}

#arrow-segment1 {
  opacity: 0.1;
  animation: 5s ease-in-out 0ms infinite forwards pointer-appear; 
}
#arrow-segment2 {
  opacity: 0.1;
  animation: 5s ease-in-out 100ms infinite forwards pointer-appear;
}
#arrow-segment3 {
  opacity: 0.1;
  animation: 5s ease-in-out 200ms infinite forwards pointer-appear;
}
#arrow-segment4 {
  opacity: 0.1;
  animation: 5s ease-in-out 300ms infinite forwards pointer-appear;
}
#arrow-segment5 {
  opacity: 0.1;
  animation: 5s ease-in-out 400ms infinite forwards pointer-appear;
}
#arrow-pointer {
  opacity: 0.1;
  animation: 5s ease-in-out 500ms infinite forwards pointer-appear;
}
</style>



<g id="computer-with-belt">
<path id="Rectangle 1215" d="M1128.53 642.091L1464.73 447.983L1464.73 420.877L792.323 420.877L792.323 447.983L1128.53 642.091Z" fill="#5E6FDB" stroke="black" stroke-width="1.11334" stroke-linecap="round" stroke-linejoin="round"/>
<g id="Group 1258">
<rect id="Rectangle 1213" width="388.215" height="388.215" transform="matrix(-0.866025 -0.5 -0.866025 0.5 1464.69 420.652)" fill="#B0B8ED" stroke="black" stroke-width="1.11334" stroke-linecap="round" stroke-linejoin="round"/>
<g id="Group 1257">
<g id="Group 1256">
<g id="Group 1235">
<rect id="Rectangle 1304" width="39.6227" height="39.6227" transform="matrix(-0.866025 -0.5 -0.866025 0.5 1173.66 191.141)" fill="#B0B8ED" stroke="black" stroke-width="0.742229" stroke-linecap="round" stroke-linejoin="round"/>
<rect id="Rectangle 1301" width="39.6227" height="16.3864" transform="matrix(-0.866025 0.5 2.20305e-08 1 1173.66 190.995)" fill="#5E6FDB" stroke="black" stroke-width="0.742229" stroke-linecap="round" stroke-linejoin="round"/>
<rect id="Rectangle 1303" width="39.6227" height="16.371" transform="matrix(0.866025 0.5 -2.20305e-08 1 1105.03 191.011)" fill="#5E6FDB" stroke="black" stroke-width="0.742229" stroke-linecap="round" stroke-linejoin="round"/>
</g>
</g>
<g id="Group 1257_2">
<g id="Group 1235_2">
<rect id="Rectangle 1301_2" width="17.9486" height="71.3503" transform="matrix(-0.866025 0.5 2.20305e-08 1 1154.89 121.749)" fill="#F0EBE6" stroke="black" stroke-width="0.742229" stroke-linecap="round" stroke-linejoin="round"/>
<rect id="Rectangle 1303_2" width="17.9486" height="67.9054" transform="matrix(0.866025 0.5 -2.20305e-08 1 1123.8 125.194)" fill="#D6D2CD" stroke="black" stroke-width="0.742229" stroke-linecap="round" stroke-linejoin="round"/>
</g>
</g>
<g id="Group 1254">
<g id="Group 1253">
<g id="Group 1235_3">
<rect id="Rectangle 1304_2" width="36.0774" height="36.0774" transform="matrix(-0.866025 -0.5 -0.866025 0.5 1257.16 315.404)" fill="#D6D2CD" stroke="black" stroke-width="0.742229" stroke-linecap="round" stroke-linejoin="round"/>
<rect id="Rectangle 1301_3" width="36.0774" height="36.0774" transform="matrix(-0.866025 0.5 2.20305e-08 1 1257.16 315.404)" fill="#F0EBE6" stroke="black" stroke-width="0.742229" stroke-linecap="round" stroke-linejoin="round"/>
<rect id="Rectangle 1303_3" width="36.0774" height="36.0774" transform="matrix(0.866025 0.5 -2.20305e-08 1 1194.67 315.404)" fill="#F0EBE6" stroke="black" stroke-width="0.742229" stroke-linecap="round" stroke-linejoin="round"/>
</g>
</g>
<rect id="Rectangle 1305" width="20.3172" height="287.28" transform="matrix(-0.866025 0.5 2.20305e-08 1 1243.51 27.684)" fill="#F0EBE6" stroke="black" stroke-width="0.742229" stroke-linecap="round" stroke-linejoin="round"/>
<rect id="Rectangle 1306" width="20.3172" height="266.206" transform="matrix(0.866025 0.5 -2.20305e-08 1 1208.32 48.7583)" fill="#D6D2CD" stroke="black" stroke-width="0.742229" stroke-linecap="round" stroke-linejoin="round"/>
</g>
<path id="Rectangle 1305_2" d="M1006.93 167.586C1006.93 140.432 987.868 129.425 964.351 143.002V143.002C940.835 156.58 921.771 189.599 921.771 216.754L921.771 344.69L1006.93 295.523L1006.93 167.586Z" fill="black" stroke="black" stroke-width="0.742229" stroke-linecap="round" stroke-linejoin="round"/>
<g id="Group 1246">
<path id="Rectangle 1296" d="M1314.64 481.623C1318.48 479.409 1318.48 475.819 1314.64 473.604L1006.87 295.913L921.944 344.944L1229.71 522.636C1233.55 524.85 1239.77 524.85 1243.6 522.636L1314.64 481.623Z" fill="black" stroke="black" stroke-width="0.742229" stroke-linecap="round" stroke-linejoin="round"/>
<g id="Group 1232">
<path id="Union" d="M1246.65 485.479L1203.94 457.829L922.233 269.613L1007.16 220.581L1294.07 386.229L1294.07 386.226L1321.71 402.184C1329.58 406.727 1335.96 417.776 1335.96 426.862C1335.96 431.707 1334.15 435.016 1331.26 436.36L1246.65 485.479Z" fill="#EEEEEE" stroke="black" stroke-width="0.742229" stroke-linecap="round" stroke-linejoin="round"/>
<path id="Rectangle 1307" d="M1267.2 414.307L1273.59 400.313L1232.39 392.165L1191.19 400.313L1184.81 414.307L1226.01 438.093L1267.2 414.307Z" fill="#D6D2CD"/>
<path id="Rectangle 1308" d="M1144.73 341.051L1151.11 327.057L1109.91 318.908L1068.71 327.057L1062.33 341.051L1103.53 364.836L1144.73 341.051Z" fill="#D6D2CD"/>
<path id="Rectangle 1309" d="M1042.01 293.641L1048.39 279.647L1007.19 271.499L965.992 279.647L959.611 293.641L1000.81 317.427L1042.01 293.641Z" fill="#D6D2CD"/>
<g id="Group 1228">
<path id="Rectangle 1289" d="M1251.08 476.078C1251.08 466.992 1244.7 455.944 1236.83 451.401L922.31 269.812L922.31 302.715L1236.83 484.304C1244.7 488.847 1251.08 485.164 1251.08 476.078V476.078Z" fill="#D6D2CD" stroke="black" stroke-width="0.742229" stroke-linecap="round" stroke-linejoin="round"/>
<path id="Rectangle 1290" d="M1241.02 470.272C1241.02 466.684 1238.5 462.32 1235.4 460.526L922.312 279.767L922.312 292.762L1235.4 473.521C1238.5 475.315 1241.02 473.861 1241.02 470.272V470.272Z" fill="#D6D2CD" stroke="black" stroke-width="0.742229" stroke-linecap="round" stroke-linejoin="round"/>
<path id="Rectangle 1291" d="M1241.02 470.272C1241.02 466.684 1238.5 462.32 1235.4 460.526L922.312 279.767L922.312 292.762L1235.4 473.521C1238.5 475.315 1241.02 473.861 1241.02 470.272V470.272Z" fill="black" stroke="black" stroke-width="0.742229" stroke-linecap="round" stroke-linejoin="round"/>
<circle id="Ellipse 89" r="4.42393" transform="matrix(-0.866025 -0.5 -2.20305e-08 1 1234.8 466.815)" fill="#D6D2CD" stroke="black" stroke-width="0.742229" stroke-linecap="round" stroke-linejoin="round"/>
<circle id="Ellipse 96" r="4.42393" transform="matrix(-0.866025 -0.5 -2.20305e-08 1 1088.25 382.208)" fill="#D6D2CD" stroke="black" stroke-width="0.742229" stroke-linecap="round" stroke-linejoin="round"/>
<circle id="Ellipse 97" r="4.42393" transform="matrix(-0.866025 -0.5 -2.20305e-08 1 1014.98 339.904)" fill="#D6D2CD" stroke="black" stroke-width="0.742229" stroke-linecap="round" stroke-linejoin="round"/>
<circle id="Ellipse 98" r="4.42393" transform="matrix(-0.866025 -0.5 -2.20305e-08 1 1063.83 368.107)" fill="#D6D2CD" stroke="black" stroke-width="0.742229" stroke-linecap="round" stroke-linejoin="round"/>
<circle id="Ellipse 94" r="4.42393" transform="matrix(-0.866025 -0.5 -2.20305e-08 1 1137.1 410.41)" fill="#D6D2CD" stroke="black" stroke-width="0.742229" stroke-linecap="round" stroke-linejoin="round"/>
<circle id="Ellipse 92" r="4.42393" transform="matrix(-0.866025 -0.5 -2.20305e-08 1 1185.95 438.613)" fill="#D6D2CD" stroke="black" stroke-width="0.742229" stroke-linecap="round" stroke-linejoin="round"/>
<circle id="Ellipse 100" r="4.42393" transform="matrix(-0.866025 -0.5 -2.20305e-08 1 1039.4 354.005)" fill="#D6D2CD" stroke="black" stroke-width="0.742229" stroke-linecap="round" stroke-linejoin="round"/>
<circle id="Ellipse 101" r="4.42393" transform="matrix(-0.866025 -0.5 -2.20305e-08 1 966.13 311.701)" fill="#D6D2CD" stroke="black" stroke-width="0.742229" stroke-linecap="round" stroke-linejoin="round"/>
</g>
<path id="Vector 288" d="M1335.82 425.48L1251.08 474.834" stroke="black" stroke-width="0.742229"/>
<path id="Vector 289" d="M1317.44 399.765L1232.69 449.12" stroke="black" stroke-width="0.742229"/>
<g id="Group 1230">
<path id="Vector 296" d="M1317.43 399.776L1232.43 448.85" stroke="black" stroke-width="0.742229"/>
<path id="Vector 304" d="M1100.32 274.425L1015.33 323.499" stroke="black" stroke-width="0.742229"/>
<path id="Vector 300" d="M1208.88 337.099L1123.88 386.173" stroke="black" stroke-width="0.742229"/>
<path id="Vector 298" d="M1263.16 368.437L1178.16 417.511" stroke="black" stroke-width="0.742229"/>
<path id="Vector 306" d="M1046.05 243.087L961.048 292.161" stroke="black" stroke-width="0.742229"/>
<path id="Vector 301" d="M1154.6 305.762L1069.6 354.836" stroke="black" stroke-width="0.742229"/>
<path id="Vector 297" d="M1290.3 384.106L1205.3 433.179" stroke="black" stroke-width="0.742229"/>
<path id="Vector 308" d="M1073.18 258.756L988.186 307.83" stroke="black" stroke-width="0.742229"/>
<path id="Vector 302" d="M1181.74 321.431L1096.74 370.504" stroke="black" stroke-width="0.742229"/>
<path id="Vector 299" d="M1236.02 352.768L1151.02 401.842" stroke="black" stroke-width="0.742229"/>
<path id="Vector 310" d="M1018.91 227.419L933.908 276.492" stroke="black" stroke-width="0.742229"/>
<path id="Vector 303" d="M1127.46 290.093L1042.46 339.167" stroke="black" stroke-width="0.742229"/>
</g>
</g>
</g>
<g id="Group 1247">
<g id="Group 1235_4">
<rect id="Rectangle 1304_3" width="47.5711" height="47.5711" transform="matrix(-0.866025 -0.5 -0.866025 0.5 1273.75 353.045)" fill="#FFDBC0" stroke="black" stroke-width="0.742229" stroke-linecap="round" stroke-linejoin="round"/>
<rect id="Rectangle 1305_3" width="7.01697" height="47.5711" transform="matrix(-0.866025 -0.5 -0.866025 0.5 1256.19 342.906)" fill="white" stroke="black" stroke-width="0.742229" stroke-linecap="round" stroke-linejoin="round"/>
<rect id="Rectangle 1301_4" width="47.5711" height="47.5711" transform="matrix(-0.866025 0.5 2.20305e-08 1 1273.75 353.045)" fill="#FFB681" stroke="black" stroke-width="0.742229" stroke-linecap="round" stroke-linejoin="round"/>
<rect id="Rectangle 1303_4" width="47.5711" height="47.5711" transform="matrix(0.866025 0.5 -2.20305e-08 1 1191.36 353.045)" fill="#E0A173" stroke="black" stroke-width="0.742229" stroke-linecap="round" stroke-linejoin="round"/>
<rect id="Rectangle 1306_2" width="7.34319" height="16.0798" transform="matrix(0.866025 0.5 -2.20305e-08 1 1208.77 363.095)" fill="white" stroke="black" stroke-width="0.742229" stroke-linecap="round" stroke-linejoin="round"/>
</g>
</g>
<g id="Group 1248">
<g id="Group 1235_5">
<rect id="Rectangle 1304_4" width="47.5711" height="47.5711" transform="matrix(-0.866025 -0.5 -0.866025 0.5 1150.99 279.346)" fill="#FFDBC0" stroke="black" stroke-width="0.742229" stroke-linecap="round" stroke-linejoin="round"/>
<rect id="Rectangle 1301_5" width="47.5711" height="47.5711" transform="matrix(-0.866025 0.5 2.20305e-08 1 1150.99 279.346)" fill="#FFB681" stroke="black" stroke-width="0.742229" stroke-linecap="round" stroke-linejoin="round"/>
<rect id="Rectangle 1303_5" width="47.5711" height="47.5711" transform="matrix(0.866025 0.5 -2.20305e-08 1 1068.59 279.346)" fill="#E0A173" stroke="black" stroke-width="0.742229" stroke-linecap="round" stroke-linejoin="round"/>
</g>
</g>
<g id="Group 1249">
<g id="Group 1235_6">
<rect id="Rectangle 1305_4" width="53.1241" height="53.1241" transform="matrix(-0.866025 -0.5 -0.866025 0.5 1098.28 451.686)" fill="#D6D2CD" stroke="black" stroke-width="0.742229" stroke-linecap="round" stroke-linejoin="round"/>
<rect id="Rectangle 1304_5" width="36.0774" height="36.0774" transform="matrix(-0.866025 -0.5 -0.866025 0.5 1083.52 415.749)" fill="#D6D2CD" stroke="black" stroke-width="0.742229" stroke-linecap="round" stroke-linejoin="round"/>
<rect id="Rectangle 1301_6" width="36.0774" height="36.0774" transform="matrix(-0.866025 0.5 2.20305e-08 1 1083.52 415.749)" fill="#F0EBE6" stroke="black" stroke-width="0.742229" stroke-linecap="round" stroke-linejoin="round"/>
<rect id="Rectangle 1303_6" width="36.0774" height="36.0774" transform="matrix(0.866025 0.5 -2.20305e-08 1 1021.03 415.749)" fill="#F0EBE6" stroke="black" stroke-width="0.742229" stroke-linecap="round" stroke-linejoin="round"/>
</g>
</g>
<g id="Group 1250">
<g id="Group 1235_7">
<rect id="Rectangle 1304_6" width="47.5711" height="47.5711" transform="matrix(-0.866025 -0.5 -0.866025 0.5 1048.41 232.894)" fill="#FFDBC0" stroke="black" stroke-width="0.742229" stroke-linecap="round" stroke-linejoin="round"/>
<rect id="Rectangle 1301_7" width="47.5711" height="47.5711" transform="matrix(-0.866025 0.5 2.20305e-08 1 1048.41 232.894)" fill="#FFB681" stroke="black" stroke-width="0.742229" stroke-linecap="round" stroke-linejoin="round"/>
<rect id="Rectangle 1303_7" width="47.5711" height="47.5711" transform="matrix(0.866025 0.5 -2.20305e-08 1 966.012 232.894)" fill="#E0A173" stroke="black" stroke-width="0.742229" stroke-linecap="round" stroke-linejoin="round"/>
</g>
</g>
<ellipse id="Ellipse 103" rx="34.0089" ry="23.7786" transform="matrix(-1 0 0 1 1137.99 110.42)" fill="#B0B8ED" stroke="black" stroke-width="0.742229" stroke-linecap="round" stroke-linejoin="round"/>
<g id="Group 1252">
<g id="Group 1235_8">
<rect id="Rectangle 1301_8" width="20.3172" height="283.851" transform="matrix(-0.866025 0.5 2.20305e-08 1 1069.87 127.846)" fill="#F0EBE6" stroke="black" stroke-width="0.742229" stroke-linecap="round" stroke-linejoin="round"/>
<rect id="Rectangle 1304_7" width="180.068" height="20.8599" transform="matrix(-0.866025 0.5 2.20305e-08 1 1225.92 37.7592)" fill="#F0EBE6" stroke="black" stroke-width="0.742229" stroke-linecap="round" stroke-linejoin="round"/>
<rect id="Rectangle 1303_8" width="20.3172" height="284.007" transform="matrix(0.866025 0.5 -2.20305e-08 1 1034.68 127.793)" fill="#F0EBE6" stroke="black" stroke-width="0.742229" stroke-linecap="round" stroke-linejoin="round"/>
</g>
</g>
<rect id="Rectangle 1306_3" width="20.2518" height="220.711" transform="matrix(-0.866025 -0.5 -0.866025 0.5 1243.42 27.6177)" fill="#F0EBE6" stroke="black" stroke-width="0.742229" stroke-linecap="round" stroke-linejoin="round"/>
<g id="Group 1255">
<g id="Group 1235_9">
<rect id="Rectangle 1304_8" width="20.1432" height="10.1809" transform="matrix(-0.866025 -0.5 -0.866025 0.5 1052.28 381.806)" fill="#F0EBE6" stroke="black" stroke-width="0.742229" stroke-linecap="round" stroke-linejoin="round"/>
<g id="Union_2">
<path fill-rule="evenodd" clip-rule="evenodd" d="M1043.48 386.9L1026.03 376.828V395.199L1026.03 395.199L1015.23 415.499L1032.67 425.571L1043.04 406.104L1043.48 406.36L1043.48 386.9Z" fill="#F0EBE6"/>
<path d="M1026.03 376.828H1025.66C1025.66 376.695 1025.73 376.573 1025.85 376.507C1025.96 376.44 1026.11 376.44 1026.22 376.507L1026.03 376.828ZM1043.48 386.9L1043.66 386.578C1043.78 386.644 1043.85 386.767 1043.85 386.9L1043.48 386.9ZM1026.03 395.199H1026.41C1026.41 395.332 1026.33 395.455 1026.22 395.521C1026.1 395.587 1025.96 395.586 1025.85 395.519L1026.03 395.199ZM1026.03 395.199L1025.71 395.025C1025.75 394.935 1025.84 394.869 1025.93 394.842C1026.03 394.814 1026.13 394.828 1026.22 394.879L1026.03 395.199ZM1015.23 415.499L1015.04 415.821C1014.87 415.721 1014.81 415.502 1014.9 415.325L1015.23 415.499ZM1032.67 425.571L1033 425.745C1032.95 425.834 1032.87 425.9 1032.77 425.928C1032.68 425.956 1032.57 425.943 1032.49 425.892L1032.67 425.571ZM1043.04 406.104L1042.71 405.93C1042.76 405.841 1042.84 405.775 1042.93 405.747C1043.03 405.719 1043.13 405.732 1043.22 405.782L1043.04 406.104ZM1043.48 406.36L1043.85 406.36C1043.85 406.493 1043.78 406.615 1043.66 406.681C1043.55 406.748 1043.41 406.748 1043.29 406.681L1043.48 406.36ZM1026.22 376.507L1043.66 386.578L1043.29 387.221L1025.85 377.149L1026.22 376.507ZM1025.66 395.199V376.828H1026.41V395.199H1025.66ZM1026.22 394.879L1026.22 394.879L1025.85 395.519L1025.85 395.519L1026.22 394.879ZM1014.9 415.325L1025.71 395.025L1026.36 395.373L1015.56 415.674L1014.9 415.325ZM1032.49 425.892L1015.04 415.821L1015.41 415.178L1032.86 425.25L1032.49 425.892ZM1043.36 406.278L1033 425.745L1032.35 425.397L1042.71 405.93L1043.36 406.278ZM1043.29 406.681L1042.85 406.425L1043.22 405.782L1043.66 406.039L1043.29 406.681ZM1043.85 386.9L1043.85 406.36L1043.11 406.36L1043.11 386.9L1043.85 386.9Z" fill="black"/>
</g>
<g id="Group 1282">
<path id="Rectangle 1305_5" d="M1026.31 400.597L1038.2 407.463L1030.83 421.303L1018.94 414.436L1026.31 400.597Z" fill="#B0B8ED" stroke="black" stroke-width="0.888934" stroke-linecap="round" stroke-linejoin="round"/>
<path id="Rectangle 1310" d="M1022.81 407.472L1034.7 414.338L1030.83 421.301L1018.94 414.435L1022.81 407.472Z" fill="#B0B8ED" stroke="black" stroke-width="0.888934" stroke-linecap="round" stroke-linejoin="round"/>
<path id="Rectangle 1311" d="M1022.81 407.473L1026.67 409.662L1022.81 416.625L1018.94 414.436L1022.81 407.473Z" fill="#B0B8ED" stroke="black" stroke-width="0.888934" stroke-linecap="round" stroke-linejoin="round"/>
</g>
<rect id="Rectangle 1308_2" width="17.6476" height="10.5078" transform="matrix(0.866025 0.5 -2.20305e-08 1 1027.11 381.359)" fill="#F0EBE6" stroke="black" stroke-width="0.742229" stroke-linecap="round" stroke-linejoin="round"/>
<rect id="Rectangle 1307_2" width="14.0824" height="6.44055" transform="matrix(0.866025 0.5 -2.20305e-08 1 1028.66 384.298)" fill="#FFB681" stroke="black" stroke-width="0.742229" stroke-linecap="round" stroke-linejoin="round"/>
<g id="Union_3">
<path fill-rule="evenodd" clip-rule="evenodd" d="M1043.48 386.886L1052.28 381.806L1052.28 400.029L1052.28 400.028L1052.28 414.224L1032.67 425.543L1043.48 405.111L1043.48 386.886Z" fill="#F0EBE6"/>
<path d="M1052.28 381.806L1052.09 381.484C1052.21 381.418 1052.35 381.418 1052.46 381.484C1052.58 381.551 1052.65 381.673 1052.65 381.806L1052.28 381.806ZM1043.48 386.886L1043.11 386.886C1043.11 386.753 1043.18 386.631 1043.29 386.565L1043.48 386.886ZM1052.28 400.029L1052.46 400.35C1052.35 400.417 1052.21 400.417 1052.09 400.35C1051.98 400.284 1051.91 400.161 1051.91 400.029L1052.28 400.029ZM1052.28 400.028L1052.09 399.707C1052.21 399.641 1052.35 399.641 1052.46 399.707C1052.58 399.773 1052.65 399.896 1052.65 400.028L1052.28 400.028ZM1052.28 414.224L1052.65 414.224C1052.65 414.356 1052.58 414.479 1052.46 414.545L1052.28 414.224ZM1032.67 425.543L1032.86 425.865C1032.71 425.947 1032.53 425.925 1032.41 425.81C1032.3 425.696 1032.27 425.516 1032.34 425.37L1032.67 425.543ZM1043.48 405.111L1043.85 405.111C1043.85 405.171 1043.83 405.231 1043.81 405.284L1043.48 405.111ZM1052.46 382.127L1043.66 387.207L1043.29 386.565L1052.09 381.484L1052.46 382.127ZM1051.91 400.029L1051.91 381.806L1052.65 381.806L1052.65 400.029L1051.91 400.029ZM1052.09 399.708L1052.09 399.707L1052.46 400.35L1052.46 400.35L1052.09 399.708ZM1052.65 400.028L1052.65 414.224L1051.91 414.224L1051.91 400.028L1052.65 400.028ZM1052.46 414.545L1032.86 425.865L1032.49 425.222L1052.09 413.902L1052.46 414.545ZM1032.34 425.37L1043.15 404.937L1043.81 405.284L1033 425.717L1032.34 425.37ZM1043.85 386.886L1043.85 405.111L1043.11 405.111L1043.11 386.886L1043.85 386.886Z" fill="black"/>
</g>
</g>
</g>
</g>
</g>
<path id="Rectangle 1214" d="M337.473 642.091L673.677 447.983L673.677 420.877L1.26846 420.877L1.26846 447.983L337.473 642.091Z" fill="#5E6FDB" stroke="black" stroke-width="1.11334" stroke-linecap="round" stroke-linejoin="round"/>
<g id="Group 1264">
<g id="Group 1162">
<rect id="Rectangle 1198" x="0.482092" y="0.278336" width="27.5184" height="18.1419" rx="7.9901" transform="matrix(0.866025 -0.5 2.20305e-08 1 422.316 85.3532)" fill="#C4C4C4" stroke="black" stroke-width="1.11334"/>
</g>
<rect id="Rectangle 1211" width="388.215" height="388.215" transform="matrix(0.866025 -0.5 0.866025 0.5 1.49854 420.652)" fill="#B0B8ED" stroke="black" stroke-width="1.11334" stroke-linecap="round" stroke-linejoin="round"/>
<rect id="Rectangle 1215_2" width="311.107" height="20.2429" rx="10.1214" transform="matrix(0.866025 -0.5 0.866025 0.5 142.945 468.808)" fill="black"/>
<g id="Group 1159">
<g id="Group 1135">
<rect id="Rectangle 999" x="0.482092" y="0.278336" width="339.829" height="235.996" rx="14.9407" transform="matrix(0.866025 -0.5 2.20305e-08 1 108.495 206.722)" fill="#FFB681" stroke="black" stroke-width="1.11334" stroke-dasharray="7.41 7.41"/>
<g id="Subtract">
<mask id="path-79-inside-1" fill="white">
<path fill-rule="evenodd" clip-rule="evenodd" d="M147.422 218.103C140.01 222.382 134.001 232.79 134.001 241.349L134.001 447.464C134.001 456.023 140.01 459.492 147.422 455.213L415.844 300.239C423.256 295.96 429.265 285.552 429.265 276.993L429.265 70.8781C429.265 62.3191 423.256 58.8499 415.844 63.1294L147.422 218.103ZM147.423 228.175C145.57 229.245 144.068 231.847 144.068 233.987L144.068 443.201C144.068 445.341 145.57 446.208 147.423 445.138L415.845 290.165C417.698 289.095 419.2 286.493 419.2 284.353L419.2 75.1389C419.2 72.9992 417.698 72.1319 415.845 73.2018L147.423 228.175Z"/>
</mask>
<path fill-rule="evenodd" clip-rule="evenodd" d="M147.422 218.103C140.01 222.382 134.001 232.79 134.001 241.349L134.001 447.464C134.001 456.023 140.01 459.492 147.422 455.213L415.844 300.239C423.256 295.96 429.265 285.552 429.265 276.993L429.265 70.8781C429.265 62.3191 423.256 58.8499 415.844 63.1294L147.422 218.103ZM147.423 228.175C145.57 229.245 144.068 231.847 144.068 233.987L144.068 443.201C144.068 445.341 145.57 446.208 147.423 445.138L415.845 290.165C417.698 289.095 419.2 286.493 419.2 284.353L419.2 75.1389C419.2 72.9992 417.698 72.1319 415.845 73.2018L147.423 228.175Z" fill="white"/>
<path d="M147.422 218.103L147.422 219.216L147.422 218.103ZM147.422 455.213L147.422 454.099L147.422 455.213ZM415.844 300.239L415.844 301.352L415.844 300.239ZM415.844 63.1294L415.844 62.016L415.844 63.1294ZM144.068 233.987L145.032 233.43L144.068 233.987ZM147.423 228.175L147.423 229.289L147.423 228.175ZM144.068 443.201L143.104 443.758L144.068 443.201ZM147.423 445.138L147.423 444.025L147.423 445.138ZM415.845 290.165L415.845 291.278L415.845 290.165ZM419.2 284.353L418.236 284.91L419.2 284.353ZM419.2 75.1389L420.165 74.5823L419.2 75.1389ZM415.845 73.2018L415.845 72.0884L415.845 73.2018ZM134.965 240.792C134.965 232.848 140.542 223.188 147.422 219.216L147.422 216.99C139.477 221.577 133.037 232.732 133.037 241.906L134.965 240.792ZM134.965 446.907L134.965 240.792L133.037 241.906L133.037 448.021L134.965 446.907ZM147.422 454.099C140.542 458.071 134.965 454.851 134.965 446.907L133.037 448.021C133.037 457.194 139.477 460.913 147.422 456.326L147.422 454.099ZM415.844 299.126L147.422 454.099L147.422 456.326L415.844 301.352L415.844 299.126ZM428.301 277.55C428.301 285.494 422.724 295.154 415.844 299.126L415.844 301.352C423.789 296.765 430.229 285.61 430.229 276.436L428.301 277.55ZM428.301 71.4347L428.301 277.55L430.229 276.436L430.229 70.3214L428.301 71.4347ZM415.844 64.2427C422.724 60.2707 428.301 63.4907 428.301 71.4347L430.229 70.3214C430.229 61.1475 423.789 57.4291 415.844 62.016L415.844 64.2427ZM147.422 219.216L415.844 64.2427L415.844 62.016L147.422 216.99L147.422 219.216ZM145.032 233.43C145.032 231.905 146.102 230.051 147.423 229.289L147.423 227.062C145.037 228.439 143.104 231.789 143.104 234.544L145.032 233.43ZM145.032 442.645L145.032 233.43L143.104 234.544L143.104 443.758L145.032 442.645ZM147.423 444.025C146.102 444.788 145.032 444.169 145.032 442.645L143.104 443.758C143.104 446.513 145.037 447.629 147.423 446.252L147.423 444.025ZM415.845 289.051L147.423 444.025L147.423 446.252L415.845 291.278L415.845 289.051ZM418.236 284.91C418.236 286.435 417.166 288.289 415.845 289.051L415.845 291.278C418.231 289.901 420.165 286.551 420.165 283.797L418.236 284.91ZM418.236 75.6956L418.236 284.91L420.165 283.797L420.165 74.5823L418.236 75.6956ZM415.845 74.3151C417.166 73.5527 418.236 74.1707 418.236 75.6956L420.165 74.5823C420.165 71.8276 418.231 70.7111 415.845 72.0884L415.845 74.3151ZM147.423 229.289L415.845 74.3151L415.845 72.0884L147.423 227.062L147.423 229.289Z" fill="black" mask="url(#path-79-inside-1)"/>
</g>
<path id="$ toit run main.toit [11.21] Belt started .." d="M185.342 275.132L184.535 275.598L184.535 273.734L182.915 274.669L182.915 273.737L184.535 272.802L184.535 267.196L183.722 267.665L183.722 266.733L184.535 266.264L184.535 261.597L182.915 262.532L182.915 261.594L184.535 260.659L184.535 258.794L185.342 258.328L185.342 260.192L186.962 259.257L186.962 260.196L185.342 261.131L185.342 265.798L186.149 265.332L186.149 266.264L185.342 266.73L185.342 272.336L186.962 271.4L186.962 272.332L185.342 273.268L185.342 275.132ZM182.915 263.464L182.108 263.931L182.108 262.998L182.915 262.532L182.915 263.464ZM187.769 260.662L186.962 261.128L186.962 260.196L187.769 259.73L187.769 260.662ZM182.108 266.733L181.3 267.199L181.3 264.397L182.108 263.931L182.108 266.733ZM188.577 262.066L187.769 262.532L187.769 260.662L188.577 260.196L188.577 262.066ZM183.722 266.733L182.108 267.665L182.108 266.733L183.722 265.801L183.722 266.733ZM187.769 266.267L186.149 267.203L186.149 266.264L187.769 265.329L187.769 266.267ZM188.577 269.536L187.769 270.002L187.769 266.267L188.577 265.801L188.577 269.536ZM182.108 273.271L181.3 273.737L181.3 271.866L182.108 271.4L182.108 273.271ZM182.915 273.737L182.108 274.203L182.108 273.271L182.915 272.805L182.915 273.737ZM187.769 270.934L186.962 271.4L186.962 270.468L187.769 270.002L187.769 270.934ZM195.853 266.267L195.046 266.733L195.046 259.264L193.835 259.963L193.835 259.031L195.046 258.331L195.046 255.529L195.853 255.063L195.853 257.865L197.876 256.697L197.876 257.629L195.853 258.797L195.853 266.267ZM197.876 266.031L195.853 267.199L195.853 266.267L197.876 265.099L197.876 266.031ZM203.533 254.364L200.298 256.231L200.298 255.299L203.533 253.431L203.533 254.364ZM200.298 257.163L199.491 257.629L199.491 256.697L200.298 256.231L200.298 257.163ZM204.345 254.826L203.533 255.296L203.533 254.364L204.345 253.894L204.345 254.826ZM199.491 263.235L198.684 263.701L198.684 258.095L199.491 257.629L199.491 263.235ZM205.153 259.966L204.345 260.432L204.345 254.826L205.153 254.36L205.153 259.966ZM200.298 263.701L199.491 264.167L199.491 263.235L200.298 262.769L200.298 263.701ZM204.345 261.364L203.533 261.833L203.533 260.901L204.345 260.432L204.345 261.364ZM203.533 262.765L200.298 264.633L200.298 263.701L203.533 261.833L203.533 262.765ZM207.585 249.687L206.778 250.153L206.778 248.289L207.585 247.823L207.585 249.687ZM207.585 260.426L206.778 260.892L206.778 251.558L207.585 251.092L207.585 260.426ZM210.825 257.623L210.018 258.089L210.018 250.619L208.807 251.318L208.807 250.386L210.018 249.687L210.018 246.884L210.825 246.418L210.825 249.221L212.849 248.053L212.849 248.985L210.825 250.153L210.825 257.623ZM212.849 257.387L210.825 258.555L210.825 257.623L212.849 256.454L212.849 257.387ZM218.909 253.888L218.102 254.354L218.102 245.02L218.909 244.554L218.909 246.418L219.716 245.952L219.716 246.884L218.909 247.35L218.909 253.888ZM222.143 243.619L220.523 244.554L220.523 243.622L222.143 242.686L222.143 243.619ZM220.523 245.486L219.716 245.952L219.716 245.02L220.523 244.554L220.523 245.486ZM224.173 248.985L223.365 249.451L223.365 241.981L224.173 241.515L224.173 248.985ZM229.834 247.58L229.027 248.046L229.027 246.182L228.214 246.651L228.214 245.719L229.027 245.25L229.027 238.712L229.834 238.246L229.834 247.58ZM224.98 249.451L224.173 249.917L224.173 248.985L224.98 248.519L224.98 249.451ZM228.214 247.583L227.407 248.049L227.407 247.117L228.214 246.651L228.214 247.583ZM227.407 248.981L224.98 250.383L224.98 249.451L227.407 248.049L227.407 248.981ZM232.267 246.176L231.46 246.642L231.46 237.308L232.267 236.842L232.267 238.706L233.074 238.24L233.074 239.172L232.267 239.638L232.267 246.176ZM236.309 235.44L233.882 236.842L233.882 235.909L236.309 234.508L236.309 235.44ZM233.882 237.774L233.074 238.24L233.074 237.308L233.882 236.842L233.882 237.774ZM237.122 235.903L236.309 236.372L236.309 235.44L237.122 234.971L237.122 235.903ZM237.929 242.907L237.122 243.373L237.122 235.903L237.929 235.437L237.929 242.907ZM244.409 239.165L243.602 239.632L243.602 230.298L244.409 229.832L244.409 231.696L245.216 231.23L245.216 232.162L244.409 232.628L244.409 239.165ZM247.643 228.896L246.023 229.832L246.023 228.899L247.643 227.964L247.643 228.896ZM252.498 226.093L250.071 227.495L250.071 226.563L252.498 225.161L252.498 226.093ZM246.023 230.764L245.216 231.23L245.216 230.298L246.023 229.832L246.023 230.764ZM248.451 229.362L247.643 229.828L247.643 228.896L248.451 228.43L248.451 229.362ZM250.071 228.427L249.263 228.893L249.263 227.961L250.071 227.495L250.071 228.427ZM253.305 226.56L252.498 227.026L252.498 226.093L253.305 225.627L253.305 226.56ZM249.263 236.363L248.451 236.832L248.451 229.362L249.263 228.893L249.263 236.363ZM254.112 233.563L253.305 234.029L253.305 226.56L254.112 226.093L254.112 233.563ZM260.57 221.433L257.336 223.3L257.336 222.368L260.57 220.501L260.57 221.433ZM257.336 224.232L256.529 224.698L256.529 223.766L257.336 223.3L257.336 224.232ZM261.383 221.896L260.57 222.365L260.57 221.433L261.383 220.964L261.383 221.896ZM256.529 225.631L255.721 226.097L255.721 225.165L256.529 224.698L256.529 225.631ZM262.19 227.967L261.383 228.433L261.383 227.501L260.57 227.97L260.57 227.038L261.383 226.569L261.383 223.766L260.57 224.236L260.57 223.297L261.383 222.828L261.383 221.896L262.19 221.43L262.19 227.967ZM260.57 225.168L257.336 227.035L257.336 226.103L260.57 224.236L260.57 225.168ZM257.336 227.967L256.529 228.433L256.529 227.501L257.336 227.035L257.336 227.967ZM256.529 230.304L255.721 230.77L255.721 228.899L256.529 228.433L256.529 230.304ZM257.336 230.77L256.529 231.236L256.529 230.304L257.336 229.838L257.336 230.77ZM260.57 228.903L259.763 229.369L259.763 228.437L260.57 227.97L260.57 228.903ZM259.763 230.301L257.336 231.702L257.336 230.77L259.763 229.369L259.763 230.301ZM262.998 228.433L262.19 228.899L262.19 227.967L262.998 227.501L262.998 228.433ZM265.021 216.526L264.214 216.992L264.214 215.128L265.021 214.662L265.021 216.526ZM265.021 227.265L264.214 227.731L264.214 218.397L265.021 217.931L265.021 227.265ZM267.454 225.86L266.647 226.326L266.647 216.992L267.454 216.526L267.454 218.391L268.261 217.925L268.261 218.857L267.454 219.323L267.454 225.86ZM271.496 215.125L269.068 216.526L269.068 215.594L271.496 214.193L271.496 215.125ZM269.068 217.459L268.261 217.925L268.261 216.992L269.068 216.526L269.068 217.459ZM272.308 215.588L271.496 216.057L271.496 215.125L272.308 214.656L272.308 215.588ZM273.116 222.592L272.308 223.058L272.308 215.588L273.116 215.122L273.116 222.592ZM275.15 221.417L274.343 221.883L274.343 220.019L275.15 219.553L275.15 221.417ZM278.39 218.614L277.583 219.08L277.583 211.61L276.372 212.31L276.372 211.377L277.583 210.678L277.583 207.876L278.39 207.41L278.39 210.212L280.414 209.044L280.414 209.976L278.39 211.144L278.39 218.614ZM280.414 218.378L278.39 219.546L278.39 218.614L280.414 217.446L280.414 218.378ZM286.07 206.71L282.836 208.578L282.836 207.646L286.07 205.778L286.07 206.71ZM282.836 209.51L282.029 209.976L282.029 209.044L282.836 208.578L282.836 209.51ZM286.883 207.173L286.07 207.643L286.07 206.71L286.883 206.241L286.883 207.173ZM282.029 215.582L281.221 216.048L281.221 210.442L282.029 209.976L282.029 215.582ZM287.69 212.313L286.883 212.779L286.883 207.173L287.69 206.707L287.69 212.313ZM282.836 216.048L282.029 216.514L282.029 215.582L282.836 215.115L282.836 216.048ZM286.883 213.711L286.07 214.18L286.07 213.248L286.883 212.779L286.883 213.711ZM286.07 215.112L282.836 216.98L282.836 216.048L286.07 214.18L286.07 215.112ZM290.123 202.034L289.316 202.5L289.316 200.636L290.123 200.17L290.123 202.034ZM290.123 212.772L289.316 213.238L289.316 203.904L290.123 203.438L290.123 212.772ZM293.363 209.97L292.556 210.436L292.556 202.966L291.345 203.665L291.345 202.733L292.556 202.034L292.556 199.231L293.363 198.765L293.363 201.568L295.387 200.399L295.387 201.332L293.363 202.5L293.363 209.97ZM295.387 209.733L293.363 210.902L293.363 209.97L295.387 208.801L295.387 209.733ZM187.769 313.601L185.348 314.999L185.348 298.189L187.769 296.791L187.769 297.73L186.155 298.662L186.155 313.595L187.769 312.663L187.769 313.601ZM191.822 307.526L191.009 307.996L191.009 297.723L188.991 298.888L188.991 297.956L191.009 296.791L191.009 294.92L191.822 294.451L191.822 307.526ZM195.869 305.19L195.057 305.659L195.057 295.387L193.039 296.552L193.039 295.62L195.057 294.454L195.057 292.584L195.869 292.115L195.869 305.19ZM198.297 303.788L197.489 304.254L197.489 302.39L198.297 301.924L198.297 303.788ZM205.584 287.444L201.537 289.781L201.537 288.843L205.584 286.506L205.584 287.444ZM201.537 290.713L200.729 291.179L200.729 290.247L201.537 289.781L201.537 290.713ZM206.391 287.91L205.584 288.376L205.584 287.444L206.391 286.978L206.391 287.91ZM200.729 293.05L199.922 293.516L199.922 291.645L200.729 291.179L200.729 293.05ZM207.198 290.247L206.391 290.713L206.391 287.91L207.198 287.444L207.198 290.247ZM206.391 291.645L205.584 292.111L205.584 291.179L206.391 290.713L206.391 291.645ZM205.584 293.043L204.771 293.513L204.771 292.581L205.584 292.111L205.584 293.043ZM204.771 294.451L203.964 294.917L203.964 293.979L204.771 293.513L204.771 294.451ZM203.964 295.849L203.157 296.315L203.157 295.383L203.964 294.917L203.964 295.849ZM203.157 297.248L202.344 297.717L202.344 296.785L203.157 296.315L203.157 297.248ZM202.344 298.655L201.537 299.121L201.537 298.183L202.344 297.717L202.344 298.655ZM201.537 300.054L200.729 300.52L200.729 299.587L201.537 299.121L201.537 300.054ZM207.198 298.649L199.922 302.85L199.922 300.986L200.729 300.52L200.729 301.452L207.198 297.717L207.198 298.649ZM211.24 296.315L210.427 296.785L210.427 286.512L208.409 287.677L208.409 286.745L210.427 285.58L210.427 283.709L211.24 283.24L211.24 296.315ZM215.282 297.717L212.86 299.115L212.86 298.177L214.475 297.244L214.475 282.311L212.86 283.243L212.86 282.305L215.282 280.907L215.282 297.717ZM227.424 286.972L220.955 290.707L220.955 277.632L226.616 274.363L226.616 275.301L221.762 278.104L221.762 282.771L226.616 279.968L226.616 279.036L227.424 278.57L227.424 280.434L221.762 283.703L221.762 289.309L227.424 286.04L227.424 286.972ZM227.424 275.767L226.616 276.233L226.616 275.301L227.424 274.835L227.424 275.767ZM228.231 278.104L227.424 278.57L227.424 275.767L228.231 275.301L228.231 278.104ZM228.231 280.907L227.424 281.373L227.424 280.434L228.231 279.968L228.231 280.907ZM229.038 284.176L228.231 284.642L228.231 280.907L229.038 280.441L229.038 284.176ZM228.231 285.574L227.424 286.04L227.424 285.108L228.231 284.642L228.231 285.574ZM235.513 273.9L232.278 275.767L232.278 274.835L235.513 272.968L235.513 273.9ZM232.278 276.699L231.471 277.165L231.471 276.233L232.278 275.767L232.278 276.699ZM236.325 274.363L235.513 274.832L235.513 273.9L236.325 273.431L236.325 274.363ZM231.471 282.771L230.664 283.237L230.664 277.632L231.471 277.165L231.471 279.036L236.325 276.233L236.325 274.363L237.133 273.897L237.133 276.699L231.471 279.968L231.471 282.771ZM237.133 279.502L236.325 279.968L236.325 278.564L237.133 278.098L237.133 279.502ZM232.278 283.237L231.471 283.703L231.471 282.771L232.278 282.305L232.278 283.237ZM236.325 280.9L235.513 281.37L235.513 280.437L236.325 279.968L236.325 280.9ZM235.513 282.302L232.278 284.169L232.278 283.237L235.513 281.37L235.513 282.302ZM239.565 279.962L238.758 280.428L238.758 267.353L239.565 266.887L239.565 279.962ZM242.805 277.159L241.998 277.625L241.998 270.155L240.787 270.855L240.787 269.922L241.998 269.223L241.998 266.421L242.805 265.954L242.805 268.757L244.829 267.589L244.829 268.521L242.805 269.689L242.805 277.159ZM244.829 276.923L242.805 278.091L242.805 277.159L244.829 275.991L244.829 276.923ZM251.696 264.556L251.696 263.624L254.931 261.757L254.931 262.689L251.696 264.556ZM251.696 265.488L250.889 265.954L250.889 265.022L251.696 264.556L251.696 265.488ZM254.931 263.621L254.931 262.689L255.743 262.22L255.743 263.152L254.931 263.621ZM250.889 267.825L250.082 268.291L250.082 266.421L250.889 265.954L250.889 267.825ZM256.551 262.686L256.551 263.618L255.743 264.084L255.743 263.152L256.551 262.686ZM251.696 268.757L251.696 268.291L250.889 268.757L250.889 267.825L251.696 267.359L251.696 267.825L254.931 265.958L254.931 266.424L255.743 265.954L255.743 266.887L254.931 267.356L254.931 266.89L251.696 268.757ZM256.551 266.421L256.551 268.291L255.743 268.757L255.743 266.887L256.551 266.421ZM250.082 272.026L250.082 271.094L250.889 270.628L250.889 271.56L250.082 272.026ZM250.889 272.492L250.889 271.56L251.696 271.094L251.696 272.026L250.889 272.492ZM255.743 269.689L254.931 270.159L254.931 269.226L255.743 268.757L255.743 269.689ZM254.931 271.091L251.696 272.958L251.696 272.026L254.931 270.159L254.931 271.091ZM259.393 267.583L258.585 268.049L258.585 260.579L257.375 261.278L257.375 260.346L258.585 259.647L258.585 256.844L259.393 256.378L259.393 259.181L261.416 258.012L261.416 258.944L259.393 260.113L259.393 267.583ZM261.416 267.346L259.393 268.515L259.393 267.583L261.416 266.414L261.416 267.346ZM267.072 255.679L263.838 257.546L263.838 256.614L267.072 254.747L267.072 255.679ZM263.838 258.478L263.031 258.944L263.031 258.012L263.838 257.546L263.838 258.478ZM267.885 256.142L267.072 256.611L267.072 255.679L267.885 255.21L267.885 256.142ZM263.031 259.877L262.223 260.343L262.223 259.41L263.031 258.944L263.031 259.877ZM268.692 262.213L267.885 262.679L267.885 261.747L267.072 262.216L267.072 261.284L267.885 260.815L267.885 258.012L267.072 258.482L267.072 257.543L267.885 257.074L267.885 256.142L268.692 255.676L268.692 262.213ZM267.072 259.414L263.838 261.281L263.838 260.349L267.072 258.482L267.072 259.414ZM263.838 262.213L263.031 262.679L263.031 261.747L263.838 261.281L263.838 262.213ZM263.031 264.55L262.223 265.016L262.223 263.145L263.031 262.679L263.031 264.55ZM263.838 265.016L263.031 265.482L263.031 264.55L263.838 264.084L263.838 265.016ZM267.072 263.149L266.265 263.615L266.265 262.682L267.072 262.216L267.072 263.149ZM266.265 264.547L263.838 265.948L263.838 265.016L266.265 263.615L266.265 264.547ZM269.5 262.679L268.692 263.145L268.692 262.213L269.5 261.747L269.5 262.679ZM271.523 261.511L270.716 261.977L270.716 252.643L271.523 252.177L271.523 254.041L272.331 253.575L272.331 254.507L271.523 254.973L271.523 261.511ZM274.758 251.242L273.138 252.177L273.138 251.245L274.758 250.31L274.758 251.242ZM273.138 253.109L272.331 253.575L272.331 252.643L273.138 252.177L273.138 253.109ZM277.594 257.074L276.787 257.54L276.787 250.07L275.576 250.769L275.576 249.837L276.787 249.138L276.787 246.335L277.594 245.869L277.594 248.672L279.618 247.504L279.618 248.436L277.594 249.604L277.594 257.074ZM279.618 256.838L277.594 258.006L277.594 257.074L279.618 255.905L279.618 256.838ZM285.274 245.17L282.04 247.038L282.04 246.105L285.274 244.238L285.274 245.17ZM282.04 247.97L281.232 248.436L281.232 247.504L282.04 247.038L282.04 247.97ZM286.087 245.633L285.274 246.102L285.274 245.17L286.087 244.701L286.087 245.633ZM281.232 254.041L280.425 254.507L280.425 248.902L281.232 248.436L281.232 250.306L286.087 247.504L286.087 245.633L286.894 245.167L286.894 247.97L281.232 251.238L281.232 254.041ZM286.894 250.772L286.087 251.238L286.087 249.834L286.894 249.368L286.894 250.772ZM282.04 254.507L281.232 254.973L281.232 254.041L282.04 253.575L282.04 254.507ZM286.087 252.171L285.274 252.64L285.274 251.708L286.087 251.238L286.087 252.171ZM285.274 253.572L282.04 255.439L282.04 254.507L285.274 252.64L285.274 253.572ZM294.989 247.963L294.181 248.429L294.181 246.565L293.369 247.034L293.369 246.102L294.181 245.633L294.181 241.892L293.369 242.361L293.369 241.429L294.181 240.96L294.181 235.354L294.989 234.888L294.989 247.963ZM292.561 240.963L290.134 242.364L290.134 241.432L292.561 240.031L292.561 240.963ZM290.134 243.296L289.327 243.762L289.327 242.83L290.134 242.364L290.134 243.296ZM293.369 241.429L292.561 241.895L292.561 240.963L293.369 240.497L293.369 241.429ZM289.327 249.368L288.52 249.834L288.52 244.228L289.327 243.762L289.327 249.368ZM290.134 249.834L289.327 250.3L289.327 249.368L290.134 248.902L290.134 249.834ZM293.369 247.966L292.561 248.433L292.561 247.5L293.369 247.034L293.369 247.966ZM292.561 249.365L290.134 250.766L290.134 249.834L292.561 248.433L292.561 249.365ZM301.469 244.222L300.661 244.688L300.661 242.824L301.469 242.358L301.469 244.222ZM303.901 242.817L303.094 243.284L303.094 241.419L303.901 240.953L303.901 242.817Z" fill="black"/>
</g>
<g id="Group 1155">
<rect id="Rectangle 1135" width="229.8" height="81.5741" transform="matrix(0.866025 -0.5 0.866025 0.5 199.857 485.612)" fill="#F0EBE6" stroke="black" stroke-width="1.11334" stroke-linecap="round" stroke-linejoin="round"/>
<rect id="Rectangle 1134" width="229.8" height="81.5741" transform="matrix(0.866025 -0.5 0.866025 0.5 199.857 474.817)" stroke="black" stroke-width="1.11334" stroke-linecap="round" stroke-linejoin="round"/>
<g id="Group 1153">
<rect id="Rectangle 1135_2" width="66.652" height="10.4455" transform="matrix(0.866025 -0.5 0.866025 0.5 323.487 466.113)" fill="#FFB681" stroke="black" stroke-width="1.11334" stroke-linecap="round" stroke-linejoin="round"/>
<rect id="Rectangle 1136" width="10.4455" height="10.4455" transform="matrix(0.866025 -0.5 0.866025 0.5 310.994 473.325)" fill="#FFB681" stroke="black" stroke-width="1.11334" stroke-linecap="round" stroke-linejoin="round"/>
<rect id="Rectangle 1137" width="10.4455" height="10.4455" transform="matrix(0.866025 -0.5 0.866025 0.5 278.257 477.801)" fill="#FFB681" stroke="black" stroke-width="1.11334" stroke-linecap="round" stroke-linejoin="round"/>
<rect id="Rectangle 1138" width="10.4455" height="10.4455" transform="matrix(0.866025 -0.5 0.866025 0.5 261.027 473.325)" fill="#FFB681" stroke="black" stroke-width="1.11334" stroke-linecap="round" stroke-linejoin="round"/>
<rect id="Rectangle 1139" width="10.4455" height="10.4455" transform="matrix(0.866025 -0.5 0.866025 0.5 254.132 462.88)" fill="#FFB681" stroke="black" stroke-width="1.11334" stroke-linecap="round" stroke-linejoin="round"/>
<rect id="Rectangle 1140" width="10.4455" height="7.95845" transform="matrix(0.866025 -0.5 0.866025 0.5 243.795 456.911)" fill="#FFB681" stroke="black" stroke-width="1.11334" stroke-linecap="round" stroke-linejoin="round"/>
<rect id="Rectangle 1141" width="19.8961" height="7.95845" transform="matrix(0.866025 -0.5 0.866025 0.5 223.119 468.848)" fill="#FFB681" stroke="black" stroke-width="1.11334" stroke-linecap="round" stroke-linejoin="round"/>
<rect id="Rectangle 1142" width="10.4455" height="7.95845" transform="matrix(0.866025 -0.5 0.866025 0.5 293.764 428.061)" fill="#FFB681" stroke="black" stroke-width="1.11334" stroke-linecap="round" stroke-linejoin="round"/>
<rect id="Rectangle 1143" width="10.4455" height="7.95845" transform="matrix(0.866025 -0.5 0.866025 0.5 256.288 449.698)" fill="#FFB681" stroke="black" stroke-width="1.11334" stroke-linecap="round" stroke-linejoin="round"/>
<rect id="Rectangle 1144" width="10.4455" height="7.95845" transform="matrix(0.866025 -0.5 0.866025 0.5 306.256 420.849)" fill="#FFB681" stroke="black" stroke-width="1.11334" stroke-linecap="round" stroke-linejoin="round"/>
<rect id="Rectangle 1145" width="10.4455" height="7.95845" transform="matrix(0.866025 -0.5 0.866025 0.5 343.733 399.212)" fill="#FFB681" stroke="black" stroke-width="1.11334" stroke-linecap="round" stroke-linejoin="round"/>
<rect id="Rectangle 1146" width="10.4455" height="7.95845" transform="matrix(0.866025 -0.5 0.866025 0.5 268.78 442.486)" fill="#FFB681" stroke="black" stroke-width="1.11334" stroke-linecap="round" stroke-linejoin="round"/>
<rect id="Rectangle 1147" width="10.4455" height="7.95845" transform="matrix(0.866025 -0.5 0.866025 0.5 318.749 413.637)" fill="#FFB681" stroke="black" stroke-width="1.11334" stroke-linecap="round" stroke-linejoin="round"/>
<rect id="Rectangle 1148" width="10.4455" height="7.95845" transform="matrix(0.866025 -0.5 0.866025 0.5 356.225 392)" fill="#FFB681" stroke="black" stroke-width="1.11334" stroke-linecap="round" stroke-linejoin="round"/>
<rect id="Rectangle 1149" width="10.4455" height="7.95845" transform="matrix(0.866025 -0.5 0.866025 0.5 281.272 435.274)" fill="#FFB681" stroke="black" stroke-width="1.11334" stroke-linecap="round" stroke-linejoin="round"/>
<rect id="Rectangle 1150" width="10.4455" height="7.95845" transform="matrix(0.866025 -0.5 0.866025 0.5 331.241 406.424)" fill="#FFB681" stroke="black" stroke-width="1.11334" stroke-linecap="round" stroke-linejoin="round"/>
<rect id="Rectangle 1151" width="19.8961" height="7.95845" transform="matrix(0.866025 -0.5 0.866025 0.5 368.717 384.787)" fill="#FFB681" stroke="black" stroke-width="1.11334" stroke-linecap="round" stroke-linejoin="round"/>
<rect id="Rectangle 1191" width="14.9728" height="65.6572" transform="matrix(0.866025 -0.5 0.866025 0.5 389.394 372.85)" fill="#FFB681" stroke="black" stroke-width="1.11334" stroke-linecap="round" stroke-linejoin="round"/>
<rect id="Rectangle 1193" width="10.4455" height="65.6572" transform="matrix(0.866025 -0.5 0.866025 0.5 210.629 476.062)" fill="#FFB681" stroke="black" stroke-width="1.11334" stroke-linecap="round" stroke-linejoin="round"/>
<rect id="Rectangle 1152" width="19.8961" height="10.4455" transform="matrix(0.866025 -0.5 0.866025 0.5 233.457 474.817)" fill="#FFB681" stroke="black" stroke-width="1.11334" stroke-linecap="round" stroke-linejoin="round"/>
<rect id="Rectangle 1153" width="18.9013" height="10.4455" transform="matrix(0.866025 -0.5 0.866025 0.5 258.441 489.242)" fill="#FFB681" stroke="black" stroke-width="1.11334" stroke-linecap="round" stroke-linejoin="round"/>
<rect id="Rectangle 1154" width="13.4299" height="10.4455" transform="matrix(0.866025 -0.5 0.866025 0.5 245.95 482.03)" fill="#FFB681" stroke="black" stroke-width="1.11334" stroke-linecap="round" stroke-linejoin="round"/>
<rect id="Rectangle 1155" width="10.4455" height="10.4455" transform="matrix(0.866025 -0.5 0.866025 0.5 315.733 456.165)" fill="#FFB681" stroke="black" stroke-width="1.11334" stroke-linecap="round" stroke-linejoin="round"/>
<rect id="Rectangle 1156" width="10.4455" height="10.4455" transform="matrix(0.866025 -0.5 0.866025 0.5 298.502 451.688)" fill="#FFB681" stroke="black" stroke-width="1.11334" stroke-linecap="round" stroke-linejoin="round"/>
<rect id="Rectangle 1157" width="10.4455" height="10.4455" transform="matrix(0.866025 -0.5 0.866025 0.5 291.61 441.243)" fill="#FFB681" stroke="black" stroke-width="1.11334" stroke-linecap="round" stroke-linejoin="round"/>
<rect id="Rectangle 1158" width="10.4455" height="10.4455" transform="matrix(0.866025 -0.5 0.866025 0.5 365.701 427.315)" fill="#FFB681" stroke="black" stroke-width="1.11334" stroke-linecap="round" stroke-linejoin="round"/>
<rect id="Rectangle 1159" width="10.4455" height="10.4455" transform="matrix(0.866025 -0.5 0.866025 0.5 348.471 422.839)" fill="#FFB681" stroke="black" stroke-width="1.11334" stroke-linecap="round" stroke-linejoin="round"/>
<rect id="Rectangle 1160" width="10.4455" height="10.4455" transform="matrix(0.866025 -0.5 0.866025 0.5 341.58 412.393)" fill="#FFB681" stroke="black" stroke-width="1.11334" stroke-linecap="round" stroke-linejoin="round"/>
<rect id="Rectangle 1161" width="10.4455" height="10.4455" transform="matrix(0.866025 -0.5 0.866025 0.5 290.749 470.589)" fill="#FFB681" stroke="black" stroke-width="1.11334" stroke-linecap="round" stroke-linejoin="round"/>
<rect id="Rectangle 1162" width="10.4455" height="10.4455" transform="matrix(0.866025 -0.5 0.866025 0.5 273.518 466.113)" fill="#FFB681" stroke="black" stroke-width="1.11334" stroke-linecap="round" stroke-linejoin="round"/>
<rect id="Rectangle 1163" width="10.4455" height="10.4455" transform="matrix(0.866025 -0.5 0.866025 0.5 266.626 455.668)" fill="#FFB681" stroke="black" stroke-width="1.11334" stroke-linecap="round" stroke-linejoin="round"/>
<rect id="Rectangle 1164" width="10.4455" height="10.4455" transform="matrix(0.866025 -0.5 0.866025 0.5 328.226 448.952)" fill="#FFB681" stroke="black" stroke-width="1.11334" stroke-linecap="round" stroke-linejoin="round"/>
<rect id="Rectangle 1165" width="10.4455" height="10.4455" transform="matrix(0.866025 -0.5 0.866025 0.5 310.994 444.476)" fill="#FFB681" stroke="black" stroke-width="1.11334" stroke-linecap="round" stroke-linejoin="round"/>
<rect id="Rectangle 1166" width="10.4455" height="10.4455" transform="matrix(0.866025 -0.5 0.866025 0.5 304.103 434.03)" fill="#FFB681" stroke="black" stroke-width="1.11334" stroke-linecap="round" stroke-linejoin="round"/>
<rect id="Rectangle 1167" width="10.4455" height="10.4455" transform="matrix(0.866025 -0.5 0.866025 0.5 378.194 420.103)" fill="#FFB681" stroke="black" stroke-width="1.11334" stroke-linecap="round" stroke-linejoin="round"/>
<rect id="Rectangle 1168" width="10.4455" height="10.4455" transform="matrix(0.866025 -0.5 0.866025 0.5 360.963 415.627)" fill="#FFB681" stroke="black" stroke-width="1.11334" stroke-linecap="round" stroke-linejoin="round"/>
<rect id="Rectangle 1169" width="10.4455" height="10.4455" transform="matrix(0.866025 -0.5 0.866025 0.5 354.071 405.181)" fill="#FFB681" stroke="black" stroke-width="1.11334" stroke-linecap="round" stroke-linejoin="round"/>
<rect id="Rectangle 1170" width="10.4455" height="10.4455" transform="matrix(0.866025 -0.5 0.866025 0.5 303.241 463.377)" fill="#FFB681" stroke="black" stroke-width="1.11334" stroke-linecap="round" stroke-linejoin="round"/>
<rect id="Rectangle 1171" width="10.4455" height="10.4455" transform="matrix(0.866025 -0.5 0.866025 0.5 286.01 458.9)" fill="#FFB681" stroke="black" stroke-width="1.11334" stroke-linecap="round" stroke-linejoin="round"/>
<rect id="Rectangle 1172" width="10.4455" height="10.4455" transform="matrix(0.866025 -0.5 0.866025 0.5 279.119 448.455)" fill="#FFB681" stroke="black" stroke-width="1.11334" stroke-linecap="round" stroke-linejoin="round"/>
<rect id="Rectangle 1173" width="10.4455" height="10.4455" transform="matrix(0.866025 -0.5 0.866025 0.5 353.209 434.527)" fill="#FFB681" stroke="black" stroke-width="1.11334" stroke-linecap="round" stroke-linejoin="round"/>
<rect id="Rectangle 1174" width="10.4455" height="10.4455" transform="matrix(0.866025 -0.5 0.866025 0.5 335.979 430.051)" fill="#FFB681" stroke="black" stroke-width="1.11334" stroke-linecap="round" stroke-linejoin="round"/>
<rect id="Rectangle 1175" width="10.4455" height="10.4455" transform="matrix(0.866025 -0.5 0.866025 0.5 329.087 419.605)" fill="#FFB681" stroke="black" stroke-width="1.11334" stroke-linecap="round" stroke-linejoin="round"/>
<rect id="Rectangle 1176" width="10.4455" height="10.4455" transform="matrix(0.866025 -0.5 0.866025 0.5 340.718 441.74)" fill="#FFB681" stroke="black" stroke-width="1.11334" stroke-linecap="round" stroke-linejoin="round"/>
<rect id="Rectangle 1177" width="10.4455" height="10.4455" transform="matrix(0.866025 -0.5 0.866025 0.5 323.487 437.263)" fill="#FFB681" stroke="black" stroke-width="1.11334" stroke-linecap="round" stroke-linejoin="round"/>
<rect id="Rectangle 1178" width="10.4455" height="10.4455" transform="matrix(0.866025 -0.5 0.866025 0.5 316.594 426.818)" fill="#FFB681" stroke="black" stroke-width="1.11334" stroke-linecap="round" stroke-linejoin="round"/>
<rect id="Rectangle 1179" width="10.4455" height="10.4455" transform="matrix(0.866025 -0.5 0.866025 0.5 390.686 412.891)" fill="#FFB681" stroke="black" stroke-width="1.11334" stroke-linecap="round" stroke-linejoin="round"/>
<rect id="Rectangle 1180" width="10.4455" height="10.4455" transform="matrix(0.866025 -0.5 0.866025 0.5 373.456 408.414)" fill="#FFB681" stroke="black" stroke-width="1.11334" stroke-linecap="round" stroke-linejoin="round"/>
<rect id="Rectangle 1181" width="10.4455" height="10.4455" transform="matrix(0.866025 -0.5 0.866025 0.5 366.563 397.969)" fill="#FFB681" stroke="black" stroke-width="1.11334" stroke-linecap="round" stroke-linejoin="round"/>
<rect id="Rectangle 1182" width="10.4455" height="10.4455" transform="matrix(0.866025 -0.5 0.866025 0.5 385.948 401.202)" fill="#FFB681" stroke="black" stroke-width="1.11334" stroke-linecap="round" stroke-linejoin="round"/>
<g id="Union_4">
<path fill-rule="evenodd" clip-rule="evenodd" d="M396.286 380.808L379.056 390.756L388.102 395.979L394.994 391.999L407.486 399.211L417.825 393.243L404.116 385.328L404.115 385.328L396.286 380.808Z" fill="#FFB681"/>
<path d="M379.056 390.756L378.574 390.478C378.307 390.631 378.307 390.881 378.574 391.034L379.056 390.756ZM396.286 380.808L396.768 380.53C396.502 380.376 396.07 380.376 395.804 380.53L396.286 380.808ZM388.102 395.979L387.62 396.257C387.747 396.331 387.921 396.372 388.102 396.372C388.283 396.372 388.456 396.331 388.584 396.257L388.102 395.979ZM394.994 391.999L395.476 391.721C395.349 391.647 395.175 391.606 394.994 391.606C394.813 391.606 394.64 391.647 394.512 391.721L394.994 391.999ZM407.486 399.211L407.004 399.49C407.27 399.644 407.702 399.644 407.968 399.49L407.486 399.211ZM417.825 393.243L418.307 393.521C418.435 393.447 418.506 393.347 418.506 393.243C418.506 393.138 418.435 393.038 418.307 392.964L417.825 393.243ZM404.116 385.328L404.598 385.049C404.47 384.976 404.296 384.934 404.116 384.934C403.935 384.934 403.761 384.976 403.634 385.049L404.116 385.328ZM404.115 385.328L403.633 385.606C403.761 385.68 403.934 385.722 404.115 385.722C404.296 385.722 404.469 385.68 404.597 385.606L404.115 385.328ZM379.538 391.034L396.768 381.086L395.804 380.53L378.574 390.478L379.538 391.034ZM388.584 395.7L379.538 390.478L378.574 391.034L387.62 396.257L388.584 395.7ZM394.512 391.721L387.62 395.7L388.584 396.257L395.476 392.278L394.512 391.721ZM407.968 398.933L395.476 391.721L394.512 392.278L407.004 399.49L407.968 398.933ZM417.342 392.964L407.004 398.933L407.968 399.49L418.307 393.521L417.342 392.964ZM403.634 385.606L417.342 393.521L418.307 392.964L404.598 385.049L403.634 385.606ZM404.597 385.606L404.598 385.606L403.634 385.049L403.633 385.05L404.597 385.606ZM395.804 381.086L403.633 385.606L404.597 385.05L396.768 380.53L395.804 381.086Z" fill="black"/>
</g>
<rect id="Rectangle 1183" width="20.8909" height="10.4455" transform="matrix(0.866025 -0.5 0.866025 0.5 403.178 405.678)" fill="#FFB681" stroke="black" stroke-width="1.11334" stroke-linecap="round" stroke-linejoin="round"/>
<rect id="Rectangle 1184" width="10.4455" height="10.4455" transform="matrix(0.866025 -0.5 0.866025 0.5 298.502 480.537)" fill="#FFB681" stroke="black" stroke-width="1.11334" stroke-linecap="round" stroke-linejoin="round"/>
<rect id="Rectangle 1185" width="10.4455" height="10.4455" transform="matrix(0.866025 -0.5 0.866025 0.5 286.01 487.75)" fill="#FFB681" stroke="black" stroke-width="1.11334" stroke-linecap="round" stroke-linejoin="round"/>
<rect id="Rectangle 1186" width="10.4455" height="10.4455" transform="matrix(0.866025 -0.5 0.866025 0.5 384.656 430.797)" fill="#FFB681" stroke="black" stroke-width="1.11334" stroke-linecap="round" stroke-linejoin="round"/>
<rect id="Rectangle 1187" width="10.4455" height="10.4455" transform="matrix(0.866025 -0.5 0.866025 0.5 397.147 423.585)" fill="#FFB681" stroke="black" stroke-width="1.11334" stroke-linecap="round" stroke-linejoin="round"/>
<rect id="Rectangle 1188" width="10.4455" height="10.4455" transform="matrix(0.866025 -0.5 0.866025 0.5 409.64 416.373)" fill="#FFB681" stroke="black" stroke-width="1.11334" stroke-linecap="round" stroke-linejoin="round"/>
<rect id="Rectangle 1189" width="13.4299" height="10.4455" transform="matrix(0.866025 -0.5 0.866025 0.5 422.132 409.16)" fill="#FFB681" stroke="black" stroke-width="1.11334" stroke-linecap="round" stroke-linejoin="round"/>
<rect id="Rectangle 1190" width="13.4299" height="10.4455" transform="matrix(0.866025 -0.5 0.866025 0.5 270.934 496.454)" fill="#FFB681" stroke="black" stroke-width="1.11334" stroke-linecap="round" stroke-linejoin="round"/>
<g id="Group 1152">
<path id="Vector (Stroke)" fill-rule="evenodd" clip-rule="evenodd" d="M391.468 387.169C391.484 387.159 391.503 387.15 391.525 387.143L394.355 386.132C394.359 386.131 394.362 386.129 394.366 386.128C394.683 386.025 394.95 385.878 395.143 385.701C395.166 385.67 395.194 385.64 395.225 385.611L396.905 384.037C396.917 384.025 396.932 384.014 396.948 384.005C397.041 383.951 397.19 383.938 397.307 383.98C397.445 384.028 397.488 384.132 397.403 384.211L395.749 385.77L395.684 385.835C395.677 385.841 395.671 385.848 395.664 385.854C395.567 386 395.624 386.168 395.819 386.281L396.025 386.399C396.157 386.475 396.324 386.528 396.507 386.55L398.696 386.819C398.962 386.851 399.213 386.73 399.203 386.573L399.137 385.445C399.131 385.352 399.258 385.274 399.419 385.27C399.58 385.266 399.715 385.339 399.721 385.432L399.787 386.56C399.809 386.936 399.211 387.227 398.573 387.148L396.46 386.89L396.908 388.109C397.044 388.478 396.541 388.823 395.889 388.81L393.935 388.772C393.774 388.769 393.649 388.691 393.655 388.598C393.661 388.505 393.797 388.432 393.958 388.435L395.911 388.473C396.184 388.479 396.394 388.334 396.337 388.181L395.873 386.917C395.834 386.811 395.743 386.714 395.611 386.638L395.335 386.479C395.15 386.372 394.861 386.353 394.635 386.433L391.823 387.433C391.686 387.482 391.506 387.457 391.422 387.378C391.349 387.31 391.372 387.223 391.468 387.169Z" fill="black"/>
</g>
</g>
</g>
<rect id="Rectangle 1196" width="30.4087" height="56.8643" rx="15.2044" transform="matrix(0.866025 -0.5 0.866025 0.5 459.445 351.041)" fill="white" stroke="black" stroke-width="1.11334" stroke-linecap="round" stroke-linejoin="round"/>
<path id="Rectangle 1197" d="M474.163 354.769L497.074 367.997C504.346 372.195 516.136 372.195 523.409 367.997C526.643 366.129 528.439 363.746 528.796 361.305C528.796 351.305 524.147 346.617 521.822 345.523C515.494 342.165 501.288 334.984 495.089 333.125C488.89 331.265 478.555 336.643 474.163 339.565C466.89 343.763 466.89 350.57 474.163 354.769Z" stroke="black" stroke-width="1.11334" stroke-linecap="round" stroke-linejoin="round"/>
</g>
<g id="Group 1163">
<rect id="Rectangle 1199" x="438.306" y="17.8867" width="5.0856" height="67.075" rx="2.5428" fill="#C4C4C4" stroke="black" stroke-width="1.11334"/>
<rect id="Rectangle 1200" x="438.306" y="17.8867" width="5.0856" height="35.3055" rx="2.5428" fill="#D9D9D9" stroke="black" stroke-width="1.11334"/>
</g>
<path id="Ellipse 49" d="M452.113 21.108H460.566M428.869 21.108H420.416M440.491 9.48559V1.03296M426.227 6.84414L432.273 12.8897M448.709 12.8897L454.755 6.84414" stroke="black" stroke-width="0.955953" stroke-linecap="round" stroke-linejoin="round"/>
</g>
<g id="arrow">
<g id="arrow-segment1">
<rect id="Rectangle 1206" x="529.974" y="101.874" width="55.771" height="15.3217" rx="3.06434" transform="rotate(-24.2866 529.974 101.874)" fill="#53978E" stroke="black" stroke-width="0.88058" stroke-linecap="round" stroke-linejoin="round"/>
<rect id="Rectangle 1201" x="527.453" y="96.2872" width="55.771" height="15.3217" rx="3.06434" transform="rotate(-24.2866 527.453 96.2872)" fill="#ADCCBD" stroke="black" stroke-width="0.88058" stroke-linecap="round" stroke-linejoin="round"/>
</g>
<g id="arrow-segment2">
<rect id="Rectangle 1207" x="601.344" y="73.3367" width="55.771" height="15.3217" rx="3.06434" transform="rotate(-10.4935 601.344 73.3367)" fill="#53978E" stroke="black" stroke-width="0.88058" stroke-linecap="round" stroke-linejoin="round"/>
<rect id="Rectangle 1202" x="600.228" y="67.3107" width="55.771" height="15.3217" rx="3.06434" transform="rotate(-10.4935 600.228 67.3107)" fill="#ADCCBD" stroke="black" stroke-width="0.88058" stroke-linecap="round" stroke-linejoin="round"/>
</g>
<g id="arrow-segment3">
<rect id="Rectangle 1208" x="673.861" y="62.3468" width="55.771" height="15.3217" rx="3.06434" transform="rotate(-2.45712 673.861 62.3468)" fill="#53978E" stroke="black" stroke-width="0.88058" stroke-linecap="round" stroke-linejoin="round"/>
<rect id="Rectangle 1203" x="673.601" y="56.2235" width="55.771" height="15.3217" rx="3.06434" transform="rotate(-2.45712 673.601 56.2235)" fill="#ADCCBD" stroke="black" stroke-width="0.88058" stroke-linecap="round" stroke-linejoin="round"/>
</g>
<g id="arrow-segment4">
<rect id="Rectangle 1209" x="746.815" y="59.659" width="55.771" height="15.3217" rx="3.06434" transform="rotate(4.63867 746.815 59.659)" fill="#53978E" stroke="black" stroke-width="0.88058" stroke-linecap="round" stroke-linejoin="round"/>
<rect id="Rectangle 1204" x="747.311" y="53.5506" width="55.771" height="15.3217" rx="3.06434" transform="rotate(4.63867 747.311 53.5506)" fill="#ADCCBD" stroke="black" stroke-width="0.88058" stroke-linecap="round" stroke-linejoin="round"/>
</g>
<g id="arrow-segment5">
<rect id="Rectangle 1210" x="820.399" y="65.3127" width="55.771" height="15.3217" rx="3.06434" transform="rotate(12.8959 820.399 65.3127)" fill="#53978E" stroke="black" stroke-width="0.88058" stroke-linecap="round" stroke-linejoin="round"/>
<rect id="Rectangle 1205" x="821.767" y="59.3387" width="55.771" height="15.3217" rx="3.06434" transform="rotate(12.8959 821.767 59.3387)" fill="#ADCCBD" stroke="black" stroke-width="0.88058" stroke-linecap="round" stroke-linejoin="round"/>
</g>
<g id="arrow-pointer">
<g id="Union_5">
<path fill-rule="evenodd" clip-rule="evenodd" d="M902.44 57.2374C901.721 55.7058 899.895 55.0478 898.364 55.7677L890.044 59.6784C888.512 60.3984 887.854 62.2236 888.574 63.7552L904.449 97.5275L870.677 113.402C869.145 114.122 868.487 115.947 869.207 117.479L873.118 125.799C873.838 127.33 875.663 127.988 877.195 127.268L913.157 110.364C913.364 110.316 913.569 110.246 913.769 110.152L922.089 106.241C922.866 105.875 923.419 105.225 923.68 104.472C923.967 103.721 923.96 102.859 923.591 102.074L919.681 93.7539C919.586 93.5533 919.473 93.3676 919.344 93.1981L902.44 57.2374Z" fill="#53978E"/>
<path d="M898.364 55.7677L898.176 55.3693L898.176 55.3693L898.364 55.7677ZM902.44 57.2374L902.839 57.0501L902.839 57.0501L902.44 57.2374ZM890.044 59.6784L890.231 60.0769L890.231 60.0769L890.044 59.6784ZM888.574 63.7552L888.176 63.9425L888.176 63.9425L888.574 63.7552ZM904.449 97.5275L904.636 97.926C904.856 97.8226 904.951 97.5603 904.847 97.3402L904.449 97.5275ZM870.677 113.402L870.49 113.004L870.49 113.004L870.677 113.402ZM869.207 117.479L868.809 117.666L868.809 117.666L869.207 117.479ZM873.118 125.799L873.517 125.611L873.517 125.611L873.118 125.799ZM877.195 127.268L877.008 126.87L877.008 126.87L877.195 127.268ZM913.157 110.364L913.057 109.935C913.027 109.942 912.998 109.953 912.97 109.966L913.157 110.364ZM913.769 110.152L913.582 109.753L913.582 109.753L913.769 110.152ZM922.089 106.241L922.276 106.639L922.276 106.639L922.089 106.241ZM923.68 104.472L923.269 104.315L923.264 104.328L923.68 104.472ZM923.591 102.074L923.193 102.261L923.591 102.074ZM919.681 93.7539L920.079 93.5666L920.079 93.5666L919.681 93.7539ZM919.344 93.1981L918.945 93.3854C918.959 93.4135 918.975 93.4401 918.994 93.4649L919.344 93.1981ZM898.551 56.1662C899.863 55.5497 901.426 56.1132 902.042 57.4247L902.839 57.0501C902.016 55.2984 899.928 54.5459 898.176 55.3693L898.551 56.1662ZM890.231 60.0769L898.551 56.1662L898.176 55.3693L889.857 59.28L890.231 60.0769ZM888.973 63.5679C888.356 62.2564 888.92 60.6934 890.231 60.0769L889.857 59.28C888.105 60.1033 887.352 62.1909 888.176 63.9425L888.973 63.5679ZM904.847 97.3402L888.973 63.5679L888.176 63.9425L904.05 97.7148L904.847 97.3402ZM870.864 113.8L904.636 97.926L904.262 97.1291L870.49 113.004L870.864 113.8ZM869.606 117.292C868.989 115.98 869.553 114.417 870.864 113.8L870.49 113.004C868.738 113.827 867.986 115.914 868.809 117.666L869.606 117.292ZM873.517 125.611L869.606 117.292L868.809 117.666L872.72 125.986L873.517 125.611ZM877.008 126.87C875.696 127.486 874.133 126.923 873.517 125.611L872.72 125.986C873.543 127.738 875.631 128.49 877.382 127.667L877.008 126.87ZM912.97 109.966L877.008 126.87L877.382 127.667L913.345 110.763L912.97 109.966ZM913.582 109.753C913.41 109.834 913.234 109.894 913.057 109.935L913.257 110.793C913.494 110.738 913.728 110.657 913.956 110.55L913.582 109.753ZM921.901 105.842L913.582 109.753L913.956 110.55L922.276 106.639L921.901 105.842ZM923.264 104.328C923.04 104.973 922.567 105.529 921.901 105.842L922.276 106.639C923.165 106.221 923.797 105.477 924.096 104.617L923.264 104.328ZM923.193 102.261C923.509 102.933 923.515 103.671 923.269 104.315L924.091 104.63C924.419 103.771 924.412 102.784 923.99 101.886L923.193 102.261ZM919.282 93.9412L923.193 102.261L923.99 101.886L920.079 93.5666L919.282 93.9412ZM918.994 93.4649C919.104 93.6098 919.201 93.7689 919.282 93.9412L920.079 93.5666C919.971 93.3377 919.842 93.1254 919.694 92.9313L918.994 93.4649ZM902.042 57.4247L918.945 93.3854L919.742 93.0108L902.839 57.0501L902.042 57.4247Z" fill="black"/>
</g>
<g id="Union_6">
<path fill-rule="evenodd" clip-rule="evenodd" d="M904.519 51.4724C903.799 49.9408 901.974 49.2828 900.442 50.0027L892.123 53.9134C890.591 54.6334 889.933 56.4586 890.653 57.9902L906.528 91.7626L872.756 107.637C871.224 108.357 870.566 110.182 871.286 111.714L875.197 120.034C875.917 121.565 877.742 122.223 879.274 121.503L915.236 104.599C915.443 104.551 915.648 104.48 915.847 104.387L924.167 100.476C924.945 100.11 925.497 99.4601 925.758 98.708C926.046 97.9568 926.039 97.0941 925.67 96.3087L921.759 87.989C921.665 87.7884 921.552 87.6028 921.423 87.4333L904.519 51.4724Z" fill="#ADCCBD"/>
<path d="M900.442 50.0027L900.255 49.6043L900.255 49.6043L900.442 50.0027ZM904.519 51.4724L904.918 51.2851L904.918 51.2851L904.519 51.4724ZM892.123 53.9134L891.935 53.5149L891.935 53.5149L892.123 53.9134ZM890.653 57.9902L890.254 58.1775L890.254 58.1775L890.653 57.9902ZM906.528 91.7626L906.715 92.161C906.821 92.1114 906.902 92.0218 906.942 91.9119C906.981 91.802 906.976 91.681 906.926 91.5753L906.528 91.7626ZM872.756 107.637L872.568 107.239L872.568 107.239L872.756 107.637ZM871.286 111.714L870.888 111.901L870.888 111.901L871.286 111.714ZM875.197 120.034L875.595 119.846L875.595 119.846L875.197 120.034ZM879.274 121.503L879.086 121.105L879.086 121.105L879.274 121.503ZM915.236 104.599L915.136 104.17C915.106 104.177 915.077 104.187 915.049 104.201L915.236 104.599ZM915.847 104.387L916.035 104.785L916.035 104.785L915.847 104.387ZM924.167 100.476L923.98 100.077L923.98 100.077L924.167 100.476ZM925.758 98.708L925.347 98.5505L925.342 98.5635L925.758 98.708ZM921.423 87.4333L921.024 87.6206C921.037 87.6487 921.053 87.6753 921.072 87.7L921.423 87.4333ZM900.63 50.4012C901.941 49.7847 903.504 50.3481 904.121 51.6597L904.918 51.2851C904.094 49.5334 902.007 48.7809 900.255 49.6043L900.63 50.4012ZM892.31 54.3119L900.63 50.4012L900.255 49.6043L891.935 53.5149L892.31 54.3119ZM891.051 57.8029C890.435 56.4914 890.998 54.9284 892.31 54.3119L891.935 53.5149C890.184 54.3383 889.431 56.4258 890.254 58.1775L891.051 57.8029ZM906.926 91.5753L891.051 57.8029L890.254 58.1775L906.129 91.9499L906.926 91.5753ZM872.943 108.036L906.715 92.161L906.34 91.3641L872.568 107.239L872.943 108.036ZM871.684 111.527C871.068 110.215 871.631 108.652 872.943 108.036L872.568 107.239C870.817 108.062 870.064 110.149 870.888 111.901L871.684 111.527ZM875.595 119.846L871.684 111.527L870.888 111.901L874.798 120.221L875.595 119.846ZM879.086 121.105C877.775 121.721 876.212 121.158 875.595 119.846L874.798 120.221C875.622 121.973 877.709 122.725 879.461 121.902L879.086 121.105ZM915.049 104.201L879.086 121.105L879.461 121.902L915.423 104.998L915.049 104.201ZM915.66 103.988C915.489 104.069 915.313 104.129 915.136 104.17L915.336 105.028C915.573 104.973 915.807 104.892 916.035 104.785L915.66 103.988ZM923.98 100.077L915.66 103.988L916.035 104.785L924.354 100.874L923.98 100.077ZM925.342 98.5635C925.118 99.2082 924.646 99.7644 923.98 100.077L924.354 100.874C925.244 100.456 925.876 99.7119 926.174 98.8525L925.342 98.5635ZM925.271 96.496C925.588 97.1686 925.594 97.9066 925.347 98.5506L926.17 98.8654C926.498 98.007 926.491 97.0196 926.068 96.1214L925.271 96.496ZM921.361 88.1763L925.271 96.496L926.068 96.1214L922.158 87.8017L921.361 88.1763ZM921.072 87.7C921.183 87.8449 921.28 88.0039 921.361 88.1763L922.158 87.8017C922.05 87.5728 921.921 87.3606 921.773 87.1665L921.072 87.7ZM904.121 51.6597L921.024 87.6206L921.821 87.246L904.918 51.2851L904.121 51.6597Z" fill="black"/>
</g>
</g>
</g>
</g>
</svg>
