<svg width="1020" height="434" viewBox="0 0 1020 434" fill="none" xmlns="http://www.w3.org/2000/svg">
<path d="M776.705 433.692L1003.63 302.676L1003.63 284.381L549.779 284.38L549.779 302.676L776.705 433.692Z" fill="#5E6FDB" stroke="black" stroke-width="0.751469" stroke-linecap="round" stroke-linejoin="round"/>
<rect width="262.032" height="262.032" transform="matrix(-0.866025 -0.5 -0.866025 0.5 1003.6 284.228)" fill="#B0B8ED" stroke="black" stroke-width="0.751469" stroke-linecap="round" stroke-linejoin="round"/>
<rect width="26.744" height="26.744" transform="matrix(-0.866025 -0.5 -0.866025 0.5 807.168 129.317)" fill="#B0B8ED" stroke="black" stroke-width="0.500979" stroke-linecap="round" stroke-linejoin="round"/>
<rect width="26.744" height="11.0603" transform="matrix(-0.866025 0.5 2.20305e-08 1 807.168 129.218)" fill="#5E6FDB" stroke="black" stroke-width="0.500979" stroke-linecap="round" stroke-linejoin="round"/>
<rect width="26.744" height="11.0499" transform="matrix(0.866025 0.5 -2.20305e-08 1 760.846 129.228)" fill="#5E6FDB" stroke="black" stroke-width="0.500979" stroke-linecap="round" stroke-linejoin="round"/>
<rect width="12.1147" height="48.159" transform="matrix(-0.866025 0.5 2.20305e-08 1 794.499 82.4792)" fill="#F0EBE6" stroke="black" stroke-width="0.500979" stroke-linecap="round" stroke-linejoin="round"/>
<rect width="12.1147" height="45.8338" transform="matrix(0.866025 0.5 -2.20305e-08 1 773.516 84.8047)" fill="#D6D2CD" stroke="black" stroke-width="0.500979" stroke-linecap="round" stroke-linejoin="round"/>
<rect width="24.351" height="24.351" transform="matrix(-0.866025 -0.5 -0.866025 0.5 863.529 213.19)" fill="#D6D2CD" stroke="black" stroke-width="0.500979" stroke-linecap="round" stroke-linejoin="round"/>
<rect width="24.351" height="24.351" transform="matrix(-0.866025 0.5 2.20305e-08 1 863.529 213.19)" fill="#F0EBE6" stroke="black" stroke-width="0.500979" stroke-linecap="round" stroke-linejoin="round"/>
<rect width="24.351" height="24.351" transform="matrix(0.866025 0.5 -2.20305e-08 1 821.351 213.19)" fill="#F0EBE6" stroke="black" stroke-width="0.500979" stroke-linecap="round" stroke-linejoin="round"/>
<rect width="13.7134" height="193.904" transform="matrix(-0.866025 0.5 2.20305e-08 1 854.316 18.9886)" fill="#F0EBE6" stroke="black" stroke-width="0.500979" stroke-linecap="round" stroke-linejoin="round"/>
<rect width="13.7134" height="179.68" transform="matrix(0.866025 0.5 -2.20305e-08 1 830.564 33.213)" fill="#D6D2CD" stroke="black" stroke-width="0.500979" stroke-linecap="round" stroke-linejoin="round"/>
<path d="M694.633 113.418C694.633 95.0893 681.765 87.6603 665.893 96.8245C650.02 105.989 637.152 128.276 637.152 146.604L637.152 232.957L694.633 199.771L694.633 113.418Z" fill="black" stroke="black" stroke-width="0.500979" stroke-linecap="round" stroke-linejoin="round"/>
<path d="M902.325 325.382C904.914 323.887 904.914 321.464 902.325 319.969L694.59 200.034L637.269 233.128L845.004 353.064C847.592 354.559 851.789 354.559 854.378 353.064L902.325 325.382Z" fill="black" stroke="black" stroke-width="0.500979" stroke-linecap="round" stroke-linejoin="round"/>
<path d="M856.437 327.984L827.603 309.322L637.464 182.282L694.786 149.188L888.44 260.994L888.443 260.992L907.1 271.763C912.411 274.83 916.717 282.287 916.717 288.42C916.717 291.69 915.492 293.923 913.544 294.831L856.437 327.984Z" fill="#EEEEEE" stroke="black" stroke-width="0.500979" stroke-linecap="round" stroke-linejoin="round"/>
<path d="M870.307 279.946L874.614 270.5L846.807 265L819 270.5L814.693 279.946L842.5 296L870.307 279.946Z" fill="#D6D2CD"/>
<path d="M787.641 230.5L791.948 221.055L764.141 215.555L736.334 221.055L732.027 230.5L759.834 246.555L787.641 230.5Z" fill="#D6D2CD"/>
<path d="M718.307 198.5L722.614 189.055L694.807 183.555L667 189.055L662.693 198.5L690.5 214.555L718.307 198.5Z" fill="#D6D2CD"/>
<path d="M859.423 321.639C859.423 315.506 855.117 308.049 849.806 304.983L637.516 182.417L637.516 204.625L849.806 327.191C855.117 330.257 859.423 327.772 859.423 321.639Z" fill="#D6D2CD" stroke="black" stroke-width="0.500979" stroke-linecap="round" stroke-linejoin="round"/>
<path d="M852.635 317.72C852.635 315.298 850.934 312.352 848.837 311.141L637.516 189.135L637.516 197.907L848.837 319.913C850.934 321.124 852.635 320.142 852.635 317.72Z" fill="#D6D2CD" stroke="black" stroke-width="0.500979" stroke-linecap="round" stroke-linejoin="round"/>
<path d="M852.635 317.72C852.635 315.298 850.934 312.352 848.837 311.141L637.516 189.135L637.516 197.907L848.837 319.913C850.934 321.124 852.635 320.142 852.635 317.72Z" fill="black" stroke="black" stroke-width="0.500979" stroke-linecap="round" stroke-linejoin="round"/>
<circle r="2.986" transform="matrix(-0.866025 -0.5 -2.20305e-08 1 848.433 315.387)" fill="#D6D2CD" stroke="black" stroke-width="0.500979" stroke-linecap="round" stroke-linejoin="round"/>
<circle r="2.986" transform="matrix(-0.866025 -0.5 -2.20305e-08 1 749.52 258.28)" fill="#D6D2CD" stroke="black" stroke-width="0.500979" stroke-linecap="round" stroke-linejoin="round"/>
<circle r="2.986" transform="matrix(-0.866025 -0.5 -2.20305e-08 1 700.064 229.726)" fill="#D6D2CD" stroke="black" stroke-width="0.500979" stroke-linecap="round" stroke-linejoin="round"/>
<circle r="2.986" transform="matrix(-0.866025 -0.5 -2.20305e-08 1 733.035 248.762)" fill="#D6D2CD" stroke="black" stroke-width="0.500979" stroke-linecap="round" stroke-linejoin="round"/>
<circle r="2.986" transform="matrix(-0.866025 -0.5 -2.20305e-08 1 782.491 277.315)" fill="#D6D2CD" stroke="black" stroke-width="0.500979" stroke-linecap="round" stroke-linejoin="round"/>
<circle r="2.986" transform="matrix(-0.866025 -0.5 -2.20305e-08 1 815.462 296.351)" fill="#D6D2CD" stroke="black" stroke-width="0.500979" stroke-linecap="round" stroke-linejoin="round"/>
<circle r="2.986" transform="matrix(-0.866025 -0.5 -2.20305e-08 1 716.549 239.244)" fill="#D6D2CD" stroke="black" stroke-width="0.500979" stroke-linecap="round" stroke-linejoin="round"/>
<circle r="2.986" transform="matrix(-0.866025 -0.5 -2.20305e-08 1 667.093 210.69)" fill="#D6D2CD" stroke="black" stroke-width="0.500979" stroke-linecap="round" stroke-linejoin="round"/>
<path d="M916.624 287.487L859.423 320.799" stroke="black" stroke-width="0.500979"/>
<path d="M904.213 270.13L847.012 303.443" stroke="black" stroke-width="0.500979"/>
<path d="M904.211 270.138L846.84 303.261" stroke="black" stroke-width="0.500979"/>
<path d="M757.67 185.53L700.299 218.653" stroke="black" stroke-width="0.500979"/>
<path d="M830.942 227.833L773.571 260.956" stroke="black" stroke-width="0.500979"/>
<path d="M867.577 248.985L810.206 282.108" stroke="black" stroke-width="0.500979"/>
<path d="M721.034 164.378L663.663 197.501" stroke="black" stroke-width="0.500979"/>
<path d="M794.306 206.682L736.935 239.805" stroke="black" stroke-width="0.500979"/>
<path d="M885.895 259.561L828.524 292.684" stroke="black" stroke-width="0.500979"/>
<path d="M739.352 174.954L681.981 208.077" stroke="black" stroke-width="0.500979"/>
<path d="M812.624 217.257L755.253 250.38" stroke="black" stroke-width="0.500979"/>
<path d="M849.26 238.409L791.889 271.532" stroke="black" stroke-width="0.500979"/>
<path d="M702.717 153.802L645.346 186.925" stroke="black" stroke-width="0.500979"/>
<path d="M775.988 196.106L718.617 229.229" stroke="black" stroke-width="0.500979"/>
<rect width="32.1089" height="32.1089" transform="matrix(-0.866025 -0.5 -0.866025 0.5 874.726 238.596)" fill="#FFDBC0" stroke="black" stroke-width="0.500979" stroke-linecap="round" stroke-linejoin="round"/>
<rect width="4.73621" height="32.1089" transform="matrix(-0.866025 -0.5 -0.866025 0.5 862.873 231.753)" fill="white" stroke="black" stroke-width="0.500979" stroke-linecap="round" stroke-linejoin="round"/>
<rect width="32.1089" height="32.1089" transform="matrix(-0.866025 0.5 2.20305e-08 1 874.726 238.596)" fill="#FFB681" stroke="black" stroke-width="0.500979" stroke-linecap="round" stroke-linejoin="round"/>
<rect width="32.1089" height="32.1089" transform="matrix(0.866025 0.5 -2.20305e-08 1 819.112 238.596)" fill="#E0A173" stroke="black" stroke-width="0.500979" stroke-linecap="round" stroke-linejoin="round"/>
<rect width="4.9564" height="10.8533" transform="matrix(0.866025 0.5 -2.20305e-08 1 830.869 245.38)" fill="white" stroke="black" stroke-width="0.500979" stroke-linecap="round" stroke-linejoin="round"/>
<rect width="32.1089" height="32.1089" transform="matrix(-0.866025 -0.5 -0.866025 0.5 791.865 188.852)" fill="#FFDBC0" stroke="black" stroke-width="0.500979" stroke-linecap="round" stroke-linejoin="round"/>
<rect width="32.1089" height="32.1089" transform="matrix(-0.866025 0.5 2.20305e-08 1 791.865 188.852)" fill="#FFB681" stroke="black" stroke-width="0.500979" stroke-linecap="round" stroke-linejoin="round"/>
<rect width="32.1089" height="32.1089" transform="matrix(0.866025 0.5 -2.20305e-08 1 736.251 188.852)" fill="#E0A173" stroke="black" stroke-width="0.500979" stroke-linecap="round" stroke-linejoin="round"/>
<rect width="35.8569" height="35.8569" transform="matrix(-0.866025 -0.5 -0.866025 0.5 756.293 305.176)" fill="#D6D2CD" stroke="black" stroke-width="0.500979" stroke-linecap="round" stroke-linejoin="round"/>
<rect width="24.351" height="24.351" transform="matrix(-0.866025 -0.5 -0.866025 0.5 746.328 280.919)" fill="#D6D2CD" stroke="black" stroke-width="0.500979" stroke-linecap="round" stroke-linejoin="round"/>
<rect width="24.351" height="24.351" transform="matrix(-0.866025 0.5 2.20305e-08 1 746.328 280.919)" fill="#F0EBE6" stroke="black" stroke-width="0.500979" stroke-linecap="round" stroke-linejoin="round"/>
<rect width="24.351" height="24.351" transform="matrix(0.866025 0.5 -2.20305e-08 1 704.151 280.919)" fill="#F0EBE6" stroke="black" stroke-width="0.500979" stroke-linecap="round" stroke-linejoin="round"/>
<rect width="32.1089" height="32.1089" transform="matrix(-0.866025 -0.5 -0.866025 0.5 722.627 157.499)" fill="#FFDBC0" stroke="black" stroke-width="0.500979" stroke-linecap="round" stroke-linejoin="round"/>
<rect width="32.1089" height="32.1089" transform="matrix(-0.866025 0.5 2.20305e-08 1 722.627 157.499)" fill="#FFB681" stroke="black" stroke-width="0.500979" stroke-linecap="round" stroke-linejoin="round"/>
<rect width="32.1089" height="32.1089" transform="matrix(0.866025 0.5 -2.20305e-08 1 667.013 157.499)" fill="#E0A173" stroke="black" stroke-width="0.500979" stroke-linecap="round" stroke-linejoin="round"/>
<ellipse rx="22.9549" ry="16.0497" transform="matrix(-1 0 0 1 783.093 74.8325)" fill="#B0B8ED" stroke="black" stroke-width="0.500979" stroke-linecap="round" stroke-linejoin="round"/>
<rect width="13.7134" height="191.59" transform="matrix(-0.866025 0.5 2.20305e-08 1 737.116 86.5944)" fill="#F0EBE6" stroke="black" stroke-width="0.500979" stroke-linecap="round" stroke-linejoin="round"/>
<rect width="121.54" height="14.0797" transform="matrix(-0.866025 0.5 2.20305e-08 1 842.44 25.7889)" fill="#F0EBE6" stroke="black" stroke-width="0.500979" stroke-linecap="round" stroke-linejoin="round"/>
<rect width="13.7134" height="191.695" transform="matrix(0.866025 0.5 -2.20305e-08 1 713.363 86.5588)" fill="#F0EBE6" stroke="black" stroke-width="0.500979" stroke-linecap="round" stroke-linejoin="round"/>
<rect width="13.6693" height="148.972" transform="matrix(-0.866025 -0.5 -0.866025 0.5 854.253 18.9438)" fill="#F0EBE6" stroke="black" stroke-width="0.500979" stroke-linecap="round" stroke-linejoin="round"/>
<rect width="13.596" height="6.87179" transform="matrix(-0.866025 -0.5 -0.866025 0.5 725.24 258.008)" fill="#F0EBE6" stroke="black" stroke-width="0.500979" stroke-linecap="round" stroke-linejoin="round"/>
<path fill-rule="evenodd" clip-rule="evenodd" d="M719.3 261.447L707.526 254.649V267.049L700.232 280.751L712.007 287.549L719.001 274.409L719.3 274.582L719.3 273.847L719.3 273.847L719.3 273.846L719.3 261.447Z" fill="#F0EBE6"/>
<path d="M707.526 254.649H707.275C707.275 254.559 707.323 254.477 707.401 254.432C707.478 254.387 707.574 254.387 707.651 254.432L707.526 254.649ZM719.3 261.447L719.426 261.23C719.503 261.275 719.551 261.357 719.551 261.447H719.3ZM707.526 267.049H707.776C707.776 267.09 707.766 267.13 707.747 267.167L707.526 267.049ZM700.232 280.751L700.107 280.968C699.99 280.9 699.948 280.752 700.011 280.633L700.232 280.751ZM712.007 287.549L712.228 287.666C712.196 287.726 712.141 287.771 712.076 287.789C712.01 287.808 711.94 287.8 711.881 287.766L712.007 287.549ZM719.001 274.409L718.78 274.291C718.812 274.231 718.867 274.187 718.932 274.168C718.997 274.15 719.067 274.158 719.126 274.192L719.001 274.409ZM719.3 274.582H719.551C719.551 274.671 719.503 274.754 719.426 274.799C719.348 274.844 719.253 274.844 719.175 274.799L719.3 274.582ZM719.3 273.847H719.05C719.05 273.806 719.06 273.766 719.079 273.729L719.3 273.847ZM719.3 273.847L719.426 273.63C719.543 273.697 719.585 273.845 719.522 273.964L719.3 273.847ZM719.3 273.846L719.175 274.063C719.098 274.019 719.05 273.936 719.05 273.846H719.3ZM707.651 254.432L719.426 261.23L719.175 261.664L707.401 254.866L707.651 254.432ZM707.275 267.049V254.649H707.776V267.049H707.275ZM700.011 280.633L707.305 266.931L707.747 267.167L700.453 280.868L700.011 280.633ZM711.881 287.766L700.107 280.968L700.357 280.534L712.132 287.332L711.881 287.766ZM719.222 274.527L712.228 287.666L711.785 287.431L718.78 274.291L719.222 274.527ZM719.175 274.799L718.876 274.626L719.126 274.192L719.426 274.365L719.175 274.799ZM719.551 273.847V274.582H719.05V273.847H719.551ZM719.522 273.964L719.522 273.964L719.079 273.729L719.079 273.729L719.522 273.964ZM719.426 273.63L719.426 273.63L719.175 274.063L719.175 274.063L719.426 273.63ZM719.551 261.447L719.551 273.846H719.05L719.05 261.447H719.551Z" fill="black"/>
<path d="M707.711 270.692L715.738 275.326L710.765 284.667L702.738 280.033L707.711 270.692Z" fill="#B0B8ED" stroke="black" stroke-width="0.6" stroke-linecap="round" stroke-linejoin="round"/>
<path d="M705.348 275.332L713.375 279.967L710.765 284.667L702.738 280.032L705.348 275.332Z" fill="#B0B8ED" stroke="black" stroke-width="0.6" stroke-linecap="round" stroke-linejoin="round"/>
<path d="M705.348 275.333L707.957 276.81L705.348 281.51L702.738 280.033L705.348 275.333Z" fill="#B0B8ED" stroke="black" stroke-width="0.6" stroke-linecap="round" stroke-linejoin="round"/>
<rect width="11.9115" height="7.09243" transform="matrix(0.866025 0.5 -2.20305e-08 1 708.255 257.707)" fill="#F0EBE6" stroke="black" stroke-width="0.500979" stroke-linecap="round" stroke-linejoin="round"/>
<rect width="9.50516" height="4.34715" transform="matrix(0.866025 0.5 -2.20305e-08 1 709.297 259.691)" fill="#FFB681" stroke="black" stroke-width="0.500979" stroke-linecap="round" stroke-linejoin="round"/>
<path fill-rule="evenodd" clip-rule="evenodd" d="M719.3 261.438L725.24 258.008V270.308V277.432V279.89L712.006 287.53L719.3 273.737L719.3 261.438Z" fill="#F0EBE6"/>
<path d="M725.24 258.008L725.114 257.791C725.192 257.747 725.287 257.747 725.365 257.791C725.442 257.836 725.49 257.919 725.49 258.008H725.24ZM719.3 261.438H719.05C719.05 261.348 719.098 261.265 719.175 261.221L719.3 261.438ZM725.24 279.89H725.49C725.49 279.979 725.442 280.062 725.365 280.106L725.24 279.89ZM712.006 287.53L712.132 287.747C712.035 287.803 711.913 287.788 711.833 287.71C711.752 287.633 711.733 287.511 711.785 287.413L712.006 287.53ZM719.3 273.737H719.551C719.551 273.778 719.541 273.818 719.522 273.854L719.3 273.737ZM725.365 258.225L719.426 261.654L719.175 261.221L725.114 257.791L725.365 258.225ZM724.989 270.308V258.008H725.49V270.308H724.989ZM725.49 270.308V277.432H724.989V270.308H725.49ZM725.49 277.432V279.89H724.989V277.432H725.49ZM725.365 280.106L712.132 287.747L711.881 287.313L725.114 279.673L725.365 280.106ZM711.785 287.413L719.079 273.62L719.522 273.854L712.228 287.647L711.785 287.413ZM719.551 261.438L719.551 273.737H719.05L719.05 261.438H719.551Z" fill="black"/>
<path d="M242.771 433.692L469.697 302.676L469.697 284.381L15.8445 284.38L15.8445 302.676L242.771 433.692Z" fill="#5E6FDB" stroke="black" stroke-width="0.751469" stroke-linecap="round" stroke-linejoin="round"/>
<rect x="0.325396" y="0.187867" width="18.5739" height="12.2452" rx="5.39305" transform="matrix(0.866025 -0.5 2.20305e-08 1 300.037 57.9133)" fill="#C4C4C4" stroke="black" stroke-width="0.751469"/>
<rect width="262.032" height="262.032" transform="matrix(0.866025 -0.5 0.866025 0.5 16 284.228)" fill="#B0B8ED" stroke="black" stroke-width="0.751469" stroke-linecap="round" stroke-linejoin="round"/>
<rect width="209.987" height="13.6632" rx="6.83162" transform="matrix(0.866025 -0.5 0.866025 0.5 111.472 316.732)" fill="black"/>
<rect x="0.325396" y="0.187867" width="229.373" height="159.289" rx="10.0845" transform="matrix(0.866025 -0.5 2.20305e-08 1 88.219 139.833)" fill="#FFB681" stroke="black" stroke-width="0.751469" stroke-dasharray="5 5"/>
<mask id="path-79-inside-1" fill="white">
<path fill-rule="evenodd" clip-rule="evenodd" d="M114.494 147.515C109.491 150.403 105.435 157.428 105.435 163.205L105.435 302.326C105.435 308.103 109.491 310.444 114.494 307.556L295.669 202.954C300.672 200.065 304.728 193.041 304.728 187.264L304.728 48.143C304.728 42.366 300.672 40.0244 295.669 42.9129L114.494 147.515ZM114.494 154.314C113.243 155.036 112.229 156.792 112.229 158.236L112.229 299.449C112.229 300.893 113.243 301.478 114.494 300.756L295.669 196.154C296.92 195.432 297.934 193.676 297.934 192.232L297.934 51.0193C297.934 49.5751 296.92 48.9897 295.669 49.7118L114.494 154.314Z"/>
</mask>
<path fill-rule="evenodd" clip-rule="evenodd" d="M114.494 147.515C109.491 150.403 105.435 157.428 105.435 163.205L105.435 302.326C105.435 308.103 109.491 310.444 114.494 307.556L295.669 202.954C300.672 200.065 304.728 193.041 304.728 187.264L304.728 48.143C304.728 42.366 300.672 40.0244 295.669 42.9129L114.494 147.515ZM114.494 154.314C113.243 155.036 112.229 156.792 112.229 158.236L112.229 299.449C112.229 300.893 113.243 301.478 114.494 300.756L295.669 196.154C296.92 195.432 297.934 193.676 297.934 192.232L297.934 51.0193C297.934 49.5751 296.92 48.9897 295.669 49.7118L114.494 154.314Z" fill="white"/>
<path d="M297.934 192.232L297.283 192.608L297.934 192.232ZM297.934 51.0193L298.585 50.6436L297.934 51.0193ZM295.669 49.7118L295.669 50.4633L295.669 49.7118ZM106.086 162.829C106.086 157.467 109.85 150.947 114.494 148.266L114.494 146.763C109.131 149.859 104.784 157.389 104.784 163.581L106.086 162.829ZM106.086 301.95L106.086 162.829L104.784 163.581L104.784 302.701L106.086 301.95ZM114.494 306.804C109.85 309.485 106.086 307.312 106.086 301.95L104.784 302.701C104.784 308.893 109.131 311.403 114.494 308.307L114.494 306.804ZM295.669 202.202L114.494 306.804L114.494 308.307L295.669 203.705L295.669 202.202ZM304.077 187.639C304.077 193.001 300.313 199.521 295.669 202.202L295.669 203.705C301.032 200.609 305.379 193.08 305.379 186.888L304.077 187.639ZM304.077 48.5188L304.077 187.639L305.379 186.888L305.379 47.7673L304.077 48.5188ZM295.669 43.6644C300.313 40.9834 304.077 43.1568 304.077 48.5188L305.379 47.7673C305.379 41.5753 301.032 39.0655 295.669 42.1615L295.669 43.6644ZM114.494 148.266L295.669 43.6644L295.669 42.1615L114.494 146.763L114.494 148.266ZM112.88 157.86C112.88 156.831 113.602 155.58 114.494 155.065L114.494 153.562C112.883 154.492 111.578 156.753 111.578 158.612L112.88 157.86ZM112.88 299.073L112.88 157.86L111.578 158.612L111.578 299.824L112.88 299.073ZM114.494 300.005C113.602 300.519 112.88 300.102 112.88 299.073L111.578 299.824C111.578 301.684 112.883 302.437 114.494 301.508L114.494 300.005ZM295.669 195.403L114.494 300.005L114.494 301.508L295.669 196.906L295.669 195.403ZM297.283 192.608C297.283 193.637 296.561 194.888 295.669 195.403L295.669 196.906C297.279 195.976 298.585 193.715 298.585 191.856L297.283 192.608ZM297.283 51.3951L297.283 192.608L298.585 191.856L298.585 50.6436L297.283 51.3951ZM295.669 50.4633C296.561 49.9487 297.283 50.3658 297.283 51.3951L298.585 50.6436C298.585 48.7843 297.279 48.0307 295.669 48.9603L295.669 50.4633ZM114.494 155.065L295.669 50.4633L295.669 48.9603L114.494 153.562L114.494 155.065Z" fill="black" mask="url(#path-79-inside-1)"/>
<path d="M141.665 190.579L140.857 191.045L140.857 189.181L139.237 190.116L139.237 189.184L140.857 188.249L140.857 182.643L140.045 183.112L140.045 182.18L140.857 181.711L140.857 177.044L139.237 177.979L139.237 177.041L140.857 176.105L140.857 174.241L141.665 173.775L141.665 175.639L143.285 174.704L143.285 175.643L141.665 176.578L141.665 181.245L142.472 180.779L142.472 181.711L141.665 182.177L141.665 187.782L143.285 186.847L143.285 187.779L141.665 188.715L141.665 190.579ZM139.237 178.911L138.43 179.377L138.43 178.445L139.237 177.979L139.237 178.911ZM144.092 176.109L143.285 176.575L143.285 175.643L144.092 175.177L144.092 176.109ZM138.43 182.18L137.623 182.646L137.623 179.843L138.43 179.377L138.43 182.18ZM144.899 177.513L144.092 177.979L144.092 176.109L144.899 175.643L144.899 177.513ZM140.045 182.18L138.43 183.112L138.43 182.18L140.045 181.248L140.045 182.18ZM144.092 181.714L142.472 182.649L142.472 181.711L144.092 180.776L144.092 181.714ZM144.899 184.983L144.092 185.449L144.092 181.714L144.899 181.248L144.899 184.983ZM138.43 188.718L137.623 189.184L137.623 187.313L138.43 186.847L138.43 188.718ZM139.237 189.184L138.43 189.65L138.43 188.718L139.237 188.252L139.237 189.184ZM144.092 186.381L143.285 186.847L143.285 185.915L144.092 185.449L144.092 186.381ZM152.175 181.714L151.368 182.18L151.368 174.71L150.157 175.41L150.157 174.477L151.368 173.778L151.368 170.976L152.175 170.51L152.175 173.312L154.199 172.144L154.199 173.076L152.175 174.244L152.175 181.714ZM154.199 181.478L152.175 182.646L152.175 181.714L154.199 180.546L154.199 181.478ZM159.855 169.81L156.621 171.678L156.621 170.746L159.855 168.878L159.855 169.81ZM156.621 172.61L155.813 173.076L155.813 172.144L156.621 171.678L156.621 172.61ZM160.668 170.273L159.855 170.743L159.855 169.81L160.668 169.341L160.668 170.273ZM155.813 178.682L155.006 179.148L155.006 173.542L155.813 173.076L155.813 178.682ZM161.475 175.413L160.668 175.879L160.668 170.273L161.475 169.807L161.475 175.413ZM156.621 179.148L155.813 179.614L155.813 178.682L156.621 178.215L156.621 179.148ZM160.668 176.811L159.855 177.28L159.855 176.348L160.668 175.879L160.668 176.811ZM159.855 178.212L156.621 180.08L156.621 179.148L159.855 177.28L159.855 178.212ZM163.908 165.134L163.101 165.6L163.101 163.736L163.908 163.27L163.908 165.134ZM163.908 175.872L163.101 176.338L163.101 167.004L163.908 166.538L163.908 175.872ZM167.148 173.07L166.341 173.536L166.341 166.066L165.13 166.765L165.13 165.833L166.341 165.134L166.341 162.331L167.148 161.865L167.148 164.668L169.172 163.499L169.172 164.432L167.148 165.6L167.148 173.07ZM169.172 172.833L167.148 174.002L167.148 173.07L169.172 171.901L169.172 172.833ZM175.231 169.335L174.424 169.801L174.424 160.467L175.231 160.001L175.231 161.865L176.039 161.399L176.039 162.331L175.231 162.797L175.231 169.335ZM178.466 159.065L176.846 160.001L176.846 159.069L178.466 158.133L178.466 159.065ZM176.846 160.933L176.039 161.399L176.039 160.467L176.846 160.001L176.846 160.933ZM180.495 164.432L179.688 164.898L179.688 157.428L180.495 156.962L180.495 164.432ZM186.157 163.027L185.35 163.493L185.35 161.629L184.537 162.098L184.537 161.166L185.35 160.697L185.35 154.159L186.157 153.693L186.157 163.027ZM181.302 164.898L180.495 165.364L180.495 164.432L181.302 163.966L181.302 164.898ZM184.537 163.03L183.729 163.496L183.729 162.564L184.537 162.098L184.537 163.03ZM183.729 164.428L181.302 165.83L181.302 164.898L183.729 163.496L183.729 164.428ZM188.59 161.622L187.782 162.089L187.782 152.755L188.59 152.288L188.59 154.153L189.397 153.687L189.397 154.619L188.59 155.085L188.59 161.622ZM192.631 150.887L190.204 152.288L190.204 151.356L192.631 149.955L192.631 150.887ZM190.204 153.221L189.397 153.687L189.397 152.755L190.204 152.288L190.204 153.221ZM193.444 151.35L192.631 151.819L192.631 150.887L193.444 150.418L193.444 151.35ZM194.251 158.354L193.444 158.82L193.444 151.35L194.251 150.884L194.251 158.354ZM200.731 154.612L199.924 155.078L199.924 145.744L200.731 145.278L200.731 147.143L201.539 146.677L201.539 147.609L200.731 148.075L200.731 154.612ZM203.966 144.343L202.346 145.278L202.346 144.346L203.966 143.411L203.966 144.343ZM208.82 141.54L206.393 142.942L206.393 142.01L208.82 140.608L208.82 141.54ZM202.346 146.211L201.539 146.677L201.539 145.744L202.346 145.278L202.346 146.211ZM204.773 144.809L203.966 145.275L203.966 144.343L204.773 143.877L204.773 144.809ZM206.393 143.874L205.586 144.34L205.586 143.408L206.393 142.942L206.393 143.874ZM209.628 142.006L208.82 142.472L208.82 141.54L209.628 141.074L209.628 142.006ZM205.586 151.81L204.773 152.279L204.773 144.809L205.586 144.34L205.586 151.81ZM210.435 149.01L209.628 149.476L209.628 142.006L210.435 141.54L210.435 149.01ZM216.893 136.88L213.658 138.747L213.658 137.815L216.893 135.948L216.893 136.88ZM213.658 139.679L212.851 140.145L212.851 139.213L213.658 138.747L213.658 139.679ZM217.705 137.343L216.893 137.812L216.893 136.88L217.705 136.41L217.705 137.343ZM212.851 141.077L212.044 141.544L212.044 140.611L212.851 140.145L212.851 141.077ZM218.513 143.414L217.705 143.88L217.705 142.948L216.893 143.417L216.893 142.485L217.705 142.016L217.705 139.213L216.893 139.682L216.893 138.744L217.705 138.275L217.705 137.343L218.513 136.877L218.513 143.414ZM216.893 140.615L213.658 142.482L213.658 141.55L216.893 139.682L216.893 140.615ZM213.658 143.414L212.851 143.88L212.851 142.948L213.658 142.482L213.658 143.414ZM212.851 145.751L212.044 146.217L212.044 144.346L212.851 143.88L212.851 145.751ZM213.658 146.217L212.851 146.683L212.851 145.751L213.658 145.285L213.658 146.217ZM216.893 144.349L216.085 144.816L216.085 143.883L216.893 143.417L216.893 144.349ZM216.085 145.748L213.658 147.149L213.658 146.217L216.085 144.816L216.085 145.748ZM219.32 143.88L218.513 144.346L218.513 143.414L219.32 142.948L219.32 143.88ZM221.344 131.973L220.536 132.439L220.536 130.575L221.344 130.109L221.344 131.973ZM221.344 142.712L220.536 143.178L220.536 133.844L221.344 133.378L221.344 142.712ZM223.776 141.307L222.969 141.773L222.969 132.439L223.776 131.973L223.776 133.838L224.584 133.372L224.584 134.304L223.776 134.77L223.776 141.307ZM227.818 130.572L225.391 131.973L225.391 131.041L227.818 129.64L227.818 130.572ZM225.391 132.905L224.584 133.372L224.584 132.439L225.391 131.973L225.391 132.905ZM228.631 131.035L227.818 131.504L227.818 130.572L228.631 130.103L228.631 131.035ZM229.438 138.039L228.631 138.505L228.631 131.035L229.438 130.569L229.438 138.039ZM231.473 136.864L230.666 137.33L230.666 135.466L231.473 135L231.473 136.864ZM234.713 134.061L233.906 134.527L233.906 127.057L232.695 127.756L232.695 126.824L233.906 126.125L233.906 123.322L234.713 122.856L234.713 125.659L236.736 124.491L236.736 125.423L234.713 126.591L234.713 134.061ZM236.736 133.825L234.713 134.993L234.713 134.061L236.736 132.893L236.736 133.825ZM242.393 122.157L239.158 124.025L239.158 123.093L242.393 121.225L242.393 122.157ZM239.158 124.957L238.351 125.423L238.351 124.491L239.158 124.025L239.158 124.957ZM243.205 122.62L242.393 123.089L242.393 122.157L243.205 121.688L243.205 122.62ZM238.351 131.028L237.544 131.495L237.544 125.889L238.351 125.423L238.351 131.028ZM244.013 127.76L243.205 128.226L243.205 122.62L244.013 122.154L244.013 127.76ZM239.158 131.495L238.351 131.961L238.351 131.028L239.158 130.562L239.158 131.495ZM243.205 129.158L242.393 129.627L242.393 128.695L243.205 128.226L243.205 129.158ZM242.393 130.559L239.158 132.427L239.158 131.495L242.393 129.627L242.393 130.559ZM246.445 117.481L245.638 117.947L245.638 116.083L246.445 115.617L246.445 117.481ZM246.445 128.219L245.638 128.685L245.638 119.351L246.445 118.885L246.445 128.219ZM249.685 125.417L248.878 125.883L248.878 118.413L247.667 119.112L247.667 118.18L248.878 117.481L248.878 114.678L249.685 114.212L249.685 117.015L251.709 115.846L251.709 116.778L249.685 117.947L249.685 125.417ZM251.709 125.18L249.685 126.349L249.685 125.417L251.709 124.248L251.709 125.18ZM144.092 229.048L141.67 230.446L141.67 213.636L144.092 212.238L144.092 213.177L142.477 214.109L142.477 229.042L144.092 228.11L144.092 229.048ZM148.145 222.973L147.332 223.443L147.332 213.17L145.314 214.335L145.314 213.403L147.332 212.238L147.332 210.367L148.145 209.898L148.145 222.973ZM152.192 220.637L151.379 221.106L151.379 210.833L149.361 211.999L149.361 211.066L151.379 209.901L151.379 208.031L152.192 207.561L152.192 220.637ZM154.619 219.235L153.812 219.701L153.812 217.837L154.619 217.371L154.619 219.235ZM161.906 202.891L157.859 205.228L157.859 204.289L161.906 201.953L161.906 202.891ZM157.859 206.16L157.052 206.626L157.052 205.694L157.859 205.228L157.859 206.16ZM162.714 203.357L161.906 203.823L161.906 202.891L162.714 202.425L162.714 203.357ZM157.052 208.497L156.245 208.963L156.245 207.092L157.052 206.626L157.052 208.497ZM163.521 205.694L162.714 206.16L162.714 203.357L163.521 202.891L163.521 205.694ZM162.714 207.092L161.906 207.558L161.906 206.626L162.714 206.16L162.714 207.092ZM161.906 208.49L161.094 208.96L161.094 208.027L161.906 207.558L161.906 208.49ZM161.094 209.898L160.286 210.364L160.286 209.426L161.094 208.96L161.094 209.898ZM160.286 211.296L159.479 211.762L159.479 210.83L160.286 210.364L160.286 211.296ZM159.479 212.694L158.666 213.164L158.666 212.232L159.479 211.762L159.479 212.694ZM158.666 214.102L157.859 214.568L157.859 213.63L158.666 213.164L158.666 214.102ZM157.859 215.5L157.052 215.966L157.052 215.034L157.859 214.568L157.859 215.5ZM163.521 214.096L156.245 218.297L156.245 216.433L157.052 215.966L157.052 216.899L163.521 213.164L163.521 214.096ZM167.563 211.762L166.75 212.232L166.75 201.959L164.732 203.124L164.732 202.192L166.75 201.027L166.75 199.156L167.563 198.687L167.563 211.762ZM171.604 213.164L169.183 214.562L169.183 213.623L170.797 212.691L170.797 197.758L169.183 198.69L169.183 197.752L171.604 196.354L171.604 213.164ZM183.746 202.419L177.277 206.154L177.277 193.078L182.939 189.81L182.939 190.748L178.084 193.551L178.084 198.218L182.939 195.415L182.939 194.483L183.746 194.017L183.746 195.881L178.084 199.15L178.084 204.755L183.746 201.487L183.746 202.419ZM183.746 191.214L182.939 191.68L182.939 190.748L183.746 190.282L183.746 191.214ZM184.553 193.551L183.746 194.017L183.746 191.214L184.553 190.748L184.553 193.551ZM184.553 196.354L183.746 196.82L183.746 195.881L184.553 195.415L184.553 196.354ZM185.361 199.622L184.553 200.089L184.553 196.354L185.361 195.888L185.361 199.622ZM184.553 201.021L183.746 201.487L183.746 200.555L184.553 200.089L184.553 201.021ZM191.835 189.347L188.601 191.214L188.601 190.282L191.835 188.415L191.835 189.347ZM188.601 192.146L187.793 192.612L187.793 191.68L188.601 191.214L188.601 192.146ZM192.648 189.81L191.835 190.279L191.835 189.347L192.648 188.878L192.648 189.81ZM187.793 198.218L186.986 198.684L186.986 193.078L187.793 192.612L187.793 194.483L192.648 191.68L192.648 189.81L193.455 189.344L193.455 192.146L187.793 195.415L187.793 198.218ZM193.455 194.949L192.648 195.415L192.648 194.011L193.455 193.545L193.455 194.949ZM188.601 198.684L187.793 199.15L187.793 198.218L188.601 197.752L188.601 198.684ZM192.648 196.347L191.835 196.817L191.835 195.884L192.648 195.415L192.648 196.347ZM191.835 197.749L188.601 199.616L188.601 198.684L191.835 196.817L191.835 197.749ZM195.888 195.409L195.081 195.875L195.081 182.8L195.888 182.334L195.888 195.409ZM199.128 192.606L198.321 193.072L198.321 185.602L197.11 186.301L197.11 185.369L198.321 184.67L198.321 181.867L199.128 181.401L199.128 184.204L201.152 183.036L201.152 183.968L199.128 185.136L199.128 192.606ZM201.152 192.37L199.128 193.538L199.128 192.606L201.152 191.438L201.152 192.37ZM208.019 180.003L208.019 179.071L211.253 177.204L211.253 178.136L208.019 180.003ZM208.019 180.935L207.211 181.401L207.211 180.469L208.019 180.003L208.019 180.935ZM211.253 179.068L211.253 178.136L212.066 177.667L212.066 178.599L211.253 179.068ZM207.211 183.272L206.404 183.738L206.404 181.867L207.211 181.401L207.211 183.272ZM212.873 178.133L212.873 179.065L212.066 179.531L212.066 178.599L212.873 178.133ZM208.019 184.204L208.019 183.738L207.211 184.204L207.211 183.272L208.019 182.806L208.019 183.272L211.253 181.405L211.253 181.871L212.066 181.401L212.066 182.334L211.253 182.803L211.253 182.337L208.019 184.204ZM212.873 181.867L212.873 183.738L212.066 184.204L212.066 182.334L212.873 181.867ZM206.404 187.473L206.404 186.541L207.211 186.075L207.211 187.007L206.404 187.473ZM207.211 187.939L207.211 187.007L208.019 186.541L208.019 187.473L207.211 187.939ZM212.066 185.136L211.253 185.606L211.253 184.673L212.066 184.204L212.066 185.136ZM211.253 186.538L208.019 188.405L208.019 187.473L211.253 185.606L211.253 186.538ZM215.715 183.029L214.908 183.495L214.908 176.026L213.697 176.725L213.697 175.793L214.908 175.094L214.908 172.291L215.715 171.825L215.715 174.628L217.739 173.459L217.739 174.391L215.715 175.56L215.715 183.029ZM217.739 182.793L215.715 183.962L215.715 183.029L217.739 181.861L217.739 182.793ZM223.395 171.126L220.16 172.993L220.16 172.061L223.395 170.194L223.395 171.126ZM220.16 173.925L219.353 174.391L219.353 173.459L220.16 172.993L220.16 173.925ZM224.208 171.589L223.395 172.058L223.395 171.126L224.208 170.656L224.208 171.589ZM219.353 175.323L218.546 175.79L218.546 174.857L219.353 174.391L219.353 175.323ZM225.015 177.66L224.208 178.126L224.208 177.194L223.395 177.663L223.395 176.731L224.208 176.262L224.208 173.459L223.395 173.928L223.395 172.99L224.208 172.521L224.208 171.589L225.015 171.123L225.015 177.66ZM223.395 174.861L220.16 176.728L220.16 175.796L223.395 173.928L223.395 174.861ZM220.16 177.66L219.353 178.126L219.353 177.194L220.16 176.728L220.16 177.66ZM219.353 179.997L218.546 180.463L218.546 178.592L219.353 178.126L219.353 179.997ZM220.16 180.463L219.353 180.929L219.353 179.997L220.16 179.531L220.16 180.463ZM223.395 178.595L222.588 179.062L222.588 178.129L223.395 177.663L223.395 178.595ZM222.588 179.994L220.16 181.395L220.16 180.463L222.588 179.062L222.588 179.994ZM225.822 178.126L225.015 178.592L225.015 177.66L225.822 177.194L225.822 178.126ZM227.846 176.958L227.038 177.424L227.038 168.09L227.846 167.624L227.846 169.488L228.653 169.022L228.653 169.954L227.846 170.42L227.846 176.958ZM231.08 166.689L229.46 167.624L229.46 166.692L231.08 165.756L231.08 166.689ZM229.46 168.556L228.653 169.022L228.653 168.09L229.46 167.624L229.46 168.556ZM233.917 172.521L233.109 172.987L233.109 165.517L231.899 166.216L231.899 165.284L233.109 164.585L233.109 161.782L233.917 161.316L233.917 164.119L235.94 162.951L235.94 163.883L233.917 165.051L233.917 172.521ZM235.94 172.284L233.917 173.453L233.917 172.521L235.94 171.352L235.94 172.284ZM241.596 160.617L238.362 162.484L238.362 161.552L241.596 159.685L241.596 160.617ZM238.362 163.417L237.555 163.883L237.555 162.951L238.362 162.484L238.362 163.417ZM242.409 161.08L241.596 161.549L241.596 160.617L242.409 160.148L242.409 161.08ZM237.555 169.488L236.747 169.954L236.747 164.349L237.555 163.883L237.555 165.753L242.409 162.951L242.409 161.08L243.216 160.614L243.216 163.417L237.555 166.685L237.555 169.488ZM243.216 166.219L242.409 166.685L242.409 165.281L243.216 164.815L243.216 166.219ZM238.362 169.954L237.555 170.42L237.555 169.488L238.362 169.022L238.362 169.954ZM242.409 167.617L241.596 168.087L241.596 167.155L242.409 166.685L242.409 167.617ZM241.596 169.019L238.362 170.886L238.362 169.954L241.596 168.087L241.596 169.019ZM251.311 163.41L250.504 163.876L250.504 162.012L249.691 162.481L249.691 161.549L250.504 161.08L250.504 157.339L249.691 157.808L249.691 156.876L250.504 156.407L250.504 150.801L251.311 150.335L251.311 163.41ZM248.884 156.41L246.456 157.811L246.456 156.879L248.884 155.478L248.884 156.41ZM246.456 158.743L245.649 159.209L245.649 158.277L246.456 157.811L246.456 158.743ZM249.691 156.876L248.884 157.342L248.884 156.41L249.691 155.944L249.691 156.876ZM245.649 164.815L244.842 165.281L244.842 159.675L245.649 159.209L245.649 164.815ZM246.456 165.281L245.649 165.747L245.649 164.815L246.456 164.349L246.456 165.281ZM249.691 163.413L248.884 163.879L248.884 162.947L249.691 162.481L249.691 163.413ZM248.884 164.812L246.456 166.213L246.456 165.281L248.884 163.879L248.884 164.812ZM257.791 159.669L256.984 160.135L256.984 158.271L257.791 157.805L257.791 159.669ZM260.224 158.264L259.417 158.73L259.417 156.866L260.224 156.4L260.224 158.264Z" fill="black"/>
<rect width="155.107" height="55.0597" transform="matrix(0.866025 -0.5 0.866025 0.5 149.886 328.074)" fill="#F0EBE6" stroke="black" stroke-width="0.751469" stroke-linecap="round" stroke-linejoin="round"/>
<rect width="155.107" height="55.0597" transform="matrix(0.866025 -0.5 0.866025 0.5 149.886 320.788)" stroke="black" stroke-width="0.751469" stroke-linecap="round" stroke-linejoin="round"/>
<rect width="44.9878" height="7.05033" transform="matrix(0.866025 -0.5 0.866025 0.5 233.331 314.913)" fill="#FFB681" stroke="black" stroke-width="0.751469" stroke-linecap="round" stroke-linejoin="round"/>
<rect width="7.05033" height="7.05033" transform="matrix(0.866025 -0.5 0.866025 0.5 224.899 319.781)" fill="#FFB681" stroke="black" stroke-width="0.751469" stroke-linecap="round" stroke-linejoin="round"/>
<rect width="7.05033" height="7.05033" transform="matrix(0.866025 -0.5 0.866025 0.5 202.802 322.802)" fill="#FFB681" stroke="black" stroke-width="0.751469" stroke-linecap="round" stroke-linejoin="round"/>
<rect width="7.05033" height="7.05033" transform="matrix(0.866025 -0.5 0.866025 0.5 191.172 319.781)" fill="#FFB681" stroke="black" stroke-width="0.751469" stroke-linecap="round" stroke-linejoin="round"/>
<rect width="7.05033" height="7.05033" transform="matrix(0.866025 -0.5 0.866025 0.5 186.52 312.73)" fill="#FFB681" stroke="black" stroke-width="0.751469" stroke-linecap="round" stroke-linejoin="round"/>
<rect width="7.05033" height="5.37168" transform="matrix(0.866025 -0.5 0.866025 0.5 179.542 308.702)" fill="#FFB681" stroke="black" stroke-width="0.751469" stroke-linecap="round" stroke-linejoin="round"/>
<rect width="13.4292" height="5.37168" transform="matrix(0.866025 -0.5 0.866025 0.5 165.586 316.759)" fill="#FFB681" stroke="black" stroke-width="0.751469" stroke-linecap="round" stroke-linejoin="round"/>
<rect width="7.05033" height="5.37168" transform="matrix(0.866025 -0.5 0.866025 0.5 213.27 289.229)" fill="#FFB681" stroke="black" stroke-width="0.751469" stroke-linecap="round" stroke-linejoin="round"/>
<rect width="7.05033" height="5.37168" transform="matrix(0.866025 -0.5 0.866025 0.5 187.974 303.834)" fill="#FFB681" stroke="black" stroke-width="0.751469" stroke-linecap="round" stroke-linejoin="round"/>
<rect width="7.05033" height="5.37168" transform="matrix(0.866025 -0.5 0.866025 0.5 221.701 284.361)" fill="#FFB681" stroke="black" stroke-width="0.751469" stroke-linecap="round" stroke-linejoin="round"/>
<rect width="7.05033" height="5.37168" transform="matrix(0.866025 -0.5 0.866025 0.5 246.996 269.757)" fill="#FFB681" stroke="black" stroke-width="0.751469" stroke-linecap="round" stroke-linejoin="round"/>
<rect width="7.05033" height="5.37168" transform="matrix(0.866025 -0.5 0.866025 0.5 196.406 298.966)" fill="#FFB681" stroke="black" stroke-width="0.751469" stroke-linecap="round" stroke-linejoin="round"/>
<rect width="7.05033" height="5.37168" transform="matrix(0.866025 -0.5 0.866025 0.5 230.133 279.493)" fill="#FFB681" stroke="black" stroke-width="0.751469" stroke-linecap="round" stroke-linejoin="round"/>
<rect width="7.05033" height="5.37168" transform="matrix(0.866025 -0.5 0.866025 0.5 255.428 264.889)" fill="#FFB681" stroke="black" stroke-width="0.751469" stroke-linecap="round" stroke-linejoin="round"/>
<rect width="7.05033" height="5.37168" transform="matrix(0.866025 -0.5 0.866025 0.5 204.838 294.098)" fill="#FFB681" stroke="black" stroke-width="0.751469" stroke-linecap="round" stroke-linejoin="round"/>
<rect width="7.05033" height="5.37168" transform="matrix(0.866025 -0.5 0.866025 0.5 238.565 274.625)" fill="#FFB681" stroke="black" stroke-width="0.751469" stroke-linecap="round" stroke-linejoin="round"/>
<rect width="13.4292" height="5.37168" transform="matrix(0.866025 -0.5 0.866025 0.5 263.86 260.021)" fill="#FFB681" stroke="black" stroke-width="0.751469" stroke-linecap="round" stroke-linejoin="round"/>
<rect width="10.1061" height="44.3164" transform="matrix(0.866025 -0.5 0.866025 0.5 277.816 251.963)" fill="#FFB681" stroke="black" stroke-width="0.751469" stroke-linecap="round" stroke-linejoin="round"/>
<rect width="7.05033" height="44.3164" transform="matrix(0.866025 -0.5 0.866025 0.5 157.156 321.628)" fill="#FFB681" stroke="black" stroke-width="0.751469" stroke-linecap="round" stroke-linejoin="round"/>
<rect width="13.4292" height="7.05033" transform="matrix(0.866025 -0.5 0.866025 0.5 172.564 320.788)" fill="#FFB681" stroke="black" stroke-width="0.751469" stroke-linecap="round" stroke-linejoin="round"/>
<rect width="12.7577" height="7.05033" transform="matrix(0.866025 -0.5 0.866025 0.5 189.428 330.524)" fill="#FFB681" stroke="black" stroke-width="0.751469" stroke-linecap="round" stroke-linejoin="round"/>
<rect width="9.06471" height="7.05033" transform="matrix(0.866025 -0.5 0.866025 0.5 180.996 325.656)" fill="#FFB681" stroke="black" stroke-width="0.751469" stroke-linecap="round" stroke-linejoin="round"/>
<rect width="7.05033" height="7.05033" transform="matrix(0.866025 -0.5 0.866025 0.5 228.098 308.198)" fill="#FFB681" stroke="black" stroke-width="0.751469" stroke-linecap="round" stroke-linejoin="round"/>
<rect width="7.05033" height="7.05033" transform="matrix(0.866025 -0.5 0.866025 0.5 216.468 305.177)" fill="#FFB681" stroke="black" stroke-width="0.751469" stroke-linecap="round" stroke-linejoin="round"/>
<rect width="7.05033" height="7.05033" transform="matrix(0.866025 -0.5 0.866025 0.5 211.816 298.126)" fill="#FFB681" stroke="black" stroke-width="0.751469" stroke-linecap="round" stroke-linejoin="round"/>
<rect width="7.05033" height="7.05033" transform="matrix(0.866025 -0.5 0.866025 0.5 261.825 288.726)" fill="#FFB681" stroke="black" stroke-width="0.751469" stroke-linecap="round" stroke-linejoin="round"/>
<rect width="7.05033" height="7.05033" transform="matrix(0.866025 -0.5 0.866025 0.5 250.195 285.704)" fill="#FFB681" stroke="black" stroke-width="0.751469" stroke-linecap="round" stroke-linejoin="round"/>
<rect width="7.05033" height="7.05033" transform="matrix(0.866025 -0.5 0.866025 0.5 245.543 278.654)" fill="#FFB681" stroke="black" stroke-width="0.751469" stroke-linecap="round" stroke-linejoin="round"/>
<rect width="7.05033" height="7.05033" transform="matrix(0.866025 -0.5 0.866025 0.5 211.234 317.934)" fill="#FFB681" stroke="black" stroke-width="0.751469" stroke-linecap="round" stroke-linejoin="round"/>
<rect width="7.05033" height="7.05033" transform="matrix(0.866025 -0.5 0.866025 0.5 199.604 314.913)" fill="#FFB681" stroke="black" stroke-width="0.751469" stroke-linecap="round" stroke-linejoin="round"/>
<rect width="7.05033" height="7.05033" transform="matrix(0.866025 -0.5 0.866025 0.5 194.952 307.863)" fill="#FFB681" stroke="black" stroke-width="0.751469" stroke-linecap="round" stroke-linejoin="round"/>
<rect width="7.05033" height="7.05033" transform="matrix(0.866025 -0.5 0.866025 0.5 236.53 303.33)" fill="#FFB681" stroke="black" stroke-width="0.751469" stroke-linecap="round" stroke-linejoin="round"/>
<rect width="7.05033" height="7.05033" transform="matrix(0.866025 -0.5 0.866025 0.5 224.899 300.309)" fill="#FFB681" stroke="black" stroke-width="0.751469" stroke-linecap="round" stroke-linejoin="round"/>
<rect width="7.05033" height="7.05033" transform="matrix(0.866025 -0.5 0.866025 0.5 220.248 293.258)" fill="#FFB681" stroke="black" stroke-width="0.751469" stroke-linecap="round" stroke-linejoin="round"/>
<rect width="7.05033" height="7.05033" transform="matrix(0.866025 -0.5 0.866025 0.5 270.256 283.858)" fill="#FFB681" stroke="black" stroke-width="0.751469" stroke-linecap="round" stroke-linejoin="round"/>
<rect width="7.05033" height="7.05033" transform="matrix(0.866025 -0.5 0.866025 0.5 258.627 280.836)" fill="#FFB681" stroke="black" stroke-width="0.751469" stroke-linecap="round" stroke-linejoin="round"/>
<rect width="7.05033" height="7.05033" transform="matrix(0.866025 -0.5 0.866025 0.5 253.974 273.786)" fill="#FFB681" stroke="black" stroke-width="0.751469" stroke-linecap="round" stroke-linejoin="round"/>
<rect width="7.05033" height="7.05033" transform="matrix(0.866025 -0.5 0.866025 0.5 219.666 313.066)" fill="#FFB681" stroke="black" stroke-width="0.751469" stroke-linecap="round" stroke-linejoin="round"/>
<rect width="7.05033" height="7.05033" transform="matrix(0.866025 -0.5 0.866025 0.5 208.036 310.045)" fill="#FFB681" stroke="black" stroke-width="0.751469" stroke-linecap="round" stroke-linejoin="round"/>
<rect width="7.05033" height="7.05033" transform="matrix(0.866025 -0.5 0.866025 0.5 203.384 302.994)" fill="#FFB681" stroke="black" stroke-width="0.751469" stroke-linecap="round" stroke-linejoin="round"/>
<rect width="7.05033" height="7.05033" transform="matrix(0.866025 -0.5 0.866025 0.5 253.393 293.594)" fill="#FFB681" stroke="black" stroke-width="0.751469" stroke-linecap="round" stroke-linejoin="round"/>
<rect width="7.05033" height="7.05033" transform="matrix(0.866025 -0.5 0.866025 0.5 241.763 290.572)" fill="#FFB681" stroke="black" stroke-width="0.751469" stroke-linecap="round" stroke-linejoin="round"/>
<rect width="7.05033" height="7.05033" transform="matrix(0.866025 -0.5 0.866025 0.5 237.111 283.522)" fill="#FFB681" stroke="black" stroke-width="0.751469" stroke-linecap="round" stroke-linejoin="round"/>
<rect width="7.05033" height="7.05033" transform="matrix(0.866025 -0.5 0.866025 0.5 244.961 298.462)" fill="#FFB681" stroke="black" stroke-width="0.751469" stroke-linecap="round" stroke-linejoin="round"/>
<rect width="7.05033" height="7.05033" transform="matrix(0.866025 -0.5 0.866025 0.5 233.331 295.441)" fill="#FFB681" stroke="black" stroke-width="0.751469" stroke-linecap="round" stroke-linejoin="round"/>
<rect width="7.05033" height="7.05033" transform="matrix(0.866025 -0.5 0.866025 0.5 228.679 288.39)" fill="#FFB681" stroke="black" stroke-width="0.751469" stroke-linecap="round" stroke-linejoin="round"/>
<rect width="7.05033" height="7.05033" transform="matrix(0.866025 -0.5 0.866025 0.5 278.688 278.99)" fill="#FFB681" stroke="black" stroke-width="0.751469" stroke-linecap="round" stroke-linejoin="round"/>
<rect width="7.05033" height="7.05033" transform="matrix(0.866025 -0.5 0.866025 0.5 267.058 275.968)" fill="#FFB681" stroke="black" stroke-width="0.751469" stroke-linecap="round" stroke-linejoin="round"/>
<rect width="7.05033" height="7.05033" transform="matrix(0.866025 -0.5 0.866025 0.5 262.406 268.918)" fill="#FFB681" stroke="black" stroke-width="0.751469" stroke-linecap="round" stroke-linejoin="round"/>
<rect width="7.05033" height="7.05033" transform="matrix(0.866025 -0.5 0.866025 0.5 275.49 271.1)" fill="#FFB681" stroke="black" stroke-width="0.751469" stroke-linecap="round" stroke-linejoin="round"/>
<path fill-rule="evenodd" clip-rule="evenodd" d="M282.468 257.335L270.838 264.05L276.944 267.575L281.596 264.889L290.028 269.757L297.006 265.728L287.753 260.386L287.752 260.386L282.468 257.335Z" fill="#FFB681"/>
<path d="M270.838 264.05L270.513 263.862C270.333 263.965 270.333 264.134 270.513 264.237L270.838 264.05ZM282.468 257.335L282.794 257.147C282.707 257.097 282.59 257.069 282.468 257.069C282.346 257.069 282.229 257.097 282.143 257.147L282.468 257.335ZM276.944 267.575L276.619 267.763C276.798 267.866 277.09 267.866 277.269 267.763L276.944 267.575ZM281.596 264.889L281.921 264.701C281.742 264.597 281.45 264.597 281.271 264.701L281.596 264.889ZM290.028 269.757L289.702 269.945C289.882 270.048 290.173 270.048 290.353 269.945L290.028 269.757ZM297.006 265.728L297.331 265.916C297.417 265.866 297.466 265.798 297.466 265.728C297.466 265.658 297.417 265.59 297.331 265.54L297.006 265.728ZM287.753 260.386L288.078 260.198C287.898 260.094 287.607 260.094 287.427 260.198L287.753 260.386ZM287.752 260.386L287.427 260.574C287.607 260.677 287.898 260.677 288.078 260.574L287.752 260.386ZM271.164 264.237L282.794 257.523L282.143 257.147L270.513 263.862L271.164 264.237ZM277.269 267.387L271.164 263.862L270.513 264.237L276.619 267.763L277.269 267.387ZM281.271 264.701L276.619 267.387L277.269 267.763L281.921 265.077L281.271 264.701ZM290.353 269.569L281.921 264.701L281.271 265.077L289.702 269.945L290.353 269.569ZM296.68 265.54L289.702 269.569L290.353 269.945L297.331 265.916L296.68 265.54ZM287.427 260.574L296.68 265.916L297.331 265.54L288.078 260.198L287.427 260.574ZM288.078 260.574L288.078 260.574L287.427 260.198L287.427 260.198L288.078 260.574ZM282.143 257.523L287.427 260.574L288.078 260.198L282.794 257.147L282.143 257.523Z" fill="black"/>
<rect width="14.1007" height="7.05033" transform="matrix(0.866025 -0.5 0.866025 0.5 287.12 274.122)" fill="#FFB681" stroke="black" stroke-width="0.751469" stroke-linecap="round" stroke-linejoin="round"/>
<rect width="7.05033" height="7.05033" transform="matrix(0.866025 -0.5 0.866025 0.5 216.468 324.649)" fill="#FFB681" stroke="black" stroke-width="0.751469" stroke-linecap="round" stroke-linejoin="round"/>
<rect width="7.05033" height="7.05033" transform="matrix(0.866025 -0.5 0.866025 0.5 208.036 329.517)" fill="#FFB681" stroke="black" stroke-width="0.751469" stroke-linecap="round" stroke-linejoin="round"/>
<rect width="7.05033" height="7.05033" transform="matrix(0.866025 -0.5 0.866025 0.5 274.618 291.076)" fill="#FFB681" stroke="black" stroke-width="0.751469" stroke-linecap="round" stroke-linejoin="round"/>
<rect width="7.05033" height="7.05033" transform="matrix(0.866025 -0.5 0.866025 0.5 283.05 286.208)" fill="#FFB681" stroke="black" stroke-width="0.751469" stroke-linecap="round" stroke-linejoin="round"/>
<rect width="7.05033" height="7.05033" transform="matrix(0.866025 -0.5 0.866025 0.5 291.481 281.34)" fill="#FFB681" stroke="black" stroke-width="0.751469" stroke-linecap="round" stroke-linejoin="round"/>
<rect width="9.06471" height="7.05033" transform="matrix(0.866025 -0.5 0.866025 0.5 299.913 276.472)" fill="#FFB681" stroke="black" stroke-width="0.751469" stroke-linecap="round" stroke-linejoin="round"/>
<rect width="9.06471" height="7.05033" transform="matrix(0.866025 -0.5 0.866025 0.5 197.859 335.392)" fill="#FFB681" stroke="black" stroke-width="0.751469" stroke-linecap="round" stroke-linejoin="round"/>
<path fill-rule="evenodd" clip-rule="evenodd" d="M279.216 261.628C279.227 261.622 279.24 261.616 279.254 261.611L281.165 260.928C281.167 260.927 281.169 260.927 281.172 260.926C281.386 260.857 281.566 260.757 281.696 260.638C281.712 260.617 281.73 260.597 281.752 260.577L282.885 259.514C282.894 259.506 282.903 259.499 282.914 259.493C282.977 259.456 283.078 259.448 283.157 259.476C283.25 259.508 283.279 259.578 283.222 259.632L282.105 260.684L282.061 260.728C282.057 260.732 282.052 260.737 282.048 260.741C281.982 260.84 282.021 260.953 282.153 261.029L282.291 261.109C282.38 261.16 282.493 261.196 282.617 261.211L284.095 261.392C284.274 261.414 284.443 261.332 284.437 261.226L284.392 260.465C284.388 260.402 284.473 260.349 284.582 260.347C284.691 260.344 284.782 260.393 284.786 260.456L284.831 261.217C284.846 261.471 284.442 261.667 284.011 261.615L282.585 261.44L282.888 262.263C282.979 262.512 282.64 262.745 282.199 262.736L280.881 262.71C280.772 262.708 280.688 262.656 280.692 262.593C280.696 262.53 280.787 262.481 280.896 262.483L282.215 262.509C282.399 262.512 282.54 262.415 282.502 262.311L282.189 261.458C282.162 261.387 282.101 261.322 282.012 261.27L281.826 261.163C281.701 261.091 281.506 261.078 281.354 261.132L279.455 261.807C279.363 261.84 279.241 261.823 279.184 261.77C279.135 261.723 279.151 261.665 279.216 261.628Z" fill="black"/>
<rect width="20.5248" height="38.3815" rx="10.2624" transform="matrix(0.866025 -0.5 0.866025 0.5 325.099 237.243)" fill="white" stroke="black" stroke-width="0.751469" stroke-linecap="round" stroke-linejoin="round"/>
<path d="M335.032 239.76L350.496 248.688C355.405 251.522 363.363 251.522 368.271 248.688C370.455 247.427 371.667 245.819 371.908 244.171C371.908 237.422 368.77 234.257 367.201 233.519C362.929 231.252 353.341 226.406 349.157 225.151C344.973 223.895 337.997 227.525 335.032 229.497C330.124 232.331 330.124 236.926 335.032 239.76Z" stroke="black" stroke-width="0.751469" stroke-linecap="round" stroke-linejoin="round"/>
<rect x="310.83" y="12.3757" width="3.43261" height="45.2733" rx="1.7163" fill="#C4C4C4" stroke="black" stroke-width="0.751469"/>
<rect x="310.83" y="12.3757" width="3.43261" height="23.83" rx="1.7163" fill="#D9D9D9" stroke="black" stroke-width="0.751469"/>
<path d="M320.15 14.5499H325.855M304.46 14.5499H298.755M312.305 6.70524V1M302.677 4.92235L306.758 9.0029M317.852 9.0029L321.932 4.92235" stroke="black" stroke-width="0.645235" stroke-linecap="round" stroke-linejoin="round"/>
<rect x="372.702" y="69.0641" width="37.6435" height="10.3416" rx="2.06833" transform="rotate(-24.2866 372.702 69.0641)" fill="#53978E" stroke="black" stroke-width="0.594361" stroke-linecap="round" stroke-linejoin="round"/>
<rect x="371.001" y="65.2935" width="37.6435" height="10.3416" rx="2.06833" transform="rotate(-24.2866 371.001 65.2935)" fill="#ADCCBD" stroke="black" stroke-width="0.594361" stroke-linecap="round" stroke-linejoin="round"/>
<rect x="420.875" y="49.8026" width="37.6435" height="10.3416" rx="2.06833" transform="rotate(-10.4935 420.875 49.8026)" fill="#53978E" stroke="black" stroke-width="0.594361" stroke-linecap="round" stroke-linejoin="round"/>
<rect x="420.122" y="45.7351" width="37.6435" height="10.3416" rx="2.06833" transform="rotate(-10.4935 420.122 45.7351)" fill="#ADCCBD" stroke="black" stroke-width="0.594361" stroke-linecap="round" stroke-linejoin="round"/>
<rect x="469.822" y="42.3848" width="37.6435" height="10.3416" rx="2.06833" transform="rotate(-2.45712 469.822 42.3848)" fill="#53978E" stroke="black" stroke-width="0.594361" stroke-linecap="round" stroke-linejoin="round"/>
<rect x="469.646" y="38.2518" width="37.6435" height="10.3416" rx="2.06833" transform="rotate(-2.45712 469.646 38.2518)" fill="#ADCCBD" stroke="black" stroke-width="0.594361" stroke-linecap="round" stroke-linejoin="round"/>
<rect x="519.062" y="40.5707" width="37.6435" height="10.3416" rx="2.06833" transform="rotate(4.63867 519.062 40.5707)" fill="#53978E" stroke="black" stroke-width="0.594361" stroke-linecap="round" stroke-linejoin="round"/>
<rect x="519.397" y="36.4476" width="37.6435" height="10.3416" rx="2.06833" transform="rotate(4.63867 519.397 36.4476)" fill="#ADCCBD" stroke="black" stroke-width="0.594361" stroke-linecap="round" stroke-linejoin="round"/>
<rect x="568.729" y="44.3867" width="37.6435" height="10.3416" rx="2.06833" transform="rotate(12.8959 568.729 44.3867)" fill="#53978E" stroke="black" stroke-width="0.594361" stroke-linecap="round" stroke-linejoin="round"/>
<rect x="569.652" y="40.3545" width="37.6435" height="10.3416" rx="2.06833" transform="rotate(12.8959 569.652 40.3545)" fill="#ADCCBD" stroke="black" stroke-width="0.594361" stroke-linecap="round" stroke-linejoin="round"/>
<path fill-rule="evenodd" clip-rule="evenodd" d="M624.105 38.9363C623.619 37.9026 622.387 37.4584 621.353 37.9444L615.738 40.5839C614.704 41.0699 614.26 42.3019 614.746 43.3357L625.46 66.1307L602.665 76.8455C601.632 77.3314 601.187 78.5634 601.673 79.5972L604.313 85.2128C604.799 86.2466 606.031 86.6907 607.065 86.2047L631.338 74.7952C631.478 74.7627 631.616 74.7151 631.751 74.6516L637.367 72.012C637.894 71.7639 638.268 71.3215 638.444 70.8102C638.634 70.3052 638.628 69.7265 638.381 69.1993L635.741 63.5837C635.678 63.4487 635.601 63.3237 635.514 63.2095L624.105 38.9363Z" fill="#53978E"/>
<path d="M621.353 37.9444L621.48 38.2133L621.353 37.9444ZM624.105 38.9363L623.836 39.0628L624.105 38.9363ZM615.738 40.5839L615.611 40.315L615.611 40.315L615.738 40.5839ZM614.746 43.3357L615.015 43.2092L614.746 43.3357ZM625.46 66.1307L625.587 66.3996C625.735 66.3298 625.799 66.1528 625.729 66.0043L625.46 66.1307ZM602.665 76.8455L602.539 76.5766L602.539 76.5766L602.665 76.8455ZM601.673 79.5972L601.404 79.7236L601.673 79.5972ZM604.313 85.2128L604.582 85.0863L604.313 85.2128ZM607.065 86.2047L606.938 85.9358L607.065 86.2047ZM631.338 74.7952L631.27 74.5057C631.25 74.5105 631.23 74.5173 631.211 74.5262L631.338 74.7952ZM638.444 70.8102L638.165 70.7052L638.162 70.7139L638.444 70.8102ZM638.381 69.1993L638.65 69.0728L638.65 69.0728L638.381 69.1993ZM635.741 63.5837L635.472 63.7101L635.472 63.7101L635.741 63.5837ZM635.514 63.2095L635.246 63.3359C635.254 63.3548 635.265 63.3728 635.278 63.3894L635.514 63.2095ZM621.48 38.2133C622.365 37.7972 623.42 38.1775 623.836 39.0628L624.374 38.8099C623.818 37.6276 622.409 37.1197 621.227 37.6754L621.48 38.2133ZM615.864 40.8529L621.48 38.2133L621.227 37.6754L615.611 40.315L615.864 40.8529ZM615.015 43.2092C614.598 42.324 614.979 41.269 615.864 40.8529L615.611 40.315C614.429 40.8708 613.921 42.2797 614.477 43.4621L615.015 43.2092ZM625.729 66.0043L615.015 43.2092L614.477 43.4621L625.192 66.2571L625.729 66.0043ZM602.792 77.1145L625.587 66.3996L625.334 65.8617L602.539 76.5766L602.792 77.1145ZM601.942 79.4708C601.526 78.5855 601.907 77.5306 602.792 77.1145L602.539 76.5766C601.357 77.1323 600.849 78.5413 601.404 79.7236L601.942 79.4708ZM604.582 85.0863L601.942 79.4708L601.404 79.7236L604.044 85.3392L604.582 85.0863ZM606.938 85.9358C606.053 86.3519 604.998 85.9716 604.582 85.0863L604.044 85.3392C604.6 86.5215 606.009 87.0295 607.191 86.4737L606.938 85.9358ZM631.211 74.5262L606.938 85.9358L607.191 86.4737L631.464 75.0641L631.211 74.5262ZM631.625 74.3826C631.509 74.4372 631.39 74.4779 631.27 74.5057L631.405 75.0847C631.565 75.0474 631.723 74.993 631.878 74.9205L631.625 74.3826ZM637.24 71.743L631.625 74.3826L631.878 74.9205L637.493 72.2809L637.24 71.743ZM638.162 70.7139C638.012 71.1522 637.692 71.5306 637.24 71.743L637.493 72.2809C638.097 71.9973 638.525 71.4908 638.725 70.9066L638.162 70.7139ZM638.112 69.3257C638.324 69.7772 638.329 70.2723 638.166 70.7052L638.722 70.9153C638.94 70.3381 638.933 69.6757 638.65 69.0728L638.112 69.3257ZM635.472 63.7101L638.112 69.3257L638.65 69.0728L636.01 63.4573L635.472 63.7101ZM635.278 63.3894C635.352 63.487 635.418 63.5941 635.472 63.7101L636.01 63.4573C635.938 63.3032 635.85 63.1603 635.751 63.0296L635.278 63.3894ZM623.836 39.0628L635.246 63.3359L635.783 63.0831L624.374 38.8099L623.836 39.0628Z" fill="black"/>
<path fill-rule="evenodd" clip-rule="evenodd" d="M625.508 35.0451C625.022 34.0113 623.79 33.5672 622.756 34.0531L617.14 36.6927C616.107 37.1786 615.662 38.4106 616.148 39.4444L626.863 62.2394L604.068 72.9543C603.034 73.4402 602.59 74.6722 603.076 75.706L605.716 81.3215C606.202 82.3553 607.434 82.7994 608.467 82.3135L632.74 70.904C632.88 70.8715 633.019 70.8238 633.154 70.7603L638.769 68.1207C639.297 67.8727 639.671 67.4302 639.846 66.919C640.037 66.4139 640.031 65.8352 639.783 65.308L637.144 59.6925C637.08 59.5574 637.004 59.4324 636.917 59.3183L625.508 35.0451Z" fill="#ADCCBD"/>
<path d="M622.756 34.0531L622.882 34.3221L622.756 34.0531ZM625.508 35.0451L625.239 35.1715L625.508 35.0451ZM617.14 36.6927L617.014 36.4238L617.014 36.4238L617.14 36.6927ZM616.148 39.4444L615.879 39.5708L615.879 39.5708L616.148 39.4444ZM626.863 62.2394L626.99 62.5084C627.138 62.4386 627.202 62.2616 627.132 62.113L626.863 62.2394ZM604.068 72.9543L603.942 72.6853L603.942 72.6853L604.068 72.9543ZM603.076 75.706L602.807 75.8324L603.076 75.706ZM605.716 81.3215L605.985 81.1951L605.716 81.3215ZM608.467 82.3135L608.341 82.0446L608.467 82.3135ZM632.74 70.904L632.673 70.6145C632.653 70.6192 632.633 70.6261 632.614 70.635L632.74 70.904ZM633.154 70.7603L633.027 70.4914L633.154 70.7603ZM638.769 68.1207L638.896 68.3897L638.769 68.1207ZM639.846 66.919L639.568 66.8139L639.565 66.8226L639.846 66.919ZM639.783 65.308L639.514 65.4344L639.783 65.308ZM637.144 59.6925L637.413 59.5661L637.144 59.6925ZM636.917 59.3183L636.648 59.4447C636.657 59.4636 636.668 59.4815 636.681 59.4982L636.917 59.3183ZM622.882 34.3221C623.768 33.906 624.823 34.2863 625.239 35.1715L625.777 34.9187C625.221 33.7364 623.812 33.2284 622.629 33.7842L622.882 34.3221ZM617.267 36.9617L622.882 34.3221L622.629 33.7842L617.014 36.4238L617.267 36.9617ZM616.417 39.318C616.001 38.4327 616.382 37.3778 617.267 36.9617L617.014 36.4238C615.832 36.9795 615.324 38.3885 615.879 39.5708L616.417 39.318ZM627.132 62.113L616.417 39.318L615.879 39.5708L626.594 62.3659L627.132 62.113ZM604.195 73.2232L626.99 62.5084L626.737 61.9705L603.942 72.6853L604.195 73.2232ZM603.345 75.5796C602.929 74.6943 603.309 73.6393 604.195 73.2232L603.942 72.6853C602.759 73.2411 602.251 74.6501 602.807 75.8324L603.345 75.5796ZM605.985 81.1951L603.345 75.5796L602.807 75.8324L605.447 81.4479L605.985 81.1951ZM608.341 82.0446C607.456 82.4607 606.401 82.0804 605.985 81.1951L605.447 81.4479C606.003 82.6303 607.412 83.1382 608.594 82.5825L608.341 82.0446ZM632.614 70.635L608.341 82.0446L608.594 82.5825L632.867 71.1729L632.614 70.635ZM633.027 70.4914C632.911 70.5459 632.793 70.5867 632.673 70.6145L632.808 71.1934C632.968 71.1562 633.126 71.1017 633.28 71.0293L633.027 70.4914ZM638.643 67.8518L633.027 70.4914L633.28 71.0293L638.896 68.3897L638.643 67.8518ZM639.565 66.8226C639.415 67.2609 639.095 67.6394 638.643 67.8518L638.896 68.3897C639.499 68.106 639.927 67.5995 640.127 67.0153L639.565 66.8226ZM639.514 65.4344C639.727 65.8859 639.732 66.381 639.568 66.8139L640.124 67.024C640.342 66.4468 640.336 65.7845 640.052 65.1816L639.514 65.4344ZM636.875 59.8189L639.514 65.4344L640.052 65.1816L637.413 59.5661L636.875 59.8189ZM636.681 59.4982C636.755 59.5958 636.82 59.7029 636.875 59.8189L637.413 59.5661C637.34 59.412 637.253 59.2691 637.154 59.1383L636.681 59.4982ZM625.239 35.1715L636.648 59.4447L637.186 59.1918L625.777 34.9187L625.239 35.1715Z" fill="black"/>
</svg>
