<svg width="419" height="588" viewBox="0 0 419 588" fill="none" xmlns="http://www.w3.org/2000/svg">
<rect width="241.897" height="241.897" rx="8.42635" transform="matrix(0.866025 0.5 -0.866025 0.5 209.512 345.516)" fill="#5E6FDB" stroke="black" stroke-width="0.867606" stroke-linecap="round" stroke-linejoin="round"/>
<rect width="241.897" height="241.897" rx="8.42635" transform="matrix(0.866025 0.5 -0.866025 0.5 209.512 335.738)" fill="#B0B8ED" stroke="black" stroke-width="0.867606" stroke-linecap="round" stroke-linejoin="round"/>
<rect width="241.897" height="241.897" rx="8.42635" transform="matrix(0.866025 0.5 -0.866025 0.5 209.489 311.418)" stroke="black" stroke-width="0.867606" stroke-linecap="round" stroke-linejoin="round"/>
<g opacity="0.4">
<path d="M230.446 457.155L152.177 411.966L69.3761 439.839L70.261 459.26L148.53 504.449L230.446 457.155Z" fill="black"/>
<path opacity="0.6" d="M361.01 471.224L355.193 457.488L302.069 437.194L239.716 458.185L240.382 472.809L299.323 506.839L361.01 471.224Z" fill="black"/>
</g>
<rect width="82.1432" height="82.1432" transform="matrix(-0.578064 -0.815991 -0.995701 0.0926229 216.929 343.17)" fill="#B0B8ED" stroke="black" stroke-width="0.867606" stroke-linecap="round" stroke-linejoin="round"/>
<rect width="65.5879" height="65.6973" transform="matrix(-0.578064 -0.815991 -0.995701 0.0926229 203.957 337.178)" fill="#5E6FDB" stroke="black" stroke-width="0.867606" stroke-linecap="round" stroke-linejoin="round"/>
<rect width="61.0949" height="61.3218" transform="matrix(-0.578064 -0.815991 -0.995701 0.0926229 199.602 337.582)" fill="white" stroke="black" stroke-width="0.867606" stroke-linecap="round" stroke-linejoin="round"/>
<rect width="82.1432" height="82.1432" transform="matrix(-0.995701 0.0926229 -0.417637 0.908614 216.929 343.17)" fill="#5E6FDB" stroke="black" stroke-width="0.867606" stroke-linecap="round" stroke-linejoin="round"/>
<rect width="65.7386" height="65.4982" transform="matrix(-0.995701 0.0926229 -0.417637 0.908614 205.287 351.491)" fill="#5E6FDB" stroke="black" stroke-width="0.867606" stroke-linecap="round" stroke-linejoin="round"/>
<rect width="62.4218" height="61.622" transform="matrix(-0.995701 0.0926229 -0.417637 0.908614 201.984 351.799)" fill="white" stroke="black" stroke-width="0.867606" stroke-linecap="round" stroke-linejoin="round"/>
<rect width="82.1432" height="82.1432" transform="matrix(0.578064 0.815991 -0.417637 0.908614 87.6543 283.75)" fill="#B0B8ED" stroke="black" stroke-width="0.867606" stroke-linecap="round" stroke-linejoin="round"/>
<rect width="65.6874" height="65.4968" transform="matrix(0.578064 0.815991 -0.417637 0.908614 88.9336 298.028)" fill="#5E6FDB" stroke="black" stroke-width="0.867606" stroke-linecap="round" stroke-linejoin="round"/>
<rect width="61.7585" height="61.866" transform="matrix(0.578064 0.815991 -0.417637 0.908614 91.2061 301.233)" fill="white" stroke="black" stroke-width="0.867606" stroke-linecap="round" stroke-linejoin="round"/>
<path d="M141.313 305.185L141.313 305.185L121.43 303.382C121.233 303.365 121.05 303.365 120.881 303.383C119.915 303.463 119.419 304.077 119.751 304.896C120.136 305.845 121.49 306.709 122.774 306.824L142.667 308.619C142.746 308.628 142.826 308.637 142.905 308.645C144.186 308.82 145.515 309.573 146.177 310.508L147.416 312.257C147.953 313.015 148.211 313.781 148.16 314.465L147.481 323.503C147.417 324.358 146.106 324.586 144.822 323.963L133.013 318.232C131.731 317.609 130.375 317.693 129.984 318.419C129.593 319.145 130.316 320.238 131.598 320.86L143.407 326.592C147.715 328.683 152.114 327.921 152.33 325.043L152.884 317.678C152.911 317.312 153.519 317.256 154.028 317.571L164.304 323.929C168.319 326.414 173.187 326.314 174.183 323.729L176.913 316.645C177.209 315.876 176.39 314.792 175.082 314.224C173.775 313.656 172.475 313.819 172.178 314.588L169.449 321.672C169.152 322.442 167.699 322.471 166.506 321.733L153.898 313.931C152.944 313.341 152.152 312.624 151.615 311.867L150.376 310.118C149.713 309.182 149.877 308.291 150.767 307.914C150.825 307.892 150.883 307.871 150.941 307.849L165.989 302.804C166.96 302.479 166.999 301.486 166.074 300.587C165.277 299.811 164.026 299.359 163.073 299.458C162.902 299.472 162.74 299.504 162.592 299.553L147.563 304.604L147.563 304.604L147.563 304.604L147.563 304.604L147.562 304.604L147.562 304.604C147.47 304.635 147.381 304.668 147.294 304.702C145.738 305.251 143.773 305.434 141.68 305.224C141.558 305.209 141.436 305.196 141.314 305.185L141.314 305.185L141.313 305.185L141.313 305.185Z" fill="#B0B8ED" stroke="black" stroke-width="0.867606" stroke-linecap="round" stroke-linejoin="round"/>
<path d="M102.217 346.587L102.217 346.587L102.218 346.588L102.218 346.588L114.741 357.639C114.864 357.746 114.977 357.876 115.079 358.024C115.664 358.832 115.909 360.198 115.624 361.322C115.294 362.625 114.378 363.108 113.578 362.401L101.048 351.329C100.998 351.288 100.948 351.246 100.898 351.204C100.078 350.585 99.1706 350.908 98.662 352.014L97.7189 354.066C97.3086 354.959 97.0709 356.065 97.0347 357.251L96.5583 372.863C96.5127 374.358 97.3137 375.685 98.183 375.548L106.084 374.307C106.933 374.174 107.758 375.263 107.927 376.739C108.095 378.215 107.544 379.52 106.695 379.654L98.7941 380.895C95.9224 381.346 93.2765 376.973 93.4277 372.02L93.8583 357.908L86.082 361.651C83.3526 362.965 80.351 359.366 79.9909 354.352L79.0001 340.56C78.8936 339.078 79.5037 337.856 80.3628 337.83C81.2219 337.805 82.0046 338.985 82.1111 340.468L83.1019 354.26C83.2109 355.778 84.1211 356.867 84.9451 356.47L93.5478 352.329C94.2017 352.014 94.7675 351.372 95.1778 350.479L96.121 348.427C96.6295 347.321 96.6162 345.698 96.0968 344.427C96.0626 344.35 96.0287 344.273 95.995 344.195L87.1536 325.101C86.5888 323.881 86.6629 322.209 87.319 321.366C87.885 320.64 88.6985 320.767 89.274 321.598C89.378 321.742 89.4744 321.907 89.5606 322.094L98.3893 341.184L98.3895 341.184L98.3895 341.184L98.3897 341.184L98.3898 341.184C98.4436 341.301 98.4958 341.419 98.5462 341.538C99.4592 343.562 100.664 345.262 101.987 346.394C102.064 346.455 102.141 346.52 102.217 346.587L102.217 346.587Z" fill="#B0B8ED" stroke="black" stroke-width="0.867606" stroke-linecap="round" stroke-linejoin="round"/>
<path d="M160.629 373.436L160.629 373.436L160.628 373.436L160.628 373.436L144.086 371.127C143.925 371.104 143.753 371.103 143.574 371.122C142.579 371.204 141.384 371.907 140.716 372.855C139.942 373.954 140.172 374.964 141.23 375.111L157.791 377.41C157.855 377.422 157.92 377.433 157.984 377.443C158.987 377.662 159.334 378.561 158.825 379.668L157.882 381.72C157.471 382.613 156.787 383.513 155.91 384.313L144.372 394.84C143.267 395.849 141.738 396.104 141.276 395.356L137.073 388.551C136.622 387.82 135.258 387.903 134.028 388.736C132.797 389.57 132.166 390.838 132.618 391.569L136.82 398.373C138.348 400.847 143.39 400.007 147.05 396.667L157.48 387.151L159.703 395.49C160.483 398.417 165.169 398.352 169.208 395.361L180.321 387.132C181.515 386.247 182.046 384.988 181.506 384.32C180.966 383.651 179.56 383.826 178.366 384.71L167.253 392.939C166.03 393.845 164.611 393.863 164.375 392.98L161.916 383.754C161.729 383.053 161.848 382.205 162.259 381.313L163.202 379.261C163.71 378.154 164.951 377.108 166.254 376.674C166.334 376.65 166.415 376.625 166.496 376.601L186.745 370.877C188.038 370.511 189.259 369.367 189.471 368.32C189.654 367.417 189.027 366.883 188.022 366.987C187.846 367.002 187.657 367.036 187.46 367.092L167.223 372.822L167.222 372.822L167.222 372.822L167.222 372.823L167.222 372.823C167.098 372.857 166.975 372.895 166.851 372.934C164.721 373.559 162.646 373.752 160.925 373.485C160.829 373.466 160.73 373.45 160.629 373.436L160.629 373.436Z" fill="#5E6FDB" stroke="black" stroke-width="0.867606" stroke-linecap="round" stroke-linejoin="round"/>
<rect width="82.1432" height="82.1432" transform="matrix(-0.996117 -0.0880445 -0.574307 0.81864 341.325 216.239)" fill="#BDDCD8" stroke="black" stroke-width="0.867606" stroke-linecap="round" stroke-linejoin="round"/>
<rect width="65.5879" height="65.6973" transform="matrix(-0.996117 -0.0880445 -0.574307 0.81864 328.358 222.242)" fill="#55A398" stroke="black" stroke-width="0.867606" stroke-linecap="round" stroke-linejoin="round"/>
<rect width="61.0949" height="61.3218" transform="matrix(-0.996117 -0.0880445 -0.574307 0.81864 325.846 225.822)" fill="white" stroke="black" stroke-width="0.867606" stroke-linecap="round" stroke-linejoin="round"/>
<path d="M275.342 259.963C273.68 259.817 272.419 259.31 271.559 258.444C270.682 257.577 270.058 255.964 269.686 253.605C267.119 254.599 265.058 255.271 263.501 255.621C261.954 255.958 260.605 256.076 259.453 255.974C256.64 255.726 254.912 254.826 254.27 253.276C253.611 251.725 254.117 249.759 255.786 247.379C257.294 245.229 259.301 243.54 261.805 242.311C264.303 241.067 266.687 240.545 268.957 240.746C270.454 240.878 271.618 241.312 272.449 242.046C273.263 242.778 273.797 243.909 274.051 245.44L274.42 247.605L286.611 242.63C285.215 241.63 283.308 241.024 280.89 240.81L283.892 236.531C288.318 236.922 291.348 238.094 292.982 240.048L302.271 236.26L298.259 241.979L294.698 243.431C295.143 245.71 294.341 248.31 292.292 251.231C290.244 254.151 287.665 256.407 284.556 257.999C281.44 259.576 278.369 260.231 275.342 259.963ZM287.604 250.665C288.771 249.002 289.187 247.388 288.853 245.822L275.074 251.453L275.176 252.13C275.535 253.885 276.677 254.847 278.602 255.018C280.264 255.164 281.921 254.844 283.574 254.057C285.227 253.27 286.57 252.139 287.604 250.665ZM262.549 251.337C263.931 251.459 266.156 250.916 269.222 249.708L268.926 247.291L268.75 246.608C268.433 245.69 267.567 245.168 266.152 245.043C265.215 244.96 264.213 245.18 263.147 245.704C262.064 246.225 261.21 246.932 260.584 247.825C259.911 248.785 259.77 249.584 260.161 250.221C260.552 250.859 261.348 251.231 262.549 251.337Z" fill="#BDDCD8"/>
<path d="M271.559 258.444L272.449 257.892L272.447 257.89L271.559 258.444ZM269.686 253.605L270.679 253.253C270.652 253.083 270.515 252.96 270.299 252.912C270.084 252.864 269.809 252.897 269.539 253.001L269.686 253.605ZM263.501 255.621L263.393 256.302L263.404 256.3L263.501 255.621ZM254.27 253.276L255.239 252.842L255.238 252.839L254.27 253.276ZM261.805 242.311L262.098 242.851L262.108 242.846L261.805 242.311ZM272.449 242.046L273.322 241.477L273.32 241.475L272.449 242.046ZM274.051 245.44L273.059 245.794L273.059 245.796L274.051 245.44ZM274.42 247.605L273.428 247.961C273.457 248.133 273.6 248.256 273.822 248.301C274.044 248.345 274.325 248.307 274.598 248.196L274.42 247.605ZM286.611 242.63L286.789 243.221C287.118 243.087 287.395 242.862 287.527 242.623C287.659 242.384 287.629 242.162 287.447 242.031L286.611 242.63ZM280.89 240.81L280.026 240.734C279.75 241.126 279.914 241.478 280.391 241.52L280.89 240.81ZM283.892 236.531L284.39 235.82C283.913 235.778 283.303 236.062 283.028 236.454L283.892 236.531ZM292.982 240.048L292.07 240.576C292.256 240.798 292.707 240.825 293.16 240.64L292.982 240.048ZM302.271 236.26L303.135 236.336C303.329 236.059 303.31 235.791 303.087 235.647C302.863 235.504 302.475 235.512 302.093 235.668L302.271 236.26ZM298.259 241.979L298.436 242.571C298.725 242.453 298.976 242.264 299.123 242.055L298.259 241.979ZM294.698 243.431L294.521 242.839C294.001 243.051 293.644 243.47 293.708 243.796L294.698 243.431ZM284.556 257.999L284.87 258.529L284.877 258.525L284.556 257.999ZM288.853 245.822L289.842 245.45C289.807 245.283 289.662 245.165 289.441 245.124C289.22 245.082 288.943 245.121 288.674 245.231L288.853 245.822ZM275.074 251.453L274.895 250.862C274.386 251.07 274.032 251.479 274.081 251.802L275.074 251.453ZM275.176 252.13L274.183 252.479C274.184 252.485 274.185 252.492 274.186 252.498L275.176 252.13ZM269.222 249.708L269.379 250.308C269.893 250.106 270.257 249.698 270.217 249.37L269.222 249.708ZM268.926 247.291L269.92 246.953C269.918 246.937 269.915 246.921 269.911 246.905L268.926 247.291ZM268.75 246.608L269.735 246.222C269.733 246.212 269.73 246.203 269.727 246.194L268.75 246.608ZM263.147 245.704L263.428 246.249L263.44 246.243L263.147 245.704ZM275.84 259.253C274.345 259.121 273.221 258.669 272.449 257.892L270.669 258.997C271.617 259.951 273.015 260.512 274.843 260.674L275.84 259.253ZM272.447 257.89C271.659 257.11 271.048 255.595 270.679 253.253L268.693 253.956C269.068 256.333 269.705 258.044 270.671 258.999L272.447 257.89ZM269.539 253.001C267.007 253.981 265.038 254.619 263.598 254.943L263.404 256.3C265.078 255.923 267.231 255.216 269.833 254.208L269.539 253.001ZM263.609 254.94C262.177 255.253 260.965 255.354 259.952 255.264L258.955 256.685C260.245 256.799 261.732 256.664 263.393 256.302L263.609 254.94ZM259.952 255.264C257.326 255.032 255.805 254.207 255.239 252.842L253.3 253.71C254.019 255.445 255.954 256.419 258.955 256.685L259.952 255.264ZM255.238 252.839C254.655 251.464 255.08 249.694 256.65 247.456L254.922 247.303C253.153 249.823 252.568 251.985 253.302 253.713L255.238 252.839ZM256.65 247.456C258.053 245.456 259.871 243.943 262.098 242.851L261.512 241.771C258.73 243.136 256.535 245.003 254.922 247.303L256.65 247.456ZM262.108 242.846C264.338 241.735 266.432 241.277 268.459 241.456L269.455 240.036C266.942 239.814 264.267 240.399 261.502 241.776L262.108 242.846ZM268.459 241.456C269.802 241.575 270.836 241.961 271.578 242.616L273.32 241.475C272.4 240.662 271.106 240.182 269.455 240.036L268.459 241.456ZM271.575 242.614C272.302 243.268 272.813 244.312 273.059 245.794L275.044 245.085C274.781 243.507 274.223 242.288 273.322 241.477L271.575 242.614ZM273.059 245.796L273.428 247.961L275.412 247.249L275.043 245.084L273.059 245.796ZM274.598 248.196L286.789 243.221L286.433 242.038L274.242 247.013L274.598 248.196ZM287.447 242.031C285.958 240.965 283.93 240.324 281.388 240.1L280.391 241.52C282.687 241.723 284.473 242.296 285.775 243.228L287.447 242.031ZM281.754 240.886L284.756 236.607L283.028 236.454L280.026 240.734L281.754 240.886ZM283.394 237.241C287.684 237.62 290.541 238.748 292.07 240.576L293.895 239.52C292.155 237.44 288.951 236.223 284.39 235.82L283.394 237.241ZM293.16 240.64L302.449 236.851L302.093 235.668L292.805 239.456L293.16 240.64ZM301.407 236.183L297.394 241.903L299.123 242.055L303.135 236.336L301.407 236.183ZM298.081 241.387L294.521 242.839L294.875 244.022L298.436 242.571L298.081 241.387ZM293.708 243.796C294.124 245.928 293.382 248.37 291.428 251.154L293.157 251.307C295.301 248.25 296.162 245.492 295.688 243.065L293.708 243.796ZM291.428 251.154C289.469 253.947 287.061 256.026 284.235 257.474L284.877 258.525C288.268 256.789 291.018 254.355 293.157 251.307L291.428 251.154ZM284.243 257.47C281.416 258.9 278.639 259.501 275.84 259.253L274.843 260.674C278.099 260.961 281.465 260.252 284.87 258.529L284.243 257.47ZM288.469 250.742C289.756 248.907 290.202 247.137 289.842 245.45L287.864 246.193C288.173 247.639 287.787 249.097 286.74 250.589L288.469 250.742ZM288.674 245.231L274.895 250.862L275.253 252.044L289.032 246.413L288.674 245.231ZM274.081 251.802L274.183 252.479L276.169 251.781L276.067 251.105L274.081 251.802ZM274.186 252.498C274.572 254.384 275.833 255.527 278.104 255.728L279.1 254.307C277.521 254.168 276.498 253.385 276.166 251.762L274.186 252.498ZM278.104 255.728C279.969 255.893 281.904 255.532 283.848 254.606L283.3 253.508C281.938 254.156 280.558 254.436 279.1 254.307L278.104 255.728ZM283.848 254.606C285.799 253.677 287.333 252.36 288.469 250.742L286.74 250.589C285.808 251.918 284.655 252.863 283.3 253.508L283.848 254.606ZM262.051 252.047C263.747 252.197 266.27 251.533 269.379 250.308L269.065 249.109C266.041 250.3 264.115 250.721 263.048 250.627L262.051 252.047ZM270.217 249.37L269.92 246.953L267.931 247.629L268.227 250.047L270.217 249.37ZM269.911 246.905L269.735 246.222L267.764 246.994L267.94 247.678L269.911 246.905ZM269.727 246.194C269.35 245.102 268.302 244.479 266.651 244.333L265.654 245.753C266.832 245.857 267.516 246.277 267.773 247.022L269.727 246.194ZM266.651 244.333C265.465 244.228 264.175 244.515 262.853 245.164L263.44 246.243C264.25 245.845 264.965 245.692 265.654 245.753L266.651 244.333ZM262.865 245.158C261.509 245.812 260.458 246.695 259.72 247.748L261.448 247.901C261.962 247.169 262.62 246.639 263.428 246.249L262.865 245.158ZM259.72 247.748C258.921 248.887 258.721 249.898 259.217 250.706L261.105 249.737C260.818 249.269 260.9 248.682 261.448 247.901L259.72 247.748ZM259.217 250.706C259.697 251.489 260.673 251.926 262.051 252.047L263.048 250.627C262.024 250.536 261.407 250.229 261.105 249.737L259.217 250.706Z" fill="black"/>
<rect width="82.1432" height="82.1432" transform="matrix(-0.574307 0.81864 0.421809 0.906685 341.325 216.239)" fill="#BDDCD8" stroke="black" stroke-width="0.867606" stroke-linecap="round" stroke-linejoin="round"/>
<rect width="65.7386" height="65.4982" transform="matrix(-0.574307 0.81864 0.421809 0.906685 340.126 230.5)" fill="#55A398" stroke="black" stroke-width="0.867606" stroke-linecap="round" stroke-linejoin="round"/>
<rect width="62.4218" height="61.622" transform="matrix(-0.574307 0.81864 0.421809 0.906685 338.22 233.214)" fill="white" stroke="black" stroke-width="0.867606" stroke-linecap="round" stroke-linejoin="round"/>
<path d="M328.423 304.699C327.719 303.186 327.336 301.429 327.272 299.428C327.202 297.411 327.531 294.439 328.259 290.511C326.708 290.058 325.509 289.5 324.664 288.837C323.829 288.16 323.167 287.297 322.679 286.249C321.488 283.688 321.041 280.963 321.338 278.075C321.627 275.171 322.607 272.529 324.276 270.15C325.785 268 327.345 266.946 328.958 266.988C330.574 267.001 331.862 268.041 332.823 270.108C333.457 271.471 333.824 273.04 333.925 274.815C334.018 276.575 333.831 278.734 333.365 281.292L332.708 284.917L340.176 286.675C339.919 284.054 339.278 281.642 338.254 279.441L341.256 275.161C343.13 279.19 344.069 283.343 344.072 287.623L349.76 288.966L345.748 294.685L343.568 294.169C342.903 298.031 341.546 301.422 339.497 304.342C337.449 307.263 335.41 308.748 333.383 308.799C331.358 308.821 329.705 307.454 328.423 304.699ZM337.57 299.842C338.736 298.179 339.542 296.01 339.985 293.336L331.542 291.362L331.331 292.485C330.826 295.47 330.982 297.839 331.797 299.591C332.501 301.103 333.38 301.892 334.436 301.956C335.491 302.021 336.536 301.316 337.57 299.842ZM325.861 281.49C326.446 282.748 327.669 283.631 329.531 284.141L330.316 280.182L330.496 278.992C330.701 277.33 330.504 275.855 329.905 274.567C329.508 273.714 328.966 273.278 328.279 273.26C327.586 273.228 326.926 273.658 326.3 274.55C325.627 275.51 325.258 276.633 325.194 277.92C325.13 279.207 325.352 280.397 325.861 281.49Z" fill="#BDDCD8"/>
<path d="M327.272 299.428L327.89 299.264L327.889 299.259L327.272 299.428ZM328.259 290.511L328.847 290.738C328.9 290.454 328.884 290.157 328.803 289.917C328.723 289.677 328.585 289.514 328.422 289.466L328.259 290.511ZM324.664 288.837L324.355 289.804L324.361 289.808L324.664 288.837ZM321.338 278.075L321.946 278.155L321.947 278.149L321.338 278.075ZM328.958 266.988L328.887 268.048L328.893 268.048L328.958 266.988ZM333.925 274.815L334.54 274.614L334.54 274.608L333.925 274.815ZM333.365 281.292L332.776 281.071L332.776 281.073L333.365 281.292ZM332.708 284.917L332.119 284.698C332.067 284.987 332.085 285.287 332.17 285.528C332.254 285.769 332.397 285.928 332.564 285.967L332.708 284.917ZM340.176 286.675L340.032 287.726C340.233 287.773 340.446 287.641 340.597 287.374C340.749 287.108 340.82 286.741 340.786 286.399L340.176 286.675ZM338.254 279.441L337.888 278.654C337.613 279.046 337.553 279.716 337.755 280.151L338.254 279.441ZM341.256 275.161L341.754 274.451C341.552 274.016 341.165 273.982 340.89 274.375L341.256 275.161ZM344.072 287.623L343.453 287.731C343.454 288.218 343.65 288.608 343.928 288.673L344.072 287.623ZM349.76 288.966L350.126 289.752C350.32 289.476 350.414 289.047 350.366 288.652C350.319 288.258 350.139 287.971 349.905 287.915L349.76 288.966ZM345.748 294.685L345.604 295.735C345.781 295.777 345.967 295.681 346.114 295.472L345.748 294.685ZM343.568 294.169L343.712 293.119C343.394 293.044 343.071 293.415 342.976 293.966L343.568 294.169ZM333.383 308.799L333.325 309.859L333.33 309.859L333.383 308.799ZM339.985 293.336L340.579 293.528C340.626 293.243 340.605 292.948 340.52 292.713C340.435 292.478 340.293 292.324 340.129 292.285L339.985 293.336ZM331.542 291.362L331.685 290.311C331.373 290.238 331.056 290.594 330.955 291.131L331.542 291.362ZM331.331 292.485L330.744 292.254C330.742 292.265 330.74 292.276 330.738 292.287L331.331 292.485ZM329.531 284.141L329.375 285.188C329.686 285.273 330.008 284.925 330.115 284.388L329.531 284.141ZM330.316 280.182L330.9 280.43C330.905 280.403 330.91 280.376 330.914 280.349L330.316 280.182ZM330.496 278.992L331.094 279.158C331.096 279.142 331.099 279.125 331.101 279.109L330.496 278.992ZM328.279 273.26L328.2 274.32L328.208 274.32L328.279 273.26ZM328.921 303.989C328.288 302.628 327.947 301.061 327.89 299.264L326.655 299.591C326.725 301.798 327.15 303.744 327.925 305.409L328.921 303.989ZM327.889 299.259C327.826 297.447 328.124 294.636 328.847 290.738L327.672 290.285C326.938 294.242 326.577 297.375 326.655 299.597L327.889 299.259ZM328.422 289.466C326.891 289.019 325.748 288.479 324.967 287.865L324.361 289.808C325.27 290.522 326.524 291.098 328.097 291.557L328.422 289.466ZM324.973 287.87C324.199 287.243 323.607 286.461 323.178 285.539L322.181 286.959C322.727 288.134 323.458 289.077 324.356 289.804L324.973 287.87ZM323.178 285.539C322.066 283.149 321.685 280.699 321.946 278.155L320.729 277.995C320.397 281.227 320.91 284.228 322.181 286.959L323.178 285.539ZM321.947 278.149C322.204 275.576 323.072 273.175 324.642 270.936L323.911 269.363C322.142 271.883 321.051 274.765 320.728 278L321.947 278.149ZM324.642 270.936C326.045 268.937 327.453 268.01 328.887 268.048L329.03 265.928C327.238 265.881 325.524 267.063 323.911 269.363L324.642 270.936ZM328.893 268.048C330.335 268.06 331.467 268.973 332.325 270.818L333.322 269.398C332.257 267.11 330.812 265.943 329.023 265.928L328.893 268.048ZM332.325 270.818C332.894 272.041 333.22 273.437 333.309 275.021L334.54 274.608C334.429 272.643 334.021 270.9 333.322 269.398L332.325 270.818ZM333.309 275.015C333.392 276.587 333.228 278.593 332.776 281.071L333.953 281.512C334.434 278.874 334.643 276.562 334.54 274.614L333.309 275.015ZM332.776 281.073L332.119 284.698L333.297 285.135L333.954 281.51L332.776 281.073ZM332.564 285.967L340.032 287.726L340.32 285.625L332.852 283.866L332.564 285.967ZM340.786 286.399C340.511 283.601 339.828 281.044 338.752 278.73L337.755 280.151C338.727 282.24 339.326 284.506 339.566 286.952L340.786 286.399ZM338.62 280.227L341.622 275.948L340.89 274.375L337.888 278.654L338.62 280.227ZM340.758 275.871C342.574 279.777 343.451 283.728 343.453 287.731L344.69 287.515C344.687 282.959 343.685 278.602 341.754 274.451L340.758 275.871ZM343.928 288.673L349.616 290.016L349.905 287.915L344.216 286.572L343.928 288.673ZM349.394 288.179L345.382 293.898L346.114 295.472L350.126 289.752L349.394 288.179ZM345.892 293.635L343.712 293.119L343.423 295.22L345.604 295.735L345.892 293.635ZM342.976 293.966C342.354 297.578 341.085 300.771 339.131 303.556L339.863 305.129C342.008 302.072 343.452 298.483 344.159 294.372L342.976 293.966ZM339.131 303.556C337.172 306.348 335.28 307.693 333.436 307.739L333.33 309.859C335.541 309.803 337.725 308.177 339.863 305.129L339.131 303.556ZM333.441 307.739C331.605 307.759 330.106 306.536 328.921 303.989L327.925 305.409C329.303 308.372 331.112 309.883 333.325 309.859L333.441 307.739ZM337.936 300.629C339.223 298.795 340.101 296.409 340.579 293.528L339.392 293.143C338.982 295.612 338.25 297.564 337.204 299.056L337.936 300.629ZM340.129 292.285L331.685 290.311L331.398 292.412L339.842 294.386L340.129 292.285ZM330.955 291.131L330.744 292.254L331.917 292.715L332.129 291.592L330.955 291.131ZM330.738 292.287C330.196 295.495 330.337 298.234 331.299 300.301L332.295 298.88C331.626 297.443 331.457 295.444 331.923 292.682L330.738 292.287ZM331.299 300.301C332.089 301.999 333.11 302.939 334.352 303.015L334.52 300.897C333.65 300.844 332.912 300.207 332.295 298.88L331.299 300.301ZM334.352 303.015C335.598 303.092 336.8 302.247 337.936 300.629L337.204 299.056C336.271 300.385 335.384 300.95 334.52 300.897L334.352 303.015ZM325.362 282.2C326.081 283.744 327.487 284.671 329.375 285.188L329.688 283.093C327.852 282.591 326.811 281.751 326.359 280.78L325.362 282.2ZM330.115 284.388L330.9 280.43L329.733 279.934L328.948 283.893L330.115 284.388ZM330.914 280.349L331.094 279.158L329.899 278.825L329.719 280.016L330.914 280.349ZM331.101 279.109C331.344 277.133 331.102 275.36 330.403 273.857L329.407 275.277C329.906 276.35 330.058 277.527 329.892 278.875L331.101 279.109ZM330.403 273.857C329.901 272.777 329.202 272.222 328.351 272.201L328.208 274.32C328.73 274.333 329.115 274.65 329.407 275.277L330.403 273.857ZM328.358 272.201C327.489 272.16 326.673 272.71 325.934 273.763L326.666 275.337C327.179 274.605 327.682 274.295 328.2 274.32L328.358 272.201ZM325.934 273.763C325.135 274.902 324.659 276.308 324.578 277.937L325.81 277.904C325.857 276.959 326.118 276.118 326.666 275.337L325.934 273.763ZM324.578 277.937C324.499 279.517 324.779 280.946 325.362 282.2L326.359 280.78C325.925 279.848 325.76 278.897 325.81 277.904L324.578 277.937Z" fill="black"/>
<path d="M328.423 304.699C327.719 303.186 327.336 301.429 327.272 299.428C327.202 297.411 327.531 294.439 328.259 290.511C326.708 290.058 325.509 289.5 324.664 288.837C323.829 288.16 323.167 287.297 322.679 286.249C321.488 283.688 321.041 280.963 321.338 278.075C321.627 275.171 322.607 272.529 324.276 270.15C325.785 268 327.345 266.946 328.958 266.988C330.574 267.001 331.862 268.041 332.823 270.108C333.457 271.471 333.824 273.04 333.925 274.815C334.018 276.575 333.831 278.734 333.365 281.292L332.708 284.917L340.176 286.675C339.919 284.054 339.278 281.642 338.254 279.441L341.256 275.161C343.13 279.19 344.069 283.343 344.072 287.623L349.76 288.966L345.748 294.685L343.568 294.169C342.903 298.031 341.546 301.422 339.497 304.342C337.449 307.263 335.41 308.748 333.383 308.799C331.358 308.821 329.705 307.454 328.423 304.699ZM337.57 299.842C338.736 298.179 339.542 296.01 339.985 293.336L331.542 291.362L331.331 292.485C330.826 295.47 330.982 297.839 331.797 299.591C332.501 301.103 333.38 301.892 334.436 301.956C335.491 302.021 336.536 301.316 337.57 299.842ZM325.861 281.49C326.446 282.748 327.669 283.631 329.531 284.141L330.316 280.182L330.496 278.992C330.701 277.33 330.504 275.855 329.905 274.567C329.508 273.714 328.966 273.278 328.279 273.26C327.586 273.228 326.926 273.658 326.3 274.55C325.627 275.51 325.258 276.633 325.194 277.92C325.13 279.207 325.352 280.397 325.861 281.49Z" fill="#BDDCD8"/>
<path d="M327.272 299.428L327.89 299.264L327.889 299.259L327.272 299.428ZM328.259 290.511L328.847 290.738C328.9 290.454 328.884 290.157 328.803 289.917C328.723 289.677 328.585 289.514 328.422 289.466L328.259 290.511ZM324.664 288.837L324.355 289.804L324.361 289.808L324.664 288.837ZM321.338 278.075L321.946 278.155L321.947 278.149L321.338 278.075ZM328.958 266.988L328.887 268.048L328.893 268.048L328.958 266.988ZM333.925 274.815L334.54 274.614L334.54 274.608L333.925 274.815ZM333.365 281.292L332.776 281.071L332.776 281.073L333.365 281.292ZM332.708 284.917L332.119 284.698C332.067 284.987 332.085 285.287 332.17 285.528C332.254 285.769 332.397 285.928 332.564 285.967L332.708 284.917ZM340.176 286.675L340.032 287.726C340.233 287.773 340.446 287.641 340.597 287.374C340.749 287.108 340.82 286.741 340.786 286.399L340.176 286.675ZM338.254 279.441L337.888 278.654C337.613 279.046 337.553 279.716 337.755 280.151L338.254 279.441ZM341.256 275.161L341.754 274.451C341.552 274.016 341.165 273.982 340.89 274.375L341.256 275.161ZM344.072 287.623L343.453 287.731C343.454 288.218 343.65 288.608 343.928 288.673L344.072 287.623ZM349.76 288.966L350.126 289.752C350.32 289.476 350.414 289.047 350.366 288.652C350.319 288.258 350.139 287.971 349.905 287.915L349.76 288.966ZM345.748 294.685L345.604 295.735C345.781 295.777 345.967 295.681 346.114 295.472L345.748 294.685ZM343.568 294.169L343.712 293.119C343.394 293.044 343.071 293.415 342.976 293.966L343.568 294.169ZM333.383 308.799L333.325 309.859L333.33 309.859L333.383 308.799ZM339.985 293.336L340.579 293.528C340.626 293.243 340.605 292.948 340.52 292.713C340.435 292.478 340.293 292.324 340.129 292.285L339.985 293.336ZM331.542 291.362L331.685 290.311C331.373 290.238 331.056 290.594 330.955 291.131L331.542 291.362ZM331.331 292.485L330.744 292.254C330.742 292.265 330.74 292.276 330.738 292.287L331.331 292.485ZM329.531 284.141L329.375 285.188C329.686 285.273 330.008 284.925 330.115 284.388L329.531 284.141ZM330.316 280.182L330.9 280.43C330.905 280.403 330.91 280.376 330.914 280.349L330.316 280.182ZM330.496 278.992L331.094 279.158C331.096 279.142 331.099 279.125 331.101 279.109L330.496 278.992ZM328.279 273.26L328.2 274.32L328.208 274.32L328.279 273.26ZM328.921 303.989C328.288 302.628 327.947 301.061 327.89 299.264L326.655 299.591C326.725 301.798 327.15 303.744 327.925 305.409L328.921 303.989ZM327.889 299.259C327.826 297.447 328.124 294.636 328.847 290.738L327.672 290.285C326.938 294.242 326.577 297.375 326.655 299.597L327.889 299.259ZM328.422 289.466C326.891 289.019 325.748 288.479 324.967 287.865L324.361 289.808C325.27 290.522 326.524 291.098 328.097 291.557L328.422 289.466ZM324.973 287.87C324.199 287.243 323.607 286.461 323.178 285.539L322.181 286.959C322.727 288.134 323.458 289.077 324.356 289.804L324.973 287.87ZM323.178 285.539C322.066 283.149 321.685 280.699 321.946 278.155L320.729 277.995C320.397 281.227 320.91 284.228 322.181 286.959L323.178 285.539ZM321.947 278.149C322.204 275.576 323.072 273.175 324.642 270.936L323.911 269.363C322.142 271.883 321.051 274.765 320.728 278L321.947 278.149ZM324.642 270.936C326.045 268.937 327.453 268.01 328.887 268.048L329.03 265.928C327.238 265.881 325.524 267.063 323.911 269.363L324.642 270.936ZM328.893 268.048C330.335 268.06 331.467 268.973 332.325 270.818L333.322 269.398C332.257 267.11 330.812 265.943 329.023 265.928L328.893 268.048ZM332.325 270.818C332.894 272.041 333.22 273.437 333.309 275.021L334.54 274.608C334.429 272.643 334.021 270.9 333.322 269.398L332.325 270.818ZM333.309 275.015C333.392 276.587 333.228 278.593 332.776 281.071L333.953 281.512C334.434 278.874 334.643 276.562 334.54 274.614L333.309 275.015ZM332.776 281.073L332.119 284.698L333.297 285.135L333.954 281.51L332.776 281.073ZM332.564 285.967L340.032 287.726L340.32 285.625L332.852 283.866L332.564 285.967ZM340.786 286.399C340.511 283.601 339.828 281.044 338.752 278.73L337.755 280.151C338.727 282.24 339.326 284.506 339.566 286.952L340.786 286.399ZM338.62 280.227L341.622 275.948L340.89 274.375L337.888 278.654L338.62 280.227ZM340.758 275.871C342.574 279.777 343.451 283.728 343.453 287.731L344.69 287.515C344.687 282.959 343.685 278.602 341.754 274.451L340.758 275.871ZM343.928 288.673L349.616 290.016L349.905 287.915L344.216 286.572L343.928 288.673ZM349.394 288.179L345.382 293.898L346.114 295.472L350.126 289.752L349.394 288.179ZM345.892 293.635L343.712 293.119L343.423 295.22L345.604 295.735L345.892 293.635ZM342.976 293.966C342.354 297.578 341.085 300.771 339.131 303.556L339.863 305.129C342.008 302.072 343.452 298.483 344.159 294.372L342.976 293.966ZM339.131 303.556C337.172 306.348 335.28 307.693 333.436 307.739L333.33 309.859C335.541 309.803 337.725 308.177 339.863 305.129L339.131 303.556ZM333.441 307.739C331.605 307.759 330.106 306.536 328.921 303.989L327.925 305.409C329.303 308.372 331.112 309.883 333.325 309.859L333.441 307.739ZM337.936 300.629C339.223 298.795 340.101 296.409 340.579 293.528L339.392 293.143C338.982 295.612 338.25 297.564 337.204 299.056L337.936 300.629ZM340.129 292.285L331.685 290.311L331.398 292.412L339.842 294.386L340.129 292.285ZM330.955 291.131L330.744 292.254L331.917 292.715L332.129 291.592L330.955 291.131ZM330.738 292.287C330.196 295.495 330.337 298.234 331.299 300.301L332.295 298.88C331.626 297.443 331.457 295.444 331.923 292.682L330.738 292.287ZM331.299 300.301C332.089 301.999 333.11 302.939 334.352 303.015L334.52 300.897C333.65 300.844 332.912 300.207 332.295 298.88L331.299 300.301ZM334.352 303.015C335.598 303.092 336.8 302.247 337.936 300.629L337.204 299.056C336.271 300.385 335.384 300.95 334.52 300.897L334.352 303.015ZM325.362 282.2C326.081 283.744 327.487 284.671 329.375 285.188L329.688 283.093C327.852 282.591 326.811 281.751 326.359 280.78L325.362 282.2ZM330.115 284.388L330.9 280.43L329.733 279.934L328.948 283.893L330.115 284.388ZM330.914 280.349L331.094 279.158L329.899 278.825L329.719 280.016L330.914 280.349ZM331.101 279.109C331.344 277.133 331.102 275.36 330.403 273.857L329.407 275.277C329.906 276.35 330.058 277.527 329.892 278.875L331.101 279.109ZM330.403 273.857C329.901 272.777 329.202 272.222 328.351 272.201L328.208 274.32C328.73 274.333 329.115 274.65 329.407 275.277L330.403 273.857ZM328.358 272.201C327.489 272.16 326.673 272.71 325.934 273.763L326.666 275.337C327.179 274.605 327.682 274.295 328.2 274.32L328.358 272.201ZM325.934 273.763C325.135 274.902 324.659 276.308 324.578 277.937L325.81 277.904C325.857 276.959 326.118 276.118 326.666 275.337L325.934 273.763ZM324.578 277.937C324.499 279.517 324.779 280.946 325.362 282.2L326.359 280.78C325.925 279.848 325.76 278.897 325.81 277.904L324.578 277.937Z" fill="black"/>
<rect width="82.1432" height="82.1432" transform="matrix(0.996117 0.0880446 0.421809 0.906685 212.325 276.253)" fill="#55A398" stroke="black" stroke-width="0.867606" stroke-linecap="round" stroke-linejoin="round"/>
<rect width="65.6874" height="65.4968" transform="matrix(0.996117 0.0880446 0.421809 0.906685 224.033 284.524)" fill="#55A398" stroke="black" stroke-width="0.867606" stroke-linecap="round" stroke-linejoin="round"/>
<rect width="61.7585" height="61.866" transform="matrix(0.996117 0.0880446 0.421809 0.906685 227.946 284.87)" fill="white" stroke="black" stroke-width="0.867606" stroke-linecap="round" stroke-linejoin="round"/>
<path d="M261.049 321.668C260.346 320.156 260.154 318.81 260.473 317.632C260.786 316.439 261.871 315.092 263.728 313.591C261.584 311.865 259.971 310.415 258.889 309.243C257.824 308.072 257.047 306.962 256.56 305.914C255.368 303.353 255.283 301.407 256.305 300.076C257.319 298.729 259.274 298.184 262.17 298.44C264.786 298.671 267.252 299.564 269.568 301.119C271.894 302.66 273.538 304.464 274.5 306.53C275.134 307.893 275.34 309.117 275.12 310.204C274.893 311.275 274.18 312.303 272.982 313.289L271.291 314.69L281.695 322.761C281.863 321.052 281.435 319.097 280.411 316.896L285.618 317.356C287.492 321.385 287.992 324.595 287.117 326.988L295.042 333.138L288.083 332.522L285.045 330.165C283.294 331.69 280.641 332.295 277.088 331.981C273.534 331.667 270.29 330.562 267.357 328.666C264.434 326.756 262.331 324.424 261.049 321.668ZM275.233 327.639C277.257 327.818 278.863 327.371 280.052 326.299L268.285 317.181L267.75 317.608C266.41 318.796 266.147 320.266 266.963 322.018C267.666 323.531 268.772 324.806 270.28 325.844C271.789 326.882 273.44 327.48 275.233 327.639ZM262.124 306.276C262.709 307.534 264.291 309.189 266.871 311.241L268.816 309.776L269.319 309.282C269.956 308.548 269.975 307.538 269.376 306.25C268.979 305.396 268.287 304.638 267.301 303.977C266.308 303.3 265.269 302.914 264.183 302.818C263.015 302.715 262.252 302.992 261.896 303.65C261.539 304.308 261.615 305.183 262.124 306.276Z" fill="#55A398"/>
<path d="M260.473 317.632L261.397 318.127L261.398 318.124L260.473 317.632ZM263.728 313.591L264.529 314.275C264.663 314.166 264.701 313.986 264.635 313.775C264.568 313.565 264.403 313.343 264.177 313.161L263.728 313.591ZM258.889 309.243L258.246 309.49L258.253 309.498L258.889 309.243ZM256.305 300.076L257.166 300.698L257.167 300.696L256.305 300.076ZM269.568 301.119L269.247 301.643L269.257 301.649L269.568 301.119ZM275.12 310.204L276.049 310.676L276.05 310.673L275.12 310.204ZM272.982 313.289L272.179 312.607L272.178 312.607L272.982 313.289ZM271.291 314.69L270.487 314.009C270.352 314.12 270.317 314.306 270.389 314.52C270.462 314.735 270.635 314.959 270.868 315.14L271.291 314.69ZM281.695 322.761L281.272 323.21C281.553 323.428 281.886 323.556 282.159 323.551C282.432 323.546 282.61 323.408 282.632 323.185L281.695 322.761ZM280.411 316.896L280.045 316.109C279.567 316.067 279.344 316.385 279.546 316.82L280.411 316.896ZM285.618 317.356L286.482 317.433C286.28 316.998 285.729 316.612 285.252 316.57L285.618 317.356ZM287.117 326.988L286.203 326.461C286.104 326.733 286.306 327.137 286.693 327.437L287.117 326.988ZM295.042 333.138L295.408 333.924C295.744 333.954 295.968 333.803 295.98 333.538C295.992 333.273 295.792 332.941 295.465 332.688L295.042 333.138ZM288.083 332.522L287.659 332.972C287.905 333.163 288.194 333.287 288.449 333.309L288.083 332.522ZM285.045 330.165L285.469 329.715C285.025 329.371 284.484 329.272 284.234 329.489L285.045 330.165ZM267.357 328.666L267.055 329.202L267.063 329.207L267.357 328.666ZM280.052 326.299L280.868 326.969C280.995 326.855 281.025 326.67 280.95 326.458C280.876 326.246 280.704 326.026 280.475 325.848L280.052 326.299ZM268.285 317.181L268.708 316.731C268.273 316.394 267.743 316.292 267.487 316.496L268.285 317.181ZM267.75 317.608L266.952 316.922C266.946 316.926 266.941 316.931 266.937 316.935L267.75 317.608ZM266.871 311.241L266.43 311.677C266.861 312.02 267.397 312.132 267.661 311.933L266.871 311.241ZM268.816 309.776L269.606 310.468C269.619 310.458 269.631 310.447 269.643 310.436L268.816 309.776ZM269.319 309.282L270.147 309.942C270.154 309.935 270.16 309.928 270.167 309.921L269.319 309.282ZM267.301 303.977L266.97 304.494L266.98 304.501L267.301 303.977ZM261.913 321.744C261.281 320.384 261.11 319.184 261.397 318.127L259.55 317.138C259.197 318.436 259.411 319.927 260.185 321.592L261.913 321.744ZM261.398 318.124C261.679 317.052 262.685 315.765 264.529 314.275L262.927 312.907C261.057 314.419 259.893 315.827 259.549 317.141L261.398 318.124ZM264.177 313.161C262.063 311.459 260.526 310.072 259.525 308.988L258.253 309.498C259.417 310.759 261.106 312.27 263.279 314.02L264.177 313.161ZM259.533 308.996C258.546 307.911 257.853 306.912 257.424 305.99L255.695 305.837C256.242 307.012 257.101 308.232 258.246 309.49L259.533 308.996ZM257.424 305.99C256.312 303.6 256.266 301.871 257.166 300.698L255.444 299.453C254.301 300.943 254.425 303.106 255.695 305.837L257.424 305.99ZM257.167 300.696C258.066 299.503 259.811 298.986 262.536 299.227L261.804 297.653C258.737 297.382 256.572 297.956 255.442 299.456L257.167 300.696ZM262.536 299.227C264.969 299.442 267.188 300.26 269.247 301.643L269.889 300.595C267.316 298.868 264.602 297.901 261.804 297.653L262.536 299.227ZM269.257 301.649C271.334 303.025 272.777 304.608 273.635 306.454L275.364 306.607C274.299 304.319 272.455 302.295 269.88 300.589L269.257 301.649ZM273.635 306.454C274.204 307.677 274.387 308.765 274.19 309.735L276.05 310.673C276.294 309.47 276.063 308.109 275.364 306.607L273.635 306.454ZM274.191 309.731C273.988 310.688 273.339 311.652 272.179 312.607L273.785 313.971C275.021 312.954 275.797 311.862 276.049 310.676L274.191 309.731ZM272.178 312.607L270.487 314.009L272.096 315.371L273.786 313.97L272.178 312.607ZM270.868 315.14L281.272 323.21L282.119 322.311L271.714 314.24L270.868 315.14ZM282.632 323.185C282.81 321.362 282.351 319.286 281.275 316.972L279.546 316.82C280.518 318.909 280.915 320.742 280.759 322.336L282.632 323.185ZM280.777 317.683L285.984 318.143L285.252 316.57L280.045 316.109L280.777 317.683ZM284.754 317.28C286.57 321.185 287.021 324.223 286.203 326.461L288.03 327.514C288.962 324.967 288.413 321.584 286.482 317.433L284.754 317.28ZM286.693 327.437L294.618 333.587L295.465 332.688L287.54 326.538L286.693 327.437ZM294.676 332.351L287.717 331.736L288.449 333.309L295.408 333.924L294.676 332.351ZM288.506 332.073L285.469 329.715L284.622 330.614L287.659 332.972L288.506 332.073ZM284.234 329.489C282.596 330.916 280.109 331.494 276.722 331.195L277.453 332.768C281.173 333.097 283.992 332.464 285.857 330.84L284.234 329.489ZM276.722 331.195C273.323 330.894 270.319 329.849 267.652 328.125L267.063 329.207C270.262 331.275 273.744 332.44 277.453 332.768L276.722 331.195ZM267.659 328.129C265.007 326.397 263.099 324.292 261.913 321.744L260.185 321.592C261.564 324.555 263.861 327.115 267.055 329.202L267.659 328.129ZM275.599 328.425C277.831 328.623 279.588 328.124 280.868 326.969L279.236 325.628C278.138 326.618 276.682 327.013 274.867 326.852L275.599 328.425ZM280.475 325.848L268.708 316.731L267.863 317.632L279.63 326.749L280.475 325.848ZM267.487 316.496L266.952 316.922L268.549 318.294L269.084 317.867L267.487 316.496ZM266.937 316.935C265.496 318.212 265.137 319.875 266.098 321.942L267.827 322.095C267.158 320.657 267.324 319.38 268.564 318.281L266.937 316.935ZM266.098 321.942C266.888 323.64 268.168 325.135 269.942 326.356L270.619 325.332C269.376 324.477 268.444 323.422 267.827 322.095L266.098 321.942ZM269.942 326.356C271.723 327.581 273.63 328.251 275.599 328.425L274.867 326.852C273.249 326.709 271.855 326.183 270.619 325.332L269.942 326.356ZM261.259 306.2C261.978 307.744 263.814 309.596 266.43 311.677L267.311 310.804C264.768 308.782 263.44 307.324 262.988 306.353L261.259 306.2ZM267.661 311.933L269.606 310.468L268.025 309.083L266.08 310.548L267.661 311.933ZM269.643 310.436L270.147 309.942L268.492 308.621L267.988 309.115L269.643 310.436ZM270.167 309.921C270.924 309.049 270.94 307.829 270.24 306.326L268.512 306.173C269.011 307.246 268.989 308.048 268.472 308.642L270.167 309.921ZM270.24 306.326C269.738 305.247 268.845 304.273 267.622 303.453L266.98 304.501C267.73 305.004 268.22 305.546 268.512 306.173L270.24 306.326ZM267.633 303.46C266.388 302.613 265.098 302.145 263.817 302.032L264.549 303.605C265.439 303.684 266.228 303.988 266.97 304.494L267.633 303.46ZM263.817 302.032C262.431 301.909 261.456 302.242 261.004 303.074L262.787 304.225C263.049 303.743 263.598 303.521 264.549 303.605L263.817 302.032ZM261.004 303.074C260.566 303.882 260.676 304.946 261.259 306.2L262.988 306.353C262.554 305.421 262.512 304.733 262.787 304.225L261.004 303.074Z" fill="black"/>
<g opacity="0.4">
<path opacity="0.5" d="M299.611 233.33L289.255 226.832L246.777 228.66L213.496 276.099L266.331 280.769L299.611 233.33Z" fill="black"/>
<g opacity="0.6">
<rect width="56.6807" height="59.0279" transform="matrix(0.995701 -0.0926229 -0.417637 0.908614 157.637 348.213)" fill="black"/>
<path d="M216.147 343.358L204.46 326.86L153.057 322.687L146.76 332.228L158.447 348.725L216.147 343.358Z" fill="black"/>
</g>
</g>
<rect width="82.1432" height="82.1432" transform="matrix(-0.52436 -0.851497 -0.999598 0.028361 302.091 103.753)" fill="#FFB5B5" stroke="black" stroke-width="0.867606" stroke-linecap="round" stroke-linejoin="round"/>
<rect width="65.5879" height="65.6973" transform="matrix(-0.52436 -0.851497 -0.999598 0.028361 289.531 96.938)" fill="#FF8484" stroke="black" stroke-width="0.867606" stroke-linecap="round" stroke-linejoin="round"/>
<rect width="61.0949" height="61.3218" transform="matrix(-0.52436 -0.851497 -0.999598 0.028361 285.159 97.0612)" fill="white" stroke="black" stroke-width="0.867606" stroke-linecap="round" stroke-linejoin="round"/>
<path d="M221.321 63.7488L221.321 63.7489L221.327 63.7522C222.274 64.2542 223.217 64.4878 224.129 64.4619C225.053 64.4357 225.689 64.1591 225.997 63.6214C226.327 63.0683 226.174 62.3178 225.623 61.4238C225.079 60.5401 224.322 59.8137 223.335 59.2991C222.387 58.797 221.438 58.5654 220.514 58.5916C219.586 58.6179 218.958 58.9032 218.675 59.4585C218.388 60.0193 218.544 60.7507 219.073 61.6097C219.62 62.4991 220.362 63.2312 221.321 63.7488ZM239.393 63.2361L239.393 63.2361L239.399 63.2394C240.346 63.7414 241.289 63.975 242.201 63.9491C243.125 63.9229 243.761 63.6463 244.069 63.1086C244.4 62.5556 244.246 61.805 243.696 60.9111C243.151 60.0274 242.394 59.3009 241.407 58.7863C240.459 58.2842 239.51 58.0526 238.586 58.0788C237.658 58.1052 237.03 58.3905 236.747 58.9458C236.46 59.5066 236.616 60.2379 237.145 61.0969C237.693 61.9863 238.434 62.7184 239.393 63.2361Z" fill="#FFB5B5" stroke="black" stroke-width="0.867606" stroke-linecap="round" stroke-linejoin="round"/>
<path d="M248.525 85.9105C248.65 86.1145 248.946 86.2744 249.186 86.2676L253.486 86.1456C253.725 86.1388 253.817 85.9679 253.692 85.7639L244.066 70.1337C243.941 69.9297 243.645 69.7698 243.405 69.7766L239.106 69.8986C238.866 69.9054 238.774 70.0763 238.899 70.2803L248.525 85.9105ZM239.499 86.1666C239.625 86.3706 239.921 86.5305 240.16 86.5237L244.439 86.4023C244.678 86.3955 244.771 86.2246 244.645 86.0206L235.02 70.3904C234.894 70.1864 234.598 70.0265 234.359 70.0333L230.08 70.1547C229.841 70.1615 229.748 70.3324 229.874 70.5364L239.499 86.1666Z" fill="#FFB5B5" stroke="black" stroke-width="0.867606" stroke-linecap="round" stroke-linejoin="round"/>
<rect width="82.1432" height="82.1432" transform="matrix(-0.999598 0.028361 -0.475238 0.879858 302.091 103.753)" fill="#FF8484" stroke="black" stroke-width="0.867606" stroke-linecap="round" stroke-linejoin="round"/>
<rect width="65.7386" height="65.4982" transform="matrix(-0.999598 0.028361 -0.475238 0.879858 289.938 111.307)" fill="#FF8484" stroke="black" stroke-width="0.867606" stroke-linecap="round" stroke-linejoin="round"/>
<rect width="82.1432" height="82.1432" transform="matrix(0.52436 0.851497 -0.475238 0.879858 176.908 36.1372)" fill="#FFB5B5" stroke="black" stroke-width="0.867606" stroke-linecap="round" stroke-linejoin="round"/>
<rect width="65.6874" height="65.4968" transform="matrix(0.52436 0.851497 -0.475238 0.879858 177.267 50.467)" fill="#FF8484" stroke="black" stroke-width="0.867606" stroke-linecap="round" stroke-linejoin="round"/>
<rect width="61.7585" height="61.866" transform="matrix(0.52436 0.851497 -0.475238 0.879858 179.327 53.8126)" fill="white" stroke="black" stroke-width="0.867606" stroke-linecap="round" stroke-linejoin="round"/>
<rect width="62.4218" height="61.622" transform="matrix(-0.999598 0.028361 -0.475238 0.879858 286.622 111.401)" fill="white" stroke="black" stroke-width="0.867606" stroke-linecap="round" stroke-linejoin="round"/>
<path d="M223.989 150.433L223.989 150.433L223.995 150.429C224.94 149.838 225.64 149.11 226.092 148.273C226.549 147.427 226.631 146.71 226.307 146.154C225.981 145.569 225.226 145.316 224.131 145.347C223.05 145.378 222.002 145.683 221.026 146.303C220.081 146.896 219.378 147.63 218.921 148.477C218.462 149.327 218.392 150.041 218.745 150.585C219.101 151.134 219.84 151.375 220.892 151.345C221.98 151.314 223.026 151.026 223.989 150.433ZM232.98 133.787L232.98 133.787L232.986 133.783C233.93 133.192 234.631 132.464 235.083 131.628C235.54 130.781 235.622 130.064 235.297 129.508C234.972 128.923 234.216 128.67 233.122 128.701C232.041 128.732 230.993 129.037 230.017 129.658C229.072 130.25 228.369 130.985 227.912 131.831C227.453 132.682 227.383 133.396 227.736 133.939C228.092 134.489 228.831 134.729 229.882 134.699C230.971 134.669 232.017 134.381 232.98 133.787Z" fill="#FF8484" stroke="black" stroke-width="0.867606" stroke-linecap="round" stroke-linejoin="round"/>
<path d="M258.323 137.37C258.562 137.363 258.849 137.187 258.962 136.976L261.102 133.015C261.215 132.805 261.114 132.639 260.874 132.646L241.673 133.191C241.434 133.198 241.148 133.374 241.034 133.585L238.894 137.545C238.781 137.756 238.882 137.921 239.122 137.915L258.323 137.37ZM253.832 145.683C254.072 145.676 254.358 145.5 254.472 145.289L256.601 141.348C256.715 141.137 256.613 140.972 256.373 140.979L237.173 141.524C236.933 141.53 236.647 141.707 236.533 141.918L234.404 145.858C234.29 146.069 234.392 146.235 234.632 146.228L253.832 145.683Z" fill="#FF8484" stroke="black" stroke-width="0.867606" stroke-linecap="round" stroke-linejoin="round"/>
<path d="M168.796 110.032L168.796 110.032L168.8 110.031C169.435 109.999 169.981 109.551 170.427 108.725C170.879 107.889 171.105 106.911 171.083 105.809C171.067 104.664 170.746 103.626 170.18 102.706C169.619 101.796 169.005 101.317 168.346 101.365C167.711 101.398 167.163 101.854 166.711 102.69C166.257 103.53 166.038 104.515 166.078 105.624C166.118 106.743 166.434 107.748 166.979 108.633C167.542 109.548 168.151 110.05 168.796 110.032ZM177.664 93.6136L177.664 93.6137L177.668 93.6134C178.303 93.5807 178.849 93.1334 179.295 92.3072C179.747 91.4711 179.973 90.4929 179.951 89.3908C179.935 88.2456 179.614 87.2084 179.047 86.2881C178.487 85.3784 177.873 84.8991 177.214 84.9468C176.579 84.9804 176.03 85.4361 175.579 86.2722C175.125 87.1123 174.906 88.0971 174.946 89.2057C174.986 90.325 175.302 91.3304 175.846 92.2147C176.41 93.1304 177.019 93.6319 177.664 93.6136Z" fill="#FFB5B5" stroke="black" stroke-width="0.867606" stroke-linecap="round" stroke-linejoin="round"/>
<path d="M189.665 121.199C189.79 121.403 189.984 121.397 190.098 121.187L192.208 117.28C192.322 117.07 192.312 116.733 192.187 116.529L182.253 100.397C182.127 100.193 181.933 100.199 181.819 100.41L179.709 104.316C179.595 104.527 179.605 104.863 179.73 105.067L189.665 121.199ZM185.236 129.398C185.362 129.602 185.556 129.597 185.67 129.386L187.769 125.499C187.883 125.288 187.873 124.952 187.748 124.748L177.813 108.616C177.688 108.412 177.494 108.417 177.38 108.628L175.28 112.515C175.166 112.726 175.176 113.062 175.302 113.266L185.236 129.398Z" fill="#FFB5B5" stroke="black" stroke-width="0.867606" stroke-linecap="round" stroke-linejoin="round"/>
<path d="M261.736 39.0794C253.573 37.7141 237.188 34.9651 236.95 34.8922L211.219 35.6587L236.481 41.1409C242.395 40.9919 254.338 40.6866 254.796 40.6575C255.255 40.6284 255.542 40.8989 255.628 41.0378L260.009 48.0388L268.005 49.2446L261.736 39.0794Z" fill="white" fill-opacity="0.6"/>
<path d="M135.53 340.032C127.76 342.203 112.086 346.545 111.55 346.545L144.721 327.434L148.494 329.625V336.807L145.999 335.407L144.538 334.737L135.53 340.032Z" fill="white" fill-opacity="0.6"/>
</svg>
