<svg width="419" height="341" viewBox="0 0 419 341" fill="none" xmlns="http://www.w3.org/2000/svg">
<rect width="241.705" height="241.705" rx="8.41968" transform="matrix(0.866025 0.5 -0.866025 0.5 209.346 98.9434)" fill="#5E6FDB" stroke="black" stroke-width="0.86692" stroke-linecap="round" stroke-linejoin="round"/>
<rect width="241.705" height="241.705" rx="8.41968" transform="matrix(0.866025 0.5 -0.866025 0.5 209.346 83.6716)" fill="#B0B8ED" stroke="black" stroke-width="0.86692" stroke-linecap="round" stroke-linejoin="round"/>
<rect width="241.705" height="241.705" rx="8.41968" transform="matrix(0.866025 0.5 -0.866025 0.5 209.322 59.3716)" stroke="black" stroke-width="0.86692" stroke-linecap="round" stroke-linejoin="round"/>
<g opacity="0.6">
<path d="M234.527 215.43L156.32 170.277L73.5846 198.129L74.4688 217.534L152.676 262.687L234.527 215.43Z" fill="black"/>
<path d="M346.692 234.439L338.974 216.213L268.485 189.286L185.749 217.138L186.633 236.543L264.84 281.696L346.692 234.439Z" fill="black"/>
<rect width="107.803" height="86.7075" transform="matrix(-0.866025 -0.5 -0.866025 0.5 291.758 226.365)" fill="black"/>
</g>
<rect width="82.0782" height="82.0782" transform="matrix(-0.866025 -0.5 -0.866025 0.5 215.607 115.929)" fill="#B0B8ED" stroke="black" stroke-width="0.86692" stroke-linecap="round" stroke-linejoin="round"/>
<rect width="65.536" height="65.6453" transform="matrix(-0.866025 -0.5 -0.866025 0.5 201.33 115.902)" fill="#5E6FDB" stroke="black" stroke-width="0.86692" stroke-linecap="round" stroke-linejoin="round"/>
<rect width="61.0465" height="61.2732" transform="matrix(-0.866025 -0.5 -0.866025 0.5 197.545 118.086)" fill="white" stroke="black" stroke-width="0.86692" stroke-linecap="round" stroke-linejoin="round"/>
<rect width="82.0782" height="82.0782" transform="matrix(-0.866025 0.5 2.20305e-08 1 215.607 115.929)" fill="#5E6FDB" stroke="black" stroke-width="0.86692" stroke-linecap="round" stroke-linejoin="round"/>
<rect width="65.6866" height="65.4464" transform="matrix(-0.866025 0.5 2.20305e-08 1 208.508 128.342)" fill="#5E6FDB" stroke="black" stroke-width="0.86692" stroke-linecap="round" stroke-linejoin="round"/>
<rect width="62.3724" height="61.5732" transform="matrix(-0.866025 0.5 2.20305e-08 1 205.641 129.999)" fill="white" stroke="black" stroke-width="0.86692" stroke-linecap="round" stroke-linejoin="round"/>
<rect width="82.0782" height="82.0782" transform="matrix(0.866025 0.5 -2.20305e-08 1 73.4434 115.929)" fill="#B0B8ED" stroke="black" stroke-width="0.86692" stroke-linecap="round" stroke-linejoin="round"/>
<rect width="65.6354" height="65.445" transform="matrix(0.866025 0.5 -2.20305e-08 1 80.5625 128.357)" fill="#5E6FDB" stroke="black" stroke-width="0.86692" stroke-linecap="round" stroke-linejoin="round"/>
<rect width="61.7096" height="61.8171" transform="matrix(0.866025 0.5 -2.20305e-08 1 83.9629 130.319)" fill="white" stroke="black" stroke-width="0.86692" stroke-linecap="round" stroke-linejoin="round"/>
<path d="M131.103 112.998L131.103 112.998L112.298 119.659C112.113 119.724 111.946 119.802 111.8 119.888C110.956 120.364 110.762 121.129 111.405 121.733C112.151 122.434 113.74 122.653 114.955 122.223L133.764 115.55C133.84 115.525 133.916 115.5 133.991 115.475C135.227 115.099 136.748 115.228 137.74 115.801L139.595 116.872C140.398 117.335 140.953 117.924 141.191 118.566L144.346 127.054C144.645 127.857 143.55 128.612 142.124 128.582L129.012 128.306C127.588 128.276 126.391 128.918 126.339 129.74C126.287 130.563 127.4 131.253 128.824 131.283L141.936 131.559C146.72 131.66 150.396 129.132 149.392 126.429L146.82 119.511C146.693 119.168 147.221 118.863 147.815 118.937L159.798 120.421C164.48 121.001 168.858 118.879 168.684 116.117L168.206 108.546C168.154 107.724 166.957 107.082 165.533 107.112C164.109 107.142 162.997 107.832 163.049 108.655L163.527 116.225C163.579 117.048 162.272 117.68 160.88 117.508L146.178 115.687C145.066 115.549 144.047 115.229 143.244 114.765L141.389 113.694C140.397 113.121 140.174 112.243 140.824 111.53C140.868 111.486 140.912 111.443 140.955 111.399L152.512 100.539C153.258 99.8379 152.878 98.9205 151.664 98.4898C150.617 98.1183 149.292 98.2304 148.468 98.7175C148.319 98.8019 148.185 98.898 148.071 99.0051L148.523 99.1653L148.071 99.0051L136.534 109.862L136.534 109.862L136.534 109.862L136.533 109.862L136.533 109.862C136.463 109.929 136.395 109.996 136.331 110.064C135.148 111.211 133.44 112.197 131.452 112.88C131.335 112.918 131.218 112.957 131.104 112.997L131.103 112.997L131.103 112.998L131.103 112.998Z" fill="#B0B8ED" stroke="black" stroke-width="0.86692" stroke-linecap="round" stroke-linejoin="round"/>
<path d="M129.334 171.917C130.203 172.407 130.995 173.545 131.206 174.684C131.45 176.004 130.819 176.825 129.798 176.517L113.802 171.694C113.739 171.677 113.676 171.66 113.613 171.643C112.611 171.423 111.922 172.095 111.922 173.312L111.922 175.569C111.922 176.55 112.167 177.653 112.63 178.746L118.712 193.118C119.295 194.495 120.576 195.365 121.308 194.878L127.963 190.454C128.678 189.979 129.882 190.623 130.651 191.893C131.42 193.163 131.464 194.578 130.749 195.053L124.094 199.477C121.675 201.085 117.448 198.219 115.518 193.659L110.02 180.667L104.522 187.31C102.592 189.642 98.365 187.627 95.946 183.226L89.2909 171.118C88.5757 169.816 88.6196 168.452 89.3889 168.07C90.1582 167.689 91.3616 168.434 92.0768 169.736L98.7319 181.844C99.4642 183.176 100.745 183.785 101.328 183.081L107.41 175.732C107.872 175.173 108.118 174.354 108.118 173.372L108.118 171.116C108.118 169.899 107.429 168.431 106.427 167.494C106.363 167.438 106.3 167.382 106.237 167.326L90.242 153.68C89.2203 152.808 88.5899 151.259 88.834 150.22C89.0445 149.324 89.8364 149.101 90.7055 149.615C90.8598 149.702 91.0165 149.812 91.1725 149.945L107.154 163.592L107.154 163.592L107.155 163.593L107.155 163.593L107.155 163.593C107.253 163.676 107.349 163.761 107.445 163.849C109.118 165.306 110.921 166.347 112.595 166.822C112.691 166.845 112.787 166.872 112.885 166.901L112.885 166.901L112.885 166.901L112.885 166.901L112.885 166.901L128.867 171.708C129.023 171.755 129.18 171.826 129.334 171.917Z" fill="#B0B8ED" stroke="black" stroke-width="0.86692" stroke-linecap="round" stroke-linejoin="round"/>
<path d="M160.674 171.917C159.804 172.407 159.012 173.545 158.802 174.684C158.558 176.004 159.188 176.825 160.21 176.517L176.206 171.694C176.268 171.677 176.331 171.66 176.395 171.643C177.397 171.423 178.086 172.095 178.086 173.312L178.086 175.569C178.086 176.55 177.84 177.653 177.378 178.746L171.296 193.118C170.713 194.495 169.432 195.365 168.7 194.878L162.045 190.454C161.33 189.979 160.126 190.623 159.357 191.893C158.588 193.163 158.544 194.578 159.259 195.053L165.914 199.477C168.333 201.085 172.56 198.219 174.49 193.659L179.988 180.667L185.486 187.31C187.416 189.642 191.643 187.627 194.062 183.226L200.717 171.118C201.432 169.816 201.388 168.452 200.619 168.07C199.85 167.689 198.646 168.434 197.931 169.736L191.276 181.844C190.544 183.176 189.263 183.785 188.68 183.081L182.598 175.732C182.136 175.173 181.89 174.354 181.89 173.372L181.89 171.116C181.89 169.899 182.579 168.431 183.581 167.494C183.644 167.438 183.707 167.382 183.77 167.326L199.766 153.68C200.787 152.808 201.418 151.259 201.174 150.22C200.963 149.324 200.171 149.101 199.302 149.615C199.148 149.702 198.991 149.812 198.835 149.945L182.853 163.592L182.853 163.592L182.853 163.593L182.853 163.593L182.853 163.593C182.755 163.676 182.659 163.761 182.563 163.849C180.889 165.306 179.086 166.347 177.413 166.822C177.317 166.845 177.221 166.872 177.123 166.901L177.123 166.901L177.123 166.901L177.122 166.901L177.122 166.901L161.141 171.708C160.985 171.755 160.828 171.826 160.674 171.917Z" fill="#5E6FDB" stroke="black" stroke-width="0.86692" stroke-linecap="round" stroke-linejoin="round"/>
<rect width="82.0782" height="82.0782" transform="matrix(-0.866025 -0.5 -0.866025 0.5 339.186 134.311)" fill="#BDDCD8" stroke="black" stroke-width="0.86692" stroke-linecap="round" stroke-linejoin="round"/>
<rect width="65.536" height="65.6453" transform="matrix(-0.866025 -0.5 -0.866025 0.5 324.908 134.284)" fill="#55A398" stroke="black" stroke-width="0.86692" stroke-linecap="round" stroke-linejoin="round"/>
<rect width="61.0465" height="61.2732" transform="matrix(-0.866025 -0.5 -0.866025 0.5 321.123 136.468)" fill="white" stroke="black" stroke-width="0.86692" stroke-linecap="round" stroke-linejoin="round"/>
<path d="M261.876 146.631C260.432 145.798 259.503 144.808 259.089 143.661C258.66 142.505 258.774 140.781 259.432 138.487C256.688 138.305 254.537 138.045 252.979 137.707C251.435 137.361 250.163 136.898 249.163 136.321C246.719 134.91 245.533 133.367 245.604 131.692C245.661 130.008 246.947 128.44 249.463 126.988C251.735 125.676 254.265 124.991 257.052 124.933C259.839 124.859 262.219 125.391 264.191 126.53C265.492 127.281 266.364 128.164 266.807 129.179C267.236 130.186 267.243 131.436 266.828 132.929L266.249 135.046L279.391 135.677C278.548 134.184 277.076 132.83 274.975 131.617L279.498 129.006C283.343 131.225 285.594 133.565 286.252 136.024L296.263 136.506L290.218 139.997L286.38 139.811C285.823 142.064 284.001 144.082 280.913 145.864C277.826 147.646 274.539 148.604 271.052 148.736C267.564 148.851 264.506 148.15 261.876 146.631ZM276.904 143.376C278.662 142.361 279.72 141.074 280.077 139.514L265.22 138.809L265.027 139.465C264.613 141.206 265.242 142.559 266.914 143.525C268.357 144.358 269.994 144.766 271.823 144.75C273.653 144.733 275.346 144.275 276.904 143.376ZM253.922 133.424C255.123 134.118 257.367 134.563 260.654 134.761L261.404 132.447L261.533 131.753C261.633 130.788 261.068 129.95 259.839 129.241C259.025 128.77 258.024 128.548 256.838 128.572C255.637 128.589 254.565 128.87 253.622 129.414C252.607 130 252.143 130.664 252.229 131.407C252.314 132.15 252.879 132.822 253.922 133.424Z" fill="#BDDCD8"/>
<path d="M259.089 143.661L260.128 143.536L260.127 143.532L259.089 143.661ZM259.432 138.487L260.479 138.587C260.527 138.421 260.455 138.252 260.279 138.118C260.104 137.984 259.842 137.897 259.553 137.878L259.432 138.487ZM252.979 137.707L252.594 138.278L252.605 138.281L252.979 137.707ZM245.604 131.692L246.665 131.707L246.666 131.704L245.604 131.692ZM257.052 124.933L257.09 125.546L257.101 125.546L257.052 124.933ZM266.807 129.179L267.838 129.033L267.836 129.029L266.807 129.179ZM266.828 132.929L265.78 132.832L265.779 132.834L266.828 132.929ZM266.249 135.046L265.201 134.95C265.155 135.119 265.232 135.29 265.414 135.424C265.596 135.559 265.867 135.643 266.161 135.657L266.249 135.046ZM279.391 135.677L279.303 136.288C279.658 136.305 280.003 136.219 280.224 136.058C280.445 135.897 280.511 135.682 280.401 135.487L279.391 135.677ZM274.975 131.617L274.224 131.184C273.809 131.423 273.809 131.811 274.224 132.051L274.975 131.617ZM279.498 129.006L280.249 128.572C279.835 128.333 279.162 128.333 278.748 128.572L279.498 129.006ZM286.252 136.024L285.202 136.117C285.277 136.397 285.674 136.611 286.163 136.635L286.252 136.024ZM296.263 136.506L297.014 136.94C297.306 136.771 297.403 136.52 297.26 136.296C297.118 136.072 296.764 135.915 296.352 135.896L296.263 136.506ZM290.218 139.997L290.129 140.608C290.44 140.623 290.748 140.558 290.968 140.43L290.218 139.997ZM286.38 139.811L286.469 139.2C285.908 139.173 285.409 139.403 285.329 139.725L286.38 139.811ZM271.052 148.736L271.112 149.348L271.121 149.347L271.052 148.736ZM280.077 139.514L281.13 139.595C281.168 139.428 281.086 139.26 280.904 139.129C280.721 138.999 280.454 138.917 280.164 138.903L280.077 139.514ZM265.22 138.809L265.307 138.198C264.758 138.172 264.266 138.392 264.174 138.706L265.22 138.809ZM265.027 139.465L263.981 139.362C263.979 139.368 263.977 139.375 263.975 139.381L265.027 139.465ZM260.654 134.761L260.544 135.371C261.094 135.404 261.596 135.188 261.698 134.874L260.654 134.761ZM261.404 132.447L262.448 132.559C262.453 132.544 262.457 132.528 262.46 132.512L261.404 132.447ZM261.533 131.753L262.589 131.819C262.59 131.809 262.592 131.8 262.593 131.79L261.533 131.753ZM256.838 128.572L256.863 129.185L256.876 129.185L256.838 128.572ZM262.627 146.198C261.328 145.448 260.5 144.565 260.128 143.536L258.049 143.786C258.506 145.05 259.536 146.148 261.125 147.065L262.627 146.198ZM260.127 143.532C259.742 142.494 259.827 140.864 260.479 138.587L258.384 138.387C257.722 140.698 257.578 142.517 258.051 143.789L260.127 143.532ZM259.553 137.878C256.846 137.699 254.793 137.446 253.353 137.133L252.605 138.281C254.28 138.645 256.529 138.912 259.311 139.096L259.553 137.878ZM253.364 137.136C251.934 136.815 250.794 136.396 249.914 135.887L248.412 136.754C249.533 137.401 250.936 137.906 252.594 138.278L253.364 137.136ZM249.914 135.887C247.633 134.57 246.602 133.182 246.665 131.707L244.543 131.677C244.463 133.551 245.805 135.249 248.412 136.754L249.914 135.887ZM246.666 131.704C246.716 130.212 247.847 128.788 250.214 127.422L248.712 126.555C246.048 128.093 244.606 129.804 244.542 131.68L246.666 131.704ZM250.214 127.422C252.327 126.201 254.612 125.597 257.09 125.546L257.014 124.321C253.918 124.385 251.143 125.151 248.712 126.555L250.214 127.422ZM257.101 125.546C259.59 125.479 261.679 125.947 263.44 126.964L264.942 126.097C262.758 124.836 260.088 124.239 257.003 124.321L257.101 125.546ZM263.44 126.964C264.608 127.637 265.382 128.423 265.777 129.329L267.836 129.029C267.346 127.905 266.376 126.925 264.942 126.097L263.44 126.964ZM265.776 129.325C266.159 130.225 266.181 131.386 265.78 132.832L267.877 133.026C268.304 131.486 268.312 130.147 267.838 129.033L265.776 129.325ZM265.779 132.834L265.201 134.95L267.298 135.142L267.877 133.025L265.779 132.834ZM266.161 135.657L279.303 136.288L279.479 135.066L266.337 134.435L266.161 135.657ZM280.401 135.487C279.501 133.894 277.934 132.459 275.726 131.184L274.224 132.051C276.218 133.202 277.595 134.474 278.382 135.867L280.401 135.487ZM275.726 132.051L280.249 129.439L278.748 128.572L274.224 131.184L275.726 132.051ZM278.748 129.439C282.475 131.591 284.587 133.817 285.202 136.117L287.301 135.93C286.601 133.312 284.211 130.86 280.249 128.572L278.748 129.439ZM286.163 136.635L296.175 137.117L296.352 135.896L286.34 135.413L286.163 136.635ZM295.513 136.073L289.467 139.564L290.968 140.43L297.014 136.94L295.513 136.073ZM290.306 139.386L286.469 139.2L286.292 140.422L290.129 140.608L290.306 139.386ZM285.329 139.725C284.808 141.832 283.106 143.731 280.163 145.43L281.664 146.297C284.895 144.432 286.838 142.296 287.431 139.898L285.329 139.725ZM280.163 145.43C277.211 147.135 274.153 148.004 270.982 148.124L271.121 149.347C274.925 149.203 278.442 148.158 281.664 146.297L280.163 145.43ZM270.991 148.124C267.827 148.228 265.058 147.602 262.627 146.198L261.125 147.065C263.953 148.698 267.301 149.474 271.112 149.348L270.991 148.124ZM277.655 143.81C279.594 142.69 280.745 141.274 281.13 139.595L279.025 139.434C278.695 140.873 277.73 142.032 276.154 142.943L277.655 143.81ZM280.164 138.903L265.307 138.198L265.133 139.42L279.99 140.125L280.164 138.903ZM264.174 138.706L263.981 139.362L266.074 139.567L266.267 138.911L264.174 138.706ZM263.975 139.381C263.53 141.253 264.191 142.819 266.163 143.958L267.665 143.091C266.293 142.299 265.696 141.159 266.079 139.548L263.975 139.381ZM266.163 143.958C267.784 144.894 269.689 145.382 271.84 145.363L271.807 144.137C270.299 144.151 268.931 143.822 267.665 143.091L266.163 143.958ZM271.84 145.363C274 145.343 275.945 144.797 277.655 143.81L276.154 142.943C274.748 143.754 273.306 144.124 271.807 144.137L271.84 145.363ZM253.171 133.858C254.645 134.709 257.21 135.17 260.544 135.371L260.764 134.152C257.523 133.956 255.6 133.526 254.673 132.991L253.171 133.858ZM261.698 134.874L262.448 132.559L260.361 132.334L259.61 134.648L261.698 134.874ZM262.46 132.512L262.589 131.819L260.477 131.688L260.349 132.381L262.46 132.512ZM262.593 131.79C262.712 130.642 262.025 129.636 260.59 128.807L259.088 129.674C260.112 130.265 260.554 130.934 260.473 131.717L262.593 131.79ZM260.59 128.807C259.56 128.213 258.27 127.929 256.799 127.96L256.876 129.185C257.778 129.166 258.489 129.328 259.088 129.674L260.59 128.807ZM256.813 127.96C255.308 127.98 253.984 128.338 252.871 128.981L254.373 129.848C255.146 129.401 255.966 129.198 256.863 129.185L256.813 127.96ZM252.871 128.981C251.667 129.676 251.061 130.507 251.169 131.448L253.288 131.366C253.225 130.821 253.547 130.324 254.373 129.848L252.871 128.981ZM251.169 131.448C251.274 132.36 251.974 133.167 253.171 133.858L254.673 132.991C253.783 132.477 253.354 131.939 253.288 131.366L251.169 131.448Z" fill="black"/>
<rect width="82.0782" height="82.0782" transform="matrix(-0.866025 0.5 2.20305e-08 1 339.186 134.311)" fill="#BDDCD8" stroke="black" stroke-width="0.86692" stroke-linecap="round" stroke-linejoin="round"/>
<rect width="65.6866" height="65.4464" transform="matrix(-0.866025 0.5 2.20305e-08 1 332.086 146.724)" fill="#55A398" stroke="black" stroke-width="0.86692" stroke-linecap="round" stroke-linejoin="round"/>
<rect width="62.3724" height="61.5732" transform="matrix(-0.866025 0.5 2.20305e-08 1 329.219 148.381)" fill="white" stroke="black" stroke-width="0.86692" stroke-linecap="round" stroke-linejoin="round"/>
<path d="M290.213 210.052C290.213 208.385 290.606 206.631 291.392 204.791C292.178 202.935 293.729 200.381 296.044 197.129C294.83 196.065 293.979 195.054 293.493 194.097C293.022 193.132 292.786 192.071 292.786 190.916C292.786 188.094 293.529 185.437 295.015 182.945C296.502 180.436 298.503 178.456 301.018 177.004C303.291 175.691 305.149 175.394 306.592 176.112C308.05 176.805 308.779 178.291 308.779 180.568C308.779 182.07 308.45 183.646 307.793 185.296C307.135 186.93 306.056 188.808 304.556 190.928L302.433 193.936L308.457 198.677C309.329 196.193 309.765 193.738 309.765 191.312L314.289 188.7C314.289 193.14 313.388 197.299 311.587 201.177L316.175 204.791L310.13 208.282L308.372 206.895C306.142 210.114 303.484 212.614 300.396 214.396C297.309 216.179 294.837 216.665 292.979 215.857C291.135 215.023 290.213 213.088 290.213 210.052ZM300.547 209.507C302.305 208.492 303.948 206.866 305.477 204.63L298.66 199.283L297.995 200.211C296.28 202.703 295.423 204.915 295.423 206.846C295.423 208.513 295.887 209.598 296.816 210.101C297.745 210.605 298.989 210.406 300.547 209.507ZM297.674 187.945C297.674 189.332 298.41 190.648 299.882 191.894L302.262 188.638L302.926 187.636C303.812 186.217 304.255 184.797 304.255 183.378C304.255 182.437 303.948 181.814 303.334 181.509C302.719 181.187 301.94 181.299 300.997 181.843C299.982 182.429 299.174 183.291 298.574 184.43C297.974 185.569 297.674 186.741 297.674 187.945Z" fill="#BDDCD8"/>
<path d="M291.392 204.791L292.02 204.903L292.023 204.898L291.392 204.791ZM296.044 197.129L296.482 197.582C296.649 197.347 296.759 197.072 296.788 196.82C296.816 196.569 296.76 196.363 296.632 196.251L296.044 197.129ZM293.493 194.097L292.806 194.843L292.809 194.85L293.493 194.097ZM295.015 182.945L295.533 183.274L295.536 183.269L295.015 182.945ZM306.592 176.112L306.081 177.042L306.086 177.045L306.592 176.112ZM307.793 185.296L308.435 185.375L308.437 185.369L307.793 185.296ZM304.556 190.928L304.115 190.48L304.114 190.482L304.556 190.928ZM302.433 193.936L301.992 193.49C301.823 193.729 301.713 194.009 301.688 194.263C301.663 194.516 301.725 194.721 301.86 194.827L302.433 193.936ZM308.457 198.677L307.884 199.568C308.047 199.695 308.295 199.665 308.544 199.488C308.794 199.31 309.013 199.008 309.127 198.683L308.457 198.677ZM309.765 191.312L309.765 190.445C309.351 190.684 309.014 191.267 309.014 191.745L309.765 191.312ZM314.289 188.7L315.039 188.267C315.039 187.788 314.703 187.594 314.289 187.833L314.289 188.7ZM311.587 201.177L310.982 201.014C310.777 201.456 310.79 201.891 311.014 202.068L311.587 201.177ZM316.175 204.791L316.175 205.658C316.468 205.489 316.733 205.14 316.856 204.763C316.979 204.386 316.937 204.049 316.749 203.9L316.175 204.791ZM310.13 208.282L309.556 209.172C309.699 209.285 309.909 209.276 310.13 209.149L310.13 208.282ZM308.372 206.895L308.945 206.005C308.688 205.802 308.239 206.003 307.921 206.462L308.372 206.895ZM292.979 215.857L292.479 216.792L292.484 216.794L292.979 215.857ZM305.477 204.63L305.934 205.055C306.097 204.816 306.202 204.54 306.224 204.292C306.246 204.043 306.183 203.843 306.05 203.739L305.477 204.63ZM298.66 199.283L299.233 198.392C298.981 198.194 298.543 198.383 298.225 198.827L298.66 199.283ZM297.995 200.211L297.561 199.755C297.554 199.764 297.548 199.773 297.542 199.783L297.995 200.211ZM299.882 191.894L299.299 192.776C299.545 192.985 299.983 192.806 300.306 192.364L299.882 191.894ZM302.262 188.638L302.686 189.109C302.702 189.087 302.718 189.064 302.733 189.041L302.262 188.638ZM302.926 187.636L303.398 188.039C303.407 188.025 303.416 188.011 303.424 187.997L302.926 187.636ZM303.334 181.509L302.815 182.436L302.822 182.439L303.334 181.509ZM290.964 209.618C290.964 208.119 291.315 206.555 292.02 204.903L290.764 204.679C289.898 206.708 289.462 208.651 289.462 210.485L290.964 209.618ZM292.023 204.898C292.729 203.23 294.183 200.809 296.482 197.582L295.607 196.677C293.275 199.952 291.628 202.639 290.762 204.684L292.023 204.898ZM296.632 196.251C295.434 195.201 294.626 194.229 294.177 193.344L292.809 194.85C293.332 195.879 294.225 196.929 295.457 198.008L296.632 196.251ZM294.18 193.351C293.744 192.457 293.537 191.499 293.537 190.482L292.035 191.349C292.035 192.644 292.3 193.806 292.806 194.843L294.18 193.351ZM293.537 190.482C293.537 187.849 294.224 185.469 295.533 183.274L294.498 182.616C292.834 185.405 292.035 188.339 292.035 191.349L293.537 190.482ZM295.536 183.269C296.853 181.046 298.652 179.237 301.018 177.87L301.018 176.137C298.354 177.675 296.151 179.826 294.495 182.62L295.536 183.269ZM301.018 177.87C303.132 176.65 304.797 176.404 306.081 177.042L307.104 175.182C305.5 174.385 303.45 174.733 301.018 176.137L301.018 177.87ZM306.086 177.045C307.388 177.664 308.028 178.968 308.028 181.002L309.53 180.135C309.53 177.613 308.712 175.947 307.098 175.18L306.086 177.045ZM308.028 181.002C308.028 182.349 307.735 183.751 307.148 185.224L308.437 185.369C309.165 183.541 309.53 181.791 309.53 180.135L308.028 181.002ZM307.151 185.218C306.563 186.678 305.569 188.426 304.115 190.48L304.996 191.376C306.544 189.189 307.708 187.183 308.435 185.375L307.151 185.218ZM304.114 190.482L301.992 193.49L302.875 194.382L304.997 191.374L304.114 190.482ZM301.86 194.827L307.884 199.568L309.03 197.786L303.006 193.045L301.86 194.827ZM309.127 198.683C310.057 196.033 310.516 193.428 310.516 190.879L309.014 191.745C309.014 194.048 308.602 196.353 307.788 198.67L309.127 198.683ZM309.765 192.179L314.289 189.567L314.289 187.833L309.765 190.445L309.765 192.179ZM313.538 189.134C313.538 193.438 312.666 197.387 310.982 201.014L312.193 201.34C314.11 197.21 315.039 192.842 315.039 188.267L313.538 189.134ZM311.014 202.068L315.602 205.682L316.749 203.9L312.161 200.286L311.014 202.068ZM316.175 203.924L310.13 207.415L310.13 209.149L316.175 205.658L316.175 203.924ZM310.703 207.391L308.945 206.005L307.798 207.786L309.556 209.172L310.703 207.391ZM307.921 206.462C305.836 209.472 303.34 211.83 300.396 213.529L300.396 215.263C303.628 213.398 306.449 210.755 308.822 207.329L307.921 206.462ZM300.396 213.529C297.444 215.234 295.163 215.654 293.474 214.919L292.484 216.794C294.51 217.676 297.174 217.123 300.396 215.263L300.396 213.529ZM293.478 214.921C291.806 214.165 290.964 212.426 290.964 209.618L289.462 210.485C289.462 213.751 290.464 215.882 292.479 216.792L293.478 214.921ZM300.547 210.374C302.486 209.254 304.287 207.463 305.934 205.055L305.021 204.206C303.609 206.27 302.123 207.73 300.547 208.64L300.547 210.374ZM306.05 203.739L299.233 198.392L298.087 200.174L304.905 205.522L306.05 203.739ZM298.225 198.827L297.561 199.755L298.43 200.668L299.094 199.739L298.225 198.827ZM297.542 199.783C295.698 202.461 294.672 205.002 294.672 207.279L296.174 206.412C296.174 204.828 296.862 202.946 298.449 200.64L297.542 199.783ZM294.672 207.279C294.672 209.151 295.201 210.433 296.294 211.025L297.339 209.177C296.573 208.762 296.174 207.874 296.174 206.412L294.672 207.279ZM296.294 211.025C297.391 211.62 298.836 211.362 300.547 210.374L300.547 208.64C299.141 209.451 298.1 209.589 297.339 209.177L296.294 211.025ZM296.923 188.379C296.923 190.08 297.806 191.513 299.299 192.776L300.465 191.011C299.014 189.782 298.425 188.583 298.425 187.512L296.923 188.379ZM300.306 192.364L302.686 189.109L301.838 188.168L299.458 191.423L300.306 192.364ZM302.733 189.041L303.398 188.039L302.455 187.233L301.79 188.236L302.733 189.041ZM303.424 187.997C304.478 186.309 305.006 184.601 305.006 182.945L303.505 183.811C303.505 184.993 303.147 186.124 302.428 187.275L303.424 187.997ZM305.006 182.945C305.006 181.755 304.607 180.958 303.845 180.579L302.822 182.439C303.289 182.671 303.505 183.12 303.505 183.811L305.006 182.945ZM303.852 180.582C303.081 180.179 302.11 180.334 300.997 180.976L300.997 182.71C301.77 182.263 302.357 182.195 302.815 182.435L303.852 180.582ZM300.997 180.976C299.793 181.671 298.769 182.744 298.009 184.185L299.139 184.675C299.58 183.839 300.171 183.187 300.997 182.71L300.997 180.976ZM298.009 184.185C297.272 185.584 296.923 186.996 296.923 188.379L298.425 187.512C298.425 186.485 298.676 185.554 299.139 184.675L298.009 184.185Z" fill="black"/>
<path d="M290.213 210.052C290.213 208.385 290.606 206.631 291.392 204.791C292.178 202.935 293.729 200.381 296.044 197.129C294.83 196.065 293.979 195.054 293.493 194.097C293.022 193.132 292.786 192.071 292.786 190.916C292.786 188.094 293.529 185.437 295.015 182.945C296.502 180.436 298.503 178.456 301.018 177.004C303.291 175.691 305.149 175.394 306.592 176.112C308.05 176.805 308.779 178.291 308.779 180.568C308.779 182.07 308.45 183.646 307.793 185.296C307.135 186.93 306.056 188.808 304.556 190.928L302.433 193.936L308.457 198.677C309.329 196.193 309.765 193.738 309.765 191.312L314.289 188.7C314.289 193.14 313.388 197.299 311.587 201.177L316.175 204.791L310.13 208.282L308.372 206.895C306.142 210.114 303.484 212.614 300.396 214.396C297.309 216.179 294.837 216.665 292.979 215.857C291.135 215.023 290.213 213.088 290.213 210.052ZM300.547 209.507C302.305 208.492 303.948 206.866 305.477 204.63L298.66 199.283L297.995 200.211C296.28 202.703 295.423 204.915 295.423 206.846C295.423 208.513 295.887 209.598 296.816 210.101C297.745 210.605 298.989 210.406 300.547 209.507ZM297.674 187.945C297.674 189.332 298.41 190.648 299.882 191.894L302.262 188.638L302.926 187.636C303.812 186.217 304.255 184.797 304.255 183.378C304.255 182.437 303.948 181.814 303.334 181.509C302.719 181.187 301.94 181.299 300.997 181.843C299.982 182.429 299.174 183.291 298.574 184.43C297.974 185.569 297.674 186.741 297.674 187.945Z" fill="#BDDCD8"/>
<path d="M291.392 204.791L292.02 204.903L292.023 204.898L291.392 204.791ZM296.044 197.129L296.482 197.582C296.649 197.347 296.759 197.072 296.788 196.82C296.816 196.569 296.76 196.363 296.632 196.251L296.044 197.129ZM293.493 194.097L292.806 194.843L292.809 194.85L293.493 194.097ZM295.015 182.945L295.533 183.274L295.536 183.269L295.015 182.945ZM306.592 176.112L306.081 177.042L306.086 177.045L306.592 176.112ZM307.793 185.296L308.435 185.375L308.437 185.369L307.793 185.296ZM304.556 190.928L304.115 190.48L304.114 190.482L304.556 190.928ZM302.433 193.936L301.992 193.49C301.823 193.729 301.713 194.009 301.688 194.263C301.663 194.516 301.725 194.721 301.86 194.827L302.433 193.936ZM308.457 198.677L307.884 199.568C308.047 199.695 308.295 199.665 308.544 199.488C308.794 199.31 309.013 199.008 309.127 198.683L308.457 198.677ZM309.765 191.312L309.765 190.445C309.351 190.684 309.014 191.267 309.014 191.745L309.765 191.312ZM314.289 188.7L315.039 188.267C315.039 187.788 314.703 187.594 314.289 187.833L314.289 188.7ZM311.587 201.177L310.982 201.014C310.777 201.456 310.79 201.891 311.014 202.068L311.587 201.177ZM316.175 204.791L316.175 205.658C316.468 205.489 316.733 205.14 316.856 204.763C316.979 204.386 316.937 204.049 316.749 203.9L316.175 204.791ZM310.13 208.282L309.556 209.172C309.699 209.285 309.909 209.276 310.13 209.149L310.13 208.282ZM308.372 206.895L308.945 206.005C308.688 205.802 308.239 206.003 307.921 206.462L308.372 206.895ZM292.979 215.857L292.479 216.792L292.484 216.794L292.979 215.857ZM305.477 204.63L305.934 205.055C306.097 204.816 306.202 204.54 306.224 204.292C306.246 204.043 306.183 203.843 306.05 203.739L305.477 204.63ZM298.66 199.283L299.233 198.392C298.981 198.194 298.543 198.383 298.225 198.827L298.66 199.283ZM297.995 200.211L297.561 199.755C297.554 199.764 297.548 199.773 297.542 199.783L297.995 200.211ZM299.882 191.894L299.299 192.776C299.545 192.985 299.983 192.806 300.306 192.364L299.882 191.894ZM302.262 188.638L302.686 189.109C302.702 189.087 302.718 189.064 302.733 189.041L302.262 188.638ZM302.926 187.636L303.398 188.039C303.407 188.025 303.416 188.011 303.424 187.997L302.926 187.636ZM303.334 181.509L302.815 182.436L302.822 182.439L303.334 181.509ZM290.964 209.618C290.964 208.119 291.315 206.555 292.02 204.903L290.764 204.679C289.898 206.708 289.462 208.651 289.462 210.485L290.964 209.618ZM292.023 204.898C292.729 203.23 294.183 200.809 296.482 197.582L295.607 196.677C293.275 199.952 291.628 202.639 290.762 204.684L292.023 204.898ZM296.632 196.251C295.434 195.201 294.626 194.229 294.177 193.344L292.809 194.85C293.332 195.879 294.225 196.929 295.457 198.008L296.632 196.251ZM294.18 193.351C293.744 192.457 293.537 191.499 293.537 190.482L292.035 191.349C292.035 192.644 292.3 193.806 292.806 194.843L294.18 193.351ZM293.537 190.482C293.537 187.849 294.224 185.469 295.533 183.274L294.498 182.616C292.834 185.405 292.035 188.339 292.035 191.349L293.537 190.482ZM295.536 183.269C296.853 181.046 298.652 179.237 301.018 177.87L301.018 176.137C298.354 177.675 296.151 179.826 294.495 182.62L295.536 183.269ZM301.018 177.87C303.132 176.65 304.797 176.404 306.081 177.042L307.104 175.182C305.5 174.385 303.45 174.733 301.018 176.137L301.018 177.87ZM306.086 177.045C307.388 177.664 308.028 178.968 308.028 181.002L309.53 180.135C309.53 177.613 308.712 175.947 307.098 175.18L306.086 177.045ZM308.028 181.002C308.028 182.349 307.735 183.751 307.148 185.224L308.437 185.369C309.165 183.541 309.53 181.791 309.53 180.135L308.028 181.002ZM307.151 185.218C306.563 186.678 305.569 188.426 304.115 190.48L304.996 191.376C306.544 189.189 307.708 187.183 308.435 185.375L307.151 185.218ZM304.114 190.482L301.992 193.49L302.875 194.382L304.997 191.374L304.114 190.482ZM301.86 194.827L307.884 199.568L309.03 197.786L303.006 193.045L301.86 194.827ZM309.127 198.683C310.057 196.033 310.516 193.428 310.516 190.879L309.014 191.745C309.014 194.048 308.602 196.353 307.788 198.67L309.127 198.683ZM309.765 192.179L314.289 189.567L314.289 187.833L309.765 190.445L309.765 192.179ZM313.538 189.134C313.538 193.438 312.666 197.387 310.982 201.014L312.193 201.34C314.11 197.21 315.039 192.842 315.039 188.267L313.538 189.134ZM311.014 202.068L315.602 205.682L316.749 203.9L312.161 200.286L311.014 202.068ZM316.175 203.924L310.13 207.415L310.13 209.149L316.175 205.658L316.175 203.924ZM310.703 207.391L308.945 206.005L307.798 207.786L309.556 209.172L310.703 207.391ZM307.921 206.462C305.836 209.472 303.34 211.83 300.396 213.529L300.396 215.263C303.628 213.398 306.449 210.755 308.822 207.329L307.921 206.462ZM300.396 213.529C297.444 215.234 295.163 215.654 293.474 214.919L292.484 216.794C294.51 217.676 297.174 217.123 300.396 215.263L300.396 213.529ZM293.478 214.921C291.806 214.165 290.964 212.426 290.964 209.618L289.462 210.485C289.462 213.751 290.464 215.882 292.479 216.792L293.478 214.921ZM300.547 210.374C302.486 209.254 304.287 207.463 305.934 205.055L305.021 204.206C303.609 206.27 302.123 207.73 300.547 208.64L300.547 210.374ZM306.05 203.739L299.233 198.392L298.087 200.174L304.905 205.522L306.05 203.739ZM298.225 198.827L297.561 199.755L298.43 200.668L299.094 199.739L298.225 198.827ZM297.542 199.783C295.698 202.461 294.672 205.002 294.672 207.279L296.174 206.412C296.174 204.828 296.862 202.946 298.449 200.64L297.542 199.783ZM294.672 207.279C294.672 209.151 295.201 210.433 296.294 211.025L297.339 209.177C296.573 208.762 296.174 207.874 296.174 206.412L294.672 207.279ZM296.294 211.025C297.391 211.62 298.836 211.362 300.547 210.374L300.547 208.64C299.141 209.451 298.1 209.589 297.339 209.177L296.294 211.025ZM296.923 188.379C296.923 190.08 297.806 191.513 299.299 192.776L300.465 191.011C299.014 189.782 298.425 188.583 298.425 187.512L296.923 188.379ZM300.306 192.364L302.686 189.109L301.838 188.168L299.458 191.423L300.306 192.364ZM302.733 189.041L303.398 188.039L302.455 187.233L301.79 188.236L302.733 189.041ZM303.424 187.997C304.478 186.309 305.006 184.601 305.006 182.945L303.505 183.811C303.505 184.993 303.147 186.124 302.428 187.275L303.424 187.997ZM305.006 182.945C305.006 181.755 304.607 180.958 303.845 180.579L302.822 182.439C303.289 182.671 303.505 183.12 303.505 183.811L305.006 182.945ZM303.852 180.582C303.081 180.179 302.11 180.334 300.997 180.976L300.997 182.71C301.77 182.263 302.357 182.195 302.815 182.435L303.852 180.582ZM300.997 180.976C299.793 181.671 298.769 182.744 298.009 184.185L299.139 184.675C299.58 183.839 300.171 183.187 300.997 182.71L300.997 180.976ZM298.009 184.185C297.272 185.584 296.923 186.996 296.923 188.379L298.425 187.512C298.425 186.485 298.676 185.554 299.139 184.675L298.009 184.185Z" fill="black"/>
<rect width="82.0782" height="82.0782" transform="matrix(0.866025 0.5 -2.20305e-08 1 197.021 134.311)" fill="#55A398" stroke="black" stroke-width="0.86692" stroke-linecap="round" stroke-linejoin="round"/>
<rect width="65.6354" height="65.445" transform="matrix(0.866025 0.5 -2.20305e-08 1 204.143 146.739)" fill="#55A398" stroke="black" stroke-width="0.86692" stroke-linecap="round" stroke-linejoin="round"/>
<rect width="61.7096" height="61.8171" transform="matrix(0.866025 0.5 -2.20305e-08 1 207.541 148.701)" fill="white" stroke="black" stroke-width="0.86692" stroke-linecap="round" stroke-linejoin="round"/>
<path d="M222.023 196.029C222.023 194.362 222.416 193.062 223.203 192.13C223.989 191.181 225.539 190.418 227.855 189.84C226.64 187.373 225.789 185.38 225.304 183.862C224.832 182.352 224.596 181.019 224.596 179.864C224.596 177.042 225.339 175.243 226.826 174.467C228.312 173.675 230.313 174.005 232.828 175.457C235.101 176.769 236.959 178.618 238.403 181.003C239.86 183.379 240.589 185.706 240.589 187.983C240.589 189.485 240.261 190.682 239.603 191.573C238.946 192.448 237.867 193.079 236.366 193.467L234.243 194.024L240.268 205.721C241.139 204.243 241.575 202.292 241.575 199.866L246.099 202.478C246.099 206.917 245.199 210.036 243.398 211.835L247.986 220.747L241.94 217.256L240.182 213.84C237.952 214.484 235.294 213.915 232.207 212.132C229.12 210.35 226.647 207.982 224.789 205.027C222.945 202.065 222.023 199.066 222.023 196.029ZM232.357 207.416C234.115 208.431 235.758 208.704 237.288 208.233L230.47 195.014L229.806 195.175C228.091 195.686 227.233 196.908 227.233 198.839C227.233 200.505 227.697 202.127 228.626 203.703C229.556 205.279 230.799 206.517 232.357 207.416ZM229.484 182.537C229.484 183.924 230.22 186.09 231.692 189.036L234.072 188.528L234.737 188.293C235.623 187.897 236.066 186.989 236.066 185.57C236.066 184.629 235.758 183.651 235.144 182.636C234.529 181.605 233.75 180.817 232.807 180.272C231.792 179.686 230.985 179.616 230.384 180.062C229.784 180.507 229.484 181.333 229.484 182.537Z" fill="#55A398"/>
<path d="M223.203 192.13L223.831 192.968L223.833 192.965L223.203 192.13ZM227.855 189.84L228.292 190.797C228.459 190.756 228.57 190.608 228.598 190.39C228.627 190.171 228.57 189.9 228.443 189.64L227.855 189.84ZM225.304 183.862L224.616 183.814L224.62 183.825L225.304 183.862ZM226.826 174.467L227.343 175.394L227.346 175.392L226.826 174.467ZM238.403 181.003L237.891 181.342L237.897 181.351L238.403 181.003ZM239.603 191.573L240.245 192.393L240.248 192.39L239.603 191.573ZM236.366 193.467L235.926 192.51L235.924 192.511L236.366 193.467ZM234.243 194.024L233.802 193.068C233.633 193.112 233.523 193.265 233.498 193.49C233.473 193.715 233.536 193.991 233.67 194.253L234.243 194.024ZM240.268 205.721L239.695 205.95C239.857 206.265 240.105 206.521 240.355 206.632C240.604 206.742 240.823 206.693 240.937 206.5L240.268 205.721ZM241.575 199.866L241.575 198.999C241.161 198.76 240.825 198.954 240.825 199.432L241.575 199.866ZM246.099 202.478L246.85 202.911C246.85 202.432 246.514 201.85 246.099 201.611L246.099 202.478ZM243.398 211.835L242.792 210.973C242.587 211.178 242.6 211.629 242.824 212.064L243.398 211.835ZM247.986 220.747L247.986 221.614C248.278 221.783 248.544 221.74 248.667 221.505C248.79 221.27 248.748 220.885 248.559 220.518L247.986 220.747ZM241.94 217.256L241.367 217.485C241.509 217.762 241.719 217.996 241.94 218.123L241.94 217.256ZM240.182 213.84L240.755 213.612C240.499 213.113 240.05 212.795 239.731 212.887L240.182 213.84ZM224.789 205.027L224.289 205.386L224.294 205.393L224.789 205.027ZM237.288 208.233L237.744 209.185C237.908 209.135 238.012 208.98 238.034 208.757C238.056 208.533 237.993 208.261 237.86 208.003L237.288 208.233ZM230.47 195.014L231.043 194.784C230.791 194.295 230.353 193.979 230.036 194.056L230.47 195.014ZM229.806 195.175L229.371 194.217C229.365 194.219 229.358 194.22 229.352 194.222L229.806 195.175ZM231.692 189.036L231.109 189.245C231.355 189.738 231.794 190.065 232.116 189.996L231.692 189.036ZM234.072 188.528L234.496 189.488C234.512 189.485 234.528 189.48 234.543 189.475L234.072 188.528ZM234.737 188.293L235.208 189.24C235.217 189.237 235.226 189.233 235.235 189.229L234.737 188.293ZM235.144 182.636L234.626 182.965L234.632 182.976L235.144 182.636ZM222.774 196.462C222.774 194.963 223.125 193.804 223.831 192.967L222.574 191.292C221.708 192.32 221.273 193.761 221.273 195.595L222.774 196.462ZM223.833 192.965C224.539 192.112 225.993 191.371 228.292 190.797L227.418 188.883C225.085 189.465 223.438 190.25 222.572 191.295L223.833 192.965ZM228.443 189.64C227.244 187.207 226.437 185.303 225.987 183.899L224.62 183.825C225.142 185.458 226.035 187.539 227.267 190.04L228.443 189.64ZM225.991 183.909C225.554 182.511 225.347 181.314 225.347 180.297L223.845 179.43C223.845 180.725 224.11 182.192 224.616 183.814L225.991 183.909ZM225.347 180.297C225.347 177.663 226.034 176.077 227.343 175.394L226.308 173.54C224.645 174.408 223.845 176.42 223.845 179.43L225.347 180.297ZM227.346 175.392C228.663 174.691 230.462 174.958 232.828 176.324L232.828 174.59C230.164 173.052 227.961 172.659 226.305 173.542L227.346 175.392ZM232.828 176.324C234.942 177.545 236.608 179.222 237.891 181.342L238.914 180.663C237.31 178.014 235.26 175.994 232.828 174.59L232.828 176.324ZM237.897 181.351C239.199 183.473 239.838 185.516 239.838 187.55L241.34 188.417C241.34 185.896 240.522 183.285 238.908 180.654L237.897 181.351ZM239.838 187.55C239.838 188.898 239.545 189.961 238.959 190.756L240.248 192.39C240.976 191.403 241.34 190.073 241.34 188.417L239.838 187.55ZM238.961 190.753C238.373 191.535 237.379 192.135 235.926 192.51L236.806 194.423C238.354 194.023 239.518 193.361 240.245 192.393L238.961 190.753ZM235.924 192.511L233.802 193.068L234.685 194.98L236.807 194.423L235.924 192.511ZM233.67 194.253L239.695 205.95L240.841 205.491L234.816 193.795L233.67 194.253ZM240.937 206.5C241.867 204.924 242.326 202.849 242.326 200.299L240.825 199.432C240.825 201.735 240.412 203.563 239.598 204.941L240.937 206.5ZM241.575 200.733L246.099 203.345L246.099 201.611L241.575 198.999L241.575 200.733ZM245.348 202.044C245.348 206.348 244.476 209.291 242.792 210.973L244.003 212.697C245.921 210.782 246.85 207.486 246.85 202.911L245.348 202.044ZM242.824 212.064L247.412 220.976L248.559 220.518L243.971 211.606L242.824 212.064ZM247.986 219.88L241.94 216.39L241.94 218.123L247.986 221.614L247.986 219.88ZM242.513 217.028L240.755 213.612L239.609 214.069L241.367 217.485L242.513 217.028ZM239.731 212.887C237.646 213.489 235.15 212.964 232.207 211.265L232.207 212.999C235.438 214.865 238.259 215.479 240.632 214.794L239.731 212.887ZM232.207 211.265C229.255 209.561 226.973 207.347 225.284 204.661L224.294 205.393C226.321 208.616 228.984 211.139 232.207 212.999L232.207 211.265ZM225.289 204.669C223.616 201.981 222.774 199.27 222.774 196.462L221.273 195.595C221.273 198.861 222.275 202.149 224.289 205.386L225.289 204.669ZM232.357 208.283C234.296 209.403 236.097 209.692 237.744 209.185L236.831 207.281C235.419 207.716 233.934 207.46 232.357 206.549L232.357 208.283ZM237.86 208.003L231.043 194.784L229.898 195.244L236.715 208.463L237.86 208.003ZM230.036 194.056L229.371 194.217L230.24 196.133L230.905 195.972L230.036 194.056ZM229.352 194.222C227.509 194.772 226.482 196.128 226.482 198.405L227.984 199.272C227.984 197.688 228.672 196.601 230.259 196.128L229.352 194.222ZM226.482 198.405C226.482 200.277 227.011 202.17 228.104 204.024L229.149 203.382C228.383 202.083 227.984 200.734 227.984 199.272L226.482 198.405ZM228.104 204.024C229.201 205.885 230.646 207.296 232.357 208.283L232.357 206.549C230.952 205.738 229.91 204.674 229.149 203.382L228.104 204.024ZM228.733 182.104C228.733 183.806 229.616 186.258 231.109 189.245L232.275 188.826C230.824 185.922 230.235 184.042 230.235 182.971L228.733 182.104ZM232.116 189.996L234.496 189.488L233.648 187.568L231.268 188.075L232.116 189.996ZM234.543 189.475L235.208 189.24L234.265 187.346L233.601 187.581L234.543 189.475ZM235.235 189.229C236.288 188.758 236.816 187.66 236.816 186.003L235.315 185.136C235.315 186.318 234.957 187.035 234.238 187.357L235.235 189.229ZM236.816 186.003C236.816 184.814 236.417 183.555 235.655 182.297L234.632 182.976C235.1 183.747 235.315 184.445 235.315 185.136L236.816 186.003ZM235.662 182.308C234.892 181.015 233.92 180.048 232.807 179.405L232.807 181.139C233.581 181.586 234.167 182.194 234.626 182.965L235.662 182.308ZM232.807 179.405C231.603 178.71 230.579 178.601 229.819 179.165L230.949 180.959C231.39 180.632 231.981 180.662 232.807 181.139L232.807 179.405ZM229.819 179.165C229.082 179.712 228.733 180.721 228.733 182.104L230.235 182.971C230.235 181.944 230.486 181.303 230.949 180.959L229.819 179.165Z" fill="black"/>
<g opacity="0.4">
<rect width="56.6359" height="58.9812" transform="matrix(0.866025 -0.5 2.20305e-08 1 163.881 145.25)" fill="black"/>
<path d="M294.192 132.213L291.056 123.987L261.491 113.333L211.345 142.285L244.046 161.165L294.192 132.213Z" fill="black"/>
<path d="M214.977 116.427L197.482 106.326L149.072 123.988L147.336 135.278L164.831 145.378L214.977 116.427Z" fill="black"/>
<rect width="54.6551" height="50.6515" transform="matrix(0.866025 0.5 -2.20305e-08 1 196.713 134.204)" fill="black"/>
</g>
<rect width="82.0782" height="82.0782" transform="matrix(-0.866025 -0.5 -0.866025 0.5 290.885 42.0393)" fill="#FFB5B5" stroke="black" stroke-width="0.86692" stroke-linecap="round" stroke-linejoin="round"/>
<rect width="65.536" height="65.6453" transform="matrix(-0.866025 -0.5 -0.866025 0.5 276.607 42.0123)" fill="#FF8484" stroke="black" stroke-width="0.86692" stroke-linecap="round" stroke-linejoin="round"/>
<rect width="61.0465" height="61.2732" transform="matrix(-0.866025 -0.5 -0.866025 0.5 272.822 44.1967)" fill="white" stroke="black" stroke-width="0.86692" stroke-linecap="round" stroke-linejoin="round"/>
<path d="M200.879 45.2243L200.879 45.2243L200.886 45.2242C201.956 45.216 202.896 44.9735 203.686 44.5174C204.486 44.0558 204.914 43.5106 204.929 42.8918C204.957 42.2484 204.466 41.6615 203.557 41.1369C202.659 40.6184 201.648 40.3394 200.536 40.3557C199.464 40.3645 198.52 40.6115 197.721 41.0731C196.917 41.5369 196.5 42.0861 196.515 42.7089C196.529 43.338 197.014 43.907 197.886 44.411C198.79 44.9329 199.79 45.2243 200.879 45.2243ZM216.523 36.1917L216.523 36.1917L216.53 36.1917C217.601 36.1835 218.541 35.941 219.331 35.4849C220.131 35.0233 220.559 34.4781 220.574 33.8592C220.602 33.2159 220.111 32.6289 219.202 32.1044C218.304 31.5859 217.293 31.3069 216.181 31.3232C215.109 31.3319 214.165 31.579 213.365 32.0406C212.562 32.5044 212.145 33.0536 212.16 33.6764C212.174 34.3054 212.658 34.8745 213.531 35.3785C214.435 35.9003 215.435 36.1917 216.523 36.1917Z" fill="#FFB5B5" stroke="black" stroke-width="0.86692" stroke-linecap="round" stroke-linejoin="round"/>
<path d="M235.316 51.7906C235.523 51.9103 235.859 51.9103 236.067 51.7906L239.789 49.6415C239.996 49.5218 239.996 49.3277 239.789 49.208L223.905 40.0372C223.697 39.9175 223.361 39.9175 223.154 40.0372L219.432 42.1863C219.224 42.306 219.224 42.5 219.432 42.6197L235.316 51.7906ZM227.503 56.3015C227.71 56.4212 228.046 56.4212 228.254 56.3015L231.957 54.1631C232.165 54.0434 232.165 53.8493 231.957 53.7296L216.073 44.5588C215.866 44.4391 215.53 44.4391 215.322 44.5588L211.618 46.6972C211.411 46.8169 211.411 47.011 211.618 47.1307L227.503 56.3015Z" fill="#FFB5B5" stroke="black" stroke-width="0.86692" stroke-linecap="round" stroke-linejoin="round"/>
<rect width="82.0782" height="82.0782" transform="matrix(-0.866025 0.5 2.20305e-08 1 290.885 42.0393)" fill="#FF8484" stroke="black" stroke-width="0.86692" stroke-linecap="round" stroke-linejoin="round"/>
<rect width="65.6866" height="65.4464" transform="matrix(-0.866025 0.5 2.20305e-08 1 283.785 54.4523)" fill="#FF8484" stroke="black" stroke-width="0.86692" stroke-linecap="round" stroke-linejoin="round"/>
<rect width="82.0782" height="82.0782" transform="matrix(0.866025 0.5 -2.20305e-08 1 148.721 42.0393)" fill="#FFB5B5" stroke="black" stroke-width="0.86692" stroke-linecap="round" stroke-linejoin="round"/>
<rect width="65.6354" height="65.445" transform="matrix(0.866025 0.5 -2.20305e-08 1 155.842 54.4668)" fill="#FF8484" stroke="black" stroke-width="0.86692" stroke-linecap="round" stroke-linejoin="round"/>
<rect width="61.7096" height="61.8171" transform="matrix(0.866025 0.5 -2.20305e-08 1 159.24 56.4297)" fill="white" stroke="black" stroke-width="0.86692" stroke-linecap="round" stroke-linejoin="round"/>
<rect width="62.3724" height="61.5732" transform="matrix(-0.866025 0.5 2.20305e-08 1 280.918 56.109)" fill="white" stroke="black" stroke-width="0.86692" stroke-linecap="round" stroke-linejoin="round"/>
<path d="M244.386 120.166L244.386 120.166L244.389 120.16C244.939 119.191 245.209 118.219 245.209 117.269C245.209 116.308 244.941 115.639 244.391 115.303C243.827 114.944 243.043 115.08 242.096 115.627C241.16 116.168 240.383 116.934 239.82 117.943C239.27 118.913 239.002 119.892 239.002 120.853C239.002 121.819 239.28 122.48 239.848 122.79C240.422 123.104 241.186 122.965 242.096 122.439C243.038 121.895 243.821 121.145 244.386 120.166ZM244.386 101.262L244.386 101.262L244.389 101.256C244.939 100.288 245.209 99.315 245.209 98.3652C245.209 97.4039 244.941 96.7351 244.391 96.3997C243.827 96.0401 243.043 96.1766 242.096 96.7235C241.16 97.2641 240.383 98.0299 239.82 99.039C239.27 100.009 239.002 100.988 239.002 101.949C239.002 102.915 239.28 103.576 239.848 103.887C240.422 104.2 241.186 104.061 242.096 103.535C243.038 102.991 243.821 102.242 244.386 101.262Z" fill="#FF8484" stroke="black" stroke-width="0.86692" stroke-linecap="round" stroke-linejoin="round"/>
<path d="M268.368 92.3781C268.575 92.2584 268.743 91.9673 268.743 91.728L268.743 87.2302C268.743 86.9908 268.575 86.8938 268.368 87.0135L251.746 96.6101C251.539 96.7298 251.371 97.0209 251.371 97.2603L251.371 101.758C251.371 101.997 251.539 102.094 251.746 101.975L268.368 92.3781ZM268.368 101.819C268.575 101.699 268.743 101.408 268.743 101.169L268.743 96.6933C268.743 96.4539 268.575 96.3568 268.368 96.4765L251.746 106.073C251.539 106.193 251.371 106.484 251.371 106.723L251.371 111.199C251.371 111.438 251.539 111.535 251.746 111.416L268.368 101.819Z" fill="#FF8484" stroke="black" stroke-width="0.86692" stroke-linecap="round" stroke-linejoin="round"/>
<path d="M176.684 110.856L176.684 110.856L176.688 110.853C177.231 110.523 177.498 109.871 177.498 108.932C177.498 107.983 177.232 107.015 176.689 106.057C176.132 105.058 175.357 104.298 174.422 103.758C173.497 103.225 172.73 103.095 172.173 103.45C171.63 103.781 171.365 104.442 171.365 105.392C171.365 106.346 171.64 107.316 172.201 108.271C172.768 109.236 173.523 109.97 174.422 110.489C175.353 111.026 176.125 111.178 176.684 110.856ZM176.684 92.2106L176.684 92.2106L176.688 92.2085C177.231 91.8782 177.498 91.2257 177.498 90.2875C177.498 89.3379 177.232 88.3705 176.69 87.4121C176.132 86.4128 175.357 85.6533 174.422 85.1133C173.497 84.5796 172.73 84.4498 172.173 84.8047C171.63 85.1361 171.365 85.797 171.365 86.7466C171.365 87.7006 171.64 88.6706 172.201 89.6262L172.463 89.4668L172.201 89.6262C172.768 90.5911 173.523 91.325 174.422 91.8439C175.353 92.3812 176.125 92.5332 176.684 92.2106Z" fill="#FFB5B5" stroke="black" stroke-width="0.86692" stroke-linecap="round" stroke-linejoin="round"/>
<path d="M200.334 110.764C200.541 110.884 200.709 110.787 200.709 110.547L200.709 106.111C200.709 105.872 200.541 105.581 200.334 105.461L183.939 95.9956C183.732 95.8759 183.564 95.973 183.564 96.2123L183.564 100.648C183.564 100.888 183.732 101.179 183.939 101.299L200.334 110.764ZM200.334 120.075C200.541 120.195 200.709 120.098 200.709 119.859L200.709 115.445C200.709 115.205 200.541 114.914 200.334 114.794L183.939 105.329C183.732 105.209 183.564 105.306 183.564 105.546L183.564 109.96C183.564 110.199 183.732 110.49 183.939 110.61L200.334 120.075Z" fill="#FFB5B5" stroke="black" stroke-width="0.86692" stroke-linecap="round" stroke-linejoin="round"/>
<path d="M224.701 4.34314C216.876 7.019 201.166 12.3829 200.922 12.4315L178.664 25.3243L203.477 18.1482C208.605 15.2088 218.96 9.26916 219.349 9.0259C219.739 8.78264 220.12 8.884 220.262 8.96509L227.438 13.0397L235.04 10.303L224.701 4.34314Z" fill="white" fill-opacity="0.6"/>
<path d="M281.869 16.7892C281.869 15.726 282.731 14.8641 283.794 14.8641C284.857 14.8641 285.719 15.726 285.719 16.7892V40.6597C285.719 41.7228 284.857 42.5847 283.794 42.5847C282.731 42.5847 281.869 41.7228 281.869 40.6597V16.7892Z" fill="#E0E0E0" stroke="black" stroke-width="0.86692" stroke-linecap="round" stroke-linejoin="round"/>
<circle cx="283.753" cy="14.803" r="5.53417" fill="#FF8484" stroke="black" stroke-width="0.86692" stroke-linecap="round" stroke-linejoin="round"/>
<ellipse cx="286.132" cy="13.0892" rx="1.27712" ry="2.4326" transform="rotate(-34.9386 286.132 13.0892)" fill="#FFE1E1"/>
<path d="M135.424 87.9635C127.66 90.1325 111.998 94.4707 111.463 94.4707L144.607 75.3748L148.378 77.5641V84.7403L145.884 83.3415L144.425 82.6726L135.424 87.9635Z" fill="white" fill-opacity="0.6"/>
</svg>
