<svg width="749" height="749" viewBox="0 0 749 749" fill="none" xmlns="http://www.w3.org/2000/svg">


<style>
@keyframes left-paw {
  0% { transform: translateY(0px); }
  35% { transform: translateY(0px); }
  36% { transform: translateY(-60px); } 
  37% { transform: translateY(-60px); } 
  45%, 100% { transform: translateY(0px); }
}
@keyframes right-paw {
  0% { transform: translateX(0px); }
  85% { transform: translateX(0px); }
  86% { transform: translateX(-32px); } 
  87% { transform: translateX(-32px); } 
  95%, 100% { transform: translateX(0px); }
}

#left-paw {
  animation: 20s ease-in-out 0ms infinite forwards left-paw;
}
#right-paw {
  animation: 20s ease-in-out 0ms infinite forwards right-paw;
}
</style>


<g id="74" clip-path="url(#clip0)">
<g id="Group 1985">
<g id="Group 1954">
<ellipse id="Ellipse 263" cx="368.003" cy="505.553" rx="63.9018" ry="40.5011" fill="#D6D2CD"/>
<ellipse id="Ellipse 267" cx="331.102" cy="410.15" rx="52.2014" ry="40.5011" fill="#D6D2CD"/>
<ellipse id="Ellipse 264" cx="580.41" cy="580.255" rx="49.5014" ry="27.0007" fill="#D6D2CD"/>
<path id="Rectangle 1308" d="M712.96 491.4L732.191 449.224L608.028 424.667L483.866 449.224L464.635 491.4L588.797 563.085L658.805 552.242L712.96 491.4Z" fill="#D6D2CD"/>
<g id="Group 1466">
<path id="Rectangle 1307" d="M264.327 534.64L283.558 492.464L159.396 467.907L35.2332 492.464L16.002 534.64L140.164 606.326L264.327 534.64Z" fill="#D6D2CD"/>
<g id="Group 1465">
<g id="Group 1452">
<path id="Rectangle 1311" d="M488.642 368.56L507.874 326.384L383.711 301.827L259.548 326.384L240.317 368.56L364.48 440.245L488.642 368.56Z" fill="#D6D2CD"/>
<g id="Group 1248">
<g id="Group 1235">
<path id="Rectangle 1311_2" d="M384.083 112.242L259.921 183.927L228.505 242.887L352.667 171.202L384.083 112.242Z" fill="#E0A173" stroke="black" stroke-width="1.80005" stroke-linecap="round" stroke-linejoin="round"/>
<rect id="Rectangle 1304" width="143.37" height="143.37" transform="matrix(-0.866025 -0.5 -0.866025 0.5 508.369 183.927)" fill="#4E4E4E" stroke="black" stroke-width="1.80005" stroke-linecap="round" stroke-linejoin="round"/>
<rect id="Rectangle 1307_2" width="104.784" height="104.784" transform="matrix(-0.866025 -0.5 -0.866025 0.5 474.952 203.221)" fill="black" stroke="black" stroke-width="1.80005" stroke-linecap="round" stroke-linejoin="round"/>
<g id="left-paw">
<g id="Claws">
<path id="Vector 495" d="M282.778 220.333C281.985 222.501 282.778 225.682 282.778 225.875C283.852 224.635 284.58 224.133 286.393 223.851C286.393 223.851 284.443 221.007 282.778 220.333Z" fill="black" stroke="black"/>
<path id="Vector 496" d="M294.306 208.61C293.033 210.536 293.069 213.814 293.024 214.001C294.445 213.206 295.35 213.032 297.009 212.868C297.009 212.868 296.25 210.068 294.306 208.61Z" fill="black" stroke="black"/>
<path id="Vector 497" d="M309.357 209.827C307.521 211.228 306.815 213.94 306.711 214.103C308.375 213.756 309.31 213.696 310.947 214.454C310.947 214.454 310.562 211.177 309.357 209.827Z" fill="black" stroke="black"/>
<path id="Vector 498" d="M320.683 215.853C318.847 217.253 318.176 219.755 318.072 219.917C319.701 219.821 320.669 220.039 321.79 221.056C321.79 221.056 321.723 217.319 320.683 215.853Z" fill="black" stroke="black"/>
</g>
<path id="Vector 494" d="M289.553 250.231C287.315 273.114 288.223 294.118 289.553 304.65L325.499 305.717C319.281 280.254 319.281 265.456 319.281 251.725V251.725C324.693 242.175 326.22 229.763 323.833 224.411C321.447 219.059 318.148 219.596 316.022 221.012C315.348 219.235 314.742 215.939 310.824 214.567C306.906 213.196 304.62 214.529 302.903 216L302.875 215.977C300.438 213.935 298.733 212.507 294.567 213.426C290.169 214.395 288.223 218.882 288.223 223.785C286.966 223.491 285.095 223.641 283.472 224.949C279.612 228.061 280.154 240.409 289.553 250.231Z" fill="#FFDBC0" stroke="black" stroke-width="1.8"/>
<path id="Vector 495_2" d="M303.729 243.351C300.618 243.45 297.089 246.826 294.955 244.442C292.821 242.057 297.032 229.785 303.809 229.627C310.587 229.469 314.208 243.673 311.062 244.936C307.915 246.199 306.84 243.252 303.729 243.351Z" fill="black"/>
<path id="Ellipse 268" d="M290.592 230.579C291.007 232.299 290.308 235.514 288.588 235.929C286.869 236.345 284.78 233.803 284.364 232.083C283.949 230.364 284.917 228.261 286.636 227.845C288.356 227.43 290.177 228.86 290.592 230.579Z" fill="black"/>
<path id="Ellipse 269" d="M299.585 220.515C299.775 222.274 298.666 225.372 296.907 225.562C295.148 225.751 293.405 222.96 293.216 221.201C293.026 219.442 294.248 217.397 296.007 217.208C297.766 217.018 299.396 218.756 299.585 220.515Z" fill="black"/>
<path id="Ellipse 270" d="M311.358 222.132C311.058 223.876 309.138 226.583 307.395 226.283C305.651 225.984 304.744 222.792 305.043 221.048C305.343 219.304 307.058 217.788 308.802 218.087C310.545 218.386 311.657 220.388 311.358 222.132Z" fill="black"/>
<path id="Ellipse 271" d="M322.074 228.18C322.074 229.949 320.062 233.27 318.293 233.27C316.524 233.27 315.667 229.949 315.667 228.18C315.667 226.411 317.101 224.976 318.87 224.976C320.64 224.976 322.074 226.411 322.074 228.18Z" fill="black"/>
<path id="Vector 501" d="M298.728 288.129C306.118 288.129 311.412 287.333 320.963 283.391C321.358 285.672 321.849 287.693 322.416 290.466C310.439 294.863 301.633 290.74 298.728 288.129Z" fill="black"/>
<path id="Vector 500" d="M301.508 260.334C310.099 260.334 314.963 256.754 319.322 255.091V260.903C309.645 263.683 306.087 263.508 301.508 260.334Z" fill="black"/>
<path id="Vector 499" d="M298.097 273.535C294.306 272.818 290.028 269.736 288.363 268.284V275.585C290.202 277.425 291.995 278.036 295.265 278.51C300.255 279.233 307.343 278.51 313.465 274.304C306.114 274.966 302.836 274.432 298.097 273.535Z" fill="black"/>
</g>
<rect id="Rectangle 1301" width="143.37" height="143.37" transform="matrix(-0.866025 0.5 2.20305e-08 1 508.369 183.927)" fill="#FFB681" stroke="black" stroke-width="1.80005" stroke-linecap="round" stroke-linejoin="round"/>
<path id="Rectangle 1310" d="M465.762 208.528L385.957 254.604L385.957 397.085L449.585 359.207L465.762 208.528Z" fill="#E0A173"/>
<rect id="Rectangle 1309" width="25.052" height="59.4845" transform="matrix(-0.866025 0.5 2.20305e-08 1 474.517 254.596)" fill="white" stroke="black" stroke-width="1.80005" stroke-linecap="round" stroke-linejoin="round"/>
<path id="Rectangle 1308_2" d="M508.369 183.931L384.206 255.616L405.37 324.695L529.532 253.01L508.369 183.931Z" fill="#FFDBC0" stroke="black" stroke-width="1.80005" stroke-linecap="round" stroke-linejoin="round"/>
<path id="Rectangle 1303" d="M259.78 183.417L384.206 255.613L384.206 398.983L260.044 327.298L259.78 183.417Z" fill="#E0A173" stroke="black" stroke-width="1.80005" stroke-linecap="round" stroke-linejoin="round"/>
</g>
</g>
</g>
<g id="Group 1922">
<path id="Vector (Stroke)" fill-rule="evenodd" clip-rule="evenodd" d="M420.525 494.55C420.547 509.256 399.915 521.168 374.443 521.156C348.97 521.143 328.304 509.211 328.282 494.505C328.278 491.813 328.964 489.221 330.24 486.781C330.474 486.333 330.547 485.879 330.479 485.439L330.131 478.329C326.879 477.759 317.748 480.315 316.768 482.192C315.147 485.291 315.978 491.102 315.983 494.499C316.01 513.127 342.188 528.241 374.453 528.256C406.718 528.272 432.852 513.184 432.825 494.556L432.464 486.199C429.694 469.042 404.785 460.813 374.354 460.798C368.472 460.795 362.783 461.295 357.414 462.231C354.164 462.797 352.329 464.778 353.316 466.655C354.302 468.533 357.736 469.595 360.986 469.029C365.213 468.293 369.702 467.896 374.365 467.899C399.837 467.911 420.504 479.843 420.525 494.55ZM392.852 494.536C392.861 500.419 384.608 505.183 374.419 505.178C364.23 505.174 355.964 500.401 355.955 494.518C355.952 492.557 353.197 490.966 349.8 490.965C347.27 490.963 344.381 485.642 343.439 486.903C343.117 487.334 343.656 494.512 343.656 494.512C343.67 504.316 357.448 512.271 374.43 512.279C391.411 512.288 405.166 504.346 405.152 494.542L404.956 486.794C402.621 478.317 390.692 473.276 375.358 473.268C373.288 473.267 368.241 470.94 367.945 472.996L368.233 480.322C368.236 482.283 370.992 483.874 374.388 483.876C384.577 483.881 392.844 488.654 392.852 494.536ZM377.015 496.035C378.031 495.448 378.616 494.707 378.771 493.942C378.981 492.9 378.538 486.272 378.538 486.272L344.802 472.42C342.399 471.032 336.452 466.294 334.053 467.679C334.053 467.679 334.401 473.88 334.318 474.719C334.222 475.695 334.82 476.69 336.113 477.437L368.318 496.03C370.722 497.418 374.615 497.42 377.015 496.035Z" fill="#FAC864" stroke="black" stroke-width="2.22731" stroke-linecap="round" stroke-linejoin="round"/>
<path id="Vector (Stroke)_2" fill-rule="evenodd" clip-rule="evenodd" d="M420.271 487.277C420.292 501.983 399.66 513.895 374.188 513.883C348.716 513.87 328.049 501.938 328.027 487.232C328.023 484.54 328.709 481.948 329.985 479.508C330.966 477.631 329.125 475.649 325.873 475.079C322.622 474.51 319.191 475.569 318.21 477.445C316.59 480.545 315.723 483.829 315.728 487.226C315.755 505.854 341.933 520.968 374.198 520.983C406.463 520.999 432.597 505.911 432.57 487.283C432.542 468.655 406.364 453.541 374.099 453.525C368.217 453.522 362.528 454.022 357.159 454.958C353.91 455.524 352.075 457.505 353.061 459.382C354.047 461.26 357.482 462.322 360.731 461.756C364.958 461.02 369.447 460.623 374.11 460.626C399.582 460.638 420.249 472.57 420.271 487.277ZM392.598 487.263C392.606 493.146 384.353 497.911 374.164 497.906C363.976 497.901 355.709 493.128 355.7 487.245C355.697 485.284 352.942 483.693 349.545 483.692C346.149 483.69 343.398 485.278 343.401 487.239C343.415 497.043 357.193 504.998 374.175 505.006C391.156 505.015 404.911 497.074 404.897 487.269C404.882 477.465 391.104 469.51 374.123 469.502C370.727 469.5 367.976 471.089 367.979 473.049C367.981 475.01 370.737 476.601 374.133 476.603C384.322 476.608 392.589 481.381 392.598 487.263ZM376.76 488.762C379.16 487.376 379.156 485.128 376.753 483.741L344.547 465.147C342.144 463.759 338.25 463.757 335.851 465.143C333.451 466.528 333.454 468.776 335.858 470.164L368.063 488.758C370.467 490.145 374.361 490.147 376.76 488.762Z" fill="#FFE598" stroke="black" stroke-width="2.22731" stroke-linecap="round" stroke-linejoin="round"/>
</g>
<g id="Group 1949">
<ellipse id="Ellipse 265" cx="277.308" cy="565.536" rx="38.8128" ry="20.7006" transform="rotate(-18.7569 277.308 565.536)" fill="#D6D2CD"/>
<ellipse id="Ellipse 266" cx="311.509" cy="585.336" rx="38.8128" ry="20.7006" transform="rotate(-18.7569 311.509 585.336)" fill="#D6D2CD"/>
<path id="Ellipse 267_2" d="M347.974 605.256C351.65 616.082 342.673 628.918 327.922 633.927C313.172 638.936 298.234 634.221 294.558 623.396C290.882 612.57 299.859 599.734 314.61 594.725C329.36 589.716 344.298 594.431 347.974 605.256Z" fill="#D6D2CD"/>
<g id="Group 1451">
<g id="Group 1447">
<path id="Vector" d="M294.896 573.019C294.896 573.494 294.628 573.928 294.203 574.14C289.161 576.658 283.72 577.787 277.903 577.534C272.104 577.292 266.649 575.696 261.555 572.755C256.75 569.981 253.844 566.69 253.583 562.778C253.563 562.474 253.561 560.156 253.569 557.945C253.573 556.818 253.581 555.688 253.592 554.807C253.597 554.368 253.603 553.986 253.61 553.697C253.616 553.45 253.624 553.176 253.644 553.028C253.688 552.703 253.857 552.408 254.115 552.207L254.886 553.194C254.115 552.207 254.115 552.206 254.115 552.206L254.116 552.206L254.116 552.205L254.119 552.203L254.13 552.195L254.168 552.166C254.201 552.14 254.249 552.103 254.312 552.055C254.438 551.96 254.624 551.82 254.865 551.641C255.349 551.285 256.057 550.773 256.964 550.146C258.777 548.894 261.387 547.182 264.583 545.336L267.15 543.855C271.299 541.459 275.691 539.768 280.32 538.786C284.949 537.804 289.477 537.606 293.897 538.204C298.353 538.801 302.413 540.149 306.064 542.256C307.13 542.872 307.895 543.199 308.588 543.495C308.872 543.617 309.145 543.733 309.421 543.862C310.418 544.328 311.218 544.879 312.002 546.107C312.221 546.45 312.651 546.84 313.115 547.182C313.333 547.342 313.532 547.473 313.676 547.563C313.748 547.608 313.805 547.642 313.843 547.665C313.861 547.676 313.875 547.683 313.883 547.688L313.89 547.692L313.891 547.692C314.286 547.914 314.531 548.332 314.531 548.785V557.084C314.531 557.114 314.53 557.145 314.528 557.175C314.285 560.495 311.974 563.465 308.177 566.135C307.778 566.416 307.252 566.44 306.83 566.196L298.179 561.201C297.791 560.977 297.552 560.564 297.552 560.116V552.348C297.552 552.211 297.574 552.077 297.616 551.953C295.002 550.471 292.102 549.887 288.872 550.224L294.896 573.019ZM294.896 573.019V565.218C294.896 564.565 294.393 564.021 293.742 563.969L285.09 563.287C284.864 563.269 284.638 563.313 284.435 563.414M294.896 573.019L284.435 563.414M284.435 563.414C281.831 564.707 279.378 565.298 277.06 565.248C274.795 565.198 272.404 564.479 269.873 563.018C268.792 562.394 267.895 562.145 267.234 562.033C267.572 561.392 268.201 560.621 269.222 559.726C270.455 558.645 272.172 557.46 274.401 556.173L277.569 554.344M284.435 563.414L277.569 554.344M277.569 554.344C281.861 551.91 285.623 550.566 288.872 550.224L277.569 554.344ZM307.041 608.513C306.994 608.654 306.974 608.797 306.977 608.938V616.641C306.977 617.089 307.216 617.502 307.604 617.726L325.591 628.111C325.978 628.335 326.456 628.335 326.844 628.111L331.043 625.686C331.431 625.463 331.669 625.049 331.669 624.601V619.146C335.01 619.05 337.726 618.81 339.791 618.412C341.9 618.007 343.701 617.4 345.155 616.561C347.478 615.22 349.106 613.492 349.049 611.275L349.026 603.293C349.026 603.245 349.023 603.196 349.017 603.148C348.985 602.877 348.907 602.478 348.648 602.128C348.32 601.687 347.848 601.509 347.418 601.501C347.081 601.494 346.78 601.591 346.624 601.644C346.533 601.675 346.392 601.728 346.275 601.772C346.211 601.796 346.155 601.817 346.118 601.83C345.806 601.943 345.524 602.02 345.217 602.021C344.926 602.022 344.545 601.955 344.056 601.672C342.153 600.574 340.053 599.833 337.768 599.442C335.524 599.049 333.296 599.015 331.091 599.344C331.079 599.34 331.062 599.336 331.041 599.329C330.931 599.295 330.773 599.227 330.56 599.116C330.209 598.933 329.815 598.686 329.376 598.406C333.244 597.383 336.951 595.847 340.496 593.8L342.37 592.718C346.577 590.289 349.646 587.636 351.432 584.716C352.571 582.892 353.176 581.02 353.155 579.12L353.155 571.23C353.155 571.071 353.125 570.912 353.065 570.764C352.405 569.117 351.153 568.11 349.777 567.293C349.114 566.899 348.381 566.526 347.639 566.148L347.568 566.112C346.789 565.715 345.981 565.302 345.138 564.816C343.017 563.591 340.798 563.681 338.781 563.902C338.371 563.947 337.97 563.997 337.576 564.046C335.945 564.249 334.42 564.438 332.801 564.219C328.267 563.599 323.607 563.785 318.826 564.766L318.824 564.766C314.077 565.748 309.578 567.467 305.33 569.919L303.254 571.118L303.249 571.121C301.67 572.041 300.325 572.39 299.042 572.722C298.836 572.775 298.632 572.828 298.429 572.883C297.103 573.24 295.738 573.702 294.698 575.074L293.909 575.205C293.31 575.303 292.868 575.817 292.86 576.424C292.852 576.982 292.872 579.506 292.947 582.017C292.985 583.274 293.037 584.543 293.108 585.57C293.144 586.082 293.185 586.549 293.233 586.93C293.275 587.256 293.338 587.675 293.467 587.985C294.669 590.874 297.19 593.329 300.803 595.415C304.475 597.535 308.594 598.893 313.143 599.501C316.862 600.005 320.63 599.976 324.442 599.418V605.954C324.442 606.402 324.68 606.816 325.068 607.039L329.353 609.513L308.366 607.663C308.179 607.642 307.994 607.665 307.822 607.724C307.735 607.754 307.652 607.793 307.574 607.841C307.36 607.972 307.184 608.169 307.079 608.414C307.066 608.443 307.055 608.472 307.045 608.502C307.044 608.505 307.042 608.509 307.041 608.513ZM333.251 609.307C333.879 609.112 334.523 608.998 335.184 608.964C335.41 608.953 335.631 608.951 335.845 608.96C335.6 609.008 335.341 609.053 335.065 609.093L335.058 609.094C334.524 609.175 333.921 609.247 333.251 609.307ZM327.365 572.85L327.368 572.85C330.992 572.473 334.093 573.079 336.734 574.603C338.091 575.387 338.889 576.159 339.29 576.869C339.664 577.531 339.738 578.216 339.483 579.015C339.217 579.849 338.564 580.829 337.371 581.943C336.185 583.049 334.532 584.227 332.379 585.47L330.336 586.649C330.336 586.65 330.335 586.65 330.335 586.65C326.058 589.097 322.11 590.488 318.481 590.887C314.879 591.273 311.789 590.673 309.15 589.149C307.775 588.356 306.978 587.575 306.588 586.858C306.225 586.193 306.162 585.495 306.448 584.667C307.076 582.855 309.247 580.674 313.504 578.216L315.547 577.037C315.548 577.036 315.549 577.036 315.549 577.035C319.825 574.589 323.76 573.216 327.365 572.85ZM266.914 562.894C266.914 562.895 266.914 562.889 266.917 562.876C266.916 562.888 266.914 562.894 266.914 562.894Z" fill="#FF8484" stroke="black" stroke-width="2.5057" stroke-linecap="round" stroke-linejoin="round"/>
<g id="Group 1443">
<path id="2" d="M307.607 607.436C307.219 607.66 306.981 608.074 306.981 608.521C306.981 608.969 307.219 609.383 307.607 609.606L325.594 619.991C325.982 620.215 326.459 620.215 326.847 619.991L331.046 617.567C331.434 617.343 331.673 616.929 331.673 616.482C331.673 616.034 331.434 615.621 331.046 615.397L323.693 611.151L331.412 611.033L331.412 611.033L331.426 611.033C334.88 610.942 337.679 610.7 339.795 610.293C341.903 609.887 343.704 609.281 345.159 608.441C347.637 607.01 349.321 605.132 349.02 602.728C348.75 600.484 346.81 598.629 344.059 597.041C342.156 595.942 340.057 595.201 337.771 594.81C335.503 594.413 333.252 594.383 331.024 594.723L331.019 594.724C328.809 595.071 326.82 595.74 325.072 596.75C324.684 596.973 324.445 597.387 324.445 597.835C324.445 598.282 324.684 598.696 325.072 598.92L330.298 601.937C330.686 602.161 331.163 602.161 331.551 601.937C332.707 601.27 333.915 600.91 335.188 600.844C336.475 600.779 337.57 601.037 338.517 601.584C338.982 601.852 339.223 602.077 339.336 602.229C339.388 602.299 339.404 602.343 339.409 602.359C339.414 602.373 339.414 602.381 339.413 602.394L339.411 602.413C339.403 602.492 339.274 602.91 338.174 603.545C337.513 603.927 336.503 604.251 335.069 604.462L335.068 604.462L335.061 604.463C333.634 604.68 331.723 604.824 329.311 604.886L311.779 605.208C311.567 605.212 311.359 605.27 311.176 605.376L307.607 607.436Z" fill="#FFB5B5" stroke="black" stroke-width="2.5057" stroke-linecap="round" stroke-linejoin="round"/>
<path id="CO" d="M294.203 566.012C294.615 565.806 294.881 565.39 294.895 564.929C294.909 564.468 294.669 564.036 294.27 563.806L285.618 558.811C285.255 558.601 284.811 558.587 284.435 558.774C281.831 560.067 279.378 560.658 277.06 560.608C274.795 560.558 272.404 559.839 269.873 558.378C268.481 557.574 267.662 556.812 267.255 556.138C266.884 555.525 266.827 554.95 267.052 554.31C267.314 553.598 267.976 552.69 269.222 551.598C270.455 550.517 272.172 549.331 274.401 548.045L277.569 546.216C281.861 543.782 285.622 542.438 288.871 542.095C292.144 541.755 295.077 542.358 297.717 543.882C298.983 544.613 299.865 545.294 300.422 545.908C300.978 546.52 301.144 546.988 301.158 547.326C301.158 547.337 301.159 547.348 301.159 547.359C301.181 547.689 301.068 548.152 300.585 548.783C300.098 549.42 299.294 550.146 298.104 550.949C297.746 551.191 297.538 551.6 297.553 552.032C297.568 552.463 297.804 552.857 298.179 553.073L306.83 558.067C307.252 558.311 307.778 558.288 308.177 558.007C312.54 554.938 314.941 551.462 314.497 547.567C314.062 543.749 311.007 540.47 306.064 537.617C302.413 535.509 298.353 534.161 293.897 533.564C289.477 532.966 284.949 533.164 280.32 534.146C275.691 535.128 271.299 536.819 267.15 539.215L264.583 540.697C258.194 544.385 254.291 548.411 253.646 552.891L253.646 552.891L253.644 552.903C253.022 557.547 256.025 561.434 261.555 564.627C266.649 567.568 272.104 569.164 277.903 569.406C283.72 569.658 289.161 568.53 294.203 566.012ZM294.36 570.934L294.357 570.938C292.586 573.883 292.236 576.898 293.467 579.857C294.669 582.746 297.19 585.201 300.803 587.287C304.475 589.407 308.594 590.765 313.143 591.373C317.712 591.992 322.354 591.807 327.062 590.825C331.77 589.842 336.249 588.123 340.496 585.672L342.37 584.59C346.577 582.161 349.646 579.508 351.432 576.588C353.279 573.631 353.682 570.601 352.449 567.63C351.285 564.733 348.766 562.271 345.138 560.176C341.484 558.067 337.366 556.71 332.799 556.091C328.266 555.471 323.606 555.657 318.826 556.638L318.824 556.638C314.077 557.62 309.578 559.339 305.33 561.791L303.254 562.99L303.249 562.993C299.133 565.392 296.123 568.025 294.36 570.934ZM327.365 564.722L327.368 564.722C330.992 564.345 334.093 564.951 336.734 566.475C338.091 567.259 338.889 568.03 339.29 568.741C339.664 569.403 339.738 570.088 339.483 570.887C339.217 571.721 338.564 572.701 337.371 573.815C336.185 574.921 334.532 576.099 332.379 577.342L330.336 578.521C330.335 578.522 330.334 578.522 330.333 578.523C326.057 580.97 322.11 582.36 318.481 582.759C314.879 583.145 311.789 582.545 309.149 581.021C307.775 580.227 306.978 579.446 306.588 578.73C306.225 578.064 306.162 577.366 306.448 576.539C307.076 574.727 309.247 572.546 313.504 570.088L315.547 568.908C315.548 568.908 315.549 568.908 315.549 568.907C319.825 566.461 323.76 565.088 327.365 564.722Z" fill="#FFB5B5" stroke="black" stroke-width="2.5057" stroke-linecap="round" stroke-linejoin="round"/>
</g>
</g>
</g>
</g>
<g id="Group 1437">
<g id="Group 1248_2">
<g id="Group 1235_2">
<rect id="Rectangle 1303_2" width="143.37" height="143.37" transform="matrix(0.866025 0.5 -2.20305e-08 1 483.021 306.87)" fill="#4E4E4E" stroke="black" stroke-width="1.80005" stroke-linecap="round" stroke-linejoin="round"/>
<rect id="Rectangle 1306" width="101.265" height="101.265" transform="matrix(0.866025 0.5 -2.20305e-08 1 519.484 327.923)" fill="black"/>
<g id="right-paw">
<g id="Claws_2">
<path id="Vector 495_3" d="M618.403 490.803C620.689 491.125 623.634 489.685 623.822 489.645C622.386 488.854 621.743 488.247 621.088 486.533C621.088 486.533 618.715 489.033 618.403 490.803Z" fill="black" stroke="black"/>
<path id="Vector 496_2" d="M604.53 481.979C606.679 482.822 609.877 482.101 610.07 482.106C608.995 480.883 608.635 480.034 608.129 478.446C608.129 478.446 605.55 479.773 604.53 481.979Z" fill="black" stroke="black"/>
<path id="Vector 497_2" d="M602.576 467.006C604.329 468.509 607.129 468.632 607.31 468.7C606.623 467.146 606.369 466.244 606.768 464.484C606.768 464.484 603.644 465.545 602.576 467.006Z" fill="black" stroke="black"/>
<path id="Vector 498_2" d="M606.102 454.671C607.855 456.174 610.441 456.307 610.622 456.375C610.187 454.802 610.198 453.81 610.958 452.501C610.958 452.501 607.318 453.348 606.102 454.671Z" fill="black" stroke="black"/>
</g>
<path id="Vector 494_2" d="M646.225 477.931C669.071 475.338 689.421 470.06 699.443 466.56L692.975 431.184C669.374 442.585 654.903 445.677 641.475 448.546L641.474 448.546C631.004 445.249 618.548 446.349 613.813 449.802C609.078 453.254 610.292 456.368 612.121 458.15C610.523 459.181 607.426 460.463 606.904 464.581C606.382 468.699 608.163 470.656 609.96 472.027L609.943 472.059C608.456 474.869 607.416 476.835 609.184 480.718C611.052 484.816 615.847 485.781 620.641 484.757C620.616 486.048 621.153 487.846 622.772 489.16C626.622 492.284 638.584 489.175 646.225 477.931Z" fill="#FFDBC0" stroke="black" stroke-width="1.8"/>
<path id="Vector 495_4" d="M636.535 465.505C637.282 468.526 641.321 471.272 639.435 473.857C637.549 476.443 624.668 474.889 623.097 468.294C621.527 461.698 634.66 455.19 636.553 458.003C638.446 460.816 635.789 462.483 636.535 465.505Z" fill="black"/>
<path id="Ellipse 268_2" d="M626.791 481.02C628.386 480.255 631.676 480.267 632.441 481.862C633.207 483.457 631.158 486.031 629.563 486.796C627.968 487.562 625.71 487.055 624.944 485.46C624.179 483.865 625.196 481.786 626.791 481.02Z" fill="black"/>
<path id="Ellipse 269_2" d="M615.069 474.329C616.75 473.776 620.012 474.212 620.565 475.893C621.118 477.574 618.752 479.862 617.071 480.414C615.391 480.967 613.136 480.199 612.583 478.519C612.03 476.838 613.389 474.881 615.069 474.329Z" fill="black"/>
<path id="Ellipse 270_2" d="M614.191 462.479C615.959 462.407 619.007 463.719 619.079 465.487C619.151 467.254 616.218 468.809 614.45 468.88C612.683 468.952 610.841 467.591 610.77 465.823C610.698 464.056 612.423 462.55 614.191 462.479Z" fill="black"/>
<path id="Ellipse 271_2" d="M617.866 450.735C619.597 450.365 623.265 451.639 623.634 453.369C624.004 455.099 620.935 456.631 619.205 457C617.475 457.37 615.773 456.267 615.403 454.537C615.033 452.807 616.136 451.105 617.866 450.735Z" fill="black"/>
<path id="Vector 501_2" d="M681.37 461.04C679.825 453.812 677.941 448.801 672.09 440.285C674.239 439.422 676.113 438.52 678.705 437.386C685.508 448.179 683.316 457.652 681.37 461.04Z" fill="black"/>
<path id="Vector 500_2" d="M653.608 464.128C651.813 455.727 647.296 451.719 644.758 447.803L650.442 446.589C655.183 455.471 655.754 458.987 653.608 464.128Z" fill="black"/>
<path id="Vector 499_2" d="M667.23 464.706C667.321 468.563 665.2 473.39 664.129 475.322L671.268 473.796C672.683 471.613 672.906 469.732 672.686 466.436C672.351 461.404 670.163 454.624 664.77 449.516C666.954 456.567 667.117 459.884 667.23 464.706Z" fill="black"/>
</g>
<rect id="Rectangle 1304_2" width="143.37" height="143.37" transform="matrix(-0.866025 -0.5 -0.866025 0.5 731.345 306.87)" fill="#FFDBC0" stroke="black" stroke-width="1.80005" stroke-linecap="round" stroke-linejoin="round"/>
<rect id="Rectangle 1305" width="21.1478" height="143.37" transform="matrix(-0.866025 -0.5 -0.866025 0.5 678.423 276.313)" fill="white" stroke="black" stroke-width="1.80005" stroke-linecap="round" stroke-linejoin="round"/>
<rect id="Rectangle 1301_2" width="143.37" height="143.37" transform="matrix(-0.866025 0.5 2.20305e-08 1 731.345 306.87)" fill="#FFB681" stroke="black" stroke-width="1.80005" stroke-linecap="round" stroke-linejoin="round"/>
<rect id="Rectangle 1309_2" width="29.8867" height="30.3512" transform="matrix(-0.866025 0.5 2.20305e-08 1 726.748 321.46)" fill="#FFDBC0" stroke="black" stroke-width="1.80005" stroke-linecap="round" stroke-linejoin="round"/>
<path id="Rectangle 1308_3" d="M670.669 368.91L607.183 378.557L607.183 521.927L670.669 512.281L670.669 368.91Z" fill="#E0A173" stroke="black" stroke-width="1.80005" stroke-linecap="round" stroke-linejoin="round"/>
<rect id="Rectangle 1307_3" width="19.9244" height="24.564" transform="matrix(0.866025 0.5 -2.20305e-08 1 536.94 338.001)" fill="white" stroke="black" stroke-width="1.80005" stroke-linecap="round" stroke-linejoin="round"/>
</g>
</g>
</g>
<g id="Group 1947">
<ellipse id="Ellipse 262" cx="507.507" cy="502.853" rx="52.2014" ry="30.6008" fill="#D6D2CD"/>
</g>
<g id="Group 1464">
<g id="Group 1460">
<path id="Union" d="M277.1 380.299C283.241 376.754 297.803 381.843 303.943 385.388L358.47 416.87C363.323 417.061 374.192 415.503 377.901 417.645L377.901 428.962C377.868 432.018 375.831 435.068 371.792 437.4C363.646 442.103 350.439 442.103 342.293 437.4C338.583 435.258 336.562 432.51 336.232 429.708L281.705 398.227C278.637 396.456 277.102 394.135 277.1 391.814L277.1 380.299Z" fill="#5E6FDB" stroke="black" stroke-width="1.80005" stroke-linecap="round" stroke-linejoin="round"/>
<path id="Union_2" d="M281.707 374.108C287.848 370.563 297.804 370.563 303.945 374.108L358.472 405.59C363.325 405.781 368.084 406.947 371.794 409.089C379.94 413.792 379.94 421.417 371.794 426.12C363.648 430.823 350.44 430.823 342.294 426.12C338.584 423.978 336.564 421.23 336.233 418.428L281.707 386.947C275.566 383.402 275.566 377.654 281.707 374.108Z" fill="#B0B8ED" stroke="black" stroke-width="1.80005" stroke-linecap="round" stroke-linejoin="round"/>
<path id="Union_3" d="M303.908 386.921C306.087 385.663 309.62 385.663 311.799 386.921L355.784 412.316C358.967 411.951 362.397 412.48 364.864 413.905C368.791 416.172 368.791 419.848 364.864 422.116C360.937 424.383 354.569 424.383 350.642 422.116C348.174 420.691 347.257 418.709 347.891 416.87L303.908 391.477C301.729 390.219 301.729 388.179 303.908 386.921Z" fill="#5E6FDB" stroke="black" stroke-width="1.80005" stroke-linecap="round" stroke-linejoin="round"/>
</g>
</g>
<g id="Group 1247">
<g id="Group 1235_3">
<rect id="Rectangle 1304_3" width="143.37" height="143.37" transform="matrix(-0.866025 -0.5 -0.866025 0.5 284.057 350.008)" fill="#FFDBC0" stroke="black" stroke-width="1.80005" stroke-linecap="round" stroke-linejoin="round"/>
<rect id="Rectangle 1307_4" width="67.6724" height="143.37" transform="matrix(-0.866025 -0.5 -0.866025 0.5 284.057 350.009)" fill="#FFDBC0" stroke="black" stroke-width="1.80005" stroke-linecap="round" stroke-linejoin="round"/>
<rect id="Rectangle 1309_3" width="26.1976" height="34.0792" transform="matrix(-0.866025 -0.5 -0.866025 0.5 265.609 349.655)" fill="white" stroke="black" stroke-width="1.80005" stroke-linecap="round" stroke-linejoin="round"/>
<rect id="Rectangle 1305_2" width="145.748" height="19.4308" transform="matrix(-0.866025 -0.5 -0.866025 0.5 231.421 381.586)" fill="white" stroke="black" stroke-width="1.80005" stroke-linecap="round" stroke-linejoin="round"/>
<rect id="Rectangle 1301_3" width="143.37" height="143.37" transform="matrix(-0.866025 0.5 2.20305e-08 1 284.057 350.008)" fill="#FFB681" stroke="black" stroke-width="1.80005" stroke-linecap="round" stroke-linejoin="round"/>
<rect id="Rectangle 1303_3" width="143.37" height="143.37" transform="matrix(0.866025 0.5 -2.20305e-08 1 35.7305 350.008)" fill="#E0A173" stroke="black" stroke-width="1.80005" stroke-linecap="round" stroke-linejoin="round"/>
<rect id="Rectangle 1308_4" width="40.5595" height="17.4237" transform="matrix(0.866025 0.5 -2.20305e-08 1 80.25 399.107)" fill="#4E4E4E" stroke="black" stroke-width="1.80005" stroke-linecap="round" stroke-linejoin="round"/>
<rect id="Rectangle 1306_2" width="19.925" height="48.4613" transform="matrix(-0.866025 0.5 2.20305e-08 1 230.663 380.798)" fill="white" stroke="black" stroke-width="1.80005" stroke-linecap="round" stroke-linejoin="round"/>
</g>
</g>
</g>
</g>
<g id="Group 1952">
<path id="Ellipse 254" d="M552.375 506.762C531.817 518.631 498.485 518.631 477.927 506.762C467.887 500.966 462.751 493.411 462.517 485.815L462.514 473.029C465.058 468.955 472.272 467.044 477.927 463.779C498.485 451.91 531.817 451.91 552.375 463.779C558.776 467.475 565.37 468.349 567.785 473.029L567.785 485.815C567.551 493.411 562.414 500.966 552.375 506.762Z" fill="#5E6FDB" stroke="black" stroke-width="1.80005" stroke-linecap="round" stroke-linejoin="round"/>
<path id="Ellipse 253" d="M552.373 495.336C531.814 507.205 498.483 507.205 477.925 495.336C457.366 483.467 457.366 464.223 477.925 452.353C498.483 440.484 531.814 440.484 552.373 452.353C572.931 464.223 572.931 483.467 552.373 495.336Z" fill="#B0B8ED" stroke="black" stroke-width="1.80005" stroke-linecap="round" stroke-linejoin="round"/>
<path id="Ellipse 255" d="M551.776 452.408C531.599 440.466 498.885 440.466 478.707 452.408L551.776 495.653C571.954 483.711 571.954 464.349 551.776 452.408Z" fill="#5E6FDB"/>
<path id="Ellipse 253_2" d="M511.186 463.076C499.965 458.025 490.164 455.626 486.879 457.523C483.595 459.419 487.75 465.078 496.499 471.556M503.669 476.394C504.785 477.086 505.944 477.779 507.141 478.47C522.754 487.485 538.998 492.722 543.422 490.168C547.846 487.614 538.775 478.235 523.161 469.22C521.964 468.529 520.764 467.861 519.565 467.216" stroke="black" stroke-width="1.80005" stroke-linecap="round" stroke-linejoin="round"/>
<path id="Ellipse 253_3" d="M535.826 470.006C543.17 464.189 546.438 459.266 543.418 457.523C538.995 454.968 522.751 460.206 507.137 469.22C491.523 478.235 482.452 487.614 486.876 490.168C489.895 491.911 498.422 490.024 508.497 485.784" stroke="black" stroke-width="1.80005" stroke-linecap="round" stroke-linejoin="round"/>
<ellipse id="Ellipse 253_4" rx="2.40037" ry="4.89675" transform="matrix(-0.866026 0.5 -0.866025 -0.5 515.147 473.845)" fill="black" stroke="black" stroke-width="1.80005" stroke-linecap="round" stroke-linejoin="round"/>
<path id="Ellipse 256" d="M552.373 495.336C531.814 507.205 498.483 507.205 477.925 495.336C457.366 483.467 457.366 464.223 477.925 452.353C498.483 440.484 531.814 440.484 552.373 452.353C572.931 464.223 572.931 483.467 552.373 495.336Z" stroke="black" stroke-width="1.80005" stroke-linecap="round" stroke-linejoin="round"/>
</g>
<path id="Ellipse 1" d="M555.019 580.791C575.223 592.455 613.851 592.595 626.322 592.309C628.649 592.256 630.449 591.217 630.542 589.873C630.615 588.807 630.672 577.971 630.651 576.327C630.651 576.327 627.804 558.644 610.591 548.706C595.246 539.847 570.365 539.847 555.019 548.706C549.779 551.732 545.173 552.002 543.511 555.873L543.511 564.92C543.586 570.669 547.422 576.404 555.019 580.791Z" fill="#FF8484" stroke="black" stroke-width="2.44707" stroke-linecap="round" stroke-linejoin="round"/>
<path id="Ellipse 4" d="M555.019 572.182C575.223 583.847 613.851 583.986 626.322 583.701C628.649 583.648 630.45 582.608 630.542 581.265C631.036 574.065 630.795 551.763 610.591 540.098C595.246 531.238 570.365 531.238 555.019 540.098C539.674 548.958 539.674 563.323 555.019 572.182Z" fill="#FFB5B5" stroke="black" stroke-width="2.44707" stroke-linecap="round" stroke-linejoin="round"/>
<path id="Ellipse 5" d="M572.049 562.347C577.989 565.777 587.62 565.777 593.56 562.347C599.501 558.918 599.501 553.357 593.56 549.927C587.62 546.498 577.989 546.498 572.049 549.927C566.108 553.357 566.108 558.918 572.049 562.347Z" fill="#FF8484" stroke="black" stroke-width="2.44707" stroke-linecap="round" stroke-linejoin="round"/>
<g id="Intersect">
<path fill-rule="evenodd" clip-rule="evenodd" d="M593.557 562.346C587.616 565.776 577.985 565.776 572.045 562.346C571.114 561.809 570.328 561.219 569.689 560.593C570.328 559.967 571.114 559.376 572.045 558.839C577.985 555.409 587.616 555.409 593.557 558.839C594.488 559.376 595.273 559.967 595.913 560.593C595.273 561.219 594.488 561.809 593.557 562.346Z" fill="#BDDCD8"/>
<path d="M572.045 562.346L573.105 561.735L573.105 561.735L572.045 562.346ZM569.689 560.593L568.398 561.032C568.121 560.761 568.121 560.424 568.398 560.153L569.689 560.593ZM595.913 560.593L597.203 560.153C597.48 560.424 597.48 560.761 597.203 561.032L595.913 560.593ZM573.105 561.735C578.46 564.826 587.142 564.826 592.497 561.735L594.616 562.958C588.091 566.726 577.511 566.726 570.985 562.958L573.105 561.735ZM570.98 560.153C571.556 560.717 572.263 561.249 573.105 561.735L570.985 562.958C569.964 562.368 569.101 561.72 568.398 561.032L570.98 560.153ZM573.105 559.451C572.263 559.936 571.556 560.468 570.98 561.032L568.398 560.153C569.101 559.465 569.964 558.817 570.985 558.227L573.105 559.451ZM592.497 559.451C587.142 556.359 578.46 556.359 573.105 559.451L570.985 558.227C577.511 554.46 588.091 554.46 594.616 558.227L592.497 559.451ZM594.622 561.032C594.046 560.468 593.338 559.936 592.497 559.451L594.616 558.227C595.638 558.817 596.5 559.465 597.203 560.153L594.622 561.032ZM592.497 561.735C593.338 561.249 594.046 560.717 594.622 560.153L597.203 561.032C596.5 561.72 595.638 562.368 594.616 562.958L592.497 561.735Z" fill="black"/>
</g>
<g id="Group 1950">
<g id="Group 1948">
<path id="Ellipse 261" d="M441.002 556.082C451.933 554.105 463.502 553.608 474.812 554.628C475.327 554.675 475.673 554.956 475.586 555.253L480.507 564.913L470.112 573.935C470.025 574.231 469.538 574.431 469.022 574.388C463.112 573.893 452.011 585.481 446.306 586.513L435.396 588.313C433.487 591.585 428.305 595.513 423.709 599.997C423.773 600.295 423.417 600.572 422.901 600.616L390.435 603.378C389.919 603.421 389.438 603.216 389.369 602.917C387.844 596.367 388.95 589.7 392.607 583.432C396.364 576.992 402.708 571.157 411.119 566.403C419.53 561.65 429.77 558.113 441.002 556.082Z" fill="#D6D2CD"/>
<path id="Ellipse 262_2" d="M485.875 590.61C488.962 592.392 489.073 595.218 486.123 596.921C483.173 598.624 470.032 607.052 466.945 605.27C464.529 603.875 451.122 592.357 445.405 587.414C444.834 586.92 454.092 577.844 454.948 578.174C463.51 581.475 483.459 589.216 485.875 590.61Z" fill="#D6D2CD"/>
</g>
<g id="Group 1945">
<g id="Group 1935">
<path id="Ellipse 257" d="M485.11 533.908C479.174 533.373 473.492 534.797 468.038 536.535C466.609 536.99 465.203 537.464 463.81 537.934C459.808 539.282 455.921 540.591 451.951 541.309C440.597 543.363 430.209 546.944 421.644 551.784C419.596 552.942 417.587 553.884 415.644 554.754C415.126 554.985 414.61 555.213 414.097 555.44C412.706 556.054 411.344 556.655 410.07 557.281C406.558 559.006 403.424 561.047 401.345 564.61C399.359 568.014 398.452 572.611 398.218 577.119C397.982 581.651 398.417 586.258 399.245 589.783C399.422 590.538 400.025 590.916 400.393 591.074C400.81 591.253 401.284 591.318 401.739 591.279L434.206 588.518C434.656 588.479 435.139 588.334 435.537 588.027C435.933 587.722 436.396 587.101 436.219 586.271C435.565 583.206 436.098 580.072 437.853 577.065C439.711 573.88 442.9 570.912 447.25 568.454C451.595 565.998 456.922 564.151 462.806 563.087C465.474 562.605 467.808 562.714 470.245 563.018C471.095 563.125 471.992 563.261 472.929 563.403C474.599 563.657 476.399 563.93 478.299 564.089C478.75 564.127 479.219 564.064 479.634 563.892C479.999 563.741 480.588 563.387 480.798 562.67L486.272 543.989C486.316 543.837 486.334 543.661 486.338 543.616L486.339 543.608C486.349 543.516 486.359 543.401 486.369 543.272C486.389 543.012 486.412 542.665 486.435 542.262C486.481 541.457 486.529 540.412 486.558 539.375C486.586 538.343 486.597 537.292 486.565 536.484C486.55 536.088 486.523 535.702 486.471 535.393C486.448 535.249 486.407 535.042 486.324 534.84C486.284 534.742 486.204 534.569 486.056 534.398C485.904 534.222 485.593 533.952 485.11 533.908Z" fill="#55A398" stroke="black" stroke-width="2.70007"/>
<g id="Ellipse 259">
<mask id="path-84-outside-1" maskUnits="userSpaceOnUse" x="450.826" y="561.638" width="41" height="33" fill="black">
<rect fill="white" x="450.826" y="561.638" width="41" height="33"/>
<path d="M487.937 577.83C489.544 578.757 488.646 587.691 488.646 587.691C488.629 588.785 487.918 589.86 486.504 590.677C483.554 592.38 478.66 592.316 475.573 590.533C473.157 589.139 459.75 577.621 454.033 572.678C453.906 572.567 453.857 572.452 453.868 572.344C453.868 572.344 453.773 564.727 453.869 564.647C454.135 564.426 457.669 568.237 458.158 568.426C466.72 571.726 485.522 576.435 487.937 577.83Z"/>
</mask>
<path d="M487.937 577.83C489.544 578.757 488.646 587.691 488.646 587.691C488.629 588.785 487.918 589.86 486.504 590.677C483.554 592.38 478.66 592.316 475.573 590.533C473.157 589.139 459.75 577.621 454.033 572.678C453.906 572.567 453.857 572.452 453.868 572.344C453.868 572.344 453.773 564.727 453.869 564.647C454.135 564.426 457.669 568.237 458.158 568.426C466.72 571.726 485.522 576.435 487.937 577.83Z" fill="#55A398"/>
<path d="M487.937 577.83L489.287 575.491L489.287 575.491L487.937 577.83ZM486.504 590.677L487.854 593.015L486.504 590.677ZM475.573 590.533L474.223 592.872L475.573 590.533ZM454.033 572.678L455.799 570.635L455.799 570.635L454.033 572.678ZM458.158 568.426L459.129 565.906L458.158 568.426ZM488.646 587.691L485.959 587.421L485.948 587.536L485.946 587.651L488.646 587.691ZM453.869 564.647L455.595 566.724L455.595 566.724L453.869 564.647ZM453.868 572.344L456.554 572.616L456.57 572.464L456.568 572.311L453.868 572.344ZM485.154 588.338C484.208 588.884 482.76 589.234 481.125 589.212C479.499 589.191 477.981 588.806 476.923 588.195L474.223 592.872C476.252 594.043 478.725 594.581 481.055 594.612C483.376 594.642 485.85 594.172 487.854 593.015L485.154 588.338ZM476.923 588.195C476.538 587.973 475.425 587.143 473.682 585.745C472.02 584.41 469.957 582.7 467.778 580.869C463.425 577.21 458.655 573.104 455.799 570.635L452.267 574.72C455.129 577.194 459.921 581.319 464.304 585.003C466.494 586.844 468.593 588.584 470.302 589.956C471.932 591.264 473.401 592.397 474.223 592.872L476.923 588.195ZM457.187 570.945C461.6 572.646 468.57 574.684 474.599 576.435C477.647 577.321 480.464 578.135 482.674 578.816C483.779 579.157 484.706 579.456 485.417 579.707C485.773 579.833 486.057 579.94 486.273 580.028C486.507 580.124 486.592 580.171 486.587 580.168L489.287 575.491C488.74 575.176 487.958 574.877 487.213 574.614C486.401 574.328 485.395 574.004 484.264 573.656C482.002 572.958 479.131 572.128 476.106 571.25C469.99 569.473 463.278 567.506 459.129 565.906L457.187 570.945ZM486.587 580.168C485.98 579.817 485.853 579.346 485.912 579.496C485.938 579.563 485.997 579.766 486.054 580.153C486.166 580.914 486.205 581.954 486.194 583.081C486.183 584.185 486.124 585.274 486.067 586.094C486.039 586.502 486.011 586.839 485.991 587.071C485.981 587.188 485.973 587.278 485.967 587.337C485.964 587.367 485.962 587.39 485.961 587.404C485.96 587.411 485.96 587.416 485.959 587.419C485.959 587.42 485.959 587.421 485.959 587.422C485.959 587.422 485.959 587.422 485.959 587.422C485.959 587.422 485.959 587.422 485.959 587.422C485.959 587.421 485.959 587.421 488.646 587.691C491.332 587.962 491.332 587.961 491.332 587.961C491.332 587.961 491.332 587.96 491.332 587.96C491.332 587.96 491.332 587.959 491.332 587.958C491.333 587.956 491.333 587.954 491.333 587.951C491.334 587.945 491.334 587.938 491.335 587.928C491.337 587.908 491.34 587.88 491.343 587.844C491.35 587.773 491.36 587.67 491.371 587.54C491.394 587.28 491.424 586.912 491.454 586.468C491.516 585.584 491.581 584.382 491.594 583.136C491.606 581.913 491.569 580.546 491.397 579.371C491.312 578.79 491.179 578.143 490.946 577.543C490.746 577.027 490.296 576.074 489.287 575.491L486.587 580.168ZM485.946 587.651C485.947 587.603 485.967 587.626 485.89 587.736C485.803 587.859 485.594 588.084 485.154 588.338L487.854 593.015C489.779 591.903 491.31 590.088 491.345 587.732L485.946 587.651ZM455.595 566.724C454.911 567.293 454.167 567.355 453.767 567.335C453.38 567.315 453.094 567.214 452.976 567.168C452.837 567.113 452.738 567.059 452.691 567.033C452.64 567.004 452.606 566.982 452.594 566.974C452.575 566.96 452.635 567.002 452.805 567.151C453.121 567.427 453.555 567.841 454.05 568.321C454.518 568.776 455.044 569.292 455.469 569.691C455.681 569.891 455.901 570.093 456.1 570.261C456.198 570.345 456.319 570.443 456.45 570.537C456.528 570.594 456.809 570.799 457.187 570.945L459.129 565.906C459.32 565.98 459.452 566.058 459.501 566.088C459.562 566.124 459.602 566.153 459.615 566.162C459.639 566.18 459.634 566.178 459.588 566.139C459.499 566.064 459.361 565.939 459.169 565.758C458.785 565.397 458.319 564.939 457.81 564.445C457.326 563.976 456.796 563.467 456.36 563.085C456.154 562.905 455.89 562.684 455.624 562.504C455.509 562.425 455.259 562.261 454.935 562.135C454.776 562.073 454.456 561.963 454.039 561.942C453.61 561.92 452.844 561.989 452.143 562.571L455.595 566.724ZM455.799 570.635C456.118 570.911 456.657 571.596 456.554 572.616L451.182 572.072C451.056 573.309 451.693 574.224 452.267 574.72L455.799 570.635ZM453.868 572.344C456.568 572.311 456.568 572.311 456.568 572.311C456.568 572.311 456.568 572.31 456.568 572.31C456.568 572.31 456.568 572.31 456.568 572.309C456.568 572.308 456.568 572.307 456.568 572.305C456.568 572.302 456.568 572.296 456.567 572.289C456.567 572.275 456.567 572.254 456.567 572.226C456.566 572.171 456.565 572.089 456.564 571.986C456.561 571.778 456.558 571.481 456.555 571.125C456.547 570.412 456.538 569.461 456.533 568.509C456.527 567.554 456.524 566.608 456.528 565.9C456.531 565.543 456.535 565.265 456.54 565.083C456.543 564.986 456.546 564.949 456.545 564.95C456.545 564.954 456.544 564.966 456.542 564.986C456.54 565.003 456.536 565.042 456.528 565.094C456.522 565.131 456.503 565.251 456.459 565.403C456.438 565.477 456.392 565.625 456.309 565.801C456.251 565.925 456.047 566.348 455.595 566.724L452.143 562.571C451.689 562.948 451.484 563.373 451.424 563.5C451.339 563.68 451.292 563.831 451.27 563.91C451.223 564.072 451.201 564.205 451.193 564.259C451.173 564.383 451.165 564.49 451.161 564.543C451.151 564.666 451.146 564.8 451.143 564.919C451.135 565.168 451.131 565.499 451.128 565.867C451.124 566.609 451.127 567.582 451.133 568.542C451.138 569.504 451.147 570.463 451.155 571.18C451.158 571.539 451.162 571.838 451.164 572.048C451.165 572.152 451.166 572.235 451.167 572.291C451.167 572.319 451.168 572.341 451.168 572.355C451.168 572.362 451.168 572.368 451.168 572.372C451.168 572.374 451.168 572.375 451.168 572.376C451.168 572.376 451.168 572.377 451.168 572.377C451.168 572.377 451.168 572.377 451.168 572.377C451.168 572.377 451.168 572.378 453.868 572.344Z" fill="black" mask="url(#path-84-outside-1)"/>
</g>
<path id="Ellipse 257_2" d="M476.465 555.93L476.481 555.931L476.497 555.933C476.949 555.97 477.417 555.907 477.832 555.736C478.197 555.585 478.786 555.231 478.996 554.514L484.47 535.833C484.716 534.993 484.271 534.327 483.862 533.997C483.463 533.674 482.972 533.524 482.521 533.483C480.886 533.336 479.315 533.182 477.789 533.032C468.849 532.153 461.48 531.429 451.95 533.153C440.595 535.206 430.207 538.788 421.643 543.628C413.084 548.465 406.538 554.453 402.629 561.152C398.814 567.692 397.633 574.71 399.242 581.623C399.418 582.378 400.022 582.757 400.389 582.915C400.806 583.095 401.281 583.161 401.738 583.122L434.204 580.361C434.654 580.323 435.138 580.177 435.535 579.871C435.931 579.565 436.395 578.944 436.218 578.115C435.563 575.049 436.097 571.915 437.851 568.909C439.709 565.724 442.899 562.756 447.248 560.297C449.43 559.065 452.218 557.771 455.013 556.761C457.828 555.744 460.551 555.051 462.63 554.951C466.739 554.752 470.303 555.188 473.738 555.609C474.654 555.721 475.56 555.832 476.465 555.93Z" fill="#BDDCD8" stroke="black" stroke-width="2.70007"/>
<path id="Ellipse 260" d="M401.606 561.762L439.357 568.493" stroke="black" stroke-width="2.70007"/>
<g id="Ellipse 259_2">
<mask id="path-88-outside-2" maskUnits="userSpaceOnUse" x="450.873" y="560.677" width="41" height="26" fill="black">
<rect fill="white" x="450.873" y="560.677" width="41" height="26"/>
<path d="M486.263 576.209C489.35 577.991 489.461 580.817 486.511 582.52C483.561 584.223 478.667 584.159 475.58 582.377C473.164 580.982 459.757 569.464 454.04 564.521C453.468 564.027 454.48 563.443 455.336 563.773C463.898 567.074 483.847 574.814 486.263 576.209Z"/>
</mask>
<path d="M486.263 576.209C489.35 577.991 489.461 580.817 486.511 582.52C483.561 584.223 478.667 584.159 475.58 582.377C473.164 580.982 459.757 569.464 454.04 564.521C453.468 564.027 454.48 563.443 455.336 563.773C463.898 567.074 483.847 574.814 486.263 576.209Z" fill="#BDDCD8"/>
<path d="M486.263 576.209L484.913 578.547L486.263 576.209ZM475.58 582.377L474.23 584.715L475.58 582.377ZM454.04 564.521L452.274 566.564L452.274 566.564L454.04 564.521ZM455.336 563.773L456.307 561.254L456.307 561.254L455.336 563.773ZM484.913 578.547C486.002 579.176 485.957 579.625 485.953 579.5C485.951 579.45 485.975 579.462 485.907 579.564C485.827 579.683 485.621 579.916 485.161 580.182L487.861 584.858C489.87 583.699 491.446 581.767 491.349 579.288C491.254 576.879 489.611 575.024 487.613 573.871L484.913 578.547ZM485.161 580.182C484.215 580.728 482.766 581.077 481.132 581.056C479.506 581.034 477.988 580.649 476.93 580.039L474.23 584.715C476.259 585.887 478.731 586.425 481.061 586.455C483.383 586.486 485.857 586.015 487.861 584.858L485.161 580.182ZM476.93 580.039C476.544 579.816 475.432 578.987 473.689 577.588C472.026 576.254 469.963 574.544 467.785 572.713C463.431 569.053 458.661 564.948 455.806 562.479L452.274 566.564C455.135 569.038 459.928 573.163 464.311 576.847C466.501 578.688 468.6 580.428 470.309 581.8C471.938 583.107 473.408 584.241 474.23 584.715L476.93 580.039ZM454.365 566.293C458.643 567.942 465.761 570.699 472.109 573.216C475.284 574.475 478.256 575.67 480.58 576.635C482.998 577.64 484.498 578.308 484.913 578.547L487.613 573.871C486.819 573.413 484.921 572.591 482.651 571.648C480.287 570.667 477.284 569.459 474.099 568.196C467.728 565.669 460.59 562.905 456.307 561.254L454.365 566.293ZM455.806 562.479C456.183 562.805 456.774 563.632 456.51 564.763C456.3 565.663 455.688 566.069 455.502 566.176C455.083 566.418 454.697 566.421 454.365 566.293L456.307 561.254C455.118 560.796 453.798 560.925 452.802 561.5C452.328 561.773 451.517 562.397 451.251 563.536C450.932 564.905 451.611 565.99 452.274 566.564L455.806 562.479Z" fill="black" mask="url(#path-88-outside-2)"/>
</g>
</g>
<path id="Vector 469" d="M478.706 555.912L485.006 534.312L485.906 543.312L479.606 562.213L477.806 564.013V555.912H478.706Z" fill="black"/>
</g>
</g>
</g>
</g>
</g>
<defs>
<clipPath id="clip0">
<rect width="748.279" height="748.279" fill="white"/>
</clipPath>
</defs>
</svg>
