<svg width="456" height="334" viewBox="0 0 456 334" fill="none" xmlns="http://www.w3.org/2000/svg">
<ellipse cx="223.629" cy="250.873" rx="40.5973" ry="25.7307" fill="#D6D2CD"/>
<ellipse cx="200.185" cy="190.263" rx="33.164" ry="25.7307" fill="#D6D2CD"/>
<ellipse cx="358.572" cy="298.332" rx="31.4486" ry="17.1538" fill="#D6D2CD"/>
<path d="M442.781 241.881L454.999 215.087L376.118 199.485L297.236 215.086L285.019 241.881L363.9 287.423L408.376 280.535L442.781 241.881Z" fill="#D6D2CD"/>
<path d="M157.763 269.353L169.981 242.558L91.0991 226.957L12.2178 242.558L0 269.353L78.8813 314.895L157.763 269.353Z" fill="#D6D2CD"/>
<path d="M300.273 163.841L312.491 137.046L233.61 121.445L154.728 137.046L142.51 163.841L221.392 209.383L300.273 163.841Z" fill="#D6D2CD"/>
<path d="M233.845 1L154.964 46.5421L135.005 84.0002L213.886 38.458L233.845 1Z" fill="#E0A173" stroke="black" stroke-width="1.14358" stroke-linecap="round" stroke-linejoin="round"/>
<rect width="91.0843" height="91.0843" transform="matrix(-0.866025 -0.5 -0.866025 0.5 312.804 46.5424)" fill="#4E4E4E" stroke="black" stroke-width="1.14358" stroke-linecap="round" stroke-linejoin="round"/>
<rect width="66.57" height="66.57" transform="matrix(-0.866025 -0.5 -0.866025 0.5 291.574 58.8002)" fill="black" stroke="black" stroke-width="1.14358" stroke-linecap="round" stroke-linejoin="round"/>
<rect width="91.0843" height="91.0843" transform="matrix(-0.866025 0.5 2.20305e-08 1 312.804 46.5424)" fill="#FFB681" stroke="black" stroke-width="1.14358" stroke-linecap="round" stroke-linejoin="round"/>
<path d="M285.738 62.1717L235.037 91.4437L235.037 181.963L275.461 157.899L285.738 62.1717Z" fill="#E0A173"/>
<rect width="15.9157" height="37.791" transform="matrix(-0.866025 0.5 2.20305e-08 1 291.299 91.4393)" fill="white" stroke="black" stroke-width="1.14358" stroke-linecap="round" stroke-linejoin="round"/>
<path d="M312.805 46.5445L233.923 92.0866L247.369 135.973L326.25 90.4311L312.805 46.5445Z" fill="#FFDBC0" stroke="black" stroke-width="1.14358" stroke-linecap="round" stroke-linejoin="round"/>
<path d="M154.875 46.2185L233.924 92.0847L233.924 183.169L155.043 137.627L154.875 46.2185Z" fill="#E0A173" stroke="black" stroke-width="1.14358" stroke-linecap="round" stroke-linejoin="round"/>
<path fill-rule="evenodd" clip-rule="evenodd" d="M256.995 243.883C257.009 253.226 243.901 260.794 227.718 260.786C211.535 260.778 198.406 253.198 198.392 243.855C198.389 242.145 198.825 240.498 199.636 238.948C199.784 238.663 199.831 238.375 199.788 238.095L199.566 233.578C197.501 233.216 191.7 234.84 191.077 236.032C190.047 238.001 190.575 241.693 190.578 243.851C190.596 255.686 207.227 265.288 227.725 265.298C248.223 265.308 264.826 255.722 264.809 243.887L264.579 238.578C262.82 227.678 246.995 222.45 227.662 222.441C223.925 222.439 220.31 222.757 216.9 223.351C214.835 223.711 213.669 224.969 214.296 226.162C214.923 227.354 217.105 228.03 219.169 227.67C221.854 227.202 224.706 226.95 227.669 226.952C243.851 226.96 256.981 234.54 256.995 243.883ZM239.414 243.875C239.419 247.612 234.176 250.639 227.703 250.636C221.23 250.633 215.978 247.601 215.973 243.863C215.971 242.618 214.22 241.607 212.063 241.606C210.455 241.605 208.619 238.224 208.021 239.025C207.816 239.299 208.159 243.86 208.159 243.86C208.168 250.088 216.921 255.142 227.71 255.147C238.498 255.152 247.237 250.107 247.228 243.879L247.103 238.956C245.62 233.57 238.041 230.368 228.3 230.363C226.984 230.362 223.778 228.884 223.59 230.19L223.773 234.845C223.775 236.09 225.526 237.101 227.683 237.102C234.157 237.105 239.409 240.138 239.414 243.875ZM229.352 244.827C229.998 244.454 230.37 243.983 230.468 243.497C230.602 242.835 230.32 238.624 230.32 238.624L208.887 229.824C207.36 228.943 203.583 225.932 202.058 226.812C202.058 226.812 202.279 230.752 202.227 231.285C202.165 231.905 202.546 232.537 203.367 233.011L223.827 244.824C225.354 245.706 227.828 245.707 229.352 244.827Z" fill="#FAC864" stroke="black" stroke-width="1.41502" stroke-linecap="round" stroke-linejoin="round"/>
<path fill-rule="evenodd" clip-rule="evenodd" d="M256.834 239.263C256.848 248.606 243.74 256.174 227.558 256.166C211.375 256.158 198.245 248.578 198.231 239.235C198.229 237.524 198.665 235.878 199.475 234.327C200.098 233.135 198.929 231.876 196.863 231.514C194.797 231.152 192.617 231.825 191.994 233.017C190.965 234.986 190.414 237.073 190.418 239.231C190.435 251.065 207.066 260.667 227.564 260.677C248.062 260.687 264.665 251.102 264.648 239.267C264.631 227.432 248 217.83 227.501 217.82C223.764 217.819 220.15 218.136 216.739 218.731C214.675 219.091 213.509 220.349 214.135 221.542C214.762 222.734 216.944 223.41 219.009 223.05C221.694 222.582 224.546 222.33 227.508 222.332C243.691 222.34 256.821 229.92 256.834 239.263ZM239.253 239.255C239.259 242.992 234.016 246.019 227.543 246.016C221.07 246.013 215.818 242.98 215.812 239.243C215.81 237.997 214.06 236.987 211.902 236.986C209.744 236.985 207.997 237.994 207.998 239.239C208.008 245.468 216.761 250.522 227.549 250.527C238.338 250.532 247.076 245.487 247.067 239.258C247.058 233.03 238.305 227.976 227.516 227.971C225.359 227.97 223.611 228.979 223.613 230.224C223.615 231.47 225.365 232.481 227.523 232.482C233.996 232.485 239.248 235.517 239.253 239.255ZM229.192 240.207C230.716 239.327 230.714 237.898 229.187 237.017L208.727 225.204C207.2 224.322 204.726 224.321 203.202 225.201C201.677 226.081 201.679 227.51 203.206 228.391L223.667 240.204C225.194 241.086 227.667 241.087 229.192 240.207Z" fill="#FFE598" stroke="black" stroke-width="1.41502" stroke-linecap="round" stroke-linejoin="round"/>
<ellipse cx="166.008" cy="288.981" rx="24.658" ry="13.1512" transform="rotate(-18.7569 166.008 288.981)" fill="#D6D2CD"/>
<ellipse cx="187.736" cy="301.56" rx="24.658" ry="13.1512" transform="rotate(-18.7569 187.736 301.56)" fill="#D6D2CD"/>
<path d="M210.903 314.216C213.238 321.093 207.535 329.248 198.164 332.43C188.793 335.613 179.303 332.617 176.967 325.74C174.631 318.862 180.335 310.707 189.706 307.525C199.077 304.343 208.567 307.338 210.903 314.216Z" fill="#D6D2CD"/>
<path d="M185.254 322.138C185.007 321.995 184.856 321.733 184.856 321.448V316.536C184.856 316.312 184.95 316.099 185.114 315.949C185.279 315.798 185.499 315.723 185.722 315.743L199.071 316.92L196.349 315.348C196.103 315.206 195.951 314.943 195.951 314.659V310.506C193.529 310.861 191.135 310.879 188.772 310.559C185.882 310.172 183.266 309.31 180.933 307.963C178.638 306.638 177.036 305.078 176.273 303.243C176.191 303.046 176.15 302.78 176.124 302.572C176.093 302.33 176.067 302.034 176.045 301.709C176 301.056 175.966 300.25 175.942 299.451C175.895 297.856 175.882 296.252 175.887 295.898C175.892 295.512 176.173 295.186 176.553 295.123L177.055 295.041C177.716 294.169 178.582 293.875 179.425 293.648C179.554 293.613 179.684 293.58 179.814 293.546C180.63 293.335 181.484 293.113 182.487 292.529L182.49 292.527L183.809 291.766C186.508 290.208 189.366 289.116 192.382 288.492L192.383 288.491C195.42 287.868 198.381 287.75 201.261 288.144C202.29 288.283 203.259 288.163 204.295 288.034C204.546 288.003 204.8 287.972 205.061 287.943C206.342 287.802 207.752 287.745 209.1 288.523C209.635 288.832 210.149 289.095 210.643 289.347L210.688 289.37C211.16 289.61 211.626 289.847 212.047 290.097C212.921 290.616 213.717 291.256 214.136 292.302C214.174 292.396 214.193 292.497 214.193 292.598L214.193 297.611C214.206 298.818 213.822 300.007 213.098 301.166C211.963 303.021 210.014 304.706 207.341 306.25L206.15 306.937C203.898 308.237 201.543 309.213 199.086 309.863C199.365 310.041 199.615 310.198 199.838 310.314C199.973 310.385 200.074 310.428 200.143 310.45C200.157 310.454 200.168 310.457 200.176 310.459C201.576 310.25 202.992 310.272 204.417 310.521M185.254 322.138L204.281 311.305M185.254 322.138L196.681 328.735C196.927 328.877 197.231 328.877 197.477 328.735L200.145 327.195C200.391 327.053 200.543 326.79 200.543 326.505V323.039M185.254 322.138L200.543 323.039M204.417 310.521C204.418 310.521 204.418 310.521 204.419 310.521L204.281 311.305M204.417 310.521C204.417 310.521 204.416 310.521 204.415 310.521L204.281 311.305M204.417 310.521C205.869 310.77 207.203 311.24 208.412 311.938C208.723 312.118 208.965 312.161 209.15 312.16C209.345 312.159 209.524 312.11 209.722 312.039C209.746 312.03 209.781 312.017 209.822 312.002C209.896 311.974 209.986 311.94 210.044 311.92C210.143 311.887 210.334 311.825 210.548 311.829C210.821 311.835 211.121 311.948 211.329 312.228C211.494 312.45 211.543 312.703 211.564 312.876C211.568 312.907 211.57 312.937 211.57 312.968L211.584 318.039M204.281 311.305C205.648 311.539 206.892 311.98 208.014 312.628C208.965 313.176 209.671 312.91 210.133 312.735C210.505 312.595 210.719 312.514 210.774 312.971L210.788 318.051M211.584 318.039C211.584 318.035 211.584 318.031 211.584 318.027L210.788 318.051M211.584 318.039L211.584 318.049L210.788 318.051M211.584 318.039C211.621 319.447 210.586 320.545 209.111 321.397C208.187 321.931 207.042 322.316 205.703 322.574C204.391 322.826 202.666 322.979 200.543 323.039M210.788 318.051C210.817 319.007 210.125 319.892 208.713 320.708C207.888 321.184 206.835 321.545 205.552 321.792C204.305 322.032 202.635 322.182 200.543 322.243V323.039M199.128 316.952L199.67 317.265C199.916 317.408 200.219 317.408 200.466 317.265C200.818 317.062 201.179 316.903 201.548 316.789C201.15 316.824 200.715 316.854 200.242 316.878C200.125 316.884 200.006 316.889 199.884 316.894C199.628 316.905 199.362 316.914 199.085 316.921L199.13 316.925L199.128 316.952ZM199.128 316.952L199.074 316.921C199.063 316.922 199.051 316.922 199.04 316.922L199.06 317.718L199.128 316.952ZM177.18 293.735C177.18 294.036 177.01 294.312 176.74 294.447C173.537 296.047 170.08 296.764 166.384 296.603C166.384 296.603 166.384 296.603 166.384 296.603L166.418 295.808L177.18 293.735ZM177.18 293.735V288.779C177.18 288.364 176.861 288.018 176.447 287.985L170.951 287.552C170.807 287.54 170.663 287.568 170.534 287.632M177.18 293.735L170.534 287.632M178.909 280.351C178.882 280.43 178.868 280.515 178.868 280.603V285.537C178.868 285.822 179.02 286.084 179.266 286.227L184.762 289.4C185.03 289.555 185.364 289.54 185.618 289.362C188.03 287.665 189.498 285.778 189.653 283.669C189.654 283.65 189.655 283.63 189.655 283.611V278.339C189.655 278.051 189.499 277.785 189.248 277.645L189.248 277.644L178.909 280.351ZM178.909 280.351C177.248 279.41 175.405 279.039 173.353 279.253C171.289 279.47 168.899 280.324 166.172 281.87L164.16 283.032C162.744 283.85 161.653 284.603 160.87 285.29C160.221 285.858 159.822 286.348 159.607 286.755C160.026 286.827 160.597 286.984 161.283 287.381C162.891 288.309 164.41 288.766 165.849 288.798L178.909 280.351ZM170.534 287.632C168.88 288.454 167.322 288.83 165.849 288.798L170.534 287.632ZM204.685 316.063C204.893 316.143 205.095 316.239 205.289 316.351C205.417 316.425 205.532 316.425 205.635 316.378C205.477 316.507 205.289 316.634 205.071 316.759C205.062 316.765 205.053 316.77 205.044 316.775C204.94 316.834 204.828 316.89 204.709 316.942C204.259 316.717 203.758 316.59 203.196 316.568C203.85 316.439 204.334 316.266 204.673 316.07C204.677 316.068 204.681 316.066 204.685 316.063ZM202.776 316.571C202.776 316.571 202.776 316.571 202.777 316.571L202.736 315.776L202.776 316.571ZM205.934 316.082C205.925 316.096 205.915 316.11 205.906 316.124C205.918 316.111 205.929 316.098 205.941 316.085C205.938 316.084 205.936 316.083 205.934 316.082ZM159.403 287.302C159.403 287.303 159.403 287.299 159.405 287.291C159.404 287.298 159.404 287.302 159.403 287.302ZM197.808 293.628L197.81 293.627C200.113 293.388 202.083 293.773 203.76 294.741C204.623 295.239 205.13 295.729 205.384 296.181C205.622 296.601 205.669 297.037 205.507 297.544C205.338 298.074 204.923 298.697 204.165 299.404C203.412 300.107 202.362 300.855 200.994 301.645L199.696 302.394C199.695 302.395 199.695 302.395 199.695 302.395C196.978 303.949 194.471 304.833 192.165 305.086C189.877 305.332 187.913 304.951 186.236 303.982C185.363 303.478 184.857 302.982 184.609 302.527C184.378 302.104 184.338 301.661 184.52 301.135C184.919 299.983 186.298 298.598 189.002 297.037L190.3 296.287C190.301 296.287 190.301 296.287 190.302 296.286C193.018 294.732 195.518 293.86 197.808 293.628Z" fill="#FF8484" stroke="black" stroke-width="1.59189" stroke-linecap="round" stroke-linejoin="round"/>
<path d="M184.856 316.289C184.856 316.004 185.008 315.741 185.254 315.599L187.522 314.29C187.638 314.223 187.77 314.186 187.905 314.184L199.043 313.979C200.575 313.94 201.789 313.848 202.696 313.71L202.701 313.71C203.612 313.576 204.254 313.37 204.674 313.127L205.072 313.816L204.674 313.127C205.373 312.723 205.454 312.458 205.459 312.408L205.461 312.396L205.461 312.396C205.462 312.388 205.461 312.383 205.459 312.374C205.456 312.363 205.445 312.336 205.412 312.291C205.34 312.194 205.187 312.051 204.892 311.881C204.291 311.534 203.595 311.37 202.777 311.411L184.856 316.289ZM184.856 316.289C184.856 316.573 185.008 316.836 185.254 316.978L196.682 323.576C196.928 323.718 197.231 323.718 197.478 323.576L200.146 322.035C200.392 321.893 200.544 321.63 200.544 321.346C200.544 321.062 200.392 320.799 200.146 320.657L195.474 317.959M184.856 316.289L195.474 317.959M195.474 317.959L200.378 317.884L200.378 317.884L200.387 317.884C202.581 317.826 204.36 317.673 205.703 317.414C207.043 317.156 208.187 316.771 209.111 316.238C210.686 315.329 211.756 314.135 211.564 312.608C211.393 311.183 210.16 310.004 208.413 308.995L208.015 309.684L208.413 308.995C207.204 308.297 205.87 307.826 204.418 307.578C202.977 307.326 201.547 307.306 200.131 307.522L200.128 307.523C198.724 307.743 197.461 308.168 196.35 308.81C196.103 308.952 195.952 309.215 195.952 309.499C195.952 309.784 196.103 310.046 196.35 310.189L199.67 312.106C199.917 312.248 200.22 312.248 200.466 312.106C201.2 311.682 201.968 311.453 202.777 311.411L195.474 317.959Z" fill="#FFB5B5" stroke="black" stroke-width="1.59189" stroke-linecap="round" stroke-linejoin="round"/>
<path d="M177.18 288.594C177.171 288.887 177.002 289.151 176.74 289.282C173.536 290.882 170.079 291.599 166.383 291.438C166.383 291.438 166.383 291.438 166.383 291.438L166.418 290.643L177.18 288.594ZM177.18 288.594C177.188 288.301 177.036 288.027 176.782 287.881M177.18 288.594L176.782 287.881M176.782 287.881L171.286 284.708C171.055 284.574 170.773 284.565 170.534 284.684M176.782 287.881L170.534 284.684M185.617 284.197C185.364 284.375 185.03 284.39 184.762 284.235L179.265 281.062C179.028 280.925 178.878 280.675 178.868 280.401C178.858 280.126 178.991 279.866 179.218 279.713C179.974 279.203 180.485 278.741 180.795 278.337C181.101 277.936 181.173 277.642 181.159 277.432L181.158 277.411C181.15 277.197 181.044 276.899 180.691 276.51C180.337 276.12 179.777 275.688 178.972 275.223C177.295 274.255 175.431 273.872 173.352 274.088C171.288 274.305 168.899 275.159 166.172 276.706L164.159 277.868C162.743 278.685 161.652 279.438 160.869 280.125C160.077 280.819 159.657 281.396 159.49 281.848C159.347 282.255 159.384 282.62 159.619 283.01C159.878 283.438 160.398 283.922 161.283 284.433C162.89 285.361 164.409 285.817 165.849 285.849L185.617 284.197ZM185.617 284.197C188.39 282.247 189.915 280.039 189.633 277.564C189.357 275.139 187.415 273.056 184.275 271.243C181.956 269.904 179.376 269.047 176.545 268.668L185.617 284.197ZM170.534 284.684C168.88 285.505 167.321 285.881 165.849 285.849L170.534 284.684ZM176.839 292.41L176.838 292.412C175.712 294.283 175.49 296.198 176.272 298.078C177.036 299.914 178.638 301.473 180.933 302.798C183.265 304.145 185.882 305.008 188.772 305.394C191.675 305.788 194.624 305.67 197.615 305.046C200.607 304.422 203.452 303.33 206.15 301.772L207.341 301.085C210.013 299.542 211.963 297.857 213.097 296.001C214.271 294.123 214.527 292.198 213.744 290.311C213.004 288.47 211.404 286.906 209.099 285.575C206.778 284.235 204.161 283.372 201.26 282.979C198.38 282.586 195.42 282.704 192.383 283.327L192.381 283.327C189.366 283.951 186.507 285.043 183.809 286.601L182.49 287.362L182.487 287.364C179.872 288.888 177.96 290.561 176.839 292.41ZM197.808 288.463L197.81 288.463C200.112 288.223 202.082 288.608 203.76 289.577C204.622 290.074 205.129 290.565 205.384 291.016C205.621 291.437 205.668 291.872 205.506 292.379C205.337 292.91 204.922 293.532 204.164 294.239C203.411 294.942 202.361 295.691 200.994 296.48L199.695 297.23C199.695 297.23 199.695 297.23 199.694 297.23C196.977 298.785 194.469 299.669 192.163 299.922C189.875 300.167 187.912 299.786 186.235 298.818C185.362 298.314 184.856 297.817 184.608 297.362C184.377 296.939 184.337 296.496 184.519 295.97C184.918 294.819 186.297 293.434 189.002 291.872L190.3 291.123C190.3 291.122 190.301 291.122 190.301 291.122C193.018 289.567 195.517 288.695 197.808 288.463Z" fill="#FFB5B5" stroke="black" stroke-width="1.59189" stroke-linecap="round" stroke-linejoin="round"/>
<rect width="91.0843" height="91.0843" transform="matrix(-0.866025 -0.5 -0.866025 0.5 454.464 124.649)" fill="#FFDBC0" stroke="black" stroke-width="1.14358" stroke-linecap="round" stroke-linejoin="round"/>
<rect width="13.4354" height="91.0843" transform="matrix(-0.866025 -0.5 -0.866025 0.5 420.842 105.236)" fill="white" stroke="black" stroke-width="1.14358" stroke-linecap="round" stroke-linejoin="round"/>
<rect width="91.0843" height="91.0843" transform="matrix(-0.866025 0.5 2.20305e-08 1 454.464 124.649)" fill="#FFB681" stroke="black" stroke-width="1.14358" stroke-linecap="round" stroke-linejoin="round"/>
<rect width="18.9872" height="19.2824" transform="matrix(-0.866025 0.5 2.20305e-08 1 451.542 133.919)" fill="#FFDBC0" stroke="black" stroke-width="1.14358" stroke-linecap="round" stroke-linejoin="round"/>
<path d="M415.917 164.064L375.584 170.192L375.584 261.277L415.917 255.148L415.917 164.064Z" fill="#E0A173" stroke="black" stroke-width="1.14358" stroke-linecap="round" stroke-linejoin="round"/>
<rect width="91.0843" height="91.0843" transform="matrix(0.866025 0.5 -2.20305e-08 1 296.701 124.649)" fill="#4E4E4E" stroke="black" stroke-width="1.14358" stroke-linecap="round" stroke-linejoin="round"/>
<rect width="64.3341" height="64.3341" transform="matrix(0.866025 0.5 -2.20305e-08 1 319.867 138.024)" fill="black"/>
<rect width="12.6582" height="15.6057" transform="matrix(0.866025 0.5 -2.20305e-08 1 330.959 144.428)" fill="white" stroke="black" stroke-width="1.14358" stroke-linecap="round" stroke-linejoin="round"/>
<ellipse cx="312.256" cy="249.158" rx="33.164" ry="19.4409" fill="#D6D2CD"/>
<path d="M165.88 171.298C169.781 169.045 179.033 172.278 182.934 174.531L217.575 194.531C220.658 194.652 227.563 193.663 229.92 195.024L229.92 202.213C229.898 204.155 228.605 206.093 226.039 207.574C220.863 210.562 212.473 210.562 207.297 207.574C204.941 206.214 203.657 204.468 203.447 202.687L168.806 182.687C166.857 181.562 165.881 180.088 165.88 178.613L165.88 171.298Z" fill="#5E6FDB" stroke="black" stroke-width="1.14358" stroke-linecap="round" stroke-linejoin="round"/>
<path d="M168.805 167.365C172.706 165.112 179.032 165.112 182.933 167.365L217.575 187.365C220.658 187.487 223.681 188.228 226.038 189.588C231.213 192.576 231.213 197.421 226.038 200.409C220.863 203.396 212.472 203.396 207.297 200.409C204.94 199.048 203.656 197.302 203.446 195.522L168.805 175.522C164.904 173.269 164.904 169.617 168.805 167.365Z" fill="#B0B8ED" stroke="black" stroke-width="1.14358" stroke-linecap="round" stroke-linejoin="round"/>
<path d="M182.91 175.505C184.295 174.706 186.539 174.706 187.923 175.505L215.868 191.638C217.89 191.406 220.069 191.743 221.636 192.648C224.131 194.088 224.131 196.424 221.636 197.864C219.141 199.305 215.096 199.305 212.601 197.864C211.032 196.959 210.45 195.7 210.853 194.532L182.91 178.399C181.526 177.6 181.526 176.304 182.91 175.505Z" fill="#5E6FDB" stroke="black" stroke-width="1.14358" stroke-linecap="round" stroke-linejoin="round"/>
<rect width="91.0843" height="91.0843" transform="matrix(-0.866025 -0.5 -0.866025 0.5 170.297 152.054)" fill="#FFDBC0" stroke="black" stroke-width="1.14358" stroke-linecap="round" stroke-linejoin="round"/>
<rect width="42.9928" height="91.0843" transform="matrix(-0.866025 -0.5 -0.866025 0.5 170.297 152.056)" fill="#FFDBC0" stroke="black" stroke-width="1.14358" stroke-linecap="round" stroke-linejoin="round"/>
<rect width="16.6435" height="21.6508" transform="matrix(-0.866025 -0.5 -0.866025 0.5 158.577 151.83)" fill="white" stroke="black" stroke-width="1.14358" stroke-linecap="round" stroke-linejoin="round"/>
<rect width="92.5949" height="12.3446" transform="matrix(-0.866025 -0.5 -0.866025 0.5 136.856 172.116)" fill="white" stroke="black" stroke-width="1.14358" stroke-linecap="round" stroke-linejoin="round"/>
<rect width="91.0843" height="91.0843" transform="matrix(-0.866025 0.5 2.20305e-08 1 170.297 152.054)" fill="#FFB681" stroke="black" stroke-width="1.14358" stroke-linecap="round" stroke-linejoin="round"/>
<rect width="91.0843" height="91.0843" transform="matrix(0.866025 0.5 -2.20305e-08 1 12.5337 152.054)" fill="#E0A173" stroke="black" stroke-width="1.14358" stroke-linecap="round" stroke-linejoin="round"/>
<rect width="25.7677" height="11.0694" transform="matrix(0.866025 0.5 -2.20305e-08 1 40.8174 183.248)" fill="#4E4E4E" stroke="black" stroke-width="1.14358" stroke-linecap="round" stroke-linejoin="round"/>
<rect width="12.6585" height="30.7879" transform="matrix(-0.866025 0.5 2.20305e-08 1 136.375 171.616)" fill="white" stroke="black" stroke-width="1.14358" stroke-linecap="round" stroke-linejoin="round"/>
<path d="M340.76 251.641C327.699 259.181 306.523 259.181 293.462 251.641C287.084 247.958 283.821 243.159 283.672 238.333L283.67 230.21C285.287 227.622 289.87 226.408 293.462 224.334C306.523 216.793 327.699 216.793 340.76 224.334C344.826 226.681 349.016 227.236 350.55 230.21L350.55 238.333C350.401 243.159 347.138 247.958 340.76 251.641Z" fill="#5E6FDB" stroke="black" stroke-width="1.14358" stroke-linecap="round" stroke-linejoin="round"/>
<path d="M340.76 244.382C327.699 251.923 306.523 251.923 293.463 244.382C280.402 236.842 280.402 224.616 293.463 217.075C306.523 209.534 327.699 209.534 340.76 217.075C353.821 224.616 353.821 236.842 340.76 244.382Z" fill="#B0B8ED" stroke="black" stroke-width="1.14358" stroke-linecap="round" stroke-linejoin="round"/>
<path d="M340.38 217.109C327.561 209.522 306.777 209.522 293.958 217.109L340.38 244.583C353.199 236.996 353.199 224.696 340.38 217.109Z" fill="#5E6FDB"/>
<path d="M314.593 223.887C307.464 220.678 301.238 219.154 299.151 220.359C297.064 221.563 299.704 225.158 305.262 229.274M309.817 232.348C310.527 232.787 311.263 233.228 312.023 233.667C321.942 239.394 332.262 242.721 335.073 241.098C337.883 239.476 332.12 233.517 322.201 227.79C321.44 227.351 320.678 226.927 319.916 226.517" stroke="black" stroke-width="1.14358" stroke-linecap="round" stroke-linejoin="round"/>
<path d="M330.248 228.29C334.914 224.594 336.99 221.467 335.072 220.359C332.261 218.736 321.941 222.064 312.022 227.791C302.102 233.518 296.339 239.476 299.15 241.099C301.068 242.206 306.485 241.008 312.886 238.314" stroke="black" stroke-width="1.14358" stroke-linecap="round" stroke-linejoin="round"/>
<ellipse rx="1.52497" ry="3.11094" transform="matrix(-0.866026 0.5 -0.866025 -0.5 317.108 230.728)" fill="black" stroke="black" stroke-width="1.14358" stroke-linecap="round" stroke-linejoin="round"/>
<path d="M340.76 244.382C327.699 251.923 306.523 251.923 293.463 244.382C280.402 236.842 280.402 224.616 293.463 217.075C306.523 209.534 327.699 209.534 340.76 217.075C353.821 224.616 353.821 236.842 340.76 244.382Z" stroke="black" stroke-width="1.14358" stroke-linecap="round" stroke-linejoin="round"/>
<path d="M342.442 298.672C355.278 306.083 379.818 306.171 387.741 305.99C389.22 305.956 390.363 305.296 390.422 304.442C390.469 303.765 390.505 296.881 390.491 295.836C390.491 295.836 388.683 284.602 377.747 278.289C367.998 272.66 352.191 272.66 342.442 278.289C339.113 280.211 336.186 280.382 335.131 282.842L335.131 288.589C335.178 292.242 337.615 295.886 342.442 298.672Z" fill="#FF8484" stroke="black" stroke-width="1.55464" stroke-linecap="round" stroke-linejoin="round"/>
<path d="M342.442 293.203C355.278 300.614 379.819 300.703 387.741 300.521C389.22 300.487 390.363 299.827 390.422 298.973C390.736 294.399 390.583 280.23 377.747 272.82C367.998 267.191 352.191 267.191 342.442 272.82C332.693 278.449 332.693 287.575 342.442 293.203Z" fill="#FFB5B5" stroke="black" stroke-width="1.55464" stroke-linecap="round" stroke-linejoin="round"/>
<path d="M353.261 286.954C357.035 289.133 363.153 289.133 366.927 286.954C370.701 284.776 370.701 281.243 366.927 279.064C363.153 276.885 357.035 276.885 353.261 279.064C349.487 281.243 349.487 284.776 353.261 286.954Z" fill="#FF8484" stroke="black" stroke-width="1.55464" stroke-linecap="round" stroke-linejoin="round"/>
<path fill-rule="evenodd" clip-rule="evenodd" d="M366.926 286.954C363.152 289.133 357.033 289.133 353.26 286.954C352.668 286.612 352.169 286.237 351.762 285.839C352.169 285.441 352.668 285.066 353.26 284.725C357.033 282.546 363.152 282.546 366.926 284.725C367.518 285.066 368.017 285.441 368.423 285.839C368.017 286.237 367.518 286.612 366.926 286.954Z" fill="#BDDCD8"/>
<path d="M351.762 285.839L350.942 286.118C350.766 285.946 350.766 285.732 350.942 285.56L351.762 285.839ZM368.423 285.839L369.243 285.56C369.419 285.732 369.419 285.946 369.243 286.118L368.423 285.839ZM353.933 286.565C357.335 288.53 362.851 288.53 366.253 286.565L367.599 287.343C363.454 289.736 356.732 289.736 352.586 287.343L353.933 286.565ZM352.582 285.56C352.948 285.919 353.398 286.257 353.933 286.565L352.586 287.343C351.937 286.968 351.389 286.556 350.942 286.118L352.582 285.56ZM353.933 285.113C353.398 285.422 352.948 285.76 352.582 286.118L350.942 285.56C351.389 285.123 351.937 284.711 352.586 284.336L353.933 285.113ZM366.253 285.113C362.851 283.149 357.335 283.149 353.933 285.113L352.586 284.336C356.732 281.942 363.454 281.942 367.599 284.336L366.253 285.113ZM367.603 286.118C367.237 285.76 366.788 285.422 366.253 285.113L367.599 284.336C368.248 284.711 368.797 285.123 369.243 285.56L367.603 286.118ZM366.253 286.565C366.788 286.257 367.237 285.919 367.603 285.56L369.243 286.118C368.797 286.556 368.248 286.968 367.599 287.343L366.253 286.565Z" fill="black"/>
<path d="M270.006 282.975C276.951 281.719 284.301 281.404 291.486 282.052C291.813 282.082 292.033 282.261 291.978 282.449L295.104 288.586L288.5 294.318C288.445 294.506 288.135 294.633 287.808 294.605C284.053 294.291 277.001 301.653 273.376 302.309L266.445 303.452C265.232 305.531 261.94 308.027 259.02 310.875C259.061 311.065 258.835 311.241 258.507 311.269L237.881 313.023C237.553 313.051 237.248 312.92 237.204 312.73C236.235 308.569 236.938 304.333 239.261 300.352C241.648 296.26 245.678 292.553 251.021 289.533C256.365 286.513 262.87 284.266 270.006 282.975Z" fill="#D6D2CD"/>
<path d="M298.516 304.911C300.478 306.044 300.548 307.839 298.674 308.921C296.8 310.003 288.451 315.357 286.49 314.225C284.955 313.339 276.437 306.021 272.806 302.881C272.442 302.567 278.324 296.801 278.868 297.011C284.308 299.108 296.982 304.025 298.516 304.911Z" fill="#D6D2CD"/>
<path d="M298.766 275.293C298.795 275.197 298.806 275.085 298.809 275.056C298.809 275.054 298.809 275.052 298.809 275.051C298.815 274.993 298.822 274.92 298.828 274.838C298.841 274.672 298.856 274.452 298.87 274.196C298.9 273.684 298.93 273.021 298.948 272.361C298.966 271.706 298.973 271.038 298.953 270.525C298.943 270.273 298.926 270.028 298.893 269.832C298.878 269.74 298.852 269.609 298.8 269.481C298.774 269.418 298.723 269.308 298.629 269.2C298.533 269.088 298.335 268.916 298.028 268.889C294.257 268.548 290.647 269.453 287.183 270.557C286.275 270.847 285.381 271.148 284.496 271.446C281.954 272.302 279.484 273.134 276.962 273.59C269.749 274.895 263.149 277.17 257.708 280.245C256.407 280.981 255.13 281.579 253.896 282.132C253.567 282.279 253.239 282.424 252.913 282.568C252.029 282.958 251.164 283.34 250.355 283.737C248.123 284.833 246.133 286.13 244.812 288.394C243.55 290.556 242.974 293.477 242.825 296.341C242.675 299.22 242.952 302.147 243.477 304.387C243.59 304.866 243.973 305.106 244.207 305.206C244.472 305.32 244.773 305.361 245.062 305.337L265.688 303.582C265.975 303.558 266.282 303.465 266.534 303.271C266.786 303.077 267.08 302.682 266.968 302.155C266.552 300.208 266.891 298.216 268.005 296.306C269.186 294.283 271.212 292.397 273.976 290.836C276.736 289.276 280.12 288.102 283.858 287.426C285.553 287.12 287.036 287.189 288.584 287.383C289.125 287.45 289.694 287.536 290.29 287.627C291.35 287.788 292.494 287.962 293.701 288.063C293.988 288.087 294.286 288.047 294.549 287.938C294.781 287.842 295.155 287.617 295.289 287.161L298.766 275.293Z" fill="#55A398" stroke="black" stroke-width="1.71538"/>
<mask id="path-58-outside-1" maskUnits="userSpaceOnUse" x="276.153" y="286.412" width="26" height="22" fill="black">
<rect fill="white" x="276.153" y="286.412" width="26" height="22"/>
<path d="M299.824 296.793C300.845 297.382 300.274 303.058 300.274 303.058C300.263 303.753 299.812 304.436 298.913 304.954C297.039 306.036 293.93 305.996 291.969 304.864C290.434 303.977 281.916 296.66 278.284 293.52C278.203 293.449 278.172 293.376 278.179 293.308C278.179 293.308 278.119 288.468 278.18 288.418C278.349 288.277 280.594 290.698 280.905 290.818C286.344 292.915 298.289 295.907 299.824 296.793Z"/>
</mask>
<path d="M299.824 296.793C300.845 297.382 300.274 303.058 300.274 303.058C300.263 303.753 299.812 304.436 298.913 304.954C297.039 306.036 293.93 305.996 291.969 304.864C290.434 303.977 281.916 296.66 278.284 293.52C278.203 293.449 278.172 293.376 278.179 293.308C278.179 293.308 278.119 288.468 278.18 288.418C278.349 288.277 280.594 290.698 280.905 290.818C286.344 292.915 298.289 295.907 299.824 296.793Z" fill="#55A398"/>
<path d="M299.824 296.793L300.682 295.307L299.824 296.793ZM298.913 304.954L299.771 306.44L298.913 304.954ZM291.969 304.864L291.111 306.349L291.969 304.864ZM278.284 293.52L279.406 292.222L278.284 293.52ZM280.905 290.818L281.522 289.218L280.905 290.818ZM300.274 303.058L298.567 302.886L298.56 302.959L298.559 303.032L300.274 303.058ZM278.18 288.418L279.276 289.737L279.276 289.737L278.18 288.418ZM278.179 293.308L279.886 293.48L279.896 293.384L279.895 293.286L278.179 293.308ZM298.056 303.469C297.455 303.816 296.534 304.038 295.496 304.024C294.463 304.011 293.498 303.766 292.827 303.378L291.111 306.349C292.4 307.093 293.971 307.435 295.451 307.455C296.926 307.474 298.498 307.175 299.771 306.44L298.056 303.469ZM292.827 303.378C292.582 303.237 291.875 302.71 290.768 301.821C289.711 300.973 288.401 299.887 287.017 298.724C284.251 296.399 281.22 293.791 279.406 292.222L277.162 294.817C278.98 296.389 282.025 299.01 284.809 301.35C286.201 302.52 287.534 303.625 288.62 304.497C289.655 305.328 290.589 306.048 291.111 306.349L292.827 303.378ZM280.288 292.419C283.092 293.5 287.52 294.794 291.35 295.907C293.286 296.469 295.076 296.987 296.48 297.42C297.182 297.636 297.771 297.826 298.223 297.985C298.449 298.065 298.63 298.133 298.767 298.189C298.915 298.25 298.969 298.28 298.966 298.278L300.682 295.307C300.334 295.107 299.837 294.917 299.364 294.75C298.848 294.568 298.209 294.362 297.49 294.141C296.053 293.698 294.229 293.171 292.307 292.612C288.422 291.484 284.158 290.234 281.522 289.218L280.288 292.419ZM298.966 298.278C298.58 298.056 298.5 297.756 298.537 297.852C298.553 297.894 298.592 298.023 298.628 298.269C298.698 298.752 298.724 299.413 298.716 300.129C298.709 300.83 298.672 301.522 298.636 302.043C298.618 302.302 298.6 302.516 298.587 302.664C298.581 302.738 298.576 302.795 298.572 302.833C298.57 302.852 298.569 302.866 298.568 302.875C298.568 302.88 298.567 302.883 298.567 302.885C298.567 302.886 298.567 302.886 298.567 302.886C298.567 302.887 298.567 302.887 298.567 302.887C298.567 302.887 298.567 302.887 298.567 302.887C298.567 302.886 298.567 302.886 300.274 303.058C301.981 303.23 301.981 303.229 301.981 303.229C301.981 303.229 301.981 303.229 301.981 303.229C301.981 303.228 301.981 303.228 301.981 303.227C301.981 303.226 301.981 303.225 301.981 303.223C301.982 303.219 301.982 303.214 301.983 303.208C301.984 303.196 301.986 303.178 301.988 303.155C301.992 303.109 301.998 303.044 302.005 302.962C302.02 302.797 302.039 302.563 302.058 302.281C302.097 301.719 302.139 300.955 302.147 300.164C302.155 299.387 302.131 298.518 302.022 297.772C301.968 297.403 301.883 296.992 301.736 296.611C301.608 296.283 301.323 295.677 300.682 295.307L298.966 298.278ZM298.559 303.032C298.559 303.002 298.572 303.016 298.523 303.086C298.468 303.164 298.335 303.307 298.056 303.469L299.771 306.44C300.994 305.734 301.967 304.581 301.989 303.084L298.559 303.032ZM279.276 289.737C278.842 290.098 278.37 290.138 278.116 290.125C277.869 290.113 277.688 290.048 277.613 290.019C277.524 289.985 277.461 289.95 277.432 289.934C277.399 289.915 277.378 289.901 277.37 289.896C277.358 289.887 277.396 289.914 277.504 290.008C277.705 290.184 277.981 290.447 278.295 290.752C278.593 291.041 278.927 291.369 279.196 291.622C279.331 291.749 279.471 291.878 279.598 291.985C279.66 292.037 279.737 292.1 279.82 292.16C279.869 292.196 280.048 292.326 280.288 292.419L281.522 289.218C281.643 289.264 281.727 289.314 281.758 289.333C281.797 289.356 281.822 289.374 281.83 289.38C281.846 289.392 281.843 289.39 281.813 289.365C281.757 289.318 281.669 289.238 281.547 289.124C281.303 288.894 281.007 288.603 280.684 288.289C280.376 287.991 280.04 287.668 279.762 287.426C279.631 287.311 279.464 287.17 279.295 287.056C279.222 287.006 279.063 286.902 278.857 286.822C278.756 286.783 278.553 286.712 278.288 286.699C278.015 286.685 277.529 286.729 277.083 287.099L279.276 289.737ZM279.406 292.222C279.609 292.397 279.952 292.832 279.886 293.48L276.473 293.135C276.393 293.921 276.798 294.502 277.162 294.817L279.406 292.222ZM278.179 293.308C279.895 293.286 279.895 293.286 279.895 293.286C279.895 293.286 279.895 293.286 279.895 293.286C279.895 293.286 279.895 293.286 279.895 293.286C279.895 293.285 279.895 293.284 279.895 293.283C279.894 293.281 279.894 293.277 279.894 293.273C279.894 293.264 279.894 293.25 279.894 293.233C279.893 293.198 279.893 293.146 279.892 293.08C279.891 292.948 279.889 292.76 279.886 292.533C279.882 292.08 279.876 291.476 279.872 290.871C279.869 290.265 279.867 289.664 279.87 289.214C279.871 288.987 279.874 288.81 279.877 288.694C279.879 288.633 279.881 288.609 279.88 288.61C279.88 288.612 279.88 288.62 279.878 288.633C279.877 288.644 279.875 288.668 279.869 288.701C279.866 288.725 279.854 288.801 279.826 288.898C279.812 288.945 279.783 289.039 279.73 289.151C279.693 289.23 279.564 289.498 279.276 289.737L277.083 287.099C276.795 287.339 276.665 287.608 276.627 287.689C276.573 287.803 276.543 287.899 276.529 287.95C276.499 288.052 276.485 288.137 276.48 288.171C276.468 288.25 276.462 288.318 276.459 288.352C276.454 288.429 276.45 288.515 276.448 288.591C276.443 288.749 276.44 288.959 276.439 289.192C276.436 289.664 276.438 290.282 276.442 290.892C276.445 291.503 276.451 292.113 276.456 292.568C276.458 292.796 276.46 292.986 276.462 293.119C276.462 293.186 276.463 293.238 276.463 293.274C276.464 293.292 276.464 293.305 276.464 293.315C276.464 293.319 276.464 293.323 276.464 293.325C276.464 293.326 276.464 293.327 276.464 293.328C276.464 293.328 276.464 293.328 276.464 293.329C276.464 293.329 276.464 293.329 276.464 293.329C276.464 293.329 276.464 293.329 278.179 293.308Z" fill="black" mask="url(#path-58-outside-1)"/>
<path d="M292.537 282.879L292.548 282.88L292.558 282.881C292.845 282.905 293.142 282.865 293.406 282.756C293.638 282.66 294.012 282.435 294.145 281.979L297.623 270.111C297.779 269.578 297.496 269.155 297.237 268.945C296.983 268.74 296.671 268.644 296.385 268.618C295.346 268.525 294.348 268.427 293.379 268.331C287.699 267.773 283.017 267.313 276.962 268.408C269.749 269.713 263.149 271.988 257.708 275.063C252.271 278.136 248.112 281.94 245.629 286.196C243.205 290.351 242.455 294.81 243.477 299.202C243.589 299.682 243.972 299.922 244.205 300.023C244.471 300.137 244.772 300.179 245.062 300.155L265.688 298.4C265.975 298.376 266.282 298.283 266.534 298.089C266.786 297.895 267.08 297.5 266.968 296.973C266.552 295.026 266.891 293.034 268.005 291.124C269.186 289.101 271.212 287.215 273.976 285.653C275.361 284.87 277.133 284.049 278.908 283.407C280.697 282.761 282.427 282.321 283.747 282.257C286.358 282.13 288.623 282.408 290.805 282.675C291.387 282.746 291.962 282.817 292.537 282.879Z" fill="#BDDCD8" stroke="black" stroke-width="1.71538"/>
<path d="M244.978 286.584L268.961 290.86" stroke="black" stroke-width="1.71538"/>
<mask id="path-62-outside-2" maskUnits="userSpaceOnUse" x="276.182" y="285.801" width="26" height="17" fill="black">
<rect fill="white" x="276.182" y="285.801" width="26" height="17"/>
<path d="M298.76 295.763C300.721 296.895 300.791 298.69 298.917 299.772C297.043 300.855 293.934 300.814 291.973 299.682C290.438 298.796 281.92 291.478 278.288 288.338C277.925 288.024 278.567 287.653 279.111 287.862C284.551 289.959 297.225 294.877 298.76 295.763Z"/>
</mask>
<path d="M298.76 295.763C300.721 296.895 300.791 298.69 298.917 299.772C297.043 300.855 293.934 300.814 291.973 299.682C290.438 298.796 281.92 291.478 278.288 288.338C277.925 288.024 278.567 287.653 279.111 287.862C284.551 289.959 297.225 294.877 298.76 295.763Z" fill="#BDDCD8"/>
<path d="M298.76 295.763L297.902 297.249L298.76 295.763ZM291.973 299.682L291.115 301.167L291.973 299.682ZM278.288 288.338L277.166 289.635L278.288 288.338ZM279.111 287.862L279.728 286.262L279.111 287.862ZM297.902 297.249C298.594 297.648 298.566 297.933 298.562 297.854C298.561 297.822 298.577 297.83 298.533 297.895C298.483 297.97 298.352 298.118 298.059 298.287L299.775 301.258C301.051 300.521 302.052 299.294 301.991 297.719C301.931 296.189 300.887 295.01 299.617 294.278L297.902 297.249ZM298.059 298.287C297.458 298.634 296.538 298.856 295.5 298.842C294.467 298.829 293.502 298.584 292.83 298.196L291.115 301.167C292.404 301.911 293.975 302.253 295.455 302.273C296.93 302.292 298.502 301.993 299.775 301.258L298.059 298.287ZM292.83 298.196C292.585 298.055 291.878 297.528 290.771 296.639C289.715 295.791 288.404 294.705 287.021 293.542C284.255 291.217 281.224 288.609 279.41 287.04L277.166 289.635C278.984 291.207 282.029 293.828 284.813 296.168C286.205 297.338 287.538 298.443 288.624 299.315C289.659 300.146 290.593 300.866 291.115 301.167L292.83 298.196ZM278.494 289.463C281.213 290.511 285.735 292.262 289.767 293.861C291.784 294.661 293.673 295.421 295.149 296.034C296.685 296.672 297.639 297.097 297.902 297.249L299.617 294.278C299.113 293.986 297.907 293.464 296.465 292.865C294.963 292.242 293.055 291.475 291.032 290.672C286.984 289.067 282.45 287.311 279.728 286.262L278.494 289.463ZM279.41 287.04C279.65 287.247 280.025 287.773 279.858 288.491C279.724 289.063 279.335 289.321 279.217 289.389C278.951 289.543 278.706 289.544 278.494 289.463L279.728 286.262C278.973 285.971 278.135 286.053 277.502 286.418C277.201 286.592 276.685 286.988 276.517 287.712C276.314 288.582 276.745 289.271 277.166 289.635L279.41 287.04Z" fill="black" mask="url(#path-62-outside-2)"/>
<path d="M293.96 282.868L297.963 269.145L298.534 274.863L294.532 286.871L293.388 288.014V282.868H293.96Z" fill="black"/>
</svg>
