<svg width="2000" height="2000" viewBox="0 0 2000 2000" fill="none" xmlns="http://www.w3.org/2000/svg">
<rect width="2000" height="2000" fill="white"/>
<ellipse cx="983.599" cy="1351.24" rx="170.797" ry="108.251" fill="#D6D2CD"/>
<ellipse cx="884.97" cy="1096.25" rx="139.524" ry="108.251" fill="#D6D2CD"/>
<ellipse cx="1551.32" cy="1550.91" rx="132.307" ry="72.1676" fill="#D6D2CD"/>
<path d="M1905.6 1313.41L1957 1200.69L1625.14 1135.05L1293.28 1200.69L1241.88 1313.41L1573.74 1505.01L1760.85 1476.03L1905.6 1313.41Z" fill="#D6D2CD"/>
<path d="M706.493 1428.99L757.895 1316.26L426.033 1250.62L94.1713 1316.26L42.77 1428.99L374.632 1620.59L706.493 1428.99Z" fill="#D6D2CD"/>
<path d="M1306.04 985.088L1357.45 872.36L1025.58 806.723L693.722 872.36L642.321 985.088L974.182 1176.69L1306.04 985.088Z" fill="#D6D2CD"/>
<path d="M1026.58 300L694.719 491.6L610.75 649.19L942.611 457.59L1026.58 300Z" fill="#E0A173" stroke="black" stroke-width="4.81117" stroke-linecap="round" stroke-linejoin="round"/>
<rect width="383.201" height="383.201" transform="matrix(-0.866025 -0.5 -0.866025 0.5 1358.77 491.601)" fill="#4E4E4E" stroke="black" stroke-width="4.81117" stroke-linecap="round" stroke-linejoin="round"/>
<rect width="280.066" height="280.066" transform="matrix(-0.866025 -0.5 -0.866025 0.5 1269.46 543.171)" fill="black" stroke="black" stroke-width="4.81117" stroke-linecap="round" stroke-linejoin="round"/>
<rect width="383.201" height="383.201" transform="matrix(-0.866025 0.5 2.20305e-08 1 1358.77 491.601)" fill="#FFB681" stroke="black" stroke-width="4.81117" stroke-linecap="round" stroke-linejoin="round"/>
<path d="M1244.89 557.355L1031.59 680.506L1031.59 1061.33L1201.66 960.089L1244.89 557.355Z" fill="#E0A173"/>
<rect width="66.959" height="158.99" transform="matrix(-0.866025 0.5 2.20305e-08 1 1268.29 680.484)" fill="white" stroke="black" stroke-width="4.81117" stroke-linecap="round" stroke-linejoin="round"/>
<path d="M1358.77 491.61L1026.91 683.21L1083.47 867.846L1415.34 676.246L1358.77 491.61Z" fill="#FFDBC0" stroke="black" stroke-width="4.81117" stroke-linecap="round" stroke-linejoin="round"/>
<path d="M694.341 490.239L1026.91 683.202L1026.91 1066.4L695.045 874.803L694.341 490.239Z" fill="#E0A173" stroke="black" stroke-width="4.81117" stroke-linecap="round" stroke-linejoin="round"/>
<path fill-rule="evenodd" clip-rule="evenodd" d="M1123.98 1321.83C1124.04 1361.14 1068.89 1392.98 1000.81 1392.95C932.729 1392.91 877.491 1361.02 877.433 1321.71C877.422 1314.52 879.256 1307.59 882.666 1301.07C883.291 1299.87 883.487 1298.66 883.305 1297.48L882.375 1278.48C873.684 1276.96 849.279 1283.79 846.657 1288.8C842.327 1297.09 844.547 1312.62 844.56 1321.7C844.633 1371.49 914.602 1411.88 1000.84 1411.93C1087.08 1411.97 1156.93 1371.64 1156.85 1321.85L1155.89 1299.51C1148.49 1253.66 1081.91 1231.66 1000.58 1231.62C984.853 1231.61 969.647 1232.95 955.298 1235.45C946.612 1236.96 941.707 1242.26 944.344 1247.28C946.98 1252.29 956.159 1255.14 964.845 1253.62C976.141 1251.65 988.141 1250.59 1000.6 1250.6C1068.69 1250.63 1123.92 1282.53 1123.98 1321.83ZM1050.02 1321.8C1050.04 1337.52 1027.98 1350.26 1000.75 1350.24C973.516 1350.23 951.421 1337.47 951.398 1321.75C951.39 1316.51 944.025 1312.26 934.947 1312.25C928.183 1312.25 920.461 1298.03 917.944 1301.39C917.083 1302.55 918.525 1321.73 918.525 1321.73C918.563 1347.94 955.389 1369.2 1000.78 1369.22C1046.17 1369.24 1082.93 1348.02 1082.89 1321.81L1082.37 1301.1C1076.13 1278.45 1044.24 1264.97 1003.26 1264.95C997.724 1264.95 984.235 1258.73 983.443 1264.23L984.215 1283.81C984.223 1289.05 991.588 1293.3 1000.67 1293.3C1027.9 1293.32 1049.99 1306.07 1050.02 1321.8ZM1007.69 1325.8C1010.4 1324.24 1011.97 1322.25 1012.38 1320.21C1012.94 1317.42 1011.76 1299.71 1011.76 1299.71L921.588 1262.69C915.164 1258.98 899.271 1246.31 892.858 1250.01C892.858 1250.01 893.788 1266.59 893.566 1268.83C893.308 1271.44 894.908 1274.1 898.363 1276.09L984.442 1325.79C990.866 1329.5 1001.27 1329.51 1007.69 1325.8Z" fill="#FAC864" stroke="black" stroke-width="5.95315" stroke-linecap="round" stroke-linejoin="round"/>
<path fill-rule="evenodd" clip-rule="evenodd" d="M1123.3 1302.39C1123.36 1341.7 1068.21 1373.54 1000.13 1373.51C932.047 1373.47 876.809 1341.58 876.751 1302.27C876.741 1295.08 878.575 1288.15 881.984 1281.63C884.606 1276.61 879.686 1271.31 870.995 1269.79C862.304 1268.27 853.133 1271.1 850.512 1276.12C846.181 1284.4 843.865 1293.18 843.878 1302.26C843.951 1352.05 913.92 1392.44 1000.16 1392.49C1086.4 1392.53 1156.25 1352.2 1156.17 1302.41C1156.1 1252.62 1086.13 1212.22 999.893 1212.18C984.171 1212.17 968.965 1213.51 954.616 1216.01C945.93 1217.53 941.026 1222.82 943.662 1227.84C946.298 1232.86 955.477 1235.7 964.164 1234.18C975.459 1232.21 987.459 1231.16 999.921 1231.16C1068 1231.19 1123.24 1263.09 1123.3 1302.39ZM1049.34 1302.36C1049.36 1318.08 1027.3 1330.82 1000.07 1330.8C972.834 1330.79 950.739 1318.03 950.716 1302.31C950.708 1297.07 943.343 1292.82 934.266 1292.81C925.188 1292.81 917.835 1297.05 917.843 1302.29C917.881 1328.5 954.707 1349.76 1000.1 1349.78C1045.48 1349.8 1082.25 1328.58 1082.21 1302.37C1082.17 1276.17 1045.34 1254.91 999.956 1254.89C990.879 1254.88 983.526 1259.13 983.534 1264.37C983.541 1269.61 990.906 1273.86 999.984 1273.86C1027.22 1273.88 1049.31 1286.63 1049.34 1302.36ZM1007 1306.36C1013.42 1302.66 1013.41 1296.65 1006.99 1292.94L920.907 1243.25C914.482 1239.54 904.075 1239.53 897.662 1243.23C891.248 1246.94 891.257 1252.95 897.682 1256.65L983.76 1306.35C990.184 1310.06 1000.59 1310.07 1007 1306.36Z" fill="#FFE598" stroke="black" stroke-width="5.95315" stroke-linecap="round" stroke-linejoin="round"/>
<ellipse cx="741.187" cy="1511.56" rx="103.739" ry="55.3285" transform="rotate(-18.7569 741.187 1511.56)" fill="#D6D2CD"/>
<ellipse cx="832.6" cy="1564.49" rx="103.739" ry="55.3285" transform="rotate(-18.7569 832.6 1564.49)" fill="#D6D2CD"/>
<path d="M930.064 1617.73C939.889 1646.66 915.894 1680.97 876.469 1694.36C837.044 1707.75 797.118 1695.15 787.292 1666.21C777.467 1637.28 801.462 1602.97 840.887 1589.58C880.312 1576.19 920.238 1588.79 930.064 1617.73Z" fill="#D6D2CD"/>
<path d="M822.16 1651.06C821.124 1650.46 820.486 1649.36 820.486 1648.16V1627.49C820.486 1626.55 820.88 1625.66 821.573 1625.02C822.266 1624.39 823.193 1624.07 824.129 1624.16L880.293 1629.11L868.839 1622.5C867.803 1621.9 867.165 1620.79 867.165 1619.6V1602.13C856.975 1603.62 846.905 1603.69 836.963 1602.35C824.805 1600.72 813.797 1597.09 803.983 1591.43C794.327 1585.85 787.588 1579.29 784.375 1571.57C784.031 1570.74 783.862 1569.62 783.751 1568.75C783.622 1567.73 783.512 1566.48 783.417 1565.11C783.227 1562.37 783.088 1558.98 782.987 1555.62C782.785 1548.9 782.733 1542.16 782.753 1540.67C782.774 1539.05 783.956 1537.67 785.556 1537.41L787.667 1537.06C790.447 1533.39 794.093 1532.16 797.637 1531.2C798.18 1531.06 798.726 1530.91 799.276 1530.77C802.706 1529.88 806.302 1528.95 810.522 1526.49L810.534 1526.49L816.084 1523.28C827.437 1516.73 839.463 1512.13 852.149 1509.51L852.155 1509.51C864.933 1506.88 877.389 1506.39 889.506 1508.05C893.836 1508.63 897.91 1508.13 902.269 1507.58C903.324 1507.45 904.395 1507.32 905.491 1507.2C910.882 1506.61 916.814 1506.37 922.483 1509.64C924.735 1510.94 926.896 1512.04 928.977 1513.1L929.166 1513.2C931.151 1514.21 933.111 1515.21 934.882 1516.26C938.56 1518.45 941.906 1521.14 943.671 1525.54C943.83 1525.94 943.911 1526.36 943.911 1526.79L943.911 1547.87C943.967 1552.95 942.349 1557.96 939.304 1562.83C934.53 1570.64 926.328 1577.72 915.084 1584.22L910.074 1587.11C900.6 1592.58 890.691 1596.69 880.354 1599.42C881.526 1600.17 882.581 1600.83 883.518 1601.32C884.087 1601.62 884.51 1601.8 884.803 1601.89C884.86 1601.91 884.904 1601.92 884.938 1601.93L822.16 1651.06ZM822.16 1651.06L870.236 1678.82C871.273 1679.41 872.549 1679.41 873.585 1678.82L884.809 1672.34C885.845 1671.74 886.484 1670.63 886.484 1669.44V1654.85M822.16 1651.06L886.484 1654.85M886.484 1654.85C895.413 1654.6 902.673 1653.96 908.191 1652.89C913.827 1651.81 918.642 1650.19 922.528 1647.94C928.737 1644.36 933.088 1639.74 932.935 1633.82L932.874 1612.48C932.873 1612.35 932.866 1612.22 932.85 1612.1C932.763 1611.37 932.557 1610.3 931.863 1609.37C930.986 1608.19 929.726 1607.71 928.578 1607.69C927.675 1607.67 926.871 1607.93 926.455 1608.08C926.079 1608.2 925.382 1608.47 925.1 1608.57C924.269 1608.87 923.514 1609.08 922.693 1609.08C921.915 1609.09 920.898 1608.91 919.59 1608.15L886.484 1654.85ZM890.71 1628.56C892.389 1628.04 894.11 1627.73 895.878 1627.64L895.881 1627.64C896.484 1627.61 897.072 1627.61 897.644 1627.63C896.99 1627.76 896.296 1627.88 895.559 1627.98L895.541 1627.99C894.112 1628.2 892.503 1628.39 890.71 1628.56ZM786.343 1534.56C787.478 1533.99 788.195 1532.83 788.195 1531.57V1510.72C788.195 1508.97 786.852 1507.52 785.11 1507.38L761.987 1505.55C761.383 1505.51 760.777 1505.62 760.234 1505.89C753.275 1509.35 746.718 1510.93 740.523 1510.79C734.468 1510.66 728.078 1508.74 721.315 1504.83C718.425 1503.17 716.026 1502.5 714.261 1502.2C715.165 1500.49 716.846 1498.43 719.574 1496.04C722.869 1493.15 727.458 1489.98 733.416 1486.54L741.883 1481.65C753.355 1475.14 763.408 1471.55 772.092 1470.64C780.728 1469.74 788.479 1471.3 795.465 1475.26C795.355 1475.59 795.295 1475.95 795.295 1476.32V1497.08C795.295 1498.27 795.933 1499.38 796.969 1499.98L820.092 1513.33C821.221 1513.98 822.626 1513.92 823.693 1513.17C833.842 1506.03 840.017 1498.09 840.667 1489.22C840.673 1489.14 840.676 1489.06 840.676 1488.97V1466.79C840.676 1465.58 840.021 1464.46 838.963 1463.87L838.945 1463.86C838.923 1463.85 838.886 1463.83 838.836 1463.8C838.736 1463.74 838.584 1463.65 838.392 1463.53C838.006 1463.29 837.473 1462.94 836.891 1462.51C835.651 1461.6 834.503 1460.55 833.916 1459.64C831.82 1456.35 829.682 1454.88 827.019 1453.64C826.28 1453.29 825.552 1452.98 824.79 1452.65C822.939 1451.86 820.895 1450.99 818.045 1449.34C808.287 1443.71 797.434 1440.11 785.525 1438.51C773.712 1436.91 761.61 1437.44 749.236 1440.07C736.863 1442.69 725.126 1447.21 714.035 1453.62L707.175 1457.58C698.631 1462.51 691.656 1467.08 686.81 1470.43C684.386 1472.11 682.494 1473.47 681.202 1474.43C680.556 1474.9 680.06 1475.28 679.722 1475.53C679.554 1475.66 679.425 1475.76 679.337 1475.83L679.235 1475.91L679.208 1475.93L679.2 1475.94L679.197 1475.94L679.196 1475.94C679.196 1475.94 679.196 1475.94 681.256 1478.58L679.196 1475.94C678.505 1476.48 678.053 1477.27 677.937 1478.13C677.884 1478.53 677.863 1479.26 677.847 1479.92C677.828 1480.69 677.811 1481.71 677.797 1482.89C677.769 1485.24 677.748 1488.26 677.737 1491.27C677.714 1497.18 677.721 1503.38 677.775 1504.19C678.47 1514.65 686.238 1523.45 699.082 1530.86C712.696 1538.72 727.274 1542.99 742.774 1543.63C758.323 1544.31 772.867 1541.29 786.343 1534.56ZM713.405 1504.5C713.404 1504.51 713.406 1504.49 713.412 1504.46C713.409 1504.49 713.406 1504.5 713.405 1504.5ZM874.979 1531.11L874.986 1531.11C884.673 1530.11 892.962 1531.73 900.02 1535.8C903.647 1537.89 905.78 1539.96 906.851 1541.86C907.85 1543.63 908.048 1545.46 907.367 1547.59C906.656 1549.82 904.911 1552.44 901.722 1555.42C898.553 1558.37 894.134 1561.52 888.381 1564.84L882.92 1568C882.918 1568 882.916 1568 882.914 1568C871.485 1574.54 860.933 1578.26 851.233 1579.32C841.607 1580.36 833.348 1578.75 826.292 1574.68C822.618 1572.56 820.489 1570.47 819.446 1568.56C818.476 1566.78 818.307 1564.91 819.072 1562.7C820.751 1557.85 826.552 1552.03 837.931 1545.46L843.392 1542.3C843.394 1542.3 843.395 1542.3 843.397 1542.3C854.825 1535.76 865.343 1532.09 874.979 1531.11Z" fill="#FF8484" stroke="black" stroke-width="6.69725" stroke-linecap="round" stroke-linejoin="round"/>
<path d="M822.17 1623.55C821.134 1624.15 820.496 1625.26 820.496 1626.45C820.496 1627.65 821.134 1628.76 822.17 1629.35L870.246 1657.11C871.282 1657.71 872.559 1657.71 873.595 1657.11L884.819 1650.63C885.855 1650.03 886.493 1648.93 886.493 1647.73C886.493 1646.53 885.855 1645.43 884.819 1644.83L865.164 1633.48L885.797 1633.17L885.834 1633.17C895.067 1632.92 902.547 1632.28 908.201 1631.19C913.836 1630.1 918.651 1628.48 922.538 1626.24C929.162 1622.42 933.664 1617.39 932.859 1610.97C932.136 1604.97 926.952 1600.01 919.6 1595.77L917.953 1598.62L919.6 1595.77C914.514 1592.83 908.901 1590.85 902.792 1589.81C896.73 1588.75 890.714 1588.67 884.759 1589.57L884.759 1589.57L884.745 1589.58C878.839 1590.5 873.524 1592.29 868.849 1594.99C867.813 1595.59 867.175 1596.69 867.175 1597.89C867.175 1599.09 867.813 1600.19 868.849 1600.79L882.819 1608.86C883.855 1609.45 885.132 1609.45 886.168 1608.86C889.257 1607.07 892.485 1606.11 895.889 1605.94C899.329 1605.76 902.256 1606.45 904.786 1607.91C906.028 1608.63 906.673 1609.23 906.975 1609.64C907.115 1609.82 907.158 1609.94 907.172 1609.98C907.183 1610.02 907.184 1610.04 907.18 1610.08C907.178 1610.1 907.176 1610.11 907.175 1610.13C907.154 1610.34 906.811 1611.46 903.871 1613.15C902.102 1614.17 899.403 1615.04 895.569 1615.6L895.55 1615.61C891.734 1616.19 886.627 1616.57 880.181 1616.74L833.321 1617.6C832.754 1617.61 832.199 1617.76 831.708 1618.05L822.17 1623.55Z" fill="#FFB5B5" stroke="black" stroke-width="6.69725" stroke-linecap="round" stroke-linejoin="round"/>
<path d="M786.343 1512.84C787.446 1512.28 788.157 1511.17 788.194 1509.94C788.231 1508.71 787.589 1507.56 786.521 1506.94L763.399 1493.59C762.427 1493.03 761.239 1492.99 760.235 1493.49C753.275 1496.95 746.719 1498.53 740.524 1498.39C734.469 1498.26 728.078 1496.34 721.315 1492.43C717.594 1490.28 715.406 1488.25 714.317 1486.45C713.324 1484.81 713.172 1483.27 713.774 1481.56C714.475 1479.66 716.244 1477.23 719.574 1474.31C722.87 1471.42 727.459 1468.25 733.416 1464.81L741.883 1459.93C753.355 1453.42 763.409 1449.83 772.093 1448.91C780.84 1448 788.68 1449.61 795.736 1453.69C799.12 1455.64 801.476 1457.46 802.966 1459.1C804.452 1460.74 804.897 1461.99 804.932 1462.89C804.933 1462.92 804.935 1462.95 804.937 1462.98C804.995 1463.86 804.693 1465.1 803.403 1466.79C802.101 1468.49 799.95 1470.43 796.77 1472.58C795.813 1473.22 795.257 1474.32 795.297 1475.47C795.338 1476.62 795.97 1477.68 796.969 1478.25L820.092 1491.6C821.221 1492.25 822.626 1492.19 823.693 1491.44C835.356 1483.24 841.772 1473.95 840.586 1463.54C839.424 1453.33 831.256 1444.57 818.046 1436.94C808.288 1431.31 797.435 1427.71 785.525 1426.11C773.712 1424.51 761.61 1425.04 749.237 1427.67C736.864 1430.29 725.127 1434.81 714.035 1441.21L707.176 1445.17C690.099 1455.03 679.666 1465.79 677.942 1477.77L677.938 1477.8C676.275 1490.21 684.302 1500.6 699.083 1509.14C712.697 1517 727.275 1521.26 742.774 1521.91C758.324 1522.58 772.867 1519.57 786.343 1512.84ZM786.762 1525.99L786.756 1526C782.022 1533.87 781.086 1541.93 784.376 1549.84C787.588 1557.56 794.328 1564.13 803.983 1569.7C813.798 1575.37 824.806 1578.99 836.963 1580.62C849.177 1582.28 861.584 1581.78 874.169 1579.16C886.753 1576.53 898.726 1571.94 910.074 1565.38L915.084 1562.49C926.329 1556 934.531 1548.91 939.304 1541.1C944.241 1533.2 945.318 1525.1 942.023 1517.16C938.912 1509.42 932.18 1502.84 922.484 1497.24C912.717 1491.6 901.708 1487.97 889.504 1486.32C877.388 1484.66 864.932 1485.16 852.155 1487.78L852.15 1487.78C839.463 1490.41 827.437 1495 816.084 1501.56L810.535 1504.76L810.523 1504.77C799.52 1511.18 791.476 1518.22 786.762 1525.99ZM874.979 1509.39L874.987 1509.39C884.673 1508.38 892.963 1510 900.02 1514.07C903.647 1516.17 905.781 1518.23 906.852 1520.13C907.851 1521.9 908.049 1523.73 907.368 1525.87C906.657 1528.1 904.911 1530.71 901.722 1533.69C898.554 1536.65 894.135 1539.8 888.382 1543.12L882.92 1546.27C882.918 1546.27 882.916 1546.27 882.914 1546.28C871.485 1552.81 860.934 1556.53 851.234 1557.6C841.607 1558.63 833.348 1557.03 826.293 1552.95C822.618 1550.83 820.49 1548.74 819.446 1546.83C818.476 1545.05 818.307 1543.18 819.073 1540.97C820.751 1536.13 826.552 1530.3 837.931 1523.73L843.393 1520.58C843.395 1520.58 843.397 1520.58 843.399 1520.57C854.827 1514.04 865.344 1510.37 874.979 1509.39Z" fill="#FFB5B5" stroke="black" stroke-width="6.69725" stroke-linecap="round" stroke-linejoin="round"/>
<rect width="383.201" height="383.201" transform="matrix(-0.866025 -0.5 -0.866025 0.5 1954.74 820.201)" fill="#FFDBC0" stroke="black" stroke-width="4.81117" stroke-linecap="round" stroke-linejoin="round"/>
<rect width="56.5239" height="383.201" transform="matrix(-0.866025 -0.5 -0.866025 0.5 1813.29 738.528)" fill="white" stroke="black" stroke-width="4.81117" stroke-linecap="round" stroke-linejoin="round"/>
<rect width="383.201" height="383.201" transform="matrix(-0.866025 0.5 2.20305e-08 1 1954.74 820.201)" fill="#FFB681" stroke="black" stroke-width="4.81117" stroke-linecap="round" stroke-linejoin="round"/>
<rect width="79.8811" height="81.1228" transform="matrix(-0.866025 0.5 2.20305e-08 1 1942.45 859.198)" fill="#FFDBC0" stroke="black" stroke-width="4.81117" stroke-linecap="round" stroke-linejoin="round"/>
<path d="M1792.56 986.023L1622.88 1011.81L1622.88 1395.01L1792.56 1369.22L1792.56 986.023Z" fill="#E0A173" stroke="black" stroke-width="4.81117" stroke-linecap="round" stroke-linejoin="round"/>
<rect width="383.201" height="383.201" transform="matrix(0.866025 0.5 -2.20305e-08 1 1291.02 820.201)" fill="#4E4E4E" stroke="black" stroke-width="4.81117" stroke-linecap="round" stroke-linejoin="round"/>
<rect width="270.66" height="270.66" transform="matrix(0.866025 0.5 -2.20305e-08 1 1388.48 876.471)" fill="black"/>
<rect width="53.2541" height="65.6546" transform="matrix(0.866025 0.5 -2.20305e-08 1 1435.14 903.41)" fill="white" stroke="black" stroke-width="4.81117" stroke-linecap="round" stroke-linejoin="round"/>
<ellipse cx="1356.47" cy="1344.03" rx="139.524" ry="81.79" fill="#D6D2CD"/>
<path d="M740.633 1016.46C757.046 1006.99 795.967 1020.59 812.381 1030.07L958.121 1114.21C971.092 1114.72 1000.14 1110.56 1010.06 1116.28L1010.06 1146.53C1009.97 1154.7 1004.52 1162.85 993.727 1169.08C971.954 1181.65 936.654 1181.65 914.881 1169.08C904.965 1163.36 899.565 1156.01 898.681 1148.52L752.943 1064.38C744.743 1059.65 740.639 1053.44 740.633 1047.24L740.633 1016.46Z" fill="#5E6FDB" stroke="black" stroke-width="4.81117" stroke-linecap="round" stroke-linejoin="round"/>
<path d="M752.946 999.917C769.36 990.44 795.971 990.44 812.384 999.917L958.124 1084.06C971.095 1084.57 983.816 1087.69 993.731 1093.41C1015.5 1105.98 1015.5 1126.36 993.731 1138.93C971.958 1151.5 936.657 1151.5 914.885 1138.93C904.969 1133.21 899.569 1125.86 898.685 1118.38L752.946 1034.23C736.533 1024.76 736.533 1009.39 752.946 999.917Z" fill="#B0B8ED" stroke="black" stroke-width="4.81117" stroke-linecap="round" stroke-linejoin="round"/>
<path d="M812.286 1034.16C818.11 1030.8 827.553 1030.8 833.377 1034.16L950.941 1102.04C959.448 1101.06 968.616 1102.48 975.209 1106.28C985.706 1112.34 985.706 1122.17 975.209 1128.23C964.712 1134.29 947.693 1134.29 937.196 1128.23C930.599 1124.42 928.148 1119.12 929.844 1114.21L812.286 1046.34C806.462 1042.98 806.462 1037.52 812.286 1034.16Z" fill="#5E6FDB" stroke="black" stroke-width="4.81117" stroke-linecap="round" stroke-linejoin="round"/>
<rect width="383.201" height="383.201" transform="matrix(-0.866025 -0.5 -0.866025 0.5 759.226 935.5)" fill="#FFDBC0" stroke="black" stroke-width="4.81117" stroke-linecap="round" stroke-linejoin="round"/>
<rect width="180.875" height="383.201" transform="matrix(-0.866025 -0.5 -0.866025 0.5 759.226 935.505)" fill="#FFDBC0" stroke="black" stroke-width="4.81117" stroke-linecap="round" stroke-linejoin="round"/>
<rect width="70.0209" height="91.087" transform="matrix(-0.866025 -0.5 -0.866025 0.5 709.921 934.558)" fill="white" stroke="black" stroke-width="4.81117" stroke-linecap="round" stroke-linejoin="round"/>
<rect width="389.556" height="51.9348" transform="matrix(-0.866025 -0.5 -0.866025 0.5 618.542 1019.9)" fill="white" stroke="black" stroke-width="4.81117" stroke-linecap="round" stroke-linejoin="round"/>
<rect width="383.201" height="383.201" transform="matrix(-0.866025 0.5 2.20305e-08 1 759.226 935.5)" fill="#FFB681" stroke="black" stroke-width="4.81117" stroke-linecap="round" stroke-linejoin="round"/>
<rect width="383.201" height="383.201" transform="matrix(0.866025 0.5 -2.20305e-08 1 95.5 935.5)" fill="#E0A173" stroke="black" stroke-width="4.81117" stroke-linecap="round" stroke-linejoin="round"/>
<rect width="108.407" height="46.5701" transform="matrix(0.866025 0.5 -2.20305e-08 1 214.492 1066.73)" fill="#4E4E4E" stroke="black" stroke-width="4.81117" stroke-linecap="round" stroke-linejoin="round"/>
<rect width="53.2556" height="129.528" transform="matrix(-0.866025 0.5 2.20305e-08 1 616.517 1017.8)" fill="white" stroke="black" stroke-width="4.81117" stroke-linecap="round" stroke-linejoin="round"/>
<path d="M1476.39 1354.47C1421.44 1386.2 1332.35 1386.2 1277.4 1354.47C1250.57 1338.98 1236.84 1318.79 1236.21 1298.49L1236.2 1264.31C1243 1253.42 1262.29 1248.32 1277.4 1239.59C1332.35 1207.86 1421.44 1207.86 1476.39 1239.59C1493.49 1249.47 1511.12 1251.8 1517.57 1264.31L1517.57 1298.49C1516.95 1318.79 1503.22 1338.98 1476.39 1354.47Z" fill="#5E6FDB" stroke="black" stroke-width="4.81117" stroke-linecap="round" stroke-linejoin="round"/>
<path d="M1476.38 1323.93C1421.43 1355.66 1332.34 1355.66 1277.4 1323.93C1222.45 1292.21 1222.45 1240.77 1277.4 1209.05C1332.34 1177.33 1421.43 1177.33 1476.38 1209.05C1531.33 1240.77 1531.33 1292.21 1476.38 1323.93Z" fill="#B0B8ED" stroke="black" stroke-width="4.81117" stroke-linecap="round" stroke-linejoin="round"/>
<path d="M1474.79 1209.19C1420.86 1177.28 1333.42 1177.28 1279.49 1209.19L1474.79 1324.78C1528.72 1292.86 1528.72 1241.11 1474.79 1209.19Z" fill="#5E6FDB"/>
<path d="M1366.3 1237.71C1336.31 1224.21 1310.11 1217.8 1301.33 1222.87C1292.55 1227.94 1303.66 1243.06 1327.04 1260.37M1346.2 1273.31C1349.19 1275.15 1352.29 1277.01 1355.48 1278.85C1397.22 1302.95 1440.63 1316.95 1452.46 1310.12C1464.28 1303.29 1440.04 1278.23 1398.3 1254.13C1395.1 1252.29 1391.9 1250.5 1388.69 1248.77" stroke="black" stroke-width="4.81117" stroke-linecap="round" stroke-linejoin="round"/>
<path d="M1432.15 1256.23C1451.78 1240.68 1460.52 1227.53 1452.45 1222.87C1440.62 1216.04 1397.21 1230.04 1355.47 1254.13C1313.74 1278.23 1289.5 1303.29 1301.32 1310.12C1309.39 1314.78 1332.18 1309.74 1359.11 1298.4" stroke="black" stroke-width="4.81117" stroke-linecap="round" stroke-linejoin="round"/>
<ellipse rx="6.41571" ry="13.088" transform="matrix(-0.866026 0.5 -0.866025 -0.5 1376.88 1266.49)" fill="black" stroke="black" stroke-width="4.81117" stroke-linecap="round" stroke-linejoin="round"/>
<path d="M1476.38 1323.93C1421.43 1355.66 1332.34 1355.66 1277.4 1323.93C1222.45 1292.21 1222.45 1240.77 1277.4 1209.05C1332.34 1177.33 1421.43 1177.33 1476.38 1209.05C1531.33 1240.77 1531.33 1292.21 1476.38 1323.93Z" stroke="black" stroke-width="4.81117" stroke-linecap="round" stroke-linejoin="round"/>
<path d="M1483.46 1552.34C1537.46 1583.52 1640.7 1583.89 1674.04 1583.13C1680.26 1582.98 1685.07 1580.2 1685.31 1576.61C1685.51 1573.77 1685.66 1544.8 1685.61 1540.41C1685.61 1540.41 1678 1493.15 1631.99 1466.58C1590.97 1442.9 1524.47 1442.9 1483.46 1466.58C1469.45 1474.67 1457.14 1475.39 1452.7 1485.74L1452.7 1509.92C1452.9 1525.28 1463.15 1540.61 1483.46 1552.34Z" fill="#FF8484" stroke="black" stroke-width="6.54053" stroke-linecap="round" stroke-linejoin="round"/>
<path d="M1483.46 1529.33C1537.46 1560.51 1640.7 1560.88 1674.04 1560.12C1680.26 1559.97 1685.07 1557.2 1685.31 1553.61C1686.64 1534.36 1685.99 1474.75 1631.99 1443.58C1590.97 1419.89 1524.47 1419.89 1483.46 1443.58C1442.44 1467.26 1442.44 1505.65 1483.46 1529.33Z" fill="#FFB5B5" stroke="black" stroke-width="6.54053" stroke-linecap="round" stroke-linejoin="round"/>
<path d="M1528.97 1503.04C1544.85 1512.21 1570.59 1512.21 1586.47 1503.04C1602.35 1493.88 1602.35 1479.01 1586.47 1469.85C1570.59 1460.68 1544.85 1460.68 1528.97 1469.85C1513.1 1479.01 1513.1 1493.88 1528.97 1503.04Z" fill="#FF8484" stroke="black" stroke-width="6.54053" stroke-linecap="round" stroke-linejoin="round"/>
<path fill-rule="evenodd" clip-rule="evenodd" d="M1586.46 1503.04C1570.58 1512.21 1544.84 1512.21 1528.96 1503.04C1526.47 1501.6 1524.37 1500.03 1522.66 1498.35C1524.37 1496.68 1526.47 1495.1 1528.96 1493.67C1544.84 1484.5 1570.58 1484.5 1586.46 1493.67C1588.94 1495.1 1591.04 1496.68 1592.75 1498.35C1591.04 1500.03 1588.94 1501.6 1586.46 1503.04Z" fill="#BDDCD8"/>
<path d="M1522.66 1498.35L1519.21 1499.53C1518.47 1498.8 1518.47 1497.9 1519.21 1497.18L1522.66 1498.35ZM1592.75 1498.35L1596.2 1497.18C1596.94 1497.9 1596.94 1498.8 1596.2 1499.53L1592.75 1498.35ZM1531.79 1501.41C1546.1 1509.67 1569.31 1509.67 1583.62 1501.41L1589.29 1504.68C1571.85 1514.75 1543.57 1514.75 1526.13 1504.68L1531.79 1501.41ZM1526.11 1497.18C1527.65 1498.69 1529.54 1500.11 1531.79 1501.41L1526.13 1504.68C1523.4 1503.1 1521.09 1501.37 1519.21 1499.53L1526.11 1497.18ZM1531.79 1495.3C1529.54 1496.6 1527.65 1498.02 1526.11 1499.53L1519.21 1497.18C1521.09 1495.34 1523.4 1493.61 1526.13 1492.03L1531.79 1495.3ZM1583.62 1495.3C1569.31 1487.04 1546.1 1487.04 1531.79 1495.3L1526.13 1492.03C1543.57 1481.96 1571.85 1481.96 1589.29 1492.03L1583.62 1495.3ZM1589.3 1499.53C1587.76 1498.02 1585.87 1496.6 1583.62 1495.3L1589.29 1492.03C1592.02 1493.61 1594.32 1495.34 1596.2 1497.18L1589.3 1499.53ZM1583.62 1501.41C1585.87 1500.11 1587.76 1498.69 1589.3 1497.18L1596.2 1499.53C1594.32 1501.37 1592.02 1503.1 1589.29 1504.68L1583.62 1501.41Z" fill="black"/>
<path d="M1178.71 1486.3C1207.93 1481.01 1238.85 1479.69 1269.08 1482.41C1270.45 1482.54 1271.38 1483.29 1271.15 1484.08L1284.3 1509.9L1256.51 1534.01C1256.28 1534.81 1254.98 1535.34 1253.6 1535.22C1237.81 1533.9 1208.14 1564.88 1192.89 1567.63L1163.73 1572.45C1158.62 1581.19 1144.77 1591.69 1132.49 1603.67C1132.66 1604.47 1131.71 1605.21 1130.33 1605.33L1043.55 1612.71C1042.17 1612.83 1040.89 1612.28 1040.7 1611.48C1036.63 1593.97 1039.59 1576.15 1049.36 1559.4C1059.4 1542.19 1076.36 1526.59 1098.84 1513.89C1121.32 1501.18 1148.69 1491.73 1178.71 1486.3Z" fill="#D6D2CD"/>
<path d="M1298.64 1578.58C1306.9 1583.35 1307.19 1590.9 1299.31 1595.45C1291.42 1600 1256.3 1622.53 1248.05 1617.77C1241.59 1614.04 1205.76 1583.25 1190.48 1570.04C1188.95 1568.72 1213.69 1544.46 1215.98 1545.34C1238.87 1554.17 1292.19 1574.86 1298.64 1578.58Z" fill="#D6D2CD"/>
<path d="M1299.71 1453.98C1299.83 1453.57 1299.87 1453.1 1299.89 1452.98L1299.89 1452.96C1299.91 1452.71 1299.94 1452.41 1299.97 1452.06C1300.02 1451.37 1300.08 1450.44 1300.14 1449.36C1300.27 1447.21 1300.4 1444.42 1300.47 1441.64C1300.55 1438.88 1300.58 1436.08 1300.49 1433.92C1300.45 1432.86 1300.38 1431.83 1300.24 1431C1300.18 1430.61 1300.07 1430.06 1299.85 1429.52C1299.74 1429.26 1299.53 1428.8 1299.13 1428.34C1298.72 1427.87 1297.89 1427.15 1296.6 1427.03C1280.74 1425.6 1265.55 1429.41 1250.97 1434.05C1247.15 1435.27 1243.39 1436.54 1239.67 1437.79C1228.98 1441.39 1218.58 1444.89 1207.98 1446.81C1177.63 1452.3 1149.86 1461.87 1126.97 1474.81C1121.5 1477.91 1116.13 1480.42 1110.93 1482.75C1109.55 1483.37 1108.17 1483.98 1106.8 1484.58C1103.08 1486.22 1099.44 1487.83 1096.03 1489.5C1086.65 1494.11 1078.27 1499.57 1072.72 1509.09C1067.41 1518.19 1064.98 1530.48 1064.36 1542.53C1063.73 1554.64 1064.89 1566.95 1067.1 1576.38C1067.57 1578.39 1069.19 1579.4 1070.17 1579.82C1071.29 1580.3 1072.55 1580.48 1073.77 1580.37L1160.55 1572.99C1161.75 1572.89 1163.04 1572.5 1164.1 1571.68C1165.16 1570.87 1166.4 1569.21 1165.93 1566.99C1164.18 1558.79 1165.6 1550.42 1170.29 1542.38C1175.26 1533.87 1183.78 1525.94 1195.41 1519.37C1207.02 1512.8 1221.26 1507.87 1236.99 1505.02C1244.12 1503.73 1250.36 1504.02 1256.87 1504.84C1259.14 1505.12 1261.54 1505.49 1264.04 1505.87C1268.51 1506.54 1273.32 1507.27 1278.4 1507.7C1279.6 1507.8 1280.86 1507.63 1281.96 1507.17C1282.94 1506.77 1284.51 1505.82 1285.08 1503.91L1299.71 1453.98Z" fill="#55A398" stroke="black" stroke-width="7.21676"/>
<mask id="path-58-outside-1" maskUnits="userSpaceOnUse" x="1204.98" y="1501.17" width="109" height="89" fill="black">
<rect fill="white" x="1204.98" y="1501.17" width="109" height="89"/>
<path d="M1304.16 1544.43C1308.45 1546.91 1306.05 1570.78 1306.05 1570.78C1306.01 1573.71 1304.11 1576.58 1300.33 1578.76C1292.44 1583.32 1279.36 1583.14 1271.11 1578.38C1264.65 1574.65 1228.82 1543.87 1213.54 1530.66C1213.2 1530.36 1213.07 1530.05 1213.1 1529.76C1213.1 1529.76 1212.84 1509.4 1213.1 1509.19C1213.81 1508.6 1223.25 1518.79 1224.56 1519.29C1247.45 1528.11 1297.7 1540.7 1304.16 1544.43Z"/>
</mask>
<path d="M1304.16 1544.43C1308.45 1546.91 1306.05 1570.78 1306.05 1570.78C1306.01 1573.71 1304.11 1576.58 1300.33 1578.76C1292.44 1583.32 1279.36 1583.14 1271.11 1578.38C1264.65 1574.65 1228.82 1543.87 1213.54 1530.66C1213.2 1530.36 1213.07 1530.05 1213.1 1529.76C1213.1 1529.76 1212.84 1509.4 1213.1 1509.19C1213.81 1508.6 1223.25 1518.79 1224.56 1519.29C1247.45 1528.11 1297.7 1540.7 1304.16 1544.43Z" fill="#55A398"/>
<path d="M1304.16 1544.43L1307.77 1538.18L1304.16 1544.43ZM1300.33 1578.76L1303.93 1585.01L1300.33 1578.76ZM1271.11 1578.38L1267.5 1584.63L1271.11 1578.38ZM1213.54 1530.66L1218.26 1525.2H1218.26L1213.54 1530.66ZM1224.56 1519.29L1227.16 1512.56L1224.56 1519.29ZM1306.05 1570.78L1298.87 1570.06L1298.84 1570.37L1298.83 1570.68L1306.05 1570.78ZM1213.1 1509.19L1217.71 1514.74L1213.1 1509.19ZM1213.1 1529.76L1220.28 1530.49L1220.32 1530.08L1220.31 1529.67L1213.1 1529.76ZM1296.72 1572.51C1294.19 1573.97 1290.32 1574.91 1285.95 1574.85C1281.6 1574.79 1277.55 1573.76 1274.72 1572.13L1267.5 1584.63C1272.93 1587.76 1279.53 1589.2 1285.76 1589.28C1291.97 1589.36 1298.58 1588.1 1303.93 1585.01L1296.72 1572.51ZM1274.72 1572.13C1273.69 1571.54 1270.71 1569.32 1266.06 1565.58C1261.61 1562.01 1256.1 1557.44 1250.28 1552.55C1238.64 1542.77 1225.89 1531.8 1218.26 1525.2L1208.82 1536.11C1216.47 1542.73 1229.27 1553.75 1240.99 1563.6C1246.84 1568.52 1252.45 1573.17 1257.02 1576.84C1261.38 1580.33 1265.3 1583.36 1267.5 1584.63L1274.72 1572.13ZM1221.97 1526.02C1233.76 1530.57 1252.39 1536.02 1268.51 1540.7C1276.65 1543.06 1284.18 1545.24 1290.09 1547.06C1293.04 1547.97 1295.52 1548.77 1297.42 1549.44C1298.37 1549.78 1299.13 1550.06 1299.71 1550.3C1300.33 1550.56 1300.56 1550.68 1300.55 1550.68L1307.77 1538.18C1306.3 1537.33 1304.21 1536.53 1302.22 1535.83C1300.05 1535.07 1297.36 1534.2 1294.34 1533.27C1288.29 1531.41 1280.62 1529.19 1272.53 1526.84C1256.19 1522.09 1238.25 1516.83 1227.16 1512.56L1221.97 1526.02ZM1300.55 1550.68C1298.93 1549.74 1298.59 1548.48 1298.74 1548.88C1298.81 1549.06 1298.97 1549.6 1299.12 1550.64C1299.42 1552.67 1299.53 1555.45 1299.5 1558.46C1299.47 1561.41 1299.31 1564.32 1299.16 1566.51C1299.08 1567.61 1299.01 1568.5 1298.96 1569.13C1298.93 1569.44 1298.91 1569.68 1298.89 1569.84C1298.88 1569.92 1298.88 1569.98 1298.87 1570.01C1298.87 1570.03 1298.87 1570.05 1298.87 1570.06C1298.87 1570.06 1298.87 1570.06 1298.87 1570.06C1298.87 1570.06 1298.87 1570.06 1298.87 1570.06C1298.87 1570.06 1298.87 1570.06 1298.87 1570.06C1298.87 1570.06 1298.87 1570.06 1306.05 1570.78C1313.23 1571.51 1313.23 1571.51 1313.23 1571.5C1313.23 1571.5 1313.23 1571.5 1313.23 1571.5C1313.23 1571.5 1313.23 1571.5 1313.23 1571.5C1313.23 1571.49 1313.23 1571.49 1313.23 1571.48C1313.24 1571.46 1313.24 1571.44 1313.24 1571.42C1313.24 1571.36 1313.25 1571.29 1313.26 1571.19C1313.28 1571 1313.3 1570.73 1313.33 1570.38C1313.39 1569.69 1313.48 1568.7 1313.56 1567.51C1313.72 1565.15 1313.9 1561.94 1313.93 1558.61C1313.96 1555.34 1313.86 1551.68 1313.41 1548.54C1313.18 1546.99 1312.82 1545.26 1312.2 1543.66C1311.66 1542.28 1310.46 1539.73 1307.77 1538.18L1300.55 1550.68ZM1298.83 1570.68C1298.84 1570.55 1298.89 1570.61 1298.68 1570.9C1298.45 1571.23 1297.89 1571.83 1296.72 1572.51L1303.93 1585.01C1309.08 1582.04 1313.17 1577.19 1313.27 1570.89L1298.83 1570.68ZM1217.71 1514.74C1215.88 1516.26 1213.9 1516.43 1212.83 1516.38C1211.79 1516.32 1211.03 1516.05 1210.71 1515.93C1210.34 1515.78 1210.08 1515.64 1209.95 1515.57C1209.81 1515.49 1209.72 1515.43 1209.69 1515.41C1209.64 1515.37 1209.8 1515.48 1210.26 1515.88C1211.1 1516.62 1212.26 1517.73 1213.58 1519.01C1214.84 1520.23 1216.24 1521.61 1217.38 1522.67C1217.94 1523.21 1218.53 1523.75 1219.06 1524.2C1219.33 1524.42 1219.65 1524.68 1220 1524.93C1220.21 1525.09 1220.96 1525.63 1221.97 1526.02L1227.16 1512.56C1227.67 1512.75 1228.02 1512.96 1228.15 1513.04C1228.32 1513.14 1228.42 1513.22 1228.46 1513.24C1228.52 1513.29 1228.51 1513.28 1228.39 1513.18C1228.15 1512.98 1227.78 1512.64 1227.27 1512.16C1226.24 1511.19 1224.99 1509.97 1223.63 1508.65C1222.34 1507.4 1220.92 1506.04 1219.76 1505.02C1219.21 1504.53 1218.5 1503.94 1217.79 1503.46C1217.48 1503.25 1216.81 1502.81 1215.95 1502.48C1215.52 1502.31 1214.67 1502.02 1213.55 1501.96C1212.41 1501.9 1210.36 1502.09 1208.49 1503.64L1217.71 1514.74ZM1218.26 1525.2C1219.11 1525.93 1220.55 1527.76 1220.28 1530.49L1205.92 1529.04C1205.58 1532.34 1207.28 1534.79 1208.82 1536.11L1218.26 1525.2ZM1213.1 1529.76C1220.31 1529.67 1220.31 1529.67 1220.31 1529.67C1220.31 1529.67 1220.31 1529.67 1220.31 1529.67C1220.31 1529.67 1220.31 1529.67 1220.31 1529.67C1220.31 1529.67 1220.31 1529.66 1220.31 1529.66C1220.31 1529.65 1220.31 1529.64 1220.31 1529.62C1220.31 1529.58 1220.31 1529.52 1220.31 1529.45C1220.31 1529.3 1220.31 1529.08 1220.3 1528.81C1220.3 1528.25 1220.29 1527.46 1220.28 1526.5C1220.26 1524.6 1220.23 1522.06 1220.22 1519.51C1220.2 1516.96 1220.2 1514.43 1220.21 1512.54C1220.21 1511.59 1220.22 1510.84 1220.24 1510.36C1220.25 1510.1 1220.25 1510 1220.25 1510C1220.25 1510.01 1220.25 1510.04 1220.24 1510.1C1220.24 1510.14 1220.23 1510.25 1220.21 1510.38C1220.19 1510.48 1220.14 1510.8 1220.02 1511.21C1219.97 1511.41 1219.84 1511.8 1219.62 1512.28C1219.47 1512.61 1218.92 1513.74 1217.71 1514.74L1208.49 1503.64C1207.27 1504.65 1206.72 1505.79 1206.56 1506.12C1206.34 1506.6 1206.21 1507.01 1206.15 1507.22C1206.03 1507.65 1205.97 1508.01 1205.95 1508.15C1205.89 1508.48 1205.87 1508.77 1205.86 1508.91C1205.84 1509.24 1205.82 1509.6 1205.81 1509.92C1205.79 1510.58 1205.78 1511.47 1205.77 1512.45C1205.76 1514.43 1205.77 1517.04 1205.79 1519.6C1205.8 1522.17 1205.82 1524.74 1205.84 1526.65C1205.85 1527.61 1205.86 1528.41 1205.87 1528.97C1205.87 1529.25 1205.88 1529.47 1205.88 1529.62C1205.88 1529.7 1205.88 1529.75 1205.88 1529.79C1205.88 1529.81 1205.88 1529.83 1205.88 1529.84C1205.88 1529.84 1205.88 1529.85 1205.88 1529.85C1205.88 1529.85 1205.88 1529.85 1205.88 1529.85C1205.88 1529.85 1205.88 1529.85 1205.88 1529.85C1205.88 1529.85 1205.88 1529.85 1213.1 1529.76Z" fill="black" mask="url(#path-58-outside-1)"/>
<path d="M1273.5 1485.89L1273.54 1485.89L1273.58 1485.9C1274.79 1486 1276.04 1485.83 1277.15 1485.37C1278.13 1484.97 1279.7 1484.02 1280.26 1482.11L1294.89 1432.18C1295.55 1429.93 1294.36 1428.15 1293.27 1427.27C1292.2 1426.41 1290.89 1426 1289.68 1425.9C1285.31 1425.5 1281.11 1425.09 1277.04 1424.69C1253.14 1422.34 1233.44 1420.41 1207.97 1425.01C1177.62 1430.5 1149.86 1440.07 1126.97 1453.01C1104.09 1465.94 1086.59 1481.94 1076.15 1499.85C1065.95 1517.33 1062.79 1536.09 1067.1 1554.56C1067.57 1556.58 1069.18 1557.59 1070.16 1558.02C1071.28 1558.5 1072.54 1558.67 1073.76 1558.57L1160.54 1551.19C1161.74 1551.09 1163.04 1550.7 1164.1 1549.88C1165.16 1549.06 1166.4 1547.4 1165.92 1545.19C1164.17 1536.99 1165.6 1528.62 1170.29 1520.58C1175.25 1512.07 1183.78 1504.13 1195.41 1497.56C1201.24 1494.27 1208.69 1490.81 1216.16 1488.11C1223.68 1485.39 1230.96 1483.54 1236.52 1483.27C1247.5 1482.74 1257.03 1483.91 1266.21 1485.03C1268.66 1485.33 1271.08 1485.63 1273.5 1485.89Z" fill="#BDDCD8" stroke="black" stroke-width="7.21676"/>
<path d="M1073.41 1501.48L1174.31 1519.47" stroke="black" stroke-width="7.21676"/>
<mask id="path-62-outside-2" maskUnits="userSpaceOnUse" x="1205.11" y="1498.6" width="109" height="69" fill="black">
<rect fill="white" x="1205.11" y="1498.6" width="109" height="69"/>
<path d="M1299.68 1540.09C1307.93 1544.86 1308.23 1552.41 1300.35 1556.96C1292.46 1561.51 1279.38 1561.34 1271.13 1556.58C1264.67 1552.85 1228.84 1522.07 1213.56 1508.85C1212.03 1507.53 1214.73 1505.97 1217.02 1506.85C1239.91 1515.68 1293.23 1536.37 1299.68 1540.09Z"/>
</mask>
<path d="M1299.68 1540.09C1307.93 1544.86 1308.23 1552.41 1300.35 1556.96C1292.46 1561.51 1279.38 1561.34 1271.13 1556.58C1264.67 1552.85 1228.84 1522.07 1213.56 1508.85C1212.03 1507.53 1214.73 1505.97 1217.02 1506.85C1239.91 1515.68 1293.23 1536.37 1299.68 1540.09Z" fill="#BDDCD8"/>
<path d="M1299.68 1540.09L1296.07 1546.34L1299.68 1540.09ZM1271.13 1556.58L1267.52 1562.83L1271.13 1556.58ZM1213.56 1508.85L1208.84 1514.31L1213.56 1508.85ZM1217.02 1506.85L1219.62 1500.12L1217.02 1506.85ZM1296.07 1546.34C1298.99 1548.02 1298.87 1549.22 1298.85 1548.89C1298.85 1548.76 1298.91 1548.79 1298.73 1549.06C1298.52 1549.38 1297.97 1550 1296.74 1550.71L1303.95 1563.21C1309.32 1560.11 1313.54 1554.95 1313.28 1548.32C1313.02 1541.88 1308.63 1536.93 1303.29 1533.84L1296.07 1546.34ZM1296.74 1550.71C1294.21 1552.17 1290.34 1553.1 1285.97 1553.05C1281.62 1552.99 1277.56 1551.96 1274.74 1550.33L1267.52 1562.83C1272.95 1565.96 1279.55 1567.4 1285.78 1567.48C1291.99 1567.56 1298.6 1566.3 1303.95 1563.21L1296.74 1550.71ZM1274.74 1550.33C1273.71 1549.73 1270.73 1547.52 1266.08 1543.78C1261.63 1540.21 1256.12 1535.64 1250.3 1530.75C1238.66 1520.97 1225.91 1509.99 1218.28 1503.4L1208.84 1514.31C1216.49 1520.93 1229.29 1531.95 1241.01 1541.8C1246.86 1546.72 1252.47 1551.37 1257.04 1555.04C1261.4 1558.53 1265.32 1561.56 1267.52 1562.83L1274.74 1550.33ZM1214.43 1513.59C1225.86 1518 1244.89 1525.36 1261.85 1532.09C1270.34 1535.46 1278.28 1538.65 1284.49 1541.23C1290.96 1543.92 1294.97 1545.7 1296.07 1546.34L1303.29 1533.84C1301.17 1532.62 1296.1 1530.42 1290.03 1527.9C1283.71 1525.28 1275.68 1522.05 1267.17 1518.68C1250.14 1511.92 1231.07 1504.53 1219.62 1500.12L1214.43 1513.59ZM1218.28 1503.4C1219.29 1504.27 1220.87 1506.48 1220.16 1509.5C1219.6 1511.91 1217.96 1512.99 1217.47 1513.28C1216.35 1513.92 1215.31 1513.93 1214.43 1513.59L1219.62 1500.12C1216.44 1498.9 1212.91 1499.24 1210.25 1500.78C1208.98 1501.51 1206.81 1503.18 1206.1 1506.22C1205.25 1509.88 1207.07 1512.78 1208.84 1514.31L1218.28 1503.4Z" fill="black" mask="url(#path-62-outside-2)"/>
<path d="M1279.49 1485.84L1296.33 1428.11L1298.73 1452.17L1281.89 1502.68L1277.08 1507.49V1485.84H1279.49Z" fill="black"/>
</svg>
