<svg width="446" height="302" viewBox="0 0 446 302" fill="none" xmlns="http://www.w3.org/2000/svg">
<rect width="253.153" height="253.153" rx="7.81338" transform="matrix(0.866025 0.5 -0.866025 0.5 222.964 48.0308)" fill="black"/>
<path d="M247.61 225.98L262.496 217.385L270.51 222.297C274.453 224.714 277.279 227.664 278.729 230.877L286.239 247.525C287.371 250.034 291.638 251.626 296.065 251.191L305.48 252.08V262.724L290.593 271.319L283.754 267.137C277.224 263.209 272.602 258.356 270.354 253.068L267.513 246.38C264.231 238.658 257.348 231.602 247.61 225.98Z" fill="#55A398" stroke="black" stroke-width="0.781338" stroke-linecap="round" stroke-linejoin="round"/>
<path d="M253.351 218.857L268.238 210.262C277.438 215.901 284.033 222.787 287.415 230.283L289.694 235.335C292.509 241.575 297.922 247.323 305.461 252.08L290.567 260.659C283.334 256.308 278.216 250.934 275.727 245.077L273.254 239.257C269.972 231.535 263.089 224.479 253.351 218.857Z" fill="#BDDCD8" stroke="black" stroke-width="0.781338" stroke-linecap="round" stroke-linejoin="round"/>
<path d="M290.484 260.659V271.011" stroke="black" stroke-width="0.781338"/>
<path d="M317.175 185.726L332.061 177.131L340.075 182.042C344.018 184.459 346.844 187.409 348.293 190.622L355.804 207.27C356.936 209.779 361.203 211.371 365.63 210.937L375.045 211.826V222.469L360.158 231.064L353.319 226.883C346.789 222.954 342.167 218.101 339.919 212.813L337.077 206.125C333.796 198.403 326.913 191.348 317.175 185.726Z" fill="#55A398" stroke="black" stroke-width="0.781338" stroke-linecap="round" stroke-linejoin="round"/>
<path d="M322.916 178.602L337.803 170.008C347.003 175.647 353.598 182.532 356.98 190.029L359.259 195.08C362.074 201.32 367.487 207.069 375.026 211.826L360.132 220.404C352.899 216.053 347.781 210.679 345.292 204.822L342.819 199.002C339.537 191.28 332.654 184.225 322.916 178.602Z" fill="#BDDCD8" stroke="black" stroke-width="0.781338" stroke-linecap="round" stroke-linejoin="round"/>
<path d="M360.049 220.404V230.757" stroke="black" stroke-width="0.781338"/>
<path d="M282.393 205.658L297.279 197.063L305.293 201.975C309.236 204.391 312.062 207.342 313.511 210.554L321.022 227.202C322.153 229.711 326.421 231.304 330.847 230.869L340.262 231.758V242.401L325.376 250.996L318.537 246.815C312.006 242.886 307.384 238.033 305.137 232.745L302.295 226.057C299.014 218.335 292.13 211.28 282.393 205.658Z" fill="#55A398" stroke="black" stroke-width="0.781338" stroke-linecap="round" stroke-linejoin="round"/>
<path d="M288.134 198.535L303.02 189.94C312.221 195.579 318.816 202.464 322.198 209.961L324.477 215.012C327.292 221.252 332.705 227.001 340.244 231.758L325.35 240.336C318.117 235.986 312.998 230.611 310.51 224.754L308.036 218.934C304.755 211.212 297.872 204.157 288.134 198.535Z" fill="#BDDCD8" stroke="black" stroke-width="0.781338" stroke-linecap="round" stroke-linejoin="round"/>
<path d="M325.267 240.336V250.689" stroke="black" stroke-width="0.781338"/>
<path d="M351.958 165.403L366.845 156.809L374.859 161.72C378.802 164.137 381.628 167.087 383.077 170.3L390.588 186.948C391.719 189.457 395.987 191.049 400.413 190.615L409.828 191.503V202.147L394.942 210.742L388.103 206.56C381.572 202.632 376.95 197.779 374.703 192.491L371.861 185.803C368.58 178.081 361.696 171.025 351.958 165.403Z" fill="#55A398" stroke="black" stroke-width="0.781338" stroke-linecap="round" stroke-linejoin="round"/>
<path d="M357.7 158.28L372.586 149.685C381.787 155.324 388.382 162.21 391.764 169.707L394.043 174.758C396.858 180.998 402.271 186.746 409.81 191.503L394.916 200.082C387.683 195.731 382.564 190.357 380.076 184.5L377.602 178.68C374.321 170.958 367.438 163.902 357.7 158.28Z" fill="#BDDCD8" stroke="black" stroke-width="0.781338" stroke-linecap="round" stroke-linejoin="round"/>
<path d="M394.833 200.082V210.435" stroke="black" stroke-width="0.781338"/>
<path d="M217.517 239.574L227.611 237.708L235.625 242.62C239.567 245.036 242.394 247.987 243.843 251.199L251.353 267.848C252.485 270.356 256.752 271.949 261.179 271.514L270.594 272.403V283.047L255.708 291.641L248.869 287.46C242.338 283.532 237.716 278.679 235.469 273.39L232.627 266.702C229.913 260.316 224.735 254.385 217.517 249.344V239.574Z" fill="#55A398" stroke="black" stroke-width="0.781338" stroke-linecap="round" stroke-linejoin="round"/>
<path d="M218.466 239.18L233.352 230.585C242.553 236.224 249.148 243.109 252.53 250.606L254.809 255.658C257.624 261.898 263.037 267.646 270.576 272.403L255.682 280.981C248.449 276.631 243.33 271.256 240.842 265.4L238.368 259.579C235.087 251.857 228.204 244.802 218.466 239.18Z" fill="#BDDCD8" stroke="black" stroke-width="0.781338" stroke-linecap="round" stroke-linejoin="round"/>
<path d="M255.599 280.981V291.334" stroke="black" stroke-width="0.781338"/>
<path d="M387.133 145.08L402.02 136.485L410.034 141.397C413.976 143.814 416.803 146.764 418.252 149.977L425.762 166.625C426.894 169.134 431.161 170.726 435.588 170.291L445.003 171.18V181.824L430.117 190.419L423.278 186.237C416.747 182.309 412.125 177.456 409.878 172.167L407.036 165.48C403.755 157.758 396.871 150.702 387.133 145.08Z" fill="#55A398" stroke="black" stroke-width="0.781338" stroke-linecap="round" stroke-linejoin="round"/>
<path d="M392.875 137.957L407.761 129.362C416.962 135.001 423.557 141.886 426.939 149.383L429.218 154.435C432.033 160.675 437.445 166.423 444.985 171.18L430.09 179.759C422.858 175.408 417.739 170.034 415.25 164.177L412.777 158.356C409.496 150.634 402.612 143.579 392.875 137.957Z" fill="#BDDCD8" stroke="black" stroke-width="0.781338" stroke-linecap="round" stroke-linejoin="round"/>
<path d="M430.007 179.758V190.111" stroke="black" stroke-width="0.781338"/>
<path d="M198.394 225.98L183.508 217.385L175.494 222.297C171.551 224.713 168.725 227.664 167.275 230.877L159.765 247.525C158.633 250.034 154.366 251.626 149.939 251.191L140.524 252.08V262.724L155.411 271.319L162.249 267.137C168.78 263.209 173.402 258.356 175.649 253.067L178.491 246.379C181.773 238.657 188.656 231.602 198.394 225.98Z" fill="#55A398" stroke="black" stroke-width="0.781338" stroke-linecap="round" stroke-linejoin="round"/>
<path d="M192.653 218.857L177.766 210.262C168.566 215.901 161.97 222.786 158.588 230.283L156.31 235.335C153.495 241.575 148.082 247.323 140.543 252.08L155.437 260.659C162.67 256.308 167.788 250.933 170.277 245.077L172.75 239.256C176.031 231.534 182.915 224.479 192.653 218.857Z" fill="#BDDCD8" stroke="black" stroke-width="0.781338" stroke-linecap="round" stroke-linejoin="round"/>
<path d="M155.52 260.658V271.011" stroke="black" stroke-width="0.781338"/>
<path d="M128.828 185.726L113.942 177.131L105.928 182.043C101.985 184.459 99.1588 187.41 97.7095 190.622L90.199 207.27C89.0672 209.779 84.8001 211.372 80.3734 210.937L70.9582 211.826V222.469L85.8447 231.064L92.6835 226.883C99.2144 222.954 103.836 218.101 106.084 212.813L108.925 206.125C112.207 198.403 119.09 191.348 128.828 185.726Z" fill="#55A398" stroke="black" stroke-width="0.781338" stroke-linecap="round" stroke-linejoin="round"/>
<path d="M123.087 178.603L108.2 170.008C98.9997 175.647 92.4046 182.532 89.0225 190.029L86.7436 195.08C83.9286 201.32 78.5161 207.069 70.9767 211.826L85.871 220.404C93.1037 216.053 98.2223 210.679 100.711 204.822L103.184 199.002C106.466 191.28 113.349 184.225 123.087 178.603Z" fill="#BDDCD8" stroke="black" stroke-width="0.781338" stroke-linecap="round" stroke-linejoin="round"/>
<path d="M85.9541 220.404V230.757" stroke="black" stroke-width="0.781338"/>
<path d="M163.611 205.658L148.725 197.063L140.711 201.975C136.768 204.391 133.942 207.342 132.493 210.554L124.982 227.202C123.85 229.711 119.583 231.304 115.157 230.869L105.741 231.758V242.401L120.628 250.996L127.467 246.815C133.998 242.886 138.62 238.033 140.867 232.745L143.709 226.057C146.99 218.335 153.873 211.28 163.611 205.658Z" fill="#55A398" stroke="black" stroke-width="0.781338" stroke-linecap="round" stroke-linejoin="round"/>
<path d="M157.87 198.535L142.984 189.94C133.783 195.579 127.188 202.464 123.806 209.961L121.527 215.012C118.712 221.252 113.299 227.001 105.76 231.758L120.654 240.336C127.887 235.986 133.006 230.611 135.494 224.754L137.967 218.934C141.249 211.212 148.132 204.157 157.87 198.535Z" fill="#BDDCD8" stroke="black" stroke-width="0.781338" stroke-linecap="round" stroke-linejoin="round"/>
<path d="M120.737 240.336V250.689" stroke="black" stroke-width="0.781338"/>
<path d="M94.0454 165.403L79.1589 156.809L71.1451 161.72C67.2023 164.137 64.3761 167.087 62.9268 170.3L55.4163 186.948C54.2845 189.457 50.0174 191.049 45.5907 190.615L36.1755 191.503V202.147L51.062 210.742L57.9008 206.56C64.4317 202.632 69.0537 197.779 71.3009 192.491L74.1427 185.803C77.424 178.081 84.3075 171.025 94.0454 165.403Z" fill="#55A398" stroke="black" stroke-width="0.781338" stroke-linecap="round" stroke-linejoin="round"/>
<path d="M88.3042 158.28L73.4177 149.685C64.217 155.324 57.6219 162.21 54.2398 169.707L51.9609 174.758C49.1459 180.998 43.7334 186.746 36.194 191.503L51.0883 200.082C58.321 195.731 63.4396 190.357 65.9283 184.5L68.4015 178.68C71.6828 170.958 78.5663 163.902 88.3042 158.28Z" fill="#BDDCD8" stroke="black" stroke-width="0.781338" stroke-linecap="round" stroke-linejoin="round"/>
<path d="M51.1714 200.082V210.434" stroke="black" stroke-width="0.781338"/>
<path d="M228.487 239.574L218.393 237.708L210.379 242.62C206.436 245.036 203.61 247.987 202.161 251.199L194.65 267.848C193.519 270.356 189.252 271.949 184.825 271.514L175.41 272.403V283.047L190.296 291.641L197.135 287.46C203.666 283.532 208.288 278.679 210.535 273.39L213.377 266.702C216.091 260.316 221.269 254.385 228.487 249.344V239.574Z" fill="#55A398" stroke="black" stroke-width="0.781338" stroke-linecap="round" stroke-linejoin="round"/>
<path d="M227.538 239.18L212.652 230.585C203.451 236.224 196.856 243.109 193.474 250.606L191.195 255.658C188.38 261.898 182.967 267.646 175.428 272.403L190.322 280.981C197.555 276.631 202.673 271.256 205.162 265.4L207.635 259.579C210.917 251.857 217.8 244.802 227.538 239.18Z" fill="#BDDCD8" stroke="black" stroke-width="0.781338" stroke-linecap="round" stroke-linejoin="round"/>
<path d="M190.405 280.981V291.334" stroke="black" stroke-width="0.781338"/>
<path d="M58.8716 145.08L43.9851 136.486L35.9713 141.397C32.0285 143.814 29.2023 146.764 27.7529 149.977L20.2425 166.625C19.1107 169.134 14.8436 170.726 10.4168 170.292L1.00168 171.18V181.824L15.8882 190.419L22.727 186.237C29.2579 182.309 33.8798 177.456 36.127 172.168L38.9689 165.48C42.2502 157.758 49.1337 150.703 58.8716 145.08Z" fill="#55A398" stroke="black" stroke-width="0.781338" stroke-linecap="round" stroke-linejoin="round"/>
<path d="M53.1304 137.957L38.2439 129.362C29.0432 135.002 22.448 141.887 19.066 149.384L16.787 154.435C13.9721 160.675 8.55957 166.423 1.02015 171.18L15.9144 179.759C23.1471 175.408 28.2658 170.034 30.7545 164.177L33.2277 158.357C36.509 150.635 43.3925 143.579 53.1304 137.957Z" fill="#BDDCD8" stroke="black" stroke-width="0.781338" stroke-linecap="round" stroke-linejoin="round"/>
<path d="M15.9976 179.759V190.111" stroke="black" stroke-width="0.781338"/>
<rect width="253.153" height="253.153" rx="7.81338" transform="matrix(0.866025 0.5 -0.866025 0.5 222.987 3.90771)" fill="#BDDCD8" stroke="black" stroke-width="0.781338" stroke-linecap="round" stroke-linejoin="round"/>
<rect width="26.4883" height="64.4024" transform="matrix(0.866025 -0.5 0.866025 0.5 20.9321 126.586)" stroke="black" stroke-width="0.781338" stroke-linecap="round" stroke-linejoin="round"/>
<rect width="6.15199" height="64.4024" transform="matrix(0.866025 -0.5 0.866025 0.5 38.5195 116.415)" stroke="black" stroke-width="0.781338" stroke-linecap="round" stroke-linejoin="round"/>
<rect width="26.4883" height="14.9934" transform="matrix(0.866025 -0.5 0.866025 0.5 63.7217 151.29)" fill="#FFE598" stroke="black" stroke-width="0.781338" stroke-linecap="round" stroke-linejoin="round"/>
<rect width="4.1372" height="64.4373" transform="matrix(0.866025 -0.5 0.866025 0.5 92.8623 84.7422)" fill="#FFE598" stroke="black" stroke-width="0.781338" stroke-linecap="round" stroke-linejoin="round"/>
<rect width="230.389" height="58.1521" transform="matrix(0.866025 0.5 -0.866025 0.5 217.07 15.387)" stroke="black" stroke-width="0.781338" stroke-linecap="round" stroke-linejoin="round"/>
<rect width="149.851" height="58.1521" transform="matrix(0.866025 0.5 -0.866025 0.5 286.818 55.656)" stroke="black" stroke-width="0.781338" stroke-linecap="round" stroke-linejoin="round"/>
<rect width="69.5302" height="58.1521" transform="matrix(0.866025 0.5 -0.866025 0.5 356.379 95.8167)" stroke="black" stroke-width="0.781338" stroke-linecap="round" stroke-linejoin="round"/>
<rect width="230.389" height="64.3379" transform="matrix(0.866025 0.5 -0.866025 0.5 222.427 12.2941)" stroke="black" stroke-width="0.781338" stroke-linecap="round" stroke-linejoin="round"/>
<circle r="11.6324" transform="matrix(0.866025 -0.5 0.866025 0.5 334.196 167.893)" fill="#FFE598" stroke="black" stroke-width="0.781338" stroke-linecap="round" stroke-linejoin="round"/>
<circle r="4.74792" transform="matrix(0.866025 -0.5 0.866025 0.5 334.196 167.893)" fill="#FAC864" stroke="black" stroke-width="0.781338" stroke-linecap="round" stroke-linejoin="round"/>
<rect width="253.153" height="253.153" rx="7.81338" transform="matrix(0.866025 0.5 -0.866025 0.5 222.964 0.000976562)" stroke="black" stroke-width="0.781338" stroke-linecap="round" stroke-linejoin="round"/>
<path d="M318.288 183.682L315.104 185.521L127.637 77.2868" stroke="black" stroke-width="0.781338" stroke-linecap="round" stroke-linejoin="round"/>
<path d="M318.288 183.682L130.822 75.4482L127.637 77.2868" stroke="black" stroke-width="0.781338" stroke-linecap="round" stroke-linejoin="round" stroke-dasharray="3.91 3.91"/>
<path d="M315.104 142.427L318.288 140.589L318.288 183.615L315.089 185.569L127.637 77.3532L127.637 34.1935L315.104 142.427Z" fill="#FFE598" fill-opacity="0.3"/>
<rect width="216.468" height="3.67726" transform="matrix(0.866025 0.5 -0.866025 0.5 130.822 32.021)" fill="#55A398" stroke="black" stroke-width="0.781338" stroke-linecap="round" stroke-linejoin="round"/>
<rect width="150.306" height="91.832" transform="matrix(0.866025 0.5 -0.866025 0.5 171.784 121.197)" stroke="black" stroke-width="0.781338" stroke-linecap="round" stroke-linejoin="round"/>
<path d="M294.563 176.583L294.564 196.271L222.895 237.649L100.027 166.775L100.026 147.087L294.563 176.583Z" fill="#FAC864" stroke="black" stroke-width="0.781338" stroke-linecap="round" stroke-linejoin="round"/>
<path d="M222.893 217.994L222.893 237.527" stroke="black" stroke-width="0.781338"/>
<rect width="141.793" height="82.7573" transform="matrix(0.866025 0.5 -0.866025 0.5 171.77 105.654)" fill="#FFE598" stroke="black" stroke-width="0.781338" stroke-linecap="round" stroke-linejoin="round"/>
<rect width="125.988" height="67.4454" transform="matrix(0.866025 0.5 -0.866025 0.5 172.194 113.557)" stroke="black" stroke-width="0.781338" stroke-linecap="round" stroke-linejoin="round"/>
<path d="M284.088 133.689L293.127 135.302L302.33 144.221L302.33 153.9C302.385 156.146 300.491 160.619 293.127 160.923C285.764 152.117 284.033 145.55 284.088 143.368L284.088 133.689Z" fill="#FFE598" fill-opacity="0.4" stroke="black" stroke-width="0.700438" stroke-linecap="round" stroke-linejoin="round"/>
<path d="M139.997 51.6375L149.037 53.2507L158.24 62.17L158.24 71.8491C158.294 74.0949 156.4 78.5682 149.037 78.8719C141.673 70.0658 139.942 63.4992 139.997 61.3166L139.997 51.6375Z" fill="#FFE598" fill-opacity="0.4" stroke="black" stroke-width="0.700438" stroke-linecap="round" stroke-linejoin="round"/>
<path d="M211.042 91.6624L220.082 93.2756L229.284 102.195L229.284 111.874C229.339 114.12 227.445 118.593 220.082 118.897C212.718 110.091 210.987 103.524 211.042 101.342L211.042 91.6624Z" fill="#FFE598" fill-opacity="0.4" stroke="black" stroke-width="0.700438" stroke-linecap="round" stroke-linejoin="round"/>
<path d="M175.041 141.951L170.52 139.341L158.224 146.44L155.183 144.684L167.479 137.585L163.018 135.01L165.482 133.588L177.504 140.529L175.041 141.951ZM183.373 152.825C181.92 153.664 180.39 154.251 178.781 154.586C177.173 154.922 175.592 154.984 174.037 154.774C172.49 154.567 171.098 154.106 169.861 153.392C168.638 152.686 167.84 151.886 167.469 150.993C167.097 150.099 167.191 149.186 167.752 148.254C168.32 147.318 169.31 146.438 170.722 145.614L171.452 145.193C172.905 144.354 174.443 143.767 176.065 143.432C177.7 143.096 179.288 143.034 180.829 143.244C182.383 143.455 183.775 143.915 185.005 144.625C186.235 145.336 187.029 146.137 187.387 147.031C187.759 147.924 187.651 148.841 187.063 149.781C186.489 150.722 185.478 151.609 184.032 152.444L183.373 152.825ZM180.961 150.659C182.508 149.766 183.407 148.927 183.657 148.143C183.907 147.359 183.519 146.67 182.491 146.077C181.471 145.488 180.285 145.263 178.933 145.404C177.588 145.54 176.146 146.05 174.605 146.931L173.885 147.347C172.378 148.217 171.486 149.052 171.209 149.852C170.932 150.652 171.314 151.352 172.354 151.953C173.375 152.542 174.558 152.764 175.902 152.62C177.254 152.472 178.7 151.957 180.241 151.075L180.961 150.659ZM181.772 160.035L178.731 158.279L193.49 149.758L196.531 151.514L181.772 160.035ZM207.702 160.808L203.181 158.197L190.885 165.296L187.844 163.541L200.139 156.442L195.679 153.867L198.143 152.444L210.165 159.385L207.702 160.808ZM206.424 170.043L220.869 165.566L224.255 167.52L204.356 173.074L201.184 171.243L210.824 159.766L214.199 161.715L206.424 170.043ZM229.627 170.622L222.714 178.991L237.19 174.988L241.183 177.294L226.424 185.815L223.373 184.054L227.408 181.724L234.676 177.879L219.693 181.929L217.605 180.724L224.62 172.085L217.97 176.276L213.936 178.605L210.895 176.849L225.654 168.328L229.627 170.622Z" fill="black"/>
<path d="M321.197 128.602L321.197 113.95L407.857 116.444L407.857 130.826L366.453 154.73L321.197 128.602Z" fill="#FAC864" stroke="black" stroke-width="0.781338" stroke-linecap="round" stroke-linejoin="round"/>
<path d="M321.199 122.002L366.455 148.131L407.859 124.226" stroke="black" stroke-width="0.781338" stroke-linecap="round" stroke-linejoin="round"/>
<rect width="47.8098" height="52.257" transform="matrix(0.866025 -0.5 0.866025 0.5 321.199 113.726)" fill="#FFE598" stroke="black" stroke-width="0.781338" stroke-linecap="round" stroke-linejoin="round"/>
<rect width="38.6062" height="42.1973" transform="matrix(0.866025 -0.5 0.866025 0.5 329.539 113.94)" fill="#FFE598" stroke="black" stroke-width="0.781338" stroke-linecap="round" stroke-linejoin="round"/>
<path d="M360.094 113.942C360.559 114.266 360.771 114.607 360.729 114.964C360.685 115.321 360.388 115.657 359.84 115.974C359.456 116.195 359.028 116.338 358.554 116.403C358.08 116.466 357.596 116.446 357.103 116.344C356.609 116.242 356.138 116.066 355.688 115.814L355.239 115.554C354.785 115.292 354.465 115.015 354.28 114.722C354.095 114.429 354.059 114.143 354.171 113.861C354.286 113.579 354.54 113.324 354.935 113.096C355.466 112.79 356.037 112.626 356.65 112.606C357.263 112.585 357.859 112.712 358.438 112.986L357.605 113.466C357.22 113.29 356.869 113.204 356.554 113.211C356.239 113.215 355.925 113.307 355.612 113.487C355.249 113.697 355.102 113.936 355.173 114.203C355.243 114.468 355.533 114.749 356.042 115.048L356.468 115.295C356.988 115.595 357.477 115.77 357.936 115.821C358.396 115.871 358.806 115.792 359.165 115.585C359.494 115.395 359.667 115.21 359.684 115.029C359.702 114.849 359.561 114.646 359.261 114.422L360.094 113.942ZM363.971 110.879C364.443 111.151 364.776 111.437 364.969 111.738C365.161 112.036 365.201 112.329 365.088 112.615C364.976 112.899 364.723 113.155 364.328 113.382C363.938 113.608 363.495 113.754 362.999 113.821C362.504 113.886 361.996 113.865 361.476 113.758C360.958 113.65 360.468 113.464 360.005 113.199L359.734 113.043C359.265 112.772 358.933 112.485 358.739 112.182C358.547 111.878 358.508 111.584 358.62 111.301C358.732 111.014 358.985 110.758 359.377 110.531C359.769 110.305 360.211 110.159 360.702 110.094C361.194 110.027 361.699 110.048 362.219 110.157C362.737 110.266 363.232 110.454 363.703 110.724L363.971 110.879ZM362.884 111.217C362.351 110.909 361.84 110.731 361.353 110.684C360.869 110.636 360.441 110.718 360.071 110.932C359.71 111.141 359.569 111.386 359.648 111.669C359.727 111.949 360.024 112.239 360.537 112.541L360.815 112.701C361.344 113.007 361.855 113.183 362.348 113.232C362.844 113.279 363.275 113.197 363.641 112.986C364.011 112.772 364.154 112.526 364.07 112.249C363.989 111.97 363.677 111.675 363.135 111.362L362.884 111.217ZM366.844 109.865L365.108 110.867L364.46 110.493L366.196 109.491L366.844 109.865ZM360.527 123.378C360.384 123.296 360.216 123.267 360.022 123.293C359.83 123.317 359.569 123.391 359.238 123.516C358.908 123.64 358.607 123.73 358.336 123.785C357.741 123.904 357.26 123.858 356.892 123.646C356.583 123.467 356.455 123.244 356.508 122.974C356.561 122.704 356.788 122.454 357.189 122.222C357.617 121.975 358.067 121.837 358.541 121.808C359.017 121.777 359.424 121.859 359.761 122.054L358.957 122.518C358.803 122.429 358.618 122.388 358.402 122.396C358.184 122.402 357.98 122.46 357.791 122.569C357.614 122.671 357.511 122.778 357.48 122.89C357.451 123.001 357.505 123.095 357.642 123.174C357.765 123.245 357.913 123.271 358.085 123.251C358.257 123.23 358.536 123.149 358.921 123.008C359.305 122.866 359.634 122.771 359.909 122.724C360.185 122.674 360.433 122.663 360.653 122.691C360.876 122.718 361.083 122.787 361.274 122.897C361.596 123.083 361.724 123.311 361.658 123.581C361.59 123.849 361.339 124.108 360.908 124.357C360.615 124.527 360.301 124.647 359.966 124.718C359.631 124.789 359.307 124.808 358.994 124.775C358.681 124.742 358.418 124.664 358.204 124.541L358.984 124.09C359.184 124.193 359.403 124.236 359.638 124.22C359.872 124.202 360.098 124.13 360.316 124.004C360.527 123.882 360.649 123.766 360.68 123.657C360.708 123.546 360.658 123.453 360.527 123.378ZM364.633 122.207C364.124 122.501 363.551 122.647 362.914 122.646C362.277 122.642 361.692 122.486 361.159 122.178L361.06 122.121C360.703 121.915 360.453 121.691 360.309 121.451C360.166 121.208 360.141 120.969 360.233 120.735C360.326 120.501 360.525 120.296 360.832 120.119C361.319 119.838 361.85 119.711 362.425 119.737C363.002 119.763 363.575 119.94 364.143 120.268L364.467 120.455L362.131 121.804C362.45 121.961 362.782 122.039 363.125 122.039C363.471 122.037 363.775 121.961 364.038 121.81C364.406 121.597 364.557 121.338 364.491 121.033L365.337 121.022C365.407 121.228 365.382 121.434 365.261 121.642C365.139 121.847 364.93 122.035 364.633 122.207ZM361.473 120.493C361.252 120.62 361.151 120.768 361.169 120.936C361.189 121.102 361.317 121.276 361.555 121.457L363.086 120.573L363.026 120.539C362.74 120.394 362.465 120.318 362.203 120.312C361.939 120.304 361.695 120.365 361.473 120.493ZM363.796 118.484L364.233 118.709C364.178 118.372 364.365 118.079 364.795 117.831C365.539 117.401 366.345 117.428 367.211 117.913L369.574 119.277L368.771 119.741L366.454 118.403C366.227 118.272 366.01 118.204 365.803 118.199C365.596 118.192 365.381 118.252 365.158 118.381C364.834 118.568 364.74 118.791 364.874 119.052L367.419 120.522L366.616 120.985L363.04 118.921L363.796 118.484ZM371.428 117.085C371.285 117.002 371.117 116.973 370.923 116.999C370.731 117.023 370.47 117.098 370.139 117.222C369.809 117.347 369.508 117.437 369.237 117.491C368.642 117.611 368.16 117.564 367.793 117.352C367.484 117.174 367.356 116.95 367.409 116.68C367.462 116.411 367.689 116.16 368.09 115.928C368.517 115.682 368.968 115.544 369.442 115.514C369.918 115.484 370.324 115.566 370.661 115.76L369.858 116.224C369.704 116.135 369.519 116.094 369.303 116.102C369.085 116.108 368.881 116.166 368.692 116.276C368.515 116.377 368.412 116.484 368.381 116.596C368.352 116.707 368.406 116.802 368.543 116.881C368.666 116.952 368.814 116.977 368.986 116.957C369.158 116.937 369.436 116.856 369.822 116.715C370.205 116.572 370.535 116.477 370.81 116.43C371.086 116.381 371.334 116.37 371.554 116.398C371.776 116.425 371.984 116.493 372.175 116.604C372.497 116.79 372.625 117.017 372.559 117.287C372.49 117.556 372.24 117.814 371.808 118.064C371.515 118.233 371.201 118.353 370.866 118.424C370.531 118.496 370.208 118.515 369.895 118.482C369.582 118.449 369.318 118.37 369.105 118.247L369.885 117.797C370.085 117.9 370.303 117.943 370.539 117.926C370.773 117.909 370.999 117.837 371.217 117.711C371.428 117.589 371.55 117.473 371.58 117.363C371.609 117.253 371.558 117.16 371.428 117.085ZM374.747 116.291L373.944 116.755L370.367 114.69L371.17 114.226L374.747 116.291ZM369.389 114.182C369.266 114.111 369.202 114.03 369.197 113.938C369.195 113.845 369.267 113.757 369.412 113.673C369.558 113.589 369.711 113.547 369.872 113.549C370.032 113.55 370.175 113.586 370.298 113.657C370.419 113.727 370.481 113.809 370.483 113.902C370.483 113.993 370.41 114.081 370.265 114.165C370.119 114.249 369.967 114.291 369.809 114.291C369.65 114.288 369.51 114.252 369.389 114.182ZM372.793 113.289L373.23 113.514C373.175 113.177 373.362 112.885 373.792 112.637C374.536 112.207 375.342 112.234 376.208 112.719L378.571 114.083L377.768 114.547L375.451 113.209C375.224 113.078 375.007 113.01 374.8 113.005C374.593 112.997 374.378 113.058 374.155 113.186C373.831 113.373 373.737 113.597 373.871 113.858L376.416 115.327L375.613 115.791L372.036 113.726L372.793 113.289ZM377.437 112.642C376.882 112.322 376.569 111.991 376.499 111.65C376.428 111.306 376.609 111.01 377.041 110.761C377.448 110.525 377.911 110.422 378.429 110.452L378.105 110.223L378.829 109.805L382.296 111.806C382.765 112.077 382.989 112.376 382.967 112.701C382.947 113.026 382.689 113.331 382.194 113.617C381.931 113.769 381.62 113.885 381.258 113.967C380.901 114.048 380.57 114.075 380.263 114.049L380.161 113.551C380.701 113.577 381.151 113.486 381.513 113.278C381.779 113.124 381.917 112.96 381.926 112.787C381.937 112.616 381.802 112.449 381.523 112.287L381.281 112.148C381.308 112.43 381.128 112.683 380.743 112.906C380.324 113.147 379.815 113.249 379.216 113.211C378.618 113.172 378.026 112.982 377.437 112.642ZM378.307 112.221C378.666 112.428 379.022 112.549 379.374 112.585C379.727 112.618 380.033 112.56 380.293 112.409C380.617 112.222 380.718 112.004 380.597 111.753L379.024 110.845C378.601 110.776 378.227 110.835 377.903 111.022C377.639 111.175 377.538 111.354 377.599 111.56C377.663 111.765 377.899 111.985 378.307 112.221Z" fill="black"/>
<path d="M251.239 88.3472L251.24 73.6956L337.9 76.1889L337.9 90.5709L296.495 114.476L251.239 88.3472Z" fill="#FAC864" stroke="black" stroke-width="0.781338" stroke-linecap="round" stroke-linejoin="round"/>
<rect width="47.8098" height="52.257" transform="matrix(0.866025 -0.5 0.866025 0.5 251.241 73.4714)" fill="#FFE598" stroke="black" stroke-width="0.781338" stroke-linecap="round" stroke-linejoin="round"/>
<rect width="38.6062" height="42.1973" transform="matrix(0.866025 -0.5 0.866025 0.5 259.723 73.2375)" fill="#FFE598" stroke="black" stroke-width="0.781338" stroke-linecap="round" stroke-linejoin="round"/>
<path d="M290.155 75.6302L289.318 76.113L283.759 75.3802L287.173 77.3515L286.337 77.8343L281.524 75.0558L282.361 74.573L287.94 75.3096L284.512 73.3307L285.342 72.8517L290.155 75.6302ZM292.703 71.5255C293.174 71.7977 293.507 72.084 293.701 72.3842C293.893 72.6832 293.932 72.9758 293.82 73.262C293.708 73.5457 293.454 73.8014 293.06 74.0292C292.67 74.2543 292.227 74.4006 291.731 74.4681C291.235 74.533 290.727 74.512 290.207 74.4051C289.69 74.297 289.199 74.1106 288.737 73.846L288.466 73.6895C287.996 73.4185 287.665 73.1316 287.471 72.8288C287.279 72.5248 287.239 72.2309 287.352 71.9472C287.464 71.661 287.716 71.4046 288.109 71.1782C288.501 70.9517 288.943 70.806 289.434 70.7412C289.925 70.6737 290.431 70.6947 290.951 70.8041C291.469 70.9123 291.964 71.1012 292.435 71.3709L292.703 71.5255ZM291.615 71.8632C291.082 71.5554 290.572 71.3779 290.085 71.3308C289.6 71.2825 289.173 71.3652 288.803 71.5789C288.441 71.7875 288.3 72.0331 288.38 72.3155C288.459 72.5954 288.755 72.8861 289.269 73.1876L289.546 73.3479C290.075 73.6532 290.586 73.8301 291.08 73.8784C291.576 73.9255 292.007 73.8434 292.372 73.6322C292.743 73.4185 292.886 73.173 292.802 72.8956C292.721 72.617 292.409 72.3212 291.867 72.0083L291.615 71.8632ZM294.623 70.2793L294.127 69.2069L295.02 68.6916L295.688 70.3404L298.633 70.7354L297.747 71.2469L295.81 70.953L296.322 72.0693L295.43 72.5846L294.746 70.8843L291.893 70.4969L292.779 69.9855L294.623 70.2793ZM298.98 68.5466L297.244 69.5485L296.597 69.1744L298.332 68.1726L298.98 68.5466ZM290.77 83.153C290.626 83.0703 290.458 83.0417 290.264 83.0671C290.072 83.0913 289.811 83.1657 289.481 83.2904C289.15 83.4151 288.849 83.5048 288.578 83.5595C287.983 83.679 287.502 83.6326 287.134 83.4202C286.825 83.242 286.698 83.0181 286.75 82.7484C286.803 82.4787 287.03 82.2281 287.431 81.9966C287.859 81.7497 288.309 81.6117 288.783 81.5825C289.259 81.5519 289.666 81.634 290.003 81.8286L289.2 82.2923C289.045 82.2033 288.86 82.1626 288.644 82.1702C288.426 82.1766 288.222 82.2345 288.033 82.3439C287.857 82.4456 287.753 82.5525 287.722 82.6645C287.694 82.7751 287.748 82.8699 287.884 82.9488C288.008 83.02 288.155 83.0455 288.327 83.0251C288.499 83.0048 288.778 82.924 289.163 82.7828C289.547 82.6403 289.876 82.5455 290.152 82.4984C290.427 82.4488 290.675 82.438 290.895 82.466C291.118 82.4927 291.325 82.5614 291.517 82.6721C291.838 82.8578 291.966 83.0856 291.9 83.3553C291.832 83.6237 291.582 83.8826 291.15 84.1319C290.857 84.3012 290.543 84.4214 290.208 84.4926C289.873 84.5639 289.549 84.5829 289.236 84.5499C288.923 84.5168 288.66 84.4386 288.446 84.3151L289.226 83.8648C289.427 83.9678 289.645 84.0111 289.881 83.9946C290.114 83.9767 290.34 83.9049 290.558 83.7789C290.77 83.6568 290.891 83.541 290.922 83.4316C290.95 83.3209 290.9 83.228 290.77 83.153ZM294.875 81.9813C294.366 82.2752 293.793 82.4215 293.156 82.4202C292.519 82.4164 291.934 82.2605 291.401 81.9527L291.302 81.8954C290.945 81.6893 290.695 81.466 290.552 81.2256C290.408 80.9826 290.383 80.7441 290.476 80.51C290.568 80.2759 290.767 80.0704 291.074 79.8936C291.561 79.6124 292.092 79.4852 292.667 79.5119C293.244 79.5374 293.817 79.7142 294.386 80.0425L294.71 80.2295L292.373 81.5786C292.692 81.7351 293.024 81.8134 293.368 81.8134C293.714 81.8121 294.018 81.7358 294.28 81.5844C294.648 81.3719 294.799 81.113 294.733 80.8077L295.579 80.7962C295.649 81.0023 295.624 81.2091 295.503 81.4164C295.382 81.6213 295.172 81.8095 294.875 81.9813ZM291.715 80.2676C291.495 80.3949 291.393 80.5424 291.411 80.7104C291.431 80.877 291.56 81.0507 291.798 81.2313L293.328 80.3478L293.268 80.3134C292.982 80.1684 292.708 80.0927 292.445 80.0863C292.181 80.0787 291.938 80.1391 291.715 80.2676ZM294.039 78.2582L294.475 78.4834C294.42 78.1462 294.607 77.8536 295.037 77.6055C295.782 77.1755 296.587 77.2029 297.453 77.6876L299.816 79.052L299.013 79.5158L296.696 78.178C296.469 78.047 296.252 77.9789 296.045 77.9738C295.838 77.9662 295.623 78.0266 295.4 78.1551C295.076 78.3422 294.982 78.5661 295.116 78.8269L297.661 80.2963L296.858 80.76L293.282 78.6952L294.039 78.2582ZM301.67 76.8594C301.527 76.7767 301.359 76.7481 301.165 76.7735C300.973 76.7977 300.712 76.8721 300.381 76.9968C300.051 77.1215 299.75 77.2112 299.479 77.2659C298.884 77.3855 298.403 77.339 298.035 77.1266C297.726 76.9485 297.598 76.7245 297.651 76.4548C297.704 76.1851 297.931 75.9345 298.332 75.703C298.76 75.4562 299.21 75.3181 299.684 75.2889C300.16 75.2583 300.567 75.3404 300.904 75.535L300.1 75.9988C299.946 75.9097 299.761 75.869 299.545 75.8766C299.327 75.883 299.123 75.9409 298.934 76.0503C298.757 76.1521 298.654 76.2589 298.623 76.3709C298.594 76.4816 298.648 76.5763 298.785 76.6552C298.908 76.7265 299.056 76.7519 299.228 76.7315C299.4 76.7112 299.679 76.6304 300.064 76.4892C300.448 76.3467 300.777 76.2519 301.052 76.2049C301.328 76.1552 301.576 76.1444 301.796 76.1724C302.019 76.1991 302.226 76.2678 302.417 76.3785C302.739 76.5642 302.867 76.792 302.801 77.0617C302.733 77.3301 302.482 77.589 302.051 77.8384C301.758 78.0076 301.444 78.1278 301.109 78.199C300.774 78.2703 300.45 78.2894 300.137 78.2563C299.824 78.2232 299.561 78.145 299.347 78.0216L300.127 77.5712C300.327 77.6742 300.546 77.7175 300.781 77.701C301.015 77.6832 301.241 77.6113 301.459 77.4853C301.67 77.3632 301.792 77.2474 301.823 77.138C301.851 77.0273 301.801 76.9345 301.67 76.8594ZM304.989 76.0655L304.186 76.5293L300.61 74.4645L301.413 74.0008L304.989 76.0655ZM299.631 73.9569C299.508 73.8856 299.444 73.8042 299.439 73.7126C299.437 73.6197 299.509 73.5313 299.654 73.4473C299.8 73.3634 299.953 73.322 300.114 73.3233C300.275 73.3246 300.417 73.3608 300.54 73.4321C300.661 73.5021 300.723 73.5835 300.725 73.6763C300.725 73.7679 300.652 73.8557 300.507 73.9397C300.362 74.0237 300.21 74.0656 300.051 74.0656C299.892 74.0631 299.752 74.0268 299.631 73.9569ZM303.036 73.0638L303.472 73.289C303.417 72.9518 303.604 72.6592 304.034 72.4111C304.779 71.9811 305.584 72.0085 306.45 72.4932L308.813 73.8576L308.01 74.3214L305.693 72.9836C305.466 72.8526 305.249 72.7845 305.042 72.7794C304.835 72.7718 304.62 72.8322 304.397 72.9607C304.073 73.1477 303.979 73.3717 304.113 73.6325L306.658 75.1018L305.855 75.5656L302.279 73.5008L303.036 73.0638ZM307.679 72.4169C307.124 72.0963 306.811 71.7655 306.741 71.4245C306.67 71.0811 306.851 70.7846 307.283 70.5353C307.691 70.2999 308.153 70.1969 308.671 70.2261L308.347 69.9971L309.071 69.5792L312.538 71.581C313.008 71.852 313.231 72.1503 313.209 72.476C313.189 72.8004 312.932 73.1058 312.436 73.392C312.174 73.5434 311.862 73.6598 311.5 73.7412C311.143 73.8227 310.812 73.85 310.506 73.8233L310.403 73.3252C310.943 73.3519 311.394 73.261 311.755 73.0523C312.022 72.8984 312.159 72.7349 312.168 72.5619C312.179 72.3901 312.045 72.2235 311.765 72.0619L311.524 71.9226C311.55 72.205 311.37 72.4576 310.985 72.6802C310.566 72.9219 310.057 73.0237 309.458 72.9855C308.861 72.9461 308.268 72.7565 307.679 72.4169ZM308.549 71.9951C308.908 72.2025 309.264 72.324 309.616 72.3596C309.969 72.3927 310.275 72.3342 310.535 72.1841C310.859 71.997 310.961 71.7782 310.839 71.5276L309.266 70.6192C308.843 70.5505 308.469 70.6097 308.146 70.7967C307.881 70.9494 307.78 71.1288 307.841 71.3349C307.905 71.5397 308.141 71.7598 308.549 71.9951Z" fill="black"/>
<path d="M181.743 48.1616L181.743 33.51L268.403 36.0033L268.403 50.3852L226.999 74.2901L181.743 48.1616Z" fill="#FAC864" stroke="black" stroke-width="0.781338" stroke-linecap="round" stroke-linejoin="round"/>
<path d="M181.743 41.5615L226.999 67.69L268.404 43.7852" stroke="black" stroke-width="0.781338" stroke-linecap="round" stroke-linejoin="round"/>
<rect width="47.8098" height="52.257" transform="matrix(0.866025 -0.5 0.866025 0.5 181.743 33.2855)" fill="#FFE598" stroke="black" stroke-width="0.781338" stroke-linecap="round" stroke-linejoin="round"/>
<path d="M209.116 40.6686L207.252 41.7449L207.983 42.617L207.113 43.1189L204.119 39.2909L204.869 38.8577L211.503 40.5847L210.63 41.0885L209.116 40.6686ZM206.813 41.2201L208.207 40.4148L205.514 39.6649L206.813 41.2201ZM212.828 39.8195L212.025 40.2832L208.449 38.2184L209.252 37.7547L212.828 39.8195ZM207.47 37.7108C207.347 37.6395 207.283 37.5581 207.279 37.4665C207.276 37.3736 207.348 37.2852 207.493 37.2013C207.639 37.1173 207.792 37.0759 207.953 37.0772C208.114 37.0785 208.256 37.1147 208.379 37.186C208.5 37.256 208.562 37.3374 208.564 37.4303C208.564 37.5219 208.492 37.6096 208.346 37.6936C208.201 37.7776 208.049 37.8195 207.89 37.8195C207.731 37.817 207.592 37.7807 207.47 37.7108ZM212.736 36.5906C212.612 36.6415 212.494 36.6994 212.382 36.7643C212.014 36.9767 211.907 37.2013 212.061 37.4379L214.507 38.85L213.704 39.3138L210.128 37.249L210.895 36.8062L211.314 37.0257C211.198 36.7344 211.311 36.4895 211.655 36.291C211.769 36.2248 211.88 36.179 211.985 36.1536L212.736 36.5906ZM215.922 36.0448L214.187 37.0467L213.539 36.6727L215.274 35.6708L215.922 36.0448ZM219.687 33.8369C220.24 34.1562 220.556 34.4838 220.635 34.8197C220.712 35.1543 220.539 35.4437 220.116 35.688C219.724 35.9144 219.281 36.0213 218.788 36.0086L220.483 36.9875L219.68 37.4512L214.729 34.5926L215.469 34.1651L215.866 34.356C215.815 34.0545 215.992 33.7867 216.398 33.5526C216.834 33.3007 217.339 33.1976 217.912 33.2434C218.485 33.2867 219.06 33.475 219.637 33.8083L219.687 33.8369ZM218.817 34.2587C218.46 34.0526 218.106 33.9304 217.753 33.8923C217.403 33.8528 217.095 33.9094 216.831 34.0621C216.503 34.2517 216.402 34.466 216.53 34.7052L218.117 35.6212C218.54 35.6975 218.917 35.6403 219.247 35.4494C219.503 35.3019 219.6 35.1276 219.538 34.9266C219.476 34.723 219.236 34.5004 218.817 34.2587ZM222.975 33.961L222.172 34.4247L217.095 31.4935L217.898 31.0298L222.975 33.961ZM225.99 32.2206C225.886 32.2015 225.744 32.1551 225.563 32.0813C225.574 32.3828 225.395 32.6404 225.025 32.8541C224.665 33.0615 224.27 33.1716 223.838 33.1843C223.406 33.197 223.039 33.1162 222.737 32.9419C222.356 32.7218 222.205 32.4718 222.285 32.192C222.364 31.9095 222.667 31.6163 223.194 31.3122L223.686 31.0279L223.451 30.8924C223.266 30.7855 223.067 30.7302 222.853 30.7264C222.637 30.7213 222.423 30.7798 222.212 30.9019C222.029 31.0075 221.925 31.1208 221.901 31.2416C221.875 31.3612 221.932 31.4617 222.073 31.5431L221.27 32.0069C221.074 31.8936 220.956 31.7505 220.916 31.5775C220.874 31.4032 220.916 31.2238 221.042 31.0393C221.17 30.8536 221.371 30.6812 221.647 30.5222C222.065 30.2805 222.505 30.1488 222.965 30.1272C223.424 30.1043 223.847 30.201 224.235 30.4172L225.848 31.3485C226.169 31.5342 226.471 31.6564 226.753 31.7149L226.81 31.7473L225.99 32.2206ZM224.529 32.3961C224.688 32.3045 224.798 32.1964 224.859 32.0717C224.923 31.9458 224.926 31.8249 224.866 31.7092L224.192 31.3199L223.759 31.5698C223.461 31.7416 223.289 31.9006 223.243 32.0469C223.197 32.1932 223.268 32.3211 223.458 32.4305C223.612 32.5195 223.786 32.5615 223.98 32.5564C224.174 32.5488 224.357 32.4954 224.529 32.3961ZM228.548 29.6215C228.405 29.5388 228.236 29.5102 228.042 29.5356C227.851 29.5598 227.59 29.6342 227.259 29.7589C226.929 29.8835 226.628 29.9732 226.357 30.0279C225.762 30.1475 225.28 30.1011 224.912 29.8886C224.604 29.7105 224.476 29.4866 224.529 29.2169C224.582 28.9472 224.809 28.6966 225.21 28.465C225.637 28.2182 226.088 28.0802 226.562 28.0509C227.038 28.0204 227.444 28.1025 227.781 28.2971L226.978 28.7608C226.824 28.6718 226.639 28.6311 226.423 28.6387C226.205 28.6451 226.001 28.7029 225.811 28.8123C225.635 28.9141 225.531 29.021 225.501 29.1329C225.472 29.2436 225.526 29.3384 225.663 29.4173C225.786 29.4885 225.934 29.514 226.105 29.4936C226.277 29.4733 226.556 29.3925 226.942 29.2513C227.325 29.1088 227.655 29.014 227.93 28.9669C228.205 28.9173 228.453 28.9065 228.674 28.9345C228.896 28.9612 229.103 29.0299 229.295 29.1406C229.617 29.3263 229.745 29.554 229.679 29.8237C229.61 30.0922 229.36 30.3511 228.928 30.6004C228.635 30.7696 228.321 30.8899 227.986 30.9611C227.651 31.0323 227.327 31.0514 227.014 31.0183C226.702 30.9853 226.438 30.907 226.224 30.7836L227.005 30.3333C227.205 30.4363 227.423 30.4796 227.659 30.463C227.893 30.4452 228.118 30.3733 228.337 30.2474C228.548 30.1253 228.669 30.0095 228.7 29.9001C228.729 29.7894 228.678 29.6965 228.548 29.6215ZM227.573 26.1732L228.442 26.675L229.074 26.3106L229.669 26.6541L229.037 27.0185L231.034 28.1712C231.17 28.25 231.296 28.292 231.41 28.2971C231.525 28.2997 231.652 28.2608 231.791 28.1807C231.883 28.1273 231.966 28.0668 232.038 27.9994L232.66 28.3582C232.528 28.493 232.377 28.6094 232.207 28.7074C231.59 29.0636 230.941 29.0452 230.26 28.6521L228.234 27.4823L227.646 27.8219L227.051 27.4784L227.639 27.1388L226.77 26.6369L227.573 26.1732ZM234.121 27.5261L233.318 27.9899L229.741 25.9251L230.544 25.4614L234.121 27.5261ZM228.763 25.4175C228.64 25.3462 228.576 25.2648 228.571 25.1732C228.569 25.0803 228.641 24.9919 228.786 24.908C228.932 24.824 229.085 24.7826 229.246 24.7839C229.406 24.7852 229.549 24.8214 229.672 24.8927C229.793 24.9627 229.855 25.0441 229.857 25.137C229.857 25.2286 229.784 25.3163 229.639 25.4003C229.493 25.4843 229.341 25.5262 229.183 25.5262C229.024 25.5237 228.884 25.4874 228.763 25.4175ZM235.892 25.8392C236.093 25.7234 236.201 25.5937 236.216 25.4499C236.232 25.3062 236.158 25.1821 235.995 25.0778L236.752 24.6408C236.966 24.7744 237.104 24.9347 237.168 25.1217C237.23 25.3074 237.206 25.497 237.096 25.6904C236.985 25.8837 236.801 26.0548 236.544 26.2037C236.043 26.4925 235.485 26.628 234.868 26.6102C234.251 26.5924 233.657 26.4187 233.086 26.0892L233.004 26.0415C232.459 25.7273 232.17 25.392 232.134 25.0358C232.097 24.6783 232.329 24.3545 232.832 24.0645C233.257 23.819 233.727 23.6911 234.243 23.6809C234.759 23.6682 235.225 23.7744 235.641 23.9996L234.884 24.4366C234.671 24.3234 234.432 24.2668 234.167 24.2668C233.905 24.2655 233.672 24.3234 233.47 24.4404C233.21 24.5905 233.104 24.761 233.152 24.9518C233.199 25.1414 233.412 25.3475 233.794 25.5701L233.922 25.6446C234.31 25.8685 234.669 25.9957 235 26.0262C235.331 26.0542 235.628 25.9919 235.892 25.8392ZM238.378 23.0798L236.643 24.0817L235.995 23.7076L237.73 22.7058L238.378 23.0798ZM221.072 42.9378C220.929 42.8551 220.76 42.8265 220.566 42.852C220.375 42.8761 220.113 42.9506 219.783 43.0752C219.452 43.1999 219.152 43.2896 218.881 43.3443C218.286 43.4639 217.804 43.4175 217.436 43.205C217.128 43.0269 217 42.803 217.053 42.5333C217.106 42.2636 217.333 42.0129 217.734 41.7814C218.161 41.5346 218.612 41.3966 219.085 41.3673C219.561 41.3368 219.968 41.4188 220.305 41.6135L219.502 42.0772C219.348 41.9881 219.163 41.9474 218.947 41.9551C218.728 41.9614 218.525 42.0193 218.335 42.1287C218.159 42.2305 218.055 42.3374 218.024 42.4493C217.996 42.56 218.05 42.6548 218.186 42.7337C218.31 42.8049 218.457 42.8303 218.629 42.81C218.801 42.7896 219.08 42.7088 219.466 42.5676C219.849 42.4251 220.178 42.3304 220.454 42.2833C220.729 42.2337 220.977 42.2229 221.198 42.2509C221.42 42.2776 221.627 42.3463 221.819 42.4569C222.141 42.6427 222.268 42.8704 222.202 43.1401C222.134 43.4086 221.884 43.6674 221.452 43.9168C221.159 44.086 220.845 44.2062 220.51 44.2775C220.175 44.3487 219.851 44.3678 219.538 44.3347C219.225 44.3016 218.962 44.2234 218.748 44.1L219.528 43.6496C219.729 43.7527 219.947 43.7959 220.183 43.7794C220.416 43.7616 220.642 43.6897 220.86 43.5638C221.072 43.4416 221.193 43.3259 221.224 43.2165C221.253 43.1058 221.202 43.0129 221.072 42.9378ZM225.177 41.7661C224.668 42.06 224.095 42.2063 223.458 42.2051C222.822 42.2012 222.236 42.0454 221.703 41.7375L221.604 41.6803C221.247 41.4742 220.997 41.2509 220.854 41.0105C220.711 40.7675 220.685 40.5289 220.778 40.2948C220.87 40.0608 221.07 39.8553 221.376 39.6785C221.863 39.3973 222.394 39.2701 222.969 39.2968C223.546 39.3222 224.119 39.4991 224.688 39.8273L225.012 40.0143L222.675 41.3635C222.994 41.52 223.326 41.5982 223.67 41.5982C224.016 41.5969 224.32 41.5206 224.582 41.3692C224.95 41.1568 225.101 40.8979 225.035 40.5925L225.881 40.5811C225.952 40.7872 225.926 40.9939 225.805 41.2013C225.684 41.4061 225.475 41.5944 225.177 41.7661ZM222.017 40.0525C221.797 40.1797 221.696 40.3273 221.713 40.4952C221.733 40.6619 221.862 40.8355 222.1 41.0162L223.63 40.1326L223.571 40.0983C223.284 39.9533 223.01 39.8776 222.748 39.8712C222.483 39.8636 222.24 39.924 222.017 40.0525ZM224.341 38.043L224.777 38.2682C224.722 37.9311 224.909 37.6385 225.339 37.3904C226.084 36.9604 226.889 36.9877 227.755 37.4725L230.118 38.8369L229.315 39.3006L226.998 37.9629C226.771 37.8319 226.554 37.7638 226.347 37.7587C226.14 37.7511 225.925 37.8115 225.703 37.94C225.379 38.127 225.284 38.3509 225.418 38.6117L227.963 40.0811L227.16 40.5448L223.584 38.48L224.341 38.043ZM231.973 36.6442C231.83 36.5616 231.661 36.5329 231.467 36.5584C231.275 36.5825 231.014 36.657 230.684 36.7816C230.353 36.9063 230.052 36.996 229.781 37.0507C229.186 37.1703 228.705 37.1239 228.337 36.9114C228.028 36.7333 227.901 36.5094 227.954 36.2397C228.006 35.97 228.233 35.7194 228.634 35.4878C229.062 35.241 229.513 35.103 229.986 35.0737C230.462 35.0432 230.869 35.1252 231.206 35.3199L230.403 35.7836C230.248 35.6945 230.063 35.6538 229.847 35.6615C229.629 35.6678 229.425 35.7257 229.236 35.8351C229.06 35.9369 228.956 36.0438 228.925 36.1557C228.897 36.2664 228.951 36.3612 229.087 36.4401C229.211 36.5113 229.358 36.5367 229.53 36.5164C229.702 36.496 229.981 36.4153 230.366 36.274C230.75 36.1316 231.079 36.0368 231.355 35.9897C231.63 35.9401 231.878 35.9293 232.098 35.9573C232.321 35.984 232.528 36.0527 232.72 36.1634C233.041 36.3491 233.169 36.5768 233.103 36.8465C233.035 37.115 232.785 37.3739 232.353 37.6232C232.06 37.7924 231.746 37.9126 231.411 37.9839C231.076 38.0551 230.752 38.0742 230.439 38.0411C230.126 38.0081 229.863 37.9298 229.649 37.8064L230.429 37.356C230.63 37.4591 230.848 37.5024 231.084 37.4858C231.317 37.468 231.543 37.3961 231.761 37.2702C231.973 37.148 232.094 37.0323 232.125 36.9229C232.153 36.8122 232.103 36.7193 231.973 36.6442ZM235.291 35.8504L234.488 36.3141L230.912 34.2493L231.715 33.7856L235.291 35.8504ZM229.933 33.7417C229.81 33.6705 229.746 33.5891 229.742 33.4975C229.739 33.4046 229.811 33.3162 229.957 33.2322C230.102 33.1482 230.255 33.1069 230.416 33.1082C230.577 33.1094 230.719 33.1457 230.842 33.2169C230.964 33.2869 231.025 33.3683 231.027 33.4612C231.027 33.5528 230.955 33.6406 230.809 33.7245C230.664 33.8085 230.512 33.8505 230.353 33.8505C230.195 33.8479 230.055 33.8117 229.933 33.7417ZM233.338 32.8486L233.774 33.0738C233.719 32.7367 233.906 32.4441 234.336 32.196C235.081 31.766 235.886 31.7933 236.752 32.278L239.115 33.6425L238.312 34.1062L235.995 32.7685C235.768 32.6374 235.551 32.5694 235.344 32.5643C235.137 32.5567 234.922 32.6171 234.7 32.7456C234.376 32.9326 234.281 33.1565 234.415 33.4173L236.96 34.8867L236.157 35.3504L232.581 33.2856L233.338 32.8486ZM237.982 32.2017C237.426 31.8811 237.114 31.5503 237.043 31.2094C236.973 30.8659 237.153 30.5695 237.585 30.3201C237.993 30.0848 238.456 29.9817 238.973 30.011L238.649 29.782L239.373 29.3641L242.841 31.3659C243.31 31.6369 243.534 31.9352 243.511 32.2609C243.492 32.5853 243.234 32.8906 242.738 33.1769C242.476 33.3283 242.164 33.4447 241.803 33.5261C241.446 33.6075 241.114 33.6349 240.808 33.6081L240.705 33.1101C241.245 33.1368 241.696 33.0458 242.057 32.8372C242.324 32.6832 242.462 32.5198 242.47 32.3467C242.481 32.175 242.347 32.0083 242.067 31.8468L241.826 31.7075C241.852 31.9899 241.673 32.2424 241.287 32.4651C240.868 32.7068 240.359 32.8086 239.76 32.7704C239.163 32.731 238.57 32.5414 237.982 32.2017ZM238.851 31.78C239.21 31.9874 239.566 32.1088 239.919 32.1445C240.271 32.1775 240.577 32.119 240.838 31.9689C241.161 31.7819 241.263 31.5631 241.142 31.3124L239.568 30.4041C239.145 30.3354 238.772 30.3946 238.448 30.5816C238.183 30.7342 238.082 30.9136 238.144 31.1197C238.208 31.3245 238.443 31.5446 238.851 31.78Z" fill="black"/>
<path d="M296.462 99.6603V114.121" stroke="black" stroke-width="0.781642"/>
<rect width="36.904" height="63.6408" transform="matrix(0.866025 -0.5 0.866025 0.5 52.3198 109.414)" stroke="black" stroke-width="0.781338" stroke-linecap="round" stroke-linejoin="round"/>
<path d="M62.6455 109.13L62.6459 94.4782L129.098 108.259L129.098 123.031L107.901 135.258L62.6455 109.13Z" fill="#505050" stroke="black" stroke-width="0.781338" stroke-linecap="round" stroke-linejoin="round"/>
<path d="M107.995 120.374V135.03" stroke="black" stroke-width="0.781642"/>
<rect width="24.4375" height="52.257" transform="matrix(0.866025 -0.5 0.866025 0.5 62.6475 94.2537)" fill="#B3B3B3" stroke="black" stroke-width="0.781338" stroke-linecap="round" stroke-linejoin="round"/>
<rect width="24.4375" height="16.7815" transform="matrix(0.866025 -0.5 0.866025 0.5 78.0093 103.123)" fill="#B3B3B3" stroke="black" stroke-width="0.781338" stroke-linecap="round" stroke-linejoin="round"/>
<path d="M79.036 94.6536C80.4013 95.4419 82.615 95.4419 83.9804 94.6537C84.663 94.2595 85.0044 93.7429 85.0044 93.2263L85.0042 63.4547L78.0117 63.4547L78.0119 93.2263C78.0119 93.7429 78.3533 94.2595 79.036 94.6536Z" fill="#FAC864" stroke="black" stroke-width="0.488075" stroke-linecap="round" stroke-linejoin="round"/>
<circle r="2.87566" transform="matrix(0.866025 -0.5 0.866025 0.5 81.5135 63.454)" fill="#FFE598" stroke="black" stroke-width="0.488075" stroke-linecap="round" stroke-linejoin="round"/>
<path d="M93.1058 102.079C94.4711 102.868 96.6848 102.868 98.0502 102.079C98.7329 101.685 99.0742 101.169 99.0742 100.652L99.074 70.8806L92.0815 70.8806L92.0818 100.652C92.0818 101.169 92.4231 101.685 93.1058 102.079Z" fill="#FAC864" stroke="black" stroke-width="0.488075" stroke-linecap="round" stroke-linejoin="round"/>
<circle r="2.87566" transform="matrix(0.866025 -0.5 0.866025 0.5 95.5833 70.8798)" fill="#FFE598" stroke="black" stroke-width="0.488075" stroke-linecap="round" stroke-linejoin="round"/>
<path d="M108.739 112.24C110.104 113.029 112.318 113.029 113.683 112.24C114.366 111.846 114.707 111.33 114.707 110.813L114.707 81.0413L107.714 81.0413L107.715 110.813C107.715 111.33 108.056 111.846 108.739 112.24Z" fill="#FAC864" stroke="black" stroke-width="0.488075" stroke-linecap="round" stroke-linejoin="round"/>
<circle r="2.87566" transform="matrix(0.866025 -0.5 0.866025 0.5 111.216 81.0406)" fill="#FFE598" stroke="black" stroke-width="0.488075" stroke-linecap="round" stroke-linejoin="round"/>
</svg>
