<svg width="683" height="553" viewBox="0 0 683 553" fill="none" xmlns="http://www.w3.org/2000/svg">

<style>
@keyframes float {
  0% { transform: translate(0, 0); }
  20% { transform: translate(40px, 40px); }
  30% { transform: translate(40px, 40px); }
  40% { transform: translate(20px, 20px); }
  50% { transform: translate(20px, 20px); }
  60% { transform: translate(80px, 80px); }
  70% { transform: translate(80px, 80px); }
  80% { transform: translate(60px, 60px); }
  100% { transform: translate(95px, 95px); }
}

#lever1 {
  animation: 6s ease-in-out 0ms infinite alternate float;
}
#lever2 {
  animation: 7.5s ease-in-out 150ms infinite alternate-reverse float;
}
#lever3 {
  animation: 5.5s ease-in-out 300ms infinite alternate float;
}
</style>

<g id="control-center">
<path id="Union" d="M65.6103 492.733L131.291 530.653C154.598 544.11 183.312 544.119 206.627 530.676L284.451 485.807L655.625 271.51C671.367 262.421 681.064 245.625 681.064 227.448V172.901L15.0205 310.982V405.109C15.0205 437.371 37.6703 476.602 65.6103 492.733Z" fill="#5E6FDB"/>
<g id="Group 1592">
<path id="Rectangle 1781" d="M681.174 172.562L569.814 59.3586C545.911 35.061 502.606 29.179 473.089 46.2208L165.952 223.547L157.621 205.431L44.6157 271.566L44.6157 293.6L14.9986 310.699L169.638 467.897L681.174 172.562Z" fill="#BDDCD8"/>
<path id="Rectangle 1827" d="M681.174 172.562L569.814 59.3586C545.911 35.061 502.606 29.179 473.089 46.2208L165.952 223.547L157.621 205.431L44.6157 271.566L44.6157 293.6L14.9986 310.699L169.638 467.897L681.174 172.562Z" fill="#B0B8ED" stroke="black" stroke-width="1.73126" stroke-linecap="round" stroke-linejoin="round"/>
<rect id="Rectangle 1782" width="148.948" height="97.1901" transform="matrix(0.866025 -0.5 0.701283 0.712883 61.4199 316.529)" fill="#C4C4C4" stroke="black" stroke-width="1.72527" stroke-linecap="round" stroke-linejoin="round"/>
<rect id="Rectangle 1797" width="142.047" height="89.7139" transform="matrix(0.866025 -0.5 0.701283 0.712883 66.6621 321.861)" fill="black" stroke="black" stroke-width="1.72527" stroke-linecap="round" stroke-linejoin="round"/>
<rect id="Rectangle 1783" width="14.3772" height="14.3772" transform="matrix(0.866025 -0.5 0.701283 0.712883 137.239 393.605)" fill="white" stroke="black" stroke-width="1.72527" stroke-linecap="round" stroke-linejoin="round"/>
<rect id="Rectangle 1790" width="14.3772" height="14.3772" transform="matrix(0.866025 -0.5 0.701283 0.712883 152.968 409.595)" fill="white" stroke="black" stroke-width="1.72527" stroke-linecap="round" stroke-linejoin="round"/>
<rect id="Rectangle 1800" width="14.3772" height="14.3772" transform="matrix(0.866025 -0.5 0.701283 0.712883 168.695 425.582)" fill="white" stroke="black" stroke-width="1.72527" stroke-linecap="round" stroke-linejoin="round"/>
<rect id="Rectangle 1784" width="14.3772" height="14.3772" transform="matrix(0.866025 -0.5 0.701283 0.712883 156.661 382.39)" fill="white" stroke="black" stroke-width="1.72527" stroke-linecap="round" stroke-linejoin="round"/>
<rect id="Rectangle 1791" width="59.2342" height="14.3772" transform="matrix(0.866025 -0.5 0.701283 0.712883 172.392 398.38)" fill="white" stroke="black" stroke-width="1.72527" stroke-linecap="round" stroke-linejoin="round"/>
<rect id="Rectangle 1798" width="104.091" height="14.3772" transform="matrix(0.866025 -0.5 0.701283 0.712883 188.12 414.367)" fill="#BDDCD8" stroke="black" stroke-width="1.72527" stroke-linecap="round" stroke-linejoin="round"/>
<rect id="Rectangle 1785" width="14.3772" height="14.3772" transform="matrix(0.866025 -0.5 0.701283 0.712883 176.087 371.177)" fill="white" stroke="black" stroke-width="1.72527" stroke-linecap="round" stroke-linejoin="round"/>
<rect id="Rectangle 1786" width="14.3772" height="14.3772" transform="matrix(0.866025 -0.5 0.701283 0.712883 195.51 359.962)" fill="white" stroke="black" stroke-width="1.72527" stroke-linecap="round" stroke-linejoin="round"/>
<rect id="Rectangle 1787" width="14.3772" height="14.3772" transform="matrix(0.866025 -0.5 0.701283 0.712883 214.935 348.749)" fill="white" stroke="black" stroke-width="1.72527" stroke-linecap="round" stroke-linejoin="round"/>
<rect id="Rectangle 1794" width="14.3772" height="14.3772" transform="matrix(0.866025 -0.5 0.701283 0.712883 230.66 364.737)" fill="white" stroke="black" stroke-width="1.72527" stroke-linecap="round" stroke-linejoin="round"/>
<rect id="Rectangle 1795" width="14.3772" height="14.3772" transform="matrix(0.866025 -0.5 0.701283 0.712883 250.087 353.524)" fill="white" stroke="black" stroke-width="1.72527" stroke-linecap="round" stroke-linejoin="round"/>
<rect id="Rectangle 1789" width="36.8057" height="14.3772" transform="matrix(0.866025 -0.5 0.701283 0.712883 234.357 337.534)" fill="#FF8484" stroke="black" stroke-width="1.72527" stroke-linecap="round" stroke-linejoin="round"/>
<rect id="Rectangle 1811" width="36.8057" height="14.3772" transform="matrix(0.866025 -0.5 0.701283 0.712883 340.322 155.505)" fill="#FFE598" stroke="black" stroke-width="1.72527" stroke-linecap="round" stroke-linejoin="round"/>
<rect id="Rectangle 1813" width="36.8057" height="14.3772" transform="matrix(0.866025 -0.5 0.701283 0.712883 382.156 131.351)" fill="#FFE598" stroke="black" stroke-width="1.72527" stroke-linecap="round" stroke-linejoin="round"/>
<rect id="Rectangle 1815" width="36.8057" height="14.3772" transform="matrix(0.866025 -0.5 0.701283 0.712883 423.992 107.197)" fill="#FFE598" stroke="black" stroke-width="1.72527" stroke-linecap="round" stroke-linejoin="round"/>
<rect id="Rectangle 1812" width="18.4029" height="14.3772" transform="matrix(0.866025 -0.5 0.701283 0.712883 340.322 155.505)" fill="#BDDCD8" stroke="black" stroke-width="1.72527" stroke-linecap="round" stroke-linejoin="round"/>
<rect id="Rectangle 1814" width="18.4029" height="14.3772" transform="matrix(0.866025 -0.5 0.701283 0.712883 382.156 131.351)" fill="#BDDCD8" stroke="black" stroke-width="1.72527" stroke-linecap="round" stroke-linejoin="round"/>
<rect id="Rectangle 1816" width="18.4029" height="14.3772" transform="matrix(0.866025 -0.5 0.701283 0.712883 423.992 107.197)" fill="#BDDCD8" stroke="black" stroke-width="1.72527" stroke-linecap="round" stroke-linejoin="round"/>
<rect id="Rectangle 1796" width="14.3772" height="14.3772" transform="matrix(0.866025 -0.5 0.701283 0.712883 269.51 342.309)" fill="white" stroke="black" stroke-width="1.72527" stroke-linecap="round" stroke-linejoin="round"/>
<rect id="Rectangle 1799" width="14.3772" height="14.3772" transform="matrix(0.866025 -0.5 0.701283 0.712883 285.239 358.296)" fill="white" stroke="black" stroke-width="1.72527" stroke-linecap="round" stroke-linejoin="round"/>
<rect id="Rectangle 1801" width="10.9267" height="163.325" rx="5.46335" transform="matrix(0.866025 -0.5 0.701283 0.712883 219.296 225.378)" fill="#C4C4C4" stroke="black" stroke-width="1.72527" stroke-linecap="round" stroke-linejoin="round"/>
<rect id="Rectangle 1822" width="6.76955" height="163.325" rx="3.38477" transform="matrix(0.866025 -0.5 0.701283 0.712883 219.296 225.378)" fill="black" stroke="black" stroke-width="1.72527" stroke-linecap="round" stroke-linejoin="round"/>
<rect id="Rectangle 1802" width="10.9267" height="163.325" rx="5.46335" transform="matrix(0.866025 -0.5 0.701283 0.712883 248.184 208.701)" fill="#C4C4C4" stroke="black" stroke-width="1.72527" stroke-linecap="round" stroke-linejoin="round"/>
<rect id="Rectangle 1823" width="6.76955" height="162.247" rx="3.38477" transform="matrix(0.866025 -0.5 0.701283 0.712883 249.354 209.055)" fill="black" stroke="black" stroke-width="1.72527" stroke-linecap="round" stroke-linejoin="round"/>
<rect id="Rectangle 1803" width="10.9267" height="163.325" rx="5.46335" transform="matrix(0.866025 -0.5 0.701283 0.712883 277.071 192.024)" fill="#C4C4C4" stroke="black" stroke-width="1.72527" stroke-linecap="round" stroke-linejoin="round"/>
<rect id="Rectangle 1824" width="6.76955" height="160.122" rx="3.38477" transform="matrix(0.866025 -0.5 0.701283 0.712883 279.034 192.568)" fill="black" stroke="black" stroke-width="1.72527" stroke-linecap="round" stroke-linejoin="round"/>
<rect id="Rectangle 1804" width="21.8534" height="143.772" transform="matrix(0.866025 -0.5 0.701283 0.712883 304.156 188.599)" fill="#BDDCD8" stroke="black" stroke-width="1.72527" stroke-linecap="round" stroke-linejoin="round"/>
<rect id="Rectangle 1805" width="21.8534" height="128.245" transform="matrix(0.866025 -0.5 0.701283 0.712883 315.048 199.668)" fill="white" stroke="black" stroke-width="1.72527" stroke-linecap="round" stroke-linejoin="round"/>
<rect id="Rectangle 1807" width="21.8534" height="128.245" transform="matrix(0.866025 -0.5 0.701283 0.712883 315.048 199.668)" fill="white" stroke="black" stroke-width="1.72527" stroke-linecap="round" stroke-linejoin="round"/>
<rect id="Rectangle 1808" width="21.8534" height="128.245" transform="matrix(0.866025 -0.5 0.701283 0.712883 315.048 199.668)" fill="#FFE598" stroke="black" stroke-width="1.72527" stroke-linecap="round" stroke-linejoin="round"/>
<rect id="Rectangle 1806" width="21.8534" height="85.1132" transform="matrix(0.866025 -0.5 0.701283 0.712883 345.294 230.415)" fill="#FFCA31" stroke="black" stroke-width="1.72527" stroke-linecap="round" stroke-linejoin="round"/>
<rect id="Rectangle 1809" width="21.8534" height="51.1829" transform="matrix(0.866025 -0.5 0.701283 0.712883 369.087 254.604)" fill="#FFB5B5" stroke="black" stroke-width="1.72527" stroke-linecap="round" stroke-linejoin="round"/>
<rect id="Rectangle 1810" width="21.8534" height="20.7032" transform="matrix(0.866025 -0.5 0.701283 0.712883 390.463 276.334)" fill="#FF8484" stroke="black" stroke-width="1.72527" stroke-linecap="round" stroke-linejoin="round"/>
<path id="Rectangle 1825" d="M554.845 207.698L595.684 184.119C596.723 183.52 597.288 182.607 597.343 181.645L597.343 172.223L487.848 134.064L487.848 143.957C487.86 144.716 488.187 145.495 488.847 146.165L548.536 206.841C550.095 208.426 552.92 208.81 554.845 207.698Z" fill="#C4C4C4" stroke="black" stroke-width="1.72527" stroke-linecap="round" stroke-linejoin="round"/>
<rect id="Rectangle 1817" width="55.2086" height="93.1645" rx="4.02562" transform="matrix(0.866025 -0.5 0.701283 0.712883 486.023 133.737)" fill="#C4C4C4" stroke="black" stroke-width="1.72527" stroke-linecap="round" stroke-linejoin="round"/>
<path id="Rectangle 1826" d="M490.818 138.612L529.584 116.231C531.509 115.119 534.334 115.503 535.893 117.087L590.788 172.89C592.347 174.475 592.05 176.661 590.124 177.773L554.845 198.141C552.92 199.253 550.095 198.869 548.536 197.284L490.818 138.612Z" fill="#EEEEEE" stroke="black" stroke-width="1.72527" stroke-linecap="round" stroke-linejoin="round"/>
<rect id="Rectangle 1818" width="14.3772" height="14.3772" transform="matrix(0.866025 -0.5 0.701283 0.712883 502.334 142.572)" fill="#FFB5B5" stroke="black" stroke-width="1.72527" stroke-linecap="round" stroke-linejoin="round"/>
<rect id="Rectangle 1820" width="14.3772" height="14.3772" transform="matrix(0.866025 -0.5 0.701283 0.712883 524.114 164.71)" fill="#BDDCD8" stroke="black" stroke-width="1.72527" stroke-linecap="round" stroke-linejoin="round"/>
<rect id="Rectangle 1819" width="14.3772" height="14.3772" transform="matrix(0.866025 -0.5 0.701283 0.712883 521.758 131.359)" fill="#FFE598" stroke="black" stroke-width="1.72527" stroke-linecap="round" stroke-linejoin="round"/>
<rect id="Rectangle 1821" width="14.3772" height="14.3772" transform="matrix(0.866025 -0.5 0.701283 0.712883 543.537 153.498)" fill="#FFCA31" stroke="black" stroke-width="1.72527" stroke-linecap="round" stroke-linejoin="round"/>
<circle id="Ellipse 211" r="46.5822" transform="matrix(0.866025 -0.5 0.701283 0.712883 452.949 204.902)" fill="#FF8484" stroke="black" stroke-width="1.72527" stroke-linecap="round" stroke-linejoin="round"/>
<path id="Ellipse 212" d="M493.291 181.611C500.623 189.065 504.695 198.06 504.854 207.15C505.012 216.24 501.246 224.896 494.163 231.725C487.08 238.554 477.09 243.159 465.802 244.8C454.514 246.44 442.584 245.021 431.93 240.769C421.277 236.517 412.521 229.681 407.071 221.361C401.62 213.04 399.792 203.718 401.881 194.896C403.97 186.073 409.854 178.263 418.586 172.721C427.319 167.18 438.392 164.229 450.025 164.344L452.949 204.902L493.291 181.611Z" fill="#FFB5B5" stroke="black" stroke-width="1.72527" stroke-linecap="round" stroke-linejoin="round"/>
</g>
<path id="API control" d="M140.296 316.531L133.554 320.423L135.425 324.573L132.282 326.387L124.763 308.266L127.476 306.7L148.155 317.223L144.999 319.045L140.296 316.531ZM132.428 317.926L137.472 315.014L129.104 310.527L132.428 317.926ZM147.926 309.009L153.163 314.332L150.139 316.078L136.046 301.752L142.704 297.908C144.648 296.786 146.6 296.312 148.559 296.487C150.526 296.658 152.183 297.428 153.532 298.799C154.913 300.203 155.425 301.62 155.07 303.049C154.722 304.473 153.54 305.768 151.524 306.932L147.926 309.009ZM145.962 307.012L149.595 304.914C150.671 304.293 151.288 303.612 151.448 302.872C151.6 302.126 151.29 301.359 150.515 300.572C149.754 299.798 148.861 299.347 147.835 299.219C146.803 299.085 145.779 299.301 144.762 299.867L141.045 302.013L145.962 307.012ZM168.988 305.195L165.976 306.934L151.883 292.608L154.896 290.869L168.988 305.195ZM144.357 353.618C145.082 353.199 145.513 352.678 145.649 352.054C145.785 351.431 145.617 350.854 145.146 350.324L147.883 348.743C148.503 349.424 148.862 350.189 148.959 351.038C149.051 351.88 148.858 352.701 148.383 353.5C147.907 354.299 147.203 354.968 146.27 355.506C144.462 356.55 142.553 356.896 140.545 356.544C138.536 356.191 136.697 355.166 135.025 353.467L134.783 353.221C133.19 351.601 132.441 350.002 132.538 348.424C132.628 346.839 133.582 345.522 135.399 344.473C136.937 343.586 138.552 343.234 140.246 343.418C141.94 343.592 143.402 344.265 144.631 345.438L141.894 347.018C141.262 346.426 140.513 346.072 139.648 345.954C138.791 345.832 137.995 345.983 137.262 346.406C136.322 346.949 135.874 347.649 135.919 348.508C135.958 349.36 136.534 350.359 137.649 351.505L138.027 351.889C139.162 353.043 140.262 353.761 141.325 354.041C142.39 354.311 143.401 354.17 144.357 353.618ZM147.664 345.892C146.638 344.849 145.967 343.766 145.649 342.644C145.325 341.514 145.398 340.464 145.868 339.494C146.331 338.517 147.152 337.688 148.332 337.007C150.077 335.999 151.946 335.645 153.939 335.944C155.941 336.239 157.737 337.125 159.328 338.603L159.892 339.157C160.924 340.206 161.6 341.287 161.919 342.398C162.246 343.506 162.174 344.55 161.703 345.532C161.24 346.509 160.41 347.342 159.215 348.032C157.39 349.086 155.438 349.431 153.357 349.069C151.278 348.696 149.42 347.676 147.781 346.01L147.664 345.892ZM150.772 344.422C151.85 345.517 152.97 346.218 154.133 346.524C155.289 346.823 156.357 346.689 157.337 346.123C158.318 345.558 158.769 344.803 158.691 343.861C158.622 342.914 157.99 341.833 156.796 340.62C155.738 339.544 154.616 338.855 153.431 338.552C152.254 338.244 151.183 338.369 150.219 338.925C149.271 339.473 148.824 340.219 148.879 341.164C148.928 342.103 149.559 343.189 150.772 344.422ZM159.701 330.751L160.994 331.933C161.015 330.43 161.802 329.229 163.356 328.332C166.049 326.777 168.668 327.255 171.213 329.766L178.134 336.801L175.229 338.478L168.444 331.581C167.78 330.905 167.11 330.51 166.435 330.396C165.762 330.27 165.023 330.44 164.218 330.904C163.047 331.581 162.603 332.521 162.888 333.724L170.341 341.3L167.436 342.977L156.964 332.331L159.701 330.751ZM171.725 319.751L174.271 322.339L176.554 321.021L178.296 322.792L176.013 324.11L181.859 330.053C182.259 330.46 182.645 330.699 183.017 330.773C183.391 330.835 183.828 330.721 184.33 330.431C184.665 330.238 184.971 330.01 185.25 329.746L187.069 331.596C186.556 332.129 185.993 332.572 185.379 332.926C183.148 334.214 181.036 333.845 179.042 331.818L173.109 325.787L170.981 327.015L169.239 325.244L171.367 324.016L168.821 321.428L171.725 319.751ZM187.703 318.009C187.269 318.177 186.849 318.379 186.442 318.613C185.112 319.382 184.628 320.319 184.992 321.425L192.154 328.706L189.25 330.383L178.777 319.737L181.55 318.136L182.793 319.286C182.584 317.956 183.102 316.932 184.345 316.214C184.759 315.975 185.147 315.823 185.508 315.759L187.703 318.009ZM191.554 320.552C190.528 319.509 189.857 318.427 189.539 317.304C189.215 316.174 189.288 315.124 189.758 314.154C190.221 313.177 191.042 312.348 192.222 311.667C193.967 310.659 195.836 310.305 197.829 310.604C199.831 310.899 201.627 311.785 203.218 313.263L203.782 313.817C204.814 314.866 205.49 315.947 205.809 317.059C206.136 318.166 206.064 319.21 205.593 320.192C205.13 321.169 204.3 322.002 203.105 322.692C201.28 323.746 199.328 324.092 197.247 323.729C195.168 323.356 193.309 322.336 191.671 320.67L191.554 320.552ZM194.662 319.082C195.74 320.177 196.86 320.878 198.023 321.184C199.179 321.483 200.247 321.349 201.227 320.784C202.208 320.218 202.659 319.464 202.581 318.521C202.512 317.574 201.88 316.494 200.686 315.28C199.628 314.204 198.506 313.515 197.321 313.212C196.144 312.904 195.073 313.029 194.109 313.585C193.161 314.133 192.714 314.879 192.769 315.824C192.818 316.763 193.449 317.849 194.662 319.082ZM214.458 315.829L211.553 317.506L196.687 302.394L199.591 300.717L214.458 315.829Z" fill="#FFCA31"/>
<path id="Vector 421" d="M154.899 372.203L143.593 276.57L150.424 272.565L161.73 368.198L154.899 372.203Z" fill="url(#paint0_linear)"/>
<path id="Vector 422" d="M173.038 361.603L161.731 265.97L177.278 257.019L188.584 352.652L173.038 361.603Z" fill="url(#paint1_linear)"/>
<g id="lever3">
<g id="Group 1597">
<g id="Group 1594">
<path id="Vector" d="M275.128 201.742L302.912 185.717L302.998 185.656C304.189 184.785 304.962 183.377 304.962 181.789C304.962 179.144 302.818 177 300.174 177C299.32 177 298.518 177.224 297.824 177.615L297.346 177.891L270.43 193.418L275.128 201.742Z" fill="#FF8484" stroke="black" stroke-width="1.72527" stroke-linecap="round" stroke-linejoin="round"/>
<path id="Vector_2" d="M277.577 197.562C277.577 200.207 275.433 202.351 272.789 202.351C270.144 202.351 268 200.207 268 197.562C268 194.917 270.144 192.773 272.789 192.773C275.433 192.773 277.577 194.917 277.577 197.562Z" fill="#FF8484" stroke="black" stroke-width="1.72527" stroke-linecap="round" stroke-linejoin="round"/>
</g>
</g>
<path id="Vector 423" d="M291.411 206.298L285.287 199.702V195.933L291.411 192.4V206.298Z" fill="#C4C4C4" stroke="black" stroke-width="1.72527" stroke-linecap="round" stroke-linejoin="round"/>
</g>
<g id="lever2">
<g id="Group 1597_2">
<g id="Group 1594_2">
<path id="Vector_3" d="M247.128 219.742L274.912 203.717L274.998 203.656C276.189 202.785 276.962 201.377 276.962 199.789C276.962 197.144 274.818 195 272.174 195C271.32 195 270.518 195.224 269.824 195.615L269.346 195.891L242.43 211.418L247.128 219.742Z" fill="#FF8484" stroke="black" stroke-width="1.72527" stroke-linecap="round" stroke-linejoin="round"/>
<path id="Vector_4" d="M249.577 215.562C249.577 218.207 247.433 220.351 244.789 220.351C242.144 220.351 240 218.207 240 215.562C240 212.917 242.144 210.773 244.789 210.773C247.433 210.773 249.577 212.917 249.577 215.562Z" fill="#FF8484" stroke="black" stroke-width="1.72527" stroke-linecap="round" stroke-linejoin="round"/>
</g>
</g>
<path id="Vector 423_2" d="M263.411 224.298L257.287 217.702V213.933L263.411 210.4V224.298Z" fill="#C4C4C4" stroke="black" stroke-width="1.72527" stroke-linecap="round" stroke-linejoin="round"/>
</g>
<g id="lever1">
<g id="Group 1597_3">
<g id="Group 1594_3">
<path id="Vector_5" d="M218.23 236.212L246.015 220.188L246.1 220.127C247.291 219.256 248.065 217.848 248.065 216.259C248.065 213.615 245.921 211.471 243.276 211.471C242.422 211.471 241.62 211.694 240.926 212.086L240.448 212.361L213.532 227.889L218.23 236.212Z" fill="#FF8484" stroke="black" stroke-width="1.72527" stroke-linecap="round" stroke-linejoin="round"/>
<path id="Vector_6" d="M220.68 232.033C220.68 234.677 218.536 236.821 215.891 236.821C213.246 236.821 211.103 234.677 211.103 232.033C211.103 229.388 213.246 227.244 215.891 227.244C218.536 227.244 220.68 229.388 220.68 232.033Z" fill="#FF8484" stroke="black" stroke-width="1.72527" stroke-linecap="round" stroke-linejoin="round"/>
</g>
</g>
<path id="Vector 423_3" d="M234.514 240.769L228.39 234.173V230.404L234.514 226.871V240.769Z" fill="#C4C4C4" stroke="black" stroke-width="1.72527" stroke-linecap="round" stroke-linejoin="round"/>
</g>
<path id="Rectangle 1783_2" d="M681.064 224.044L681.064 172.903L168.951 468.572L168.951 512.827" stroke="black" stroke-width="1.72527" stroke-linecap="round" stroke-linejoin="round"/>
<path id="Rectangle 1784_2" d="M168.952 512.827V468.571L14.4668 310.242V391.958" stroke="black" stroke-width="1.72527" stroke-linecap="round" stroke-linejoin="round"/>
<path id="Vector 424" d="M461.819 94.021L500.214 71.8794" stroke="black" stroke-width="1.69595" stroke-linecap="round"/>
</g>
<defs>
<linearGradient id="paint0_linear" x1="147.362" y1="275.392" x2="105.316" y2="317.439" gradientUnits="userSpaceOnUse">
<stop stop-color="white" stop-opacity="0.4"/>
<stop offset="1" stop-color="white" stop-opacity="0"/>
</linearGradient>
<linearGradient id="paint1_linear" x1="170.682" y1="261.024" x2="127.788" y2="317.538" gradientUnits="userSpaceOnUse">
<stop stop-color="white" stop-opacity="0.4"/>
<stop offset="1" stop-color="white" stop-opacity="0"/>
</linearGradient>
</defs>
</svg>
