<svg width="416" height="299" viewBox="0 0 416 299" fill="none" xmlns="http://www.w3.org/2000/svg">
<path d="M181.074 256.625C181.68 256.975 182.473 257.15 183.266 257.151C184.063 257.152 184.86 256.977 185.468 256.625C186.075 256.275 186.378 255.816 186.378 255.357L186.378 218.646L180.164 218.646L180.164 255.357C180.164 255.816 180.468 256.275 181.074 256.625Z" fill="#FAC864" stroke="black" stroke-width="0.56586" stroke-linecap="round" stroke-linejoin="round"/>
<path d="M185.487 217.369C186.71 218.074 186.71 219.218 185.487 219.924C184.265 220.63 182.284 220.63 181.061 219.924C179.839 219.218 179.839 218.074 181.061 217.369C182.284 216.663 184.265 216.663 185.487 217.369Z" fill="#FFE598" stroke="black" stroke-width="0.56586" stroke-linecap="round" stroke-linejoin="round"/>
<path d="M272.438 203.999C273.651 204.699 275.618 204.699 276.831 203.999C277.438 203.648 277.741 203.189 277.741 202.73L277.741 166.02L271.527 166.02L271.528 202.73C271.528 203.189 271.831 203.648 272.438 203.999Z" fill="#FAC864" stroke="black" stroke-width="0.56586" stroke-linecap="round" stroke-linejoin="round"/>
<path d="M276.853 164.742C278.075 165.447 278.075 166.591 276.853 167.297C275.63 168.003 273.649 168.003 272.426 167.297C271.204 166.591 271.204 165.447 272.426 164.742C273.649 164.036 275.63 164.036 276.853 164.742Z" fill="#FFE598" stroke="black" stroke-width="0.56586" stroke-linecap="round" stroke-linejoin="round"/>
<path d="M241.959 221.48C243.172 222.181 245.14 222.181 246.353 221.48C246.96 221.13 247.263 220.671 247.263 220.212L247.263 183.501L241.049 183.501L241.049 220.212C241.049 220.671 241.352 221.13 241.959 221.48Z" fill="#FAC864" stroke="black" stroke-width="0.56586" stroke-linecap="round" stroke-linejoin="round"/>
<path d="M246.374 182.224C247.596 182.929 247.596 184.073 246.374 184.779C245.152 185.485 243.17 185.485 241.948 184.779C240.726 184.073 240.726 182.929 241.948 182.224C243.17 181.518 245.152 181.518 246.374 182.224Z" fill="#FFE598" stroke="black" stroke-width="0.56586" stroke-linecap="round" stroke-linejoin="round"/>
<path d="M333.324 168.854C334.538 169.554 336.505 169.554 337.718 168.854C338.325 168.503 338.628 168.044 338.628 167.585L338.628 130.875L332.414 130.875L332.414 167.585C332.414 168.044 332.718 168.503 333.324 168.854Z" fill="#FAC864" stroke="black" stroke-width="0.56586" stroke-linecap="round" stroke-linejoin="round"/>
<path d="M337.739 129.597C338.962 130.302 338.962 131.446 337.739 132.152C336.517 132.858 334.535 132.858 333.313 132.152C332.091 131.446 332.091 130.302 333.313 129.597C334.535 128.891 336.517 128.891 337.739 129.597Z" fill="#FFE598" stroke="black" stroke-width="0.56586" stroke-linecap="round" stroke-linejoin="round"/>
<path d="M211.523 239.144C212.737 239.844 214.704 239.844 215.917 239.144C216.524 238.793 216.827 238.334 216.827 237.875L216.827 201.165L210.613 201.165L210.613 237.875C210.613 238.334 210.917 238.793 211.523 239.144Z" fill="#FAC864" stroke="black" stroke-width="0.56586" stroke-linecap="round" stroke-linejoin="round"/>
<path d="M215.939 199.887C217.161 200.592 217.161 201.736 215.939 202.442C214.716 203.148 212.735 203.148 211.512 202.442C210.29 201.736 210.29 200.592 211.512 199.887C212.735 199.181 214.716 199.181 215.939 199.887Z" fill="#FFE598" stroke="black" stroke-width="0.56586" stroke-linecap="round" stroke-linejoin="round"/>
<path d="M302.891 186.517C304.104 187.217 306.071 187.217 307.285 186.517C307.891 186.166 308.195 185.707 308.195 185.248L308.194 148.538L301.98 148.538L301.981 185.248C301.981 185.707 302.284 186.166 302.891 186.517Z" fill="#FAC864" stroke="black" stroke-width="0.56586" stroke-linecap="round" stroke-linejoin="round"/>
<path d="M307.306 147.26C308.528 147.965 308.528 149.11 307.306 149.815C306.084 150.521 304.102 150.521 302.88 149.815C301.657 149.11 301.657 147.965 302.88 147.26C304.102 146.554 306.084 146.554 307.306 147.26Z" fill="#FFE598" stroke="black" stroke-width="0.56586" stroke-linecap="round" stroke-linejoin="round"/>
<path d="M193.048 224.899L193.047 216.03L162.182 219.039L162.182 227.982L175.013 235.384L193.048 224.899Z" fill="#505050" stroke="black" stroke-width="0.905861" stroke-linecap="round" stroke-linejoin="round"/>
<path d="M174.955 226.374V235.245" stroke="black" stroke-width="0.906213"/>
<rect width="14.7931" height="20.771" transform="matrix(-0.866025 -0.5 -0.866025 0.5 193 215.993)" fill="#B3B3B3" stroke="black" stroke-width="0.905861" stroke-linecap="round" stroke-linejoin="round"/>
<path d="M77.7676 196.344C78.981 197.045 80.9482 197.045 82.1615 196.344C82.7682 195.994 83.0715 195.535 83.0715 195.076L83.0713 158.365L76.8574 158.365L76.8576 195.076C76.8576 195.535 77.161 195.994 77.7676 196.344Z" fill="#FAC864" stroke="black" stroke-width="0.56586" stroke-linecap="round" stroke-linejoin="round"/>
<path d="M82.1828 157.087C83.4051 157.793 83.4051 158.937 82.1828 159.643C80.9605 160.349 78.9788 160.349 77.7565 159.643C76.5343 158.937 76.5343 157.793 77.7565 157.087C78.9788 156.382 80.9605 156.382 82.1828 157.087Z" fill="#FFE598" stroke="black" stroke-width="0.56586" stroke-linecap="round" stroke-linejoin="round"/>
<path d="M223.934 207.009L223.934 198.14L193.068 201.15L193.068 210.092L205.9 217.494L223.934 207.009Z" fill="#505050" stroke="black" stroke-width="0.905861" stroke-linecap="round" stroke-linejoin="round"/>
<path d="M205.842 208.484V217.356" stroke="black" stroke-width="0.906213"/>
<rect width="14.7931" height="20.771" transform="matrix(-0.866025 -0.5 -0.866025 0.5 223.887 198.104)" fill="#B3B3B3" stroke="black" stroke-width="0.905861" stroke-linecap="round" stroke-linejoin="round"/>
<path d="M254.801 189.12L254.801 180.25L223.936 183.26L223.936 192.203L236.767 199.604L254.801 189.12Z" fill="#505050" stroke="black" stroke-width="0.905861" stroke-linecap="round" stroke-linejoin="round"/>
<path d="M236.711 190.594V199.466" stroke="black" stroke-width="0.906213"/>
<rect width="14.7931" height="20.771" transform="matrix(-0.866025 -0.5 -0.866025 0.5 254.754 180.214)" fill="#B3B3B3" stroke="black" stroke-width="0.905861" stroke-linecap="round" stroke-linejoin="round"/>
<path d="M285.665 169.781L285.664 160.912L254.799 163.921L254.799 172.864L267.63 180.265L285.665 169.781Z" fill="#505050" stroke="black" stroke-width="0.905861" stroke-linecap="round" stroke-linejoin="round"/>
<path d="M267.572 171.255V180.127" stroke="black" stroke-width="0.906213"/>
<rect width="14.7931" height="20.771" transform="matrix(-0.866025 -0.5 -0.866025 0.5 285.617 160.875)" fill="#B3B3B3" stroke="black" stroke-width="0.905861" stroke-linecap="round" stroke-linejoin="round"/>
<path d="M316.553 151.891L316.553 143.022L285.688 146.032L285.688 154.974L298.519 162.376L316.553 151.891Z" fill="#505050" stroke="black" stroke-width="0.905861" stroke-linecap="round" stroke-linejoin="round"/>
<path d="M298.461 153.366V162.238" stroke="black" stroke-width="0.906213"/>
<rect width="14.7931" height="20.771" transform="matrix(-0.866025 -0.5 -0.866025 0.5 316.506 142.985)" fill="#B3B3B3" stroke="black" stroke-width="0.905861" stroke-linecap="round" stroke-linejoin="round"/>
<path d="M347.35 134.002L347.35 125.133L316.484 128.142L316.484 137.085L329.316 144.487L347.35 134.002Z" fill="#505050" stroke="black" stroke-width="0.905861" stroke-linecap="round" stroke-linejoin="round"/>
<path d="M329.258 135.477V144.348" stroke="black" stroke-width="0.906213"/>
<rect width="14.7931" height="20.771" transform="matrix(-0.866025 -0.5 -0.866025 0.5 347.303 125.096)" fill="#B3B3B3" stroke="black" stroke-width="0.905861" stroke-linecap="round" stroke-linejoin="round"/>
<path d="M173.477 228.12L356.278 122.58C357.981 121.597 358.81 120.301 358.767 119.013V107.374L57.2363 154.158V166.024C57.2822 167.245 58.1117 168.457 59.7251 169.389L161.451 228.12C164.772 230.037 170.156 230.037 173.477 228.12Z" fill="#5E6FDB" stroke="black" stroke-width="0.905861" stroke-linecap="round" stroke-linejoin="round"/>
<rect width="131.35" height="224.967" rx="9.05861" transform="matrix(0.866025 0.5 -0.866025 0.5 248.539 41.4312)" fill="#B0B8ED" stroke="black" stroke-width="0.905861" stroke-linecap="round" stroke-linejoin="round"/>
<rect width="73.4162" height="56.5551" transform="matrix(0.866025 -0.5 0.866025 0.5 210.398 95.9463)" stroke="black" stroke-width="0.905861" stroke-linecap="round" stroke-linejoin="round"/>
<rect width="73.4162" height="56.5551" transform="matrix(0.866025 -0.5 0.866025 0.5 210.398 95.9463)" stroke="black" stroke-width="0.905861" stroke-linecap="round" stroke-linejoin="round"/>
<rect width="60.6517" height="3.85374" transform="matrix(0.866025 -0.5 0.866025 0.5 224.273 95.2627)" fill="#E5E5E5" stroke="black" stroke-width="0.905861" stroke-linecap="round" stroke-linejoin="round"/>
<rect width="60.6517" height="3.85374" transform="matrix(0.866025 -0.5 0.866025 0.5 237.59 102.871)" fill="#E5E5E5" stroke="black" stroke-width="0.905861" stroke-linecap="round" stroke-linejoin="round"/>
<rect width="60.6517" height="3.85374" transform="matrix(0.866025 -0.5 0.866025 0.5 250.859 110.48)" fill="#E5E5E5" stroke="black" stroke-width="0.905861" stroke-linecap="round" stroke-linejoin="round"/>
<rect width="60.6517" height="3.85374" transform="matrix(0.866025 -0.5 0.866025 0.5 230.887 99.0669)" fill="#E5E5E5" stroke="black" stroke-width="0.905861" stroke-linecap="round" stroke-linejoin="round"/>
<rect width="60.6517" height="3.85374" transform="matrix(0.866025 -0.5 0.866025 0.5 244.201 106.676)" fill="#E5E5E5" stroke="black" stroke-width="0.905861" stroke-linecap="round" stroke-linejoin="round"/>
<rect width="60.6517" height="3.85374" transform="matrix(0.866025 -0.5 0.866025 0.5 257.518 114.284)" fill="#E5E5E5" stroke="black" stroke-width="0.905861" stroke-linecap="round" stroke-linejoin="round"/>
<path d="M271.752 112.377L318.885 85.1647L318.885 77.4365L230.917 81.1277L230.917 88.801L271.752 112.377Z" fill="#C4C4C4"/>
<path d="M271.752 112.377L318.885 85.1647L318.885 77.4365L230.917 81.1277L230.917 88.801L271.752 112.377ZM271.752 112.377L271.752 104.701" stroke="black" stroke-width="0.905861" stroke-linecap="round" stroke-linejoin="round"/>
<rect width="54.4249" height="47.1522" transform="matrix(0.866025 -0.5 0.866025 0.5 230.916 81.0981)" fill="#E5E5E5" stroke="black" stroke-width="0.905861" stroke-linecap="round" stroke-linejoin="round"/>
<rect width="25.1838" height="24.6813" transform="matrix(0.866025 -0.5 0.866025 0.5 158.238 142.734)" fill="#E5E5E5" stroke="black" stroke-width="0.905861" stroke-linecap="round" stroke-linejoin="round"/>
<path d="M179.832 152.709L197.482 142.519L197.482 140.345L162.181 140.345L162.181 142.519L179.832 152.709Z" fill="#464646"/>
<path d="M179.832 152.709L197.482 142.519L197.482 140.345H162.181L162.181 142.519L179.832 152.709ZM179.832 152.709L179.832 150.558" stroke="black" stroke-width="0.905861" stroke-linecap="round" stroke-linejoin="round"/>
<rect width="20.3805" height="20.3805" transform="matrix(0.866025 -0.5 0.866025 0.5 162.182 140.345)" fill="#464646" stroke="black" stroke-width="0.905861" stroke-linecap="round" stroke-linejoin="round"/>
<rect width="15.1228" height="18.0959" rx="7.56138" transform="matrix(0.866025 0.5 -0.866025 0.5 336.756 106.727)" fill="#5E6FDB" stroke="black" stroke-width="0.905861" stroke-linecap="round" stroke-linejoin="round"/>
<rect width="15.1228" height="16.9856" rx="7.56138" transform="matrix(0.866025 0.5 -0.866025 0.5 306.01 124.478)" fill="#5E6FDB" stroke="black" stroke-width="0.905861" stroke-linecap="round" stroke-linejoin="round"/>
<rect width="15.1228" height="17.141" rx="7.56138" transform="matrix(0.866025 0.5 -0.866025 0.5 275.951 141.833)" fill="#5E6FDB" stroke="black" stroke-width="0.905861" stroke-linecap="round" stroke-linejoin="round"/>
<rect width="15.1228" height="17.1429" rx="7.56138" transform="matrix(0.866025 0.5 -0.866025 0.5 245.367 159.489)" fill="#5E6FDB" stroke="black" stroke-width="0.905861" stroke-linecap="round" stroke-linejoin="round"/>
<rect width="15.1228" height="17.4707" rx="7.56138" transform="matrix(0.866025 0.5 -0.866025 0.5 214.557 177.277)" fill="#5E6FDB" stroke="black" stroke-width="0.905861" stroke-linecap="round" stroke-linejoin="round"/>
<rect width="15.1228" height="16.6061" rx="7.56138" transform="matrix(0.866025 0.5 -0.866025 0.5 183.5 195.208)" fill="#5E6FDB" stroke="black" stroke-width="0.905861" stroke-linecap="round" stroke-linejoin="round"/>
<path d="M179.592 204.93C181.629 206.105 184.931 206.105 186.967 204.93C188.237 204.197 188.715 203.18 188.402 202.233L184.872 194.557H181.701L178.157 202.233C177.844 203.18 178.323 204.197 179.592 204.93Z" fill="#D9D9D9" stroke="black" stroke-width="0.905861" stroke-linecap="round" stroke-linejoin="round"/>
<circle r="1.32444" transform="matrix(0.866025 -0.5 0.866025 0.5 183.278 194.567)" fill="#D9D9D9" stroke="black" stroke-width="0.905861" stroke-linecap="round" stroke-linejoin="round"/>
<path d="M210.041 187.085C212.078 188.261 215.38 188.261 217.417 187.085C218.686 186.352 219.164 185.336 218.851 184.389L215.321 176.712H212.151L208.606 184.389C208.294 185.336 208.772 186.352 210.041 187.085Z" fill="#D9D9D9" stroke="black" stroke-width="0.905861" stroke-linecap="round" stroke-linejoin="round"/>
<circle r="1.32444" transform="matrix(0.866025 -0.5 0.866025 0.5 213.728 176.723)" fill="#D9D9D9" stroke="black" stroke-width="0.905861" stroke-linecap="round" stroke-linejoin="round"/>
<path d="M240.475 169.241C242.511 170.417 245.814 170.417 247.85 169.241C249.12 168.508 249.598 167.492 249.285 166.545L245.754 158.868H242.584L239.04 166.545C238.727 167.492 239.205 168.508 240.475 169.241Z" fill="#D9D9D9" stroke="black" stroke-width="0.905861" stroke-linecap="round" stroke-linejoin="round"/>
<circle r="1.32444" transform="matrix(0.866025 -0.5 0.866025 0.5 244.163 158.879)" fill="#D9D9D9" stroke="black" stroke-width="0.905861" stroke-linecap="round" stroke-linejoin="round"/>
<path d="M270.955 151.578C272.992 152.754 276.294 152.754 278.331 151.578C279.6 150.845 280.078 149.828 279.765 148.882L276.235 141.205H273.065L269.521 148.882C269.208 149.828 269.686 150.845 270.955 151.578Z" fill="#D9D9D9" stroke="black" stroke-width="0.905861" stroke-linecap="round" stroke-linejoin="round"/>
<circle r="1.32444" transform="matrix(0.866025 -0.5 0.866025 0.5 274.644 141.216)" fill="#D9D9D9" stroke="black" stroke-width="0.905861" stroke-linecap="round" stroke-linejoin="round"/>
<path d="M301.391 133.915C303.427 135.091 306.73 135.091 308.766 133.915C310.036 133.182 310.514 132.165 310.201 131.219L306.67 123.542H303.5L299.956 131.219C299.643 132.165 300.121 133.182 301.391 133.915Z" fill="#D9D9D9" stroke="black" stroke-width="0.905861" stroke-linecap="round" stroke-linejoin="round"/>
<circle r="1.32444" transform="matrix(0.866025 -0.5 0.866025 0.5 305.079 123.553)" fill="#D9D9D9" stroke="black" stroke-width="0.905861" stroke-linecap="round" stroke-linejoin="round"/>
<path d="M331.826 116.795C333.863 117.971 337.165 117.971 339.202 116.795C340.471 116.062 340.949 115.046 340.636 114.099L337.106 106.422H333.936L330.392 114.099C330.079 115.046 330.557 116.062 331.826 116.795Z" fill="#D9D9D9" stroke="black" stroke-width="0.905861" stroke-linecap="round" stroke-linejoin="round"/>
<circle r="1.32444" transform="matrix(0.866025 -0.5 0.866025 0.5 335.515 106.433)" fill="#D9D9D9" stroke="black" stroke-width="0.905861" stroke-linecap="round" stroke-linejoin="round"/>
<rect width="15.1228" height="18.0959" rx="7.56138" transform="matrix(0.866025 0.5 -0.866025 0.5 236.248 48.3477)" fill="#5E6FDB" stroke="black" stroke-width="0.905861" stroke-linecap="round" stroke-linejoin="round"/>
<rect width="15.1228" height="16.9856" rx="7.56138" transform="matrix(0.866025 0.5 -0.866025 0.5 205.502 66.0986)" fill="#5E6FDB" stroke="black" stroke-width="0.905861" stroke-linecap="round" stroke-linejoin="round"/>
<rect width="15.1228" height="17.141" rx="7.56138" transform="matrix(0.866025 0.5 -0.866025 0.5 175.443 83.4531)" fill="#5E6FDB" stroke="black" stroke-width="0.905861" stroke-linecap="round" stroke-linejoin="round"/>
<rect width="15.1228" height="17.1429" rx="7.56138" transform="matrix(0.866025 0.5 -0.866025 0.5 144.859 101.11)" fill="#5E6FDB" stroke="black" stroke-width="0.905861" stroke-linecap="round" stroke-linejoin="round"/>
<rect width="15.1228" height="17.4707" rx="7.56138" transform="matrix(0.866025 0.5 -0.866025 0.5 114.049 118.898)" fill="#5E6FDB" stroke="black" stroke-width="0.905861" stroke-linecap="round" stroke-linejoin="round"/>
<rect width="15.1228" height="16.6061" rx="7.56138" transform="matrix(0.866025 0.5 -0.866025 0.5 82.9922 136.829)" fill="#5E6FDB" stroke="black" stroke-width="0.905861" stroke-linecap="round" stroke-linejoin="round"/>
<path d="M79.0841 146.551C81.1208 147.727 84.4229 147.727 86.4596 146.551C87.729 145.818 88.2072 144.801 87.8943 143.854L84.3638 136.178H81.1936L77.6495 143.854C77.3366 144.801 77.8148 145.818 79.0841 146.551Z" fill="#D9D9D9" stroke="black" stroke-width="0.905861" stroke-linecap="round" stroke-linejoin="round"/>
<circle r="1.32444" transform="matrix(0.866025 -0.5 0.866025 0.5 82.7706 136.188)" fill="#D9D9D9" stroke="black" stroke-width="0.905861" stroke-linecap="round" stroke-linejoin="round"/>
<path d="M109.533 128.706C111.57 129.882 114.872 129.882 116.909 128.706C118.178 127.974 118.656 126.957 118.344 126.01L114.813 118.333H111.643L108.099 126.01C107.786 126.957 108.264 127.974 109.533 128.706Z" fill="#D9D9D9" stroke="black" stroke-width="0.905861" stroke-linecap="round" stroke-linejoin="round"/>
<circle r="1.32444" transform="matrix(0.866025 -0.5 0.866025 0.5 113.22 118.344)" fill="#D9D9D9" stroke="black" stroke-width="0.905861" stroke-linecap="round" stroke-linejoin="round"/>
<path d="M139.969 110.862C142.006 112.038 145.308 112.038 147.344 110.862C148.614 110.129 149.092 109.113 148.779 108.166L145.249 100.489H142.078L138.534 108.166C138.221 109.113 138.7 110.129 139.969 110.862Z" fill="#D9D9D9" stroke="black" stroke-width="0.905861" stroke-linecap="round" stroke-linejoin="round"/>
<circle r="1.32444" transform="matrix(0.866025 -0.5 0.866025 0.5 143.655 100.5)" fill="#D9D9D9" stroke="black" stroke-width="0.905861" stroke-linecap="round" stroke-linejoin="round"/>
<path d="M170.447 93.1991C172.484 94.3749 175.786 94.3749 177.823 93.1991C179.092 92.4662 179.57 91.4495 179.258 90.5028L175.727 82.8262H172.557L169.013 90.5028C168.7 91.4495 169.178 92.4662 170.447 93.1991Z" fill="#D9D9D9" stroke="black" stroke-width="0.905861" stroke-linecap="round" stroke-linejoin="round"/>
<circle r="1.32444" transform="matrix(0.866025 -0.5 0.866025 0.5 174.134 82.8369)" fill="#D9D9D9" stroke="black" stroke-width="0.905861" stroke-linecap="round" stroke-linejoin="round"/>
<path d="M200.883 75.536C202.92 76.7119 206.222 76.7119 208.258 75.536C209.528 74.8031 210.006 73.7864 209.693 72.8397L206.163 65.1631H202.992L199.448 72.8397C199.135 73.7864 199.614 74.8031 200.883 75.536Z" fill="#D9D9D9" stroke="black" stroke-width="0.905861" stroke-linecap="round" stroke-linejoin="round"/>
<circle r="1.32444" transform="matrix(0.866025 -0.5 0.866025 0.5 204.569 65.1738)" fill="#D9D9D9" stroke="black" stroke-width="0.905861" stroke-linecap="round" stroke-linejoin="round"/>
<path d="M231.319 58.4164C233.355 59.5922 236.657 59.5922 238.694 58.4164C239.963 57.6835 240.442 56.6668 240.129 55.7201L236.598 48.0435H233.428L229.884 55.7201C229.571 56.6668 230.049 57.6835 231.319 58.4164Z" fill="#D9D9D9" stroke="black" stroke-width="0.905861" stroke-linecap="round" stroke-linejoin="round"/>
<circle r="1.32444" transform="matrix(0.866025 -0.5 0.866025 0.5 235.007 48.0542)" fill="#D9D9D9" stroke="black" stroke-width="0.905861" stroke-linecap="round" stroke-linejoin="round"/>
<path d="M110.907 154.21L110.907 148.563L91.2578 150.479L91.2578 156.172L99.4263 160.884L110.907 154.21Z" fill="#C4C4C4" stroke="black" stroke-width="0.905861" stroke-linecap="round" stroke-linejoin="round"/>
<path d="M99.3887 155.148V160.796" stroke="black" stroke-width="0.906213"/>
<rect width="9.41729" height="13.2228" transform="matrix(-0.866025 -0.5 -0.866025 0.5 110.877 148.54)" fill="#D9D9D9" stroke="black" stroke-width="0.905861" stroke-linecap="round" stroke-linejoin="round"/>
<path d="M98.9967 150.649C99.5719 150.981 100.325 151.148 101.079 151.148C101.836 151.149 102.594 150.983 103.172 150.649C103.748 150.316 104.036 149.88 104.036 149.444L104.035 147.695L98.1309 147.695L98.1321 149.444C98.1321 149.88 98.4203 150.316 98.9967 150.649Z" fill="black" stroke="black" stroke-width="0.56586" stroke-linecap="round" stroke-linejoin="round"/>
<path d="M103.19 146.481C104.351 147.151 104.351 148.239 103.19 148.909C102.029 149.58 100.146 149.58 98.9843 148.909C97.8229 148.239 97.8229 147.151 98.9843 146.481C100.146 145.81 102.029 145.81 103.19 146.481Z" fill="#505050" stroke="black" stroke-width="0.56586" stroke-linecap="round" stroke-linejoin="round"/>
<path d="M172.005 189.853L172.005 184.207L152.355 186.123L152.355 191.816L160.524 196.528L172.005 189.853Z" fill="#C4C4C4" stroke="black" stroke-width="0.905861" stroke-linecap="round" stroke-linejoin="round"/>
<path d="M160.486 190.792V196.44" stroke="black" stroke-width="0.906213"/>
<rect width="9.41729" height="13.2228" transform="matrix(-0.866025 -0.5 -0.866025 0.5 171.975 184.184)" fill="#D9D9D9" stroke="black" stroke-width="0.905861" stroke-linecap="round" stroke-linejoin="round"/>
<path d="M160.092 186.293C160.668 186.625 161.421 186.791 162.175 186.792C162.932 186.793 163.69 186.626 164.267 186.293C164.844 185.96 165.132 185.524 165.132 185.088L165.131 183.338L159.227 183.338L159.228 185.088C159.228 185.524 159.516 185.96 160.092 186.293Z" fill="black" stroke="black" stroke-width="0.56586" stroke-linecap="round" stroke-linejoin="round"/>
<path d="M164.286 182.124C165.447 182.795 165.447 183.882 164.286 184.553C163.124 185.223 161.241 185.223 160.08 184.553C158.919 183.882 158.919 182.795 160.08 182.124C161.241 181.454 163.124 181.454 164.286 182.124Z" fill="#505050" stroke="black" stroke-width="0.56586" stroke-linecap="round" stroke-linejoin="round"/>
<path d="M124.222 194.254L168.259 168.829L168.259 157.471L96.5376 166.891L96.5375 178.271L124.222 194.254Z" fill="#C4C4C4"/>
<path d="M124.222 194.254L168.259 168.829L168.259 157.471L96.5375 166.891L96.5375 178.271L124.222 194.254ZM124.222 194.254L124.222 182.697" stroke="black" stroke-width="0.905861" stroke-linecap="round" stroke-linejoin="round"/>
<path d="M96.5365 178.287L124.221 194.27L124.221 182.849L96.5365 166.907L96.5365 178.287Z" fill="#505050" stroke="black" stroke-width="0.905861" stroke-linecap="round" stroke-linejoin="round"/>
<path d="M98.8669 177.268L124.194 191.891L124.194 181.442L98.8668 168.02L98.8669 177.268Z" fill="black" stroke="black" stroke-width="0.905861" stroke-linecap="round" stroke-linejoin="round"/>
<rect width="31.9669" height="50.8503" transform="matrix(0.866025 0.5 -0.866025 0.5 140.574 141.477)" fill="#E5E5E5" stroke="black" stroke-width="0.905861" stroke-linecap="round" stroke-linejoin="round"/>
<rect width="2.67453" height="10.613" rx="1.33727" transform="matrix(-0.866025 -0.5 -0.866025 0.5 121.918 162.107)" fill="#505050" stroke="black" stroke-width="0.905861" stroke-linecap="round" stroke-linejoin="round"/>
<rect width="2.67453" height="10.613" rx="1.33727" transform="matrix(-0.866025 -0.5 -0.866025 0.5 134.012 168.976)" fill="#505050" stroke="black" stroke-width="0.905861" stroke-linecap="round" stroke-linejoin="round"/>
<rect width="5.0993" height="35.9089" transform="matrix(0.866025 -0.5 0.866025 0.5 203.719 109.943)" fill="#E5E5E5" stroke="black" stroke-width="0.905861" stroke-linecap="round" stroke-linejoin="round"/>
<rect width="5.79616" height="35.9089" transform="matrix(0.866025 -0.5 0.866025 0.5 194.18 115.452)" fill="#E5E5E5" stroke="black" stroke-width="0.905861" stroke-linecap="round" stroke-linejoin="round"/>
<rect width="5.87956" height="35.9089" transform="matrix(0.866025 -0.5 0.866025 0.5 184.021 121.315)" fill="#E5E5E5" stroke="black" stroke-width="0.905861" stroke-linecap="round" stroke-linejoin="round"/>
<rect width="34.146" height="42.3046" transform="matrix(0.866025 -0.5 0.866025 0.5 178.623 121.465)" stroke="black" stroke-width="0.905861" stroke-linecap="round" stroke-linejoin="round"/>
<rect width="70.9937" height="78.3692" transform="matrix(0.866025 -0.5 0.866025 0.5 131.096 130.873)" stroke="black" stroke-width="0.905861" stroke-linecap="round" stroke-linejoin="round"/>
<circle r="2.13905" transform="matrix(0.866025 0.5 -0.866025 0.5 271.502 98.371)" fill="#7C7C7C" stroke="black" stroke-width="0.905861" stroke-linecap="round" stroke-linejoin="round"/>
<path d="M207.664 134.88L231.586 121.068L231.586 114.71L191.632 119.285L191.632 125.623L207.664 134.88Z" fill="#464646"/>
<path d="M207.664 134.88L231.586 121.068L231.586 114.71L191.632 119.285L191.632 125.623L207.664 134.88ZM207.664 134.88L207.664 128.637" stroke="black" stroke-width="0.905861" stroke-linecap="round" stroke-linejoin="round"/>
<rect width="27.6231" height="18.5122" transform="matrix(0.866025 -0.5 0.866025 0.5 191.633 119.279)" fill="#464646" stroke="black" stroke-width="0.905861" stroke-linecap="round" stroke-linejoin="round"/>
</svg>
