<svg width="404" height="283" viewBox="0 0 404 283" fill="none" xmlns="http://www.w3.org/2000/svg">
<path d="M237.252 281.177C236.462 281.633 235.428 281.861 234.393 281.862C233.353 281.863 232.313 281.635 231.52 281.177C230.728 280.72 230.332 280.121 230.332 279.522L230.333 231.628L238.439 231.628L238.439 279.522C238.439 280.121 238.043 280.72 237.252 281.177Z" fill="#FAC864" stroke="black" stroke-width="0.56586" stroke-linecap="round" stroke-linejoin="round"/>
<path d="M231.492 229.961C229.898 230.882 229.898 232.375 231.492 233.295C233.087 234.216 235.672 234.216 237.267 233.295C238.862 232.375 238.862 230.882 237.267 229.961C235.672 229.041 233.087 229.041 231.492 229.961Z" fill="#FFE598" stroke="black" stroke-width="0.56586" stroke-linecap="round" stroke-linejoin="round"/>
<path d="M118.053 212.518C116.47 213.432 113.903 213.432 112.32 212.518C111.529 212.061 111.133 211.462 111.133 210.863L111.133 162.97L119.24 162.97L119.24 210.863C119.24 211.462 118.844 212.061 118.053 212.518Z" fill="#FAC864" stroke="black" stroke-width="0.56586" stroke-linecap="round" stroke-linejoin="round"/>
<path d="M112.293 161.303C110.699 162.223 110.699 163.716 112.293 164.637C113.888 165.557 116.473 165.557 118.068 164.637C119.662 163.716 119.662 162.223 118.068 161.303C116.473 160.382 113.888 160.382 112.293 161.303Z" fill="#FFE598" stroke="black" stroke-width="0.56586" stroke-linecap="round" stroke-linejoin="round"/>
<path d="M157.818 235.326C156.235 236.24 153.669 236.24 152.086 235.326C151.295 234.869 150.899 234.27 150.899 233.671L150.899 185.777L159.006 185.777L159.006 233.671C159.006 234.27 158.61 234.869 157.818 235.326Z" fill="#FAC864" stroke="black" stroke-width="0.56586" stroke-linecap="round" stroke-linejoin="round"/>
<path d="M152.059 184.11C150.464 185.031 150.464 186.524 152.059 187.444C153.653 188.365 156.239 188.365 157.833 187.444C159.428 186.524 159.428 185.031 157.833 184.11C156.239 183.19 153.653 183.19 152.059 184.11Z" fill="#FFE598" stroke="black" stroke-width="0.56586" stroke-linecap="round" stroke-linejoin="round"/>
<path d="M38.6172 166.667C37.0343 167.581 34.4678 167.581 32.8848 166.667C32.0933 166.21 31.6976 165.611 31.6976 165.012L31.6979 117.119L39.8047 117.119L39.8044 165.012C39.8044 165.611 39.4087 166.21 38.6172 166.667Z" fill="#FAC864" stroke="black" stroke-width="0.56586" stroke-linecap="round" stroke-linejoin="round"/>
<path d="M32.8576 115.452C31.263 116.372 31.263 117.865 32.8576 118.786C34.4522 119.706 37.0376 119.706 38.6322 118.786C40.2268 117.865 40.2268 116.372 38.6322 115.452C37.0376 114.531 34.4522 114.531 32.8576 115.452Z" fill="#FFE598" stroke="black" stroke-width="0.56586" stroke-linecap="round" stroke-linejoin="round"/>
<path d="M197.523 258.369C195.941 259.283 193.374 259.283 191.791 258.369C191 257.912 190.604 257.313 190.604 256.714L190.604 208.821L198.711 208.821L198.711 256.714C198.711 257.313 198.315 257.912 197.523 258.369Z" fill="#FAC864" stroke="black" stroke-width="0.56586" stroke-linecap="round" stroke-linejoin="round"/>
<path d="M191.764 207.154C190.169 208.075 190.169 209.567 191.764 210.488C193.358 211.408 195.944 211.408 197.538 210.488C199.133 209.567 199.133 208.075 197.538 207.154C195.944 206.233 193.358 206.233 191.764 207.154Z" fill="#FFE598" stroke="black" stroke-width="0.56586" stroke-linecap="round" stroke-linejoin="round"/>
<path d="M78.3242 189.711C76.7413 190.625 74.1748 190.625 72.5918 189.711C71.8004 189.254 71.4046 188.655 71.4046 188.056L71.4049 140.163L79.5117 140.163L79.5115 188.056C79.5115 188.655 79.1157 189.254 78.3242 189.711Z" fill="#FAC864" stroke="black" stroke-width="0.56586" stroke-linecap="round" stroke-linejoin="round"/>
<path d="M72.5646 138.496C70.97 139.416 70.97 140.909 72.5646 141.83C74.1592 142.75 76.7446 142.75 78.3392 141.83C79.9338 140.909 79.9338 139.416 78.3392 138.496C76.7446 137.575 74.1592 137.575 72.5646 138.496Z" fill="#FFE598" stroke="black" stroke-width="0.56586" stroke-linecap="round" stroke-linejoin="round"/>
<path d="M221.63 239.786L221.63 228.215L261.898 232.141L261.898 243.808L245.158 253.464L221.63 239.786Z" fill="#505050" stroke="black" stroke-width="0.905861" stroke-linecap="round" stroke-linejoin="round"/>
<path d="M245.232 241.71V253.284" stroke="black" stroke-width="0.906213"/>
<rect width="19.2995" height="27.0985" transform="matrix(0.866025 -0.5 0.866025 0.5 221.691 228.167)" fill="#B3B3B3" stroke="black" stroke-width="0.905861" stroke-linecap="round" stroke-linejoin="round"/>
<path d="M372.031 202.533C370.448 203.447 367.882 203.447 366.299 202.533C365.507 202.076 365.112 201.477 365.112 200.878L365.112 152.984L373.219 152.984L373.218 200.878C373.218 201.477 372.823 202.076 372.031 202.533Z" fill="#FAC864" stroke="black" stroke-width="0.56586" stroke-linecap="round" stroke-linejoin="round"/>
<path d="M366.27 151.317C364.675 152.238 364.675 153.731 366.27 154.651C367.864 155.572 370.45 155.572 372.044 154.651C373.639 153.731 373.639 152.238 372.044 151.317C370.45 150.397 367.864 150.397 366.27 151.317Z" fill="#FFE598" stroke="black" stroke-width="0.56586" stroke-linecap="round" stroke-linejoin="round"/>
<path d="M181.333 216.447L181.333 204.875L221.602 208.802L221.602 220.469L204.861 230.125L181.333 216.447Z" fill="#505050" stroke="black" stroke-width="0.905861" stroke-linecap="round" stroke-linejoin="round"/>
<path d="M204.936 218.371V229.945" stroke="black" stroke-width="0.906213"/>
<rect width="19.2995" height="27.0985" transform="matrix(0.866025 -0.5 0.866025 0.5 181.395 204.828)" fill="#B3B3B3" stroke="black" stroke-width="0.905861" stroke-linecap="round" stroke-linejoin="round"/>
<path d="M141.064 193.107L141.064 181.536L181.332 185.462L181.332 197.129L164.592 206.786L141.064 193.107Z" fill="#505050" stroke="black" stroke-width="0.905861" stroke-linecap="round" stroke-linejoin="round"/>
<path d="M164.666 195.031V206.606" stroke="black" stroke-width="0.906213"/>
<rect width="19.2995" height="27.0985" transform="matrix(0.866025 -0.5 0.866025 0.5 141.125 181.489)" fill="#B3B3B3" stroke="black" stroke-width="0.905861" stroke-linecap="round" stroke-linejoin="round"/>
<path d="M100.798 167.877L100.798 156.306L141.066 160.232L141.066 171.899L124.326 181.556L100.798 167.877Z" fill="#505050" stroke="black" stroke-width="0.905861" stroke-linecap="round" stroke-linejoin="round"/>
<path d="M124.4 169.801V181.376" stroke="black" stroke-width="0.906213"/>
<rect width="19.2995" height="27.0985" transform="matrix(0.866025 -0.5 0.866025 0.5 100.859 156.259)" fill="#B3B3B3" stroke="black" stroke-width="0.905861" stroke-linecap="round" stroke-linejoin="round"/>
<path d="M60.503 144.538L60.5033 132.967L100.771 136.893L100.771 148.56L84.0313 158.216L60.503 144.538Z" fill="#505050" stroke="black" stroke-width="0.905861" stroke-linecap="round" stroke-linejoin="round"/>
<path d="M84.1035 146.462V158.036" stroke="black" stroke-width="0.906213"/>
<rect width="19.2995" height="27.0985" transform="matrix(0.866025 -0.5 0.866025 0.5 60.5625 132.919)" fill="#B3B3B3" stroke="black" stroke-width="0.905861" stroke-linecap="round" stroke-linejoin="round"/>
<path d="M20.3213 121.199L20.3217 109.628L60.5898 113.554L60.5898 125.221L43.8496 134.877L20.3213 121.199Z" fill="#505050" stroke="black" stroke-width="0.905861" stroke-linecap="round" stroke-linejoin="round"/>
<path d="M43.9238 123.123V134.697" stroke="black" stroke-width="0.906213"/>
<rect width="19.2995" height="27.0985" transform="matrix(0.866025 -0.5 0.866025 0.5 20.3828 109.581)" fill="#B3B3B3" stroke="black" stroke-width="0.905861" stroke-linecap="round" stroke-linejoin="round"/>
<path d="M247.162 243.988L8.67401 106.297C6.45316 105.015 5.37067 103.325 5.42657 101.644V86.459L398.812 147.495V162.976C398.753 164.568 397.67 166.15 395.566 167.366L262.852 243.988C258.519 246.49 251.494 246.49 247.162 243.988Z" fill="#55A398" stroke="black" stroke-width="0.905861" stroke-linecap="round" stroke-linejoin="round"/>
<rect width="171.362" height="293.499" rx="9.05861" transform="matrix(-0.866025 0.5 0.866025 0.5 149.234 0.428711)" fill="#BDDCD8" stroke="black" stroke-width="0.905861" stroke-linecap="round" stroke-linejoin="round"/>
<rect width="95.7808" height="73.7833" transform="matrix(-0.866025 -0.5 -0.866025 0.5 198.994 71.5503)" stroke="black" stroke-width="0.905861" stroke-linecap="round" stroke-linejoin="round"/>
<rect width="95.7808" height="73.7833" transform="matrix(-0.866025 -0.5 -0.866025 0.5 198.994 71.5503)" stroke="black" stroke-width="0.905861" stroke-linecap="round" stroke-linejoin="round"/>
<rect width="79.1279" height="5.0277" transform="matrix(-0.866025 -0.5 -0.866025 0.5 180.891 70.6587)" fill="#E5E5E5" stroke="black" stroke-width="0.905861" stroke-linecap="round" stroke-linejoin="round"/>
<rect width="79.1279" height="5.0277" transform="matrix(-0.866025 -0.5 -0.866025 0.5 163.52 80.585)" fill="#E5E5E5" stroke="black" stroke-width="0.905861" stroke-linecap="round" stroke-linejoin="round"/>
<rect width="79.1279" height="5.0277" transform="matrix(-0.866025 -0.5 -0.866025 0.5 146.207 90.5117)" fill="#E5E5E5" stroke="black" stroke-width="0.905861" stroke-linecap="round" stroke-linejoin="round"/>
<rect width="79.1279" height="5.0277" transform="matrix(-0.866025 -0.5 -0.866025 0.5 172.266 75.6216)" fill="#E5E5E5" stroke="black" stroke-width="0.905861" stroke-linecap="round" stroke-linejoin="round"/>
<rect width="79.1279" height="5.0277" transform="matrix(-0.866025 -0.5 -0.866025 0.5 154.893 85.5483)" fill="#E5E5E5" stroke="black" stroke-width="0.905861" stroke-linecap="round" stroke-linejoin="round"/>
<rect width="79.1279" height="5.0277" transform="matrix(-0.866025 -0.5 -0.866025 0.5 137.521 95.4751)" fill="#E5E5E5" stroke="black" stroke-width="0.905861" stroke-linecap="round" stroke-linejoin="round"/>
<path d="M118.95 92.9871L57.4589 57.485L57.4589 47.4026L172.225 52.2182L172.225 62.2291L118.95 92.9871Z" fill="#C4C4C4"/>
<path d="M118.95 92.9871L57.4589 57.485L57.4589 47.4026L172.225 52.2182L172.225 62.2291L118.95 92.9871ZM118.95 92.9871L118.95 82.9727" stroke="black" stroke-width="0.905861" stroke-linecap="round" stroke-linejoin="round"/>
<rect width="71.0042" height="61.516" transform="matrix(-0.866025 -0.5 -0.866025 0.5 172.225 52.1797)" fill="#E5E5E5" stroke="black" stroke-width="0.905861" stroke-linecap="round" stroke-linejoin="round"/>
<rect width="32.8555" height="32.1999" transform="matrix(-0.866025 -0.5 -0.866025 0.5 267.043 132.592)" fill="#E5E5E5" stroke="black" stroke-width="0.905861" stroke-linecap="round" stroke-linejoin="round"/>
<path d="M238.873 145.605L215.846 132.31L215.846 129.474L261.899 129.474L261.899 132.31L238.873 145.605Z" fill="#464646"/>
<path d="M238.873 145.605L215.846 132.31L215.846 129.474H261.899L261.899 132.31L238.873 145.605ZM238.873 145.605L238.873 142.798" stroke="black" stroke-width="0.905861" stroke-linecap="round" stroke-linejoin="round"/>
<rect width="26.589" height="26.589" transform="matrix(-0.866025 -0.5 -0.866025 0.5 261.898 129.474)" fill="#464646" stroke="black" stroke-width="0.905861" stroke-linecap="round" stroke-linejoin="round"/>
<rect width="19.7296" height="23.6085" rx="9.05861" transform="matrix(-0.866025 0.5 0.866025 0.5 34.1465 85.6147)" fill="#55A398" stroke="black" stroke-width="0.905861" stroke-linecap="round" stroke-linejoin="round"/>
<rect width="19.7296" height="22.1599" rx="9.05861" transform="matrix(-0.866025 0.5 0.866025 0.5 74.2578 108.773)" fill="#55A398" stroke="black" stroke-width="0.905861" stroke-linecap="round" stroke-linejoin="round"/>
<rect width="19.7296" height="22.3626" rx="9.05861" transform="matrix(-0.866025 0.5 0.866025 0.5 113.473 131.415)" fill="#55A398" stroke="black" stroke-width="0.905861" stroke-linecap="round" stroke-linejoin="round"/>
<rect width="19.7296" height="22.3651" rx="9.05861" transform="matrix(-0.866025 0.5 0.866025 0.5 153.373 154.45)" fill="#55A398" stroke="black" stroke-width="0.905861" stroke-linecap="round" stroke-linejoin="round"/>
<rect width="19.7296" height="22.7927" rx="9.05861" transform="matrix(-0.866025 0.5 0.866025 0.5 193.568 177.658)" fill="#55A398" stroke="black" stroke-width="0.905861" stroke-linecap="round" stroke-linejoin="round"/>
<rect width="19.7296" height="21.6647" rx="9.05861" transform="matrix(-0.866025 0.5 0.866025 0.5 234.086 201.05)" fill="#55A398" stroke="black" stroke-width="0.905861" stroke-linecap="round" stroke-linejoin="round"/>
<path d="M239.185 213.733C236.528 215.267 232.22 215.267 229.563 213.733C227.907 212.777 227.283 211.45 227.691 210.215L232.297 200.2H236.433L241.057 210.215C241.465 211.45 240.841 212.777 239.185 213.733Z" fill="#D9D9D9" stroke="black" stroke-width="0.905861" stroke-linecap="round" stroke-linejoin="round"/>
<circle r="1.72791" transform="matrix(-0.866025 -0.5 -0.866025 0.5 234.374 200.215)" fill="#D9D9D9" stroke="black" stroke-width="0.905861" stroke-linecap="round" stroke-linejoin="round"/>
<path d="M199.46 190.453C196.803 191.987 192.495 191.987 189.838 190.453C188.182 189.497 187.558 188.17 187.966 186.935L192.572 176.92H196.708L201.332 186.935C201.74 188.17 201.116 189.497 199.46 190.453Z" fill="#D9D9D9" stroke="black" stroke-width="0.905861" stroke-linecap="round" stroke-linejoin="round"/>
<circle r="1.72791" transform="matrix(-0.866025 -0.5 -0.866025 0.5 194.65 176.935)" fill="#D9D9D9" stroke="black" stroke-width="0.905861" stroke-linecap="round" stroke-linejoin="round"/>
<path d="M159.755 167.173C157.098 168.707 152.79 168.707 150.133 167.173C148.477 166.217 147.853 164.89 148.261 163.655L152.867 153.64H157.003L161.627 163.655C162.035 164.89 161.411 166.217 159.755 167.173Z" fill="#D9D9D9" stroke="black" stroke-width="0.905861" stroke-linecap="round" stroke-linejoin="round"/>
<circle r="1.72791" transform="matrix(-0.866025 -0.5 -0.866025 0.5 154.945 153.655)" fill="#D9D9D9" stroke="black" stroke-width="0.905861" stroke-linecap="round" stroke-linejoin="round"/>
<path d="M119.99 144.129C117.332 145.663 113.024 145.663 110.367 144.129C108.711 143.173 108.087 141.846 108.496 140.611L113.102 130.596H117.238L121.861 140.611C122.27 141.846 121.646 143.173 119.99 144.129Z" fill="#D9D9D9" stroke="black" stroke-width="0.905861" stroke-linecap="round" stroke-linejoin="round"/>
<circle r="1.72791" transform="matrix(-0.866025 -0.5 -0.866025 0.5 115.179 130.611)" fill="#D9D9D9" stroke="black" stroke-width="0.905861" stroke-linecap="round" stroke-linejoin="round"/>
<path d="M80.2826 121.085C77.6255 122.619 73.3174 122.619 70.6603 121.085C69.0043 120.129 68.3804 118.803 68.7886 117.567L73.3945 107.552H77.5306L82.1543 117.567C82.5625 118.803 81.9386 120.129 80.2826 121.085Z" fill="#D9D9D9" stroke="black" stroke-width="0.905861" stroke-linecap="round" stroke-linejoin="round"/>
<circle r="1.72791" transform="matrix(-0.866025 -0.5 -0.866025 0.5 75.472 107.567)" fill="#D9D9D9" stroke="black" stroke-width="0.905861" stroke-linecap="round" stroke-linejoin="round"/>
<path d="M40.5775 98.7505C37.9204 100.285 33.6124 100.285 30.9552 98.7505C29.2992 97.7944 28.6753 96.4681 29.0835 95.2329L33.6894 85.2178H37.8255L42.4492 95.2329C42.8574 96.4681 42.2335 97.7944 40.5775 98.7505Z" fill="#D9D9D9" stroke="black" stroke-width="0.905861" stroke-linecap="round" stroke-linejoin="round"/>
<circle r="1.72791" transform="matrix(-0.866025 -0.5 -0.866025 0.5 35.7669 85.2324)" fill="#D9D9D9" stroke="black" stroke-width="0.905861" stroke-linecap="round" stroke-linejoin="round"/>
<rect width="19.7296" height="23.6085" rx="9.05861" transform="matrix(-0.866025 0.5 0.866025 0.5 165.271 9.45215)" fill="#55A398" stroke="black" stroke-width="0.905861" stroke-linecap="round" stroke-linejoin="round"/>
<rect width="19.7296" height="22.1599" rx="9.05861" transform="matrix(-0.866025 0.5 0.866025 0.5 205.383 32.6108)" fill="#55A398" stroke="black" stroke-width="0.905861" stroke-linecap="round" stroke-linejoin="round"/>
<rect width="19.7296" height="22.3626" rx="9.05861" transform="matrix(-0.866025 0.5 0.866025 0.5 244.598 55.252)" fill="#55A398" stroke="black" stroke-width="0.905861" stroke-linecap="round" stroke-linejoin="round"/>
<rect width="19.7296" height="22.3651" rx="9.05861" transform="matrix(-0.866025 0.5 0.866025 0.5 284.498 78.2876)" fill="#55A398" stroke="black" stroke-width="0.905861" stroke-linecap="round" stroke-linejoin="round"/>
<rect width="19.7296" height="22.7927" rx="9.05861" transform="matrix(-0.866025 0.5 0.866025 0.5 324.693 101.495)" fill="#55A398" stroke="black" stroke-width="0.905861" stroke-linecap="round" stroke-linejoin="round"/>
<rect width="19.7296" height="21.6647" rx="9.05861" transform="matrix(-0.866025 0.5 0.866025 0.5 365.211 124.887)" fill="#55A398" stroke="black" stroke-width="0.905861" stroke-linecap="round" stroke-linejoin="round"/>
<path d="M370.31 137.57C367.653 139.104 363.345 139.104 360.688 137.57C359.032 136.614 358.408 135.288 358.816 134.053L363.422 124.038H367.558L372.182 134.053C372.59 135.288 371.966 136.614 370.31 137.57Z" fill="#D9D9D9" stroke="black" stroke-width="0.905861" stroke-linecap="round" stroke-linejoin="round"/>
<circle r="1.72791" transform="matrix(-0.866025 -0.5 -0.866025 0.5 365.499 124.052)" fill="#D9D9D9" stroke="black" stroke-width="0.905861" stroke-linecap="round" stroke-linejoin="round"/>
<path d="M330.585 114.29C327.928 115.824 323.62 115.824 320.963 114.29C319.307 113.334 318.683 112.008 319.091 110.772L323.697 100.757H327.833L332.457 110.772C332.865 112.008 332.241 113.334 330.585 114.29Z" fill="#D9D9D9" stroke="black" stroke-width="0.905861" stroke-linecap="round" stroke-linejoin="round"/>
<circle r="1.72791" transform="matrix(-0.866025 -0.5 -0.866025 0.5 325.775 100.772)" fill="#D9D9D9" stroke="black" stroke-width="0.905861" stroke-linecap="round" stroke-linejoin="round"/>
<path d="M290.88 91.0103C288.223 92.5444 283.915 92.5444 281.258 91.0103C279.602 90.0542 278.978 88.7278 279.386 87.4927L283.992 77.4775H288.128L292.752 87.4927C293.16 88.7278 292.536 90.0542 290.88 91.0103Z" fill="#D9D9D9" stroke="black" stroke-width="0.905861" stroke-linecap="round" stroke-linejoin="round"/>
<circle r="1.72791" transform="matrix(-0.866025 -0.5 -0.866025 0.5 286.07 77.4922)" fill="#D9D9D9" stroke="black" stroke-width="0.905861" stroke-linecap="round" stroke-linejoin="round"/>
<path d="M251.115 67.9664C248.457 69.5004 244.149 69.5004 241.492 67.9664C239.836 67.0102 239.212 65.6839 239.621 64.4488L244.227 54.4336H248.363L252.986 64.4488C253.395 65.6839 252.771 67.0102 251.115 67.9664Z" fill="#D9D9D9" stroke="black" stroke-width="0.905861" stroke-linecap="round" stroke-linejoin="round"/>
<circle r="1.72791" transform="matrix(-0.866025 -0.5 -0.866025 0.5 246.304 54.4482)" fill="#D9D9D9" stroke="black" stroke-width="0.905861" stroke-linecap="round" stroke-linejoin="round"/>
<path d="M211.408 44.9229C208.75 46.457 204.442 46.457 201.785 44.9229C200.129 43.9668 199.505 42.6404 199.914 41.4053L204.52 31.3901H208.656L213.279 41.4053C213.688 42.6404 213.064 43.9668 211.408 44.9229Z" fill="#D9D9D9" stroke="black" stroke-width="0.905861" stroke-linecap="round" stroke-linejoin="round"/>
<circle r="1.72791" transform="matrix(-0.866025 -0.5 -0.866025 0.5 206.597 31.4048)" fill="#D9D9D9" stroke="black" stroke-width="0.905861" stroke-linecap="round" stroke-linejoin="round"/>
<path d="M171.702 22.5879C169.045 24.122 164.737 24.122 162.08 22.5879C160.424 21.6318 159.8 20.3055 160.209 19.0704L164.814 9.05518H168.95L173.574 19.0704C173.982 20.3055 173.359 21.6318 171.702 22.5879Z" fill="#D9D9D9" stroke="black" stroke-width="0.905861" stroke-linecap="round" stroke-linejoin="round"/>
<circle r="1.72791" transform="matrix(-0.866025 -0.5 -0.866025 0.5 166.892 9.06982)" fill="#D9D9D9" stroke="black" stroke-width="0.905861" stroke-linecap="round" stroke-linejoin="round"/>
<path d="M328.795 147.563L328.795 140.197L354.43 142.696L354.43 150.123L343.773 156.271L328.795 147.563Z" fill="#C4C4C4" stroke="black" stroke-width="0.905861" stroke-linecap="round" stroke-linejoin="round"/>
<path d="M343.82 148.788V156.156" stroke="black" stroke-width="0.906213"/>
<rect width="12.2861" height="17.2508" transform="matrix(0.866025 -0.5 0.866025 0.5 328.834 140.167)" fill="#D9D9D9" stroke="black" stroke-width="0.905861" stroke-linecap="round" stroke-linejoin="round"/>
<path d="M344.333 142.918C343.583 143.352 342.6 143.569 341.616 143.57C340.629 143.571 339.64 143.353 338.886 142.918C338.134 142.484 337.758 141.915 337.758 141.346L337.76 139.064L345.463 139.064L345.461 141.346C345.461 141.915 345.085 142.484 344.333 142.918Z" fill="black" stroke="black" stroke-width="0.56586" stroke-linecap="round" stroke-linejoin="round"/>
<path d="M338.861 137.48C337.346 138.355 337.346 139.773 338.861 140.648C340.376 141.523 342.833 141.523 344.348 140.648C345.863 139.773 345.863 138.355 344.348 137.48C342.833 136.606 340.376 136.606 338.861 137.48Z" fill="#505050" stroke="black" stroke-width="0.56586" stroke-linecap="round" stroke-linejoin="round"/>
<path d="M249.086 194.064L249.086 186.698L274.721 189.197L274.721 196.624L264.064 202.772L249.086 194.064Z" fill="#C4C4C4" stroke="black" stroke-width="0.905861" stroke-linecap="round" stroke-linejoin="round"/>
<path d="M264.111 195.289V202.657" stroke="black" stroke-width="0.906213"/>
<rect width="12.2861" height="17.2508" transform="matrix(0.866025 -0.5 0.866025 0.5 249.125 186.667)" fill="#D9D9D9" stroke="black" stroke-width="0.905861" stroke-linecap="round" stroke-linejoin="round"/>
<path d="M264.626 189.419C263.876 189.852 262.893 190.069 261.909 190.07C260.922 190.071 259.933 189.854 259.179 189.419C258.427 188.985 258.051 188.416 258.051 187.846L258.053 185.564L265.756 185.564L265.754 187.846C265.754 188.416 265.378 188.985 264.626 189.419Z" fill="black" stroke="black" stroke-width="0.56586" stroke-linecap="round" stroke-linejoin="round"/>
<path d="M259.154 183.981C257.639 184.856 257.639 186.274 259.154 187.149C260.669 188.023 263.126 188.023 264.641 187.149C266.156 186.274 266.156 184.856 264.641 183.981C263.126 183.106 260.669 183.106 259.154 183.981Z" fill="#505050" stroke="black" stroke-width="0.56586" stroke-linecap="round" stroke-linejoin="round"/>
<path d="M311.422 199.806L253.97 166.636L253.97 151.818L347.54 164.108L347.54 178.954L311.422 199.806Z" fill="#C4C4C4"/>
<path d="M311.422 199.806L253.97 166.636L253.97 151.818L347.54 164.108L347.54 178.954L311.422 199.806ZM311.422 199.806L311.422 184.729" stroke="black" stroke-width="0.905861" stroke-linecap="round" stroke-linejoin="round"/>
<path d="M347.539 178.975L311.421 199.827L311.421 184.927L347.539 164.129L347.539 178.975Z" fill="#505050" stroke="black" stroke-width="0.905861" stroke-linecap="round" stroke-linejoin="round"/>
<path d="M344.498 177.646L311.456 196.723L311.456 183.091L344.499 165.58L344.498 177.646Z" fill="black" stroke="black" stroke-width="0.905861" stroke-linecap="round" stroke-linejoin="round"/>
<rect width="41.7049" height="66.3407" transform="matrix(-0.866025 0.5 0.866025 0.5 290.086 130.951)" fill="#E5E5E5" stroke="black" stroke-width="0.905861" stroke-linecap="round" stroke-linejoin="round"/>
<rect width="3.48927" height="13.846" rx="1.74464" transform="matrix(0.866025 -0.5 0.866025 0.5 314.424 157.867)" fill="#505050" stroke="black" stroke-width="0.905861" stroke-linecap="round" stroke-linejoin="round"/>
<rect width="3.48927" height="13.846" rx="1.74464" transform="matrix(0.866025 -0.5 0.866025 0.5 298.648 166.827)" fill="#505050" stroke="black" stroke-width="0.905861" stroke-linecap="round" stroke-linejoin="round"/>
<rect width="6.65268" height="46.8477" transform="matrix(-0.866025 -0.5 -0.866025 0.5 207.707 89.811)" fill="#E5E5E5" stroke="black" stroke-width="0.905861" stroke-linecap="round" stroke-linejoin="round"/>
<rect width="7.56183" height="46.8477" transform="matrix(-0.866025 -0.5 -0.866025 0.5 220.154 96.998)" fill="#E5E5E5" stroke="black" stroke-width="0.905861" stroke-linecap="round" stroke-linejoin="round"/>
<rect width="7.67064" height="46.8477" transform="matrix(-0.866025 -0.5 -0.866025 0.5 233.404 104.648)" fill="#E5E5E5" stroke="black" stroke-width="0.905861" stroke-linecap="round" stroke-linejoin="round"/>
<rect width="44.5479" height="55.1917" transform="matrix(-0.866025 -0.5 -0.866025 0.5 240.449 104.843)" stroke="black" stroke-width="0.905861" stroke-linecap="round" stroke-linejoin="round"/>
<rect width="92.6204" height="102.243" transform="matrix(-0.866025 -0.5 -0.866025 0.5 302.455 117.116)" stroke="black" stroke-width="0.905861" stroke-linecap="round" stroke-linejoin="round"/>
<circle r="2.79067" transform="matrix(-0.866025 0.5 0.866025 0.5 119.275 74.714)" fill="#7C7C7C" stroke="black" stroke-width="0.905861" stroke-linecap="round" stroke-linejoin="round"/>
<path d="M202.559 122.344L171.35 104.325L171.35 96.0308L223.475 101.999L223.475 110.268L202.559 122.344Z" fill="#464646"/>
<path d="M202.559 122.344L171.35 104.325L171.35 96.0308L223.475 101.999L223.475 110.268L202.559 122.344ZM202.559 122.344L202.559 114.2" stroke="black" stroke-width="0.905861" stroke-linecap="round" stroke-linejoin="round"/>
<rect width="36.0378" height="24.1516" transform="matrix(-0.866025 -0.5 -0.866025 0.5 223.475 101.991)" fill="#464646" stroke="black" stroke-width="0.905861" stroke-linecap="round" stroke-linejoin="round"/>
</svg>
