<svg width="1822" height="1475" viewBox="0 0 1822 1475" fill="none" xmlns="http://www.w3.org/2000/svg">
<path d="M173.719 1314.99L349.27 1416.35C411.566 1452.31 488.312 1452.34 550.629 1416.41L758.638 1296.48L1750.71 723.708C1792.79 699.416 1818.7 654.522 1818.7 605.938V460.146L38.5027 829.208V1080.79C38.5027 1167.02 99.0411 1271.88 173.719 1314.99Z" fill="#5E6FDB"/>
<path d="M1819 459.238L1521.35 156.669C1457.47 91.7262 1341.72 76.0047 1262.83 121.554L441.911 595.511L419.645 547.091L117.604 723.858L117.604 782.75L38.4439 828.453L451.765 1248.61L1819 459.238Z" fill="#BDDCD8"/>
<path d="M1819 459.238L1521.35 156.669C1457.47 91.7262 1341.72 76.0047 1262.83 121.554L441.911 595.511L419.645 547.091L117.604 723.858L117.604 782.75L38.4439 828.453L451.765 1248.61L1819 459.238Z" fill="#B0B8ED" stroke="black" stroke-width="4.62733" stroke-linecap="round" stroke-linejoin="round"/>
<rect width="398.109" height="259.77" transform="matrix(0.866025 -0.5 0.701283 0.712883 162.519 844.034)" fill="#C4C4C4" stroke="black" stroke-width="4.6113" stroke-linecap="round" stroke-linejoin="round"/>
<rect width="379.664" height="239.787" transform="matrix(0.866025 -0.5 0.701283 0.712883 176.529 858.285)" fill="black" stroke="black" stroke-width="4.6113" stroke-linecap="round" stroke-linejoin="round"/>
<rect width="38.4275" height="38.4275" transform="matrix(0.866025 -0.5 0.701283 0.712883 365.168 1050.04)" fill="white" stroke="black" stroke-width="4.6113" stroke-linecap="round" stroke-linejoin="round"/>
<rect width="38.4275" height="38.4275" transform="matrix(0.866025 -0.5 0.701283 0.712883 407.208 1092.78)" fill="white" stroke="black" stroke-width="4.6113" stroke-linecap="round" stroke-linejoin="round"/>
<rect width="38.4275" height="38.4275" transform="matrix(0.866025 -0.5 0.701283 0.712883 449.243 1135.51)" fill="white" stroke="black" stroke-width="4.6113" stroke-linecap="round" stroke-linejoin="round"/>
<rect width="38.4275" height="38.4275" transform="matrix(0.866025 -0.5 0.701283 0.712883 417.079 1020.07)" fill="white" stroke="black" stroke-width="4.6113" stroke-linecap="round" stroke-linejoin="round"/>
<rect width="158.321" height="38.4275" transform="matrix(0.866025 -0.5 0.701283 0.712883 459.121 1062.81)" fill="white" stroke="black" stroke-width="4.6113" stroke-linecap="round" stroke-linejoin="round"/>
<rect width="278.215" height="38.4275" transform="matrix(0.866025 -0.5 0.701283 0.712883 501.163 1105.54)" fill="#BDDCD8" stroke="black" stroke-width="4.6113" stroke-linecap="round" stroke-linejoin="round"/>
<rect width="38.4275" height="38.4275" transform="matrix(0.866025 -0.5 0.701283 0.712883 469 990.098)" fill="white" stroke="black" stroke-width="4.6113" stroke-linecap="round" stroke-linejoin="round"/>
<rect width="38.4275" height="38.4275" transform="matrix(0.866025 -0.5 0.701283 0.712883 520.912 960.122)" fill="white" stroke="black" stroke-width="4.6113" stroke-linecap="round" stroke-linejoin="round"/>
<rect width="38.4275" height="38.4275" transform="matrix(0.866025 -0.5 0.701283 0.712883 572.833 930.153)" fill="white" stroke="black" stroke-width="4.6113" stroke-linecap="round" stroke-linejoin="round"/>
<rect width="38.4275" height="38.4275" transform="matrix(0.866025 -0.5 0.701283 0.712883 614.865 972.883)" fill="white" stroke="black" stroke-width="4.6113" stroke-linecap="round" stroke-linejoin="round"/>
<rect width="38.4275" height="38.4275" transform="matrix(0.866025 -0.5 0.701283 0.712883 666.789 942.914)" fill="white" stroke="black" stroke-width="4.6113" stroke-linecap="round" stroke-linejoin="round"/>
<rect width="98.3744" height="38.4275" transform="matrix(0.866025 -0.5 0.701283 0.712883 624.747 900.176)" fill="#FF8484" stroke="black" stroke-width="4.6113" stroke-linecap="round" stroke-linejoin="round"/>
<rect width="98.3744" height="38.4275" transform="matrix(0.866025 -0.5 0.701283 0.712883 907.97 413.649)" fill="#FFE598" stroke="black" stroke-width="4.6113" stroke-linecap="round" stroke-linejoin="round"/>
<rect width="98.3744" height="38.4275" transform="matrix(0.866025 -0.5 0.701283 0.712883 1019.78 349.091)" fill="#FFE598" stroke="black" stroke-width="4.6113" stroke-linecap="round" stroke-linejoin="round"/>
<rect width="98.3744" height="38.4275" transform="matrix(0.866025 -0.5 0.701283 0.712883 1131.6 284.532)" fill="#FFE598" stroke="black" stroke-width="4.6113" stroke-linecap="round" stroke-linejoin="round"/>
<rect width="49.1872" height="38.4275" transform="matrix(0.866025 -0.5 0.701283 0.712883 907.97 413.649)" fill="#BDDCD8" stroke="black" stroke-width="4.6113" stroke-linecap="round" stroke-linejoin="round"/>
<rect width="49.1872" height="38.4275" transform="matrix(0.866025 -0.5 0.701283 0.712883 1019.78 349.091)" fill="#BDDCD8" stroke="black" stroke-width="4.6113" stroke-linecap="round" stroke-linejoin="round"/>
<rect width="49.1872" height="38.4275" transform="matrix(0.866025 -0.5 0.701283 0.712883 1131.6 284.532)" fill="#BDDCD8" stroke="black" stroke-width="4.6113" stroke-linecap="round" stroke-linejoin="round"/>
<rect width="38.4275" height="38.4275" transform="matrix(0.866025 -0.5 0.701283 0.712883 718.702 912.938)" fill="white" stroke="black" stroke-width="4.6113" stroke-linecap="round" stroke-linejoin="round"/>
<rect width="38.4275" height="38.4275" transform="matrix(0.866025 -0.5 0.701283 0.712883 760.742 955.668)" fill="white" stroke="black" stroke-width="4.6113" stroke-linecap="round" stroke-linejoin="round"/>
<rect width="29.2049" height="436.536" rx="14.6024" transform="matrix(0.866025 -0.5 0.701283 0.712883 584.489 600.405)" fill="#C4C4C4" stroke="black" stroke-width="4.6113" stroke-linecap="round" stroke-linejoin="round"/>
<rect width="18.0937" height="436.536" rx="9.04683" transform="matrix(0.866025 -0.5 0.701283 0.712883 584.489 600.405)" fill="black" stroke="black" stroke-width="4.6113" stroke-linecap="round" stroke-linejoin="round"/>
<rect width="29.2049" height="436.536" rx="14.6024" transform="matrix(0.866025 -0.5 0.701283 0.712883 661.701 555.831)" fill="#C4C4C4" stroke="black" stroke-width="4.6113" stroke-linecap="round" stroke-linejoin="round"/>
<rect width="18.0937" height="433.653" rx="9.04683" transform="matrix(0.866025 -0.5 0.701283 0.712883 664.831 556.778)" fill="black" stroke="black" stroke-width="4.6113" stroke-linecap="round" stroke-linejoin="round"/>
<rect width="29.2049" height="436.536" rx="14.6024" transform="matrix(0.866025 -0.5 0.701283 0.712883 738.912 511.257)" fill="#C4C4C4" stroke="black" stroke-width="4.6113" stroke-linecap="round" stroke-linejoin="round"/>
<rect width="18.0937" height="427.975" rx="9.04683" transform="matrix(0.866025 -0.5 0.701283 0.712883 744.157 512.71)" fill="black" stroke="black" stroke-width="4.6113" stroke-linecap="round" stroke-linejoin="round"/>
<rect width="58.4098" height="384.275" transform="matrix(0.866025 -0.5 0.701283 0.712883 811.304 502.103)" fill="#BDDCD8" stroke="black" stroke-width="4.6113" stroke-linecap="round" stroke-linejoin="round"/>
<rect width="58.4098" height="342.773" transform="matrix(0.866025 -0.5 0.701283 0.712883 840.413 531.689)" fill="white" stroke="black" stroke-width="4.6113" stroke-linecap="round" stroke-linejoin="round"/>
<rect width="58.4098" height="342.773" transform="matrix(0.866025 -0.5 0.701283 0.712883 840.413 531.689)" fill="white" stroke="black" stroke-width="4.6113" stroke-linecap="round" stroke-linejoin="round"/>
<rect width="58.4098" height="342.773" transform="matrix(0.866025 -0.5 0.701283 0.712883 840.413 531.689)" fill="#FFE598" stroke="black" stroke-width="4.6113" stroke-linecap="round" stroke-linejoin="round"/>
<rect width="58.4098" height="227.491" transform="matrix(0.866025 -0.5 0.701283 0.712883 921.257 613.868)" fill="#FFCA31" stroke="black" stroke-width="4.6113" stroke-linecap="round" stroke-linejoin="round"/>
<rect width="58.4098" height="136.802" transform="matrix(0.866025 -0.5 0.701283 0.712883 984.851 678.52)" fill="#FFB5B5" stroke="black" stroke-width="4.6113" stroke-linecap="round" stroke-linejoin="round"/>
<rect width="58.4098" height="55.3356" transform="matrix(0.866025 -0.5 0.701283 0.712883 1041.98 736.6)" fill="#FF8484" stroke="black" stroke-width="4.6113" stroke-linecap="round" stroke-linejoin="round"/>
<path d="M1481.34 553.15L1590.5 490.129C1593.28 488.526 1594.79 486.088 1594.93 483.517L1594.93 458.334L1302.27 356.343L1302.27 382.785C1302.31 384.813 1303.18 386.893 1304.95 388.685L1464.48 550.86C1468.65 555.096 1476.2 556.122 1481.34 553.15Z" fill="#C4C4C4" stroke="black" stroke-width="4.6113" stroke-linecap="round" stroke-linejoin="round"/>
<rect width="147.562" height="249.01" rx="10.7597" transform="matrix(0.866025 -0.5 0.701283 0.712883 1297.4 355.468)" fill="#C4C4C4" stroke="black" stroke-width="4.6113" stroke-linecap="round" stroke-linejoin="round"/>
<path d="M1310.21 368.497L1413.83 308.676C1418.97 305.705 1426.52 306.73 1430.69 310.966L1577.41 460.115C1581.58 464.351 1580.79 470.194 1575.64 473.165L1481.34 527.606C1476.2 530.578 1468.65 529.552 1464.48 525.316L1310.21 368.497Z" fill="#EEEEEE" stroke="black" stroke-width="4.6113" stroke-linecap="round" stroke-linejoin="round"/>
<rect width="38.4275" height="38.4275" transform="matrix(0.866025 -0.5 0.701283 0.712883 1340.99 379.082)" fill="#FFB5B5" stroke="black" stroke-width="4.6113" stroke-linecap="round" stroke-linejoin="round"/>
<rect width="38.4275" height="38.4275" transform="matrix(0.866025 -0.5 0.701283 0.712883 1399.21 438.253)" fill="#BDDCD8" stroke="black" stroke-width="4.6113" stroke-linecap="round" stroke-linejoin="round"/>
<rect width="38.4275" height="38.4275" transform="matrix(0.866025 -0.5 0.701283 0.712883 1392.91 349.112)" fill="#FFE598" stroke="black" stroke-width="4.6113" stroke-linecap="round" stroke-linejoin="round"/>
<rect width="38.4275" height="38.4275" transform="matrix(0.866025 -0.5 0.701283 0.712883 1451.12 408.284)" fill="#FFCA31" stroke="black" stroke-width="4.6113" stroke-linecap="round" stroke-linejoin="round"/>
<circle r="124.505" transform="matrix(0.866025 -0.5 0.701283 0.712883 1209 545.679)" fill="#FF8484" stroke="black" stroke-width="4.6113" stroke-linecap="round" stroke-linejoin="round"/>
<path d="M1316.82 483.426C1336.42 503.348 1347.31 527.39 1347.73 551.686C1348.15 575.981 1338.09 599.117 1319.15 617.37C1300.22 635.623 1273.52 647.932 1243.35 652.317C1213.18 656.701 1181.29 652.907 1152.82 641.543C1124.35 630.18 1100.94 611.908 1086.37 589.668C1071.8 567.428 1066.92 542.514 1072.5 518.933C1078.09 495.352 1093.81 474.476 1117.15 459.665C1140.49 444.853 1170.09 436.967 1201.18 437.275L1209 545.679L1316.82 483.426Z" fill="#FFB5B5" stroke="black" stroke-width="4.6113" stroke-linecap="round" stroke-linejoin="round"/>
<path d="M373.171 843.869L355.153 854.272L360.153 865.363L351.751 870.214L331.655 821.78L338.907 817.593L394.176 845.719L385.742 850.589L373.171 843.869ZM352.144 847.597L365.625 839.814L343.259 827.822L352.144 847.597ZM393.567 823.764L407.562 837.991L399.479 842.658L361.813 804.368L379.608 794.095C384.804 791.094 390.021 789.828 395.257 790.296C400.514 790.752 404.945 792.812 408.549 796.476C412.24 800.228 413.61 804.014 412.659 807.834C411.73 811.642 408.571 815.101 403.183 818.212L393.567 823.764ZM388.315 818.426L398.027 812.819C400.902 811.159 402.553 809.34 402.978 807.362C403.387 805.367 402.556 803.318 400.486 801.214C398.451 799.145 396.063 797.94 393.323 797.598C390.565 797.238 387.827 797.816 385.109 799.33L375.173 805.066L388.315 818.426ZM449.86 813.571L441.809 818.219L404.143 779.929L412.194 775.281L449.86 813.571ZM384.585 943.564C386.523 942.445 387.674 941.052 388.038 939.385C388.402 937.718 387.954 936.176 386.694 934.759L394.01 930.535C395.666 932.355 396.625 934.399 396.886 936.668C397.13 938.918 396.616 941.112 395.345 943.248C394.073 945.384 392.192 947.171 389.7 948.61C384.865 951.401 379.764 952.326 374.396 951.384C369.028 950.443 364.111 947.701 359.644 943.161L358.997 942.503C354.737 938.173 352.737 933.899 352.996 929.681C353.237 925.446 355.786 921.926 360.642 919.123C364.753 916.749 369.071 915.809 373.597 916.303C378.127 916.766 382.034 918.565 385.317 921.699L378.002 925.923C376.312 924.342 374.312 923.394 371.999 923.08C369.708 922.754 367.582 923.156 365.623 924.287C363.11 925.738 361.913 927.611 362.033 929.906C362.136 932.183 363.677 934.853 366.657 937.916L367.666 938.942C370.701 942.027 373.64 943.945 376.482 944.696C379.328 945.417 382.029 945.039 384.585 943.564ZM393.425 922.915C390.683 920.127 388.888 917.233 388.039 914.232C387.174 911.213 387.368 908.406 388.624 905.812C389.861 903.201 392.057 900.985 395.209 899.165C399.873 896.473 404.869 895.526 410.197 896.326C415.547 897.113 420.348 899.482 424.601 903.431L426.107 904.912C428.867 907.717 430.673 910.605 431.525 913.576C432.399 916.535 432.207 919.327 430.947 921.951C429.709 924.562 427.493 926.79 424.298 928.635C419.421 931.45 414.202 932.374 408.642 931.406C403.085 930.409 398.117 927.683 393.736 923.23L393.425 922.915ZM401.732 918.985C404.612 921.913 407.606 923.785 410.714 924.602C413.805 925.402 416.66 925.045 419.28 923.533C421.899 922.02 423.105 920.005 422.898 917.485C422.712 914.954 421.024 912.066 417.833 908.823C415.005 905.948 412.006 904.105 408.839 903.295C405.692 902.473 402.83 902.806 400.253 904.294C397.719 905.757 396.525 907.752 396.673 910.278C396.803 912.787 398.489 915.689 401.732 918.985ZM425.596 882.446L429.054 885.604C429.109 881.586 431.213 878.378 435.366 875.981C442.565 871.824 449.565 873.102 456.367 879.813L474.864 898.616L467.101 903.098L448.966 884.663C447.19 882.857 445.4 881.802 443.597 881.496C441.797 881.16 439.822 881.614 437.671 882.855C434.54 884.663 433.355 887.175 434.115 890.392L454.035 910.642L446.272 915.124L418.281 886.67L425.596 882.446ZM457.736 853.046L464.54 859.962L470.642 856.439L475.298 861.172L469.196 864.695L484.822 880.579C485.891 881.666 486.923 882.308 487.917 882.503C488.915 882.669 490.085 882.365 491.426 881.59C492.321 881.074 493.14 880.464 493.883 879.759L498.747 884.703C497.376 886.127 495.87 887.313 494.23 888.259C488.267 891.702 482.62 890.715 477.291 885.298L461.433 869.177L455.747 872.461L451.09 867.727L456.777 864.444L449.973 857.528L457.736 853.046ZM500.441 848.388C499.28 848.838 498.157 849.377 497.071 850.004C493.514 852.057 492.222 854.563 493.194 857.52L512.338 876.98L504.575 881.462L476.584 853.008L483.995 848.729L487.317 851.8C486.76 848.246 488.142 845.51 491.465 843.592C492.572 842.953 493.609 842.547 494.574 842.374L500.441 848.388ZM510.735 855.186C507.992 852.399 506.197 849.504 505.349 846.503C504.483 843.484 504.678 840.678 505.933 838.084C507.171 835.473 509.366 833.257 512.518 831.437C517.182 828.744 522.178 827.797 527.507 828.597C532.856 829.385 537.657 831.753 541.91 835.703L543.417 837.183C546.176 839.988 547.982 842.876 548.835 845.848C549.708 848.807 549.516 851.598 548.257 854.222C547.019 856.834 544.802 859.062 541.608 860.906C536.73 863.722 531.511 864.646 525.951 863.678C520.394 862.68 515.426 859.955 511.045 855.502L510.735 855.186ZM519.041 851.256C521.921 854.184 524.915 856.057 528.023 856.874C531.114 857.673 533.969 857.317 536.589 855.804C539.208 854.292 540.415 852.276 540.207 849.757C540.021 847.225 538.333 844.338 535.142 841.095C532.314 838.219 529.316 836.377 526.148 835.567C523.001 834.744 520.139 835.077 517.562 836.565C515.028 838.028 513.834 840.023 513.982 842.549C514.112 845.058 515.799 847.96 519.041 851.256ZM571.951 842.563L564.188 847.045L524.452 806.651L532.215 802.169L571.951 842.563Z" fill="#FFCA31"/>
<path d="M412.37 992.839L382.15 737.231L400.408 726.528L430.628 982.136L412.37 992.839Z" fill="url(#paint0_linear)"/>
<path d="M460.85 964.507L430.631 708.899L472.183 684.977L502.402 940.584L460.85 964.507Z" fill="url(#paint1_linear)"/>
<path d="M581.646 629.364L655.908 586.534L656.137 586.371C659.32 584.042 661.388 580.279 661.388 576.033C661.388 568.965 655.657 563.234 648.589 563.234C646.306 563.234 644.163 563.832 642.308 564.879L641.03 565.615L569.089 607.117L581.646 629.364Z" fill="#FF8484" stroke="black" stroke-width="4.6113" stroke-linecap="round" stroke-linejoin="round"/>
<path d="M588.191 618.193C588.191 625.261 582.46 630.991 575.392 630.991C568.323 630.991 562.593 625.261 562.593 618.193C562.593 611.124 568.323 605.394 575.392 605.394C582.46 605.394 588.191 611.124 588.191 618.193Z" fill="#FF8484" stroke="black" stroke-width="4.6113" stroke-linecap="round" stroke-linejoin="round"/>
<path d="M625.164 641.542L608.795 623.914V613.839L625.164 604.396V641.542Z" fill="#C4C4C4" stroke="black" stroke-width="4.6113" stroke-linecap="round" stroke-linejoin="round"/>
<path d="M739.288 666.744L813.55 623.914L813.778 623.75C816.962 621.422 819.029 617.659 819.029 613.413C819.029 606.344 813.299 600.614 806.23 600.614C803.948 600.614 801.805 601.211 799.949 602.258L798.671 602.995L726.73 644.496L739.288 666.744Z" fill="#FF8484" stroke="black" stroke-width="4.6113" stroke-linecap="round" stroke-linejoin="round"/>
<path d="M745.832 655.572C745.832 662.641 740.102 668.371 733.033 668.371C725.965 668.371 720.234 662.641 720.234 655.572C720.234 648.503 725.965 642.773 733.033 642.773C740.102 642.773 745.832 648.503 745.832 655.572Z" fill="#FF8484" stroke="black" stroke-width="4.6113" stroke-linecap="round" stroke-linejoin="round"/>
<path d="M782.806 678.921L766.437 661.293V651.219L782.806 641.775V678.921Z" fill="#C4C4C4" stroke="black" stroke-width="4.6113" stroke-linecap="round" stroke-linejoin="round"/>
<path d="M958.372 766.217L1032.63 723.387L1032.86 723.224C1036.05 720.895 1038.11 717.132 1038.11 712.886C1038.11 705.818 1032.38 700.087 1025.31 700.087C1023.03 700.087 1020.89 700.685 1019.03 701.732L1017.76 702.468L945.814 743.969L958.372 766.217Z" fill="#FF8484" stroke="black" stroke-width="4.6113" stroke-linecap="round" stroke-linejoin="round"/>
<path d="M964.916 755.045C964.916 762.114 959.186 767.844 952.117 767.844C945.049 767.844 939.318 762.114 939.318 755.045C939.318 747.977 945.049 742.247 952.117 742.247C959.186 742.247 964.916 747.977 964.916 755.045Z" fill="#FF8484" stroke="black" stroke-width="4.6113" stroke-linecap="round" stroke-linejoin="round"/>
<path d="M1001.89 778.395L985.521 760.766V750.692L1001.89 741.249V778.395Z" fill="#C4C4C4" stroke="black" stroke-width="4.6113" stroke-linecap="round" stroke-linejoin="round"/>
<path d="M1818.7 596.842L1818.7 460.152L449.926 1250.41L449.926 1368.7" stroke="black" stroke-width="4.6113" stroke-linecap="round" stroke-linejoin="round"/>
<path d="M449.929 1368.7V1250.41L37.0205 827.231V1045.64" stroke="black" stroke-width="4.6113" stroke-linecap="round" stroke-linejoin="round"/>
<defs>
<linearGradient id="paint0_linear" x1="392.224" y1="734.083" x2="279.844" y2="846.466" gradientUnits="userSpaceOnUse">
<stop stop-color="white" stop-opacity="0.4"/>
<stop offset="1" stop-color="white" stop-opacity="0"/>
</linearGradient>
<linearGradient id="paint1_linear" x1="454.554" y1="695.679" x2="339.906" y2="846.73" gradientUnits="userSpaceOnUse">
<stop stop-color="white" stop-opacity="0.4"/>
<stop offset="1" stop-color="white" stop-opacity="0"/>
</linearGradient>
</defs>
</svg>
