<svg width="387" height="243" viewBox="0 0 387 243" fill="none" xmlns="http://www.w3.org/2000/svg">
<style>
@keyframes float {
  0% { transform: translateY(0); }
  100% { transform: translateY(5px); }
}
@keyframes grow {
  0% { transform: scale(1.0); }
  100% { transform: scale(1.05); }
}

#dart-logo {
  animation: 1s ease-in-out 0ms infinite alternate float;
}
#dart-shadow {
  animation: 1s ease-in-out 0ms infinite alternate grow;
  transform-origin: 112px 201px;
}
#flutter-logo {
  animation: 850ms ease-in-out 0ms infinite alternate float;
}
#flutter-shadow {
  animation: 850ms ease-in-out 0ms infinite alternate grow;
  transform-origin: 309px 201px;
}
</style> 

<g id="dart-logos">
<g id="dart">
<g id="dart-logo">
<path id="Vector" d="M63.5256 136.665L41.1528 114.331C38.604 111.708 37.0156 108.014 37.0156 104.403C37.0156 102.732 37.9576 100.118 38.6687 98.6131L59.0434 55.9717L63.5256 136.665Z" fill="#01579B"/>
<path id="Vector_2" d="M137.233 60.1648L115.734 38.666C113.86 36.7821 109.944 34.5288 106.638 34.5288C103.794 34.5288 101.005 35.1014 99.1946 36.1818L59.0645 56.4057V57.0156L137.233 60.1648Z" fill="#40C4FF"/>
<path id="Vector_3" d="M88.9069 162.035H142.072V139.158L102.393 126.458L65.4727 138.86L88.9069 162.035Z" fill="#40C4FF"/>
<path id="Vector_4" d="M59.3965 123.982C59.3965 130.613 60.2276 132.918 63.5337 136.233L66.8398 139.539H141.934L104.878 97.5245L59.3965 57.002V123.982Z" fill="#29B6F6"/>
<path id="Vector_5" d="M125.545 56.9929H59.3867L142.122 139.849H164.688V87.4441L138.18 61.1301C134.468 57.3993 130.107 56.9929 125.545 56.9929Z" fill="#01579B"/>
<path id="Vector_6" d="M63.5326 136.735C60.2265 133.419 59.3954 131.87 59.3954 125.239V57.002M63.5326 136.735C73.4972 146.705 78.85 152.13 88.8164 162.097H142.19V139.767M63.5326 136.735C55.6178 128.816 48.2329 121.721 41.3912 114.681C38.6908 111.902 37 107.988 37 104.127C37 103.155 37.2675 101.981 37.5998 100.905C37.9373 99.8123 38.3662 98.743 38.7391 97.9536L38.7415 97.9486L58.7202 56.327L98.6575 36.3583C100.659 35.1752 103.614 34.5959 106.531 34.5959C108.371 34.5959 110.316 35.217 112.012 36.0501C113.713 36.8855 115.246 37.9746 116.264 38.9978L138.467 61.2M59.3954 57.002L126.886 57.0474C131.448 57.0474 134.754 57.4691 138.467 61.2M59.3954 57.002L142.19 139.767M142.19 139.767H164.519V87.2164L163.398 86.1309L163.387 86.1206L138.467 61.2" stroke="black" stroke-width="0.6"/>
</g>
</g>
<g id="flutter">
<g id="flutter-logo">
<g id="Group">
<g id="Group_2">
<path id="Vector_7" d="M290.456 146.575L340.467 96.5522H304.102L272.279 128.387L290.456 146.575Z" fill="#39CEFD"/>
</g>
</g>
<g id="Group_3">
<path id="Vector_8" d="M245 101.105L304.105 42H340.47L263.188 119.293L245 101.105Z" fill="#39CEFD"/>
</g>
<g id="Group_4">
<path id="Vector_9" d="M304.104 160.21H340.468L308.645 128.387L290.457 146.575L304.104 160.21Z" fill="#03569B"/>
</g>
<g id="Group_5">
<path id="Vector_10" d="M308.645 128.387L290.457 146.575L317.432 137.231L308.645 128.387Z" fill="url(#paint0_linear)"/>
</g>
<g id="Group_6">
<g id="Group_7">
<path id="Vector_11" d="M272.279 128.376L290.467 110.188L308.655 128.376L290.467 146.575L272.279 128.376Z" fill="#16B9FD"/>
</g>
</g>
<path id="Vector_12" d="M340.682 96.7645L341.194 96.2524H340.47H304.105H303.981L303.893 96.3403L272.058 128.175L271.846 128.387L272.058 128.599L290.246 146.787L303.893 160.434L303.981 160.522H304.105H340.47H341.194L340.682 160.01L309.071 128.387L340.682 96.7645ZM244.788 100.893L244.576 101.105L244.788 101.317L262.976 119.505L263.188 119.717L263.4 119.505L340.682 42.2121L341.194 41.7H340.47H304.105V42L303.893 41.7879L244.788 100.893Z" fill="url(#paint1_radial)" stroke="black" stroke-width="0.6"/>
</g>
</g>
<ellipse id="dart-shadow" cx="112" cy="200" rx="39" ry="9" fill="#D9D9D9"/>
<ellipse id="flutter-shadow" cx="309" cy="201" rx="39" ry="9" fill="#D9D9D9"/>
</g>
<defs>
<linearGradient id="paint0_linear" x1="-2608.11" y1="-1236.01" x2="-2607.58" y2="-1236.54" gradientUnits="userSpaceOnUse">
<stop stop-color="#1A237E" stop-opacity="0.4"/>
<stop offset="1" stop-color="#1A237E" stop-opacity="0"/>
</linearGradient>
<radialGradient id="paint1_radial" cx="0" cy="0" r="1" gradientUnits="userSpaceOnUse" gradientTransform="translate(-2362.59 -1021.35) scale(5.61439)">
<stop stop-color="white" stop-opacity="0.1"/>
<stop offset="1" stop-color="white" stop-opacity="0"/>
</radialGradient>
</defs>
</svg>
