<svg width="366" height="330" viewBox="0 0 366 330" fill="none" xmlns="http://www.w3.org/2000/svg">

<style>
@keyframes float {
  0% { transform: translateY(0); }
  100% { transform: translateY(5px); }
}
@keyframes grow {
  0% { transform: scale(1.0); }
  100% { transform: scale(1.05); }
}

#dart-logo {
  animation: 1s ease-in-out 0ms infinite alternate float;
}
#shadow {
  animation: 1s ease-in-out 0ms infinite alternate grow;
  transform-origin: 201px 279px;
}
</style>

<g id="Frame 2011">
<g id="dart-logo">
<path id="Vector" d="M120.819 206.126L84.9103 170.218C80.653 165.837 78 159.667 78 153.636C78 150.844 79.5733 146.479 80.761 143.965L113.909 74.9087L120.819 206.126Z" fill="#01579B"/>
<path id="Vector_2" d="M243.751 81.8189L207.843 45.9103C204.712 42.7636 198.171 39 192.649 39C187.899 39 183.24 39.9563 180.217 41.761L113.922 74.9087L243.751 81.8189Z" fill="#40C4FF"/>
<path id="Vector_3" d="M163.637 248.945H250.663V211.648L185.74 190.933L126.355 211.648L163.637 248.945Z" fill="#40C4FF"/>
<path id="Vector_4" d="M113.922 186.799C113.922 197.874 115.31 200.604 120.832 206.142L126.354 211.664H250.662L189.888 142.608L113.922 74.9241V186.799Z" fill="#29B6F6"/>
<path id="Vector_5" d="M224.411 74.9087H113.908L250.979 212.181H288.67V125.77L244.395 81.8189C238.195 75.5874 232.03 74.9087 224.411 74.9087Z" fill="#01579B"/>
<path id="Vector_6" d="M120.832 208.099C115.31 202.562 113.922 199.974 113.922 188.899V74.9241M120.832 208.099C137.476 224.752 146.416 233.814 163.063 250.461H252.21V213.164M120.832 208.099C107.612 194.872 95.2776 183.022 83.8502 171.263C79.3398 166.622 76.5156 160.084 76.5156 153.636C76.5156 152.013 76.9624 150.052 77.5175 148.254C78.0811 146.429 78.7975 144.643 79.4204 143.324L79.4243 143.316L112.794 73.7967L179.5 40.4436C182.843 38.4675 187.78 37.5 192.652 37.5C195.724 37.5 198.973 38.5373 201.806 39.9288C204.648 41.3242 207.208 43.1433 208.908 44.8522L245.992 81.9359M113.922 74.9241L226.649 75C234.269 75 239.791 75.7043 245.992 81.9359M113.922 74.9241L252.21 213.164M252.21 213.164H289.507V125.39L287.633 123.577L287.616 123.56L245.992 81.9359" stroke="black" stroke-width="3"/>
</g>
<ellipse id="shadow" cx="201.29" cy="279" rx="65.3738" ry="15" fill="#D9D9D9"/>
</g>
</svg>
