<svg width="366" height="330" viewBox="0 0 366 330" fill="none" xmlns="http://www.w3.org/2000/svg">
<style>
@keyframes float {
  0% { transform: translateY(0); }
  100% { transform: translateY(5px); }
}
@keyframes grow {
  0% { transform: scale(1.0); }
  100% { transform: scale(1.05); }
}

#dart-logo {
  animation: 1s ease-in-out 0ms infinite alternate float;
}
#shadow {
  animation: 1s ease-in-out 0ms infinite alternate grow;
  transform-origin: 188px 267px;
}
</style>

<g id="Frame 2011">
<g id="dart-logo">
<path id="Vector" d="M115.941 203.404L82.5531 170.073C78.7494 166.159 76.3789 160.647 76.3789 155.258C76.3789 152.764 77.7846 148.863 78.8458 146.617L109.252 82.981L115.941 203.404Z" fill="#01579B"/>
<path id="Vector_2" d="M225.938 89.2388L193.855 57.1551C191.057 54.3437 185.214 50.981 180.28 50.981C176.035 50.981 171.873 51.8354 169.172 53.4479L109.252 83.6738L111.131 84.4654L225.938 89.2388Z" fill="#40C4FF"/>
<path id="Vector_3" d="M155.007 241.71L233.16 241.265V207.125L173.945 188.171L118.848 206.679L155.007 241.71Z" fill="#40C4FF"/>
<path id="Vector_4" d="M109.777 184.477C109.777 194.372 111.018 196.812 115.952 201.759L120.885 206.693H231.952L177.652 144.993L109.777 84.5188V184.477Z" fill="#29B6F6"/>
<path id="Vector_5" d="M208.497 84.5051H109.766L232.236 207.156H265.912V129.949L226.353 90.6793C220.813 85.1115 215.306 84.5051 208.497 84.5051Z" fill="#01579B"/>
<path id="Vector_6" d="M115.951 203.508C111.018 198.561 109.777 196.248 109.777 186.353V84.519M115.951 203.508C130.822 218.387 138.81 226.484 153.684 241.358H233.335V208.034M115.951 203.508C104.14 191.69 93.1189 181.102 82.9088 170.596C78.8788 166.449 76.3555 160.608 76.3555 154.847C76.3555 153.396 76.7547 151.644 77.2506 150.038C77.7542 148.407 78.3943 146.811 78.9508 145.633L78.9543 145.626L108.77 83.5117L168.37 53.7114C171.357 51.9457 175.768 51.0813 180.121 51.0813C182.866 51.0813 185.769 52.0081 188.3 53.2513C190.839 54.4981 193.127 56.1235 194.646 57.6504L227.779 90.7839M109.777 84.519L210.497 84.5869C217.305 84.5869 222.239 85.2161 227.779 90.7839M109.777 84.519L233.335 208.034M233.335 208.034H266.659V129.61L264.985 127.99L264.97 127.974L227.779 90.7839" stroke="black" stroke-width="2"/>
</g>
<ellipse id="shadow" cx="187.58" cy="266.857" rx="58.0762" ry="13.4022" fill="#D9D9D9"/>
</g>
</svg>
