<svg width="456" height="294" viewBox="0 0 456 294" fill="none" xmlns="http://www.w3.org/2000/svg">
<path d="M189.632 42.8845C219.973 25.3673 269.165 25.3673 299.505 42.8844L365.22 80.8251L88.4707 240.607L22.7554 202.666C-7.58516 185.149 -7.58514 156.748 22.7555 139.231L189.632 42.8845Z" fill="#B0B8ED"/>
<path d="M365.217 80.8252L433.713 120.372C462.518 137.002 462.518 163.965 433.713 180.595L261.273 280.153C232.469 296.784 185.768 296.784 156.964 280.153L88.4668 240.607L365.217 80.8252Z" fill="#B0B8ED"/>
<path d="M83 210.013C85.5762 207.738 91.2707 202.004 93.4387 197.266C96.1488 191.344 104.68 186.827 111.907 188.433C117.689 189.718 124.406 184.159 125.257 181.608C127.063 176.188 131.982 170.204 152.156 169" stroke="black" stroke-width="0.600855" stroke-linecap="round"/>
<path d="M60.3623 145.326C66.1437 146.61 72.8615 141.051 73.7118 138.5C75.5185 133.08 81.3602 124.97 95.8941 127.459C97.5335 128.095 102.037 128.985 106.935 127.459" stroke="black" stroke-width="0.600855" stroke-linecap="round"/>
<path d="M184.669 89.1779C189.555 86.3569 197.477 86.3569 202.363 89.1779L216.011 97.058C220.897 99.879 220.897 104.453 216.011 107.274L160.359 139.405C145.002 148.271 124.916 153.888 103.347 155.349C102.221 155.426 101.267 154.875 101.399 154.225C103.93 141.772 113.659 130.175 129.016 121.309L184.669 89.1779Z" fill="black" fill-opacity="0.6"/>
<path d="M191.825 120.842L262.924 79.7924V61.1231L221.722 56.0042L150.622 97.0536L100.363 130.882L120.137 142.224C148.156 141.362 171.983 132.297 191.825 120.842Z" fill="#BDDCD8" stroke="black" stroke-width="0.600855" stroke-linecap="round" stroke-linejoin="round"/>
<path d="M221.721 37.1335L262.923 60.9218L180.198 108.683C158.674 121.11 130.52 128.984 100.287 131.032C103.834 113.577 117.471 97.3219 138.996 84.8946L221.721 37.1335Z" fill="white" stroke="black" stroke-width="0.600855" stroke-linecap="round" stroke-linejoin="round"/>
<path d="M196.066 88.1407C203.288 87.6516 210.014 85.7706 215.156 82.802L247.491 64.1334V42.8545L175.742 59.3155L173.351 77.0813C173.927 83.7184 184.169 88.9466 196.066 88.1407Z" fill="#7C7C7C" stroke="black" stroke-width="0.600855" stroke-linecap="round" stroke-linejoin="round"/>
<path d="M195.95 84.0253C203.172 83.5361 209.898 81.6552 215.04 78.6865L247.375 60.0179V38.739L175.626 55.2001L173.234 72.9658C173.811 79.6029 184.053 84.8311 195.95 84.0253Z" fill="#7C7C7C" stroke="black" stroke-width="0.600855" stroke-linecap="round" stroke-linejoin="round"/>
<path d="M217.554 23.6829L249.995 38.9414L249.995 42.413L215.158 62.5264C210.016 65.495 203.291 67.3759 196.068 67.8651C183.005 68.75 171.937 62.3598 173.469 54.8176C174.317 50.6479 177.575 46.7649 182.716 43.7962L217.554 23.6829Z" fill="#BDDCD8" stroke="black" stroke-width="0.600855" stroke-linecap="round" stroke-linejoin="round"/>
<path d="M217.554 20.0701L249.995 38.8002L215.158 58.9136C210.016 61.8822 203.291 63.7631 196.068 64.2523C183.005 65.1372 171.937 58.747 173.469 51.2048C174.317 47.0351 177.575 43.1521 182.716 40.1835L217.554 20.0701Z" fill="white" stroke="black" stroke-width="0.600855" stroke-linecap="round" stroke-linejoin="round"/>
<rect width="26.1198" height="13.9092" rx="0.955451" transform="matrix(0.866025 0.5 -0.866025 0.5 215.491 26.2939)" fill="white" stroke="black" stroke-width="0.600855" stroke-linecap="round" stroke-linejoin="round"/>
<rect width="22.9243" height="10.8391" rx="0.318484" transform="matrix(0.866025 0.5 -0.866025 0.5 215.545 27.8604)" fill="#55A398" stroke="black" stroke-width="0.600855" stroke-linecap="round" stroke-linejoin="round"/>
<path fill-rule="evenodd" clip-rule="evenodd" d="M262.999 79.9623L191.899 121.012C172.058 132.467 148.231 141.532 120.211 142.394L112.01 137.69C140.827 136.597 164.297 128.267 183.468 117.198L219.018 96.6737L262.999 71.2605V79.9623Z" fill="#55A398"/>
<path d="M191.899 121.012L192.049 121.272L191.899 121.012ZM262.999 79.9623L263.149 80.2225C263.242 80.1688 263.299 80.0696 263.299 79.9623H262.999ZM120.211 142.394L120.061 142.654C120.11 142.682 120.165 142.696 120.22 142.694L120.211 142.394ZM112.01 137.69L111.998 137.389C111.864 137.394 111.75 137.488 111.718 137.618C111.686 137.748 111.744 137.884 111.86 137.95L112.01 137.69ZM183.468 117.198L183.618 117.459L183.468 117.198ZM219.018 96.6737L219.168 96.9338L219.168 96.9338L219.018 96.6737ZM262.999 71.2605H263.299C263.299 71.1531 263.242 71.054 263.149 71.0003C263.056 70.9466 262.941 70.9467 262.848 71.0004L262.999 71.2605ZM192.049 121.272L263.149 80.2225L262.848 79.7021L191.749 120.752L192.049 121.272ZM120.22 142.694C148.302 141.83 172.177 132.745 192.049 121.272L191.749 120.752C171.939 132.189 148.16 141.233 120.202 142.094L120.22 142.694ZM111.86 137.95L120.061 142.654L120.36 142.133L112.159 137.429L111.86 137.95ZM112.021 137.99C140.893 136.895 164.41 128.549 183.618 117.459L183.318 116.938C164.184 127.985 140.761 136.298 111.998 137.389L112.021 137.99ZM183.618 117.459L219.168 96.9338L218.868 96.4135L183.318 116.938L183.618 117.459ZM219.168 96.9338L263.149 71.5206L262.848 71.0004L218.868 96.4135L219.168 96.9338ZM263.299 79.9623V71.2605H262.698V79.9623H263.299Z" fill="black"/>
<path d="M128.648 113.389C131.353 114.956 131.353 117.499 128.648 119.066C125.943 120.634 121.558 120.634 118.854 119.066C116.149 117.499 116.149 114.956 118.854 113.389C121.558 111.821 125.943 111.821 128.648 113.389Z" fill="#C4C4C4" stroke="black" stroke-width="0.600855" stroke-linecap="round" stroke-linejoin="round"/>
<path d="M198.305 49.151C201.01 50.7189 201.01 53.261 198.305 54.8289C195.601 56.3969 191.216 56.3969 188.511 54.8289C185.806 53.261 185.806 50.7189 188.511 49.151C191.216 47.5831 195.601 47.5831 198.305 49.151Z" fill="#C4C4C4" stroke="black" stroke-width="0.600855" stroke-linecap="round" stroke-linejoin="round"/>
<path fill-rule="evenodd" clip-rule="evenodd" d="M116.88 116.874C117.129 116.105 117.768 115.369 118.799 114.774C121.516 113.205 125.922 113.205 128.639 114.774C129.67 115.369 130.31 116.105 130.559 116.874C130.31 117.643 129.67 118.378 128.639 118.973C125.922 120.542 121.516 120.542 118.799 118.973C117.768 118.378 117.129 117.643 116.88 116.874Z" fill="#BDDCD8"/>
<path d="M116.88 116.874L116.594 116.781C116.575 116.841 116.575 116.906 116.594 116.966L116.88 116.874ZM118.799 114.774L118.949 115.034L118.799 114.774ZM128.639 114.774L128.489 115.034L128.639 114.774ZM130.559 116.874L130.844 116.966C130.864 116.906 130.864 116.841 130.844 116.781L130.559 116.874ZM128.639 118.973L128.489 118.713L128.639 118.973ZM118.799 118.973L118.949 118.713L118.799 118.973ZM117.166 116.966C117.385 116.288 117.961 115.605 118.949 115.034L118.649 114.514C117.575 115.134 116.872 115.921 116.594 116.781L117.166 116.966ZM118.949 115.034C120.252 114.283 121.977 113.898 123.719 113.898C125.461 113.898 127.187 114.283 128.489 115.034L128.79 114.514C127.375 113.697 125.539 113.297 123.719 113.297C121.9 113.297 120.064 113.697 118.649 114.514L118.949 115.034ZM128.489 115.034C129.477 115.605 130.053 116.288 130.273 116.966L130.844 116.781C130.566 115.921 129.863 115.134 128.79 114.514L128.489 115.034ZM130.273 116.781C130.053 117.459 129.477 118.143 128.489 118.713L128.79 119.233C129.863 118.613 130.566 117.827 130.844 116.966L130.273 116.781ZM128.489 118.713C127.187 119.465 125.461 119.849 123.719 119.849C121.977 119.849 120.252 119.465 118.949 118.713L118.649 119.233C120.064 120.05 121.9 120.45 123.719 120.45C125.539 120.45 127.375 120.05 128.79 119.233L128.489 118.713ZM118.949 118.713C117.961 118.143 117.385 117.459 117.166 116.781L116.594 116.966C116.872 117.827 117.575 118.613 118.649 119.233L118.949 118.713Z" fill="black"/>
<path fill-rule="evenodd" clip-rule="evenodd" d="M186.537 52.6339C186.786 51.8648 187.426 51.1296 188.456 50.5345C191.174 48.9657 195.579 48.9657 198.297 50.5345C199.327 51.1296 199.967 51.8648 200.216 52.6339C199.967 53.403 199.327 54.1382 198.297 54.7332C195.579 56.3021 191.174 56.3021 188.456 54.7332C187.426 54.1382 186.786 53.403 186.537 52.6339Z" fill="#BDDCD8"/>
<path d="M186.537 52.6339L186.251 52.5414C186.232 52.6015 186.232 52.6663 186.251 52.7264L186.537 52.6339ZM188.456 50.5345L188.606 50.7947L188.456 50.5345ZM198.297 50.5345L198.146 50.7947L198.297 50.5345ZM200.216 52.6339L200.502 52.7264C200.521 52.6663 200.521 52.6015 200.502 52.5414L200.216 52.6339ZM198.297 54.7332L198.146 54.4731L198.297 54.7332ZM188.456 54.7332L188.306 54.9934L188.456 54.7332ZM186.823 52.7264C187.042 52.0486 187.619 51.365 188.606 50.7947L188.306 50.2744C187.233 50.8941 186.53 51.681 186.251 52.5414L186.823 52.7264ZM188.606 50.7947C189.909 50.0429 191.634 49.6583 193.376 49.6583C195.118 49.6583 196.844 50.0429 198.146 50.7947L198.447 50.2744C197.032 49.4574 195.196 49.0575 193.376 49.0575C191.557 49.0575 189.721 49.4574 188.306 50.2744L188.606 50.7947ZM198.146 50.7947C199.134 51.365 199.711 52.0486 199.93 52.7264L200.502 52.5414C200.223 51.681 199.52 50.8941 198.447 50.2744L198.146 50.7947ZM199.93 52.5414C199.711 53.2192 199.134 53.9028 198.146 54.4731L198.447 54.9934C199.52 54.3737 200.223 53.5868 200.502 52.7264L199.93 52.5414ZM198.146 54.4731C196.844 55.2249 195.118 55.6094 193.376 55.6094C191.634 55.6094 189.909 55.2249 188.606 54.4731L188.306 54.9934C189.721 55.8104 191.557 56.2103 193.376 56.2103C195.196 56.2103 197.032 55.8104 198.447 54.9934L198.146 54.4731ZM188.606 54.4731C187.619 53.9028 187.042 53.2192 186.823 52.5414L186.251 52.7264C186.53 53.5868 187.233 54.3737 188.306 54.9934L188.606 54.4731Z" fill="black"/>
<path d="M235.163 29.7072L246.907 5.91895" stroke="black" stroke-width="0.600855" stroke-linecap="round" stroke-linejoin="round"/>
<circle cx="246.907" cy="5.61712" r="4.61712" fill="#FF8484" stroke="black" stroke-width="0.600855" stroke-linecap="round" stroke-linejoin="round"/>
<path d="M218 29.7068L208.364 34.1232L211.777 36.1306L221.814 31.915L218 29.7068Z" fill="white" fill-opacity="0.5"/>
<rect width="2.83925" height="20.1066" transform="matrix(0.866025 -0.5 2.20305e-08 1 235.062 51.2002)" fill="white" stroke="black" stroke-width="0.600855" stroke-linecap="round" stroke-linejoin="round"/>
<rect width="13.908" height="20.1066" transform="matrix(0.866025 -0.5 2.20305e-08 1 218.402 60.8213)" fill="white" stroke="black" stroke-width="0.600855" stroke-linecap="round" stroke-linejoin="round"/>
<path d="M256.895 68.1573C257.575 67.7644 258.127 68.0829 258.127 68.8688C258.127 69.6546 257.575 70.6102 256.895 71.0032L231.075 85.91C230.394 86.303 229.843 85.9844 229.843 85.1986C229.843 84.4127 230.394 83.4571 231.075 83.0642L256.895 68.1573Z" fill="white" stroke="black" stroke-width="0.600855" stroke-linecap="round" stroke-linejoin="round"/>
<path d="M225.273 86.4235C225.567 86.2537 225.806 86.7531 225.806 87.5389C225.806 88.3248 225.567 89.0995 225.273 89.2694L214.114 95.7122C213.82 95.882 213.581 95.3826 213.581 94.5968C213.581 93.8109 213.82 93.0362 214.114 92.8663L225.273 86.4235Z" fill="white" stroke="black" stroke-width="0.600855" stroke-linecap="round" stroke-linejoin="round"/>
<path d="M162.084 74.8716L161.825 77.1442C160.761 86.4883 175.28 93.8918 191.208 92.1271L195.65 91.635L195.65 94.2508L148.532 112.356L130.725 102.075L130.725 99.4628L162.084 74.8716Z" fill="#BDDCD8"/>
<path d="M130.725 99.4628L130.725 102.075L148.532 112.356L195.65 94.2508L195.65 91.635M130.725 99.4628L162.084 74.8716L161.825 77.1442C160.761 86.4883 175.28 93.8918 191.208 92.1271L195.65 91.635M130.725 99.4628L195.65 91.635" stroke="black" stroke-width="0.600855" stroke-linecap="round" stroke-linejoin="round"/>
<path d="M162.084 72.2632L161.575 76.7279C160.593 85.3512 172.981 92.5034 187.917 91.9361L195.65 91.6424L148.532 109.748L130.724 99.4669L162.084 72.2632Z" fill="white" stroke="black" stroke-width="0.600855" stroke-linecap="round" stroke-linejoin="round"/>
<rect width="6.05862" height="10.8391" rx="0.318484" transform="matrix(0.866025 0.5 -0.866025 0.5 153.11 88.3232)" fill="#55A398" stroke="black" stroke-width="0.600855" stroke-linecap="round" stroke-linejoin="round"/>
<rect width="6.05862" height="10.8391" rx="0.318484" transform="matrix(0.866025 0.5 -0.866025 0.5 161.742 93.342)" fill="#55A398" stroke="black" stroke-width="0.600855" stroke-linecap="round" stroke-linejoin="round"/>
<path d="M148.541 109.701V112.311" stroke="black" stroke-width="0.600855"/>
<path d="M214.185 105.79C212.017 110.527 206.322 116.262 203.746 118.537L207.46 121.247L280.33 86.3171L279.226 79.0905C274.328 80.6162 269.824 79.7262 268.185 79.0905C253.651 76.6012 247.809 84.7112 246.003 90.1314C245.153 92.6823 238.435 98.2415 232.653 96.9568C225.426 95.3508 216.895 99.8676 214.185 105.79Z" fill="#B0B8ED"/>
<path d="M203.746 118.537C206.322 116.262 212.017 110.527 214.185 105.79C216.895 99.8676 225.426 95.3508 232.653 96.9568C238.435 98.2416 245.153 92.6823 246.003 90.1314C247.809 84.7112 253.651 76.6012 268.185 79.0905C269.824 79.7262 274.328 80.6162 279.226 79.0905" stroke="black" stroke-width="0.600855" stroke-linecap="round"/>
<path d="M119.495 258.352L93 243.055C97.2376 238.763 102.472 234.787 108.605 231.247L164.257 199.116C169.144 196.295 177.065 196.295 181.952 199.116L195.6 206.996C200.486 209.817 200.486 214.391 195.6 217.212L139.947 249.343C133.815 252.883 126.929 255.905 119.495 258.352Z" fill="black" fill-opacity="0.6"/>
<path d="M172.139 230.842L243.239 189.792V171.123L202.036 166.004L130.937 207.054L80.6777 240.882L100.451 252.224C128.471 251.362 152.298 242.297 172.139 230.842Z" fill="#BDDCD8" stroke="black" stroke-width="0.600855" stroke-linecap="round" stroke-linejoin="round"/>
<path d="M202.035 147.134L243.238 170.922L160.513 218.683C138.988 231.11 110.834 238.984 80.6011 241.032C84.148 223.577 97.7858 207.322 119.311 194.895L202.035 147.134Z" fill="white" stroke="black" stroke-width="0.600855" stroke-linecap="round" stroke-linejoin="round"/>
<path d="M176.381 198.141C183.603 197.652 190.328 195.771 195.47 192.802L227.805 174.133V152.854L156.056 169.316L153.665 187.081C154.241 193.718 164.484 198.947 176.381 198.141Z" fill="#7C7C7C" stroke="black" stroke-width="0.600855" stroke-linecap="round" stroke-linejoin="round"/>
<path d="M176.265 194.025C183.487 193.536 190.212 191.655 195.354 188.686L227.689 170.018V148.739L155.94 165.2L153.549 182.966C154.125 189.603 164.367 194.831 176.265 194.025Z" fill="#7C7C7C" stroke="black" stroke-width="0.600855" stroke-linecap="round" stroke-linejoin="round"/>
<path d="M197.868 133.683L230.309 148.941L230.31 152.413L195.472 172.526C190.331 175.495 183.605 177.376 176.383 177.865C163.319 178.75 152.251 172.36 153.784 164.818C154.631 160.648 157.889 156.765 163.031 153.796L197.868 133.683Z" fill="#BDDCD8" stroke="black" stroke-width="0.600855" stroke-linecap="round" stroke-linejoin="round"/>
<path d="M197.868 130.07L230.31 148.8L195.472 168.914C190.331 171.882 183.605 173.763 176.383 174.252C163.319 175.137 152.251 168.747 153.784 161.205C154.631 157.035 157.889 153.152 163.031 150.183L197.868 130.07Z" fill="white" stroke="black" stroke-width="0.600855" stroke-linecap="round" stroke-linejoin="round"/>
<rect width="26.1198" height="13.9092" rx="0.955451" transform="matrix(0.866025 0.5 -0.866025 0.5 195.806 136.294)" fill="white" stroke="black" stroke-width="0.600855" stroke-linecap="round" stroke-linejoin="round"/>
<rect width="22.9243" height="10.8391" rx="0.318484" transform="matrix(0.866025 0.5 -0.866025 0.5 195.859 137.86)" fill="#55A398" stroke="black" stroke-width="0.600855" stroke-linecap="round" stroke-linejoin="round"/>
<path fill-rule="evenodd" clip-rule="evenodd" d="M243.313 189.962L172.213 231.012C152.372 242.467 128.545 251.532 100.525 252.394L92.3242 247.69C121.141 246.597 144.611 238.267 163.783 227.198L199.333 206.674L243.313 181.26V189.962Z" fill="#55A398"/>
<path d="M172.213 231.012L172.364 231.272L172.213 231.012ZM243.313 189.962L243.463 190.222C243.556 190.169 243.613 190.07 243.613 189.962H243.313ZM100.525 252.394L100.376 252.654C100.424 252.682 100.479 252.696 100.535 252.694L100.525 252.394ZM92.3242 247.69L92.3128 247.389C92.1789 247.394 92.0645 247.488 92.0325 247.618C92.0005 247.748 92.0585 247.884 92.1747 247.95L92.3242 247.69ZM163.783 227.198L163.933 227.459L163.783 227.198ZM199.333 206.674L199.483 206.934L199.483 206.934L199.333 206.674ZM243.313 181.26H243.613C243.613 181.153 243.556 181.054 243.463 181C243.37 180.947 243.256 180.947 243.163 181L243.313 181.26ZM172.364 231.272L243.463 190.222L243.163 189.702L172.063 230.752L172.364 231.272ZM100.535 252.694C128.616 251.83 152.491 242.745 172.364 231.272L172.063 230.752C152.253 242.189 128.474 251.233 100.516 252.094L100.535 252.694ZM92.1747 247.95L100.376 252.654L100.675 252.133L92.4737 247.429L92.1747 247.95ZM92.3356 247.99C121.207 246.895 144.724 238.549 163.933 227.459L163.632 226.938C144.498 237.985 121.076 246.298 92.3128 247.389L92.3356 247.99ZM163.933 227.459L199.483 206.934L199.182 206.413L163.632 226.938L163.933 227.459ZM199.483 206.934L243.463 181.521L243.163 181L199.182 206.414L199.483 206.934ZM243.613 189.962V181.26H243.013V189.962H243.613Z" fill="black"/>
<path d="M108.963 223.389C111.667 224.956 111.667 227.499 108.963 229.066C106.258 230.634 101.873 230.634 99.1681 229.066C96.4635 227.499 96.4635 224.956 99.1681 223.389C101.873 221.821 106.258 221.821 108.963 223.389Z" fill="#C4C4C4" stroke="black" stroke-width="0.600855" stroke-linecap="round" stroke-linejoin="round"/>
<path d="M178.62 159.151C181.324 160.719 181.324 163.261 178.62 164.829C175.915 166.397 171.53 166.397 168.825 164.829C166.121 163.261 166.121 160.719 168.825 159.151C171.53 157.583 175.915 157.583 178.62 159.151Z" fill="#C4C4C4" stroke="black" stroke-width="0.600855" stroke-linecap="round" stroke-linejoin="round"/>
<path fill-rule="evenodd" clip-rule="evenodd" d="M97.1943 226.874C97.4432 226.105 98.0829 225.369 99.1135 224.774C101.831 223.205 106.236 223.205 108.954 224.774C109.984 225.369 110.624 226.105 110.873 226.874C110.624 227.643 109.984 228.378 108.954 228.973C106.236 230.542 101.831 230.542 99.1135 228.973C98.0829 228.378 97.4432 227.643 97.1943 226.874Z" fill="#BDDCD8"/>
<path d="M97.1943 226.874L96.9085 226.781C96.889 226.841 96.889 226.906 96.9085 226.966L97.1943 226.874ZM99.1135 224.774L99.2637 225.034L99.1135 224.774ZM108.954 224.774L108.804 225.034L108.954 224.774ZM110.873 226.874L111.159 226.966C111.178 226.906 111.178 226.841 111.159 226.781L110.873 226.874ZM108.954 228.973L108.804 228.713L108.954 228.973ZM99.1135 228.973L99.2637 228.713L99.1135 228.973ZM97.4802 226.966C97.6995 226.288 98.2759 225.605 99.2637 225.034L98.9633 224.514C97.8899 225.134 97.1869 225.921 96.9085 226.781L97.4802 226.966ZM99.2637 225.034C100.566 224.283 102.292 223.898 104.034 223.898C105.776 223.898 107.501 224.283 108.804 225.034L109.104 224.514C107.689 223.697 105.853 223.297 104.034 223.297C102.214 223.297 100.378 223.697 98.9633 224.514L99.2637 225.034ZM108.804 225.034C109.791 225.605 110.368 226.288 110.587 226.966L111.159 226.781C110.88 225.921 110.177 225.134 109.104 224.514L108.804 225.034ZM110.587 226.781C110.368 227.459 109.791 228.143 108.804 228.713L109.104 229.233C110.177 228.613 110.88 227.827 111.159 226.966L110.587 226.781ZM108.804 228.713C107.501 229.465 105.776 229.849 104.034 229.849C102.292 229.849 100.566 229.465 99.2637 228.713L98.9633 229.233C100.378 230.05 102.214 230.45 104.034 230.45C105.853 230.45 107.689 230.05 109.104 229.233L108.804 228.713ZM99.2637 228.713C98.2759 228.143 97.6995 227.459 97.4802 226.781L96.9085 226.966C97.1869 227.827 97.8899 228.613 98.9633 229.233L99.2637 228.713Z" fill="black"/>
<path fill-rule="evenodd" clip-rule="evenodd" d="M166.852 162.634C167.1 161.865 167.74 161.13 168.771 160.535C171.488 158.966 175.894 158.966 178.611 160.535C179.642 161.13 180.281 161.865 180.53 162.634C180.281 163.403 179.642 164.138 178.611 164.733C175.894 166.302 171.488 166.302 168.771 164.733C167.74 164.138 167.1 163.403 166.852 162.634Z" fill="#BDDCD8"/>
<path d="M166.852 162.634L166.566 162.541C166.546 162.602 166.546 162.666 166.566 162.726L166.852 162.634ZM168.771 160.535L168.921 160.795L168.771 160.535ZM178.611 160.535L178.461 160.795L178.611 160.535ZM180.53 162.634L180.816 162.726C180.836 162.666 180.836 162.602 180.816 162.541L180.53 162.634ZM178.611 164.733L178.461 164.473L178.611 164.733ZM168.771 164.733L168.621 164.993L168.771 164.733ZM167.137 162.726C167.357 162.049 167.933 161.365 168.921 160.795L168.621 160.274C167.547 160.894 166.844 161.681 166.566 162.541L167.137 162.726ZM168.921 160.795C170.223 160.043 171.949 159.658 173.691 159.658C175.433 159.658 177.159 160.043 178.461 160.795L178.761 160.274C177.346 159.457 175.51 159.057 173.691 159.057C171.871 159.057 170.036 159.457 168.621 160.274L168.921 160.795ZM178.461 160.795C179.449 161.365 180.025 162.049 180.244 162.726L180.816 162.541C180.538 161.681 179.835 160.894 178.761 160.274L178.461 160.795ZM180.244 162.541C180.025 163.219 179.449 163.903 178.461 164.473L178.761 164.993C179.835 164.374 180.538 163.587 180.816 162.726L180.244 162.541ZM178.461 164.473C177.159 165.225 175.433 165.609 173.691 165.609C171.949 165.609 170.223 165.225 168.921 164.473L168.621 164.993C170.036 165.81 171.871 166.21 173.691 166.21C175.51 166.21 177.346 165.81 178.761 164.993L178.461 164.473ZM168.921 164.473C167.933 163.903 167.357 163.219 167.137 162.541L166.566 162.726C166.844 163.587 167.547 164.374 168.621 164.993L168.921 164.473Z" fill="black"/>
<path d="M215.478 139.707L227.221 115.919" stroke="black" stroke-width="0.600855" stroke-linecap="round" stroke-linejoin="round"/>
<circle cx="227.222" cy="115.617" r="4.61712" fill="#FF8484" stroke="black" stroke-width="0.600855" stroke-linecap="round" stroke-linejoin="round"/>
<path d="M198.314 139.707L188.679 144.123L192.091 146.131L202.129 141.915L198.314 139.707Z" fill="white" fill-opacity="0.5"/>
<rect width="2.83925" height="20.1066" transform="matrix(0.866025 -0.5 2.20305e-08 1 215.376 161.2)" fill="white" stroke="black" stroke-width="0.600855" stroke-linecap="round" stroke-linejoin="round"/>
<rect width="13.908" height="20.1066" transform="matrix(0.866025 -0.5 2.20305e-08 1 198.717 170.821)" fill="white" stroke="black" stroke-width="0.600855" stroke-linecap="round" stroke-linejoin="round"/>
<path d="M237.209 178.157C237.89 177.764 238.441 178.083 238.441 178.869C238.441 179.655 237.89 180.61 237.209 181.003L211.39 195.91C210.709 196.303 210.157 195.984 210.157 195.199C210.157 194.413 210.709 193.457 211.39 193.064L237.209 178.157Z" fill="white" stroke="black" stroke-width="0.600855" stroke-linecap="round" stroke-linejoin="round"/>
<path d="M205.587 196.424C205.882 196.254 206.12 196.753 206.12 197.539C206.12 198.325 205.882 199.1 205.587 199.269L194.428 205.712C194.134 205.882 193.896 205.383 193.896 204.597C193.896 203.811 194.134 203.036 194.428 202.866L205.587 196.424Z" fill="white" stroke="black" stroke-width="0.600855" stroke-linecap="round" stroke-linejoin="round"/>
<path d="M142.399 184.872L142.14 187.144C141.075 196.488 155.594 203.892 171.523 202.127L175.964 201.635L175.964 204.251L128.846 222.356L111.039 212.075L111.039 209.463L142.399 184.872Z" fill="#BDDCD8"/>
<path d="M111.039 209.463L111.039 212.075L128.846 222.356L175.964 204.251L175.964 201.635M111.039 209.463L142.399 184.872L142.14 187.144C141.075 196.488 155.594 203.892 171.523 202.127L175.964 201.635M111.039 209.463L175.964 201.635" stroke="black" stroke-width="0.600855" stroke-linecap="round" stroke-linejoin="round"/>
<path d="M142.398 182.263L141.89 186.728C140.907 195.351 153.295 202.503 168.231 201.936L175.964 201.642L128.846 219.748L111.039 209.467L142.398 182.263Z" fill="white" stroke="black" stroke-width="0.600855" stroke-linecap="round" stroke-linejoin="round"/>
<rect width="6.05862" height="10.8391" rx="0.318484" transform="matrix(0.866025 0.5 -0.866025 0.5 133.425 198.323)" fill="#55A398" stroke="black" stroke-width="0.600855" stroke-linecap="round" stroke-linejoin="round"/>
<rect width="6.05862" height="10.8391" rx="0.318484" transform="matrix(0.866025 0.5 -0.866025 0.5 142.057 203.342)" fill="#55A398" stroke="black" stroke-width="0.600855" stroke-linecap="round" stroke-linejoin="round"/>
<path d="M128.855 219.701V222.311" stroke="black" stroke-width="0.600855"/>
<path d="M159.439 233.162C157.271 237.899 151.576 243.634 149 245.909L152.714 248.619L225.584 213.689L224.48 206.463C219.582 207.988 215.078 207.098 213.439 206.463C198.905 203.974 193.063 212.083 191.257 217.504C190.406 220.055 183.689 225.614 177.907 224.329C170.68 222.723 162.149 227.24 159.439 233.162Z" fill="#B0B8ED"/>
<path d="M149 245.909C151.576 243.634 157.271 237.899 159.439 233.162C162.149 227.24 170.68 222.723 177.907 224.329C183.689 225.614 190.406 220.055 191.257 217.504C193.063 212.083 198.905 203.974 213.439 206.463C215.078 207.098 219.582 207.988 224.48 206.463" stroke="black" stroke-width="0.600855" stroke-linecap="round"/>
<path d="M357.849 245.152V211.918L334 193.552" stroke="black" stroke-width="1.00142" stroke-linecap="round" stroke-linejoin="round"/>
<rect x="0.500712" y="-0.500712" width="46.9986" height="10.9986" transform="matrix(1 0 0 -1 368 243.999)" fill="#FFB681" stroke="black" stroke-width="1.00142" stroke-linecap="round" stroke-linejoin="round"/>
<rect x="0.500712" y="-0.500712" width="60.0854" height="8.01139" transform="matrix(1 0 0 -1 368.413 222.151)" fill="#FFDBC0" stroke="black" stroke-width="1.00142" stroke-linecap="round" stroke-linejoin="round"/>
<path d="M198 226L241.562 259.548V293" stroke="black" stroke-width="1.00142" stroke-linecap="round" stroke-linejoin="round"/>
<rect x="252.502" y="262.501" width="60.9986" height="10.9986" fill="#FFB681" stroke="black" stroke-width="1.00142" stroke-linecap="round" stroke-linejoin="round"/>
<rect x="252.501" y="284.501" width="42.9986" height="7.99858" fill="#FFDBC0" stroke="black" stroke-width="1.00142" stroke-linecap="round" stroke-linejoin="round"/>
<path d="M342.983 150.178C347.869 147.357 355.791 147.357 360.677 150.178L374.326 158.058C379.212 160.879 379.212 165.453 374.326 168.274L318.673 200.405C303.317 209.271 283.231 214.888 261.661 216.349C260.536 216.426 259.582 215.875 259.714 215.225C262.244 202.772 271.974 191.175 287.33 182.309L342.983 150.178Z" fill="black" fill-opacity="0.6"/>
<path d="M350.139 181.842L421.239 140.792V122.123L380.036 117.004L308.937 158.054L258.678 191.882L278.451 203.224C306.471 202.362 330.298 193.297 350.139 181.842Z" fill="#BDDCD8" stroke="black" stroke-width="0.600855" stroke-linecap="round" stroke-linejoin="round"/>
<path d="M380.035 98.1335L421.238 121.922L338.513 169.683C316.988 182.11 288.834 189.984 258.601 192.032C262.148 174.577 275.786 158.322 297.311 145.895L380.035 98.1335Z" fill="white" stroke="black" stroke-width="0.600855" stroke-linecap="round" stroke-linejoin="round"/>
<path d="M354.381 149.141C361.603 148.652 368.328 146.771 373.47 143.802L405.805 125.133V103.854L334.056 120.316L331.665 138.081C332.241 144.718 342.484 149.947 354.381 149.141Z" fill="#7C7C7C" stroke="black" stroke-width="0.600855" stroke-linecap="round" stroke-linejoin="round"/>
<path d="M354.265 145.025C361.487 144.536 368.212 142.655 373.354 139.686L405.689 121.018V99.739L333.94 116.2L331.549 133.966C332.125 140.603 342.367 145.831 354.265 145.025Z" fill="#7C7C7C" stroke="black" stroke-width="0.600855" stroke-linecap="round" stroke-linejoin="round"/>
<path d="M375.868 84.6829L408.309 99.9414L408.31 103.413L373.472 123.526C368.331 126.495 361.605 128.376 354.383 128.865C341.319 129.75 330.251 123.36 331.784 115.818C332.631 111.648 335.889 107.765 341.031 104.796L375.868 84.6829Z" fill="#BDDCD8" stroke="black" stroke-width="0.600855" stroke-linecap="round" stroke-linejoin="round"/>
<path d="M375.868 81.0701L408.31 99.8002L373.472 119.914C368.331 122.882 361.605 124.763 354.383 125.252C341.319 126.137 330.251 119.747 331.784 112.205C332.631 108.035 335.889 104.152 341.031 101.183L375.868 81.0701Z" fill="white" stroke="black" stroke-width="0.600855" stroke-linecap="round" stroke-linejoin="round"/>
<rect width="26.1198" height="13.9092" rx="0.955451" transform="matrix(0.866025 0.5 -0.866025 0.5 373.806 87.2939)" fill="white" stroke="black" stroke-width="0.600855" stroke-linecap="round" stroke-linejoin="round"/>
<rect width="22.9243" height="10.8391" rx="0.318484" transform="matrix(0.866025 0.5 -0.866025 0.5 373.859 88.8604)" fill="#55A398" stroke="black" stroke-width="0.600855" stroke-linecap="round" stroke-linejoin="round"/>
<path fill-rule="evenodd" clip-rule="evenodd" d="M421.313 140.962L350.213 182.012C330.372 193.467 306.545 202.532 278.525 203.394L270.324 198.69C299.141 197.597 322.611 189.267 341.783 178.198L377.333 157.674L421.313 132.26V140.962Z" fill="#55A398"/>
<path d="M350.213 182.012L350.364 182.272L350.213 182.012ZM421.313 140.962L421.463 141.222C421.556 141.169 421.613 141.07 421.613 140.962H421.313ZM278.525 203.394L278.376 203.654C278.424 203.682 278.479 203.696 278.535 203.694L278.525 203.394ZM270.324 198.69L270.313 198.389C270.179 198.394 270.065 198.488 270.033 198.618C270 198.748 270.058 198.884 270.175 198.95L270.324 198.69ZM341.783 178.198L341.933 178.459L341.783 178.198ZM377.333 157.674L377.483 157.934L377.483 157.934L377.333 157.674ZM421.313 132.26H421.613C421.613 132.153 421.556 132.054 421.463 132C421.37 131.947 421.256 131.947 421.163 132L421.313 132.26ZM350.364 182.272L421.463 141.222L421.163 140.702L350.063 181.752L350.364 182.272ZM278.535 203.694C306.616 202.83 330.491 193.745 350.364 182.272L350.063 181.752C330.253 193.189 306.474 202.233 278.516 203.094L278.535 203.694ZM270.175 198.95L278.376 203.654L278.675 203.133L270.474 198.429L270.175 198.95ZM270.336 198.99C299.207 197.895 322.724 189.549 341.933 178.459L341.632 177.938C322.498 188.985 299.076 197.298 270.313 198.389L270.336 198.99ZM341.933 178.459L377.483 157.934L377.182 157.413L341.632 177.938L341.933 178.459ZM377.483 157.934L421.463 132.521L421.163 132L377.182 157.414L377.483 157.934ZM421.613 140.962V132.26H421.013V140.962H421.613Z" fill="black"/>
<path d="M286.963 174.389C289.667 175.956 289.667 178.499 286.963 180.066C284.258 181.634 279.873 181.634 277.168 180.066C274.463 178.499 274.463 175.956 277.168 174.389C279.873 172.821 284.258 172.821 286.963 174.389Z" fill="#C4C4C4" stroke="black" stroke-width="0.600855" stroke-linecap="round" stroke-linejoin="round"/>
<path d="M356.62 110.151C359.324 111.719 359.324 114.261 356.62 115.829C353.915 117.397 349.53 117.397 346.825 115.829C344.121 114.261 344.121 111.719 346.825 110.151C349.53 108.583 353.915 108.583 356.62 110.151Z" fill="#C4C4C4" stroke="black" stroke-width="0.600855" stroke-linecap="round" stroke-linejoin="round"/>
<path fill-rule="evenodd" clip-rule="evenodd" d="M275.194 177.874C275.443 177.105 276.083 176.369 277.114 175.774C279.831 174.205 284.236 174.205 286.954 175.774C287.984 176.369 288.624 177.105 288.873 177.874C288.624 178.643 287.984 179.378 286.954 179.973C284.236 181.542 279.831 181.542 277.114 179.973C276.083 179.378 275.443 178.643 275.194 177.874Z" fill="#BDDCD8"/>
<path d="M275.194 177.874L274.908 177.781C274.889 177.841 274.889 177.906 274.908 177.966L275.194 177.874ZM277.114 175.774L277.264 176.034L277.114 175.774ZM286.954 175.774L286.804 176.034L286.954 175.774ZM288.873 177.874L289.159 177.966C289.178 177.906 289.178 177.841 289.159 177.781L288.873 177.874ZM286.954 179.973L286.804 179.713L286.954 179.973ZM277.114 179.973L277.264 179.713L277.114 179.973ZM275.48 177.966C275.699 177.288 276.276 176.605 277.264 176.034L276.963 175.514C275.89 176.134 275.187 176.921 274.908 177.781L275.48 177.966ZM277.264 176.034C278.566 175.283 280.292 174.898 282.034 174.898C283.776 174.898 285.501 175.283 286.804 176.034L287.104 175.514C285.689 174.697 283.853 174.297 282.034 174.297C280.214 174.297 278.378 174.697 276.963 175.514L277.264 176.034ZM286.804 176.034C287.791 176.605 288.368 177.288 288.587 177.966L289.159 177.781C288.88 176.921 288.177 176.134 287.104 175.514L286.804 176.034ZM288.587 177.781C288.368 178.459 287.791 179.143 286.804 179.713L287.104 180.233C288.177 179.613 288.88 178.827 289.159 177.966L288.587 177.781ZM286.804 179.713C285.501 180.465 283.776 180.849 282.034 180.849C280.292 180.849 278.566 180.465 277.264 179.713L276.963 180.233C278.378 181.05 280.214 181.45 282.034 181.45C283.853 181.45 285.689 181.05 287.104 180.233L286.804 179.713ZM277.264 179.713C276.276 179.143 275.699 178.459 275.48 177.781L274.908 177.966C275.187 178.827 275.89 179.613 276.963 180.233L277.264 179.713Z" fill="black"/>
<path fill-rule="evenodd" clip-rule="evenodd" d="M344.852 113.634C345.1 112.865 345.74 112.13 346.771 111.535C349.488 109.966 353.894 109.966 356.611 111.535C357.642 112.13 358.281 112.865 358.53 113.634C358.281 114.403 357.642 115.138 356.611 115.733C353.894 117.302 349.488 117.302 346.771 115.733C345.74 115.138 345.1 114.403 344.852 113.634Z" fill="#BDDCD8"/>
<path d="M344.852 113.634L344.566 113.541C344.546 113.602 344.546 113.666 344.566 113.726L344.852 113.634ZM346.771 111.535L346.921 111.795L346.771 111.535ZM356.611 111.535L356.461 111.795L356.611 111.535ZM358.53 113.634L358.816 113.726C358.836 113.666 358.836 113.602 358.816 113.541L358.53 113.634ZM356.611 115.733L356.461 115.473L356.611 115.733ZM346.771 115.733L346.621 115.993L346.771 115.733ZM345.137 113.726C345.357 113.049 345.933 112.365 346.921 111.795L346.621 111.274C345.547 111.894 344.844 112.681 344.566 113.541L345.137 113.726ZM346.921 111.795C348.223 111.043 349.949 110.658 351.691 110.658C353.433 110.658 355.159 111.043 356.461 111.795L356.761 111.274C355.346 110.457 353.51 110.057 351.691 110.057C349.871 110.057 348.036 110.457 346.621 111.274L346.921 111.795ZM356.461 111.795C357.449 112.365 358.025 113.049 358.244 113.726L358.816 113.541C358.538 112.681 357.835 111.894 356.761 111.274L356.461 111.795ZM358.244 113.541C358.025 114.219 357.449 114.903 356.461 115.473L356.761 115.993C357.835 115.374 358.538 114.587 358.816 113.726L358.244 113.541ZM356.461 115.473C355.159 116.225 353.433 116.609 351.691 116.609C349.949 116.609 348.223 116.225 346.921 115.473L346.621 115.993C348.036 116.81 349.871 117.21 351.691 117.21C353.51 117.21 355.346 116.81 356.761 115.993L356.461 115.473ZM346.921 115.473C345.933 114.903 345.357 114.219 345.137 113.541L344.566 113.726C344.844 114.587 345.547 115.374 346.621 115.993L346.921 115.473Z" fill="black"/>
<path d="M393.478 90.7072L405.221 66.9189" stroke="black" stroke-width="0.600855" stroke-linecap="round" stroke-linejoin="round"/>
<circle cx="405.222" cy="66.6171" r="4.61712" fill="#FF8484" stroke="black" stroke-width="0.600855" stroke-linecap="round" stroke-linejoin="round"/>
<path d="M376.314 90.7068L366.679 95.1232L370.091 97.1306L380.129 92.915L376.314 90.7068Z" fill="white" fill-opacity="0.5"/>
<rect width="2.83925" height="20.1066" transform="matrix(0.866025 -0.5 2.20305e-08 1 393.376 112.2)" fill="white" stroke="black" stroke-width="0.600855" stroke-linecap="round" stroke-linejoin="round"/>
<rect width="13.908" height="20.1066" transform="matrix(0.866025 -0.5 2.20305e-08 1 376.717 121.821)" fill="white" stroke="black" stroke-width="0.600855" stroke-linecap="round" stroke-linejoin="round"/>
<path d="M415.209 129.157C415.89 128.764 416.441 129.083 416.441 129.869C416.441 130.655 415.89 131.61 415.209 132.003L389.39 146.91C388.709 147.303 388.157 146.984 388.157 146.199C388.157 145.413 388.709 144.457 389.39 144.064L415.209 129.157Z" fill="white" stroke="black" stroke-width="0.600855" stroke-linecap="round" stroke-linejoin="round"/>
<path d="M383.587 147.424C383.882 147.254 384.12 147.753 384.12 148.539C384.12 149.325 383.882 150.1 383.587 150.269L372.428 156.712C372.134 156.882 371.896 156.383 371.896 155.597C371.896 154.811 372.134 154.036 372.428 153.866L383.587 147.424Z" fill="white" stroke="black" stroke-width="0.600855" stroke-linecap="round" stroke-linejoin="round"/>
<path d="M320.399 135.872L320.14 138.144C319.075 147.488 333.594 154.892 349.523 153.127L353.964 152.635L353.964 155.251L306.846 173.356L289.039 163.075L289.039 160.463L320.399 135.872Z" fill="#BDDCD8"/>
<path d="M289.039 160.463L289.039 163.075L306.846 173.356L353.964 155.251L353.964 152.635M289.039 160.463L320.399 135.872L320.14 138.144C319.075 147.488 333.594 154.892 349.523 153.127L353.964 152.635M289.039 160.463L353.964 152.635" stroke="black" stroke-width="0.600855" stroke-linecap="round" stroke-linejoin="round"/>
<path d="M320.398 133.263L319.89 137.728C318.907 146.351 331.295 153.503 346.231 152.936L353.964 152.642L306.846 170.748L289.039 160.467L320.398 133.263Z" fill="white" stroke="black" stroke-width="0.600855" stroke-linecap="round" stroke-linejoin="round"/>
<rect width="6.05862" height="10.8391" rx="0.318484" transform="matrix(0.866025 0.5 -0.866025 0.5 311.425 149.323)" fill="#55A398" stroke="black" stroke-width="0.600855" stroke-linecap="round" stroke-linejoin="round"/>
<rect width="6.05862" height="10.8391" rx="0.318484" transform="matrix(0.866025 0.5 -0.866025 0.5 320.057 154.342)" fill="#55A398" stroke="black" stroke-width="0.600855" stroke-linecap="round" stroke-linejoin="round"/>
<path d="M306.855 170.701V173.311" stroke="black" stroke-width="0.600855"/>
<path d="M370.339 171.473C369.724 174.091 363.539 180.237 357.665 179.483L358.5 183.5L404.5 160.5L402.422 157.461C397.683 159.425 393.117 158.948 391.427 158.464C376.727 157.304 371.646 165.911 370.339 171.473Z" fill="#B0B8ED"/>
<path d="M357.665 179.483C363.539 180.237 369.724 174.091 370.339 171.473C371.646 165.911 376.727 157.304 391.427 158.464C393.117 158.948 397.683 159.425 402.422 157.461" stroke="black" stroke-width="0.600855" stroke-linecap="round"/>
<path d="M90.6509 19.2451V52.4792L129.5 82.3974" stroke="black" stroke-width="1.00142" stroke-linecap="round" stroke-linejoin="round"/>
<rect x="-0.500712" y="0.500712" width="66.9986" height="10.9986" transform="matrix(-1 0 0 1 78.9986 19.2451)" fill="#FFB681" stroke="black" stroke-width="1.00142" stroke-linecap="round" stroke-linejoin="round"/>
<rect x="-0.500712" y="0.500712" width="60.0854" height="8.01139" transform="matrix(-1 0 0 1 79.0855 41.2451)" fill="#FFDBC0" stroke="black" stroke-width="1.00142" stroke-linecap="round" stroke-linejoin="round"/>
</svg>
