<svg width="666" height="429" viewBox="0 0 666 429" fill="none" xmlns="http://www.w3.org/2000/svg">

<style>
@keyframes float {
  0% { transform: translateY(0); }
  100% { transform: translateY(5px); }
}
@keyframes grow {
  0% { transform: scale(1.0); }
  100% { transform: scale(1.2); }
}
@keyframes waves {
  0% { transform: translate(0, 2px); }
  100% { transform: translate(3px, 0px); }
}

#boat1 {
  animation: 1s ease-in-out 0ms infinite alternate float;
}
#shadow1 {
  animation: 1s ease-in-out 0ms infinite alternate grow;
  transform-origin: 381px 315px;
}


#boat2 {
  animation: 1.2s ease-in-out 50ms infinite alternate float;
}
#shadow2 {
  animation: 1.2s ease-in-out 50ms infinite alternate grow;
  transform-origin: 157px 366px;
}

#boat3 {
  animation: 1.1s ease-in-out 100ms infinite alternate float;
}
#shadow3 {
  animation: 1.1s ease-in-out 100ms infinite alternate grow;
  transform-origin: 152px 224px;
}

#wave1 {
  animation: 1.5s ease-in-out 0ms infinite alternate waves;
}
#wave2 {
  animation: 1.6s ease-in-out 0ms infinite alternate waves;
}
#wave3 {
  animation: 1.4s ease-in-out 0ms infinite alternate waves;
}
#random-wave1 {
  animation: 1.45s ease-in-out 0ms infinite alternate waves;
}
#random-wave2 {
  animation: 1.55s ease-in-out 0ms infinite alternate waves;
}


</style>

<g id="fleet">
<path id="water" d="M438.158 62.3709C393.863 36.7972 322.047 36.7973 277.752 62.371L34.125 203.029C-10.1699 228.603 -10.1699 270.066 34.125 295.64L130.061 351.028L130.058 351.029L230.058 408.764C272.111 433.043 340.291 433.043 382.343 408.764L634.092 263.417C676.144 239.138 676.144 199.775 634.092 175.496L534.095 117.763L534.097 117.761L438.158 62.3709Z" fill="#B0B8ED"/>
<g id="boats">
<path id="random-wave1" d="M122.077 306.367C125.838 303.046 134.152 294.674 137.317 287.757C141.273 279.112 153.729 272.518 164.279 274.862C172.72 276.738 182.527 268.622 183.769 264.898C186.406 256.985 193.587 248.25 223.04 246.491" stroke="black" stroke-width="0.877201" stroke-linecap="round"/>
<path id="random-wave2" d="M89.0278 211.928C97.4683 213.803 107.276 205.687 108.517 201.963C111.155 194.05 119.683 182.21 140.901 185.844C143.295 186.772 149.869 188.072 157.02 185.844" stroke="black" stroke-width="0.877201" stroke-linecap="round"/>
<g id="boat-with-assets3">
<path id="shadow3" d="M270.506 129.958C277.639 125.84 289.205 125.84 296.338 129.958L316.264 141.462C323.397 145.581 323.397 152.258 316.264 156.376L235.015 203.285C212.596 216.229 183.272 224.43 151.783 226.563C150.139 226.674 148.746 225.87 148.939 224.921C152.633 206.741 166.838 189.811 189.257 176.867L270.506 129.958Z" fill="black" fill-opacity="0.6"/>
<g id="boat3">
<g id="Group 1543">
<path id="Rectangle 1584" d="M280.953 176.184L384.753 116.255V88.9994L324.6 81.5261L220.8 141.455L147.426 190.842L176.294 207.4C217.201 206.142 251.986 192.908 280.953 176.184Z" fill="#BDDCD8" stroke="black" stroke-width="0.877201" stroke-linecap="round" stroke-linejoin="round"/>
<path id="Rectangle 1585" d="M324.599 53.9758L384.751 88.7048L263.979 158.432C232.555 176.575 191.452 188.07 147.314 191.06C152.493 165.577 172.403 141.846 203.827 123.703L324.599 53.9758Z" fill="white" stroke="black" stroke-width="0.877201" stroke-linecap="round" stroke-linejoin="round"/>
<path id="Rectangle 1586" d="M287.146 128.445C297.689 127.731 307.508 124.985 315.015 120.651L362.221 93.3959V62.3303L257.473 86.3622L253.982 112.299C254.824 121.988 269.777 129.621 287.146 128.445Z" fill="#7C7C7C" stroke="black" stroke-width="0.877201" stroke-linecap="round" stroke-linejoin="round"/>
<path id="Rectangle 1587" d="M286.976 122.434C297.519 121.72 307.338 118.974 314.845 114.64L362.051 87.3851V56.3196L257.303 80.3514L253.812 106.288C254.654 115.978 269.607 123.61 286.976 122.434Z" fill="#7C7C7C" stroke="black" stroke-width="0.877201" stroke-linecap="round" stroke-linejoin="round"/>
<path id="Rectangle 1588" d="M318.516 34.3411L365.877 56.6174L365.878 61.6856L315.018 91.0495C307.511 95.3836 297.693 98.1296 287.149 98.8437C268.077 100.136 251.919 90.8063 254.156 79.7954C255.393 73.7079 260.149 68.0391 267.656 63.705L318.516 34.3411Z" fill="#BDDCD8" stroke="black" stroke-width="0.877201" stroke-linecap="round" stroke-linejoin="round"/>
<path id="Rectangle 1589" d="M318.516 29.0659L365.878 56.4104L315.018 85.7744C307.511 90.1084 297.693 92.8544 287.149 93.5686C268.077 94.8604 251.919 85.5312 254.156 74.5202C255.393 68.4328 260.149 62.7639 267.656 58.4299L318.516 29.0659Z" fill="white" stroke="black" stroke-width="0.877201" stroke-linecap="round" stroke-linejoin="round"/>
<rect id="Rectangle 1590" width="38.1329" height="20.3063" rx="1.39488" transform="matrix(0.866025 0.5 -0.866025 0.5 315.504 38.1506)" fill="white" stroke="black" stroke-width="0.877201" stroke-linecap="round" stroke-linejoin="round"/>
<rect id="Rectangle 1591" width="33.4677" height="15.8242" rx="0.464961" transform="matrix(0.866025 0.5 -0.866025 0.5 315.583 40.4402)" fill="#55A398" stroke="black" stroke-width="0.877201" stroke-linecap="round" stroke-linejoin="round"/>
<g id="Intersect">
<path fill-rule="evenodd" clip-rule="evenodd" d="M384.861 116.503L281.061 176.432C252.094 193.156 217.309 206.39 176.402 207.648L164.429 200.781C206.5 199.185 240.765 187.024 268.753 170.865L320.653 140.901L384.861 103.8V116.503Z" fill="#55A398"/>
<path d="M281.061 176.432L280.842 176.052L281.061 176.432ZM384.861 116.503L385.08 116.883C385.216 116.805 385.3 116.66 385.3 116.503H384.861ZM176.402 207.648L176.184 208.029C176.254 208.069 176.334 208.089 176.416 208.087L176.402 207.648ZM164.429 200.781L164.413 200.342C164.217 200.35 164.05 200.486 164.003 200.676C163.957 200.866 164.041 201.064 164.211 201.161L164.429 200.781ZM268.753 170.865L268.534 170.485L268.753 170.865ZM320.653 140.901L320.873 141.28L320.873 141.28L320.653 140.901ZM384.861 103.8H385.3C385.3 103.643 385.216 103.498 385.08 103.42C384.944 103.341 384.777 103.341 384.642 103.42L384.861 103.8ZM281.28 176.812L385.08 116.883L384.642 116.123L280.842 176.052L281.28 176.812ZM176.416 208.087C217.412 206.826 252.268 193.562 281.28 176.812L280.842 176.052C251.92 192.75 217.205 205.954 176.389 207.21L176.416 208.087ZM164.211 201.161L176.184 208.029L176.62 207.268L164.647 200.4L164.211 201.161ZM164.446 201.219C206.596 199.62 240.93 187.436 268.973 171.245L268.534 170.485C240.6 186.613 206.404 198.75 164.413 200.342L164.446 201.219ZM268.973 171.245L320.873 141.28L320.434 140.521L268.534 170.485L268.973 171.245ZM320.873 141.28L385.08 104.179L384.642 103.42L320.434 140.521L320.873 141.28ZM385.3 116.503V103.8H384.422V116.503H385.3Z" fill="black"/>
</g>
<path id="Ellipse 191" d="M188.72 165.304C192.669 167.593 192.669 171.304 188.72 173.593C184.771 175.882 178.369 175.882 174.421 173.593C170.472 171.304 170.472 167.593 174.421 165.304C178.369 163.015 184.771 163.015 188.72 165.304Z" fill="#C4C4C4" stroke="black" stroke-width="0.877201" stroke-linecap="round" stroke-linejoin="round"/>
<path id="Ellipse 192" d="M290.414 71.5207C294.363 73.8098 294.363 77.521 290.414 79.81C286.466 82.0991 280.064 82.0991 276.115 79.81C272.167 77.521 272.167 73.8098 276.115 71.5207C280.064 69.2317 286.466 69.2317 290.414 71.5207Z" fill="#C4C4C4" stroke="black" stroke-width="0.877201" stroke-linecap="round" stroke-linejoin="round"/>
<g id="Intersect_2">
<path fill-rule="evenodd" clip-rule="evenodd" d="M171.54 170.391C171.903 169.268 172.837 168.195 174.341 167.326C178.309 165.036 184.74 165.036 188.708 167.326C190.212 168.195 191.146 169.268 191.509 170.391C191.146 171.514 190.212 172.588 188.708 173.456C184.74 175.747 178.309 175.747 174.341 173.456C172.837 172.588 171.903 171.514 171.54 170.391Z" fill="#BDDCD8"/>
<path d="M171.54 170.391L171.122 170.256C171.094 170.344 171.094 170.439 171.122 170.526L171.54 170.391ZM174.341 167.326L174.122 166.946V166.946L174.341 167.326ZM188.708 167.326L188.488 167.706L188.708 167.326ZM191.509 170.391L191.927 170.526C191.955 170.439 191.955 170.344 191.927 170.256L191.509 170.391ZM188.708 173.456L188.927 173.836L188.708 173.456ZM174.341 173.456L174.122 173.836L174.341 173.456ZM171.957 170.526C172.277 169.537 173.119 168.539 174.561 167.706L174.122 166.946C172.555 167.851 171.529 169 171.122 170.256L171.957 170.526ZM174.561 167.706C176.462 166.608 178.981 166.047 181.525 166.047C184.068 166.047 186.587 166.608 188.488 167.706L188.927 166.946C186.861 165.754 184.181 165.17 181.525 165.17C178.868 165.17 176.188 165.754 174.122 166.946L174.561 167.706ZM188.488 167.706C189.93 168.539 190.772 169.537 191.092 170.526L191.927 170.256C191.52 169 190.494 167.851 188.927 166.946L188.488 167.706ZM191.092 170.256C190.772 171.246 189.93 172.244 188.488 173.077L188.927 173.836C190.494 172.931 191.52 171.783 191.927 170.526L191.092 170.256ZM188.488 173.077C186.587 174.174 184.068 174.736 181.525 174.736C178.981 174.736 176.462 174.174 174.561 173.077L174.122 173.836C176.188 175.029 178.868 175.613 181.525 175.613C184.181 175.613 186.861 175.029 188.927 173.836L188.488 173.077ZM174.561 173.077C173.119 172.244 172.277 171.246 171.957 170.256L171.122 170.526C171.529 171.783 172.555 172.931 174.122 173.836L174.561 173.077Z" fill="black"/>
</g>
<g id="Intersect_3">
<path fill-rule="evenodd" clip-rule="evenodd" d="M273.233 76.6064C273.597 75.4835 274.531 74.41 276.035 73.5413C280.002 71.2509 286.434 71.2509 290.401 73.5413C291.906 74.41 292.84 75.4835 293.203 76.6064C292.84 77.7293 291.906 78.8027 290.401 79.6715C286.434 81.9619 280.002 81.9619 276.035 79.6715C274.531 78.8027 273.597 77.7293 273.233 76.6064Z" fill="#BDDCD8"/>
<path d="M273.233 76.6064L272.816 76.4714C272.788 76.5591 272.788 76.6536 272.816 76.7414L273.233 76.6064ZM276.035 73.5413L275.816 73.1614V73.1614L276.035 73.5413ZM290.401 73.5413L290.182 73.9211L290.401 73.5413ZM293.203 76.6064L293.621 76.7414C293.649 76.6536 293.649 76.5591 293.621 76.4714L293.203 76.6064ZM290.401 79.6715L290.621 80.0513L290.401 79.6715ZM276.035 79.6715L275.816 80.0513L276.035 79.6715ZM273.651 76.7414C273.971 75.7519 274.812 74.7538 276.255 73.9211L275.816 73.1614C274.249 74.0663 273.222 75.2151 272.816 76.4714L273.651 76.7414ZM276.255 73.9211C278.156 72.8235 280.675 72.2621 283.218 72.2621C285.762 72.2621 288.281 72.8235 290.182 73.9211L290.621 73.1614C288.555 71.9687 285.875 71.3849 283.218 71.3849C280.562 71.3849 277.882 71.9687 275.816 73.1614L276.255 73.9211ZM290.182 73.9211C291.624 74.7538 292.466 75.7519 292.786 76.7414L293.621 76.4714C293.214 75.2151 292.188 74.0663 290.621 73.1614L290.182 73.9211ZM292.786 76.4714C292.466 77.4609 291.624 78.459 290.182 79.2916L290.621 80.0513C292.188 79.1465 293.214 77.9976 293.621 76.7414L292.786 76.4714ZM290.182 79.2916C288.281 80.3893 285.762 80.9507 283.218 80.9507C280.675 80.9507 278.156 80.3893 276.255 79.2916L275.816 80.0513C277.882 81.2441 280.562 81.8279 283.218 81.8279C285.875 81.8279 288.555 81.2441 290.621 80.0513L290.182 79.2916ZM276.255 79.2916C274.812 78.459 273.971 77.4609 273.651 76.4714L272.816 76.7414C273.222 77.9976 274.249 79.1465 275.816 80.0513L276.255 79.2916Z" fill="black"/>
</g>
<path id="Vector 387" d="M344.224 43.1364L361.368 8.40747" stroke="black" stroke-width="0.877201" stroke-linecap="round" stroke-linejoin="round"/>
<circle id="Ellipse 193" cx="361.369" cy="7.96525" r="6.74064" fill="#FF8484" stroke="black" stroke-width="0.877201" stroke-linecap="round" stroke-linejoin="round"/>
<path id="Vector 388" d="M319.167 43.1348L305.099 49.5823L310.081 52.513L324.735 46.3585L319.167 43.1348Z" fill="white" fill-opacity="0.5"/>
<rect id="Rectangle 1592" width="4.14508" height="29.3541" transform="matrix(0.866025 -0.5 2.20305e-08 1 344.075 74.5146)" fill="white" stroke="black" stroke-width="0.877201" stroke-linecap="round" stroke-linejoin="round"/>
<rect id="Rectangle 1593" width="20.3046" height="29.3541" transform="matrix(0.866025 -0.5 2.20305e-08 1 319.754 88.5605)" fill="white" stroke="black" stroke-width="0.877201" stroke-linecap="round" stroke-linejoin="round"/>
</g>
<path id="Rectangle 1633" d="M375.95 99.2688C376.943 98.6951 377.749 99.1601 377.749 100.307C377.749 101.455 376.943 102.85 375.95 103.423L338.255 125.186C337.262 125.76 336.456 125.295 336.456 124.148C336.456 123 337.262 121.605 338.255 121.032L375.95 99.2688Z" fill="white" stroke="black" stroke-width="0.877201" stroke-linecap="round" stroke-linejoin="round"/>
<path id="Rectangle 1634" d="M329.785 125.936C330.214 125.688 330.562 126.417 330.562 127.565C330.562 128.712 330.214 129.843 329.785 130.091L313.493 139.497C313.063 139.745 312.715 139.016 312.715 137.869C312.715 136.721 313.063 135.59 313.493 135.342L329.785 125.936Z" fill="white" stroke="black" stroke-width="0.877201" stroke-linecap="round" stroke-linejoin="round"/>
<g id="Group 1551">
<g id="Group 1550">
<g id="Rectangle 1637">
<path d="M237.535 109.073L237.157 112.391C235.602 126.032 256.799 136.841 280.054 134.264L286.538 133.546L286.538 137.365L217.749 163.797L191.752 148.788L191.752 144.974L237.535 109.073Z" fill="#BDDCD8"/>
<path d="M191.752 144.974L191.752 148.788L217.749 163.797L286.538 137.365L286.538 133.546M191.752 144.974L237.535 109.073L237.157 112.391C235.602 126.032 256.799 136.841 280.054 134.264L286.538 133.546M191.752 144.974L286.538 133.546" stroke="black" stroke-width="0.877201" stroke-linecap="round" stroke-linejoin="round"/>
</g>
<path id="Rectangle 1638" d="M237.534 105.264L236.791 111.782C235.357 124.372 253.442 134.813 275.248 133.985L286.538 133.556L217.749 159.989L191.752 144.979L237.534 105.264Z" fill="white" stroke="black" stroke-width="0.877201" stroke-linecap="round" stroke-linejoin="round"/>
<rect id="Rectangle 1591_2" width="8.84511" height="15.8242" rx="0.464961" transform="matrix(0.866025 0.5 -0.866025 0.5 224.434 128.711)" fill="#55A398" stroke="black" stroke-width="0.877201" stroke-linecap="round" stroke-linejoin="round"/>
<rect id="Rectangle 1639" width="8.84511" height="15.8242" rx="0.464961" transform="matrix(0.866025 0.5 -0.866025 0.5 237.035 136.037)" fill="#55A398" stroke="black" stroke-width="0.877201" stroke-linecap="round" stroke-linejoin="round"/>
</g>
<path id="Vector 393" d="M217.762 159.92V163.73" stroke="black" stroke-width="0.877201"/>
</g>
</g>
<g id="wave3">
<path id="Vector 390" d="M313.597 154.208C310.432 161.125 302.119 169.497 298.357 172.818L303.779 176.774L410.164 125.78L408.552 115.23C401.401 117.457 394.827 116.158 392.433 115.23C371.215 111.595 362.687 123.435 360.049 131.348C358.808 135.073 349 143.189 340.56 141.313C330.009 138.968 317.554 145.563 313.597 154.208Z" fill="#B0B8ED"/>
<path id="Vector 389" d="M298.357 172.818C302.119 169.497 310.432 161.125 313.597 154.208C317.554 145.563 330.009 138.968 340.56 141.313C349 143.189 358.808 135.073 360.049 131.348C362.687 123.435 371.215 111.595 392.433 115.23C394.827 116.158 401.401 117.457 408.552 115.23" stroke="black" stroke-width="0.877201" stroke-linecap="round"/>
</g>
</g>
<g id="boat-with-assets2">
<path id="shadow2" d="M175.358 376.938L136.677 354.605C142.863 348.34 150.506 342.535 159.458 337.366L240.707 290.457C247.84 286.339 259.406 286.339 266.539 290.457L286.465 301.962C293.598 306.08 293.598 312.757 286.465 316.876L205.216 363.785C196.264 368.954 186.21 373.366 175.358 376.938Z" fill="black" fill-opacity="0.6"/>
<g id="boat2">
<g id="Group 1543_2">
<path id="Rectangle 1584_2" d="M252.213 336.775L356.014 276.846V249.59L295.861 242.117L192.061 302.046L118.687 351.432L147.555 367.991C188.461 366.732 223.247 353.498 252.213 336.775Z" fill="#BDDCD8" stroke="black" stroke-width="0.877201" stroke-linecap="round" stroke-linejoin="round"/>
<path id="Rectangle 1585_2" d="M295.859 214.566L356.012 249.295L235.24 319.023C203.816 337.166 162.713 348.661 118.575 351.65C123.753 326.167 143.663 302.437 175.088 284.294L295.859 214.566Z" fill="white" stroke="black" stroke-width="0.877201" stroke-linecap="round" stroke-linejoin="round"/>
<path id="Rectangle 1586_2" d="M258.406 289.036C268.95 288.321 278.769 285.575 286.276 281.241L333.482 253.987V222.921L228.734 246.953L225.243 272.89C226.084 282.579 241.037 290.212 258.406 289.036Z" fill="#7C7C7C" stroke="black" stroke-width="0.877201" stroke-linecap="round" stroke-linejoin="round"/>
<path id="Rectangle 1587_2" d="M258.236 283.025C268.78 282.311 278.599 279.565 286.106 275.231L333.312 247.976V216.91L228.564 240.942L225.073 266.879C225.915 276.568 240.867 284.201 258.236 283.025Z" fill="#7C7C7C" stroke="black" stroke-width="0.877201" stroke-linecap="round" stroke-linejoin="round"/>
<path id="Rectangle 1588_2" d="M289.776 194.932L337.138 217.208L337.138 222.276L286.278 251.64C278.771 255.974 268.953 258.72 258.409 259.434C239.337 260.726 223.179 251.397 225.416 240.386C226.653 234.298 231.409 228.63 238.916 224.296L289.776 194.932Z" fill="#BDDCD8" stroke="black" stroke-width="0.877201" stroke-linecap="round" stroke-linejoin="round"/>
<path id="Rectangle 1589_2" d="M289.776 189.656L337.138 217.001L286.278 246.365C278.771 250.699 268.953 253.445 258.409 254.159C239.337 255.451 223.179 246.122 225.416 235.111C226.653 229.023 231.409 223.355 238.916 219.02L289.776 189.656Z" fill="white" stroke="black" stroke-width="0.877201" stroke-linecap="round" stroke-linejoin="round"/>
<rect id="Rectangle 1590_2" width="38.1329" height="20.3063" rx="1.39488" transform="matrix(0.866025 0.5 -0.866025 0.5 286.765 198.741)" fill="white" stroke="black" stroke-width="0.877201" stroke-linecap="round" stroke-linejoin="round"/>
<rect id="Rectangle 1591_3" width="33.4677" height="15.8242" rx="0.464961" transform="matrix(0.866025 0.5 -0.866025 0.5 286.844 201.031)" fill="#55A398" stroke="black" stroke-width="0.877201" stroke-linecap="round" stroke-linejoin="round"/>
<g id="Intersect_4">
<path fill-rule="evenodd" clip-rule="evenodd" d="M356.122 277.094L252.322 337.023C223.355 353.747 188.57 366.981 147.663 368.239L135.69 361.371C177.761 359.776 212.026 347.615 240.014 331.456L291.914 301.491L356.122 264.39V277.094Z" fill="#55A398"/>
<path d="M252.322 337.023L252.541 337.403L252.322 337.023ZM356.122 277.094L356.341 277.474C356.477 277.396 356.561 277.251 356.561 277.094H356.122ZM147.663 368.239L147.445 368.62C147.515 368.66 147.595 368.68 147.677 368.678L147.663 368.239ZM135.69 361.371L135.673 360.933C135.478 360.941 135.311 361.077 135.264 361.267C135.217 361.457 135.302 361.655 135.472 361.752L135.69 361.371ZM240.014 331.456L239.795 331.076L240.014 331.456ZM291.914 301.491L292.134 301.871L292.134 301.871L291.914 301.491ZM356.122 264.39H356.561C356.561 264.234 356.477 264.089 356.341 264.011C356.206 263.932 356.038 263.932 355.903 264.011L356.122 264.39ZM252.541 337.403L356.341 277.474L355.903 276.714L252.103 336.643L252.541 337.403ZM147.677 368.678C188.674 367.417 223.529 354.153 252.541 337.403L252.103 336.643C223.181 353.341 188.466 366.545 147.65 367.801L147.677 368.678ZM135.472 361.752L147.445 368.62L147.881 367.859L135.908 360.991L135.472 361.752ZM135.707 361.81C177.857 360.211 212.191 348.026 240.234 331.836L239.795 331.076C211.861 347.204 177.665 359.341 135.673 360.933L135.707 361.81ZM240.234 331.836L292.134 301.871L291.695 301.112L239.795 331.076L240.234 331.836ZM292.134 301.871L356.341 264.77L355.903 264.011L291.695 301.112L292.134 301.871ZM356.561 277.094V264.39H355.683V277.094H356.561Z" fill="black"/>
</g>
<path id="Ellipse 191_2" d="M159.981 325.894C163.93 328.183 163.93 331.895 159.981 334.184C156.033 336.473 149.631 336.473 145.682 334.184C141.734 331.895 141.734 328.183 145.682 325.894C149.631 323.605 156.033 323.605 159.981 325.894Z" fill="#C4C4C4" stroke="black" stroke-width="0.877201" stroke-linecap="round" stroke-linejoin="round"/>
<path id="Ellipse 192_2" d="M261.675 232.112C265.624 234.401 265.624 238.112 261.675 240.401C257.726 242.69 251.325 242.69 247.376 240.401C243.427 238.112 243.427 234.401 247.376 232.112C251.325 229.823 257.726 229.823 261.675 232.112Z" fill="#C4C4C4" stroke="black" stroke-width="0.877201" stroke-linecap="round" stroke-linejoin="round"/>
<g id="Intersect_5">
<path fill-rule="evenodd" clip-rule="evenodd" d="M142.8 330.983C143.163 329.86 144.097 328.786 145.602 327.918C149.569 325.627 156.001 325.627 159.968 327.918C161.473 328.786 162.406 329.86 162.77 330.983C162.406 332.105 161.473 333.179 159.968 334.048C156.001 336.338 149.569 336.338 145.602 334.048C144.097 333.179 143.163 332.105 142.8 330.983Z" fill="#BDDCD8"/>
<path d="M142.8 330.983L142.382 330.848C142.354 330.935 142.354 331.03 142.382 331.118L142.8 330.983ZM145.602 327.918L145.382 327.538V327.538L145.602 327.918ZM159.968 327.918L159.749 328.297L159.968 327.918ZM162.77 330.983L163.187 331.118C163.215 331.03 163.215 330.935 163.187 330.848L162.77 330.983ZM159.968 334.048L159.749 333.668L159.968 334.048ZM145.602 334.048L145.821 333.668L145.602 334.048ZM143.217 331.118C143.537 330.128 144.379 329.13 145.821 328.297L145.382 327.538C143.815 328.442 142.789 329.591 142.382 330.848L143.217 331.118ZM145.821 328.297C147.722 327.2 150.242 326.638 152.785 326.638C155.328 326.638 157.847 327.2 159.749 328.297L160.187 327.538C158.121 326.345 155.441 325.761 152.785 325.761C150.128 325.761 147.448 326.345 145.382 327.538L145.821 328.297ZM159.749 328.297C161.191 329.13 162.032 330.128 162.352 331.118L163.187 330.848C162.781 329.591 161.754 328.442 160.187 327.538L159.749 328.297ZM162.352 330.848C162.032 331.837 161.191 332.835 159.749 333.668L160.187 334.428C161.754 333.523 162.781 332.374 163.187 331.118L162.352 330.848ZM159.749 333.668C157.847 334.765 155.328 335.327 152.785 335.327C150.242 335.327 147.722 334.765 145.821 333.668L145.382 334.428C147.448 335.62 150.128 336.204 152.785 336.204C155.441 336.204 158.121 335.62 160.187 334.428L159.749 333.668ZM145.821 333.668C144.379 332.835 143.537 331.837 143.217 330.848L142.382 331.118C142.789 332.374 143.815 333.523 145.382 334.428L145.821 333.668Z" fill="black"/>
</g>
<g id="Intersect_6">
<path fill-rule="evenodd" clip-rule="evenodd" d="M244.494 237.197C244.857 236.074 245.791 235.001 247.296 234.132C251.263 231.842 257.695 231.842 261.662 234.132C263.167 235.001 264.101 236.074 264.464 237.197C264.101 238.32 263.167 239.393 261.662 240.262C257.695 242.553 251.263 242.553 247.296 240.262C245.791 239.393 244.857 238.32 244.494 237.197Z" fill="#BDDCD8"/>
<path d="M244.494 237.197L244.077 237.062C244.048 237.15 244.048 237.244 244.077 237.332L244.494 237.197ZM247.296 234.132L247.515 234.512L247.296 234.132ZM261.662 234.132L261.443 234.512L261.662 234.132ZM264.464 237.197L264.881 237.332C264.91 237.244 264.91 237.15 264.881 237.062L264.464 237.197ZM261.662 240.262L261.881 240.642L261.662 240.262ZM247.296 240.262L247.515 239.882L247.296 240.262ZM244.911 237.332C245.232 236.343 246.073 235.345 247.515 234.512L247.077 233.752C245.51 234.657 244.483 235.806 244.077 237.062L244.911 237.332ZM247.515 234.512C249.417 233.414 251.936 232.853 254.479 232.853C257.022 232.853 259.542 233.414 261.443 234.512L261.881 233.752C259.816 232.56 257.135 231.976 254.479 231.976C251.823 231.976 249.143 232.56 247.077 233.752L247.515 234.512ZM261.443 234.512C262.885 235.345 263.727 236.343 264.047 237.332L264.881 237.062C264.475 235.806 263.449 234.657 261.881 233.752L261.443 234.512ZM264.047 237.062C263.727 238.052 262.885 239.05 261.443 239.882L261.881 240.642C263.449 239.737 264.475 238.588 264.881 237.332L264.047 237.062ZM261.443 239.882C259.542 240.98 257.022 241.541 254.479 241.541C251.936 241.541 249.417 240.98 247.515 239.882L247.077 240.642C249.143 241.835 251.823 242.419 254.479 242.419C257.135 242.419 259.816 241.835 261.881 240.642L261.443 239.882ZM247.515 239.882C246.073 239.05 245.232 238.052 244.911 237.062L244.077 237.332C244.483 238.588 245.51 239.737 247.077 240.642L247.515 239.882Z" fill="black"/>
</g>
<path id="Vector 387_2" d="M315.484 203.727L332.629 168.998" stroke="black" stroke-width="0.877201" stroke-linecap="round" stroke-linejoin="round"/>
<circle id="Ellipse 193_2" cx="332.63" cy="168.556" r="6.74064" fill="#FF8484" stroke="black" stroke-width="0.877201" stroke-linecap="round" stroke-linejoin="round"/>
<path id="Vector 388_2" d="M290.427 203.725L276.36 210.173L281.342 213.104L295.996 206.949L290.427 203.725Z" fill="white" fill-opacity="0.5"/>
<rect id="Rectangle 1592_2" width="4.14508" height="29.3541" transform="matrix(0.866025 -0.5 2.20305e-08 1 315.336 235.105)" fill="white" stroke="black" stroke-width="0.877201" stroke-linecap="round" stroke-linejoin="round"/>
<rect id="Rectangle 1593_2" width="20.3046" height="29.3541" transform="matrix(0.866025 -0.5 2.20305e-08 1 291.015 249.151)" fill="white" stroke="black" stroke-width="0.877201" stroke-linecap="round" stroke-linejoin="round"/>
</g>
<path id="Rectangle 1633_2" d="M347.21 259.86C348.204 259.286 349.009 259.751 349.009 260.898C349.009 262.046 348.204 263.441 347.21 264.014L309.516 285.777C308.522 286.351 307.717 285.886 307.717 284.738C307.717 283.591 308.522 282.196 309.516 281.622L347.21 259.86Z" fill="white" stroke="black" stroke-width="0.877201" stroke-linecap="round" stroke-linejoin="round"/>
<path id="Rectangle 1634_2" d="M301.045 286.527C301.475 286.279 301.823 287.008 301.823 288.155C301.823 289.303 301.475 290.434 301.045 290.682L284.754 300.088C284.324 300.336 283.976 299.606 283.976 298.459C283.976 297.312 284.324 296.181 284.754 295.933L301.045 286.527Z" fill="white" stroke="black" stroke-width="0.877201" stroke-linecap="round" stroke-linejoin="round"/>
<g id="Group 1551_2">
<g id="Group 1550_2">
<g id="Rectangle 1637_2">
<path d="M208.795 269.664L208.417 272.981C206.863 286.623 228.06 297.432 251.314 294.855L257.799 294.137L257.799 297.956L189.01 324.388L163.013 309.379L163.013 305.565L208.795 269.664Z" fill="#BDDCD8"/>
<path d="M163.013 305.565L163.013 309.379L189.01 324.388L257.799 297.956L257.799 294.137M163.013 305.565L208.795 269.664L208.417 272.981C206.863 286.623 228.06 297.432 251.314 294.855L257.799 294.137M163.013 305.565L257.799 294.137" stroke="black" stroke-width="0.877201" stroke-linecap="round" stroke-linejoin="round"/>
</g>
<path id="Rectangle 1638_2" d="M208.795 265.855L208.052 272.373C206.618 284.963 224.703 295.404 246.509 294.576L257.798 294.147L189.01 320.58L163.012 305.57L208.795 265.855Z" fill="white" stroke="black" stroke-width="0.877201" stroke-linecap="round" stroke-linejoin="round"/>
<rect id="Rectangle 1591_4" width="8.84511" height="15.8242" rx="0.464961" transform="matrix(0.866025 0.5 -0.866025 0.5 195.694 289.302)" fill="#55A398" stroke="black" stroke-width="0.877201" stroke-linecap="round" stroke-linejoin="round"/>
<rect id="Rectangle 1639_2" width="8.84511" height="15.8242" rx="0.464961" transform="matrix(0.866025 0.5 -0.866025 0.5 208.296 296.627)" fill="#55A398" stroke="black" stroke-width="0.877201" stroke-linecap="round" stroke-linejoin="round"/>
</g>
<path id="Vector 393_2" d="M189.023 320.511V324.321" stroke="black" stroke-width="0.877201"/>
</g>
</g>
<g id="wave2">
<path id="Vector 394" d="M233.672 340.162C230.507 347.078 222.194 355.451 218.433 358.772L223.854 362.728L330.239 311.734L328.627 301.183C321.476 303.411 314.902 302.112 312.508 301.183C291.29 297.549 282.762 309.389 280.124 317.302C278.883 321.026 269.075 329.143 260.635 327.267C250.084 324.922 237.629 331.516 233.672 340.162Z" fill="#B0B8ED"/>
<path id="Vector 395" d="M218.433 358.772C222.194 355.451 230.507 347.078 233.672 340.162C237.629 331.516 250.084 324.922 260.635 327.267C269.075 329.143 278.883 321.026 280.124 317.302C282.762 309.389 291.29 297.549 312.508 301.183C314.902 302.112 321.476 303.411 328.627 301.183" stroke="black" stroke-width="0.877201" stroke-linecap="round"/>
</g>
</g>
<g id="boat-with-assets1">
<path id="shadow1" d="M501.632 219.013C508.766 214.894 520.331 214.894 527.464 219.013L547.39 230.517C554.524 234.635 554.524 241.312 547.39 245.431L466.142 292.34C443.722 305.284 414.399 313.485 382.909 315.618C381.265 315.729 379.873 314.925 380.066 313.976C383.76 295.795 397.964 278.865 420.384 265.921L501.632 219.013Z" fill="black" fill-opacity="0.6"/>
<g id="boat1">
<g id="Group 1543_3">
<path id="Rectangle 1584_3" d="M512.079 265.239L615.879 205.31V178.054L555.727 170.581L451.927 230.51L378.553 279.896L407.42 296.455C448.327 295.197 483.113 281.963 512.079 265.239Z" fill="#BDDCD8" stroke="black" stroke-width="0.877201" stroke-linecap="round" stroke-linejoin="round"/>
<path id="Rectangle 1585_3" d="M555.725 143.03L615.877 177.759L495.106 247.487C463.681 265.63 422.579 277.125 378.441 280.114C383.619 254.631 403.529 230.901 434.954 212.758L555.725 143.03Z" fill="white" stroke="black" stroke-width="0.877201" stroke-linecap="round" stroke-linejoin="round"/>
<path id="Rectangle 1586_3" d="M518.272 217.499C528.816 216.785 538.635 214.039 546.141 209.705L593.348 182.451V151.385L488.6 175.417L485.109 201.354C485.95 211.043 500.903 218.676 518.272 217.499Z" fill="#7C7C7C" stroke="black" stroke-width="0.877201" stroke-linecap="round" stroke-linejoin="round"/>
<path id="Rectangle 1587_3" d="M518.102 211.489C528.646 210.775 538.465 208.029 545.971 203.694L593.178 176.44V145.374L488.43 169.406L484.939 195.343C485.78 205.032 500.733 212.665 518.102 211.489Z" fill="#7C7C7C" stroke="black" stroke-width="0.877201" stroke-linecap="round" stroke-linejoin="round"/>
<path id="Rectangle 1588_3" d="M549.642 123.396L597.004 145.672L597.004 150.74L546.144 180.104C538.638 184.438 528.819 187.184 518.275 187.898C499.204 189.19 483.045 179.861 485.282 168.85C486.519 162.762 491.276 157.094 498.782 152.759L549.642 123.396Z" fill="#BDDCD8" stroke="black" stroke-width="0.877201" stroke-linecap="round" stroke-linejoin="round"/>
<path id="Rectangle 1589_3" d="M549.642 118.12L597.004 145.465L546.144 174.829C538.638 179.163 528.819 181.909 518.275 182.623C499.204 183.915 483.045 174.586 485.282 163.575C486.519 157.487 491.276 151.818 498.782 147.484L549.642 118.12Z" fill="white" stroke="black" stroke-width="0.877201" stroke-linecap="round" stroke-linejoin="round"/>
<rect id="Rectangle 1590_3" width="38.1329" height="20.3063" rx="1.39488" transform="matrix(0.866025 0.5 -0.866025 0.5 546.631 127.205)" fill="white" stroke="black" stroke-width="0.877201" stroke-linecap="round" stroke-linejoin="round"/>
<rect id="Rectangle 1591_5" width="33.4677" height="15.8242" rx="0.464961" transform="matrix(0.866025 0.5 -0.866025 0.5 546.709 129.495)" fill="#55A398" stroke="black" stroke-width="0.877201" stroke-linecap="round" stroke-linejoin="round"/>
<g id="Intersect_7">
<path fill-rule="evenodd" clip-rule="evenodd" d="M615.988 205.558L512.188 265.487C483.221 282.211 448.436 295.445 407.529 296.703L395.556 289.835C437.627 288.24 471.892 276.079 499.88 259.92L551.78 229.955L615.988 192.854V205.558Z" fill="#55A398"/>
<path d="M512.188 265.487L511.969 265.107L512.188 265.487ZM615.988 205.558L616.207 205.938C616.343 205.859 616.427 205.715 616.427 205.558H615.988ZM407.529 296.703L407.311 297.083C407.381 297.124 407.461 297.144 407.542 297.141L407.529 296.703ZM395.556 289.835L395.54 289.397C395.344 289.404 395.177 289.541 395.13 289.73C395.083 289.92 395.168 290.118 395.338 290.216L395.556 289.835ZM499.88 259.92L499.661 259.54L499.88 259.92ZM551.78 229.955L552 230.335L552 230.335L551.78 229.955ZM615.988 192.854H616.427C616.427 192.698 616.343 192.553 616.207 192.474C616.071 192.396 615.904 192.396 615.769 192.474L615.988 192.854ZM512.407 265.867L616.207 205.938L615.769 205.178L511.969 265.107L512.407 265.867ZM407.542 297.141C448.539 295.88 483.395 282.617 512.407 265.867L511.969 265.107C483.047 281.805 448.332 295.009 407.515 296.265L407.542 297.141ZM395.338 290.216L407.311 297.083L407.747 296.323L395.774 289.455L395.338 290.216ZM395.573 290.274C437.723 288.675 472.057 276.49 500.1 260.3L499.661 259.54C471.726 275.668 437.531 287.804 395.54 289.397L395.573 290.274ZM500.1 260.3L552 230.335L551.561 229.575L499.661 259.54L500.1 260.3ZM552 230.335L616.207 193.234L615.769 192.474L551.561 229.575L552 230.335ZM616.427 205.558V192.854H615.549V205.558H616.427Z" fill="black"/>
</g>
<path id="Ellipse 191_3" d="M419.847 254.358C423.795 256.647 423.795 260.358 419.847 262.647C415.898 264.936 409.496 264.936 405.548 262.647C401.599 260.358 401.599 256.647 405.548 254.358C409.496 252.069 415.898 252.069 419.847 254.358Z" fill="#C4C4C4" stroke="black" stroke-width="0.877201" stroke-linecap="round" stroke-linejoin="round"/>
<path id="Ellipse 192_3" d="M521.541 160.575C525.489 162.864 525.489 166.575 521.541 168.864C517.592 171.154 511.19 171.154 507.242 168.864C503.293 166.575 503.293 162.864 507.242 160.575C511.19 158.286 517.592 158.286 521.541 160.575Z" fill="#C4C4C4" stroke="black" stroke-width="0.877201" stroke-linecap="round" stroke-linejoin="round"/>
<g id="Intersect_8">
<path fill-rule="evenodd" clip-rule="evenodd" d="M402.666 259.446C403.029 258.324 403.963 257.25 405.468 256.381C409.435 254.091 415.867 254.091 419.834 256.381C421.339 257.25 422.273 258.324 422.636 259.446C422.273 260.569 421.339 261.643 419.834 262.512C415.867 264.802 409.435 264.802 405.468 262.512C403.963 261.643 403.029 260.569 402.666 259.446Z" fill="#BDDCD8"/>
<path d="M402.666 259.446L402.249 259.311C402.22 259.399 402.22 259.494 402.249 259.581L402.666 259.446ZM405.468 256.381L405.249 256.002V256.002L405.468 256.381ZM419.834 256.381L420.053 256.002V256.002L419.834 256.381ZM422.636 259.446L423.053 259.581C423.082 259.494 423.082 259.399 423.053 259.311L422.636 259.446ZM419.834 262.512L419.615 262.132L419.834 262.512ZM405.468 262.512L405.687 262.132L405.468 262.512ZM403.083 259.581C403.403 258.592 404.245 257.594 405.687 256.761L405.249 256.002C403.681 256.906 402.655 258.055 402.249 259.311L403.083 259.581ZM405.687 256.761C407.588 255.664 410.108 255.102 412.651 255.102C415.194 255.102 417.714 255.664 419.615 256.761L420.053 256.002C417.987 254.809 415.307 254.225 412.651 254.225C409.995 254.225 407.315 254.809 405.249 256.002L405.687 256.761ZM419.615 256.761C421.057 257.594 421.899 258.592 422.219 259.581L423.053 259.311C422.647 258.055 421.621 256.906 420.053 256.002L419.615 256.761ZM422.219 259.311C421.899 260.301 421.057 261.299 419.615 262.132L420.053 262.891C421.621 261.987 422.647 260.838 423.053 259.581L422.219 259.311ZM419.615 262.132C417.714 263.229 415.194 263.791 412.651 263.791C410.108 263.791 407.588 263.229 405.687 262.132L405.249 262.891C407.315 264.084 409.995 264.668 412.651 264.668C415.307 264.668 417.987 264.084 420.053 262.891L419.615 262.132ZM405.687 262.132C404.245 261.299 403.403 260.301 403.083 259.311L402.249 259.581C402.655 260.838 403.681 261.987 405.249 262.891L405.687 262.132Z" fill="black"/>
</g>
<g id="Intersect_9">
<path fill-rule="evenodd" clip-rule="evenodd" d="M504.36 165.661C504.723 164.538 505.657 163.464 507.162 162.596C511.129 160.305 517.561 160.305 521.528 162.596C523.032 163.464 523.966 164.538 524.33 165.661C523.966 166.784 523.032 167.857 521.528 168.726C517.561 171.016 511.129 171.016 507.162 168.726C505.657 167.857 504.723 166.784 504.36 165.661Z" fill="#BDDCD8"/>
<path d="M504.36 165.661L503.943 165.526C503.914 165.613 503.914 165.708 503.943 165.796L504.36 165.661ZM507.162 162.596L507.381 162.976L507.162 162.596ZM521.528 162.596L521.309 162.976L521.528 162.596ZM524.33 165.661L524.747 165.796C524.775 165.708 524.775 165.613 524.747 165.526L524.33 165.661ZM521.528 168.726L521.309 168.346L521.528 168.726ZM507.162 168.726L507.381 168.346L507.162 168.726ZM504.777 165.796C505.097 164.806 505.939 163.808 507.381 162.976L506.942 162.216C505.375 163.121 504.349 164.27 503.943 165.526L504.777 165.796ZM507.381 162.976C509.282 161.878 511.802 161.317 514.345 161.317C516.888 161.317 519.407 161.878 521.309 162.976L521.747 162.216C519.681 161.023 517.001 160.439 514.345 160.439C511.688 160.439 509.008 161.023 506.942 162.216L507.381 162.976ZM521.309 162.976C522.751 163.808 523.592 164.806 523.912 165.796L524.747 165.526C524.341 164.27 523.314 163.121 521.747 162.216L521.309 162.976ZM523.912 165.526C523.592 166.515 522.751 167.513 521.309 168.346L521.747 169.106C523.314 168.201 524.341 167.052 524.747 165.796L523.912 165.526ZM521.309 168.346C519.407 169.444 516.888 170.005 514.345 170.005C511.802 170.005 509.282 169.444 507.381 168.346L506.942 169.106C509.008 170.298 511.688 170.882 514.345 170.882C517.001 170.882 519.681 170.298 521.747 169.106L521.309 168.346ZM507.381 168.346C505.939 167.513 505.097 166.515 504.777 165.526L503.943 165.796C504.349 167.052 505.375 168.201 506.942 169.106L507.381 168.346Z" fill="black"/>
</g>
<path id="Vector 387_3" d="M575.35 132.191L592.495 97.4622" stroke="black" stroke-width="0.877201" stroke-linecap="round" stroke-linejoin="round"/>
<circle id="Ellipse 193_3" cx="592.496" cy="97.0199" r="6.74064" fill="#FF8484" stroke="black" stroke-width="0.877201" stroke-linecap="round" stroke-linejoin="round"/>
<path id="Vector 388_3" d="M550.293 132.189L536.226 138.637L541.208 141.567L555.861 135.413L550.293 132.189Z" fill="white" fill-opacity="0.5"/>
<rect id="Rectangle 1592_3" width="4.14508" height="29.3541" transform="matrix(0.866025 -0.5 2.20305e-08 1 575.202 163.569)" fill="white" stroke="black" stroke-width="0.877201" stroke-linecap="round" stroke-linejoin="round"/>
<rect id="Rectangle 1593_3" width="20.3046" height="29.3541" transform="matrix(0.866025 -0.5 2.20305e-08 1 550.881 177.615)" fill="white" stroke="black" stroke-width="0.877201" stroke-linecap="round" stroke-linejoin="round"/>
</g>
<path id="Rectangle 1633_3" d="M607.076 188.323C608.07 187.75 608.875 188.215 608.875 189.362C608.875 190.509 608.07 191.905 607.076 192.478L569.382 214.241C568.388 214.815 567.583 214.35 567.583 213.202C567.583 212.055 568.388 210.66 569.382 210.086L607.076 188.323Z" fill="white" stroke="black" stroke-width="0.877201" stroke-linecap="round" stroke-linejoin="round"/>
<path id="Rectangle 1634_3" d="M560.912 214.991C561.341 214.743 561.689 215.472 561.689 216.619C561.689 217.767 561.341 218.898 560.912 219.146L544.62 228.552C544.19 228.8 543.842 228.071 543.842 226.923C543.842 225.776 544.19 224.645 544.62 224.397L560.912 214.991Z" fill="white" stroke="black" stroke-width="0.877201" stroke-linecap="round" stroke-linejoin="round"/>
<g id="Group 1551_3">
<g id="Group 1550_3">
<g id="Rectangle 1637_3">
<path d="M468.661 198.127L468.283 201.445C466.728 215.086 487.925 225.895 511.18 223.319L517.664 222.6L517.664 226.419L448.875 252.852L422.878 237.842L422.878 234.028L468.661 198.127Z" fill="#BDDCD8"/>
<path d="M422.878 234.028L422.878 237.842L448.875 252.852L517.664 226.419L517.664 222.6M422.878 234.028L468.661 198.127L468.283 201.445C466.728 215.086 487.925 225.895 511.18 223.319L517.664 222.6M422.878 234.028L517.664 222.6" stroke="black" stroke-width="0.877201" stroke-linecap="round" stroke-linejoin="round"/>
</g>
<path id="Rectangle 1638_3" d="M468.66 194.318L467.917 200.836C466.483 213.426 484.568 223.868 506.374 223.039L517.664 222.61L448.875 249.043L422.878 234.034L468.66 194.318Z" fill="white" stroke="black" stroke-width="0.877201" stroke-linecap="round" stroke-linejoin="round"/>
<rect id="Rectangle 1591_6" width="8.84511" height="15.8242" rx="0.464961" transform="matrix(0.866025 0.5 -0.866025 0.5 455.56 217.766)" fill="#55A398" stroke="black" stroke-width="0.877201" stroke-linecap="round" stroke-linejoin="round"/>
<rect id="Rectangle 1639_3" width="8.84511" height="15.8242" rx="0.464961" transform="matrix(0.866025 0.5 -0.866025 0.5 468.161 225.091)" fill="#55A398" stroke="black" stroke-width="0.877201" stroke-linecap="round" stroke-linejoin="round"/>
</g>
<path id="Vector 393_3" d="M448.888 248.974V252.784" stroke="black" stroke-width="0.877201"/>
</g>
</g>
<g id="wave1">
<path id="Vector 394_2" d="M541.57 250.103C540.672 253.925 531.642 262.898 523.066 261.796L524.286 267.661L591.442 234.083L588.409 229.646C581.49 232.514 574.824 231.817 572.356 231.11C550.896 229.418 543.478 241.983 541.57 250.103Z" fill="#B0B8ED"/>
<path id="Vector 393_4" d="M523.066 261.796C531.642 262.898 540.672 253.925 541.57 250.103C543.478 241.983 550.896 229.418 572.356 231.11C574.824 231.817 581.49 232.514 588.409 229.646" stroke="black" stroke-width="0.877201" stroke-linecap="round"/>
</g>
</g>
</g>
<g id="labels">
<g id="label3">
<path id="Vector 77" d="M133.247 27.8623V76.3814L189.964 120.06" stroke="black" stroke-width="1.462" stroke-linecap="round" stroke-linejoin="round"/>
<rect id="label3-line1" x="-0.731001" y="0.731001" width="97.8127" height="16.0571" transform="matrix(-1 0 0 1 116.236 27.8613)" fill="#FFB681" stroke="black" stroke-width="1.462" stroke-linecap="round" stroke-linejoin="round"/>
<rect id="label3-line2" x="-0.731001" y="0.731001" width="87.7201" height="11.696" transform="matrix(-1 0 0 1 116.363 59.9795)" fill="#FFDBC0" stroke="black" stroke-width="1.462" stroke-linecap="round" stroke-linejoin="round"/>
</g>
<g id="label2">
<path id="Vector 77_2" d="M289.968 329.707L353.565 378.684V427.521" stroke="black" stroke-width="1.462" stroke-linecap="round" stroke-linejoin="round"/>
<rect id="label2-line1" x="369.538" y="382.994" width="89.0532" height="16.0571" fill="#FFB681" stroke="black" stroke-width="1.462" stroke-linecap="round" stroke-linejoin="round"/>
<rect id="label2-line2" x="369.536" y="415.113" width="62.7746" height="11.6773" fill="#FFDBC0" stroke="black" stroke-width="1.462" stroke-linecap="round" stroke-linejoin="round"/>
</g>
<g id="label1">
<path id="Vector 77_3" d="M523.336 357.667V309.148L488.518 282.335" stroke="black" stroke-width="1.462" stroke-linecap="round" stroke-linejoin="round"/>
<rect id="label1-line2" x="0.731001" y="-0.731001" width="68.6143" height="16.0571" transform="matrix(1 0 0 -1 538.155 355.983)" fill="#FFB681" stroke="black" stroke-width="1.462" stroke-linecap="round" stroke-linejoin="round"/>
<rect id="label1-line1" x="0.731001" y="-0.731001" width="87.7201" height="11.696" transform="matrix(1 0 0 -1 538.758 324.087)" fill="#FFDBC0" stroke="black" stroke-width="1.462" stroke-linecap="round" stroke-linejoin="round"/>
</g>
</g>
</g>
</svg>
