<svg width="1505" height="1051" viewBox="0 0 1505 1051" fill="none" xmlns="http://www.w3.org/2000/svg">
<path d="M640.878 252.988H660.853M585.948 252.988H565.974M613.413 225.525V205.552M579.706 219.284L593.993 233.569M632.834 233.569L647.12 219.284" stroke="black" stroke-width="2" stroke-linecap="round" stroke-linejoin="round"/>
<path d="M518.9 1050L1034.55 751.833L1034.55 615.534L2.00297 615.534L2 752.074L518.9 1050Z" fill="#53978E" stroke="black" stroke-width="2" stroke-linecap="round" stroke-linejoin="round"/>
<path d="M518.902 941.695L1034.55 643.528V580.521L2.00195 580.521L2.00195 643.768L518.902 941.695Z" fill="#BAD5D2" stroke="black" stroke-width="2" stroke-linecap="round" stroke-linejoin="round"/>
<path d="M2.00293 580.521L518.463 282.313L1034.51 580.28L518.88 878.488L2.00293 580.521Z" fill="#BAD5D2" stroke="black" stroke-width="2" stroke-linecap="round" stroke-linejoin="round"/>
<path d="M465.938 822.689L491.423 815.892L497.448 793.137L110.577 584.634L72.0654 595.136L465.938 822.689Z" fill="black"/>
<path d="M523.833 350.12L913.161 574.858" stroke="black" stroke-width="2" stroke-linecap="round" stroke-linejoin="round"/>
<path d="M478.653 374.967L867.972 599.722" stroke="black" stroke-width="2" stroke-linecap="round" stroke-linejoin="round"/>
<path d="M433.47 402.073L822.789 626.827" stroke="black" stroke-width="2" stroke-linecap="round" stroke-linejoin="round"/>
<path d="M388.292 429.178L777.593 653.963" stroke="black" stroke-width="2" stroke-linecap="round" stroke-linejoin="round"/>
<path d="M719.585 684.121V492.63C719.585 456.54 707.014 431.097 686.651 419.061L299.281 193.816C278.519 180.816 249.309 182.126 216.952 200.806C153.946 237.179 102.871 325.638 102.871 398.384L102.871 589.874L491.423 815.443L719.585 684.121Z" fill="white"/>
<path d="M719.585 684.121L720.084 684.987C720.394 684.809 720.585 684.478 720.585 684.121H719.585ZM491.423 815.443L490.921 816.308C491.231 816.488 491.612 816.489 491.922 816.31L491.423 815.443ZM686.651 419.061L687.16 418.2L687.154 418.197L686.651 419.061ZM102.871 589.874H101.871C101.871 590.23 102.06 590.56 102.369 590.739L102.871 589.874ZM102.871 398.384H101.871H102.871ZM216.952 200.806L216.452 199.94L216.952 200.806ZM299.281 193.816L298.751 194.663C298.76 194.669 298.769 194.675 298.779 194.68L299.281 193.816ZM718.585 492.63V684.121H720.585V492.63H718.585ZM491.922 816.31L720.084 684.987L719.086 683.254L490.925 814.577L491.922 816.31ZM686.142 419.922C706.094 431.714 718.585 456.748 718.585 492.63H720.585C720.585 456.331 707.934 430.479 687.16 418.2L686.142 419.922ZM103.871 589.874L103.871 398.384H101.871L101.871 589.874H103.871ZM103.871 398.384C103.871 362.227 116.57 322.098 137.15 286.455C157.73 250.812 186.137 219.75 217.452 201.672L216.452 199.94C184.761 218.235 156.127 249.589 135.418 285.455C114.709 321.321 101.871 361.794 101.871 398.384H103.871ZM217.452 201.672C249.622 183.1 278.414 181.931 298.751 194.663L299.812 192.968C278.624 179.702 248.996 181.152 216.452 199.94L217.452 201.672ZM298.779 194.68L686.148 419.925L687.154 418.197L299.784 192.951L298.779 194.68ZM102.369 590.739L490.921 816.308L491.926 814.579L103.373 589.009L102.369 590.739Z" fill="black"/>
<rect width="443.837" height="130.163" transform="matrix(0.866043 0.499969 -2.20323e-08 1 105.326 460.625)" fill="#EEEEEE"/>
<path d="M491.424 815.443L491.424 624.861C491.424 552.111 542.5 463.648 605.505 427.275V427.275C668.51 390.902 719.586 420.392 719.586 493.143L719.586 684.625" stroke="black" stroke-width="2" stroke-linejoin="round"/>
<path d="M491.424 814.858L491.424 624.268C491.424 551.522 542.5 463.063 605.505 426.69C636.201 408.969 664.065 406.881 684.571 417.811" stroke="black" stroke-width="2" stroke-linejoin="round"/>
<path d="M491.424 814.858L491.424 624.268C491.424 551.522 542.5 463.063 605.505 426.69C636.201 408.969 664.065 406.881 684.571 417.811" stroke="black" stroke-width="2" stroke-linejoin="round"/>
<path d="M328.773 720.569L328.773 529.394C328.773 456.648 379.849 368.189 442.854 331.816C473.55 314.095 501.414 312.007 521.92 322.937" stroke="black" stroke-width="2" stroke-linejoin="round"/>
<path d="M410.099 768.006L410.099 576.831C410.099 504.085 461.174 415.626 524.18 379.253C554.875 361.532 582.74 359.444 603.246 370.374" stroke="black" stroke-width="2" stroke-linejoin="round"/>
<path d="M247.448 674.262L247.448 481.957C247.448 409.21 298.524 320.752 361.529 284.379C392.225 266.658 421.218 265.775 441.724 276.705" stroke="black" stroke-width="2" stroke-linejoin="round"/>
<path d="M166.123 626.83L166.123 434.525C166.123 361.779 217.198 273.321 280.204 236.948C310.899 219.227 337.634 217.214 358.14 228.145" stroke="black" stroke-width="2" stroke-linejoin="round"/>
<path d="M643.042 512.742L568.229 555.932L568.229 672.003L584.427 682.801L658.665 523.539L643.042 512.742Z" fill="#C4C4C4"/>
<path d="M568.229 555.932L643.042 512.742L658.665 523.539L584.427 682.801L568.229 672.003L568.229 555.932ZM568.229 555.932L584.427 566.729" stroke="black" stroke-width="2" stroke-linecap="round" stroke-linejoin="round"/>
<rect width="86.3843" height="116.072" transform="matrix(0.866043 -0.499969 2.20323e-08 1 584.429 566.728)" fill="#C4C4C4" stroke="black" stroke-width="2" stroke-linecap="round" stroke-linejoin="round"/>
<rect width="63.2377" height="84.9704" transform="matrix(0.866043 -0.499969 2.20323e-08 1 594.45 576.492)" fill="black" stroke="#C4C4C4" stroke-width="2" stroke-linecap="round" stroke-linejoin="round"/>
<path d="M516.273 767.223C516.273 756.211 524.004 742.819 533.541 737.313C543.077 731.806 550.808 736.27 550.808 747.282L550.808 780.926L516.273 800.868L516.273 767.223Z" fill="#C4C4C4" stroke="black" stroke-width="2" stroke-linecap="round" stroke-linejoin="round"/>
<ellipse rx="11.2949" ry="11.2942" transform="matrix(0.866043 -0.499969 2.20323e-08 1 535.091 760.1)" fill="#7C7C7C" stroke="black" stroke-width="2" stroke-linecap="round" stroke-linejoin="round"/>
<path d="M669.889 679.128C669.889 668.116 677.62 654.725 687.156 649.218C696.693 643.711 704.424 648.175 704.424 659.187L704.424 692.832L669.889 712.773L669.889 679.128Z" fill="#C4C4C4" stroke="black" stroke-width="2" stroke-linecap="round" stroke-linejoin="round"/>
<ellipse rx="11.2949" ry="11.2942" transform="matrix(0.866043 -0.499969 2.20323e-08 1 688.707 672.005)" fill="#7C7C7C" stroke="black" stroke-width="2" stroke-linecap="round" stroke-linejoin="round"/>
<path d="M604.375 618.585L612.716 613.622L612.716 626.126L604.375 631.089L604.375 618.585Z" fill="#53978E"/>
<path d="M617.849 597.898L626.191 592.936V618.473L617.849 623.435V597.898Z" fill="#53978E"/>
<rect width="9.70578" height="38.8208" transform="matrix(0.859447 -0.511225 0 1 631.323 576.443)" fill="#53978E"/>
<rect x="604.375" y="323.016" width="18.0722" height="221.367" rx="9.03611" fill="#C4C4C4" stroke="black" stroke-width="2" stroke-linecap="round" stroke-linejoin="round"/>
<rect x="604.375" y="250.732" width="18.0722" height="221.367" rx="9.03611" fill="#E0E0E0" stroke="black" stroke-width="2" stroke-linecap="round" stroke-linejoin="round"/>
<ellipse cx="613.41" cy="250.734" rx="18.0722" ry="18.0707" fill="#FF8484" stroke="black" stroke-width="2" stroke-linecap="round" stroke-linejoin="round"/>
<path d="M859.645 424.663L667.627 579.394L943.229 562.453" stroke="black" stroke-width="2" stroke-dasharray="22.59 22.59"/>
<path d="M1498.27 327.532C1498.27 507.871 1352.07 654.065 1171.71 654.065C991.358 654.065 845.153 507.871 845.153 327.532C845.153 147.194 991.358 1 1171.71 1C1352.07 1 1498.27 147.194 1498.27 327.532Z" fill="#FFB5B5" stroke="black" stroke-width="2"/>
<path d="M1226.75 590.4C1228.43 591.37 1230.63 591.856 1232.84 591.858C1235.05 591.861 1237.26 591.374 1238.95 590.4C1240.64 589.427 1241.48 588.153 1241.48 586.879L1241.48 484.967L1224.23 484.967L1224.23 586.879C1224.23 588.153 1225.07 589.427 1226.75 590.4Z" fill="#FAC864" stroke="black" stroke-width="2" stroke-linecap="round" stroke-linejoin="round"/>
<path d="M1239.01 481.419C1242.4 483.378 1242.4 486.554 1239.01 488.513C1235.62 490.471 1230.12 490.471 1226.72 488.513C1223.33 486.554 1223.33 483.378 1226.72 481.419C1230.12 479.46 1235.62 479.46 1239.01 481.419Z" fill="#FFE598" stroke="black" stroke-width="2" stroke-linecap="round" stroke-linejoin="round"/>
<path d="M1492.67 335.32C1489.28 333.361 1483.78 333.361 1480.39 335.32L1477.89 338.867V441.5L1484.5 422L1488.5 407.5L1495.14 372.5V338.867L1492.67 335.32Z" fill="#FAC864"/>
<path d="M1477.89 441.5V338.867L1480.39 335.32C1483.78 333.361 1489.28 333.361 1492.67 335.32L1495.14 338.867V372.5" stroke="black" stroke-width="2" stroke-linecap="round" stroke-linejoin="round"/>
<path d="M1395.79 492.834C1399.16 494.778 1404.62 494.778 1407.99 492.834C1409.68 491.861 1410.52 490.587 1410.52 489.312L1410.52 387.4L1393.27 387.4L1393.27 489.312C1393.27 490.587 1394.11 491.861 1395.79 492.834Z" fill="#FAC864" stroke="black" stroke-width="2" stroke-linecap="round" stroke-linejoin="round"/>
<path d="M1408.05 383.853C1411.44 385.812 1411.44 388.988 1408.05 390.947C1404.66 392.906 1399.16 392.906 1395.76 390.947C1392.37 388.988 1392.37 385.812 1395.76 383.853C1399.16 381.894 1404.66 381.894 1408.05 383.853Z" fill="#FFE598" stroke="black" stroke-width="2" stroke-linecap="round" stroke-linejoin="round"/>
<path d="M1311.3 541.865C1314.67 543.809 1320.13 543.809 1323.5 541.865C1325.18 540.892 1326.02 539.618 1326.02 538.344L1326.02 436.432L1308.77 436.432L1308.77 538.344C1308.77 539.618 1309.61 540.892 1311.3 541.865Z" fill="#FAC864" stroke="black" stroke-width="2" stroke-linecap="round" stroke-linejoin="round"/>
<path d="M1323.56 432.886C1326.95 434.845 1326.95 438.021 1323.56 439.979C1320.16 441.938 1314.66 441.938 1311.27 439.979C1307.87 438.021 1307.87 434.845 1311.27 432.886C1314.66 430.927 1320.16 430.927 1323.56 432.886Z" fill="#FFE598" stroke="black" stroke-width="2" stroke-linecap="round" stroke-linejoin="round"/>
<path d="M1260 502.32L1260 477.698L1174.31 486.053L1174.31 510.879L1209.93 531.426L1260 502.32Z" fill="#505050" stroke="black" stroke-width="2" stroke-linecap="round" stroke-linejoin="round"/>
<path d="M1209.77 506.414V531.043" stroke="black" stroke-width="2"/>
<rect width="41.0696" height="57.6658" transform="matrix(-0.866043 -0.499969 -0.866043 0.499969 1259.87 477.597)" fill="#B3B3B3" stroke="black" stroke-width="2" stroke-linecap="round" stroke-linejoin="round"/>
<path d="M939.942 423.053C943.311 424.998 948.772 424.998 952.141 423.053C953.825 422.081 954.667 420.806 954.667 419.532L954.667 317.62L937.415 317.62L937.416 419.532C937.416 420.806 938.258 422.081 939.942 423.053Z" fill="#FAC864" stroke="black" stroke-width="2" stroke-linecap="round" stroke-linejoin="round"/>
<path d="M952.201 314.072C955.594 316.031 955.594 319.207 952.201 321.165C948.807 323.124 943.306 323.124 939.912 321.165C936.519 319.207 936.519 316.031 939.912 314.072C943.306 312.113 948.807 312.113 952.201 314.072Z" fill="#FFE598" stroke="black" stroke-width="2" stroke-linecap="round" stroke-linejoin="round"/>
<path d="M1345.75 452.658L1345.75 428.036L1260.06 436.391L1260.06 461.217L1295.68 481.764L1345.75 452.658Z" fill="#505050" stroke="black" stroke-width="2" stroke-linecap="round" stroke-linejoin="round"/>
<path d="M1295.53 456.753V481.381" stroke="black" stroke-width="2"/>
<rect width="41.0696" height="57.6658" transform="matrix(-0.866043 -0.499969 -0.866043 0.499969 1345.62 427.935)" fill="#B3B3B3" stroke="black" stroke-width="2" stroke-linecap="round" stroke-linejoin="round"/>
<path d="M1431.45 402.996L1431.45 378.374L1345.76 386.729L1345.76 411.554L1381.38 432.102L1431.45 402.996Z" fill="#505050" stroke="black" stroke-width="2" stroke-linecap="round" stroke-linejoin="round"/>
<path d="M1381.22 407.09V431.719" stroke="black" stroke-width="2"/>
<rect width="41.0696" height="57.6658" transform="matrix(-0.866043 -0.499969 -0.866043 0.499969 1431.32 378.273)" fill="#B3B3B3" stroke="black" stroke-width="2" stroke-linecap="round" stroke-linejoin="round"/>
<path d="M1467.07 378.415L1431.44 357.868L1431.44 333.042L1497.27 326.624L1495.27 362.02L1467.07 378.415Z" fill="#505050" stroke="black" stroke-width="2" stroke-linecap="round" stroke-linejoin="round"/>
<path d="M1466.91 353.403V378.032" stroke="black" stroke-width="2"/>
<path d="M889.854 348.221L1172.28 511.264C1181.5 516.587 1196.45 516.587 1205.67 511.264L1497.5 342.5V325.5L1496.77 307.531L1476.27 213.889L882.945 305.939V338.88C883.072 342.269 885.375 345.635 889.854 348.221Z" fill="#55A398"/>
<path d="M1476.27 213.889L882.945 305.939V338.88C883.072 342.269 885.375 345.635 889.854 348.221L1172.28 511.264C1181.5 516.587 1196.45 516.587 1205.67 511.264L1496.77 343.209" stroke="black" stroke-width="2" stroke-linecap="round" stroke-linejoin="round"/>
<path d="M889.852 314.902L1172.27 477.945C1181.49 483.268 1196.44 483.268 1205.66 477.945L1496.77 309.888C1495.94 298.935 1493.47 273.627 1490.27 260.026C1486.27 243.024 1475.77 192.519 1431.76 131.513C1399.29 86.5086 1348.12 51.8385 1328.31 42.5042L889.852 295.626C880.632 300.949 880.632 309.579 889.852 314.902Z" fill="#BDDCD8"/>
<path d="M1496.77 309.888L1205.66 477.945C1196.44 483.268 1181.49 483.268 1172.27 477.945L889.852 314.902C880.632 309.579 880.632 300.949 889.852 295.626L1328.31 42.5042" stroke="black" stroke-width="2" stroke-linecap="round" stroke-linejoin="round"/>
<path d="M1308.17 144.338L1444.15 222.838L1473.27 206.029C1468.74 191.971 1453.12 158.943 1423.16 121.5C1415.62 112.076 1393.41 109.751 1384 100L1308.17 144.338Z" stroke="black" stroke-width="2" stroke-linecap="round" stroke-linejoin="round"/>
<rect width="37.6265" height="10.6987" transform="matrix(0.866043 -0.499969 0.866043 0.499969 1346.69 142.439)" fill="#E5E5E5" stroke="black" stroke-width="2" stroke-linecap="round" stroke-linejoin="round"/>
<rect width="34.5346" height="10.6987" transform="matrix(0.866043 -0.499969 0.866043 0.499969 1383.66 163.564)" fill="#E5E5E5" stroke="black" stroke-width="2" stroke-linecap="round" stroke-linejoin="round"/>
<rect width="30.8896" height="10.6987" transform="matrix(0.866043 -0.499969 0.866043 0.499969 1420.5 184.685)" fill="#E5E5E5" stroke="black" stroke-width="2" stroke-linecap="round" stroke-linejoin="round"/>
<rect width="33.0686" height="10.6987" transform="matrix(0.866043 -0.499969 0.866043 0.499969 1365.05 153.001)" fill="#E5E5E5" stroke="black" stroke-width="2" stroke-linecap="round" stroke-linejoin="round"/>
<rect width="34.9829" height="10.6987" transform="matrix(0.866043 -0.499969 0.866043 0.499969 1402.02 174.122)" fill="#E5E5E5" stroke="black" stroke-width="2" stroke-linecap="round" stroke-linejoin="round"/>
<path d="M1438.99 195.245L1448.25 200.594L1466.77 189.907L1462.76 181.519L1438.99 195.245Z" fill="#E5E5E5" stroke="black" stroke-width="2" stroke-linecap="round" stroke-linejoin="round"/>
<path d="M1365.14 103.2L1365.14 124.502L1463 181.5C1454 160 1433 128 1406.5 101.5L1365.14 103.2Z" fill="#C4C4C4"/>
<path d="M1463 181.5L1365.14 124.502L1365.14 103.2L1406.5 101.5" stroke="black" stroke-width="2" stroke-linecap="round" stroke-linejoin="round"/>
<path d="M1391.75 87.7533L1365.14 103.118L1443.26 148.22C1418 109 1403.92 99.3096 1391.75 87.7533Z" fill="#E5E5E5"/>
<path d="M1391.75 87.7533L1365.14 103.118L1444.5 149" stroke="black" stroke-width="2" stroke-linecap="round" stroke-linejoin="round"/>
<rect width="69.9168" height="68.5217" transform="matrix(0.866043 -0.499969 0.866043 0.499969 1163.36 274.226)" fill="#E5E5E5" stroke="black" stroke-width="2" stroke-linecap="round" stroke-linejoin="round"/>
<path d="M1223.31 301.915L1272.31 273.626L1272.31 267.591L1174.31 267.591L1174.31 273.626L1223.31 301.915Z" fill="#464646"/>
<path d="M1223.31 301.915L1272.31 273.626L1272.31 267.591L1174.31 267.591L1174.31 273.626L1223.31 301.915ZM1223.31 301.915L1223.31 295.943" stroke="black" stroke-width="2" stroke-linecap="round" stroke-linejoin="round"/>
<rect width="56.5816" height="56.5816" transform="matrix(0.866043 -0.499969 0.866043 0.499969 1174.3 267.591)" fill="#464646" stroke="black" stroke-width="2" stroke-linecap="round" stroke-linejoin="round"/>
<path d="M1465.64 305.151L1468.62 306.867C1476.35 311.329 1488.47 312.02 1497.5 309L1496.5 293L1493.27 277.485C1486.24 276.949 1478.87 278.24 1473.47 281.359L1465.64 285.876C1456.42 291.199 1456.42 299.829 1465.64 305.151Z" fill="#55A398" stroke="black" stroke-width="1.5" stroke-linecap="round" stroke-linejoin="round"/>
<rect width="41.9847" height="47.5931" rx="19.2737" transform="matrix(0.866043 0.499969 -0.866043 0.499969 1405.26 320.739)" fill="#55A398" stroke="black" stroke-width="2" stroke-linecap="round" stroke-linejoin="round"/>
<rect width="41.9847" height="48.5032" rx="19.2737" transform="matrix(0.866043 0.499969 -0.866043 0.499969 1319.72 370.121)" fill="#55A398" stroke="black" stroke-width="2" stroke-linecap="round" stroke-linejoin="round"/>
<rect width="41.9847" height="46.1027" rx="19.2737" transform="matrix(0.866043 0.499969 -0.866043 0.499969 1233.5 419.897)" fill="#55A398" stroke="black" stroke-width="2" stroke-linecap="round" stroke-linejoin="round"/>
<path d="M1222.64 446.885C1228.3 450.149 1237.46 450.149 1243.12 446.885C1246.64 444.85 1247.97 442.028 1247.1 439.4L1237.3 418.089H1228.5L1218.66 439.4C1217.79 442.028 1219.12 444.85 1222.64 446.885Z" fill="#D9D9D9" stroke="black" stroke-width="2" stroke-linecap="round" stroke-linejoin="round"/>
<circle r="3.67691" transform="matrix(0.866043 -0.499969 0.866043 0.499969 1232.88 418.12)" fill="#D9D9D9" stroke="black" stroke-width="2" stroke-linecap="round" stroke-linejoin="round"/>
<path d="M1307.18 397.348C1312.83 400.613 1322 400.613 1327.66 397.348C1331.18 395.314 1332.51 392.491 1331.64 389.863L1321.84 368.552H1313.04L1303.2 389.863C1302.33 392.491 1303.66 395.314 1307.18 397.348Z" fill="#D9D9D9" stroke="black" stroke-width="2" stroke-linecap="round" stroke-linejoin="round"/>
<circle r="3.67691" transform="matrix(0.866043 -0.499969 0.866043 0.499969 1317.42 368.583)" fill="#D9D9D9" stroke="black" stroke-width="2" stroke-linecap="round" stroke-linejoin="round"/>
<path d="M1391.67 347.81C1397.33 351.075 1406.5 351.075 1412.15 347.81C1415.67 345.776 1417 342.953 1416.13 340.325L1406.33 319.014H1397.53L1387.69 340.325C1386.82 342.953 1388.15 345.776 1391.67 347.81Z" fill="#D9D9D9" stroke="black" stroke-width="2" stroke-linecap="round" stroke-linejoin="round"/>
<circle r="3.67691" transform="matrix(0.866043 -0.499969 0.866043 0.499969 1401.91 319.046)" fill="#D9D9D9" stroke="black" stroke-width="2" stroke-linecap="round" stroke-linejoin="round"/>
<path d="M1476.3 298.777C1481.95 302.041 1491.12 302.041 1496.77 298.777L1493.51 275.528L1490.95 269.981H1482.15L1472.31 291.292C1471.44 293.92 1472.77 296.742 1476.3 298.777Z" fill="#D9D9D9"/>
<path d="M1494.43 277.528L1493.51 275.528M1493.51 275.528L1490.95 269.981H1482.15L1472.31 291.292C1471.44 293.92 1472.77 296.742 1476.3 298.777C1481.95 302.041 1491.12 302.041 1496.77 298.777L1493.51 275.528Z" stroke="black" stroke-width="2" stroke-linecap="round" stroke-linejoin="round"/>
<circle r="3.67691" transform="matrix(0.866043 -0.499969 0.866043 0.499969 1486.54 270.012)" fill="#D9D9D9" stroke="black" stroke-width="2" stroke-linecap="round" stroke-linejoin="round"/>
<rect width="41.9847" height="47.1565" rx="19.2737" transform="matrix(0.866043 0.499969 -0.866043 0.499969 1294.58 61.48)" fill="#55A398" stroke="black" stroke-width="2" stroke-linecap="round" stroke-linejoin="round"/>
<rect width="41.9847" height="47.5879" rx="19.2737" transform="matrix(0.866043 0.499969 -0.866043 0.499969 1211.13 109.657)" fill="#55A398" stroke="black" stroke-width="2" stroke-linecap="round" stroke-linejoin="round"/>
<rect width="41.9847" height="47.5931" rx="19.2737" transform="matrix(0.866043 0.499969 -0.866043 0.499969 1126.22 158.673)" fill="#55A398" stroke="black" stroke-width="2" stroke-linecap="round" stroke-linejoin="round"/>
<rect width="41.9847" height="48.5032" rx="19.2737" transform="matrix(0.866043 0.499969 -0.866043 0.499969 1040.68 208.057)" fill="#55A398" stroke="black" stroke-width="2" stroke-linecap="round" stroke-linejoin="round"/>
<rect width="41.9847" height="46.1027" rx="19.2737" transform="matrix(0.866043 0.499969 -0.866043 0.499969 954.458 257.831)" fill="#55A398" stroke="black" stroke-width="2" stroke-linecap="round" stroke-linejoin="round"/>
<path d="M943.603 284.819C949.258 288.083 958.425 288.083 964.08 284.819C967.604 282.784 968.932 279.962 968.063 277.334L958.261 256.023H949.46L939.62 277.334C938.751 279.962 940.079 282.784 943.603 284.819Z" fill="#D9D9D9" stroke="black" stroke-width="2" stroke-linecap="round" stroke-linejoin="round"/>
<circle r="3.67691" transform="matrix(0.866043 -0.499969 0.866043 0.499969 953.842 256.054)" fill="#D9D9D9" stroke="black" stroke-width="2" stroke-linecap="round" stroke-linejoin="round"/>
<path d="M1028.14 235.283C1033.79 238.547 1042.96 238.547 1048.62 235.283C1052.14 233.248 1053.47 230.426 1052.6 227.798L1042.8 206.487H1034L1024.16 227.798C1023.29 230.426 1024.62 233.248 1028.14 235.283Z" fill="#D9D9D9" stroke="black" stroke-width="2" stroke-linecap="round" stroke-linejoin="round"/>
<circle r="3.67691" transform="matrix(0.866043 -0.499969 0.866043 0.499969 1038.38 206.518)" fill="#D9D9D9" stroke="black" stroke-width="2" stroke-linecap="round" stroke-linejoin="round"/>
<path d="M1112.64 185.746C1118.29 189.011 1127.46 189.011 1133.11 185.746C1136.64 183.712 1137.97 180.89 1137.1 178.261L1127.29 156.95H1118.49L1108.65 178.261C1107.78 180.89 1109.11 183.712 1112.64 185.746Z" fill="#D9D9D9" stroke="black" stroke-width="2" stroke-linecap="round" stroke-linejoin="round"/>
<circle r="3.67691" transform="matrix(0.866043 -0.499969 0.866043 0.499969 1122.88 156.982)" fill="#D9D9D9" stroke="black" stroke-width="2" stroke-linecap="round" stroke-linejoin="round"/>
<path d="M1197.26 136.713C1202.91 139.977 1212.08 139.977 1217.74 136.713C1221.26 134.678 1222.59 131.856 1221.72 129.228L1211.92 107.916H1203.12L1193.28 129.228C1192.41 131.856 1193.74 134.678 1197.26 136.713Z" fill="#D9D9D9" stroke="black" stroke-width="2" stroke-linecap="round" stroke-linejoin="round"/>
<circle r="3.67691" transform="matrix(0.866043 -0.499969 0.866043 0.499969 1207.5 107.948)" fill="#D9D9D9" stroke="black" stroke-width="2" stroke-linecap="round" stroke-linejoin="round"/>
<path d="M1281.76 87.6794C1287.41 90.9437 1296.58 90.9437 1302.23 87.6794C1305.76 85.6448 1307.08 82.8225 1306.22 80.1943L1296.41 58.8833H1287.61L1277.77 80.1943C1276.9 82.8225 1278.23 85.6448 1281.76 87.6794Z" fill="#D9D9D9" stroke="black" stroke-width="2" stroke-linecap="round" stroke-linejoin="round"/>
<circle r="3.67691" transform="matrix(0.866043 -0.499969 0.866043 0.499969 1291.99 58.9145)" fill="#D9D9D9" stroke="black" stroke-width="2" stroke-linecap="round" stroke-linejoin="round"/>
<path d="M1031.95 306.088L1031.95 290.414L977.4 295.732L977.4 311.536L1000.08 324.617L1031.95 306.088Z" fill="#C4C4C4" stroke="black" stroke-width="2" stroke-linecap="round" stroke-linejoin="round"/>
<path d="M999.979 308.692V324.371" stroke="black" stroke-width="2"/>
<rect width="26.1442" height="36.7091" transform="matrix(-0.866043 -0.499969 -0.866043 0.499969 1031.87 290.346)" fill="#D9D9D9" stroke="black" stroke-width="2" stroke-linecap="round" stroke-linejoin="round"/>
<path d="M998.882 296.201C1000.48 297.123 1002.57 297.585 1004.66 297.587C1006.77 297.589 1008.87 297.127 1010.47 296.201C1012.07 295.277 1012.87 294.066 1012.87 292.856L1012.87 288L996.479 288L996.482 292.856C996.482 294.066 997.282 295.277 998.882 296.201Z" fill="black" stroke="black" stroke-width="2" stroke-linecap="round" stroke-linejoin="round"/>
<path d="M1010.53 284.63C1013.75 286.491 1013.75 289.508 1010.53 291.37C1007.3 293.231 1002.07 293.231 998.85 291.37C995.626 289.508 995.626 286.491 998.85 284.63C1002.07 282.768 1007.3 282.768 1010.53 284.63Z" fill="#505050" stroke="black" stroke-width="2" stroke-linecap="round" stroke-linejoin="round"/>
<path d="M1201.57 405.033L1201.57 389.358L1147.02 394.677L1147.02 410.481L1169.7 423.561L1201.57 405.033Z" fill="#C4C4C4" stroke="black" stroke-width="2" stroke-linecap="round" stroke-linejoin="round"/>
<path d="M1169.6 407.637V423.316" stroke="black" stroke-width="2"/>
<rect width="26.1442" height="36.7091" transform="matrix(-0.866043 -0.499969 -0.866043 0.499969 1201.49 389.291)" fill="#D9D9D9" stroke="black" stroke-width="2" stroke-linecap="round" stroke-linejoin="round"/>
<path d="M1168.5 395.148C1170.1 396.07 1172.19 396.532 1174.29 396.534C1176.39 396.536 1178.49 396.074 1180.1 395.148C1181.7 394.224 1182.5 393.013 1182.5 391.803L1182.49 386.947L1166.1 386.947L1166.1 391.803C1166.1 393.013 1166.9 394.224 1168.5 395.148Z" fill="black" stroke="black" stroke-width="2" stroke-linecap="round" stroke-linejoin="round"/>
<path d="M1180.15 383.576C1183.37 385.437 1183.37 388.455 1180.15 390.316C1176.92 392.178 1171.7 392.178 1168.47 390.316C1165.25 388.455 1165.25 385.437 1168.47 383.576C1171.7 381.715 1176.92 381.715 1180.15 383.576Z" fill="#505050" stroke="black" stroke-width="2" stroke-linecap="round" stroke-linejoin="round"/>
<path d="M1068.92 417.25L1191.18 346.668L1191.18 315.136L992.058 341.288L992.058 372.879L1068.92 417.25Z" fill="#C4C4C4"/>
<path d="M1068.92 417.25L1191.18 346.668L1191.18 315.136L992.058 341.288L992.058 372.879L1068.92 417.25ZM1068.92 417.25L1068.92 385.167" stroke="black" stroke-width="2" stroke-linecap="round" stroke-linejoin="round"/>
<path d="M992.059 372.923L1068.92 417.295L1068.92 385.589L992.059 341.332L992.059 372.923Z" fill="#505050" stroke="black" stroke-width="2" stroke-linecap="round" stroke-linejoin="round"/>
<path d="M998.529 370.096L1068.85 410.69L1068.85 381.683L998.529 344.421L998.529 370.096Z" fill="black" stroke="black" stroke-width="2" stroke-linecap="round" stroke-linejoin="round"/>
<rect width="88.7485" height="141.174" transform="matrix(0.866043 0.499969 -0.866043 0.499969 1114.32 270.735)" fill="#E5E5E5" stroke="black" stroke-width="2" stroke-linecap="round" stroke-linejoin="round"/>
<rect width="7.42502" height="29.4638" rx="3.71251" transform="matrix(-0.866043 -0.499969 -0.866043 0.499969 1062.53 328.007)" fill="#505050" stroke="black" stroke-width="2" stroke-linecap="round" stroke-linejoin="round"/>
<rect width="7.42502" height="29.4638" rx="3.71251" transform="matrix(-0.866043 -0.499969 -0.866043 0.499969 1096.1 347.075)" fill="#505050" stroke="black" stroke-width="2" stroke-linecap="round" stroke-linejoin="round"/>
<rect width="14.157" height="99.6923" transform="matrix(0.866043 -0.499969 0.866043 0.499969 1289.63 183.194)" fill="#E5E5E5" stroke="black" stroke-width="2" stroke-linecap="round" stroke-linejoin="round"/>
<rect width="16.0916" height="99.6923" transform="matrix(0.866043 -0.499969 0.866043 0.499969 1263.14 198.486)" fill="#E5E5E5" stroke="black" stroke-width="2" stroke-linecap="round" stroke-linejoin="round"/>
<rect width="16.3232" height="99.6923" transform="matrix(0.866043 -0.499969 0.866043 0.499969 1234.94 214.765)" fill="#E5E5E5" stroke="black" stroke-width="2" stroke-linecap="round" stroke-linejoin="round"/>
<rect width="94.7983" height="117.449" transform="matrix(0.866043 -0.499969 0.866043 0.499969 1219.95 215.18)" stroke="black" stroke-width="2" stroke-linecap="round" stroke-linejoin="round"/>
<rect width="197.097" height="217.573" transform="matrix(0.866043 -0.499969 0.866043 0.499969 1088 241.296)" stroke="black" stroke-width="2" stroke-linecap="round" stroke-linejoin="round"/>
<path d="M1300.58 252.421L1367 214.079L1367 196.429L1256.07 209.128L1256.07 226.725L1300.58 252.421Z" fill="#464646"/>
<path d="M1300.58 252.421L1367 214.079L1367 196.429L1256.07 209.128L1256.07 226.725L1300.58 252.421ZM1300.58 252.421L1300.58 235.091" stroke="black" stroke-width="2" stroke-linecap="round" stroke-linejoin="round"/>
<rect width="76.6888" height="51.3948" transform="matrix(0.866043 -0.499969 0.866043 0.499969 1256.07 209.112)" fill="#464646" stroke="black" stroke-width="2" stroke-linecap="round" stroke-linejoin="round"/>
<path d="M1498.27 327.532C1498.27 507.871 1352.07 654.065 1171.71 654.065C991.358 654.065 845.153 507.871 845.153 327.532C845.153 147.194 991.358 1 1171.71 1C1352.07 1 1498.27 147.194 1498.27 327.532Z" stroke="black" stroke-width="2"/>
</svg>
