<svg width="1503" height="1052" viewBox="0 0 1503 1052" fill="none" xmlns="http://www.w3.org/2000/svg">
<path d="M641.878 252.988H661.853M586.948 252.988H566.974M614.413 225.525V205.552M580.706 219.284L594.993 233.569M633.834 233.569L648.12 219.284" stroke="black" stroke-width="4" stroke-linecap="round" stroke-linejoin="round"/>
<path d="M519.9 1050L1035.55 751.833L1035.55 615.534L3.00297 615.534L3 752.074L519.9 1050Z" fill="#53978E" stroke="black" stroke-width="4" stroke-linecap="round" stroke-linejoin="round"/>
<path d="M519.902 941.695L1035.55 643.528L1035.55 580.521L3.00195 580.521L3.00195 643.768L519.902 941.695Z" fill="#BAD5D2" stroke="black" stroke-width="4" stroke-linecap="round" stroke-linejoin="round"/>
<path d="M3.00293 580.521L519.463 282.313L1035.51 580.28L519.88 878.488L3.00293 580.521Z" fill="#BAD5D2" stroke="black" stroke-width="4" stroke-linecap="round" stroke-linejoin="round"/>
<path d="M466.938 822.689L492.423 815.892L498.448 793.137L111.577 584.634L73.0654 595.136L466.938 822.689Z" fill="black"/>
<path d="M524.833 350.12L914.161 574.858" stroke="black" stroke-width="4" stroke-linecap="round" stroke-linejoin="round"/>
<path d="M479.653 374.967L868.972 599.722" stroke="black" stroke-width="4" stroke-linecap="round" stroke-linejoin="round"/>
<path d="M434.47 402.073L823.789 626.827" stroke="black" stroke-width="4" stroke-linecap="round" stroke-linejoin="round"/>
<path d="M389.292 429.178L778.593 653.963" stroke="black" stroke-width="4" stroke-linecap="round" stroke-linejoin="round"/>
<path d="M720.585 684.121V492.63C720.585 456.54 708.014 431.097 687.651 419.061L300.281 193.816C279.519 180.816 250.309 182.126 217.952 200.806C154.946 237.179 103.871 325.638 103.871 398.384L103.871 589.874L492.423 815.443L720.585 684.121Z" fill="white"/>
<path d="M720.585 684.121L721.583 685.854C722.203 685.497 722.585 684.836 722.585 684.121H720.585ZM492.423 815.443L491.419 817.173C492.038 817.532 492.801 817.534 493.421 817.177L492.423 815.443ZM687.651 419.061L688.669 417.339C688.665 417.337 688.661 417.334 688.656 417.332L687.651 419.061ZM103.871 589.874L101.871 589.874C101.871 590.587 102.25 591.246 102.866 591.603L103.871 589.874ZM103.871 398.384L101.871 398.384V398.384L103.871 398.384ZM217.952 200.806L216.952 199.074L216.952 199.074L217.952 200.806ZM300.281 193.816L299.22 195.511C299.239 195.523 299.257 195.534 299.276 195.545L300.281 193.816ZM718.585 492.63V684.121H722.585V492.63H718.585ZM493.421 817.177L721.583 685.854L719.588 682.387L491.426 813.71L493.421 817.177ZM686.633 420.783C706.174 432.332 718.585 456.957 718.585 492.63H722.585C722.585 456.122 709.854 429.861 688.669 417.339L686.633 420.783ZM105.871 589.874L105.871 398.384L101.871 398.384L101.871 589.874L105.871 589.874ZM105.871 398.384C105.871 362.444 118.501 322.486 139.016 286.955C159.532 251.424 187.824 220.508 218.951 202.538L216.952 199.074C185.073 217.477 156.326 248.977 135.552 284.955C114.779 320.933 101.871 361.577 101.871 398.384H105.871ZM218.951 202.538C250.935 184.074 279.31 183.045 299.22 195.511L301.343 192.121C279.729 178.588 249.683 180.178 216.952 199.074L218.951 202.538ZM299.276 195.545L686.646 420.79L688.656 417.332L301.287 192.087L299.276 195.545ZM102.866 591.603L491.419 817.173L493.428 813.714L104.875 588.144L102.866 591.603Z" fill="black"/>
<rect width="443.837" height="130.163" transform="matrix(0.866043 0.499969 -2.20323e-08 1 106.326 460.625)" fill="#EEEEEE"/>
<path d="M492.424 815.443L492.424 624.861C492.424 552.111 543.5 463.648 606.505 427.275V427.275C669.51 390.902 720.586 420.392 720.586 493.143L720.586 684.625" stroke="black" stroke-width="4" stroke-linejoin="round"/>
<path d="M492.424 814.858L492.424 624.268C492.424 551.522 543.5 463.063 606.505 426.69C637.201 408.969 665.065 406.881 685.571 417.811" stroke="black" stroke-width="4" stroke-linejoin="round"/>
<path d="M492.424 814.858L492.424 624.268C492.424 551.522 543.5 463.063 606.505 426.69C637.201 408.969 665.065 406.881 685.571 417.811" stroke="black" stroke-width="4" stroke-linejoin="round"/>
<path d="M329.773 720.569L329.773 529.394C329.773 456.648 380.849 368.189 443.854 331.816C474.55 314.095 502.414 312.007 522.92 322.937" stroke="black" stroke-width="4" stroke-linejoin="round"/>
<path d="M411.099 768.006L411.099 576.831C411.099 504.085 462.174 415.626 525.18 379.253C555.875 361.532 583.74 359.444 604.246 370.374" stroke="black" stroke-width="4" stroke-linejoin="round"/>
<path d="M248.448 674.262L248.448 481.957C248.448 409.21 299.524 320.752 362.529 284.379C393.225 266.658 422.218 265.775 442.724 276.705" stroke="black" stroke-width="4" stroke-linejoin="round"/>
<path d="M167.123 626.83L167.123 434.525C167.123 361.779 218.198 273.321 281.204 236.948C311.899 219.227 338.634 217.214 359.14 228.145" stroke="black" stroke-width="4" stroke-linejoin="round"/>
<path d="M644.042 512.742L569.229 555.932L569.229 672.003L585.427 682.801L659.665 523.539L644.042 512.742Z" fill="#C4C4C4"/>
<path d="M569.229 555.932L644.042 512.742L659.665 523.539L585.427 682.801L569.229 672.003L569.229 555.932ZM569.229 555.932L585.427 566.729" stroke="black" stroke-width="4" stroke-linecap="round" stroke-linejoin="round"/>
<rect width="86.3843" height="116.072" transform="matrix(0.866043 -0.499969 2.20323e-08 1 585.429 566.728)" fill="#C4C4C4" stroke="black" stroke-width="4" stroke-linecap="round" stroke-linejoin="round"/>
<rect width="63.2377" height="84.9704" transform="matrix(0.866043 -0.499969 2.20323e-08 1 595.45 576.492)" fill="black" stroke="#C4C4C4" stroke-width="4" stroke-linecap="round" stroke-linejoin="round"/>
<path d="M517.273 767.223C517.273 756.211 525.004 742.819 534.541 737.313V737.313C544.077 731.806 551.808 736.27 551.808 747.282L551.808 780.926L517.273 800.868L517.273 767.223Z" fill="#C4C4C4" stroke="black" stroke-width="4" stroke-linecap="round" stroke-linejoin="round"/>
<ellipse rx="11.2949" ry="11.2942" transform="matrix(0.866043 -0.499969 2.20323e-08 1 536.091 760.1)" fill="#7C7C7C" stroke="black" stroke-width="4" stroke-linecap="round" stroke-linejoin="round"/>
<path d="M670.889 679.128C670.889 668.116 678.62 654.725 688.156 649.218V649.218C697.693 643.711 705.424 648.175 705.424 659.187L705.424 692.832L670.889 712.773L670.889 679.128Z" fill="#C4C4C4" stroke="black" stroke-width="4" stroke-linecap="round" stroke-linejoin="round"/>
<ellipse rx="11.2949" ry="11.2942" transform="matrix(0.866043 -0.499969 2.20323e-08 1 689.707 672.005)" fill="#7C7C7C" stroke="black" stroke-width="4" stroke-linecap="round" stroke-linejoin="round"/>
<path d="M605.375 618.585L613.716 613.622L613.716 626.126L605.375 631.089L605.375 618.585Z" fill="#53978E"/>
<path d="M618.849 597.898L627.191 592.936V618.473L618.849 623.435V597.898Z" fill="#53978E"/>
<rect width="9.70578" height="38.8208" transform="matrix(0.859447 -0.511225 0 1 632.323 576.443)" fill="#53978E"/>
<rect x="605.375" y="323.016" width="18.0722" height="221.367" rx="9.03611" fill="#C4C4C4" stroke="black" stroke-width="4" stroke-linecap="round" stroke-linejoin="round"/>
<rect x="605.375" y="250.732" width="18.0722" height="221.367" rx="9.03611" fill="#E0E0E0" stroke="black" stroke-width="4" stroke-linecap="round" stroke-linejoin="round"/>
<ellipse cx="614.41" cy="250.734" rx="18.0722" ry="18.0707" fill="#FF8484" stroke="black" stroke-width="4" stroke-linecap="round" stroke-linejoin="round"/>
<path d="M860.645 424.663L668.627 579.394L944.229 562.453" stroke="black" stroke-width="4" stroke-dasharray="22.59 22.59"/>
<path d="M1498.27 327.532C1498.27 507.319 1352.51 653.065 1172.71 653.065C992.911 653.065 847.153 507.319 847.153 327.532C847.153 147.746 992.911 2 1172.71 2C1352.51 2 1498.27 147.746 1498.27 327.532Z" fill="#FFB5B5" stroke="black" stroke-width="4"/>
<path d="M1227.75 590.4C1229.43 591.37 1231.63 591.856 1233.84 591.858C1236.05 591.861 1238.26 591.374 1239.95 590.4C1241.64 589.427 1242.48 588.153 1242.48 586.879L1242.48 484.967L1225.23 484.967L1225.23 586.879C1225.23 588.153 1226.07 589.427 1227.75 590.4Z" fill="#FAC864" stroke="black" stroke-width="1.20396" stroke-linecap="round" stroke-linejoin="round"/>
<path d="M1240.01 481.419C1243.4 483.378 1243.4 486.554 1240.01 488.513C1236.62 490.471 1231.12 490.471 1227.72 488.513C1224.33 486.554 1224.33 483.378 1227.72 481.419C1231.12 479.46 1236.62 479.46 1240.01 481.419Z" fill="#FFE598" stroke="black" stroke-width="1.20396" stroke-linecap="round" stroke-linejoin="round"/>
<path d="M1493.67 335.32C1490.28 333.361 1484.78 333.361 1481.39 335.32L1478.89 338.867L1478.89 437.544L1496.14 371.037L1496.14 338.867L1493.67 335.32Z" fill="#FAC864" stroke="black" stroke-width="1.20396" stroke-linecap="round" stroke-linejoin="round"/>
<path d="M1396.79 492.834C1400.16 494.778 1405.62 494.778 1408.99 492.834C1410.68 491.861 1411.52 490.587 1411.52 489.312L1411.52 387.4L1394.27 387.4L1394.27 489.312C1394.27 490.587 1395.11 491.861 1396.79 492.834Z" fill="#FAC864" stroke="black" stroke-width="1.20396" stroke-linecap="round" stroke-linejoin="round"/>
<path d="M1409.05 383.853C1412.44 385.812 1412.44 388.988 1409.05 390.947C1405.66 392.906 1400.16 392.906 1396.76 390.947C1393.37 388.988 1393.37 385.812 1396.76 383.853C1400.16 381.894 1405.66 381.894 1409.05 383.853Z" fill="#FFE598" stroke="black" stroke-width="1.20396" stroke-linecap="round" stroke-linejoin="round"/>
<path d="M1312.3 541.865C1315.67 543.809 1321.13 543.809 1324.5 541.865C1326.18 540.892 1327.02 539.618 1327.02 538.344L1327.02 436.432L1309.77 436.432L1309.77 538.344C1309.77 539.618 1310.61 540.892 1312.3 541.865Z" fill="#FAC864" stroke="black" stroke-width="1.20396" stroke-linecap="round" stroke-linejoin="round"/>
<path d="M1324.56 432.886C1327.95 434.845 1327.95 438.021 1324.56 439.979C1321.16 441.938 1315.66 441.938 1312.27 439.979C1308.87 438.021 1308.87 434.845 1312.27 432.886C1315.66 430.927 1321.16 430.927 1324.56 432.886Z" fill="#FFE598" stroke="black" stroke-width="1.20396" stroke-linecap="round" stroke-linejoin="round"/>
<path d="M1261 502.32L1261 477.698L1175.31 486.053L1175.31 510.879L1210.93 531.426L1261 502.32Z" fill="#505050" stroke="black" stroke-width="1.92737" stroke-linecap="round" stroke-linejoin="round"/>
<path d="M1210.77 506.414V531.043" stroke="black" stroke-width="1.92812"/>
<rect width="41.0696" height="57.6658" transform="matrix(-0.866043 -0.499969 -0.866043 0.499969 1260.87 477.597)" fill="#B3B3B3" stroke="black" stroke-width="1.92737" stroke-linecap="round" stroke-linejoin="round"/>
<path d="M940.942 423.053C944.311 424.998 949.772 424.998 953.141 423.053C954.825 422.081 955.667 420.806 955.667 419.532L955.667 317.62L938.415 317.62L938.416 419.532C938.416 420.806 939.258 422.081 940.942 423.053Z" fill="#FAC864" stroke="black" stroke-width="1.20396" stroke-linecap="round" stroke-linejoin="round"/>
<path d="M953.201 314.072C956.594 316.031 956.594 319.207 953.201 321.165C949.807 323.124 944.306 323.124 940.912 321.165C937.519 319.207 937.519 316.031 940.912 314.072C944.306 312.113 949.807 312.113 953.201 314.072Z" fill="#FFE598" stroke="black" stroke-width="1.20396" stroke-linecap="round" stroke-linejoin="round"/>
<path d="M1346.75 452.658L1346.75 428.036L1261.06 436.391L1261.06 461.217L1296.68 481.764L1346.75 452.658Z" fill="#505050" stroke="black" stroke-width="1.92737" stroke-linecap="round" stroke-linejoin="round"/>
<path d="M1296.53 456.753V481.381" stroke="black" stroke-width="1.92812"/>
<rect width="41.0696" height="57.6658" transform="matrix(-0.866043 -0.499969 -0.866043 0.499969 1346.62 427.935)" fill="#B3B3B3" stroke="black" stroke-width="1.92737" stroke-linecap="round" stroke-linejoin="round"/>
<path d="M1432.45 402.996L1432.45 378.374L1346.76 386.729L1346.76 411.554L1382.38 432.102L1432.45 402.996Z" fill="#505050" stroke="black" stroke-width="1.92737" stroke-linecap="round" stroke-linejoin="round"/>
<path d="M1382.22 407.09V431.719" stroke="black" stroke-width="1.92812"/>
<rect width="41.0696" height="57.6658" transform="matrix(-0.866043 -0.499969 -0.866043 0.499969 1432.32 378.273)" fill="#B3B3B3" stroke="black" stroke-width="1.92737" stroke-linecap="round" stroke-linejoin="round"/>
<path d="M1468.07 378.415L1432.44 357.868L1432.44 333.042L1498.27 326.624L1496.27 362.02L1468.07 378.415Z" fill="#505050" stroke="black" stroke-width="1.92737" stroke-linecap="round" stroke-linejoin="round"/>
<path d="M1467.91 353.403V378.032" stroke="black" stroke-width="1.92812"/>
<path d="M890.854 348.221L1173.28 511.264C1182.5 516.587 1197.45 516.587 1206.67 511.264L1497.77 343.209V307.531L1477.27 213.889L883.945 305.939V338.88C884.072 342.269 886.375 345.635 890.854 348.221Z" fill="#55A398" stroke="black" stroke-width="1.92737" stroke-linecap="round" stroke-linejoin="round"/>
<path d="M890.852 314.902L1173.27 477.945C1182.49 483.268 1197.44 483.268 1206.66 477.945L1497.77 309.888C1496.94 298.935 1494.47 273.627 1491.27 260.026C1487.27 243.024 1476.77 192.519 1432.76 131.513C1400.29 86.5086 1349.12 51.8385 1329.31 42.5042L890.852 295.626C881.632 300.949 881.632 309.579 890.852 314.902Z" fill="#BDDCD8" stroke="black" stroke-width="1.92737" stroke-linecap="round" stroke-linejoin="round"/>
<path d="M1309.17 144.338L1445.15 222.838L1474.27 206.029C1468.6 188.432 1445.56 141.116 1398.75 92.6212L1309.17 144.338Z" stroke="black" stroke-width="1.92737" stroke-linecap="round" stroke-linejoin="round"/>
<rect width="37.6265" height="10.6987" transform="matrix(0.866043 -0.499969 0.866043 0.499969 1347.69 142.439)" fill="#E5E5E5" stroke="black" stroke-width="1.92737" stroke-linecap="round" stroke-linejoin="round"/>
<rect width="34.5346" height="10.6987" transform="matrix(0.866043 -0.499969 0.866043 0.499969 1384.66 163.564)" fill="#E5E5E5" stroke="black" stroke-width="1.92737" stroke-linecap="round" stroke-linejoin="round"/>
<rect width="30.8896" height="10.6987" transform="matrix(0.866043 -0.499969 0.866043 0.499969 1421.5 184.685)" fill="#E5E5E5" stroke="black" stroke-width="1.92737" stroke-linecap="round" stroke-linejoin="round"/>
<rect width="33.0686" height="10.6987" transform="matrix(0.866043 -0.499969 0.866043 0.499969 1366.05 153.001)" fill="#E5E5E5" stroke="black" stroke-width="1.92737" stroke-linecap="round" stroke-linejoin="round"/>
<rect width="34.9829" height="10.6987" transform="matrix(0.866043 -0.499969 0.866043 0.499969 1403.02 174.122)" fill="#E5E5E5" stroke="black" stroke-width="1.92737" stroke-linecap="round" stroke-linejoin="round"/>
<path d="M1439.99 195.245L1449.25 200.594L1467.77 189.907L1463.76 181.519L1439.99 195.245Z" fill="#E5E5E5" stroke="black" stroke-width="1.92737" stroke-linecap="round" stroke-linejoin="round"/>
<path d="M1366.14 103.2L1366.14 124.502L1462.77 180.286C1453.76 163.019 1429.96 123.087 1406.75 101.496L1366.14 103.2Z" fill="#C4C4C4" stroke="black" stroke-width="1.92737" stroke-linecap="round" stroke-linejoin="round"/>
<path d="M1392.75 87.7533L1366.14 103.118L1444.26 148.22C1432.26 127.582 1404.92 99.3096 1392.75 87.7533Z" fill="#E5E5E5" stroke="black" stroke-width="1.92737" stroke-linecap="round" stroke-linejoin="round"/>
<rect width="69.9168" height="68.5217" transform="matrix(0.866043 -0.499969 0.866043 0.499969 1164.36 274.226)" fill="#E5E5E5" stroke="black" stroke-width="1.92737" stroke-linecap="round" stroke-linejoin="round"/>
<path d="M1224.31 301.915L1273.31 273.626L1273.31 267.591L1175.31 267.591L1175.31 273.626L1224.31 301.915Z" fill="#464646"/>
<path d="M1224.31 301.915L1273.31 273.626L1273.31 267.591L1175.31 267.591L1175.31 273.626L1224.31 301.915ZM1224.31 301.915L1224.31 295.943" stroke="black" stroke-width="1.92737" stroke-linecap="round" stroke-linejoin="round"/>
<rect width="56.5816" height="56.5816" transform="matrix(0.866043 -0.499969 0.866043 0.499969 1175.3 267.591)" fill="#464646" stroke="black" stroke-width="1.92737" stroke-linecap="round" stroke-linejoin="round"/>
<path d="M1466.64 305.151L1469.62 306.867C1477.35 311.329 1489.1 312.05 1498.13 309.031L1494.27 277.485C1487.24 276.949 1479.87 278.24 1474.47 281.359L1466.64 285.876C1457.42 291.199 1457.42 299.829 1466.64 305.151Z" fill="#55A398" stroke="black" stroke-width="1.92737" stroke-linecap="round" stroke-linejoin="round"/>
<rect width="41.9847" height="47.5931" rx="19.2737" transform="matrix(0.866043 0.499969 -0.866043 0.499969 1406.26 320.739)" fill="#55A398" stroke="black" stroke-width="1.92737" stroke-linecap="round" stroke-linejoin="round"/>
<rect width="41.9847" height="48.5032" rx="19.2737" transform="matrix(0.866043 0.499969 -0.866043 0.499969 1320.72 370.121)" fill="#55A398" stroke="black" stroke-width="1.92737" stroke-linecap="round" stroke-linejoin="round"/>
<rect width="41.9847" height="46.1027" rx="19.2737" transform="matrix(0.866043 0.499969 -0.866043 0.499969 1234.5 419.897)" fill="#55A398" stroke="black" stroke-width="1.92737" stroke-linecap="round" stroke-linejoin="round"/>
<path d="M1223.64 446.885C1229.3 450.149 1238.46 450.149 1244.12 446.885C1247.64 444.85 1248.97 442.028 1248.1 439.4L1238.3 418.089H1229.5L1219.66 439.4C1218.79 442.028 1220.12 444.85 1223.64 446.885Z" fill="#D9D9D9" stroke="black" stroke-width="1.92737" stroke-linecap="round" stroke-linejoin="round"/>
<circle r="3.67691" transform="matrix(0.866043 -0.499969 0.866043 0.499969 1233.88 418.12)" fill="#D9D9D9" stroke="black" stroke-width="1.92737" stroke-linecap="round" stroke-linejoin="round"/>
<path d="M1308.18 397.348C1313.83 400.613 1323 400.613 1328.66 397.348C1332.18 395.314 1333.51 392.491 1332.64 389.863L1322.84 368.552H1314.04L1304.2 389.863C1303.33 392.491 1304.66 395.314 1308.18 397.348Z" fill="#D9D9D9" stroke="black" stroke-width="1.92737" stroke-linecap="round" stroke-linejoin="round"/>
<circle r="3.67691" transform="matrix(0.866043 -0.499969 0.866043 0.499969 1318.42 368.583)" fill="#D9D9D9" stroke="black" stroke-width="1.92737" stroke-linecap="round" stroke-linejoin="round"/>
<path d="M1392.67 347.81C1398.33 351.075 1407.5 351.075 1413.15 347.81C1416.67 345.776 1418 342.953 1417.13 340.325L1407.33 319.014H1398.53L1388.69 340.325C1387.82 342.953 1389.15 345.776 1392.67 347.81Z" fill="#D9D9D9" stroke="black" stroke-width="1.92737" stroke-linecap="round" stroke-linejoin="round"/>
<circle r="3.67691" transform="matrix(0.866043 -0.499969 0.866043 0.499969 1402.91 319.046)" fill="#D9D9D9" stroke="black" stroke-width="1.92737" stroke-linecap="round" stroke-linejoin="round"/>
<path d="M1477.3 298.777C1482.95 302.041 1492.12 302.041 1497.77 298.777L1494.51 275.528L1491.95 269.981H1483.15L1473.31 291.292C1472.44 293.92 1473.77 296.742 1477.3 298.777Z" fill="#D9D9D9"/>
<path d="M1495.43 277.528L1494.51 275.528M1494.51 275.528L1491.95 269.981H1483.15L1473.31 291.292C1472.44 293.92 1473.77 296.742 1477.3 298.777C1482.95 302.041 1492.12 302.041 1497.77 298.777L1494.51 275.528Z" stroke="black" stroke-width="1.92737" stroke-linecap="round" stroke-linejoin="round"/>
<circle r="3.67691" transform="matrix(0.866043 -0.499969 0.866043 0.499969 1487.54 270.012)" fill="#D9D9D9" stroke="black" stroke-width="1.92737" stroke-linecap="round" stroke-linejoin="round"/>
<rect width="41.9847" height="47.1565" rx="19.2737" transform="matrix(0.866043 0.499969 -0.866043 0.499969 1295.58 61.48)" fill="#55A398" stroke="black" stroke-width="1.92737" stroke-linecap="round" stroke-linejoin="round"/>
<rect width="41.9847" height="47.5879" rx="19.2737" transform="matrix(0.866043 0.499969 -0.866043 0.499969 1212.13 109.657)" fill="#55A398" stroke="black" stroke-width="1.92737" stroke-linecap="round" stroke-linejoin="round"/>
<rect width="41.9847" height="47.5931" rx="19.2737" transform="matrix(0.866043 0.499969 -0.866043 0.499969 1127.22 158.673)" fill="#55A398" stroke="black" stroke-width="1.92737" stroke-linecap="round" stroke-linejoin="round"/>
<rect width="41.9847" height="48.5032" rx="19.2737" transform="matrix(0.866043 0.499969 -0.866043 0.499969 1041.68 208.057)" fill="#55A398" stroke="black" stroke-width="1.92737" stroke-linecap="round" stroke-linejoin="round"/>
<rect width="41.9847" height="46.1027" rx="19.2737" transform="matrix(0.866043 0.499969 -0.866043 0.499969 955.458 257.831)" fill="#55A398" stroke="black" stroke-width="1.92737" stroke-linecap="round" stroke-linejoin="round"/>
<path d="M944.603 284.819C950.258 288.083 959.425 288.083 965.08 284.819C968.604 282.784 969.932 279.962 969.063 277.334L959.261 256.023H950.46L940.62 277.334C939.751 279.962 941.079 282.784 944.603 284.819Z" fill="#D9D9D9" stroke="black" stroke-width="1.92737" stroke-linecap="round" stroke-linejoin="round"/>
<circle r="3.67691" transform="matrix(0.866043 -0.499969 0.866043 0.499969 954.842 256.054)" fill="#D9D9D9" stroke="black" stroke-width="1.92737" stroke-linecap="round" stroke-linejoin="round"/>
<path d="M1029.14 235.283C1034.79 238.547 1043.96 238.547 1049.62 235.283C1053.14 233.248 1054.47 230.426 1053.6 227.798L1043.8 206.487H1035L1025.16 227.798C1024.29 230.426 1025.62 233.248 1029.14 235.283Z" fill="#D9D9D9" stroke="black" stroke-width="1.92737" stroke-linecap="round" stroke-linejoin="round"/>
<circle r="3.67691" transform="matrix(0.866043 -0.499969 0.866043 0.499969 1039.38 206.518)" fill="#D9D9D9" stroke="black" stroke-width="1.92737" stroke-linecap="round" stroke-linejoin="round"/>
<path d="M1113.64 185.746C1119.29 189.011 1128.46 189.011 1134.11 185.746C1137.64 183.712 1138.97 180.89 1138.1 178.261L1128.29 156.95H1119.49L1109.65 178.261C1108.78 180.89 1110.11 183.712 1113.64 185.746Z" fill="#D9D9D9" stroke="black" stroke-width="1.92737" stroke-linecap="round" stroke-linejoin="round"/>
<circle r="3.67691" transform="matrix(0.866043 -0.499969 0.866043 0.499969 1123.88 156.982)" fill="#D9D9D9" stroke="black" stroke-width="1.92737" stroke-linecap="round" stroke-linejoin="round"/>
<path d="M1198.26 136.713C1203.91 139.977 1213.08 139.977 1218.74 136.713C1222.26 134.678 1223.59 131.856 1222.72 129.228L1212.92 107.916H1204.12L1194.28 129.228C1193.41 131.856 1194.74 134.678 1198.26 136.713Z" fill="#D9D9D9" stroke="black" stroke-width="1.92737" stroke-linecap="round" stroke-linejoin="round"/>
<circle r="3.67691" transform="matrix(0.866043 -0.499969 0.866043 0.499969 1208.5 107.948)" fill="#D9D9D9" stroke="black" stroke-width="1.92737" stroke-linecap="round" stroke-linejoin="round"/>
<path d="M1282.76 87.6794C1288.41 90.9437 1297.58 90.9437 1303.23 87.6794C1306.76 85.6448 1308.08 82.8225 1307.22 80.1943L1297.41 58.8833H1288.61L1278.77 80.1943C1277.9 82.8225 1279.23 85.6448 1282.76 87.6794Z" fill="#D9D9D9" stroke="black" stroke-width="1.92737" stroke-linecap="round" stroke-linejoin="round"/>
<circle r="3.67691" transform="matrix(0.866043 -0.499969 0.866043 0.499969 1292.99 58.9145)" fill="#D9D9D9" stroke="black" stroke-width="1.92737" stroke-linecap="round" stroke-linejoin="round"/>
<path d="M1032.95 306.088L1032.95 290.414L978.4 295.732L978.4 311.536L1001.08 324.617L1032.95 306.088Z" fill="#C4C4C4" stroke="black" stroke-width="1.92737" stroke-linecap="round" stroke-linejoin="round"/>
<path d="M1000.98 308.692V324.371" stroke="black" stroke-width="1.92812"/>
<rect width="26.1442" height="36.7091" transform="matrix(-0.866043 -0.499969 -0.866043 0.499969 1032.87 290.346)" fill="#D9D9D9" stroke="black" stroke-width="1.92737" stroke-linecap="round" stroke-linejoin="round"/>
<path d="M999.882 296.201C1001.48 297.123 1003.57 297.585 1005.66 297.587C1007.77 297.589 1009.87 297.127 1011.47 296.201C1013.07 295.277 1013.87 294.066 1013.87 292.856L1013.87 288L997.479 288L997.482 292.856C997.482 294.066 998.282 295.277 999.882 296.201Z" fill="black" stroke="black" stroke-width="1.20396" stroke-linecap="round" stroke-linejoin="round"/>
<path d="M1011.53 284.63C1014.75 286.491 1014.75 289.508 1011.53 291.37C1008.3 293.231 1003.07 293.231 999.85 291.37C996.626 289.508 996.626 286.491 999.85 284.63C1003.07 282.768 1008.3 282.768 1011.53 284.63Z" fill="#505050" stroke="black" stroke-width="1.20396" stroke-linecap="round" stroke-linejoin="round"/>
<path d="M1202.57 405.033L1202.57 389.358L1148.02 394.677L1148.02 410.481L1170.7 423.561L1202.57 405.033Z" fill="#C4C4C4" stroke="black" stroke-width="1.92737" stroke-linecap="round" stroke-linejoin="round"/>
<path d="M1170.6 407.637V423.316" stroke="black" stroke-width="1.92812"/>
<rect width="26.1442" height="36.7091" transform="matrix(-0.866043 -0.499969 -0.866043 0.499969 1202.49 389.291)" fill="#D9D9D9" stroke="black" stroke-width="1.92737" stroke-linecap="round" stroke-linejoin="round"/>
<path d="M1169.5 395.148C1171.1 396.07 1173.19 396.532 1175.29 396.534C1177.39 396.536 1179.49 396.074 1181.1 395.148C1182.7 394.224 1183.5 393.013 1183.5 391.803L1183.49 386.947L1167.1 386.947L1167.1 391.803C1167.1 393.013 1167.9 394.224 1169.5 395.148Z" fill="black" stroke="black" stroke-width="1.20396" stroke-linecap="round" stroke-linejoin="round"/>
<path d="M1181.15 383.576C1184.37 385.437 1184.37 388.455 1181.15 390.316C1177.92 392.178 1172.7 392.178 1169.47 390.316C1166.25 388.455 1166.25 385.437 1169.47 383.576C1172.7 381.715 1177.92 381.715 1181.15 383.576Z" fill="#505050" stroke="black" stroke-width="1.20396" stroke-linecap="round" stroke-linejoin="round"/>
<path d="M1069.92 417.25L1192.18 346.668L1192.18 315.136L993.058 341.288L993.058 372.879L1069.92 417.25Z" fill="#C4C4C4"/>
<path d="M1069.92 417.25L1192.18 346.668L1192.18 315.136L993.058 341.288L993.058 372.879L1069.92 417.25ZM1069.92 417.25L1069.92 385.167" stroke="black" stroke-width="1.92737" stroke-linecap="round" stroke-linejoin="round"/>
<path d="M993.059 372.923L1069.92 417.295L1069.92 385.589L993.059 341.332L993.059 372.923Z" fill="#505050" stroke="black" stroke-width="1.92737" stroke-linecap="round" stroke-linejoin="round"/>
<path d="M999.529 370.096L1069.85 410.69L1069.85 381.683L999.529 344.421L999.529 370.096Z" fill="black" stroke="black" stroke-width="1.92737" stroke-linecap="round" stroke-linejoin="round"/>
<rect width="88.7485" height="141.174" transform="matrix(0.866043 0.499969 -0.866043 0.499969 1115.32 270.735)" fill="#E5E5E5" stroke="black" stroke-width="1.92737" stroke-linecap="round" stroke-linejoin="round"/>
<rect width="7.42502" height="29.4638" rx="3.71251" transform="matrix(-0.866043 -0.499969 -0.866043 0.499969 1063.53 328.007)" fill="#505050" stroke="black" stroke-width="1.92737" stroke-linecap="round" stroke-linejoin="round"/>
<rect width="7.42502" height="29.4638" rx="3.71251" transform="matrix(-0.866043 -0.499969 -0.866043 0.499969 1097.1 347.075)" fill="#505050" stroke="black" stroke-width="1.92737" stroke-linecap="round" stroke-linejoin="round"/>
<rect width="14.157" height="99.6923" transform="matrix(0.866043 -0.499969 0.866043 0.499969 1290.63 183.194)" fill="#E5E5E5" stroke="black" stroke-width="1.92737" stroke-linecap="round" stroke-linejoin="round"/>
<rect width="16.0916" height="99.6923" transform="matrix(0.866043 -0.499969 0.866043 0.499969 1264.14 198.486)" fill="#E5E5E5" stroke="black" stroke-width="1.92737" stroke-linecap="round" stroke-linejoin="round"/>
<rect width="16.3232" height="99.6923" transform="matrix(0.866043 -0.499969 0.866043 0.499969 1235.94 214.765)" fill="#E5E5E5" stroke="black" stroke-width="1.92737" stroke-linecap="round" stroke-linejoin="round"/>
<rect width="94.7983" height="117.449" transform="matrix(0.866043 -0.499969 0.866043 0.499969 1220.95 215.18)" stroke="black" stroke-width="1.92737" stroke-linecap="round" stroke-linejoin="round"/>
<rect width="197.097" height="217.573" transform="matrix(0.866043 -0.499969 0.866043 0.499969 1089 241.296)" stroke="black" stroke-width="1.92737" stroke-linecap="round" stroke-linejoin="round"/>
<path d="M1301.58 252.421L1368 214.079L1368 196.429L1257.07 209.128L1257.07 226.725L1301.58 252.421Z" fill="#464646"/>
<path d="M1301.58 252.421L1368 214.079L1368 196.429L1257.07 209.128L1257.07 226.725L1301.58 252.421ZM1301.58 252.421L1301.58 235.091" stroke="black" stroke-width="1.92737" stroke-linecap="round" stroke-linejoin="round"/>
<rect width="76.6888" height="51.3948" transform="matrix(0.866043 -0.499969 0.866043 0.499969 1257.07 209.112)" fill="#464646" stroke="black" stroke-width="1.92737" stroke-linecap="round" stroke-linejoin="round"/>
<path d="M1498.27 327.532C1498.27 507.319 1352.51 653.065 1172.71 653.065C992.911 653.065 847.153 507.319 847.153 327.532C847.153 147.746 992.911 2 1172.71 2C1352.51 2 1498.27 147.746 1498.27 327.532Z" stroke="black" stroke-width="4"/>
</svg>
