<svg width="1500" height="1053" viewBox="0 0 1500 1053" fill="none" xmlns="http://www.w3.org/2000/svg">
<path d="M641.742 253.781H661.713M586.822 253.781H566.851M614.282 226.321V206.35M580.581 220.08L594.864 234.363M633.699 234.363L647.983 220.08" stroke="black" stroke-width="4" stroke-linecap="round" stroke-linejoin="round"/>
<path d="M519.786 1050.71L1035.34 752.576L1035.34 616.291L2.98247 616.291L2.97949 752.817L519.786 1050.71Z" fill="#53978E" stroke="black" stroke-width="4" stroke-linecap="round" stroke-linejoin="round"/>
<path d="M519.788 942.419L1035.34 644.282L1035.34 581.281L2.98096 581.281L2.98096 644.522L519.788 942.419Z" fill="#BAD5D2" stroke="black" stroke-width="4" stroke-linecap="round" stroke-linejoin="round"/>
<path d="M2.98242 581.281L519.372 283.143L1035.34 581.04L519.789 879.178L2.98242 581.281Z" fill="#BAD5D2" stroke="black" stroke-width="4" stroke-linecap="round" stroke-linejoin="round"/>
<path d="M466.834 823.425L492.314 816.628L498.338 793.876L111.537 585.394L73.0322 595.895L466.834 823.425Z" fill="black"/>
<path d="M524.718 350.903L913.966 575.636" stroke="black" stroke-width="4" stroke-linecap="round" stroke-linejoin="round"/>
<path d="M479.546 375.748L868.795 600.481" stroke="black" stroke-width="4" stroke-linecap="round" stroke-linejoin="round"/>
<path d="M434.372 402.851L823.62 627.583" stroke="black" stroke-width="4" stroke-linecap="round" stroke-linejoin="round"/>
<path d="M389.201 429.953L778.449 654.686" stroke="black" stroke-width="4" stroke-linecap="round" stroke-linejoin="round"/>
<path d="M720.434 684.87V493.399C720.434 457.312 707.865 431.872 687.506 419.837L300.207 194.614C279.448 181.616 250.243 182.926 217.892 201.604C154.898 237.973 103.832 326.423 103.832 399.162L103.832 590.633L492.314 816.18L720.434 684.87Z" fill="white"/>
<path d="M720.434 684.87L721.432 686.604C722.052 686.247 722.434 685.586 722.434 684.87H720.434ZM492.314 816.18L491.31 817.91C491.928 818.269 492.692 818.271 493.312 817.914L492.314 816.18ZM687.506 419.837L688.524 418.115C688.52 418.113 688.516 418.111 688.511 418.108L687.506 419.837ZM103.832 590.633H101.832C101.832 591.346 102.211 592.005 102.827 592.363L103.832 590.633ZM103.832 399.162H101.832H103.832ZM217.892 201.604L216.892 199.872L217.892 201.604ZM300.207 194.614L299.145 196.309C299.164 196.321 299.182 196.332 299.201 196.343L300.207 194.614ZM718.434 493.399V684.87H722.434V493.399H718.434ZM493.312 817.914L721.432 686.604L719.437 683.137L491.316 814.447L493.312 817.914ZM686.488 421.559C706.025 433.107 718.434 457.73 718.434 493.399H722.434C722.434 456.894 709.705 430.636 688.524 418.115L686.488 421.559ZM105.832 590.633L105.832 399.162H101.832L101.832 590.633H105.832ZM105.832 399.162C105.832 363.226 118.459 323.272 138.971 287.744C159.483 252.217 187.77 221.304 218.892 203.336L216.892 199.872C185.019 218.273 156.277 249.77 135.507 285.744C114.737 321.719 101.832 362.359 101.832 399.162H105.832ZM218.892 203.336C250.869 184.874 279.239 183.845 299.145 196.309L301.268 192.919C279.658 179.388 249.617 180.978 216.892 199.872L218.892 203.336ZM299.201 196.343L686.501 421.566L688.511 418.108L301.212 192.885L299.201 196.343ZM102.827 592.363L491.31 817.91L493.318 814.451L104.836 588.903L102.827 592.363Z" fill="black"/>
<rect width="443.765" height="130.15" transform="matrix(0.866025 0.5 -2.20305e-08 1 106.287 461.397)" fill="#EEEEEE"/>
<path d="M492.314 816.18L492.314 625.609C492.314 552.87 543.381 464.42 606.375 428.051V428.051C669.368 391.681 720.435 421.165 720.435 493.903L720.435 685.375" stroke="black" stroke-width="4" stroke-linejoin="round"/>
<path d="M492.314 815.595L492.314 625.024C492.314 552.285 543.381 463.835 606.375 427.466C637.065 409.746 664.924 407.658 685.426 418.588" stroke="black" stroke-width="4" stroke-linejoin="round"/>
<path d="M492.314 815.595L492.314 625.024C492.314 552.285 543.381 463.835 606.375 427.466C637.065 409.746 664.924 407.658 685.426 418.588" stroke="black" stroke-width="4" stroke-linejoin="round"/>
<path d="M329.693 721.316L329.693 530.159C329.693 457.42 380.76 368.97 443.754 332.601C474.444 314.882 502.303 312.794 522.805 323.723" stroke="black" stroke-width="4" stroke-linejoin="round"/>
<path d="M411.004 768.748L411.004 577.591C411.004 504.852 462.07 416.403 525.064 380.033C555.754 362.314 583.614 360.226 604.116 371.155" stroke="black" stroke-width="4" stroke-linejoin="round"/>
<path d="M248.383 675.013L248.383 482.727C248.383 409.988 299.45 321.538 362.444 285.168C393.134 267.449 422.122 266.566 442.624 277.496" stroke="black" stroke-width="4" stroke-linejoin="round"/>
<path d="M167.073 627.586L167.073 435.3C167.073 362.561 218.139 274.111 281.133 237.742C311.823 220.023 338.553 218.01 359.055 228.94" stroke="black" stroke-width="4" stroke-linejoin="round"/>
<g clip-path="url(#clip0)">
<rect x="846.658" y="2.81769" width="651.342" height="651.342" rx="325.671" fill="#FFB5B5"/>
<path d="M1210 565.14C1211.55 566.032 1213.57 566.478 1215.6 566.48C1217.63 566.482 1219.66 566.036 1221.22 565.14C1222.76 564.246 1223.54 563.074 1223.54 561.903L1223.54 468.224L1207.68 468.224L1207.68 561.903C1207.68 563.074 1208.46 564.246 1210 565.14Z" fill="#FAC864" stroke="black" stroke-width="1.10681" stroke-linecap="round" stroke-linejoin="round"/>
<path d="M1221.27 464.963C1224.39 466.764 1224.39 469.683 1221.27 471.484C1218.15 473.285 1213.09 473.285 1209.98 471.484C1206.86 469.683 1206.86 466.764 1209.98 464.963C1213.09 463.162 1218.15 463.162 1221.27 464.963Z" fill="#FFE598" stroke="black" stroke-width="1.10681" stroke-linecap="round" stroke-linejoin="round"/>
<path d="M1443.16 430.842C1446.25 432.63 1451.27 432.63 1454.37 430.842C1455.92 429.949 1456.69 428.777 1456.69 427.606L1456.69 333.927L1440.83 333.927L1440.83 427.606C1440.83 428.777 1441.61 429.949 1443.16 430.842Z" fill="#FAC864" stroke="black" stroke-width="1.10681" stroke-linecap="round" stroke-linejoin="round"/>
<path d="M1454.42 330.666C1457.54 332.467 1457.54 335.387 1454.42 337.187C1451.3 338.988 1446.25 338.988 1443.13 337.187C1440.01 335.387 1440.01 332.467 1443.13 330.666C1446.25 328.865 1451.3 328.865 1454.42 330.666Z" fill="#FFE598" stroke="black" stroke-width="1.10681" stroke-linecap="round" stroke-linejoin="round"/>
<path d="M1365.38 475.455C1368.47 477.243 1373.49 477.243 1376.59 475.455C1378.14 474.561 1378.91 473.39 1378.91 472.218L1378.91 378.539L1363.05 378.539L1363.05 472.218C1363.05 473.39 1363.83 474.561 1365.38 475.455Z" fill="#FAC864" stroke="black" stroke-width="1.10681" stroke-linecap="round" stroke-linejoin="round"/>
<path d="M1376.64 375.279C1379.76 377.08 1379.76 379.999 1376.64 381.8C1373.52 383.601 1368.47 383.601 1365.35 381.8C1362.23 379.999 1362.23 377.08 1365.35 375.279C1368.47 373.478 1373.52 373.478 1376.64 375.279Z" fill="#FFE598" stroke="black" stroke-width="1.10681" stroke-linecap="round" stroke-linejoin="round"/>
<path d="M1287.71 520.525C1290.81 522.313 1295.83 522.313 1298.93 520.525C1300.47 519.632 1301.25 518.46 1301.25 517.289L1301.25 423.61L1285.39 423.61L1285.39 517.289C1285.39 518.46 1286.16 519.632 1287.71 520.525Z" fill="#FAC864" stroke="black" stroke-width="1.10681" stroke-linecap="round" stroke-linejoin="round"/>
<path d="M1298.98 420.35C1302.1 422.151 1302.1 425.071 1298.98 426.872C1295.86 428.672 1290.8 428.672 1287.68 426.872C1284.57 425.071 1284.57 422.151 1287.68 420.35C1290.8 418.55 1295.86 418.55 1298.98 420.35Z" fill="#FFE598" stroke="black" stroke-width="1.10681" stroke-linecap="round" stroke-linejoin="round"/>
<path d="M1240.56 484.176L1240.56 461.543L1161.8 469.223L1161.8 492.043L1194.54 510.93L1240.56 484.176Z" fill="#505050" stroke="black" stroke-width="1.77184" stroke-linecap="round" stroke-linejoin="round"/>
<path d="M1194.4 487.939V510.578" stroke="black" stroke-width="1.77253"/>
<rect width="37.7494" height="53.004" transform="matrix(-0.866025 -0.5 -0.866025 0.5 1240.44 461.45)" fill="#B3B3B3" stroke="black" stroke-width="1.77184" stroke-linecap="round" stroke-linejoin="round"/>
<path d="M946.383 411.312C949.479 413.1 954.499 413.1 957.596 411.312C959.144 410.418 959.918 409.247 959.918 408.075L959.917 314.396L944.061 314.396L944.061 408.075C944.061 409.247 944.835 410.418 946.383 411.312Z" fill="#FAC864" stroke="black" stroke-width="1.10681" stroke-linecap="round" stroke-linejoin="round"/>
<path d="M957.651 311.135C960.77 312.936 960.77 315.855 957.651 317.656C954.532 319.457 949.475 319.457 946.356 317.656C943.237 315.855 943.237 312.936 946.356 311.135C949.475 309.334 954.532 309.334 957.651 311.135Z" fill="#FFE598" stroke="black" stroke-width="1.10681" stroke-linecap="round" stroke-linejoin="round"/>
<path d="M1319.38 438.526L1319.38 415.893L1240.62 423.573L1240.62 446.393L1273.36 465.28L1319.38 438.526Z" fill="#505050" stroke="black" stroke-width="1.77184" stroke-linecap="round" stroke-linejoin="round"/>
<path d="M1273.22 442.289V464.928" stroke="black" stroke-width="1.77253"/>
<rect width="37.7494" height="53.004" transform="matrix(-0.866025 -0.5 -0.866025 0.5 1319.26 415.8)" fill="#B3B3B3" stroke="black" stroke-width="1.77184" stroke-linecap="round" stroke-linejoin="round"/>
<path d="M1398.15 392.875L1398.15 370.242L1319.38 377.922L1319.38 400.742L1352.13 419.63L1398.15 392.875Z" fill="#505050" stroke="black" stroke-width="1.77184" stroke-linecap="round" stroke-linejoin="round"/>
<path d="M1351.98 396.638V419.278" stroke="black" stroke-width="1.77253"/>
<rect width="37.7494" height="53.004" transform="matrix(-0.866025 -0.5 -0.866025 0.5 1398.03 370.149)" fill="#B3B3B3" stroke="black" stroke-width="1.77184" stroke-linecap="round" stroke-linejoin="round"/>
<path d="M1476.91 343.526L1476.91 320.893L1398.14 328.573L1398.14 351.393L1430.89 370.28L1476.91 343.526Z" fill="#505050" stroke="black" stroke-width="1.77184" stroke-linecap="round" stroke-linejoin="round"/>
<path d="M1430.74 347.289V369.928" stroke="black" stroke-width="1.77253"/>
<rect width="37.7494" height="53.004" transform="matrix(-0.866025 -0.5 -0.866025 0.5 1476.79 320.8)" fill="#B3B3B3" stroke="black" stroke-width="1.77184" stroke-linecap="round" stroke-linejoin="round"/>
<path d="M1555.73 297.875L1555.72 275.242L1476.96 282.922L1476.96 305.742L1509.7 324.629L1555.73 297.875Z" fill="#505050" stroke="black" stroke-width="1.77184" stroke-linecap="round" stroke-linejoin="round"/>
<rect width="37.7494" height="53.004" transform="matrix(-0.866025 -0.5 -0.866025 0.5 1555.6 275.149)" fill="#B3B3B3" stroke="black" stroke-width="1.77184" stroke-linecap="round" stroke-linejoin="round"/>
<path d="M1190.62 492.397L1657.1 223.077C1661.44 220.569 1663.56 217.262 1663.45 213.976V184.274L893.995 303.659V333.939C894.112 337.054 896.229 340.148 900.346 342.525L1159.93 492.397C1168.41 497.29 1182.15 497.29 1190.62 492.397Z" fill="#55A398" stroke="black" stroke-width="1.77184" stroke-linecap="round" stroke-linejoin="round"/>
<rect width="335.181" height="574.077" rx="17.7184" transform="matrix(0.866025 0.5 -0.866025 0.5 1382.17 16)" fill="#BDDCD8" stroke="black" stroke-width="1.77184" stroke-linecap="round" stroke-linejoin="round"/>
<rect width="187.345" height="144.319" transform="matrix(0.866025 -0.5 0.866025 0.5 1284.84 155.113)" stroke="black" stroke-width="1.77184" stroke-linecap="round" stroke-linejoin="round"/>
<rect width="187.345" height="144.319" transform="matrix(0.866025 -0.5 0.866025 0.5 1284.84 155.113)" stroke="black" stroke-width="1.77184" stroke-linecap="round" stroke-linejoin="round"/>
<rect width="154.772" height="9.83407" transform="matrix(0.866025 -0.5 0.866025 0.5 1320.25 153.367)" fill="#E5E5E5" stroke="black" stroke-width="1.77184" stroke-linecap="round" stroke-linejoin="round"/>
<rect width="154.772" height="9.83407" transform="matrix(0.866025 -0.5 0.866025 0.5 1354.22 172.785)" fill="#E5E5E5" stroke="black" stroke-width="1.77184" stroke-linecap="round" stroke-linejoin="round"/>
<rect width="154.772" height="9.83407" transform="matrix(0.866025 -0.5 0.866025 0.5 1388.09 192.2)" fill="#E5E5E5" stroke="black" stroke-width="1.77184" stroke-linecap="round" stroke-linejoin="round"/>
<rect width="154.772" height="9.83407" transform="matrix(0.866025 -0.5 0.866025 0.5 1337.12 163.076)" fill="#E5E5E5" stroke="black" stroke-width="1.77184" stroke-linecap="round" stroke-linejoin="round"/>
<rect width="154.772" height="9.83407" transform="matrix(0.866025 -0.5 0.866025 0.5 1371.1 182.491)" fill="#E5E5E5" stroke="black" stroke-width="1.77184" stroke-linecap="round" stroke-linejoin="round"/>
<rect width="154.772" height="9.83407" transform="matrix(0.866025 -0.5 0.866025 0.5 1405.08 201.908)" fill="#E5E5E5" stroke="black" stroke-width="1.77184" stroke-linecap="round" stroke-linejoin="round"/>
<path d="M1441.4 197.042L1561.68 127.6L1561.68 107.879L1337.2 117.299L1337.2 136.88L1441.4 197.042Z" fill="#C4C4C4"/>
<path d="M1441.4 197.042L1561.68 127.6L1561.68 107.879L1337.2 117.299L1337.2 136.88L1441.4 197.042ZM1441.4 197.042L1441.4 177.454" stroke="black" stroke-width="1.77184" stroke-linecap="round" stroke-linejoin="round"/>
<rect width="138.883" height="120.324" transform="matrix(0.866025 -0.5 0.866025 0.5 1337.2 117.223)" fill="#E5E5E5" stroke="black" stroke-width="1.77184" stroke-linecap="round" stroke-linejoin="round"/>
<rect width="64.2646" height="62.9823" transform="matrix(0.866025 -0.5 0.866025 0.5 1151.74 274.508)" fill="#E5E5E5" stroke="black" stroke-width="1.77184" stroke-linecap="round" stroke-linejoin="round"/>
<path d="M1206.84 299.96L1251.88 273.957L1251.88 268.409L1161.8 268.409L1161.8 273.957L1206.84 299.96Z" fill="#464646"/>
<path d="M1206.84 299.96L1251.88 273.957L1251.88 268.409L1161.8 268.409L1161.8 273.957L1206.84 299.96ZM1206.84 299.96L1206.84 294.471" stroke="black" stroke-width="1.77184" stroke-linecap="round" stroke-linejoin="round"/>
<rect width="52.0074" height="52.0074" transform="matrix(0.866025 -0.5 0.866025 0.5 1161.8 268.409)" fill="#464646" stroke="black" stroke-width="1.77184" stroke-linecap="round" stroke-linejoin="round"/>
<rect width="38.5906" height="43.3443" rx="17.7184" transform="matrix(0.866025 0.5 -0.866025 0.5 1528.82 227.92)" fill="#55A398" stroke="black" stroke-width="1.77184" stroke-linecap="round" stroke-linejoin="round"/>
<rect width="38.5906" height="43.7408" rx="17.7184" transform="matrix(0.866025 0.5 -0.866025 0.5 1452.11 272.205)" fill="#55A398" stroke="black" stroke-width="1.77184" stroke-linecap="round" stroke-linejoin="round"/>
<rect width="38.5906" height="43.7455" rx="17.7184" transform="matrix(0.866025 0.5 -0.866025 0.5 1374.07 317.263)" fill="#55A398" stroke="black" stroke-width="1.77184" stroke-linecap="round" stroke-linejoin="round"/>
<rect width="38.5906" height="44.5821" rx="17.7184" transform="matrix(0.866025 0.5 -0.866025 0.5 1295.45 362.656)" fill="#55A398" stroke="black" stroke-width="1.77184" stroke-linecap="round" stroke-linejoin="round"/>
<rect width="38.5906" height="42.3757" rx="17.7184" transform="matrix(0.866025 0.5 -0.866025 0.5 1216.2 408.411)" fill="#55A398" stroke="black" stroke-width="1.77184" stroke-linecap="round" stroke-linejoin="round"/>
<path d="M1206.23 433.218C1211.42 436.219 1219.85 436.219 1225.05 433.218C1228.29 431.348 1229.51 428.754 1228.71 426.338L1219.7 406.748H1211.61L1202.56 426.338C1201.77 428.754 1202.99 431.348 1206.23 433.218Z" fill="#D9D9D9" stroke="black" stroke-width="1.77184" stroke-linecap="round" stroke-linejoin="round"/>
<circle r="3.37975" transform="matrix(0.866025 -0.5 0.866025 0.5 1215.64 406.777)" fill="#D9D9D9" stroke="black" stroke-width="1.77184" stroke-linecap="round" stroke-linejoin="round"/>
<path d="M1283.93 387.684C1289.12 390.684 1297.55 390.684 1302.75 387.684C1305.99 385.814 1307.21 383.219 1306.41 380.803L1297.4 361.214H1289.31L1280.26 380.803C1279.47 383.219 1280.69 385.814 1283.93 387.684Z" fill="#D9D9D9" stroke="black" stroke-width="1.77184" stroke-linecap="round" stroke-linejoin="round"/>
<circle r="3.37975" transform="matrix(0.866025 -0.5 0.866025 0.5 1293.34 361.243)" fill="#D9D9D9" stroke="black" stroke-width="1.77184" stroke-linecap="round" stroke-linejoin="round"/>
<path d="M1361.59 342.148C1366.78 345.148 1375.21 345.148 1380.41 342.148C1383.65 340.278 1384.87 337.683 1384.07 335.268L1375.06 315.678H1366.97L1357.93 335.268C1357.13 337.683 1358.35 340.278 1361.59 342.148Z" fill="#D9D9D9" stroke="black" stroke-width="1.77184" stroke-linecap="round" stroke-linejoin="round"/>
<circle r="3.37975" transform="matrix(0.866025 -0.5 0.866025 0.5 1371 315.707)" fill="#D9D9D9" stroke="black" stroke-width="1.77184" stroke-linecap="round" stroke-linejoin="round"/>
<path d="M1439.37 297.075C1444.57 300.076 1452.99 300.076 1458.19 297.075C1461.43 295.205 1462.65 292.611 1461.85 290.195L1452.84 270.606H1444.75L1435.71 290.195C1434.91 292.611 1436.13 295.205 1439.37 297.075Z" fill="#D9D9D9" stroke="black" stroke-width="1.77184" stroke-linecap="round" stroke-linejoin="round"/>
<circle r="3.37975" transform="matrix(0.866025 -0.5 0.866025 0.5 1448.78 270.634)" fill="#D9D9D9" stroke="black" stroke-width="1.77184" stroke-linecap="round" stroke-linejoin="round"/>
<rect width="38.5906" height="46.1776" rx="17.7184" transform="matrix(0.866025 0.5 -0.866025 0.5 1350.8 33.649)" fill="#55A398" stroke="black" stroke-width="1.77184" stroke-linecap="round" stroke-linejoin="round"/>
<rect width="38.5906" height="43.3443" rx="17.7184" transform="matrix(0.866025 0.5 -0.866025 0.5 1272.34 78.9486)" fill="#55A398" stroke="black" stroke-width="1.77184" stroke-linecap="round" stroke-linejoin="round"/>
<rect width="38.5906" height="43.7408" rx="17.7184" transform="matrix(0.866025 0.5 -0.866025 0.5 1195.64 123.234)" fill="#55A398" stroke="black" stroke-width="1.77184" stroke-linecap="round" stroke-linejoin="round"/>
<rect width="38.5906" height="43.7455" rx="17.7184" transform="matrix(0.866025 0.5 -0.866025 0.5 1117.6 168.29)" fill="#55A398" stroke="black" stroke-width="1.77184" stroke-linecap="round" stroke-linejoin="round"/>
<rect width="38.5906" height="44.5821" rx="17.7184" transform="matrix(0.866025 0.5 -0.866025 0.5 1038.97 213.684)" fill="#55A398" stroke="black" stroke-width="1.77184" stroke-linecap="round" stroke-linejoin="round"/>
<rect width="38.5906" height="42.3757" rx="17.7184" transform="matrix(0.866025 0.5 -0.866025 0.5 959.725 259.438)" fill="#55A398" stroke="black" stroke-width="1.77184" stroke-linecap="round" stroke-linejoin="round"/>
<path d="M949.749 284.245C954.946 287.246 963.373 287.246 968.57 284.245C971.809 282.375 973.029 279.781 972.231 277.365L963.222 257.775H955.132L946.088 277.365C945.289 279.781 946.51 282.375 949.749 284.245Z" fill="#D9D9D9" stroke="black" stroke-width="1.77184" stroke-linecap="round" stroke-linejoin="round"/>
<circle r="3.37975" transform="matrix(0.866025 -0.5 0.866025 0.5 959.16 257.804)" fill="#D9D9D9" stroke="black" stroke-width="1.77184" stroke-linecap="round" stroke-linejoin="round"/>
<path d="M1027.45 238.711C1032.65 241.711 1041.07 241.711 1046.27 238.711C1049.51 236.841 1050.73 234.246 1049.93 231.83L1040.92 212.241H1032.83L1023.79 231.83C1022.99 234.246 1024.21 236.841 1027.45 238.711Z" fill="#D9D9D9" stroke="black" stroke-width="1.77184" stroke-linecap="round" stroke-linejoin="round"/>
<circle r="3.37975" transform="matrix(0.866025 -0.5 0.866025 0.5 1036.86 212.27)" fill="#D9D9D9" stroke="black" stroke-width="1.77184" stroke-linecap="round" stroke-linejoin="round"/>
<path d="M1105.11 193.176C1110.31 196.177 1118.74 196.177 1123.93 193.176C1127.17 191.306 1128.39 188.712 1127.59 186.296L1118.59 166.706H1110.5L1101.45 186.296C1100.65 188.712 1101.87 191.306 1105.11 193.176Z" fill="#D9D9D9" stroke="black" stroke-width="1.77184" stroke-linecap="round" stroke-linejoin="round"/>
<circle r="3.37975" transform="matrix(0.866025 -0.5 0.866025 0.5 1114.52 166.735)" fill="#D9D9D9" stroke="black" stroke-width="1.77184" stroke-linecap="round" stroke-linejoin="round"/>
<path d="M1182.89 148.104C1188.09 151.104 1196.52 151.104 1201.71 148.104C1204.95 146.234 1206.17 143.639 1205.38 141.223L1196.37 121.634H1188.28L1179.23 141.223C1178.43 143.639 1179.65 146.234 1182.89 148.104Z" fill="#D9D9D9" stroke="black" stroke-width="1.77184" stroke-linecap="round" stroke-linejoin="round"/>
<circle r="3.37975" transform="matrix(0.866025 -0.5 0.866025 0.5 1192.31 121.663)" fill="#D9D9D9" stroke="black" stroke-width="1.77184" stroke-linecap="round" stroke-linejoin="round"/>
<path d="M1260.56 103.032C1265.76 106.032 1274.18 106.032 1279.38 103.032C1282.62 101.162 1283.84 98.5671 1283.04 96.1513L1274.03 76.5619H1265.94L1256.9 96.1513C1256.1 98.5671 1257.32 101.162 1260.56 103.032Z" fill="#D9D9D9" stroke="black" stroke-width="1.77184" stroke-linecap="round" stroke-linejoin="round"/>
<circle r="3.37975" transform="matrix(0.866025 -0.5 0.866025 0.5 1269.97 76.5906)" fill="#D9D9D9" stroke="black" stroke-width="1.77184" stroke-linecap="round" stroke-linejoin="round"/>
<path d="M1338.22 59.3439C1343.42 62.3445 1351.85 62.3445 1357.04 59.3439C1360.28 57.4737 1361.5 54.8794 1360.7 52.4635L1351.69 32.8741H1343.6L1334.56 52.4635C1333.76 54.8794 1334.98 57.4737 1338.22 59.3439Z" fill="#D9D9D9" stroke="black" stroke-width="1.77184" stroke-linecap="round" stroke-linejoin="round"/>
<circle r="3.37975" transform="matrix(0.866025 -0.5 0.866025 0.5 1347.63 32.9028)" fill="#D9D9D9" stroke="black" stroke-width="1.77184" stroke-linecap="round" stroke-linejoin="round"/>
<path d="M1030.95 303.796L1030.95 289.388L980.813 294.277L980.812 308.804L1001.66 320.828L1030.95 303.796Z" fill="#C4C4C4" stroke="black" stroke-width="1.77184" stroke-linecap="round" stroke-linejoin="round"/>
<path d="M1001.56 306.19V320.602" stroke="black" stroke-width="1.77253"/>
<rect width="24.0312" height="33.7423" transform="matrix(-0.866025 -0.5 -0.866025 0.5 1030.88 289.326)" fill="#D9D9D9" stroke="black" stroke-width="1.77184" stroke-linecap="round" stroke-linejoin="round"/>
<path d="M1000.56 294.709C1002.02 295.556 1003.95 295.981 1005.87 295.982C1007.8 295.984 1009.74 295.56 1011.21 294.709C1012.68 293.859 1013.42 292.746 1013.42 291.633L1013.41 287.17L998.348 287.17L998.351 291.633C998.351 292.746 999.086 293.859 1000.56 294.709Z" fill="black" stroke="black" stroke-width="1.10681" stroke-linecap="round" stroke-linejoin="round"/>
<path d="M1011.26 284.071C1014.22 285.782 1014.22 288.556 1011.26 290.267C1008.3 291.979 1003.49 291.979 1000.53 290.267C997.564 288.556 997.564 285.782 1000.53 284.071C1003.49 282.36 1008.3 282.36 1011.26 284.071Z" fill="#505050" stroke="black" stroke-width="1.10681" stroke-linecap="round" stroke-linejoin="round"/>
<path d="M1186.86 394.748L1186.86 380.34L1136.72 385.229L1136.72 399.756L1157.56 411.779L1186.86 394.748Z" fill="#C4C4C4" stroke="black" stroke-width="1.77184" stroke-linecap="round" stroke-linejoin="round"/>
<path d="M1157.47 397.141V411.554" stroke="black" stroke-width="1.77253"/>
<rect width="24.0312" height="33.7423" transform="matrix(-0.866025 -0.5 -0.866025 0.5 1186.78 380.277)" fill="#D9D9D9" stroke="black" stroke-width="1.77184" stroke-linecap="round" stroke-linejoin="round"/>
<path d="M1156.46 385.662C1157.93 386.51 1159.85 386.934 1161.78 386.936C1163.71 386.938 1165.64 386.514 1167.12 385.662C1168.59 384.813 1169.32 383.7 1169.32 382.587L1169.32 378.123L1154.25 378.123L1154.26 382.587C1154.26 383.7 1154.99 384.813 1156.46 385.662Z" fill="black" stroke="black" stroke-width="1.10681" stroke-linecap="round" stroke-linejoin="round"/>
<path d="M1167.17 375.025C1170.13 376.736 1170.13 379.51 1167.17 381.221C1164.2 382.932 1159.4 382.932 1156.43 381.221C1153.47 379.51 1153.47 376.736 1156.43 375.025C1159.4 373.313 1164.2 373.313 1167.17 375.025Z" fill="#505050" stroke="black" stroke-width="1.10681" stroke-linecap="round" stroke-linejoin="round"/>
<path d="M1064.93 405.978L1177.31 341.098L1177.31 312.113L994.286 336.152L994.286 365.191L1064.93 405.978Z" fill="#C4C4C4"/>
<path d="M1064.93 405.978L1177.31 341.098L1177.31 312.113L994.286 336.152L994.286 365.191L1064.93 405.978ZM1064.93 405.978L1064.93 376.487" stroke="black" stroke-width="1.77184" stroke-linecap="round" stroke-linejoin="round"/>
<path d="M994.286 365.232L1064.93 406.019L1064.93 376.874L994.286 336.193L994.286 365.232Z" fill="#505050" stroke="black" stroke-width="1.77184" stroke-linecap="round" stroke-linejoin="round"/>
<path d="M1000.23 362.633L1064.87 399.948L1064.87 373.284L1000.23 339.032L1000.23 362.633Z" fill="black" stroke="black" stroke-width="1.77184" stroke-linecap="round" stroke-linejoin="round"/>
<rect width="81.5739" height="129.761" transform="matrix(0.866025 0.5 -0.866025 0.5 1106.66 271.299)" fill="#E5E5E5" stroke="black" stroke-width="1.77184" stroke-linecap="round" stroke-linejoin="round"/>
<rect width="6.82494" height="27.0826" rx="3.41247" transform="matrix(-0.866025 -0.5 -0.866025 0.5 1059.06 323.945)" fill="#505050" stroke="black" stroke-width="1.77184" stroke-linecap="round" stroke-linejoin="round"/>
<rect width="6.82494" height="27.0826" rx="3.41247" transform="matrix(-0.866025 -0.5 -0.866025 0.5 1089.91 341.472)" fill="#505050" stroke="black" stroke-width="1.77184" stroke-linecap="round" stroke-linejoin="round"/>
<rect width="13.0125" height="91.633" transform="matrix(0.866025 -0.5 0.866025 0.5 1267.8 190.83)" fill="#E5E5E5" stroke="black" stroke-width="1.77184" stroke-linecap="round" stroke-linejoin="round"/>
<rect width="14.7908" height="91.633" transform="matrix(0.866025 -0.5 0.866025 0.5 1243.45 204.887)" fill="#E5E5E5" stroke="black" stroke-width="1.77184" stroke-linecap="round" stroke-linejoin="round"/>
<rect width="15.0036" height="91.633" transform="matrix(0.866025 -0.5 0.866025 0.5 1217.53 219.85)" fill="#E5E5E5" stroke="black" stroke-width="1.77184" stroke-linecap="round" stroke-linejoin="round"/>
<rect width="87.1347" height="107.954" transform="matrix(0.866025 -0.5 0.866025 0.5 1203.75 220.232)" stroke="black" stroke-width="1.77184" stroke-linecap="round" stroke-linejoin="round"/>
<rect width="181.163" height="199.984" transform="matrix(0.866025 -0.5 0.866025 0.5 1082.47 244.238)" stroke="black" stroke-width="1.77184" stroke-linecap="round" stroke-linejoin="round"/>
<circle r="5.45848" transform="matrix(0.866025 0.5 -0.866025 0.5 1440.76 161.302)" fill="#7C7C7C" stroke="black" stroke-width="1.77184" stroke-linecap="round" stroke-linejoin="round"/>
<path d="M1277.86 254.464L1338.91 219.22L1338.91 202.996L1236.95 214.669L1236.95 230.844L1277.86 254.464Z" fill="#464646"/>
<path d="M1277.86 254.464L1338.91 219.22L1338.91 202.996L1236.95 214.669L1236.95 230.844L1277.86 254.464ZM1277.86 254.464L1277.86 238.535" stroke="black" stroke-width="1.77184" stroke-linecap="round" stroke-linejoin="round"/>
<rect width="70.4891" height="47.24" transform="matrix(0.866025 -0.5 0.866025 0.5 1236.95 214.655)" fill="#464646" stroke="black" stroke-width="1.77184" stroke-linecap="round" stroke-linejoin="round"/>
</g>
<rect x="846.658" y="2.81769" width="651.342" height="651.342" rx="325.671" stroke="black" stroke-width="4"/>
<path d="M643.905 513.509L569.106 556.694L569.106 672.754L585.301 683.551L659.525 524.305L643.905 513.509Z" fill="#C4C4C4"/>
<path d="M569.106 556.694L643.905 513.509L659.525 524.305L585.301 683.551L569.106 672.754L569.106 556.694ZM569.106 556.694L585.301 567.49" stroke="black" stroke-width="4" stroke-linecap="round" stroke-linejoin="round"/>
<rect width="86.3704" height="116.06" transform="matrix(0.866025 -0.5 2.20305e-08 1 585.303 567.49)" fill="#C4C4C4" stroke="black" stroke-width="4" stroke-linecap="round" stroke-linejoin="round"/>
<rect width="63.2275" height="84.962" transform="matrix(0.866025 -0.5 2.20305e-08 1 595.322 577.252)" fill="black" stroke="#C4C4C4" stroke-width="4" stroke-linecap="round" stroke-linejoin="round"/>
<path d="M517.159 767.963C517.159 756.953 524.889 743.564 534.425 738.059C543.96 732.554 551.69 737.016 551.69 748.027L551.69 781.67L517.159 801.606L517.159 767.963Z" fill="#C4C4C4" stroke="black" stroke-width="4" stroke-linecap="round" stroke-linejoin="round"/>
<circle r="11.2931" transform="matrix(0.866025 -0.5 2.20305e-08 1 535.974 760.842)" fill="#7C7C7C" stroke="black" stroke-width="4" stroke-linecap="round" stroke-linejoin="round"/>
<path d="M670.747 679.877C670.747 668.867 678.477 655.478 688.012 649.973C697.547 644.467 705.277 648.93 705.277 659.941L705.277 693.583L670.747 713.52L670.747 679.877Z" fill="#C4C4C4" stroke="black" stroke-width="4" stroke-linecap="round" stroke-linejoin="round"/>
<circle r="11.2931" transform="matrix(0.866025 -0.5 2.20305e-08 1 689.561 672.756)" fill="#7C7C7C" stroke="black" stroke-width="4" stroke-linecap="round" stroke-linejoin="round"/>
<path d="M605.245 619.341L613.585 614.379L613.585 626.882L605.245 631.844L605.245 619.341Z" fill="#53978E"/>
<path d="M618.717 598.657L627.057 593.695V619.229L618.717 624.19V598.657Z" fill="#53978E"/>
<rect width="9.70423" height="38.8169" transform="matrix(0.859406 -0.511293 0 1 632.188 577.204)" fill="#53978E"/>
<rect x="605.245" y="323.802" width="18.0689" height="221.345" rx="9.03447" fill="#C4C4C4" stroke="black" stroke-width="4" stroke-linecap="round" stroke-linejoin="round"/>
<rect x="605.245" y="251.524" width="18.0689" height="221.345" rx="9.03447" fill="#E0E0E0" stroke="black" stroke-width="4" stroke-linecap="round" stroke-linejoin="round"/>
<circle cx="614.279" cy="251.527" r="18.0689" fill="#FF8484" stroke="black" stroke-width="4" stroke-linecap="round" stroke-linejoin="round"/>
<path d="M860.469 425.439L668.486 580.154L944.038 563.215" stroke="black" stroke-width="4" stroke-dasharray="22.59 22.59"/>
<defs>
<clipPath id="clip0">
</clipPath>
</defs>
</svg>
