<svg width="517" height="651" viewBox="0 0 517 651" fill="none" xmlns="http://www.w3.org/2000/svg">
<style>
@keyframes float {
  0% { transform: translateY(0); }
  100% { transform: translateY(10px); }
}
@keyframes grow {
  0% { transform: scale(1); }
  100% { transform: scale(1.05); }
}
@keyframes key-rotate {
  0% { transform: rotate(-15deg) translate(15px, 5px); }
  100% { transform: rotate(-25deg) translate(15px, 5px); }
}
@keyframes key-tag-rotate {
  0% { transform: rotate(0deg); }
  100% { transform: rotate(3deg); }
}

#hand-with-keys {
  animation: 1s ease-in-out 0ms infinite alternate float;
}
#shadow {
  animation: 1s ease-in-out 0ms infinite alternate grow;
  transform-origin: 201px 547px;
}
#key {
  animation: 1s ease-in-out 500ms infinite alternate key-rotate;
  transform-origin: 190px 344px;
}
#key-tag {
  animation: 1s ease-in-out 500ms infinite alternate key-tag-rotate;
  transform-origin: 186px 343px;
}
</style>

<g id="keep-your-keys">
<rect id="backdrop" x="21.502" y="0.0450439" width="473.184" height="650.628" rx="17.7444" fill="#FF9999"/>
<g id="illustration">
<g id="hand-with-keys">
<g id="key-tag">
<g id="Subtract">
<path fill-rule="evenodd" clip-rule="evenodd" d="M175.852 379.278C176.011 382.128 177.215 384.82 179.235 386.839L239.136 446.725C243.67 451.258 251.022 451.258 255.557 446.725L293.659 408.632C298.194 404.099 298.194 396.749 293.659 392.216L233.758 332.33C231.739 330.311 229.046 329.107 226.195 328.948L185.839 326.695C178.925 326.309 173.213 332.02 173.599 338.932L175.852 379.278ZM198.378 351.468C202.911 346.936 203.829 340.507 200.429 337.108C197.03 333.709 190.599 334.627 186.066 339.159C181.533 343.691 180.614 350.12 184.014 353.519C187.414 356.918 193.844 356 198.378 351.468Z" fill="#B0B8ED"/>
<path d="M179.235 386.839L179.486 386.588L179.235 386.839ZM175.852 379.278L175.498 379.297L175.498 379.297L175.852 379.278ZM239.136 446.725L238.885 446.976L239.136 446.725ZM255.557 446.725L255.808 446.976L255.557 446.725ZM293.659 408.632L293.408 408.381L293.659 408.632ZM293.659 392.216L293.408 392.467L293.408 392.467L293.659 392.216ZM233.758 332.33L234.009 332.079L234.009 332.079L233.758 332.33ZM226.195 328.948L226.175 329.302L226.175 329.302L226.195 328.948ZM185.839 326.695L185.859 326.341L185.859 326.341L185.839 326.695ZM173.599 338.932L173.244 338.952L173.244 338.952L173.599 338.932ZM179.486 386.588C177.528 384.631 176.361 382.021 176.206 379.258L175.498 379.297C175.662 382.235 176.903 385.009 178.984 387.09L179.486 386.588ZM239.387 446.474L179.486 386.588L178.984 387.09L238.885 446.976L239.387 446.474ZM255.306 446.474C250.91 450.869 243.783 450.869 239.387 446.474L238.885 446.976C243.558 451.648 251.135 451.648 255.808 446.976L255.306 446.474ZM293.408 408.381L255.306 446.474L255.808 446.976L293.91 408.883L293.408 408.381ZM293.408 392.467C297.804 396.861 297.804 403.987 293.408 408.381L293.91 408.883C298.583 404.211 298.583 396.637 293.91 391.965L293.408 392.467ZM233.507 332.58L293.408 392.467L293.91 391.965L234.009 332.079L233.507 332.58ZM226.175 329.302C228.939 329.456 231.549 330.623 233.507 332.58L234.009 332.079C231.928 329.998 229.153 328.757 226.215 328.593L226.175 329.302ZM185.819 327.049L226.175 329.302L226.215 328.593L185.859 326.341L185.819 327.049ZM173.953 338.912C173.579 332.212 179.117 326.675 185.819 327.049L185.859 326.341C178.734 325.943 172.846 331.829 173.244 338.952L173.953 338.912ZM176.206 379.258L173.953 338.912L173.244 338.952L175.498 379.297L176.206 379.258ZM200.178 337.359C201.782 338.962 202.386 341.297 202.027 343.813C201.667 346.328 200.344 349 198.127 351.217L198.628 351.719C200.944 349.404 202.346 346.595 202.73 343.913C203.113 341.231 202.477 338.653 200.68 336.857L200.178 337.359ZM186.317 339.41C188.534 337.193 191.207 335.87 193.723 335.511C196.239 335.152 198.575 335.756 200.178 337.359L200.68 336.857C198.884 335.061 196.305 334.425 193.622 334.808C190.94 335.191 188.13 336.593 185.815 338.908L186.317 339.41ZM184.265 353.268C182.662 351.666 182.057 349.33 182.416 346.814C182.776 344.299 184.099 341.627 186.317 339.41L185.815 338.908C183.499 341.223 182.097 344.032 181.714 346.714C181.33 349.396 181.966 351.974 183.763 353.77L184.265 353.268ZM198.127 351.217C195.909 353.434 193.237 354.757 190.721 355.116C188.204 355.476 185.868 354.871 184.265 353.268L183.763 353.77C185.559 355.566 188.138 356.202 190.821 355.819C193.503 355.436 196.313 354.034 198.628 351.719L198.127 351.217Z" fill="black"/>
</g>
<rect id="Rectangle 1014" width="59.6884" height="88.7037" rx="4.14636" transform="matrix(0.707197 -0.707017 0.707197 0.707017 183.87 378.878)" fill="white" stroke="black" stroke-width="0.709776" stroke-linecap="round" stroke-linejoin="round"/>
<g id="Vector 73">
<path d="M237.288 406.972L228.563 410.783L221.381 403.603L223.35 394.206L232.096 390.415L239.209 397.526L237.288 406.972Z" fill="#B0B8ED"/>
<path d="M237.288 406.972L228.563 410.783L221.381 403.603L223.35 394.206L232.096 390.415L239.209 397.526L237.288 406.972ZM237.288 406.972L230.181 399.866" stroke="black" stroke-width="0.709776" stroke-linecap="round" stroke-linejoin="round"/>
</g>
<path id="Vector 75" d="M239.209 397.526L237.287 406.971L230.18 399.865L232.096 390.414L239.209 397.526Z" fill="#B0B8ED" stroke="black" stroke-width="0.709776" stroke-linecap="round" stroke-linejoin="round"/>
<path id="Vector 74" d="M230.181 399.866L221.456 403.678L223.35 394.206L232.102 390.421L230.181 399.866Z" fill="#B0B8ED" stroke="black" stroke-width="0.709776" stroke-linecap="round" stroke-linejoin="round"/>
<g id="Vector 73_2">
<path d="M249.343 402.263L240.618 406.075L227.734 393.194L229.703 383.796L238.449 380.005L251.264 392.818L249.343 402.263Z" fill="#B0B8ED"/>
<path d="M249.343 402.263L240.618 406.075L227.734 393.194L229.703 383.796L238.449 380.005L251.264 392.818L249.343 402.263ZM249.343 402.263L236.533 389.456" stroke="black" stroke-width="0.709776" stroke-linecap="round" stroke-linejoin="round"/>
</g>
<path id="Vector 75_2" d="M251.265 392.817L249.344 402.262L236.534 389.455L238.449 380.004L251.265 392.817Z" fill="#B0B8ED" stroke="black" stroke-width="0.709776" stroke-linecap="round" stroke-linejoin="round"/>
<path id="Vector 74_2" d="M236.491 389.414L227.766 393.226L229.661 383.754L238.412 379.969L236.491 389.414Z" fill="#B0B8ED" stroke="black" stroke-width="0.709776" stroke-linecap="round" stroke-linejoin="round"/>
<g id="Vector 73_3">
<path d="M261.425 396.296L252.7 400.108L232.175 379.588L234.144 370.191L242.89 366.4L263.346 386.851L261.425 396.296Z" fill="#B0B8ED"/>
<path d="M261.425 396.296L252.7 400.108L232.175 379.588L234.144 370.191L242.89 366.4L263.346 386.851L261.425 396.296ZM261.425 396.296L240.975 375.851" stroke="black" stroke-width="0.709776" stroke-linecap="round" stroke-linejoin="round"/>
</g>
<path id="Vector 75_3" d="M263.348 386.851L261.427 396.297L240.976 375.851L242.891 366.4L263.348 386.851Z" fill="#B0B8ED" stroke="black" stroke-width="0.709776" stroke-linecap="round" stroke-linejoin="round"/>
<path id="Vector 74_3" d="M240.968 375.844L232.243 379.656L234.137 370.184L242.889 366.399L240.968 375.844Z" fill="#B0B8ED" stroke="black" stroke-width="0.709776" stroke-linecap="round" stroke-linejoin="round"/>
</g>
<g id="key">
<g id="Union">
<path fill-rule="evenodd" clip-rule="evenodd" d="M171.724 388.756C185.257 390.637 199.212 384.412 206.569 371.902C216.326 355.312 210.786 333.95 194.196 324.189C177.605 314.428 156.247 319.964 146.49 336.554C139.216 348.922 140.443 363.942 148.413 374.83L141.224 387.048L142.951 393.705L139.252 399.991L140.978 406.647L138.717 410.489L132.059 412.215L129.388 416.755L131.114 423.411L128.854 427.253L122.196 428.979L118.291 435.615L121.6 448.373L124.744 450.222L132.511 448.208L159.637 402.107L164.63 400.813L171.724 388.756ZM169.622 335.585C171.551 332.306 175.774 331.211 179.053 333.14L193.727 341.769C197.007 343.698 198.101 347.92 196.172 351.199C194.242 354.478 190.02 355.572 186.74 353.644L172.067 345.014C168.787 343.086 167.693 338.864 169.622 335.585Z" fill="#FFE598"/>
<path d="M171.724 388.756L171.773 388.405C171.631 388.385 171.491 388.452 171.418 388.576L171.724 388.756ZM148.413 374.83L148.719 375.01C148.791 374.888 148.783 374.735 148.7 374.621L148.413 374.83ZM141.224 387.048L140.919 386.868C140.871 386.949 140.857 387.046 140.881 387.137L141.224 387.048ZM142.951 393.705L143.256 393.885C143.304 393.803 143.318 393.707 143.294 393.616L142.951 393.705ZM139.252 399.991L138.946 399.811C138.898 399.892 138.885 399.989 138.908 400.08L139.252 399.991ZM140.978 406.647L141.284 406.827C141.331 406.746 141.345 406.649 141.321 406.558L140.978 406.647ZM138.717 410.489L138.806 410.833C138.898 410.809 138.975 410.75 139.023 410.669L138.717 410.489ZM132.059 412.215L131.97 411.871C131.879 411.895 131.801 411.954 131.754 412.035L132.059 412.215ZM129.388 416.755L129.082 416.575C129.034 416.656 129.021 416.753 129.044 416.844L129.388 416.755ZM131.114 423.411L131.42 423.591C131.468 423.51 131.481 423.414 131.458 423.322L131.114 423.411ZM128.854 427.253L128.943 427.597C129.034 427.573 129.112 427.514 129.159 427.433L128.854 427.253ZM122.196 428.979L122.107 428.635C122.015 428.659 121.937 428.718 121.89 428.799L122.196 428.979ZM118.291 435.615L117.985 435.435C117.938 435.516 117.924 435.613 117.948 435.704L118.291 435.615ZM121.6 448.373L121.256 448.462C121.28 448.553 121.339 448.631 121.42 448.679L121.6 448.373ZM124.744 450.222L124.564 450.528C124.645 450.575 124.742 450.589 124.833 450.565L124.744 450.222ZM132.511 448.208L132.6 448.552C132.692 448.528 132.769 448.469 132.817 448.388L132.511 448.208ZM159.637 402.107L159.548 401.764C159.457 401.787 159.379 401.846 159.331 401.927L159.637 402.107ZM164.63 400.813L164.719 401.156C164.81 401.133 164.888 401.074 164.936 400.993L164.63 400.813ZM179.053 333.14L179.233 332.834L179.233 332.834L179.053 333.14ZM169.622 335.585L169.928 335.765L169.928 335.765L169.622 335.585ZM193.727 341.769L193.547 342.075L193.547 342.075L193.727 341.769ZM196.172 351.199L196.478 351.379L196.172 351.199ZM186.74 353.644L186.92 353.338L186.92 353.338L186.74 353.644ZM172.067 345.014L172.246 344.708L172.246 344.708L172.067 345.014ZM171.676 389.108C185.345 391.007 199.442 384.72 206.875 372.082L206.263 371.722C198.981 384.104 185.169 390.266 171.773 388.405L171.676 389.108ZM206.875 372.082C216.731 355.323 211.135 333.743 194.376 323.883L194.016 324.495C210.438 334.157 215.921 355.301 206.263 371.722L206.875 372.082ZM194.376 323.883C177.617 314.023 156.04 319.615 146.184 336.374L146.795 336.734C156.453 320.313 177.594 314.833 194.016 324.495L194.376 323.883ZM146.184 336.374C138.835 348.869 140.076 364.042 148.127 375.04L148.7 374.621C140.81 363.843 139.596 348.976 146.795 336.734L146.184 336.374ZM141.53 387.228L148.719 375.01L148.107 374.65L140.919 386.868L141.53 387.228ZM143.294 393.616L141.568 386.959L140.881 387.137L142.607 393.794L143.294 393.616ZM139.558 400.171L143.256 393.885L142.645 393.525L138.946 399.811L139.558 400.171ZM141.321 406.558L139.595 399.902L138.908 400.08L140.634 406.737L141.321 406.558ZM139.023 410.669L141.284 406.827L140.672 406.467L138.412 410.309L139.023 410.669ZM132.148 412.558L138.806 410.833L138.628 410.146L131.97 411.871L132.148 412.558ZM129.694 416.935L132.365 412.395L131.754 412.035L129.082 416.575L129.694 416.935ZM131.458 423.322L129.731 416.666L129.044 416.844L130.771 423.501L131.458 423.322ZM129.159 427.433L131.42 423.591L130.808 423.231L128.548 427.073L129.159 427.433ZM122.285 429.322L128.943 427.597L128.765 426.91L122.107 428.635L122.285 429.322ZM118.597 435.795L122.501 429.159L121.89 428.799L117.985 435.435L118.597 435.795ZM121.943 448.284L118.635 435.526L117.948 435.704L121.256 448.462L121.943 448.284ZM124.924 449.916L121.779 448.067L121.42 448.679L124.564 450.528L124.924 449.916ZM132.422 447.865L124.655 449.878L124.833 450.565L132.6 448.552L132.422 447.865ZM159.331 401.927L132.206 448.028L132.817 448.388L159.943 402.287L159.331 401.927ZM164.541 400.469L159.548 401.764L159.726 402.451L164.719 401.156L164.541 400.469ZM171.418 388.576L164.324 400.633L164.936 400.993L172.03 388.936L171.418 388.576ZM179.233 332.834C175.785 330.806 171.345 331.957 169.316 335.405L169.928 335.765C171.758 332.655 175.763 331.617 178.874 333.446L179.233 332.834ZM193.907 341.463L179.233 332.834L178.874 333.446L193.547 342.075L193.907 341.463ZM196.478 351.379C198.506 347.931 197.356 343.491 193.907 341.463L193.547 342.075C196.658 343.905 197.696 347.909 195.866 351.019L196.478 351.379ZM186.561 353.95C190.009 355.978 194.449 354.827 196.478 351.379L195.866 351.019C194.036 354.129 190.031 355.167 186.92 353.338L186.561 353.95ZM171.887 345.32L186.561 353.95L186.92 353.338L172.246 344.708L171.887 345.32ZM169.316 335.405C167.287 338.853 168.438 343.292 171.887 345.32L172.246 344.708C169.136 342.879 168.098 338.875 169.928 335.765L169.316 335.405Z" fill="black"/>
</g>
<path id="Vector 283" d="M124.855 446.718L159.736 380.901" stroke="black" stroke-width="0.709776" stroke-linecap="round" stroke-linejoin="round"/>
</g>
<g id="hand">
<g id="Group 1140">
<path id="Vector 267" d="M67.6517 231.156C67.8176 223.53 76.1501 200.348 80.2957 189.711L102.682 179.764V210.848C102.682 211.842 100.885 235.162 99.987 246.698C102.06 259.338 104.962 287.77 99.987 300.369C93.7687 316.118 74.9065 318.812 74.9065 316.947C69.5172 301.819 67.4445 240.688 67.6517 231.156Z" fill="#956D65" stroke="black" stroke-width="0.709776" stroke-linecap="round"/>
<path id="Vector 268" d="M114.082 238.201C125.69 273.637 109.315 287.106 107.864 288.557C91.4477 271.647 89.9691 233.297 91.2819 216.235L107.864 186.602C114.428 182.251 127.721 173.506 128.385 173.34C129.048 173.174 136.261 180.316 139.785 183.908C138.196 188.951 134.437 201.232 132.116 210.019C129.794 218.805 119.126 232.468 114.082 238.201Z" fill="#644842" stroke="black" stroke-width="0.709776" stroke-linecap="round"/>
<path id="Vector" d="M239.278 244.418C235.961 247.236 233.253 254.641 233.667 256.023C224.05 256.023 211.224 270.229 206.014 277.333C191.211 297.231 193.503 318.477 198.031 330.225C198.818 332.269 201.269 332.934 203.083 331.704C217.39 322.006 241.136 303.013 251.079 298.884C264.552 293.289 283.635 265.348 295.45 256.023C307.265 246.698 324.054 228.876 352.244 209.604C367.361 197.965 372.422 197.011 378.969 191.127C390.162 186.775 391.53 194.063 398.453 186.153C412.963 169.575 418.352 178.693 428.301 172.684C438.251 166.674 429.13 125.885 428.301 118.011C427.472 110.136 423.769 65.3757 366.546 77.1875C314.955 80.605 213.754 87.9632 204.662 87.9632C191.604 87.9632 178.338 90.4499 172.119 94.5944C165.901 98.7389 145.795 125.471 130.042 135.418C114.289 145.365 85.2701 173.547 81.1245 178.521C76.979 183.494 79.6736 200.694 78.6372 222.452C77.6008 244.211 78.2226 268.042 80.5027 284.827C82.3267 298.255 91.3502 317.5 95.634 325.443C118.849 314.502 113.874 275.157 108.485 256.852C116.279 246.242 118.227 222.038 118.227 211.262L121.323 207.532L174.386 166.709H204.662L214.197 175.205C216.85 178.521 233.266 179.488 241.143 179.557C241.143 187.224 258.762 210.226 259.383 213.956C260.005 217.686 257.103 222.66 256.274 225.353C255.445 228.047 243.423 240.895 239.278 244.418Z" fill="#BA8A80" stroke="black" stroke-width="0.709776" stroke-linecap="round"/>
<path id="Vector 366" d="M118.002 182.17C129.356 177.44 147.57 158.719 155.258 150.245L144.022 166.799C142.248 169.36 131.485 184.062 128.646 186.9C125.808 189.738 120.761 199.512 118.593 204.045L118.002 210.548L117.41 220.599C116.819 212.322 103.809 188.082 118.002 182.17Z" fill="#956D65"/>
<path id="Vector_2" d="M343.828 216.053C315.638 235.325 305.354 248.521 293.539 257.846C299.999 245.052 308.778 222.082 318.24 214.041C330.067 203.99 338.346 179.751 339.529 169.109C340.712 158.467 340.712 118.856 347.808 109.396C354.905 99.9366 363.721 90.9846 358.13 83.6363C415.353 71.8245 419.056 116.585 419.885 124.46C420.714 132.334 429.835 173.123 419.885 179.133C409.936 185.142 404.547 176.024 390.037 192.602C383.115 200.512 381.746 193.224 370.553 197.576C364.006 203.46 358.946 204.414 343.828 216.053Z" fill="#956D65"/>
<path id="Vector_3" d="M295.45 256.023C307.265 246.698 324.055 228.876 352.244 209.604C367.362 197.965 372.422 197.011 378.969 191.127C390.162 186.775 391.531 194.063 398.453 186.154C412.963 169.576 418.352 178.693 428.301 172.684C438.251 166.674 429.131 125.885 428.301 118.011" stroke="black" stroke-width="0.709776" stroke-linecap="round"/>
<path id="Vector_4" d="M241.735 179.557C241.735 187.224 259.354 210.226 259.975 213.956C263.085 210.269 261.015 183.944 260.423 181.579C259.832 179.214 251.553 170.937 238.543 169.755C228.135 168.809 218.042 163.448 214.297 160.886C214.77 164.197 214.822 171.812 214.789 175.205C217.442 178.521 233.858 179.488 241.735 179.557Z" fill="#956D65"/>
<path id="Vector 269" d="M260.006 215.199C260.904 210.502 262.162 197.171 260.006 181.422" stroke="black" stroke-width="0.709776" stroke-linecap="round"/>
<path id="Vector_5" d="M212.124 150.96C213.451 157.093 214.335 169.541 214.404 174.998C209.927 180.966 196.509 184.116 190.36 184.945C187.527 191.438 178.835 206.33 166.73 213.956C165.97 216.788 165.155 224.234 167.974 231.363C171.498 240.274 173.778 251.671 170.254 260.167C179.294 267.259 191.989 280.644 197.047 295.154C193.619 303.774 194.606 316.153 195.528 321.264C179.084 314.564 145.505 294.815 135.224 265.97C128.868 249.461 116.569 214.619 118.227 207.325C120.3 198.207 130.25 185.359 132.737 182.872C135.224 180.386 152.014 157.384 158.025 146.401L212.124 150.96Z" fill="#BA8A80"/>
<path id="Vector 273" d="M85.4629 292.253C88.9175 291.009 96.9046 292.253 101.216 307.173" stroke="black" stroke-width="0.709776" stroke-linecap="round"/>
<path id="Vector 274" d="M72.1982 286.243C74.1328 286.312 78.4166 287.404 80.0748 291.217" stroke="black" stroke-width="0.709776" stroke-linecap="round"/>
<path id="Vector 275" d="M171.069 303.65C174.179 303.098 182.76 303.609 192.212 310.074" stroke="black" stroke-width="0.709776" stroke-linecap="round"/>
<path id="Vector_6" d="M212.124 150.96C213.451 157.093 214.335 169.541 214.404 174.998C209.927 180.966 196.509 184.116 190.36 184.945C187.527 191.438 178.835 206.33 166.73 213.956C165.97 216.788 165.155 224.234 167.974 231.363C171.498 240.274 173.778 251.671 170.254 260.167C179.294 267.259 191.989 280.644 197.047 295.154C193.619 303.774 194.606 316.153 195.528 321.264C179.084 314.564 145.505 294.815 135.224 265.97C128.868 249.461 116.569 214.619 118.227 207.325C120.3 198.207 130.25 185.359 132.737 182.872C135.224 180.386 152.014 157.384 158.025 146.401" stroke="black" stroke-width="0.709776" stroke-linecap="round"/>
<path id="Vector 365" d="M179.998 172.711C175.74 183.589 167.974 205.819 166.988 213.505C178.343 206.883 187.489 191.433 190.643 184.535C193.008 185.008 199.513 183.156 202.47 182.17C209.094 180.278 213.115 176.652 214.298 175.076L213.706 162.069L213.115 160.295C211.222 167.39 191.826 170.149 179.998 172.711Z" fill="#956D65"/>
<path id="Vector_7" d="M212.124 150.96C213.451 157.093 214.335 169.541 214.404 174.998C209.927 180.966 196.509 184.116 190.36 184.945C187.527 191.438 178.835 206.33 166.73 213.956C165.97 216.788 165.155 224.234 167.974 231.363C171.498 240.274 173.778 251.671 170.254 260.167C179.294 267.259 191.989 280.644 197.047 295.154C193.619 303.774 194.606 316.153 195.528 321.264C179.084 314.564 145.505 294.815 135.224 265.97C128.868 249.461 116.569 214.619 118.227 207.325C120.3 198.207 130.25 185.359 132.737 182.872C135.224 180.386 152.014 157.384 158.025 146.401" stroke="black" stroke-width="0.709776" stroke-linecap="round"/>
</g>
<path id="Vector 276" d="M361.766 217.859L349.536 68.6567L509.347 73.8374L515.98 246.456L361.766 217.859Z" fill="#D6DBFF"/>
<path id="Vector 279" d="M515.98 246.456L361.766 217.859L349.536 68.6567L509.347 73.8374" stroke="black" stroke-width="0.709776"/>
<rect id="Rectangle 1008" width="10.7784" height="69.8703" rx="5.3892" transform="matrix(0.988967 0.148134 -0.148208 0.988956 193.771 279.197)" fill="#E6EAEB" stroke="black" stroke-width="0.709776" stroke-linecap="round" stroke-linejoin="round"/>
<g id="Group 1144">
<g id="Group 1143">
<path id="Vector_8" d="M239.572 244.176C236.256 246.995 233.547 254.4 233.962 255.781C224.344 255.781 211.519 269.988 206.309 277.091C191.506 296.989 193.797 318.235 198.325 329.983C199.113 332.027 201.564 332.692 203.377 331.463C217.685 321.764 241.431 302.771 251.373 298.642C264.846 293.047 283.93 265.106 295.745 255.781L259.678 213.714C260.3 217.444 257.398 222.418 256.569 225.112C255.74 227.806 243.718 240.654 239.572 244.176Z" fill="#BA8A80"/>
<path id="Vector_9" d="M259.678 213.714C260.3 217.444 257.398 222.418 256.569 225.112C255.74 227.806 243.718 240.654 239.572 244.176C236.256 246.995 233.547 254.4 233.962 255.781C224.344 255.781 211.519 269.988 206.309 277.091C191.506 296.989 193.797 318.235 198.325 329.983C199.113 332.027 201.564 332.692 203.377 331.463C217.685 321.764 241.431 302.771 251.373 298.642C264.846 293.047 283.93 265.106 295.745 255.781" stroke="black" stroke-width="0.709776" stroke-linecap="round"/>
</g>
<path id="Vector 270" d="M249.625 277.125C252.112 280.303 257.087 287.694 257.087 291.838" stroke="black" stroke-width="0.709776" stroke-linecap="round"/>
<path id="Vector 272" d="M200.294 309.961C205.89 304.711 218.7 295.787 225.167 302.087L228.691 306.646" stroke="black" stroke-width="0.709776" stroke-linecap="round"/>
</g>
</g>
</g>
<ellipse id="shadow" cx="200.885" cy="546.838" rx="95.3993" ry="22.2106" fill="black" fill-opacity="0.4"/>
</g>
</g>
</svg>
