<svg width="1379" height="1898" viewBox="0 0 1379 1898" fill="none" xmlns="http://www.w3.org/2000/svg">
<rect x="56.9152" y="79.0488" width="1264.77" height="1739.07" rx="47.4291" fill="#FF9999"/>
<path fill-rule="evenodd" clip-rule="evenodd" d="M469.478 1092.7C469.903 1100.32 473.123 1107.51 478.52 1112.91L638.63 1272.98C650.75 1285.1 670.401 1285.1 682.521 1272.98L784.365 1171.16C796.485 1159.04 796.485 1139.4 784.365 1127.28L624.255 967.212C618.858 961.816 611.661 958.598 604.039 958.173L496.173 952.151C477.693 951.12 462.423 966.385 463.455 984.861L469.478 1092.7ZM529.686 1018.36C541.802 1006.25 544.258 989.067 535.171 979.982C526.083 970.897 508.895 973.352 496.778 985.465C484.662 997.578 482.206 1014.76 491.293 1023.85C500.381 1032.93 517.57 1030.48 529.686 1018.36Z" fill="#B0B8ED"/>
<path d="M478.52 1112.91L477.849 1113.58L478.52 1112.91ZM469.478 1092.7L470.425 1092.65L469.478 1092.7ZM638.63 1272.98L637.959 1273.65L638.63 1272.98ZM784.365 1127.28L785.036 1126.61L784.365 1127.28ZM624.255 967.212L623.584 967.883L624.255 967.212ZM604.039 958.173L604.092 957.226L604.092 957.226L604.039 958.173ZM496.173 952.151L496.12 953.098L496.173 952.151ZM463.455 984.861L462.508 984.914L463.455 984.861ZM479.191 1112.24C473.958 1107.01 470.838 1100.03 470.425 1092.65L468.531 1092.75C468.969 1100.6 472.287 1108.02 477.849 1113.58L479.191 1112.24ZM639.301 1272.31L479.191 1112.24L477.849 1113.58L637.959 1273.65L639.301 1272.31ZM681.85 1272.31C670.1 1284.06 651.05 1284.06 639.301 1272.31L637.959 1273.65C650.45 1286.14 670.701 1286.14 683.192 1273.65L681.85 1272.31ZM783.694 1170.49L681.85 1272.31L683.192 1273.65L785.036 1171.83L783.694 1170.49ZM783.694 1127.95C795.444 1139.7 795.444 1158.74 783.694 1170.49L785.036 1171.83C797.526 1159.35 797.526 1139.1 785.036 1126.61L783.694 1127.95ZM623.584 967.883L783.694 1127.95L785.036 1126.61L624.926 966.542L623.584 967.883ZM603.987 959.12C611.375 959.532 618.352 962.652 623.584 967.883L624.926 966.542C619.363 960.981 611.946 957.664 604.092 957.226L603.987 959.12ZM496.12 953.098L603.987 959.12L604.092 957.226L496.226 951.204L496.12 953.098ZM464.402 984.808C463.402 966.897 478.205 952.098 496.12 953.098L496.226 951.204C477.181 950.141 461.444 965.873 462.508 984.914L464.402 984.808ZM470.425 1092.65L464.402 984.808L462.508 984.914L468.531 1092.75L470.425 1092.65ZM534.5 980.652C538.785 984.937 540.401 991.18 539.441 997.903C538.48 1004.63 534.942 1011.77 529.015 1017.69L530.357 1019.04C536.546 1012.85 540.295 1005.34 541.319 998.172C542.343 991.004 540.644 984.112 535.842 979.311L534.5 980.652ZM497.449 986.136C503.376 980.21 510.519 976.674 517.245 975.713C523.97 974.753 530.215 976.368 534.5 980.652L535.842 979.311C531.039 974.51 524.146 972.811 516.976 973.835C509.806 974.859 502.297 978.607 496.107 984.794L497.449 986.136ZM491.964 1023.18C487.679 1018.89 486.063 1012.65 487.024 1005.93C487.984 999.202 491.522 992.061 497.449 986.136L496.107 984.794C489.918 990.982 486.17 998.49 485.145 1005.66C484.121 1012.83 485.821 1019.72 490.623 1024.52L491.964 1023.18ZM529.015 1017.69C523.088 1023.62 515.945 1027.16 509.22 1028.12C502.494 1029.08 496.249 1027.46 491.964 1023.18L490.623 1024.52C495.425 1029.32 502.318 1031.02 509.488 1029.99C516.658 1028.97 524.168 1025.22 530.357 1019.04L529.015 1017.69Z" fill="black"/>
<rect width="159.541" height="237.096" rx="11.0828" transform="matrix(0.707197 -0.707017 0.707197 0.707017 490.909 1091.63)" fill="white" stroke="black" stroke-width="1.89716" stroke-linecap="round" stroke-linejoin="round"/>
<path d="M633.69 1166.73L610.369 1176.92L591.173 1157.72L596.436 1132.61L619.812 1122.47L638.825 1141.48L633.69 1166.73Z" fill="#B0B8ED"/>
<path d="M633.69 1166.73L610.369 1176.92L591.173 1157.72L596.436 1132.61L619.812 1122.47L638.825 1141.48L633.69 1166.73ZM633.69 1166.73L614.693 1147.74" stroke="black" stroke-width="1.89716" stroke-linecap="round" stroke-linejoin="round"/>
<path d="M638.827 1141.48L633.692 1166.73L614.695 1147.73L619.814 1122.47L638.827 1141.48Z" fill="#B0B8ED" stroke="black" stroke-width="1.89716" stroke-linecap="round" stroke-linejoin="round"/>
<path d="M614.693 1147.74L591.372 1157.92L596.436 1132.61L619.828 1122.49L614.693 1147.74Z" fill="#B0B8ED" stroke="black" stroke-width="1.89716" stroke-linecap="round" stroke-linejoin="round"/>
<path d="M665.91 1154.14L642.589 1164.32L608.151 1129.89L613.414 1104.78L636.79 1094.64L671.045 1128.89L665.91 1154.14Z" fill="#B0B8ED"/>
<path d="M665.91 1154.14L642.589 1164.32L608.151 1129.89L613.414 1104.78L636.79 1094.64L671.045 1128.89L665.91 1154.14ZM665.91 1154.14L631.671 1119.91" stroke="black" stroke-width="1.89716" stroke-linecap="round" stroke-linejoin="round"/>
<path d="M671.046 1128.89L665.911 1154.13L631.672 1119.9L636.791 1094.64L671.046 1128.89Z" fill="#B0B8ED" stroke="black" stroke-width="1.89716" stroke-linecap="round" stroke-linejoin="round"/>
<path d="M631.559 1119.8L608.238 1129.98L613.302 1104.67L636.693 1094.55L631.559 1119.8Z" fill="#B0B8ED" stroke="black" stroke-width="1.89716" stroke-linecap="round" stroke-linejoin="round"/>
<path d="M698.205 1138.19L674.884 1148.38L620.022 1093.53L625.286 1068.42L648.662 1058.28L703.34 1112.95L698.205 1138.19Z" fill="#B0B8ED"/>
<path d="M698.205 1138.19L674.884 1148.38L620.022 1093.53L625.286 1068.42L648.662 1058.28L703.34 1112.95L698.205 1138.19ZM698.205 1138.19L643.543 1083.54" stroke="black" stroke-width="1.89716" stroke-linecap="round" stroke-linejoin="round"/>
<path d="M703.348 1112.95L698.214 1138.19L643.551 1083.54L648.671 1058.28L703.348 1112.95Z" fill="#B0B8ED" stroke="black" stroke-width="1.89716" stroke-linecap="round" stroke-linejoin="round"/>
<path d="M643.528 1083.53L620.207 1093.71L625.271 1068.4L648.663 1058.28L643.528 1083.53Z" fill="#B0B8ED" stroke="black" stroke-width="1.89716" stroke-linecap="round" stroke-linejoin="round"/>
<path fill-rule="evenodd" clip-rule="evenodd" d="M458.439 1118.04C494.611 1123.06 531.913 1106.43 551.58 1072.99C577.659 1028.64 562.853 971.544 518.508 945.454C474.163 919.364 417.073 934.161 390.993 978.505C371.552 1011.56 374.832 1051.71 396.132 1080.81L376.917 1113.47L381.531 1131.26L371.644 1148.06L376.258 1165.85L370.216 1176.12L352.419 1180.74L345.279 1192.87L349.893 1210.66L343.851 1220.93L326.055 1225.54L315.618 1243.28L324.462 1277.38L332.865 1282.32L353.628 1276.94L426.131 1153.72L439.478 1150.26L458.439 1118.04ZM452.823 975.914C457.98 967.149 469.267 964.223 478.033 969.378L517.254 992.444C526.02 997.599 528.945 1008.88 523.788 1017.65C518.631 1026.41 507.345 1029.34 498.579 1024.18L459.358 1001.12C450.592 995.963 447.666 984.679 452.823 975.914Z" fill="#FFE598"/>
<path d="M458.439 1118.04L458.569 1117.1C458.19 1117.04 457.816 1117.22 457.621 1117.55L458.439 1118.04ZM396.132 1080.81L396.95 1081.29C397.142 1080.96 397.122 1080.56 396.898 1080.25L396.132 1080.81ZM376.917 1113.47L376.099 1112.99C375.972 1113.2 375.935 1113.46 375.999 1113.71L376.917 1113.47ZM381.531 1131.26L382.348 1131.74C382.476 1131.52 382.512 1131.27 382.449 1131.02L381.531 1131.26ZM371.644 1148.06L370.826 1147.58C370.699 1147.8 370.662 1148.06 370.726 1148.3L371.644 1148.06ZM376.258 1165.85L377.075 1166.34C377.203 1166.12 377.239 1165.86 377.176 1165.62L376.258 1165.85ZM370.216 1176.12L370.454 1177.04C370.697 1176.98 370.906 1176.82 371.033 1176.6L370.216 1176.12ZM352.419 1180.74L352.181 1179.82C351.938 1179.88 351.729 1180.04 351.602 1180.25L352.419 1180.74ZM345.279 1192.87L344.461 1192.39C344.334 1192.61 344.298 1192.87 344.361 1193.11L345.279 1192.87ZM349.893 1210.66L350.71 1211.14C350.838 1210.93 350.874 1210.67 350.811 1210.43L349.893 1210.66ZM343.851 1220.93L344.089 1221.85C344.332 1221.79 344.541 1221.63 344.668 1221.41L343.851 1220.93ZM326.055 1225.54L325.817 1224.63C325.573 1224.69 325.365 1224.85 325.237 1225.06L326.055 1225.54ZM315.618 1243.28L314.801 1242.8C314.673 1243.02 314.637 1243.28 314.7 1243.52L315.618 1243.28ZM324.462 1277.38L323.543 1277.62C323.607 1277.86 323.764 1278.07 323.981 1278.2L324.462 1277.38ZM332.865 1282.32L332.385 1283.14C332.601 1283.27 332.86 1283.31 333.103 1283.24L332.865 1282.32ZM353.628 1276.94L353.866 1277.86C354.109 1277.8 354.317 1277.64 354.445 1277.42L353.628 1276.94ZM426.131 1153.72L425.893 1152.8C425.649 1152.86 425.441 1153.02 425.313 1153.24L426.131 1153.72ZM439.478 1150.26L439.716 1151.18C439.96 1151.12 440.168 1150.96 440.296 1150.74L439.478 1150.26ZM478.033 969.378L477.552 970.196L478.033 969.378ZM452.823 975.914L453.641 976.395L452.823 975.914ZM517.254 992.444L517.735 991.626L517.254 992.444ZM523.788 1017.65L524.606 1018.13L523.788 1017.65ZM498.579 1024.18L499.06 1023.37L498.579 1024.18ZM459.358 1001.12L458.877 1001.94L459.358 1001.12ZM458.308 1118.97C494.847 1124.05 532.53 1107.25 552.397 1073.47L550.762 1072.51C531.297 1105.6 494.375 1122.07 458.569 1117.1L458.308 1118.97ZM552.397 1073.47C578.743 1028.67 563.785 970.992 518.989 944.636L518.027 946.272C561.92 972.096 576.576 1028.61 550.762 1072.51L552.397 1073.47ZM518.989 944.636C474.193 918.281 416.521 933.228 390.176 978.024L391.811 978.986C417.625 935.094 474.134 920.447 518.027 946.272L518.989 944.636ZM390.176 978.024C370.535 1011.42 373.851 1051.97 395.367 1081.37L396.898 1080.25C375.813 1051.44 372.568 1011.7 391.811 978.986L390.176 978.024ZM377.734 1113.95L396.95 1081.29L395.315 1080.33L376.099 1112.99L377.734 1113.95ZM382.449 1131.02L377.835 1113.23L375.999 1113.71L380.612 1131.5L382.449 1131.02ZM372.461 1148.54L382.348 1131.74L380.713 1130.78L370.826 1147.58L372.461 1148.54ZM377.176 1165.62L372.562 1147.83L370.726 1148.3L375.339 1166.09L377.176 1165.62ZM371.033 1176.6L377.075 1166.34L375.44 1165.37L369.398 1175.64L371.033 1176.6ZM352.657 1181.65L370.454 1177.04L369.978 1175.21L352.181 1179.82L352.657 1181.65ZM346.096 1193.35L353.237 1181.22L351.602 1180.25L344.461 1192.39L346.096 1193.35ZM350.811 1210.43L346.197 1192.63L344.361 1193.11L348.975 1210.9L350.811 1210.43ZM344.668 1221.41L350.71 1211.14L349.075 1210.18L343.033 1220.45L344.668 1221.41ZM326.293 1226.46L344.089 1221.85L343.613 1220.01L325.817 1224.63L326.293 1226.46ZM316.436 1243.76L326.872 1226.03L325.237 1225.06L314.801 1242.8L316.436 1243.76ZM325.38 1277.14L316.537 1243.04L314.7 1243.52L323.543 1277.62L325.38 1277.14ZM333.346 1281.51L324.942 1276.56L323.981 1278.2L332.385 1283.14L333.346 1281.51ZM353.39 1276.02L332.627 1281.41L333.103 1283.24L353.866 1277.86L353.39 1276.02ZM425.313 1153.24L352.81 1276.46L354.445 1277.42L426.948 1154.2L425.313 1153.24ZM439.24 1149.34L425.893 1152.8L426.369 1154.64L439.716 1151.18L439.24 1149.34ZM457.621 1117.55L438.661 1149.78L440.296 1150.74L459.256 1118.52L457.621 1117.55ZM478.513 968.56C469.296 963.14 457.428 966.217 452.006 975.433L453.641 976.395C458.532 968.082 469.238 965.306 477.552 970.196L478.513 968.56ZM517.735 991.626L478.513 968.56L477.552 970.196L516.773 993.262L517.735 991.626ZM524.606 1018.13C530.029 1008.91 526.952 997.047 517.735 991.626L516.773 993.262C525.087 998.151 527.862 1008.85 522.971 1017.17L524.606 1018.13ZM498.098 1025C507.315 1030.42 519.183 1027.34 524.606 1018.13L522.971 1017.17C518.079 1025.48 507.374 1028.26 499.06 1023.37L498.098 1025ZM458.877 1001.94L498.098 1025L499.06 1023.37L459.838 1000.3L458.877 1001.94ZM452.006 975.433C446.583 984.649 449.659 996.515 458.877 1001.94L459.838 1000.3C451.524 995.411 448.75 984.708 453.641 976.395L452.006 975.433Z" fill="black"/>
<path d="M333.167 1272.96L426.399 1097.04" stroke="black" stroke-width="1.89716" stroke-linecap="round" stroke-linejoin="round"/>
<path d="M180.267 696.78C180.71 676.397 202.982 614.435 214.063 586.002L273.898 559.415V642.499C273.898 645.158 269.097 707.489 266.696 738.322C272.236 772.11 279.993 848.104 266.696 881.78C250.075 923.876 199.658 931.077 199.658 926.092C185.253 885.658 179.713 722.259 180.267 696.78Z" fill="#956D65" stroke="black" stroke-width="1.89716" stroke-linecap="round"/>
<path d="M304.37 715.617C335.396 810.333 291.627 846.336 287.749 850.213C243.87 805.015 239.918 702.508 243.426 656.905L287.749 577.698C305.293 566.066 340.826 542.692 342.598 542.249C344.371 541.806 363.652 560.897 373.07 570.497C368.823 583.975 358.776 616.803 352.571 640.288C346.366 663.773 317.852 700.293 304.37 715.617Z" fill="#644842" stroke="black" stroke-width="1.89716" stroke-linecap="round"/>
<path d="M639.006 732.231C630.141 739.764 622.902 759.557 624.01 763.249C598.303 763.249 564.023 801.222 550.096 820.208C510.528 873.394 516.654 930.183 528.757 961.583C530.863 967.047 537.414 968.824 542.26 965.539C580.502 939.616 643.974 888.849 670.549 877.813C706.561 862.858 757.569 788.174 789.149 763.249C820.729 738.324 865.606 690.689 940.954 639.177C981.362 608.067 994.889 605.517 1012.39 589.789C1042.31 578.157 1045.96 597.637 1064.47 576.496C1103.25 532.184 1117.65 556.555 1144.25 540.493C1170.84 524.43 1146.46 415.405 1144.25 394.357C1142.03 373.309 1132.13 253.668 979.183 285.24C841.283 294.375 570.783 314.043 546.482 314.043C511.578 314.043 476.12 320.689 459.499 331.767C442.878 342.845 389.137 414.297 347.03 440.884C304.924 467.471 227.359 542.8 216.278 556.094C205.198 569.387 212.4 615.36 209.63 673.519C206.86 731.677 208.522 795.375 214.616 840.24C219.492 876.133 243.611 927.571 255.061 948.803C317.113 919.558 303.816 814.392 289.411 765.465C310.242 737.106 315.45 672.411 315.45 643.609L323.724 633.639L465.557 524.522H546.482L571.968 547.231C579.06 556.094 622.939 558.678 643.992 558.863C643.992 579.357 691.085 640.839 692.747 650.809C694.409 660.779 686.653 674.073 684.437 681.273C682.221 688.474 650.087 722.815 639.006 732.231Z" fill="#BA8A80" stroke="black" stroke-width="1.89716" stroke-linecap="round"/>
<path d="M314.848 565.85C345.197 553.208 393.881 503.167 414.43 480.516L384.397 524.763C379.655 531.611 350.887 570.907 343.3 578.492C335.713 586.077 322.225 612.204 316.429 624.32L314.848 641.703L313.268 668.567C311.687 646.443 276.912 581.653 314.848 565.85Z" fill="#956D65"/>
<path d="M918.46 656.414C843.111 707.926 815.622 743.197 784.042 768.122C801.308 733.927 824.775 672.528 850.065 651.036C881.678 624.172 903.808 559.381 906.969 530.937C910.13 502.492 910.13 396.615 929.098 371.33C948.066 346.046 971.633 322.118 956.688 302.477C1109.64 270.905 1119.54 390.546 1121.75 411.594C1123.97 432.642 1148.35 541.667 1121.75 557.729C1095.16 573.792 1080.75 549.421 1041.97 593.732C1023.47 614.874 1019.81 595.394 989.893 607.026C972.394 622.753 958.867 625.304 918.46 656.414Z" fill="#956D65"/>
<path d="M789.149 763.251C820.729 738.326 865.606 690.691 940.954 639.179C981.362 608.069 994.888 605.518 1012.39 589.79C1042.31 578.159 1045.96 597.639 1064.47 576.497C1103.25 532.186 1117.65 556.557 1144.25 540.494C1170.84 524.431 1146.46 415.406 1144.25 394.358" stroke="black" stroke-width="1.89716" stroke-linecap="round"/>
<path d="M645.575 558.864C645.575 579.358 692.668 640.84 694.33 650.81C702.64 640.955 697.108 570.59 695.527 564.269C693.946 557.948 671.817 535.824 637.043 532.664C609.223 530.135 582.246 515.808 572.235 508.96C573.5 517.809 573.639 538.162 573.55 547.232C580.642 556.095 624.521 558.679 645.575 558.864Z" fill="#956D65"/>
<path d="M694.409 654.135C696.81 641.58 700.172 605.946 694.409 563.85" stroke="black" stroke-width="1.89716" stroke-linecap="round"/>
<path d="M566.428 482.425C569.974 498.821 572.337 532.091 572.522 546.677C560.555 562.629 524.69 571.048 508.254 573.264C500.682 590.619 477.45 630.425 445.094 650.809C443.063 658.379 440.884 678.282 448.418 697.336C457.837 721.153 463.932 751.617 454.513 774.327C478.675 793.281 512.607 829.058 526.128 867.843C516.965 890.884 519.604 923.97 522.068 937.633C478.115 919.724 388.361 866.937 360.881 789.836C343.891 745.709 311.018 652.581 315.451 633.084C320.991 608.713 347.584 574.372 354.233 567.725C360.881 561.078 405.758 499.596 421.825 470.24L566.428 482.425Z" fill="#BA8A80"/>
<path d="M227.874 860.088C237.108 856.765 258.457 860.088 269.981 899.968" stroke="black" stroke-width="1.89716" stroke-linecap="round"/>
<path d="M192.42 844.027C197.591 844.211 209.041 847.129 213.473 857.32" stroke="black" stroke-width="1.89716" stroke-linecap="round"/>
<path d="M456.692 890.555C465.002 889.078 487.939 890.444 513.203 907.726" stroke="black" stroke-width="1.89716" stroke-linecap="round"/>
<path d="M566.428 482.425C569.974 498.821 572.337 532.091 572.522 546.677C560.555 562.629 524.69 571.048 508.254 573.264C500.682 590.619 477.45 630.425 445.094 650.809C443.063 658.379 440.884 678.282 448.418 697.336C457.837 721.153 463.932 751.617 454.513 774.327C478.675 793.281 512.607 829.058 526.128 867.843C516.965 890.884 519.604 923.97 522.068 937.633C478.115 919.724 388.361 866.937 360.881 789.836C343.891 745.709 311.018 652.581 315.451 633.084C320.991 608.713 347.584 574.372 354.233 567.725C360.881 561.078 405.758 499.596 421.825 470.24" stroke="black" stroke-width="1.89716" stroke-linecap="round"/>
<path d="M480.557 540.565C469.177 569.642 448.417 629.06 445.783 649.603C476.132 631.904 500.579 590.607 509.009 572.171C515.332 573.435 532.719 568.483 540.623 565.85C558.326 560.793 569.074 551.1 572.236 546.886L570.655 512.121L569.074 507.38C564.016 526.343 512.171 533.718 480.557 540.565Z" fill="#956D65"/>
<path d="M566.428 482.425C569.974 498.821 572.337 532.091 572.522 546.677C560.555 562.629 524.69 571.048 508.254 573.264C500.682 590.619 477.45 630.425 445.094 650.809C443.063 658.379 440.884 678.282 448.418 697.336C457.837 721.153 463.932 751.617 454.513 774.327C478.675 793.282 512.607 829.058 526.128 867.843C516.965 890.884 519.604 923.97 522.068 937.633C478.115 919.724 388.361 866.937 360.881 789.836C343.891 745.709 311.018 652.581 315.451 633.084C320.991 608.713 347.584 574.372 354.233 567.725C360.881 561.078 405.758 499.596 421.825 470.24" stroke="black" stroke-width="1.89716" stroke-linecap="round"/>
<path d="M966.404 661.243L933.716 262.441L1360.88 276.288L1378.61 737.681L966.404 661.243Z" fill="#D6DBFF"/>
<path d="M1378.61 737.681L966.404 661.243L933.716 262.441L1360.88 276.288" stroke="black" stroke-width="1.89716"/>
<rect width="28.8096" height="186.757" rx="14.4048" transform="matrix(0.988967 0.148134 -0.148208 0.988956 517.371 825.198)" fill="#E6EAEB" stroke="black" stroke-width="1.89716" stroke-linecap="round" stroke-linejoin="round"/>
<path d="M639.797 731.589C630.932 739.122 623.693 758.915 624.801 762.607C599.094 762.607 564.814 800.58 550.887 819.566C511.319 872.752 517.445 929.541 529.548 960.941C531.654 966.405 538.205 968.182 543.051 964.897C581.293 938.973 644.765 888.207 671.34 877.171C707.352 862.216 758.36 787.532 789.94 762.607L693.538 650.167C695.2 660.137 687.444 673.43 685.228 680.631C683.012 687.832 650.878 722.173 639.797 731.589Z" fill="#BA8A80"/>
<path d="M693.538 650.167C695.2 660.137 687.444 673.43 685.228 680.631C683.012 687.832 650.878 722.173 639.797 731.589C630.932 739.122 623.693 758.915 624.801 762.607C599.094 762.607 564.814 800.58 550.887 819.566C511.319 872.752 517.445 929.541 529.548 960.941C531.654 966.405 538.205 968.182 543.051 964.897C581.293 938.973 644.765 888.207 671.34 877.171C707.352 862.216 758.36 787.532 789.94 762.607" stroke="black" stroke-width="1.89716" stroke-linecap="round"/>
<path d="M666.669 819.657C673.317 828.15 686.614 847.906 686.614 858.984" stroke="black" stroke-width="1.89716" stroke-linecap="round"/>
<path d="M534.812 907.426C549.771 893.394 584.01 869.54 601.296 886.378L610.714 898.564" stroke="black" stroke-width="1.89716" stroke-linecap="round"/>
<ellipse cx="536.387" cy="1540.57" rx="254.993" ry="59.3668" fill="black" fill-opacity="0.4"/>
</svg>
