<svg width="732" height="397" viewBox="0 0 732 397" fill="none" xmlns="http://www.w3.org/2000/svg">
<path d="M236.422 395.748C235.633 396.204 234.598 396.433 233.563 396.434C232.523 396.435 231.483 396.206 230.69 395.748C229.899 395.291 229.503 394.692 229.503 394.093L229.503 346.2L237.61 346.2L237.61 394.093C237.61 394.692 237.214 395.291 236.422 395.748Z" fill="#FAC864" stroke="black" stroke-width="0.56586" stroke-linecap="round" stroke-linejoin="round"/>
<path d="M230.663 344.533C229.068 345.453 229.068 346.946 230.663 347.867C232.257 348.787 234.843 348.787 236.437 347.867C238.032 346.946 238.032 345.453 236.437 344.533C234.843 343.612 232.257 343.612 230.663 344.533Z" fill="#FFE598" stroke="black" stroke-width="0.56586" stroke-linecap="round" stroke-linejoin="round"/>
<path d="M117.223 327.089C115.64 328.003 113.074 328.003 111.491 327.089C110.699 326.633 110.304 326.034 110.304 325.435L110.304 277.541L118.411 277.541L118.41 325.435C118.41 326.034 118.015 326.633 117.223 327.089Z" fill="#FAC864" stroke="black" stroke-width="0.56586" stroke-linecap="round" stroke-linejoin="round"/>
<path d="M111.463 275.874C109.868 276.795 109.868 278.287 111.463 279.208C113.058 280.129 115.643 280.129 117.238 279.208C118.832 278.287 118.832 276.795 117.238 275.874C115.643 274.953 113.058 274.953 111.463 275.874Z" fill="#FFE598" stroke="black" stroke-width="0.56586" stroke-linecap="round" stroke-linejoin="round"/>
<path d="M156.989 349.897C155.406 350.811 152.839 350.811 151.256 349.897C150.465 349.44 150.069 348.841 150.069 348.242L150.069 300.349L158.176 300.349L158.176 348.242C158.176 348.841 157.78 349.44 156.989 349.897Z" fill="#FAC864" stroke="black" stroke-width="0.56586" stroke-linecap="round" stroke-linejoin="round"/>
<path d="M151.229 298.682C149.634 299.602 149.634 301.095 151.229 302.016C152.823 302.936 155.409 302.936 157.003 302.016C158.598 301.095 158.598 299.602 157.003 298.682C155.409 297.761 152.823 297.761 151.229 298.682Z" fill="#FFE598" stroke="black" stroke-width="0.56586" stroke-linecap="round" stroke-linejoin="round"/>
<path d="M37.7886 281.238C36.2056 282.152 33.6392 282.152 32.0562 281.238C31.2647 280.781 30.869 280.183 30.869 279.584L30.8692 231.69L38.9761 231.69L38.9758 279.584C38.9758 280.183 38.5801 280.781 37.7886 281.238Z" fill="#FAC864" stroke="black" stroke-width="0.56586" stroke-linecap="round" stroke-linejoin="round"/>
<path d="M32.0285 230.023C30.4339 230.944 30.4339 232.436 32.0285 233.357C33.6231 234.278 36.2085 234.278 37.8031 233.357C39.3977 232.436 39.3977 230.944 37.8031 230.023C36.2085 229.102 33.6231 229.102 32.0285 230.023Z" fill="#FFE598" stroke="black" stroke-width="0.56586" stroke-linecap="round" stroke-linejoin="round"/>
<path d="M196.695 372.941C195.112 373.855 192.545 373.855 190.962 372.941C190.171 372.484 189.775 371.885 189.775 371.286L189.775 323.392L197.882 323.392L197.882 371.286C197.882 371.885 197.486 372.484 196.695 372.941Z" fill="#FAC864" stroke="black" stroke-width="0.56586" stroke-linecap="round" stroke-linejoin="round"/>
<path d="M190.934 321.725C189.34 322.646 189.34 324.139 190.934 325.059C192.529 325.98 195.114 325.98 196.709 325.059C198.303 324.139 198.303 322.646 196.709 321.725C195.114 320.805 192.529 320.805 190.934 321.725Z" fill="#FFE598" stroke="black" stroke-width="0.56586" stroke-linecap="round" stroke-linejoin="round"/>
<path d="M77.4947 304.282C75.9117 305.196 73.3452 305.196 71.7623 304.282C70.9708 303.825 70.575 303.226 70.575 302.627L70.5753 254.734L78.6821 254.734L78.6819 302.627C78.6819 303.226 78.2861 303.825 77.4947 304.282Z" fill="#FAC864" stroke="black" stroke-width="0.56586" stroke-linecap="round" stroke-linejoin="round"/>
<path d="M71.735 253.067C70.1404 253.987 70.1404 255.48 71.735 256.401C73.3296 257.321 75.915 257.321 77.5096 256.401C79.1042 255.48 79.1042 253.987 77.5096 253.067C75.915 252.146 73.3296 252.146 71.735 253.067Z" fill="#FFE598" stroke="black" stroke-width="0.56586" stroke-linecap="round" stroke-linejoin="round"/>
<path d="M220.801 354.357L220.801 342.786L261.069 346.712L261.069 358.379L244.329 368.036L220.801 354.357Z" fill="#505050" stroke="black" stroke-width="0.905861" stroke-linecap="round" stroke-linejoin="round"/>
<path d="M244.402 356.281V367.855" stroke="black" stroke-width="0.906213"/>
<rect width="19.2995" height="27.0985" transform="matrix(0.866025 -0.5 0.866025 0.5 220.861 342.738)" fill="#B3B3B3" stroke="black" stroke-width="0.905861" stroke-linecap="round" stroke-linejoin="round"/>
<path d="M371.2 317.104C369.617 318.018 367.051 318.018 365.468 317.104C364.676 316.647 364.281 316.048 364.281 315.449L364.281 267.555L372.388 267.555L372.387 315.449C372.387 316.048 371.992 316.647 371.2 317.104Z" fill="#FAC864" stroke="black" stroke-width="0.56586" stroke-linecap="round" stroke-linejoin="round"/>
<path d="M365.439 265.888C363.845 266.809 363.845 268.302 365.439 269.222C367.034 270.143 369.619 270.143 371.214 269.222C372.808 268.302 372.808 266.809 371.214 265.888C369.619 264.968 367.034 264.968 365.439 265.888Z" fill="#FFE598" stroke="black" stroke-width="0.56586" stroke-linecap="round" stroke-linejoin="round"/>
<path d="M180.504 331.018L180.505 319.447L220.773 323.373L220.773 335.04L204.033 344.696L180.504 331.018Z" fill="#505050" stroke="black" stroke-width="0.905861" stroke-linecap="round" stroke-linejoin="round"/>
<path d="M204.106 332.942V344.516" stroke="black" stroke-width="0.906213"/>
<rect width="19.2995" height="27.0985" transform="matrix(0.866025 -0.5 0.866025 0.5 180.564 319.399)" fill="#B3B3B3" stroke="black" stroke-width="0.905861" stroke-linecap="round" stroke-linejoin="round"/>
<path d="M140.235 307.679L140.236 296.108L180.504 300.034L180.504 311.701L163.764 321.357L140.235 307.679Z" fill="#505050" stroke="black" stroke-width="0.905861" stroke-linecap="round" stroke-linejoin="round"/>
<path d="M163.836 309.603V321.177" stroke="black" stroke-width="0.906213"/>
<rect width="19.2995" height="27.0985" transform="matrix(0.866025 -0.5 0.866025 0.5 140.296 296.06)" fill="#B3B3B3" stroke="black" stroke-width="0.905861" stroke-linecap="round" stroke-linejoin="round"/>
<path d="M99.9678 282.449L99.9681 270.878L140.236 274.804L140.236 286.471L123.496 296.127L99.9678 282.449Z" fill="#505050" stroke="black" stroke-width="0.905861" stroke-linecap="round" stroke-linejoin="round"/>
<path d="M123.57 284.373V295.947" stroke="black" stroke-width="0.906213"/>
<rect width="19.2995" height="27.0985" transform="matrix(0.866025 -0.5 0.866025 0.5 100.029 270.83)" fill="#B3B3B3" stroke="black" stroke-width="0.905861" stroke-linecap="round" stroke-linejoin="round"/>
<path d="M59.6714 259.11L59.6717 247.539L99.9399 251.465L99.9399 263.132L83.1997 272.788L59.6714 259.11Z" fill="#505050" stroke="black" stroke-width="0.905861" stroke-linecap="round" stroke-linejoin="round"/>
<path d="M83.2734 261.033V272.608" stroke="black" stroke-width="0.906213"/>
<rect width="19.2995" height="27.0985" transform="matrix(0.866025 -0.5 0.866025 0.5 59.7329 247.491)" fill="#B3B3B3" stroke="black" stroke-width="0.905861" stroke-linecap="round" stroke-linejoin="round"/>
<path d="M19.4922 235.77L19.4925 224.199L59.7607 228.126L59.7607 239.792L43.0205 249.449L19.4922 235.77Z" fill="#505050" stroke="black" stroke-width="0.905861" stroke-linecap="round" stroke-linejoin="round"/>
<path d="M43.0942 237.694V249.269" stroke="black" stroke-width="0.906213"/>
<rect width="19.2995" height="27.0985" transform="matrix(0.866025 -0.5 0.866025 0.5 19.5537 224.151)" fill="#B3B3B3" stroke="black" stroke-width="0.905861" stroke-linecap="round" stroke-linejoin="round"/>
<path d="M246.332 358.559L7.84442 220.868C5.62357 219.586 4.54108 217.896 4.59698 216.215V201.03L397.983 262.066V277.547C397.923 279.14 396.841 280.722 394.736 281.937L262.022 358.559C257.689 361.061 250.665 361.061 246.332 358.559Z" fill="#55A398" stroke="black" stroke-width="0.905861" stroke-linecap="round" stroke-linejoin="round"/>
<rect width="171.362" height="293.499" rx="9.05861" transform="matrix(-0.866025 0.5 0.866025 0.5 148.404 115)" fill="#BDDCD8" stroke="black" stroke-width="0.905861" stroke-linecap="round" stroke-linejoin="round"/>
<rect width="95.7808" height="73.7833" transform="matrix(-0.866025 -0.5 -0.866025 0.5 198.164 186.122)" stroke="black" stroke-width="0.905861" stroke-linecap="round" stroke-linejoin="round"/>
<rect width="95.7808" height="73.7833" transform="matrix(-0.866025 -0.5 -0.866025 0.5 198.164 186.122)" stroke="black" stroke-width="0.905861" stroke-linecap="round" stroke-linejoin="round"/>
<rect width="79.1279" height="5.0277" transform="matrix(-0.866025 -0.5 -0.866025 0.5 180.061 185.23)" fill="#E5E5E5" stroke="black" stroke-width="0.905861" stroke-linecap="round" stroke-linejoin="round"/>
<rect width="79.1279" height="5.0277" transform="matrix(-0.866025 -0.5 -0.866025 0.5 162.689 195.156)" fill="#E5E5E5" stroke="black" stroke-width="0.905861" stroke-linecap="round" stroke-linejoin="round"/>
<rect width="79.1279" height="5.0277" transform="matrix(-0.866025 -0.5 -0.866025 0.5 145.377 205.083)" fill="#E5E5E5" stroke="black" stroke-width="0.905861" stroke-linecap="round" stroke-linejoin="round"/>
<rect width="79.1279" height="5.0277" transform="matrix(-0.866025 -0.5 -0.866025 0.5 171.435 190.193)" fill="#E5E5E5" stroke="black" stroke-width="0.905861" stroke-linecap="round" stroke-linejoin="round"/>
<rect width="79.1279" height="5.0277" transform="matrix(-0.866025 -0.5 -0.866025 0.5 154.063 200.12)" fill="#E5E5E5" stroke="black" stroke-width="0.905861" stroke-linecap="round" stroke-linejoin="round"/>
<rect width="79.1279" height="5.0277" transform="matrix(-0.866025 -0.5 -0.866025 0.5 136.692 210.046)" fill="#E5E5E5" stroke="black" stroke-width="0.905861" stroke-linecap="round" stroke-linejoin="round"/>
<path d="M118.121 207.558L56.6293 172.056L56.6293 161.974L171.395 166.789L171.395 176.8L118.121 207.558Z" fill="#C4C4C4"/>
<path d="M118.121 207.558L56.6293 172.056L56.6293 161.974L171.395 166.789L171.395 176.8L118.121 207.558ZM118.121 207.558L118.121 197.544" stroke="black" stroke-width="0.905861" stroke-linecap="round" stroke-linejoin="round"/>
<rect width="71.0042" height="61.516" transform="matrix(-0.866025 -0.5 -0.866025 0.5 171.395 166.751)" fill="#E5E5E5" stroke="black" stroke-width="0.905861" stroke-linecap="round" stroke-linejoin="round"/>
<rect width="32.8555" height="32.1999" transform="matrix(-0.866025 -0.5 -0.866025 0.5 266.212 247.163)" fill="#E5E5E5" stroke="black" stroke-width="0.905861" stroke-linecap="round" stroke-linejoin="round"/>
<path d="M238.042 260.176L215.016 246.881L215.016 244.045L261.069 244.045L261.069 246.881L238.042 260.176Z" fill="#464646"/>
<path d="M238.042 260.176L215.016 246.881L215.016 244.045H261.069L261.069 246.881L238.042 260.176ZM238.042 260.176L238.042 257.369" stroke="black" stroke-width="0.905861" stroke-linecap="round" stroke-linejoin="round"/>
<rect width="26.589" height="26.589" transform="matrix(-0.866025 -0.5 -0.866025 0.5 261.069 244.045)" fill="#464646" stroke="black" stroke-width="0.905861" stroke-linecap="round" stroke-linejoin="round"/>
<rect width="19.7296" height="23.6085" rx="9.05861" transform="matrix(-0.866025 0.5 0.866025 0.5 33.3149 200.186)" fill="#55A398" stroke="black" stroke-width="0.905861" stroke-linecap="round" stroke-linejoin="round"/>
<rect width="19.7296" height="22.1599" rx="9.05861" transform="matrix(-0.866025 0.5 0.866025 0.5 73.4268 223.345)" fill="#55A398" stroke="black" stroke-width="0.905861" stroke-linecap="round" stroke-linejoin="round"/>
<rect width="19.7296" height="22.3626" rx="9.05861" transform="matrix(-0.866025 0.5 0.866025 0.5 112.643 245.986)" fill="#55A398" stroke="black" stroke-width="0.905861" stroke-linecap="round" stroke-linejoin="round"/>
<rect width="19.7296" height="22.3651" rx="9.05861" transform="matrix(-0.866025 0.5 0.866025 0.5 152.542 269.021)" fill="#55A398" stroke="black" stroke-width="0.905861" stroke-linecap="round" stroke-linejoin="round"/>
<rect width="19.7296" height="22.7927" rx="9.05861" transform="matrix(-0.866025 0.5 0.866025 0.5 192.738 292.229)" fill="#55A398" stroke="black" stroke-width="0.905861" stroke-linecap="round" stroke-linejoin="round"/>
<rect width="19.7296" height="21.6647" rx="9.05861" transform="matrix(-0.866025 0.5 0.866025 0.5 233.254 315.621)" fill="#55A398" stroke="black" stroke-width="0.905861" stroke-linecap="round" stroke-linejoin="round"/>
<path d="M238.355 328.304C235.698 329.838 231.39 329.838 228.733 328.304C227.077 327.348 226.453 326.022 226.861 324.787L231.467 314.771H235.603L240.227 324.787C240.635 326.022 240.011 327.348 238.355 328.304Z" fill="#D9D9D9" stroke="black" stroke-width="0.905861" stroke-linecap="round" stroke-linejoin="round"/>
<circle r="1.72791" transform="matrix(-0.866025 -0.5 -0.866025 0.5 233.544 314.786)" fill="#D9D9D9" stroke="black" stroke-width="0.905861" stroke-linecap="round" stroke-linejoin="round"/>
<path d="M198.629 305.024C195.972 306.558 191.664 306.558 189.007 305.024C187.351 304.068 186.727 302.742 187.135 301.507L191.741 291.491H195.877L200.501 301.507C200.909 302.742 200.285 304.068 198.629 305.024Z" fill="#D9D9D9" stroke="black" stroke-width="0.905861" stroke-linecap="round" stroke-linejoin="round"/>
<circle r="1.72791" transform="matrix(-0.866025 -0.5 -0.866025 0.5 193.819 291.506)" fill="#D9D9D9" stroke="black" stroke-width="0.905861" stroke-linecap="round" stroke-linejoin="round"/>
<path d="M158.924 281.744C156.267 283.278 151.959 283.278 149.302 281.744C147.646 280.788 147.022 279.462 147.43 278.227L152.036 268.211H156.172L160.796 278.227C161.204 279.462 160.58 280.788 158.924 281.744Z" fill="#D9D9D9" stroke="black" stroke-width="0.905861" stroke-linecap="round" stroke-linejoin="round"/>
<circle r="1.72791" transform="matrix(-0.866025 -0.5 -0.866025 0.5 154.113 268.226)" fill="#D9D9D9" stroke="black" stroke-width="0.905861" stroke-linecap="round" stroke-linejoin="round"/>
<path d="M119.159 258.7C116.501 260.234 112.193 260.234 109.536 258.7C107.88 257.744 107.256 256.418 107.665 255.183L112.27 245.167H116.407L121.03 255.183C121.439 256.418 120.815 257.744 119.159 258.7Z" fill="#D9D9D9" stroke="black" stroke-width="0.905861" stroke-linecap="round" stroke-linejoin="round"/>
<circle r="1.72791" transform="matrix(-0.866025 -0.5 -0.866025 0.5 114.348 245.182)" fill="#D9D9D9" stroke="black" stroke-width="0.905861" stroke-linecap="round" stroke-linejoin="round"/>
<path d="M79.4525 235.657C76.7954 237.191 72.4874 237.191 69.8302 235.657C68.1742 234.7 67.5503 233.374 67.9585 232.139L72.5644 222.124H76.7005L81.3242 232.139C81.7324 233.374 81.1085 234.7 79.4525 235.657Z" fill="#D9D9D9" stroke="black" stroke-width="0.905861" stroke-linecap="round" stroke-linejoin="round"/>
<circle r="1.72791" transform="matrix(-0.866025 -0.5 -0.866025 0.5 74.6415 222.138)" fill="#D9D9D9" stroke="black" stroke-width="0.905861" stroke-linecap="round" stroke-linejoin="round"/>
<path d="M39.7464 213.322C37.0893 214.856 32.7813 214.856 30.1242 213.322C28.4681 212.366 27.8442 211.039 28.2525 209.804L32.8584 199.789H36.9944L41.6182 209.804C42.0264 211.039 41.4025 212.366 39.7464 213.322Z" fill="#D9D9D9" stroke="black" stroke-width="0.905861" stroke-linecap="round" stroke-linejoin="round"/>
<circle r="1.72791" transform="matrix(-0.866025 -0.5 -0.866025 0.5 34.9354 199.804)" fill="#D9D9D9" stroke="black" stroke-width="0.905861" stroke-linecap="round" stroke-linejoin="round"/>
<rect width="19.7296" height="23.6085" rx="9.05861" transform="matrix(-0.866025 0.5 0.866025 0.5 164.44 124.024)" fill="#55A398" stroke="black" stroke-width="0.905861" stroke-linecap="round" stroke-linejoin="round"/>
<rect width="19.7296" height="22.1599" rx="9.05861" transform="matrix(-0.866025 0.5 0.866025 0.5 204.552 147.182)" fill="#55A398" stroke="black" stroke-width="0.905861" stroke-linecap="round" stroke-linejoin="round"/>
<rect width="19.7296" height="22.3626" rx="9.05861" transform="matrix(-0.866025 0.5 0.866025 0.5 243.768 169.823)" fill="#55A398" stroke="black" stroke-width="0.905861" stroke-linecap="round" stroke-linejoin="round"/>
<rect width="19.7296" height="22.3651" rx="9.05861" transform="matrix(-0.866025 0.5 0.866025 0.5 283.667 192.859)" fill="#55A398" stroke="black" stroke-width="0.905861" stroke-linecap="round" stroke-linejoin="round"/>
<rect width="19.7296" height="22.7927" rx="9.05861" transform="matrix(-0.866025 0.5 0.866025 0.5 323.862 216.066)" fill="#55A398" stroke="black" stroke-width="0.905861" stroke-linecap="round" stroke-linejoin="round"/>
<rect width="19.7296" height="21.6647" rx="9.05861" transform="matrix(-0.866025 0.5 0.866025 0.5 364.379 239.458)" fill="#55A398" stroke="black" stroke-width="0.905861" stroke-linecap="round" stroke-linejoin="round"/>
<path d="M369.478 252.142C366.821 253.676 362.513 253.676 359.856 252.142C358.2 251.186 357.576 249.859 357.984 248.624L362.59 238.609H366.726L371.35 248.624C371.758 249.859 371.134 251.186 369.478 252.142Z" fill="#D9D9D9" stroke="black" stroke-width="0.905861" stroke-linecap="round" stroke-linejoin="round"/>
<circle r="1.72791" transform="matrix(-0.866025 -0.5 -0.866025 0.5 364.668 238.624)" fill="#D9D9D9" stroke="black" stroke-width="0.905861" stroke-linecap="round" stroke-linejoin="round"/>
<path d="M329.754 228.862C327.097 230.396 322.789 230.396 320.132 228.862C318.476 227.906 317.852 226.579 318.26 225.344L322.866 215.329H327.002L331.626 225.344C332.034 226.579 331.41 227.906 329.754 228.862Z" fill="#D9D9D9" stroke="black" stroke-width="0.905861" stroke-linecap="round" stroke-linejoin="round"/>
<circle r="1.72791" transform="matrix(-0.866025 -0.5 -0.866025 0.5 324.944 215.344)" fill="#D9D9D9" stroke="black" stroke-width="0.905861" stroke-linecap="round" stroke-linejoin="round"/>
<path d="M290.048 205.582C287.391 207.116 283.083 207.116 280.426 205.582C278.77 204.625 278.146 203.299 278.554 202.064L283.16 192.049H287.296L291.92 202.064C292.328 203.299 291.704 204.625 290.048 205.582Z" fill="#D9D9D9" stroke="black" stroke-width="0.905861" stroke-linecap="round" stroke-linejoin="round"/>
<circle r="1.72791" transform="matrix(-0.866025 -0.5 -0.866025 0.5 285.238 192.063)" fill="#D9D9D9" stroke="black" stroke-width="0.905861" stroke-linecap="round" stroke-linejoin="round"/>
<path d="M250.284 182.538C247.626 184.072 243.318 184.072 240.661 182.538C239.005 181.582 238.381 180.255 238.79 179.02L243.395 169.005H247.532L252.155 179.02C252.564 180.255 251.94 181.582 250.284 182.538Z" fill="#D9D9D9" stroke="black" stroke-width="0.905861" stroke-linecap="round" stroke-linejoin="round"/>
<circle r="1.72791" transform="matrix(-0.866025 -0.5 -0.866025 0.5 245.473 169.02)" fill="#D9D9D9" stroke="black" stroke-width="0.905861" stroke-linecap="round" stroke-linejoin="round"/>
<path d="M210.577 159.494C207.919 161.028 203.611 161.028 200.954 159.494C199.298 158.538 198.674 157.212 199.083 155.976L203.688 145.961H207.825L212.448 155.976C212.856 157.212 212.233 158.538 210.577 159.494Z" fill="#D9D9D9" stroke="black" stroke-width="0.905861" stroke-linecap="round" stroke-linejoin="round"/>
<circle r="1.72791" transform="matrix(-0.866025 -0.5 -0.866025 0.5 205.766 145.976)" fill="#D9D9D9" stroke="black" stroke-width="0.905861" stroke-linecap="round" stroke-linejoin="round"/>
<path d="M170.871 137.159C168.214 138.693 163.906 138.693 161.249 137.159C159.593 136.203 158.969 134.877 159.377 133.642L163.983 123.627H168.119L172.743 133.642C173.151 134.877 172.527 136.203 170.871 137.159Z" fill="#D9D9D9" stroke="black" stroke-width="0.905861" stroke-linecap="round" stroke-linejoin="round"/>
<circle r="1.72791" transform="matrix(-0.866025 -0.5 -0.866025 0.5 166.06 123.641)" fill="#D9D9D9" stroke="black" stroke-width="0.905861" stroke-linecap="round" stroke-linejoin="round"/>
<path d="M327.964 262.134L327.964 254.768L353.599 257.268L353.599 264.695L342.942 270.842L327.964 262.134Z" fill="#C4C4C4" stroke="black" stroke-width="0.905861" stroke-linecap="round" stroke-linejoin="round"/>
<path d="M342.99 263.359V270.727" stroke="black" stroke-width="0.906213"/>
<rect width="12.2861" height="17.2508" transform="matrix(0.866025 -0.5 0.866025 0.5 328.004 254.738)" fill="#D9D9D9" stroke="black" stroke-width="0.905861" stroke-linecap="round" stroke-linejoin="round"/>
<path d="M343.503 257.49C342.753 257.923 341.77 258.14 340.786 258.141C339.798 258.142 338.81 257.925 338.056 257.49C337.304 257.055 336.928 256.486 336.928 255.917L336.93 253.635L344.633 253.635L344.631 255.917C344.631 256.486 344.255 257.055 343.503 257.49Z" fill="black" stroke="black" stroke-width="0.56586" stroke-linecap="round" stroke-linejoin="round"/>
<path d="M338.031 252.051C336.516 252.926 336.516 254.344 338.031 255.219C339.547 256.094 342.003 256.094 343.518 255.219C345.034 254.344 345.034 252.926 343.518 252.051C342.003 251.177 339.547 251.177 338.031 252.051Z" fill="#505050" stroke="black" stroke-width="0.56586" stroke-linecap="round" stroke-linejoin="round"/>
<path d="M248.255 308.635L248.255 301.269L273.89 303.769L273.89 311.196L263.233 317.343L248.255 308.635Z" fill="#C4C4C4" stroke="black" stroke-width="0.905861" stroke-linecap="round" stroke-linejoin="round"/>
<path d="M263.281 309.86V317.228" stroke="black" stroke-width="0.906213"/>
<rect width="12.2861" height="17.2508" transform="matrix(0.866025 -0.5 0.866025 0.5 248.294 301.239)" fill="#D9D9D9" stroke="black" stroke-width="0.905861" stroke-linecap="round" stroke-linejoin="round"/>
<path d="M263.795 303.991C263.045 304.424 262.062 304.641 261.078 304.642C260.09 304.643 259.102 304.426 258.348 303.991C257.596 303.557 257.22 302.988 257.22 302.418L257.222 300.136L264.925 300.136L264.923 302.418C264.923 302.988 264.547 303.557 263.795 303.991Z" fill="black" stroke="black" stroke-width="0.56586" stroke-linecap="round" stroke-linejoin="round"/>
<path d="M258.324 298.553C256.809 299.427 256.809 300.846 258.324 301.72C259.839 302.595 262.296 302.595 263.811 301.72C265.326 300.846 265.326 299.427 263.811 298.553C262.296 297.678 259.839 297.678 258.324 298.553Z" fill="#505050" stroke="black" stroke-width="0.56586" stroke-linecap="round" stroke-linejoin="round"/>
<path d="M310.592 314.377L253.14 281.207L253.14 266.389L346.71 278.679L346.71 293.525L310.592 314.377Z" fill="#C4C4C4"/>
<path d="M310.592 314.377L253.14 281.207L253.14 266.389L346.71 278.679L346.71 293.525L310.592 314.377ZM310.592 314.377L310.592 299.3" stroke="black" stroke-width="0.905861" stroke-linecap="round" stroke-linejoin="round"/>
<path d="M346.709 293.546L310.592 314.398L310.592 299.498L346.709 278.699L346.709 293.546Z" fill="#505050" stroke="black" stroke-width="0.905861" stroke-linecap="round" stroke-linejoin="round"/>
<path d="M343.668 292.217L310.625 311.294L310.625 297.662L343.668 280.151L343.668 292.217Z" fill="black" stroke="black" stroke-width="0.905861" stroke-linecap="round" stroke-linejoin="round"/>
<rect width="41.7049" height="66.3407" transform="matrix(-0.866025 0.5 0.866025 0.5 289.257 245.522)" fill="#E5E5E5" stroke="black" stroke-width="0.905861" stroke-linecap="round" stroke-linejoin="round"/>
<rect width="3.48927" height="13.846" rx="1.74464" transform="matrix(0.866025 -0.5 0.866025 0.5 313.595 272.438)" fill="#505050" stroke="black" stroke-width="0.905861" stroke-linecap="round" stroke-linejoin="round"/>
<rect width="3.48927" height="13.846" rx="1.74464" transform="matrix(0.866025 -0.5 0.866025 0.5 297.819 281.398)" fill="#505050" stroke="black" stroke-width="0.905861" stroke-linecap="round" stroke-linejoin="round"/>
<rect width="6.65268" height="46.8477" transform="matrix(-0.866025 -0.5 -0.866025 0.5 206.877 204.382)" fill="#E5E5E5" stroke="black" stroke-width="0.905861" stroke-linecap="round" stroke-linejoin="round"/>
<rect width="7.56183" height="46.8477" transform="matrix(-0.866025 -0.5 -0.866025 0.5 219.325 211.569)" fill="#E5E5E5" stroke="black" stroke-width="0.905861" stroke-linecap="round" stroke-linejoin="round"/>
<rect width="7.67064" height="46.8477" transform="matrix(-0.866025 -0.5 -0.866025 0.5 232.574 219.219)" fill="#E5E5E5" stroke="black" stroke-width="0.905861" stroke-linecap="round" stroke-linejoin="round"/>
<rect width="44.5479" height="55.1917" transform="matrix(-0.866025 -0.5 -0.866025 0.5 239.618 219.414)" stroke="black" stroke-width="0.905861" stroke-linecap="round" stroke-linejoin="round"/>
<rect width="92.6204" height="102.243" transform="matrix(-0.866025 -0.5 -0.866025 0.5 301.624 231.688)" stroke="black" stroke-width="0.905861" stroke-linecap="round" stroke-linejoin="round"/>
<circle r="2.79067" transform="matrix(-0.866025 0.5 0.866025 0.5 118.445 189.285)" fill="#7C7C7C" stroke="black" stroke-width="0.905861" stroke-linecap="round" stroke-linejoin="round"/>
<path d="M201.73 236.915L170.52 218.896L170.52 210.602L222.646 216.57L222.646 224.839L201.73 236.915Z" fill="#464646"/>
<path d="M201.73 236.915L170.52 218.896L170.52 210.602L222.646 216.57L222.646 224.839L201.73 236.915ZM201.73 236.915L201.73 228.771" stroke="black" stroke-width="0.905861" stroke-linecap="round" stroke-linejoin="round"/>
<rect width="36.0378" height="24.1516" transform="matrix(-0.866025 -0.5 -0.866025 0.5 222.646 216.562)" fill="#464646" stroke="black" stroke-width="0.905861" stroke-linecap="round" stroke-linejoin="round"/>
<path d="M549.945 215.194C550.55 215.544 551.343 215.719 552.137 215.719C552.933 215.72 553.731 215.545 554.339 215.194C554.945 214.844 555.249 214.385 555.249 213.926L555.249 177.215L549.035 177.215L549.035 213.926C549.035 214.385 549.338 214.844 549.945 215.194Z" fill="#FAC864" stroke="black" stroke-width="0.56586" stroke-linecap="round" stroke-linejoin="round"/>
<path d="M554.359 175.937C555.581 176.643 555.581 177.787 554.359 178.493C553.136 179.199 551.155 179.199 549.932 178.493C548.71 177.787 548.71 176.643 549.932 175.937C551.155 175.232 553.136 175.232 554.359 175.937Z" fill="#FFE598" stroke="black" stroke-width="0.56586" stroke-linecap="round" stroke-linejoin="round"/>
<path d="M641.308 162.567C642.521 163.268 644.488 163.268 645.702 162.567C646.308 162.217 646.612 161.758 646.612 161.299L646.611 124.588L640.397 124.588L640.398 161.299C640.398 161.758 640.701 162.217 641.308 162.567Z" fill="#FAC864" stroke="black" stroke-width="0.56586" stroke-linecap="round" stroke-linejoin="round"/>
<path d="M645.723 123.311C646.945 124.016 646.945 125.16 645.723 125.866C644.501 126.572 642.519 126.572 641.297 125.866C640.074 125.16 640.074 124.016 641.297 123.311C642.519 122.605 644.501 122.605 645.723 123.311Z" fill="#FFE598" stroke="black" stroke-width="0.56586" stroke-linecap="round" stroke-linejoin="round"/>
<path d="M610.829 180.049C612.042 180.75 614.01 180.75 615.223 180.049C615.83 179.699 616.133 179.24 616.133 178.781L616.133 142.07L609.919 142.07L609.919 178.781C609.919 179.24 610.222 179.699 610.829 180.049Z" fill="#FAC864" stroke="black" stroke-width="0.56586" stroke-linecap="round" stroke-linejoin="round"/>
<path d="M615.245 140.792C616.468 141.498 616.468 142.642 615.245 143.348C614.023 144.053 612.041 144.053 610.819 143.348C609.597 142.642 609.597 141.498 610.819 140.792C612.041 140.087 614.023 140.087 615.245 140.792Z" fill="#FFE598" stroke="black" stroke-width="0.56586" stroke-linecap="round" stroke-linejoin="round"/>
<path d="M702.194 127.422C703.408 128.122 705.375 128.122 706.588 127.422C707.195 127.072 707.498 126.613 707.498 126.153L707.498 89.4429L701.284 89.4429L701.284 126.153C701.284 126.613 701.588 127.072 702.194 127.422Z" fill="#FAC864" stroke="black" stroke-width="0.56586" stroke-linecap="round" stroke-linejoin="round"/>
<path d="M706.61 88.1651C707.832 88.8708 707.832 90.0149 706.61 90.7206C705.387 91.4263 703.406 91.4263 702.183 90.7206C700.961 90.0149 700.961 88.8708 702.183 88.1651C703.406 87.4594 705.387 87.4594 706.61 88.1651Z" fill="#FFE598" stroke="black" stroke-width="0.56586" stroke-linecap="round" stroke-linejoin="round"/>
<path d="M580.393 197.712C581.606 198.412 583.574 198.412 584.787 197.712C585.394 197.362 585.697 196.903 585.697 196.444L585.697 159.733L579.483 159.733L579.483 196.444C579.483 196.903 579.786 197.362 580.393 197.712Z" fill="#FAC864" stroke="black" stroke-width="0.56586" stroke-linecap="round" stroke-linejoin="round"/>
<path d="M584.809 158.455C586.031 159.161 586.031 160.305 584.809 161.011C583.586 161.716 581.605 161.716 580.383 161.011C579.16 160.305 579.16 159.161 580.383 158.455C581.605 157.749 583.586 157.749 584.809 158.455Z" fill="#FFE598" stroke="black" stroke-width="0.56586" stroke-linecap="round" stroke-linejoin="round"/>
<path d="M671.76 145.085C672.974 145.785 674.941 145.785 676.154 145.085C676.761 144.735 677.064 144.276 677.064 143.817L677.064 107.106L670.85 107.106L670.85 143.817C670.85 144.276 671.154 144.735 671.76 145.085Z" fill="#FAC864" stroke="black" stroke-width="0.56586" stroke-linecap="round" stroke-linejoin="round"/>
<path d="M676.176 105.828C677.398 106.534 677.398 107.678 676.176 108.384C674.954 109.089 672.972 109.089 671.75 108.384C670.527 107.678 670.527 106.534 671.75 105.828C672.972 105.123 674.954 105.123 676.176 105.828Z" fill="#FFE598" stroke="black" stroke-width="0.56586" stroke-linecap="round" stroke-linejoin="round"/>
<path d="M561.918 183.468L561.918 174.599L531.052 177.608L531.052 186.551L543.884 193.952L561.918 183.468Z" fill="#505050" stroke="black" stroke-width="0.905861" stroke-linecap="round" stroke-linejoin="round"/>
<path d="M543.825 184.943V193.814" stroke="black" stroke-width="0.906213"/>
<rect width="14.7931" height="20.771" transform="matrix(-0.866025 -0.5 -0.866025 0.5 561.87 174.562)" fill="#B3B3B3" stroke="black" stroke-width="0.905861" stroke-linecap="round" stroke-linejoin="round"/>
<path d="M446.638 154.913C447.851 155.614 449.818 155.614 451.032 154.913C451.638 154.563 451.942 154.104 451.942 153.645L451.941 116.934L445.728 116.934L445.728 153.645C445.728 154.104 446.031 154.563 446.638 154.913Z" fill="#FAC864" stroke="black" stroke-width="0.56586" stroke-linecap="round" stroke-linejoin="round"/>
<path d="M451.053 115.656C452.275 116.362 452.275 117.506 451.053 118.212C449.831 118.918 447.849 118.918 446.627 118.212C445.404 117.506 445.404 116.362 446.627 115.656C447.849 114.951 449.831 114.951 451.053 115.656Z" fill="#FFE598" stroke="black" stroke-width="0.56586" stroke-linecap="round" stroke-linejoin="round"/>
<path d="M592.804 165.578L592.804 156.709L561.939 159.719L561.938 168.661L574.77 176.063L592.804 165.578Z" fill="#505050" stroke="black" stroke-width="0.905861" stroke-linecap="round" stroke-linejoin="round"/>
<path d="M574.711 167.053V175.925" stroke="black" stroke-width="0.906213"/>
<rect width="14.7931" height="20.771" transform="matrix(-0.866025 -0.5 -0.866025 0.5 592.756 156.672)" fill="#B3B3B3" stroke="black" stroke-width="0.905861" stroke-linecap="round" stroke-linejoin="round"/>
<path d="M623.672 147.69L623.672 138.82L592.806 141.83L592.806 150.773L605.638 158.174L623.672 147.69Z" fill="#505050" stroke="black" stroke-width="0.905861" stroke-linecap="round" stroke-linejoin="round"/>
<path d="M605.581 149.165V158.036" stroke="black" stroke-width="0.906213"/>
<rect width="14.7931" height="20.771" transform="matrix(-0.866025 -0.5 -0.866025 0.5 623.624 138.784)" fill="#B3B3B3" stroke="black" stroke-width="0.905861" stroke-linecap="round" stroke-linejoin="round"/>
<path d="M654.538 128.35L654.538 119.481L623.672 122.491L623.672 131.433L636.504 138.835L654.538 128.35Z" fill="#505050" stroke="black" stroke-width="0.905861" stroke-linecap="round" stroke-linejoin="round"/>
<path d="M636.446 129.825V138.697" stroke="black" stroke-width="0.906213"/>
<rect width="14.7931" height="20.771" transform="matrix(-0.866025 -0.5 -0.866025 0.5 654.491 119.444)" fill="#B3B3B3" stroke="black" stroke-width="0.905861" stroke-linecap="round" stroke-linejoin="round"/>
<path d="M685.424 110.46L685.424 101.591L654.558 104.6L654.558 113.543L667.39 120.945L685.424 110.46Z" fill="#505050" stroke="black" stroke-width="0.905861" stroke-linecap="round" stroke-linejoin="round"/>
<path d="M667.331 111.935V120.807" stroke="black" stroke-width="0.906213"/>
<rect width="14.7931" height="20.771" transform="matrix(-0.866025 -0.5 -0.866025 0.5 685.376 101.554)" fill="#B3B3B3" stroke="black" stroke-width="0.905861" stroke-linecap="round" stroke-linejoin="round"/>
<path d="M716.221 92.5707L716.221 83.7014L685.355 86.711L685.355 95.6536L698.186 103.055L716.221 92.5707Z" fill="#505050" stroke="black" stroke-width="0.905861" stroke-linecap="round" stroke-linejoin="round"/>
<path d="M698.128 94.0454V102.917" stroke="black" stroke-width="0.906213"/>
<rect width="14.7931" height="20.771" transform="matrix(-0.866025 -0.5 -0.866025 0.5 716.173 83.6649)" fill="#B3B3B3" stroke="black" stroke-width="0.905861" stroke-linecap="round" stroke-linejoin="round"/>
<path d="M542.347 186.689L725.148 81.1483C726.851 80.1655 727.68 78.8696 727.638 77.5817V65.9421L426.106 112.727V124.593C426.152 125.813 426.982 127.026 428.595 127.957L530.321 186.689C533.642 188.606 539.026 188.606 542.347 186.689Z" fill="#5E6FDB" stroke="black" stroke-width="0.905861" stroke-linecap="round" stroke-linejoin="round"/>
<rect width="131.35" height="224.967" rx="9.05861" transform="matrix(0.866025 0.5 -0.866025 0.5 617.41 0)" fill="#B0B8ED" stroke="black" stroke-width="0.905861" stroke-linecap="round" stroke-linejoin="round"/>
<rect width="73.4162" height="56.5551" transform="matrix(0.866025 -0.5 0.866025 0.5 579.269 54.515)" stroke="black" stroke-width="0.905861" stroke-linecap="round" stroke-linejoin="round"/>
<rect width="73.4162" height="56.5551" transform="matrix(0.866025 -0.5 0.866025 0.5 579.269 54.515)" stroke="black" stroke-width="0.905861" stroke-linecap="round" stroke-linejoin="round"/>
<rect width="60.6517" height="3.85374" transform="matrix(0.866025 -0.5 0.866025 0.5 593.144 53.8308)" fill="#E5E5E5" stroke="black" stroke-width="0.905861" stroke-linecap="round" stroke-linejoin="round"/>
<rect width="60.6517" height="3.85374" transform="matrix(0.866025 -0.5 0.866025 0.5 606.46 61.4401)" fill="#E5E5E5" stroke="black" stroke-width="0.905861" stroke-linecap="round" stroke-linejoin="round"/>
<rect width="60.6517" height="3.85374" transform="matrix(0.866025 -0.5 0.866025 0.5 619.73 69.0487)" fill="#E5E5E5" stroke="black" stroke-width="0.905861" stroke-linecap="round" stroke-linejoin="round"/>
<rect width="60.6517" height="3.85374" transform="matrix(0.866025 -0.5 0.866025 0.5 599.757 57.6356)" fill="#E5E5E5" stroke="black" stroke-width="0.905861" stroke-linecap="round" stroke-linejoin="round"/>
<rect width="60.6517" height="3.85374" transform="matrix(0.866025 -0.5 0.866025 0.5 613.071 65.2439)" fill="#E5E5E5" stroke="black" stroke-width="0.905861" stroke-linecap="round" stroke-linejoin="round"/>
<rect width="60.6517" height="3.85374" transform="matrix(0.866025 -0.5 0.866025 0.5 626.388 72.853)" fill="#E5E5E5" stroke="black" stroke-width="0.905861" stroke-linecap="round" stroke-linejoin="round"/>
<path d="M640.623 70.9461L687.756 43.7337L687.756 36.0055L599.788 39.6966L599.788 47.37L640.623 70.9461Z" fill="#C4C4C4"/>
<path d="M640.623 70.9461L687.756 43.7337L687.756 36.0055L599.788 39.6966L599.788 47.37L640.623 70.9461ZM640.623 70.9461L640.623 63.27" stroke="black" stroke-width="0.905861" stroke-linecap="round" stroke-linejoin="round"/>
<rect width="54.4249" height="47.1522" transform="matrix(0.866025 -0.5 0.866025 0.5 599.786 39.6667)" fill="#E5E5E5" stroke="black" stroke-width="0.905861" stroke-linecap="round" stroke-linejoin="round"/>
<rect width="25.1838" height="24.6813" transform="matrix(0.866025 -0.5 0.866025 0.5 527.108 101.303)" fill="#E5E5E5" stroke="black" stroke-width="0.905861" stroke-linecap="round" stroke-linejoin="round"/>
<path d="M548.702 111.277L566.352 101.087L566.352 98.9133L531.052 98.9133L531.052 101.087L548.702 111.277Z" fill="#464646"/>
<path d="M548.702 111.277L566.352 101.087L566.352 98.9133H531.052L531.052 101.087L548.702 111.277ZM548.702 111.277L548.702 109.126" stroke="black" stroke-width="0.905861" stroke-linecap="round" stroke-linejoin="round"/>
<rect width="20.3805" height="20.3805" transform="matrix(0.866025 -0.5 0.866025 0.5 531.052 98.9133)" fill="#464646" stroke="black" stroke-width="0.905861" stroke-linecap="round" stroke-linejoin="round"/>
<rect width="15.1228" height="18.0959" rx="7.56138" transform="matrix(0.866025 0.5 -0.866025 0.5 705.627 65.2957)" fill="#5E6FDB" stroke="black" stroke-width="0.905861" stroke-linecap="round" stroke-linejoin="round"/>
<rect width="15.1228" height="16.9856" rx="7.56138" transform="matrix(0.866025 0.5 -0.866025 0.5 674.881 83.0468)" fill="#5E6FDB" stroke="black" stroke-width="0.905861" stroke-linecap="round" stroke-linejoin="round"/>
<rect width="15.1228" height="17.141" rx="7.56138" transform="matrix(0.866025 0.5 -0.866025 0.5 644.823 100.401)" fill="#5E6FDB" stroke="black" stroke-width="0.905861" stroke-linecap="round" stroke-linejoin="round"/>
<rect width="15.1228" height="17.1429" rx="7.56138" transform="matrix(0.866025 0.5 -0.866025 0.5 614.239 118.057)" fill="#5E6FDB" stroke="black" stroke-width="0.905861" stroke-linecap="round" stroke-linejoin="round"/>
<rect width="15.1228" height="17.4707" rx="7.56138" transform="matrix(0.866025 0.5 -0.866025 0.5 583.428 135.846)" fill="#5E6FDB" stroke="black" stroke-width="0.905861" stroke-linecap="round" stroke-linejoin="round"/>
<rect width="15.1228" height="16.6061" rx="7.56138" transform="matrix(0.866025 0.5 -0.866025 0.5 552.372 153.776)" fill="#5E6FDB" stroke="black" stroke-width="0.905861" stroke-linecap="round" stroke-linejoin="round"/>
<path d="M548.464 163.498C550.5 164.674 553.802 164.674 555.839 163.498C557.108 162.765 557.587 161.748 557.274 160.802L553.743 153.125H550.573L547.029 160.802C546.716 161.748 547.194 162.765 548.464 163.498Z" fill="#D9D9D9" stroke="black" stroke-width="0.905861" stroke-linecap="round" stroke-linejoin="round"/>
<circle r="1.32444" transform="matrix(0.866025 -0.5 0.866025 0.5 552.15 153.136)" fill="#D9D9D9" stroke="black" stroke-width="0.905861" stroke-linecap="round" stroke-linejoin="round"/>
<path d="M578.912 145.654C580.949 146.83 584.251 146.83 586.288 145.654C587.557 144.921 588.035 143.904 587.722 142.958L584.192 135.281H581.022L577.478 142.958C577.165 143.904 577.643 144.921 578.912 145.654Z" fill="#D9D9D9" stroke="black" stroke-width="0.905861" stroke-linecap="round" stroke-linejoin="round"/>
<circle r="1.32444" transform="matrix(0.866025 -0.5 0.866025 0.5 582.598 135.292)" fill="#D9D9D9" stroke="black" stroke-width="0.905861" stroke-linecap="round" stroke-linejoin="round"/>
<path d="M609.346 127.81C611.383 128.986 614.685 128.986 616.722 127.81C617.991 127.077 618.469 126.06 618.157 125.114L614.626 117.437H611.456L607.912 125.114C607.599 126.06 608.077 127.077 609.346 127.81Z" fill="#D9D9D9" stroke="black" stroke-width="0.905861" stroke-linecap="round" stroke-linejoin="round"/>
<circle r="1.32444" transform="matrix(0.866025 -0.5 0.866025 0.5 613.035 117.448)" fill="#D9D9D9" stroke="black" stroke-width="0.905861" stroke-linecap="round" stroke-linejoin="round"/>
<path d="M639.827 110.147C641.864 111.323 645.166 111.323 647.202 110.147C648.472 109.414 648.95 108.398 648.637 107.451L645.107 99.7742H641.936L638.392 107.451C638.079 108.398 638.557 109.414 639.827 110.147Z" fill="#D9D9D9" stroke="black" stroke-width="0.905861" stroke-linecap="round" stroke-linejoin="round"/>
<circle r="1.32444" transform="matrix(0.866025 -0.5 0.866025 0.5 643.515 99.7849)" fill="#D9D9D9" stroke="black" stroke-width="0.905861" stroke-linecap="round" stroke-linejoin="round"/>
<path d="M670.262 92.4824C672.299 93.6583 675.601 93.6583 677.638 92.4824C678.907 91.7495 679.385 90.7329 679.073 89.7861L675.542 82.1095H672.372L668.828 89.7861C668.515 90.7329 668.993 91.7495 670.262 92.4824Z" fill="#D9D9D9" stroke="black" stroke-width="0.905861" stroke-linecap="round" stroke-linejoin="round"/>
<circle r="1.32444" transform="matrix(0.866025 -0.5 0.866025 0.5 673.951 82.1202)" fill="#D9D9D9" stroke="black" stroke-width="0.905861" stroke-linecap="round" stroke-linejoin="round"/>
<path d="M700.698 75.3641C702.735 76.54 706.037 76.54 708.073 75.3641C709.343 74.6312 709.821 73.6146 709.508 72.6679L705.978 64.9912H702.807L699.263 72.6679C698.95 73.6146 699.429 74.6312 700.698 75.3641Z" fill="#D9D9D9" stroke="black" stroke-width="0.905861" stroke-linecap="round" stroke-linejoin="round"/>
<circle r="1.32444" transform="matrix(0.866025 -0.5 0.866025 0.5 704.386 65.002)" fill="#D9D9D9" stroke="black" stroke-width="0.905861" stroke-linecap="round" stroke-linejoin="round"/>
<rect width="15.1228" height="18.0959" rx="7.56138" transform="matrix(0.866025 0.5 -0.866025 0.5 605.119 6.91699)" fill="#5E6FDB" stroke="black" stroke-width="0.905861" stroke-linecap="round" stroke-linejoin="round"/>
<rect width="15.1228" height="16.9856" rx="7.56138" transform="matrix(0.866025 0.5 -0.866025 0.5 574.373 24.668)" fill="#5E6FDB" stroke="black" stroke-width="0.905861" stroke-linecap="round" stroke-linejoin="round"/>
<rect width="15.1228" height="17.141" rx="7.56138" transform="matrix(0.866025 0.5 -0.866025 0.5 544.314 42.0225)" fill="#5E6FDB" stroke="black" stroke-width="0.905861" stroke-linecap="round" stroke-linejoin="round"/>
<rect width="15.1228" height="17.1429" rx="7.56138" transform="matrix(0.866025 0.5 -0.866025 0.5 513.73 59.6787)" fill="#5E6FDB" stroke="black" stroke-width="0.905861" stroke-linecap="round" stroke-linejoin="round"/>
<rect width="15.1228" height="17.4707" rx="7.56138" transform="matrix(0.866025 0.5 -0.866025 0.5 482.92 77.4678)" fill="#5E6FDB" stroke="black" stroke-width="0.905861" stroke-linecap="round" stroke-linejoin="round"/>
<rect width="15.1228" height="16.6061" rx="7.56138" transform="matrix(0.866025 0.5 -0.866025 0.5 451.863 95.3975)" fill="#5E6FDB" stroke="black" stroke-width="0.905861" stroke-linecap="round" stroke-linejoin="round"/>
<path d="M447.955 105.119C449.992 106.295 453.294 106.295 455.331 105.119C456.6 104.386 457.078 103.37 456.765 102.423L453.235 94.7465H450.065L446.521 102.423C446.208 103.37 446.686 104.386 447.955 105.119Z" fill="#D9D9D9" stroke="black" stroke-width="0.905861" stroke-linecap="round" stroke-linejoin="round"/>
<circle r="1.32444" transform="matrix(0.866025 -0.5 0.866025 0.5 451.641 94.7571)" fill="#D9D9D9" stroke="black" stroke-width="0.905861" stroke-linecap="round" stroke-linejoin="round"/>
<path d="M478.404 87.2756C480.441 88.4515 483.743 88.4515 485.78 87.2756C487.049 86.5427 487.528 85.5261 487.215 84.5794L483.684 76.9027H480.514L476.97 84.5794C476.657 85.5261 477.135 86.5427 478.404 87.2756Z" fill="#D9D9D9" stroke="black" stroke-width="0.905861" stroke-linecap="round" stroke-linejoin="round"/>
<circle r="1.32444" transform="matrix(0.866025 -0.5 0.866025 0.5 482.09 76.9133)" fill="#D9D9D9" stroke="black" stroke-width="0.905861" stroke-linecap="round" stroke-linejoin="round"/>
<path d="M508.84 69.4309C510.877 70.6068 514.179 70.6068 516.215 69.4309C517.485 68.698 517.963 67.6813 517.65 66.7346L514.12 59.058H510.949L507.405 66.7346C507.092 67.6813 507.571 68.698 508.84 69.4309Z" fill="#D9D9D9" stroke="black" stroke-width="0.905861" stroke-linecap="round" stroke-linejoin="round"/>
<circle r="1.32444" transform="matrix(0.866025 -0.5 0.866025 0.5 512.525 59.0686)" fill="#D9D9D9" stroke="black" stroke-width="0.905861" stroke-linecap="round" stroke-linejoin="round"/>
<path d="M539.319 51.7678C541.355 52.9437 544.657 52.9437 546.694 51.7678C547.963 51.0349 548.442 50.0183 548.129 49.0715L544.598 41.3949H541.428L537.884 49.0715C537.571 50.0183 538.049 51.0349 539.319 51.7678Z" fill="#D9D9D9" stroke="black" stroke-width="0.905861" stroke-linecap="round" stroke-linejoin="round"/>
<circle r="1.32444" transform="matrix(0.866025 -0.5 0.866025 0.5 543.004 41.4055)" fill="#D9D9D9" stroke="black" stroke-width="0.905861" stroke-linecap="round" stroke-linejoin="round"/>
<path d="M569.754 34.1047C571.791 35.2806 575.093 35.2806 577.13 34.1047C578.399 33.3718 578.877 32.3552 578.564 31.4085L575.034 23.7318H571.863L568.319 31.4085C568.006 32.3552 568.485 33.3718 569.754 34.1047Z" fill="#D9D9D9" stroke="black" stroke-width="0.905861" stroke-linecap="round" stroke-linejoin="round"/>
<circle r="1.32444" transform="matrix(0.866025 -0.5 0.866025 0.5 573.44 23.7424)" fill="#D9D9D9" stroke="black" stroke-width="0.905861" stroke-linecap="round" stroke-linejoin="round"/>
<path d="M600.19 16.9851C602.226 18.161 605.528 18.161 607.565 16.9851C608.834 16.2522 609.313 15.2355 609 14.2888L605.469 6.61218H602.299L598.755 14.2888C598.442 15.2355 598.92 16.2522 600.19 16.9851Z" fill="#D9D9D9" stroke="black" stroke-width="0.905861" stroke-linecap="round" stroke-linejoin="round"/>
<circle r="1.32444" transform="matrix(0.866025 -0.5 0.866025 0.5 603.878 6.62329)" fill="#D9D9D9" stroke="black" stroke-width="0.905861" stroke-linecap="round" stroke-linejoin="round"/>
<path d="M479.776 112.779L479.776 107.132L460.127 109.048L460.127 114.741L468.295 119.453L479.776 112.779Z" fill="#C4C4C4" stroke="black" stroke-width="0.905861" stroke-linecap="round" stroke-linejoin="round"/>
<path d="M468.258 113.716V119.364" stroke="black" stroke-width="0.906213"/>
<rect width="9.41729" height="13.2228" transform="matrix(-0.866025 -0.5 -0.866025 0.5 479.746 107.109)" fill="#D9D9D9" stroke="black" stroke-width="0.905861" stroke-linecap="round" stroke-linejoin="round"/>
<path d="M467.866 109.218C468.442 109.55 469.195 109.717 469.949 109.717C470.706 109.718 471.464 109.552 472.041 109.218C472.618 108.885 472.906 108.449 472.906 108.013L472.905 106.264L467 106.264L467.002 108.013C467.002 108.449 467.29 108.885 467.866 109.218Z" fill="black" stroke="black" stroke-width="0.56586" stroke-linecap="round" stroke-linejoin="round"/>
<path d="M472.06 105.05C473.222 105.72 473.222 106.807 472.06 107.478C470.899 108.148 469.016 108.148 467.854 107.478C466.693 106.807 466.693 105.72 467.854 105.05C469.016 104.379 470.899 104.379 472.06 105.05Z" fill="#505050" stroke="black" stroke-width="0.56586" stroke-linecap="round" stroke-linejoin="round"/>
<path d="M540.874 148.422L540.874 142.776L521.225 144.692L521.225 150.385L529.393 155.096L540.874 148.422Z" fill="#C4C4C4" stroke="black" stroke-width="0.905861" stroke-linecap="round" stroke-linejoin="round"/>
<path d="M529.355 149.36V155.008" stroke="black" stroke-width="0.906213"/>
<rect width="9.41729" height="13.2228" transform="matrix(-0.866025 -0.5 -0.866025 0.5 540.844 142.753)" fill="#D9D9D9" stroke="black" stroke-width="0.905861" stroke-linecap="round" stroke-linejoin="round"/>
<path d="M528.963 144.862C529.538 145.194 530.291 145.36 531.045 145.361C531.802 145.362 532.56 145.195 533.138 144.862C533.714 144.529 534.002 144.093 534.002 143.656L534.001 141.907L528.097 141.907L528.098 143.656C528.098 144.093 528.386 144.529 528.963 144.862Z" fill="black" stroke="black" stroke-width="0.56586" stroke-linecap="round" stroke-linejoin="round"/>
<path d="M533.156 140.693C534.317 141.364 534.317 142.451 533.156 143.122C531.994 143.792 530.112 143.792 528.95 143.122C527.789 142.451 527.789 141.364 528.95 140.693C530.112 140.023 531.994 140.023 533.156 140.693Z" fill="#505050" stroke="black" stroke-width="0.56586" stroke-linecap="round" stroke-linejoin="round"/>
<path d="M493.093 152.824L537.13 127.398L537.13 116.04L465.409 125.46L465.409 136.84L493.093 152.824Z" fill="#C4C4C4"/>
<path d="M493.093 152.824L537.13 127.398L537.13 116.04L465.409 125.46L465.409 136.84L493.093 152.824ZM493.093 152.824L493.093 141.267" stroke="black" stroke-width="0.905861" stroke-linecap="round" stroke-linejoin="round"/>
<path d="M465.408 136.856L493.092 152.84L493.092 141.419L465.408 125.477L465.408 136.856Z" fill="#505050" stroke="black" stroke-width="0.905861" stroke-linecap="round" stroke-linejoin="round"/>
<path d="M467.738 135.837L493.066 150.46L493.066 140.011L467.738 126.588L467.738 135.837Z" fill="black" stroke="black" stroke-width="0.905861" stroke-linecap="round" stroke-linejoin="round"/>
<rect width="31.9669" height="50.8503" transform="matrix(0.866025 0.5 -0.866025 0.5 509.445 100.046)" fill="#E5E5E5" stroke="black" stroke-width="0.905861" stroke-linecap="round" stroke-linejoin="round"/>
<rect width="2.67453" height="10.613" rx="1.33727" transform="matrix(-0.866025 -0.5 -0.866025 0.5 490.789 120.677)" fill="#505050" stroke="black" stroke-width="0.905861" stroke-linecap="round" stroke-linejoin="round"/>
<rect width="2.67453" height="10.613" rx="1.33727" transform="matrix(-0.866025 -0.5 -0.866025 0.5 502.883 127.545)" fill="#505050" stroke="black" stroke-width="0.905861" stroke-linecap="round" stroke-linejoin="round"/>
<rect width="5.0993" height="35.9089" transform="matrix(0.866025 -0.5 0.866025 0.5 572.589 68.5115)" fill="#E5E5E5" stroke="black" stroke-width="0.905861" stroke-linecap="round" stroke-linejoin="round"/>
<rect width="5.79616" height="35.9089" transform="matrix(0.866025 -0.5 0.866025 0.5 563.05 74.0205)" fill="#E5E5E5" stroke="black" stroke-width="0.905861" stroke-linecap="round" stroke-linejoin="round"/>
<rect width="5.87956" height="35.9089" transform="matrix(0.866025 -0.5 0.866025 0.5 552.892 79.8835)" fill="#E5E5E5" stroke="black" stroke-width="0.905861" stroke-linecap="round" stroke-linejoin="round"/>
<rect width="34.146" height="42.3046" transform="matrix(0.866025 -0.5 0.866025 0.5 547.494 80.0334)" stroke="black" stroke-width="0.905861" stroke-linecap="round" stroke-linejoin="round"/>
<rect width="70.9937" height="78.3692" transform="matrix(0.866025 -0.5 0.866025 0.5 499.966 89.4412)" stroke="black" stroke-width="0.905861" stroke-linecap="round" stroke-linejoin="round"/>
<circle r="2.13905" transform="matrix(0.866025 0.5 -0.866025 0.5 640.373 56.94)" fill="#7C7C7C" stroke="black" stroke-width="0.905861" stroke-linecap="round" stroke-linejoin="round"/>
<path d="M576.535 93.4482L600.457 79.6366L600.457 73.2791L560.503 77.8534L560.503 84.192L576.535 93.4482Z" fill="#464646"/>
<path d="M576.535 93.4482L600.457 79.6366L600.457 73.2791L560.503 77.8534L560.503 84.192L576.535 93.4482ZM576.535 93.4482L576.535 87.2058" stroke="black" stroke-width="0.905861" stroke-linecap="round" stroke-linejoin="round"/>
<rect width="27.6231" height="18.5122" transform="matrix(0.866025 -0.5 0.866025 0.5 560.503 77.8477)" fill="#464646" stroke="black" stroke-width="0.905861" stroke-linecap="round" stroke-linejoin="round"/>
</svg>
