<svg width="540" height="407" viewBox="0 0 540 407" fill="none" xmlns="http://www.w3.org/2000/svg">
<rect opacity="0.2" width="229.856" height="393.683" rx="12.1507" transform="matrix(0.866025 0.5 -0.866025 0.5 340.939 95)" fill="black" stroke="black" stroke-width="1.21507" stroke-linecap="round" stroke-linejoin="round"/>
<path d="M222.876 377.55C223.935 378.161 225.323 378.468 226.711 378.469C228.106 378.471 229.501 378.164 230.565 377.55C231.627 376.937 232.158 376.134 232.158 375.33L232.157 311.088L221.283 311.088L221.284 375.33C221.284 376.134 221.814 376.937 222.876 377.55Z" fill="#FAC864" stroke="black" stroke-width="0.759013" stroke-linecap="round" stroke-linejoin="round"/>
<path d="M230.604 308.851C232.743 310.086 232.743 312.088 230.604 313.323C228.465 314.558 224.997 314.558 222.858 313.323C220.719 312.088 220.719 310.086 222.858 308.851C224.997 307.616 228.465 307.616 230.604 308.851Z" fill="#FFE598" stroke="black" stroke-width="0.759013" stroke-linecap="round" stroke-linejoin="round"/>
<path d="M382.766 285.453C384.889 286.679 388.331 286.679 390.455 285.453C391.516 284.84 392.047 284.037 392.047 283.234L392.047 218.992L381.173 218.992L381.173 283.234C381.173 284.037 381.704 284.84 382.766 285.453Z" fill="#FAC864" stroke="black" stroke-width="0.759013" stroke-linecap="round" stroke-linejoin="round"/>
<path d="M390.492 216.756C392.631 217.991 392.631 219.993 390.492 221.228C388.354 222.463 384.886 222.463 382.747 221.228C380.608 219.993 380.608 217.991 382.747 216.756C384.886 215.521 388.354 215.521 390.492 216.756Z" fill="#FFE598" stroke="black" stroke-width="0.759013" stroke-linecap="round" stroke-linejoin="round"/>
<path d="M329.428 316.047C331.551 317.273 334.994 317.273 337.117 316.047C338.179 315.435 338.709 314.631 338.709 313.828L338.709 249.586L327.835 249.586L327.835 313.828C327.835 314.631 328.366 315.435 329.428 316.047Z" fill="#FAC864" stroke="black" stroke-width="0.759013" stroke-linecap="round" stroke-linejoin="round"/>
<path d="M337.152 247.349C339.291 248.584 339.291 250.586 337.152 251.821C335.013 253.056 331.545 253.056 329.406 251.821C327.267 250.586 327.267 248.584 329.406 247.349C331.545 246.114 335.013 246.114 337.152 247.349Z" fill="#FFE598" stroke="black" stroke-width="0.759013" stroke-linecap="round" stroke-linejoin="round"/>
<path d="M489.314 223.953C491.438 225.179 494.88 225.179 497.004 223.953C498.065 223.34 498.596 222.536 498.596 221.733L498.596 157.491L487.722 157.491L487.722 221.733C487.722 222.536 488.253 223.34 489.314 223.953Z" fill="#FAC864" stroke="black" stroke-width="0.759013" stroke-linecap="round" stroke-linejoin="round"/>
<path d="M497.041 155.255C499.18 156.49 499.18 158.492 497.041 159.727C494.902 160.962 491.435 160.962 489.296 159.727C487.157 158.492 487.157 156.49 489.296 155.255C491.435 154.02 494.902 154.02 497.041 155.255Z" fill="#FFE598" stroke="black" stroke-width="0.759013" stroke-linecap="round" stroke-linejoin="round"/>
<path d="M276.17 346.954C278.293 348.18 281.736 348.18 283.859 346.954C284.921 346.341 285.452 345.538 285.452 344.735L285.451 280.493L274.577 280.493L274.577 344.735C274.577 345.538 275.108 346.341 276.17 346.954Z" fill="#FAC864" stroke="black" stroke-width="0.759013" stroke-linecap="round" stroke-linejoin="round"/>
<path d="M283.894 278.258C286.033 279.493 286.033 281.495 283.894 282.73C281.755 283.965 278.287 283.965 276.148 282.73C274.009 281.495 274.009 279.493 276.148 278.258C278.287 277.023 281.755 277.023 283.894 278.258Z" fill="#FFE598" stroke="black" stroke-width="0.759013" stroke-linecap="round" stroke-linejoin="round"/>
<path d="M436.053 254.861C438.176 256.087 441.619 256.087 443.742 254.861C444.804 254.248 445.334 253.445 445.334 252.642L445.334 188.4L434.46 188.4L434.46 252.642C434.46 253.445 434.991 254.248 436.053 254.861Z" fill="#FAC864" stroke="black" stroke-width="0.759013" stroke-linecap="round" stroke-linejoin="round"/>
<path d="M443.78 186.164C445.918 187.399 445.918 189.401 443.78 190.636C441.641 191.871 438.173 191.871 436.034 190.636C433.895 189.401 433.895 187.399 436.034 186.164C438.173 184.929 441.641 184.929 443.78 186.164Z" fill="#FFE598" stroke="black" stroke-width="0.759013" stroke-linecap="round" stroke-linejoin="round"/>
<path d="M243.83 322.028L243.83 306.507L189.816 311.774L189.816 327.423L212.271 340.375L243.83 322.028Z" fill="#505050" stroke="black" stroke-width="1.21507" stroke-linecap="round" stroke-linejoin="round"/>
<path d="M212.171 324.609V340.135" stroke="black" stroke-width="1.21554"/>
<rect width="25.8873" height="36.3483" transform="matrix(-0.866025 -0.5 -0.866025 0.5 243.747 306.444)" fill="#B3B3B3" stroke="black" stroke-width="1.21507" stroke-linecap="round" stroke-linejoin="round"/>
<path d="M42.0957 272.06C44.219 273.286 47.6616 273.286 49.7849 272.06C50.8465 271.447 51.3773 270.643 51.3773 269.84L51.377 205.598L40.5029 205.598L40.5033 269.84C40.5033 270.643 41.0341 271.447 42.0957 272.06Z" fill="#FAC864" stroke="black" stroke-width="0.759013" stroke-linecap="round" stroke-linejoin="round"/>
<path d="M49.8206 203.361C51.9595 204.596 51.9595 206.598 49.8206 207.833C47.6817 209.068 44.2138 209.068 42.0749 207.833C39.936 206.598 39.936 204.596 42.0749 203.361C44.2138 202.126 47.6817 202.126 49.8206 203.361Z" fill="#FFE598" stroke="black" stroke-width="0.759013" stroke-linecap="round" stroke-linejoin="round"/>
<path d="M297.883 290.723L297.883 275.202L243.869 280.468L243.869 296.117L266.324 309.07L297.883 290.723Z" fill="#505050" stroke="black" stroke-width="1.21507" stroke-linecap="round" stroke-linejoin="round"/>
<path d="M266.224 293.303V308.828" stroke="black" stroke-width="1.21554"/>
<rect width="25.8873" height="36.3483" transform="matrix(-0.866025 -0.5 -0.866025 0.5 297.8 275.138)" fill="#B3B3B3" stroke="black" stroke-width="1.21507" stroke-linecap="round" stroke-linejoin="round"/>
<path d="M351.902 259.417L351.901 243.896L297.888 249.163L297.888 264.812L320.342 277.764L351.902 259.417Z" fill="#505050" stroke="black" stroke-width="1.21507" stroke-linecap="round" stroke-linejoin="round"/>
<path d="M320.242 261.997V277.522" stroke="black" stroke-width="1.21554"/>
<rect width="25.8873" height="36.3483" transform="matrix(-0.866025 -0.5 -0.866025 0.5 351.818 243.833)" fill="#B3B3B3" stroke="black" stroke-width="1.21507" stroke-linecap="round" stroke-linejoin="round"/>
<path d="M405.911 225.574L405.911 210.053L351.898 215.319L351.897 230.969L374.352 243.921L405.911 225.574Z" fill="#505050" stroke="black" stroke-width="1.21507" stroke-linecap="round" stroke-linejoin="round"/>
<path d="M374.252 228.155V243.681" stroke="black" stroke-width="1.21554"/>
<rect width="25.8873" height="36.3483" transform="matrix(-0.866025 -0.5 -0.866025 0.5 405.828 209.99)" fill="#B3B3B3" stroke="black" stroke-width="1.21507" stroke-linecap="round" stroke-linejoin="round"/>
<path d="M459.962 194.268L459.962 178.748L405.948 184.014L405.948 199.663L428.403 212.616L459.962 194.268Z" fill="#505050" stroke="black" stroke-width="1.21507" stroke-linecap="round" stroke-linejoin="round"/>
<path d="M428.303 196.849V212.374" stroke="black" stroke-width="1.21554"/>
<rect width="25.8873" height="36.3483" transform="matrix(-0.866025 -0.5 -0.866025 0.5 459.879 178.684)" fill="#B3B3B3" stroke="black" stroke-width="1.21507" stroke-linecap="round" stroke-linejoin="round"/>
<path d="M513.854 162.963L513.853 147.442L459.84 152.709L459.84 168.358L482.294 181.311L513.854 162.963Z" fill="#505050" stroke="black" stroke-width="1.21507" stroke-linecap="round" stroke-linejoin="round"/>
<path d="M482.194 165.544V181.069" stroke="black" stroke-width="1.21554"/>
<rect width="25.8873" height="36.3483" transform="matrix(-0.866025 -0.5 -0.866025 0.5 513.771 147.379)" fill="#B3B3B3" stroke="black" stroke-width="1.21507" stroke-linecap="round" stroke-linejoin="round"/>
<path d="M209.586 327.665L529.48 142.974C532.458 141.254 533.911 138.987 533.836 136.733V116.364L6.16992 198.235V219C6.25014 221.136 7.70187 223.258 10.5251 224.888L188.54 327.665C194.352 331.02 203.774 331.02 209.586 327.665Z" fill="#55A398" stroke="black" stroke-width="1.21507" stroke-linecap="round" stroke-linejoin="round"/>
<rect width="229.856" height="393.683" rx="12.1507" transform="matrix(0.866025 0.5 -0.866025 0.5 340.939 0.967773)" fill="#BDDCD8" stroke="black" stroke-width="1.21507" stroke-linecap="round" stroke-linejoin="round"/>
<rect width="128.475" height="98.9688" transform="matrix(0.866025 -0.5 0.866025 0.5 274.195 96.3667)" stroke="black" stroke-width="1.21507" stroke-linecap="round" stroke-linejoin="round"/>
<rect width="128.475" height="98.9688" transform="matrix(0.866025 -0.5 0.866025 0.5 274.195 96.3667)" stroke="black" stroke-width="1.21507" stroke-linecap="round" stroke-linejoin="round"/>
<rect width="106.138" height="6.74387" transform="matrix(0.866025 -0.5 0.866025 0.5 298.476 95.1694)" fill="#E5E5E5" stroke="black" stroke-width="1.21507" stroke-linecap="round" stroke-linejoin="round"/>
<rect width="106.138" height="6.74387" transform="matrix(0.866025 -0.5 0.866025 0.5 321.778 108.486)" fill="#E5E5E5" stroke="black" stroke-width="1.21507" stroke-linecap="round" stroke-linejoin="round"/>
<rect width="106.138" height="6.74387" transform="matrix(0.866025 -0.5 0.866025 0.5 345 121.8)" fill="#E5E5E5" stroke="black" stroke-width="1.21507" stroke-linecap="round" stroke-linejoin="round"/>
<rect width="106.138" height="6.74387" transform="matrix(0.866025 -0.5 0.866025 0.5 310.049 101.826)" fill="#E5E5E5" stroke="black" stroke-width="1.21507" stroke-linecap="round" stroke-linejoin="round"/>
<rect width="106.138" height="6.74387" transform="matrix(0.866025 -0.5 0.866025 0.5 333.351 115.142)" fill="#E5E5E5" stroke="black" stroke-width="1.21507" stroke-linecap="round" stroke-linejoin="round"/>
<rect width="106.138" height="6.74387" transform="matrix(0.866025 -0.5 0.866025 0.5 356.649 128.457)" fill="#E5E5E5" stroke="black" stroke-width="1.21507" stroke-linecap="round" stroke-linejoin="round"/>
<path d="M381.56 125.12L464.041 77.4995L464.041 63.9755L310.101 70.4349L310.101 83.863L381.56 125.12Z" fill="#C4C4C4"/>
<path d="M381.56 125.12L464.041 77.4995L464.041 63.9755L310.101 70.4349L310.101 83.863L381.56 125.12ZM381.56 125.12L381.56 111.687" stroke="black" stroke-width="1.21507" stroke-linecap="round" stroke-linejoin="round"/>
<rect width="95.2411" height="82.5141" transform="matrix(0.866025 -0.5 0.866025 0.5 310.101 70.3833)" fill="#E5E5E5" stroke="black" stroke-width="1.21507" stroke-linecap="round" stroke-linejoin="round"/>
<rect width="44.0705" height="43.1911" transform="matrix(0.866025 -0.5 0.866025 0.5 182.918 178.243)" fill="#E5E5E5" stroke="black" stroke-width="1.21507" stroke-linecap="round" stroke-linejoin="round"/>
<path d="M220.704 195.699L251.591 177.866L251.591 174.062L189.817 174.062L189.817 177.866L220.704 195.699Z" fill="#464646"/>
<path d="M220.704 195.699L251.591 177.866L251.591 174.062H189.817L189.817 177.866L220.704 195.699ZM220.704 195.699L220.704 191.934" stroke="black" stroke-width="1.21507" stroke-linecap="round" stroke-linejoin="round"/>
<rect width="35.6649" height="35.6649" transform="matrix(0.866025 -0.5 0.866025 0.5 189.819 174.062)" fill="#464646" stroke="black" stroke-width="1.21507" stroke-linecap="round" stroke-linejoin="round"/>
<rect width="26.4641" height="31.6671" rx="12.1507" transform="matrix(0.866025 0.5 -0.866025 0.5 495.312 115.231)" fill="#55A398" stroke="black" stroke-width="1.21507" stroke-linecap="round" stroke-linejoin="round"/>
<rect width="26.4641" height="29.7241" rx="12.1507" transform="matrix(0.866025 0.5 -0.866025 0.5 441.509 146.294)" fill="#55A398" stroke="black" stroke-width="1.21507" stroke-linecap="round" stroke-linejoin="round"/>
<rect width="26.4641" height="29.9959" rx="12.1507" transform="matrix(0.866025 0.5 -0.866025 0.5 388.907 176.663)" fill="#55A398" stroke="black" stroke-width="1.21507" stroke-linecap="round" stroke-linejoin="round"/>
<rect width="26.4641" height="29.9992" rx="12.1507" transform="matrix(0.866025 0.5 -0.866025 0.5 335.389 207.563)" fill="#55A398" stroke="black" stroke-width="1.21507" stroke-linecap="round" stroke-linejoin="round"/>
<rect width="26.4641" height="30.5729" rx="12.1507" transform="matrix(0.866025 0.5 -0.866025 0.5 281.473 238.691)" fill="#55A398" stroke="black" stroke-width="1.21507" stroke-linecap="round" stroke-linejoin="round"/>
<rect width="26.4641" height="29.0598" rx="12.1507" transform="matrix(0.866025 0.5 -0.866025 0.5 227.127 270.069)" fill="#55A398" stroke="black" stroke-width="1.21507" stroke-linecap="round" stroke-linejoin="round"/>
<path d="M220.284 287.08C223.848 289.138 229.627 289.138 233.191 287.08C235.412 285.798 236.249 284.019 235.702 282.362L229.524 268.928H223.976L217.774 282.362C217.226 284.019 218.063 285.798 220.284 287.08Z" fill="#D9D9D9" stroke="black" stroke-width="1.21507" stroke-linecap="round" stroke-linejoin="round"/>
<circle r="2.31772" transform="matrix(0.866025 -0.5 0.866025 0.5 226.739 268.948)" fill="#D9D9D9" stroke="black" stroke-width="1.21507" stroke-linecap="round" stroke-linejoin="round"/>
<path d="M273.57 255.855C277.134 257.913 282.912 257.913 286.476 255.855C288.698 254.573 289.534 252.794 288.987 251.137L282.809 237.703H277.261L271.059 251.137C270.511 252.794 271.348 254.573 273.57 255.855Z" fill="#D9D9D9" stroke="black" stroke-width="1.21507" stroke-linecap="round" stroke-linejoin="round"/>
<circle r="2.31772" transform="matrix(0.866025 -0.5 0.866025 0.5 280.024 237.723)" fill="#D9D9D9" stroke="black" stroke-width="1.21507" stroke-linecap="round" stroke-linejoin="round"/>
<path d="M326.827 224.627C330.391 226.685 336.17 226.685 339.734 224.627C341.955 223.345 342.792 221.566 342.245 219.909L336.067 206.475H330.519L324.317 219.909C323.769 221.566 324.606 223.345 326.827 224.627Z" fill="#D9D9D9" stroke="black" stroke-width="1.21507" stroke-linecap="round" stroke-linejoin="round"/>
<circle r="2.31772" transform="matrix(0.866025 -0.5 0.866025 0.5 333.282 206.495)" fill="#D9D9D9" stroke="black" stroke-width="1.21507" stroke-linecap="round" stroke-linejoin="round"/>
<path d="M380.166 193.719C383.73 195.777 389.509 195.777 393.073 193.719C395.294 192.436 396.131 190.657 395.584 189.001L389.405 175.567H383.858L377.656 189.001C377.108 190.657 377.945 192.436 380.166 193.719Z" fill="#D9D9D9" stroke="black" stroke-width="1.21507" stroke-linecap="round" stroke-linejoin="round"/>
<circle r="2.31772" transform="matrix(0.866025 -0.5 0.866025 0.5 386.621 175.586)" fill="#D9D9D9" stroke="black" stroke-width="1.21507" stroke-linecap="round" stroke-linejoin="round"/>
<path d="M433.425 162.807C436.989 164.865 442.768 164.865 446.332 162.807C448.553 161.524 449.39 159.745 448.842 158.089L442.664 144.655H437.116L430.914 158.089C430.367 159.745 431.204 161.524 433.425 162.807Z" fill="#D9D9D9" stroke="black" stroke-width="1.21507" stroke-linecap="round" stroke-linejoin="round"/>
<circle r="2.31772" transform="matrix(0.866025 -0.5 0.866025 0.5 439.88 144.674)" fill="#D9D9D9" stroke="black" stroke-width="1.21507" stroke-linecap="round" stroke-linejoin="round"/>
<path d="M486.685 132.85C490.249 134.908 496.027 134.908 499.592 132.85C501.813 131.568 502.65 129.789 502.102 128.132L495.924 114.698H490.376L484.174 128.132C483.627 129.789 484.463 131.568 486.685 132.85Z" fill="#D9D9D9" stroke="black" stroke-width="1.21507" stroke-linecap="round" stroke-linejoin="round"/>
<circle r="2.31772" transform="matrix(0.866025 -0.5 0.866025 0.5 493.139 114.718)" fill="#D9D9D9" stroke="black" stroke-width="1.21507" stroke-linecap="round" stroke-linejoin="round"/>
<rect width="26.4641" height="31.6671" rx="12.1507" transform="matrix(0.866025 0.5 -0.866025 0.5 319.429 13.0713)" fill="#55A398" stroke="black" stroke-width="1.21507" stroke-linecap="round" stroke-linejoin="round"/>
<rect width="26.4641" height="29.7241" rx="12.1507" transform="matrix(0.866025 0.5 -0.866025 0.5 265.625 44.1367)" fill="#55A398" stroke="black" stroke-width="1.21507" stroke-linecap="round" stroke-linejoin="round"/>
<rect width="26.4641" height="29.9959" rx="12.1507" transform="matrix(0.866025 0.5 -0.866025 0.5 213.023 74.5054)" fill="#55A398" stroke="black" stroke-width="1.21507" stroke-linecap="round" stroke-linejoin="round"/>
<rect width="26.4641" height="29.9992" rx="12.1507" transform="matrix(0.866025 0.5 -0.866025 0.5 159.505 105.405)" fill="#55A398" stroke="black" stroke-width="1.21507" stroke-linecap="round" stroke-linejoin="round"/>
<rect width="26.4641" height="30.5729" rx="12.1507" transform="matrix(0.866025 0.5 -0.866025 0.5 105.589 136.534)" fill="#55A398" stroke="black" stroke-width="1.21507" stroke-linecap="round" stroke-linejoin="round"/>
<rect width="26.4641" height="29.0598" rx="12.1507" transform="matrix(0.866025 0.5 -0.866025 0.5 51.2432 167.91)" fill="#55A398" stroke="black" stroke-width="1.21507" stroke-linecap="round" stroke-linejoin="round"/>
<path d="M44.4006 184.922C47.9647 186.979 53.7432 186.979 57.3073 184.922C59.5287 183.639 60.3655 181.86 59.818 180.203L53.6398 166.77H48.092L41.89 180.203C41.3424 181.86 42.1793 183.639 44.4006 184.922Z" fill="#D9D9D9" stroke="black" stroke-width="1.21507" stroke-linecap="round" stroke-linejoin="round"/>
<circle r="2.31772" transform="matrix(0.866025 -0.5 0.866025 0.5 50.8552 166.789)" fill="#D9D9D9" stroke="black" stroke-width="1.21507" stroke-linecap="round" stroke-linejoin="round"/>
<path d="M97.6867 153.696C101.251 155.753 107.029 155.753 110.593 153.696C112.815 152.413 113.652 150.634 113.104 148.977L106.926 135.543H101.378L95.1761 148.977C94.6285 150.634 95.4654 152.413 97.6867 153.696Z" fill="#D9D9D9" stroke="black" stroke-width="1.21507" stroke-linecap="round" stroke-linejoin="round"/>
<circle r="2.31772" transform="matrix(0.866025 -0.5 0.866025 0.5 104.141 135.563)" fill="#D9D9D9" stroke="black" stroke-width="1.21507" stroke-linecap="round" stroke-linejoin="round"/>
<path d="M150.945 122.47C154.509 124.528 160.287 124.528 163.851 122.47C166.073 121.187 166.909 119.408 166.362 117.752L160.184 104.318H154.636L148.434 117.752C147.886 119.408 148.723 121.187 150.945 122.47Z" fill="#D9D9D9" stroke="black" stroke-width="1.21507" stroke-linecap="round" stroke-linejoin="round"/>
<circle r="2.31772" transform="matrix(0.866025 -0.5 0.866025 0.5 157.399 104.337)" fill="#D9D9D9" stroke="black" stroke-width="1.21507" stroke-linecap="round" stroke-linejoin="round"/>
<path d="M204.286 91.5618C207.85 93.6195 213.629 93.6195 217.193 91.5618C219.414 90.2793 220.251 88.5001 219.704 86.8435L213.526 73.4097H207.978L201.776 86.8435C201.228 88.5001 202.065 90.2793 204.286 91.5618Z" fill="#D9D9D9" stroke="black" stroke-width="1.21507" stroke-linecap="round" stroke-linejoin="round"/>
<circle r="2.31772" transform="matrix(0.866025 -0.5 0.866025 0.5 210.741 73.4292)" fill="#D9D9D9" stroke="black" stroke-width="1.21507" stroke-linecap="round" stroke-linejoin="round"/>
<path d="M257.543 60.6516C261.107 62.7093 266.886 62.7093 270.45 60.6516C272.671 59.3691 273.508 57.59 272.961 55.9333L266.782 42.4995H261.235L255.033 55.9333C254.485 57.59 255.322 59.3691 257.543 60.6516Z" fill="#D9D9D9" stroke="black" stroke-width="1.21507" stroke-linecap="round" stroke-linejoin="round"/>
<circle r="2.31772" transform="matrix(0.866025 -0.5 0.866025 0.5 263.998 42.519)" fill="#D9D9D9" stroke="black" stroke-width="1.21507" stroke-linecap="round" stroke-linejoin="round"/>
<path d="M310.803 30.6936C314.367 32.7513 320.146 32.7513 323.71 30.6936C325.931 29.4111 326.768 27.632 326.22 25.9753L320.042 12.5415H314.494L308.292 25.9753C307.745 27.632 308.582 29.4111 310.803 30.6936Z" fill="#D9D9D9" stroke="black" stroke-width="1.21507" stroke-linecap="round" stroke-linejoin="round"/>
<circle r="2.31772" transform="matrix(0.866025 -0.5 0.866025 0.5 317.258 12.561)" fill="#D9D9D9" stroke="black" stroke-width="1.21507" stroke-linecap="round" stroke-linejoin="round"/>
<path d="M100.09 198.328L100.09 188.447L65.7051 191.8L65.7051 201.762L79.9995 210.008L100.09 198.328Z" fill="#C4C4C4" stroke="black" stroke-width="1.21507" stroke-linecap="round" stroke-linejoin="round"/>
<path d="M79.9365 199.969V209.853" stroke="black" stroke-width="1.21554"/>
<rect width="16.4798" height="23.1393" transform="matrix(-0.866025 -0.5 -0.866025 0.5 100.037 188.406)" fill="#D9D9D9" stroke="black" stroke-width="1.21507" stroke-linecap="round" stroke-linejoin="round"/>
<path d="M79.2477 192.095C80.2542 192.676 81.5727 192.967 82.8919 192.968C84.2169 192.97 85.5427 192.679 86.5537 192.095C87.5625 191.512 88.0669 190.749 88.0669 189.986L88.0648 186.925L77.7324 186.925L77.7345 189.986C77.7345 190.749 78.2389 191.512 79.2477 192.095Z" fill="black" stroke="black" stroke-width="0.759013" stroke-linecap="round" stroke-linejoin="round"/>
<path d="M86.5843 184.8C88.6167 185.974 88.6167 187.876 86.5843 189.05C84.552 190.223 81.2568 190.223 79.2245 189.05C77.1921 187.876 77.1921 185.974 79.2245 184.8C81.2568 183.627 84.552 183.627 86.5843 184.8Z" fill="#505050" stroke="black" stroke-width="0.759013" stroke-linecap="round" stroke-linejoin="round"/>
<path d="M207.008 260.7L207.008 250.82L172.623 254.173L172.623 264.135L186.917 272.38L207.008 260.7Z" fill="#C4C4C4" stroke="black" stroke-width="1.21507" stroke-linecap="round" stroke-linejoin="round"/>
<path d="M186.854 262.342V272.225" stroke="black" stroke-width="1.21554"/>
<rect width="16.4798" height="23.1393" transform="matrix(-0.866025 -0.5 -0.866025 0.5 206.955 250.778)" fill="#D9D9D9" stroke="black" stroke-width="1.21507" stroke-linecap="round" stroke-linejoin="round"/>
<path d="M186.162 254.47C187.168 255.051 188.487 255.343 189.806 255.344C191.131 255.345 192.457 255.054 193.468 254.47C194.477 253.888 194.981 253.125 194.981 252.361L194.979 249.3L184.646 249.3L184.649 252.361C184.649 253.125 185.153 253.888 186.162 254.47Z" fill="black" stroke="black" stroke-width="0.759013" stroke-linecap="round" stroke-linejoin="round"/>
<path d="M193.503 247.175C195.536 248.348 195.536 250.251 193.503 251.424C191.471 252.598 188.176 252.598 186.143 251.424C184.111 250.251 184.111 248.348 186.143 247.175C188.176 246.002 191.471 246.002 193.503 247.175Z" fill="#505050" stroke="black" stroke-width="0.759013" stroke-linecap="round" stroke-linejoin="round"/>
<path d="M123.385 268.401L200.449 223.909L200.449 204.032L74.9393 220.517L74.9393 240.431L123.385 268.401Z" fill="#C4C4C4"/>
<path d="M123.385 268.401L200.449 223.909L200.449 204.032L74.9393 220.517L74.9393 240.431L123.385 268.401ZM123.385 268.401L123.385 248.177" stroke="black" stroke-width="1.21507" stroke-linecap="round" stroke-linejoin="round"/>
<path d="M74.9412 240.459L123.387 268.43L123.387 248.443L74.9412 220.545L74.9412 240.459Z" fill="#505050" stroke="black" stroke-width="1.21507" stroke-linecap="round" stroke-linejoin="round"/>
<path d="M79.0221 238.676L123.344 264.266L123.344 245.981L79.0218 222.492L79.0221 238.676Z" fill="black" stroke="black" stroke-width="1.21507" stroke-linecap="round" stroke-linejoin="round"/>
<rect width="55.9406" height="88.9856" transform="matrix(0.866025 0.5 -0.866025 0.5 152.004 176.043)" fill="#E5E5E5" stroke="black" stroke-width="1.21507" stroke-linecap="round" stroke-linejoin="round"/>
<rect width="4.68031" height="18.5723" rx="2.34016" transform="matrix(-0.866025 -0.5 -0.866025 0.5 119.358 212.146)" fill="#505050" stroke="black" stroke-width="1.21507" stroke-linecap="round" stroke-linejoin="round"/>
<rect width="4.68031" height="18.5723" rx="2.34016" transform="matrix(-0.866025 -0.5 -0.866025 0.5 140.521 224.165)" fill="#505050" stroke="black" stroke-width="1.21507" stroke-linecap="round" stroke-linejoin="round"/>
<rect width="8.92353" height="62.8388" transform="matrix(0.866025 -0.5 0.866025 0.5 262.508 120.859)" fill="#E5E5E5" stroke="black" stroke-width="1.21507" stroke-linecap="round" stroke-linejoin="round"/>
<rect width="10.143" height="62.8388" transform="matrix(0.866025 -0.5 0.866025 0.5 245.812 130.5)" fill="#E5E5E5" stroke="black" stroke-width="1.21507" stroke-linecap="round" stroke-linejoin="round"/>
<rect width="10.289" height="62.8388" transform="matrix(0.866025 -0.5 0.866025 0.5 228.039 140.761)" fill="#E5E5E5" stroke="black" stroke-width="1.21507" stroke-linecap="round" stroke-linejoin="round"/>
<rect width="59.754" height="74.0311" transform="matrix(0.866025 -0.5 0.866025 0.5 218.592 141.023)" stroke="black" stroke-width="1.21507" stroke-linecap="round" stroke-linejoin="round"/>
<rect width="124.236" height="137.142" transform="matrix(0.866025 -0.5 0.866025 0.5 135.418 157.485)" stroke="black" stroke-width="1.21507" stroke-linecap="round" stroke-linejoin="round"/>
<circle r="3.74324" transform="matrix(0.866025 0.5 -0.866025 0.5 381.124 100.61)" fill="#7C7C7C" stroke="black" stroke-width="1.21507" stroke-linecap="round" stroke-linejoin="round"/>
<path d="M269.412 164.499L311.274 140.33L311.274 129.204L241.356 137.209L241.356 148.302L269.412 164.499Z" fill="#464646"/>
<path d="M269.412 164.499L311.274 140.33L311.274 129.204L241.356 137.209L241.356 148.302L269.412 164.499ZM269.412 164.499L269.412 153.575" stroke="black" stroke-width="1.21507" stroke-linecap="round" stroke-linejoin="round"/>
<rect width="48.3391" height="32.3956" transform="matrix(0.866025 -0.5 0.866025 0.5 241.357 137.199)" fill="#464646" stroke="black" stroke-width="1.21507" stroke-linecap="round" stroke-linejoin="round"/>
</svg>
