<svg width="1221" height="1933" viewBox="0 0 1221 1933" fill="none" xmlns="http://www.w3.org/2000/svg">
<path d="M626.932 1851.32L1127.18 1562.5C1131.76 1559.86 1134.03 1556.39 1134 1552.92L1133.85 1487H86.9573L86.955 1552.92C86.92 1556.39 89.192 1559.86 93.7707 1562.5L594.021 1851.32C603.109 1856.57 617.844 1856.57 626.932 1851.32Z" fill="#55A398" stroke="black" stroke-width="2.37393" stroke-linecap="round" stroke-linejoin="round"/>
<path d="M594.018 1188.46C603.106 1183.22 617.841 1183.22 626.929 1188.46L1127.18 1477.28C1136.27 1482.53 1136.27 1491.04 1127.18 1496.28L626.929 1785.1C617.841 1790.35 603.106 1790.35 594.018 1785.1L93.7673 1496.28C84.6791 1491.04 84.6791 1482.53 93.7673 1477.28L594.018 1188.46Z" fill="#BDDCD8" stroke="black" stroke-width="2.37393" stroke-linecap="round" stroke-linejoin="round"/>
<rect width="615.391" height="27.0189" transform="matrix(0.866025 0.5 -0.866025 0.5 453.656 1269.46)" fill="#FFE496" stroke="black" stroke-width="2.37393" stroke-linecap="round" stroke-linejoin="round"/>
<rect width="615.683" height="27.0189" transform="matrix(0.866025 0.5 -0.866025 0.5 389.572 1306.37)" fill="#FFE496" stroke="black" stroke-width="2.37393" stroke-linecap="round" stroke-linejoin="round"/>
<rect width="615.343" height="27.0189" transform="matrix(0.866025 0.5 -0.866025 0.5 325.917 1343.11)" fill="#FFE496" stroke="black" stroke-width="2.37393" stroke-linecap="round" stroke-linejoin="round"/>
<rect width="615.627" height="27.0189" transform="matrix(0.866025 0.5 -0.866025 0.5 261.84 1380.15)" fill="#FFE496" stroke="black" stroke-width="2.37393" stroke-linecap="round" stroke-linejoin="round"/>
<rect width="615.391" height="27.0189" transform="matrix(-0.866025 0.5 0.866025 0.5 769.277 1270.58)" fill="#FFE496" stroke="black" stroke-width="2.37393" stroke-linecap="round" stroke-linejoin="round"/>
<rect width="615.683" height="27.0189" transform="matrix(-0.866025 0.5 0.866025 0.5 833.36 1307.49)" fill="#FFE496" stroke="black" stroke-width="2.37393" stroke-linecap="round" stroke-linejoin="round"/>
<rect width="615.343" height="27.0189" transform="matrix(-0.866025 0.5 0.866025 0.5 897.02 1344.23)" fill="#FFE496" stroke="black" stroke-width="2.37393" stroke-linecap="round" stroke-linejoin="round"/>
<rect width="615.627" height="27.0189" transform="matrix(-0.866025 0.5 0.866025 0.5 961.092 1381.27)" fill="#FFE496" stroke="black" stroke-width="2.37393" stroke-linecap="round" stroke-linejoin="round"/>
<path d="M621.956 1705.58L970.893 1504.12C974.087 1502.28 975.672 1499.86 975.647 1497.44L975.547 1451.46H245.309L245.307 1497.44C245.283 1499.86 246.868 1502.28 250.062 1504.12L598.999 1705.58C605.338 1709.24 615.616 1709.24 621.956 1705.58Z" fill="black" stroke="black" stroke-width="2.37393" stroke-linecap="round" stroke-linejoin="round"/>
<path d="M598.995 1243.22C605.335 1239.56 615.612 1239.56 621.952 1243.22L970.889 1444.68C977.229 1448.34 977.229 1454.28 970.889 1457.94L621.952 1659.4C615.612 1663.06 605.335 1663.06 598.995 1659.4L250.058 1457.94C243.718 1454.28 243.718 1448.34 250.058 1444.68L598.995 1243.22Z" fill="#B3B3B3" stroke="black" stroke-width="2.37393" stroke-linecap="round" stroke-linejoin="round"/>
<circle r="10.3287" transform="matrix(0.866025 0.5 -0.866025 0.5 610.508 1627.77)" fill="#505050" stroke="black" stroke-width="2.37393" stroke-linecap="round" stroke-linejoin="round"/>
<path d="M724.509 1620.41L748.889 1635.41L725.96 1675.13L701.11 1660.82L701.11 1633.92L724.509 1620.41Z" fill="#B3B3B3" stroke="black" stroke-width="2.37393" stroke-linecap="round" stroke-linejoin="round"/>
<path d="M748.951 1635.42L748.951 1661.6L726.146 1674.77L726.146 1648.14L748.951 1635.42Z" fill="#B3B3B3" stroke="black" stroke-width="2.37393" stroke-linecap="round" stroke-linejoin="round"/>
<path d="M724.115 1620.23L749.077 1634.79L726.141 1648.41L701.422 1633.8L724.115 1620.23Z" fill="#D9D9D9" stroke="black" stroke-width="2.37393" stroke-linecap="round" stroke-linejoin="round"/>
<path d="M788.485 1583.36L812.865 1598.35L789.936 1638.08L765.086 1623.76L765.086 1596.87L788.485 1583.36Z" fill="#B3B3B3" stroke="black" stroke-width="2.37393" stroke-linecap="round" stroke-linejoin="round"/>
<path d="M812.927 1598.36L812.927 1624.55L790.123 1637.71L790.123 1611.09L812.927 1598.36Z" fill="#B3B3B3" stroke="black" stroke-width="2.37393" stroke-linecap="round" stroke-linejoin="round"/>
<path d="M788.091 1583.17L813.054 1597.74L790.117 1611.36L765.399 1596.74L788.091 1583.17Z" fill="#D9D9D9" stroke="black" stroke-width="2.37393" stroke-linecap="round" stroke-linejoin="round"/>
<path d="M852.811 1546.54L877.191 1561.54L854.262 1601.26L829.412 1586.95L829.412 1560.05L852.811 1546.54Z" fill="#B3B3B3" stroke="black" stroke-width="2.37393" stroke-linecap="round" stroke-linejoin="round"/>
<path d="M877.253 1561.55L877.253 1587.73L854.448 1600.9L854.448 1574.27L877.253 1561.55Z" fill="#B3B3B3" stroke="black" stroke-width="2.37393" stroke-linecap="round" stroke-linejoin="round"/>
<path d="M852.417 1546.36L877.38 1560.92L854.443 1574.54L829.725 1559.93L852.417 1546.36Z" fill="#D9D9D9" stroke="black" stroke-width="2.37393" stroke-linecap="round" stroke-linejoin="round"/>
<path d="M916.018 1508.99L940.397 1523.99L917.469 1563.71L892.619 1549.4L892.619 1522.5L916.018 1508.99Z" fill="#B3B3B3" stroke="black" stroke-width="2.37393" stroke-linecap="round" stroke-linejoin="round"/>
<path d="M940.46 1524L940.46 1550.18L917.655 1563.35L917.655 1536.72L940.46 1524Z" fill="#B3B3B3" stroke="black" stroke-width="2.37393" stroke-linecap="round" stroke-linejoin="round"/>
<path d="M915.624 1508.81L940.586 1523.37L917.649 1536.99L892.931 1522.38L915.624 1508.81Z" fill="#D9D9D9" stroke="black" stroke-width="2.37393" stroke-linecap="round" stroke-linejoin="round"/>
<path d="M500.098 1620.41L475.718 1635.41L498.647 1675.13L523.497 1660.82L523.497 1633.92L500.098 1620.41Z" fill="#B3B3B3" stroke="black" stroke-width="2.37393" stroke-linecap="round" stroke-linejoin="round"/>
<path d="M475.656 1635.42L475.656 1661.6L498.461 1674.77L498.461 1648.14L475.656 1635.42Z" fill="#B3B3B3" stroke="black" stroke-width="2.37393" stroke-linecap="round" stroke-linejoin="round"/>
<path d="M500.492 1620.23L475.53 1634.79L498.466 1648.41L523.185 1633.8L500.492 1620.23Z" fill="#D9D9D9" stroke="black" stroke-width="2.37393" stroke-linecap="round" stroke-linejoin="round"/>
<path d="M436.121 1583.36L411.742 1598.35L434.671 1638.08L459.521 1623.76L459.521 1596.87L436.121 1583.36Z" fill="#B3B3B3" stroke="black" stroke-width="2.37393" stroke-linecap="round" stroke-linejoin="round"/>
<path d="M411.679 1598.36L411.679 1624.55L434.484 1637.71L434.484 1611.09L411.679 1598.36Z" fill="#B3B3B3" stroke="black" stroke-width="2.37393" stroke-linecap="round" stroke-linejoin="round"/>
<path d="M436.516 1583.17L411.553 1597.74L434.49 1611.36L459.208 1596.74L436.516 1583.17Z" fill="#D9D9D9" stroke="black" stroke-width="2.37393" stroke-linecap="round" stroke-linejoin="round"/>
<path d="M371.8 1546.54L347.42 1561.54L370.349 1601.26L395.199 1586.95L395.199 1560.05L371.8 1546.54Z" fill="#B3B3B3" stroke="black" stroke-width="2.37393" stroke-linecap="round" stroke-linejoin="round"/>
<path d="M347.358 1561.55L347.358 1587.73L370.163 1600.9L370.163 1574.27L347.358 1561.55Z" fill="#B3B3B3" stroke="black" stroke-width="2.37393" stroke-linecap="round" stroke-linejoin="round"/>
<path d="M372.194 1546.36L347.231 1560.92L370.168 1574.54L394.886 1559.93L372.194 1546.36Z" fill="#D9D9D9" stroke="black" stroke-width="2.37393" stroke-linecap="round" stroke-linejoin="round"/>
<path d="M308.586 1508.99L284.206 1523.99L307.135 1563.71L331.985 1549.4L331.985 1522.5L308.586 1508.99Z" fill="#B3B3B3" stroke="black" stroke-width="2.37393" stroke-linecap="round" stroke-linejoin="round"/>
<path d="M284.144 1524L284.144 1550.18L306.949 1563.35L306.949 1536.72L284.144 1524Z" fill="#B3B3B3" stroke="black" stroke-width="2.37393" stroke-linecap="round" stroke-linejoin="round"/>
<path d="M308.98 1508.81L284.017 1523.37L306.954 1536.99L331.672 1522.38L308.98 1508.81Z" fill="#D9D9D9" stroke="black" stroke-width="2.37393" stroke-linecap="round" stroke-linejoin="round"/>
<path d="M612.692 1519.87C700.377 1519.87 771.46 1483.34 771.46 1438.29L819.009 669.225H403.066L453.924 1438.29C453.924 1483.34 525.007 1519.87 612.692 1519.87Z" fill="url(#paint0_linear)"/>
<path d="M611.824 1474.64C653.457 1474.64 687.207 1457.25 687.207 1435.81L709.783 703.433H512.293L536.441 1435.81C536.441 1457.25 570.191 1474.64 611.824 1474.64Z" fill="url(#paint1_linear)"/>
<path d="M409.683 511.454L454.237 1437.14C454.237 1482.22 525.428 1518.76 613.247 1518.76C701.066 1518.76 772.257 1482.22 772.257 1437.14L813.489 511.454" stroke="black" stroke-width="2.17444" stroke-linecap="round" stroke-linejoin="round" stroke-dasharray="22.07 22.07"/>
<path d="M642.408 1055.01C642.409 1055.01 642.41 1055.01 642.411 1055.01L666.855 1060.81L666.86 1060.81C667.835 1061.04 668.426 1061.89 668.226 1063.03L667.733 1065.84C667.548 1066.89 667.053 1067.95 666.289 1068.88L655.054 1082.53C654.662 1083 654.137 1083.25 653.669 1083.3C653.203 1083.35 652.87 1083.19 652.683 1082.95L644.793 1072.78C644.303 1072.15 643.08 1071.01 641.835 1070.16C641.208 1069.74 640.508 1069.33 639.835 1069.11C639.228 1068.9 638.274 1068.73 637.506 1069.34L637.44 1069.39L637.383 1069.46C636.59 1070.32 636.185 1071.25 636.098 1072.2C636.012 1073.13 636.239 1073.99 636.561 1074.72C637.065 1075.85 637.917 1076.86 638.373 1077.4C638.474 1077.52 638.555 1077.61 638.609 1077.68L646.499 1087.85C648.18 1090.02 650.818 1090.87 653.436 1090.61C656.052 1090.35 658.723 1089 660.652 1086.66L669.882 1075.45L675.097 1086.23C676.302 1088.71 678.674 1090.05 681.255 1090.25C683.825 1090.44 686.629 1089.5 688.889 1087.46L700.392 1077.03C701.199 1076.3 701.62 1075.38 701.615 1074.28C701.61 1073.26 701.243 1072.15 700.663 1070.94C699.941 1069.02 698.665 1067.99 697.241 1067.72C695.886 1067.46 694.542 1067.92 693.715 1068.67L693.622 1068.76L693.552 1068.86L684.112 1082.45C683.669 1082.82 683.175 1082.95 682.779 1082.92C682.368 1082.89 682.094 1082.7 681.959 1082.42L675.47 1069C675.074 1068.19 674.941 1067.2 675.125 1066.15L675.492 1064.06L674.421 1063.87L675.492 1064.06C675.732 1062.69 676.776 1061.39 678.162 1060.77C678.218 1060.75 678.274 1060.74 678.33 1060.72L679.264 1060.48L702.563 1054.85C704.48 1054.39 706.014 1052.55 705.875 1050.57C705.842 1050.11 705.667 1049.53 705.463 1048.99C705.247 1048.42 704.959 1047.79 704.632 1047.2C704.309 1046.62 703.926 1046.03 703.514 1045.58C703.308 1045.35 703.067 1045.12 702.796 1044.95C702.531 1044.78 702.165 1044.62 701.731 1044.62C701.442 1044.62 701.149 1044.66 700.856 1044.73L700.788 1044.75L700.723 1044.77L678.043 1053.38C677.599 1053.49 677.162 1053.62 676.734 1053.78C674.341 1054.31 671.98 1054.27 669.86 1053.68C669.81 1053.67 669.759 1053.65 669.709 1053.64L647.129 1048.45C646.836 1048.38 646.54 1048.35 646.248 1048.36C646.142 1048.35 645.872 1048.3 645.372 1048.13C645.211 1048.08 645.015 1048.02 644.805 1047.94C644.477 1047.83 644.118 1047.71 643.808 1047.62C643.279 1047.46 642.654 1047.29 642.089 1047.28C641.544 1047.27 640.63 1047.42 640.242 1048.35C640.019 1048.89 639.944 1049.53 639.943 1050.12C639.943 1050.74 640.021 1051.4 640.169 1052.02C640.314 1052.63 640.539 1053.25 640.859 1053.77C641.164 1054.27 641.66 1054.83 642.408 1055.01Z" fill="#5E6FDB" stroke="black" stroke-width="2.17444"/>
<path d="M667.893 1072.12L658.742 1083.23C654.757 1088.07 647.76 1088.76 644.551 1084.62L636.661 1074.46C635.526 1072.99 636.02 1070.68 637.764 1069.29C639.508 1067.89 641.842 1067.95 642.977 1069.41L650.867 1079.58C651.394 1080.26 652.544 1080.15 653.199 1079.35L664.434 1065.71C665.165 1064.82 665.651 1063.79 665.834 1062.74L666.327 1059.93C666.533 1058.76 665.896 1057.76 664.788 1057.5L642.401 1052.3C640.489 1051.86 639.606 1049.9 640.428 1047.93C641.135 1046.23 642.873 1045.08 644.562 1045.07C644.858 1045.07 645.152 1045.1 645.437 1045.16L668.017 1050.36C668.066 1050.37 668.114 1050.38 668.162 1050.4C670.302 1050.99 672.661 1051.03 675.025 1050.5C675.479 1050.34 675.943 1050.2 676.412 1050.08L699.993 1044.45C700.297 1044.38 700.595 1044.34 700.884 1044.34M667.893 1072.12L700.887 1044.34C700.886 1044.34 700.885 1044.34 700.884 1044.34M667.893 1072.12L673.179 1083.05C675.48 1087.8 682.268 1088.31 686.946 1084.07L698.449 1073.65C700.103 1072.15 700.421 1069.84 699.159 1068.48C697.897 1067.13 695.532 1067.25 693.878 1068.74L682.376 1079.17C681.607 1079.86 680.491 1079.78 680.113 1079L673.624 1065.59C673.202 1064.71 673.076 1063.69 673.259 1062.65L673.626 1060.55C673.86 1059.22 674.844 1058.03 676.118 1057.44C676.168 1057.43 676.219 1057.42 676.269 1057.4L677.201 1057.16M667.893 1072.12L677.201 1057.16M700.884 1044.34C702.563 1044.31 703.891 1045.41 704.009 1047.09C704.147 1049.04 702.575 1051.04 700.499 1051.54L677.201 1057.16M700.884 1044.34L677.201 1057.16" fill="#B0B8ED" stroke="black" stroke-width="2.17444"/>
<path d="M656.384 1053.78L665.08 1051.46L656.094 1049.43L647.978 1051.75L656.384 1053.78Z" fill="white" fill-opacity="0.3"/>
<circle cx="670.648" cy="1064.65" r="48.5611" fill="white" fill-opacity="0.3" stroke="black" stroke-width="2.17444"/>
<path d="M644.933 1034.8C644.492 1040.03 641.804 1041.23 639.84 1040.03C637.877 1038.83 637.986 1035.07 640.084 1031.64C642.183 1028.2 645.476 1026.38 647.44 1027.58C649.403 1028.78 649.224 1031.64 644.933 1034.8Z" fill="white"/>
<path d="M671.891 1372.01C671.89 1372.01 671.889 1372.01 671.888 1372.01L647.444 1377.81L647.439 1377.81C646.465 1378.04 645.874 1378.89 646.074 1380.03L646.567 1382.84C646.751 1383.89 647.246 1384.95 648.011 1385.88L659.246 1399.53C659.637 1400 660.162 1400.25 660.63 1400.3C661.096 1400.35 661.429 1400.19 661.616 1399.95L669.506 1389.78C669.997 1389.15 671.22 1388.01 672.465 1387.16C673.091 1386.74 673.792 1386.33 674.464 1386.11C675.071 1385.9 676.026 1385.73 676.793 1386.34L676.859 1386.39L676.916 1386.46C677.71 1387.32 678.114 1388.25 678.202 1389.2C678.288 1390.13 678.061 1390.99 677.738 1391.72C677.234 1392.85 676.382 1393.86 675.926 1394.4C675.826 1394.52 675.745 1394.61 675.691 1394.68L667.8 1404.85C666.119 1407.02 663.482 1407.87 660.864 1407.61C658.248 1407.35 655.576 1406 653.647 1403.66L644.417 1392.45L639.202 1403.22C637.998 1405.71 635.625 1407.05 633.044 1407.25C630.474 1407.44 627.67 1406.5 625.41 1404.46L613.908 1394.03C613.101 1393.3 612.679 1392.38 612.685 1391.28C612.69 1390.26 613.056 1389.15 613.636 1387.94C614.358 1386.02 615.634 1384.99 617.059 1384.72C618.414 1384.46 619.757 1384.92 620.585 1385.67L620.677 1385.76L620.748 1385.86L630.188 1399.45C630.631 1399.82 631.125 1399.95 631.521 1399.92C631.932 1399.89 632.205 1399.7 632.341 1399.42L638.83 1386C639.225 1385.19 639.358 1384.2 639.174 1383.15L638.807 1381.06L639.878 1380.87L638.807 1381.06C638.567 1379.69 637.523 1378.39 636.137 1377.77C636.081 1377.75 636.025 1377.74 635.969 1377.72L635.035 1377.48L611.736 1371.85C609.82 1371.39 608.285 1369.55 608.425 1367.57C608.457 1367.11 608.632 1366.53 608.837 1365.99C609.052 1365.42 609.341 1364.79 609.668 1364.2C609.99 1363.62 610.373 1363.03 610.786 1362.58C610.992 1362.35 611.232 1362.12 611.503 1361.95C611.768 1361.78 612.134 1361.62 612.569 1361.62C612.857 1361.62 613.15 1361.66 613.443 1361.73L613.511 1361.75L613.576 1361.77L636.257 1370.38C636.701 1370.49 637.138 1370.62 637.566 1370.78C639.958 1371.31 642.32 1371.27 644.44 1370.68C644.49 1370.67 644.54 1370.65 644.59 1370.64L667.17 1365.45C667.463 1365.38 667.759 1365.35 668.051 1365.36C668.157 1365.35 668.427 1365.3 668.927 1365.13C669.088 1365.08 669.285 1365.02 669.495 1364.94C669.822 1364.83 670.182 1364.71 670.492 1364.62C671.02 1364.46 671.645 1364.29 672.21 1364.28C672.755 1364.27 673.669 1364.42 674.058 1365.35C674.281 1365.89 674.356 1366.53 674.356 1367.12C674.357 1367.74 674.278 1368.4 674.131 1369.02C673.985 1369.63 673.761 1370.25 673.44 1370.77C673.135 1371.27 672.64 1371.83 671.891 1372.01Z" fill="#5E6FDB" stroke="black" stroke-width="2.17444"/>
<path d="M646.406 1389.12L655.557 1400.23C659.543 1405.07 666.539 1405.76 669.748 1401.62L677.639 1391.46C678.773 1389.99 678.279 1387.68 676.535 1386.28C674.791 1384.89 672.457 1384.95 671.323 1386.41L663.432 1396.58C662.905 1397.26 661.755 1397.15 661.1 1396.35L649.865 1382.71C649.135 1381.82 648.649 1380.79 648.465 1379.74L647.972 1376.93C647.767 1375.76 648.403 1374.76 649.511 1374.5L671.898 1369.3C673.81 1368.85 674.693 1366.9 673.872 1364.93C673.164 1363.23 671.426 1362.08 669.737 1362.07C669.441 1362.07 669.148 1362.1 668.862 1362.16L646.283 1367.36C646.234 1367.37 646.185 1367.38 646.138 1367.4C643.997 1367.99 641.639 1368.03 639.274 1367.5C638.82 1367.34 638.357 1367.2 637.887 1367.08L614.306 1361.45C614.003 1361.38 613.704 1361.34 613.415 1361.34M646.406 1389.12L613.412 1361.34C613.413 1361.34 613.414 1361.34 613.415 1361.34M646.406 1389.12L641.121 1400.05C638.819 1404.8 632.031 1405.31 627.353 1401.07L615.851 1390.65C614.196 1389.15 613.878 1386.84 615.141 1385.48C616.403 1384.13 618.767 1384.24 620.421 1385.74L631.924 1396.17C632.693 1396.86 633.808 1396.78 634.186 1396L640.675 1382.59C641.097 1381.71 641.224 1380.69 641.04 1379.65L640.673 1377.55C640.439 1376.22 639.455 1375.03 638.182 1374.44C638.131 1374.43 638.081 1374.42 638.03 1374.4L637.098 1374.16M646.406 1389.12L637.098 1374.16M613.415 1361.34C611.736 1361.31 610.408 1362.41 610.29 1364.09C610.153 1366.04 611.724 1368.04 613.8 1368.54L637.098 1374.16M613.415 1361.34L637.098 1374.16" fill="#B0B8ED" stroke="black" stroke-width="2.17444"/>
<path d="M657.915 1370.78L649.219 1368.46L658.205 1366.43L666.322 1368.75L657.915 1370.78Z" fill="white" fill-opacity="0.3"/>
<circle r="48.5611" transform="matrix(-1 0 0 1 643.648 1381.65)" fill="white" fill-opacity="0.3" stroke="black" stroke-width="2.17444"/>
<path d="M669.371 1351.8C669.811 1357.03 672.499 1358.23 674.463 1357.03C676.427 1355.83 676.318 1352.07 674.219 1348.64C672.121 1345.2 668.827 1343.38 666.864 1344.58C664.9 1345.78 665.079 1348.64 669.371 1351.8Z" fill="white"/>
<path d="M581.014 666.4C581.013 666.4 581.012 666.4 581.011 666.399C580.213 666.213 579.674 665.608 579.334 665.056C578.978 664.479 578.726 663.779 578.561 663.087C578.395 662.388 578.306 661.644 578.307 660.952C578.308 660.278 578.393 659.569 578.637 658.983C579.044 658.007 580.002 657.844 580.606 657.854C581.229 657.864 581.927 658.046 582.532 658.231C582.887 658.339 583.293 658.477 583.665 658.603C583.907 658.685 584.134 658.762 584.324 658.823C584.897 659.008 585.229 659.082 585.378 659.085C585.702 659.078 586.029 659.109 586.353 659.183L612.248 665.144C612.304 665.157 612.359 665.171 612.414 665.187C614.876 665.873 617.615 665.917 620.385 665.296C620.877 665.117 621.379 664.964 621.889 664.84L647.909 654.964L647.974 654.939L648.042 654.923C648.366 654.846 648.688 654.806 649.006 654.802M581.014 666.4L623.213 672.669L623.203 672.671M581.014 666.4L609.048 673.054L609.053 673.055C610.259 673.335 610.983 674.399 610.74 675.782L610.175 679.006C609.958 680.243 609.378 681.483 608.485 682.568L595.6 698.215C595.125 698.792 594.484 699.103 593.904 699.159C593.327 699.216 592.886 699.024 592.632 698.697L583.583 687.035C583.034 686.327 581.645 685.037 580.226 684.067C579.513 683.58 578.724 683.125 577.973 682.874C577.287 682.645 576.265 682.467 575.452 683.116L575.386 683.168L575.329 683.231C574.441 684.2 573.993 685.239 573.896 686.288C573.801 687.32 574.052 688.276 574.414 689.091C574.982 690.368 575.935 691.496 576.462 692.12C576.58 692.26 576.677 692.375 576.743 692.46L585.792 704.122C587.68 706.555 590.646 707.515 593.606 707.226C596.563 706.936 599.588 705.402 601.774 702.747L612.518 689.7L618.607 702.286C619.96 705.081 622.625 706.591 625.537 706.807C628.438 707.023 631.612 705.969 634.173 703.648L647.365 691.695C648.258 690.886 648.721 689.876 648.715 688.653C648.709 687.519 648.3 686.269 647.636 684.888C646.825 682.731 645.401 681.592 643.828 681.291C642.326 681.003 640.835 681.515 639.922 682.343L639.83 682.426L639.759 682.529L628.92 698.136C628.378 698.589 627.764 698.76 627.261 698.723C626.742 698.684 626.373 698.437 626.189 698.056L618.747 682.675C618.277 681.704 618.122 680.537 618.338 679.303L618.759 676.903L617.688 676.715L618.759 676.903C619.045 675.272 620.286 673.742 621.925 673.005M581.014 666.4L621.925 673.005M649.006 654.802C649.007 654.802 649.008 654.802 649.009 654.802L649.021 655.889L649.003 654.802C649.004 654.802 649.005 654.802 649.006 654.802ZM649.006 654.802C649.464 654.795 649.854 654.97 650.143 655.154C650.439 655.343 650.703 655.59 650.934 655.845C651.396 656.355 651.828 657.016 652.195 657.68C652.566 658.35 652.894 659.066 653.139 659.711C653.372 660.327 653.566 660.976 653.601 661.48C653.755 663.664 652.057 665.708 649.925 666.223L623.203 672.671M623.203 672.671L622.13 672.953C622.062 672.97 621.994 672.988 621.925 673.005M623.203 672.671L621.925 673.005" fill="#5E6FDB" stroke="black" stroke-width="2.17444"/>
<path d="M610.251 685.9L599.586 698.851C595.087 704.315 587.188 705.089 583.566 700.42L574.517 688.758C573.265 687.144 573.81 684.589 575.735 683.051C577.66 681.513 580.236 681.575 581.489 683.189L590.538 694.851C591.2 695.704 592.645 695.563 593.467 694.564L606.352 678.917C607.211 677.874 607.782 676.665 607.998 675.434L608.564 672.211C608.812 670.796 608.042 669.578 606.703 669.267L581.028 663.303C578.918 662.813 577.943 660.653 578.85 658.477C579.631 656.605 581.551 655.334 583.415 655.327C583.742 655.32 584.067 655.351 584.383 655.424L610.278 661.385C610.332 661.397 610.385 661.411 610.438 661.426C612.92 662.118 615.656 662.156 618.398 661.543C618.916 661.355 619.444 661.196 619.98 661.068L647.024 654.606L647.094 655.643L647.024 654.606C647.359 654.526 647.689 654.485 648.008 654.482M610.251 685.9L648.011 654.482C648.01 654.482 648.009 654.482 648.008 654.482M610.251 685.9L616.41 698.631C619.009 704.002 626.672 704.572 631.952 699.787L645.144 687.834C646.97 686.179 647.321 683.626 645.928 682.132C644.534 680.637 641.925 680.767 640.099 682.422L626.907 694.375C625.941 695.25 624.54 695.145 624.065 694.163L616.623 678.782C616.127 677.757 615.978 676.557 616.194 675.327L616.615 672.927C616.895 671.334 618.076 669.901 619.603 669.207C619.666 669.191 619.728 669.175 619.791 669.159L620.862 668.878M610.251 685.9L620.862 668.878M648.008 654.482C649.861 654.453 651.327 655.671 651.457 657.517C651.609 659.677 649.875 661.877 647.583 662.43L620.862 668.878M648.008 654.482L620.862 668.878" fill="#B0B8ED" stroke="black" stroke-width="2.17444"/>
<path d="M597.004 665.152L606.977 662.492L596.672 660.165L587.363 662.825L597.004 665.152Z" fill="white" fill-opacity="0.3"/>
<circle cx="613.365" cy="677.623" r="55.8515" fill="#D6DBFF" fill-opacity="0.3" stroke="black" stroke-width="2.17444"/>
<path d="M583.862 643.397C583.358 649.391 580.275 650.766 578.022 649.391C575.77 648.016 575.895 643.706 578.302 639.764C580.709 635.823 584.485 633.743 586.738 635.118C588.99 636.493 588.784 639.764 583.862 643.397Z" fill="white"/>
<path d="M578.293 946.717C578.294 946.716 578.295 946.716 578.296 946.716C579.094 946.529 579.633 945.925 579.973 945.373C580.329 944.795 580.582 944.096 580.746 943.403C580.912 942.704 581.001 941.961 581 941.269C581 940.595 580.915 939.886 580.67 939.3C580.263 938.324 579.305 938.16 578.701 938.17C578.078 938.181 577.38 938.362 576.775 938.547C576.42 938.656 576.014 938.793 575.642 938.92C575.401 939.001 575.173 939.078 574.983 939.14C574.41 939.324 574.078 939.399 573.929 939.401C573.606 939.395 573.278 939.426 572.954 939.5L547.059 945.461C547.004 945.474 546.948 945.488 546.893 945.503C544.431 946.19 541.692 946.234 538.922 945.612C538.43 945.434 537.928 945.281 537.418 945.156L511.398 935.281L511.333 935.256L511.265 935.24C510.942 935.163 510.619 935.122 510.301 935.119M578.293 946.717L536.094 952.985L536.104 952.988M578.293 946.717L550.259 953.37L550.254 953.372C549.048 953.652 548.324 954.716 548.567 956.099L549.132 959.322C549.349 960.559 549.929 961.8 550.823 962.885L563.707 978.532C564.183 979.109 564.823 979.419 565.403 979.476C565.98 979.533 566.421 979.341 566.675 979.013L575.724 967.351C576.273 966.643 577.662 965.353 579.081 964.384C579.794 963.896 580.583 963.442 581.334 963.191C582.02 962.962 583.042 962.783 583.855 963.432L583.921 963.485L583.978 963.547C584.867 964.517 585.314 965.555 585.411 966.605C585.506 967.637 585.255 968.593 584.893 969.408C584.325 970.684 583.372 971.813 582.846 972.436C582.727 972.577 582.63 972.691 582.564 972.776L573.515 984.438C571.627 986.872 568.661 987.832 565.702 987.542C562.744 987.253 559.719 985.718 557.533 983.064L546.789 970.016L540.7 982.602C539.347 985.398 536.682 986.907 533.77 987.124C530.869 987.34 527.695 986.286 525.134 983.965L511.942 972.012C511.049 971.203 510.586 970.192 510.592 968.97C510.598 967.836 511.007 966.586 511.671 965.205C512.482 963.048 513.906 961.909 515.479 961.608C516.981 961.32 518.472 961.832 519.385 962.66L519.477 962.743L519.548 962.845L530.387 978.452C530.929 978.906 531.543 979.077 532.046 979.04C532.565 979.001 532.934 978.754 533.119 978.373L540.56 962.992C541.03 962.02 541.186 960.854 540.969 959.619L540.548 957.219L541.619 957.031L540.548 957.219C540.262 955.589 539.021 954.058 537.382 953.322M578.293 946.717L537.382 953.322M510.301 935.119C510.3 935.119 510.299 935.119 510.298 935.119L510.287 936.205L510.304 935.119C510.303 935.119 510.302 935.119 510.301 935.119ZM510.301 935.119C509.843 935.112 509.453 935.286 509.164 935.471C508.868 935.66 508.604 935.907 508.373 936.162C507.911 936.672 507.479 937.333 507.112 937.996C506.741 938.667 506.413 939.382 506.169 940.028C505.935 940.644 505.742 941.292 505.706 941.797C505.552 943.98 507.25 946.025 509.382 946.539L536.104 952.988M536.104 952.988L537.177 953.269C537.245 953.287 537.313 953.305 537.382 953.322M536.104 952.988L537.382 953.322" fill="#5E6FDB" stroke="black" stroke-width="2.17444"/>
<path d="M549.056 966.217L559.721 979.168C564.22 984.632 572.119 985.405 575.741 980.737L584.79 969.075C586.043 967.461 585.497 964.905 583.572 963.367C581.647 961.829 579.071 961.891 577.818 963.506L568.769 975.167C568.107 976.021 566.663 975.88 565.84 974.881L552.955 959.233C552.096 958.191 551.525 956.981 551.309 955.751L550.743 952.527C550.495 951.112 551.265 949.895 552.604 949.584L578.279 943.62C580.389 943.13 581.364 940.969 580.457 938.794C579.676 936.922 577.756 935.651 575.892 935.644C575.565 935.637 575.24 935.668 574.925 935.741L549.029 941.702C548.975 941.714 548.922 941.728 548.869 941.742C546.387 942.434 543.651 942.473 540.909 941.86C540.391 941.672 539.863 941.513 539.327 941.385L512.283 934.922L512.213 935.96L512.283 934.922C511.948 934.842 511.618 934.802 511.299 934.798M549.056 966.217L511.296 934.798C511.297 934.798 511.298 934.798 511.299 934.798M549.056 966.217L542.897 978.948C540.298 984.319 532.636 984.888 527.355 980.104L514.163 968.15C512.337 966.496 511.986 963.943 513.38 962.449C514.773 960.954 517.382 961.084 519.208 962.738L532.4 974.691C533.366 975.566 534.767 975.462 535.242 974.48L542.684 959.099C543.18 958.074 543.329 956.874 543.113 955.644L542.692 953.243C542.412 951.65 541.231 950.217 539.704 949.524C539.642 949.508 539.579 949.492 539.516 949.475L538.445 949.195M549.056 966.217L538.445 949.195M511.299 934.798C509.446 934.769 507.98 935.987 507.85 937.834C507.698 939.994 509.433 942.193 511.724 942.746L538.445 949.195M511.299 934.798L538.445 949.195" fill="#B0B8ED" stroke="black" stroke-width="2.17444"/>
<path d="M562.303 945.469L552.33 942.809L562.635 940.482L571.944 943.141L562.303 945.469Z" fill="white" fill-opacity="0.3"/>
<circle r="55.8515" transform="matrix(-1 0 0 1 545.939 957.939)" fill="#D6DBFF" fill-opacity="0.3" stroke="black" stroke-width="2.17444"/>
<path d="M575.441 923.714C575.946 929.707 579.029 931.082 581.281 929.707C583.533 928.332 583.408 924.022 581.001 920.081C578.595 916.139 574.818 914.059 572.566 915.434C570.313 916.809 570.519 920.081 575.441 923.714Z" fill="white"/>
<path d="M728.58 369.187L728.388 369.275L728.244 369.43L455.604 660.572L455.469 660.715L455.394 660.897L423.572 737.442L422.681 736.923C421.399 736.176 419.516 735.079 417.117 733.681C412.317 730.885 405.448 726.885 397.171 722.068C380.615 712.433 358.425 699.529 335.883 686.45C290.833 660.311 244.297 633.426 238.644 630.618C225.184 623.93 216.551 608.055 216.551 584.536C216.551 547.116 238.463 502.83 268.339 476.048L269.08 475.384L268.484 474.587C261.012 464.598 256.649 450.228 256.649 432.043C256.649 405.428 265.999 375.864 281.168 349.592C296.336 323.319 317.264 300.44 340.313 287.133C343.614 285.227 346.867 283.57 350.062 282.156L350.506 281.959L350.656 281.496C374.688 207.274 427.501 134.93 488.679 99.609C532.455 74.335 571.617 73.1269 598.963 91.1761C614.965 101.738 627.053 118.969 633.687 142.116L634.205 143.924L635.513 142.572C645.934 131.806 657.275 122.655 669.124 115.815C696.018 100.287 719.909 99.8739 736.312 111.3L736.35 111.326L736.39 111.349L916.228 214.992V304.371L736.585 365.028L736.483 365.063L736.389 365.117C733.752 366.64 731.147 367.995 728.58 369.187Z" fill="#B0B8ED" stroke="black" stroke-width="2.17444"/>
<path d="M349.555 282.382L551.875 400.369L552.97 398.49L350.926 280.664C375.083 206.734 427.729 134.798 488.679 99.609C532.455 74.335 571.617 73.1269 598.963 91.1761L598.989 91.1934L599.016 91.2092L774.885 193.21L788.726 304.804L736.232 365.208C733.648 366.694 731.096 368.019 728.58 369.187L728.389 369.275L728.244 369.43L455.604 660.572L455.469 660.716L455.394 660.897L423.572 737.442L422.681 736.923L420.318 735.546L417.117 733.681C412.317 730.885 405.448 726.885 397.171 722.068C380.615 712.433 358.425 699.529 335.883 686.45C290.833 660.311 244.297 633.426 238.644 630.618C225.184 623.93 216.551 608.055 216.551 584.536C216.551 547.356 238.183 503.398 267.765 476.566L471.583 589.81L472.639 587.909L268.346 474.401C260.959 464.421 256.649 450.116 256.649 432.043C256.649 405.428 265.999 375.864 281.168 349.592C296.336 323.319 317.264 300.44 340.313 287.133C343.44 285.327 346.524 283.746 349.555 282.382Z" fill="#B0B8ED" stroke="black" stroke-width="2.17444"/>
<path d="M915.392 477.428L915.348 477.448L915.306 477.472L468.038 735.702V735.533L466.486 736.268C448.583 744.741 432.847 744.245 421.627 736.62C410.39 728.984 403.363 713.986 403.363 692.777C403.363 655.357 425.275 611.071 455.151 584.289L455.892 583.625L455.296 582.828C447.824 572.839 443.461 558.469 443.461 540.284C443.461 513.669 452.811 484.105 467.98 457.833C483.148 431.56 504.076 408.681 527.125 395.374C530.427 393.468 533.679 391.811 536.874 390.397L537.318 390.2L537.468 389.737C561.5 315.515 614.313 243.171 675.491 207.85C710.17 187.828 741.967 182.911 767.258 190.7C792.513 198.478 811.511 218.997 820.499 250.357L821.017 252.165L822.325 250.813C832.747 240.046 844.087 230.896 855.936 224.056C881.206 209.466 903.828 208.222 920.063 217.596C936.298 226.969 946.532 247.183 946.532 276.362C946.532 277.536 946.516 278.715 946.483 279.899L946.444 281.287L947.801 280.992C963.785 277.513 977.442 281.047 987.115 290.404C996.816 299.788 1002.67 315.182 1002.67 335.715C1002.67 360.992 993.79 389.073 979.381 414.031C964.971 438.988 945.092 460.719 923.202 473.358C920.564 474.881 917.959 476.236 915.392 477.428Z" fill="#B0B8ED" stroke="black" stroke-width="2.17444"/>
<path d="M947.569 498.323L947.526 498.343L947.484 498.368L500.215 756.598V756.429L498.663 757.164C480.76 765.637 465.025 765.14 453.804 757.515C442.567 749.88 435.54 734.882 435.54 713.673C435.54 676.252 457.452 631.966 487.329 605.184L488.069 604.52L487.473 603.723C480.002 593.735 475.639 579.364 475.639 561.179C475.639 534.564 484.988 505.001 500.157 478.728C515.325 452.456 536.254 429.576 559.303 416.269C562.604 414.363 565.857 412.707 569.051 411.292L569.495 411.095L569.645 410.633C593.677 336.411 646.49 264.067 707.668 228.745C742.347 208.723 774.144 203.806 799.435 211.596C824.69 219.374 843.688 239.892 852.676 271.252L853.194 273.06L854.503 271.709C864.924 260.942 876.265 251.792 888.113 244.951C913.383 230.362 936.005 229.118 952.24 238.491C968.475 247.864 978.709 268.078 978.709 297.257C978.709 298.431 978.693 299.611 978.66 300.795L978.621 302.183L979.978 301.888C995.962 298.408 1009.62 301.943 1019.29 311.3C1028.99 320.684 1034.85 336.078 1034.85 356.61C1034.85 381.887 1025.97 409.969 1011.56 434.926C997.149 459.884 977.269 481.615 955.379 494.253C952.741 495.776 950.136 497.131 947.569 498.323Z" stroke="black" stroke-width="2.17444"/>
<path d="M716.829 801.781C716.417 801.771 716.001 801.811 715.59 801.905L680.27 810.036C680.2 810.052 680.13 810.07 680.061 810.089C676.627 811.046 672.815 811.103 668.971 810.237C668.298 809.992 667.611 809.783 666.914 809.613L631.4 796.135L631.334 796.11L631.267 796.094C630.853 795.995 630.441 795.944 630.038 795.939M716.829 801.781L630.024 797.026M716.829 801.781C717.101 801.778 717.612 801.655 718.389 801.405C718.663 801.317 718.978 801.21 719.309 801.097C719.809 800.928 720.345 800.746 720.828 800.598C721.65 800.347 722.557 800.115 723.347 800.102C724.117 800.089 725.201 800.298 725.661 801.399C725.966 802.13 726.079 803.039 726.08 803.933C726.081 804.844 725.964 805.827 725.744 806.752C725.526 807.67 725.195 808.581 724.739 809.322C724.298 810.038 723.636 810.757 722.697 810.977C722.696 810.977 722.695 810.977 722.694 810.977L684.454 820.054L684.449 820.055C682.585 820.488 681.483 822.15 681.848 824.229L682.619 828.625C682.928 830.385 683.751 832.14 685.009 833.667L702.583 855.01C703.297 855.876 704.266 856.352 705.163 856.44C706.057 856.527 706.803 856.233 707.249 855.658L719.592 839.751C720.309 838.827 722.169 837.094 724.081 835.787C725.041 835.131 726.083 834.534 727.057 834.209C727.965 833.905 729.181 833.72 730.123 834.472L730.189 834.525L730.245 834.587C731.404 835.851 731.975 837.188 732.098 838.527C732.22 839.847 731.9 841.082 731.424 842.152C730.677 843.833 729.434 845.306 728.709 846.166C728.538 846.368 728.396 846.536 728.296 846.665L727.472 846.026L728.296 846.665L715.954 862.572C713.478 865.763 709.577 867.039 705.647 866.654C701.72 866.27 697.689 864.229 694.773 860.688L679.725 842.415M716.829 801.781L679.725 842.415M630.038 795.939C630.037 795.939 630.036 795.939 630.035 795.939L630.024 797.026M630.038 795.939C630.039 795.939 630.04 795.939 630.042 795.939L630.024 797.026M630.038 795.939C629.518 795.932 629.062 796.13 628.705 796.358C628.342 796.589 628.008 796.899 627.707 797.231C627.105 797.896 626.533 798.769 626.04 799.66C625.543 800.558 625.103 801.517 624.777 802.379C624.462 803.213 624.215 804.052 624.171 804.68C623.976 807.441 626.138 810.074 628.883 810.736L665.335 819.533M630.024 797.026C628.165 796.996 625.386 802.906 625.255 804.757C625.103 806.921 626.841 809.125 629.138 809.68L665.601 818.479L667.078 818.866C667.207 818.9 667.336 818.933 667.464 818.965M665.335 819.533L665.325 819.531L665.601 818.479L665.346 819.536L665.335 819.533ZM665.335 819.533L666.802 819.918C666.905 819.945 667.008 819.971 667.111 819.997M667.111 819.997C667.086 819.986 667.06 819.975 667.034 819.964L667.464 818.965M667.111 819.997C669.471 821.045 671.273 823.245 671.689 825.62L672.699 825.443L671.689 825.62L672.264 828.893C672.572 830.651 672.353 832.327 671.673 833.734L661.523 854.714C661.2 855.379 660.56 855.784 659.733 855.845C658.925 855.905 657.968 855.624 657.145 854.918L642.332 833.588L642.261 833.485L642.169 833.402C641.011 832.353 639.103 831.694 637.18 832.062C635.188 832.444 633.341 833.892 632.276 836.736C631.376 838.607 630.844 840.254 630.836 841.718C630.829 843.269 631.411 844.542 632.548 845.572L650.541 861.876C653.959 864.973 658.183 866.369 662.025 866.083C665.879 865.796 669.377 863.805 671.151 860.138L679.725 842.415M667.111 819.997C667.141 820.005 667.171 820.012 667.2 820.02L667.464 818.965M667.464 818.965L679.725 842.415M666.585 810.752L666.592 810.654" fill="#5E6FDB" stroke="black" stroke-width="2.17444"/>
<path d="M697.746 855.404L682.778 837.227L674.133 855.095C670.691 862.209 660.542 862.964 653.548 856.626L635.554 840.322C633.24 838.225 632.795 834.99 634.561 833.096C636.327 831.201 639.635 831.366 641.949 833.463L659.942 849.767C661.468 851.149 663.681 850.984 664.432 849.433L674.582 828.453C675.289 826.993 675.501 825.283 675.193 823.53L674.619 820.256C674.209 817.918 672.467 815.816 670.221 814.812C670.123 814.787 670.025 814.761 669.927 814.736L668.462 814.352L632.011 805.555C629.106 804.854 626.908 802.067 627.101 799.33C627.265 796.989 629.124 795.445 631.473 795.482C631.877 795.486 632.296 795.538 632.721 795.639L632.651 796.677L632.721 795.639L669.608 804.454C670.332 804.627 671.044 804.842 671.744 805.097C675.56 805.955 679.368 805.903 682.823 804.94C682.89 804.921 682.957 804.904 683.026 804.888L718.346 796.758C718.748 796.665 719.161 796.626 719.576 796.635C721.94 796.642 724.375 798.254 725.365 800.628C726.515 803.385 725.279 806.123 722.605 806.744L687.585 814.879C685.587 815.343 684.44 817.159 684.81 819.269L685.581 823.666C685.889 825.419 686.703 827.142 687.927 828.628L705.501 849.97C706.801 851.549 709.083 851.772 710.129 850.424L722.472 834.517C724.059 832.471 727.324 832.393 729.764 834.342C732.204 836.291 732.896 839.53 731.308 841.576L718.965 857.483C714.167 863.666 703.706 862.641 697.746 855.404Z" fill="#B0B8ED" stroke="black" stroke-width="2.17444"/>
<path d="M700.972 809.65L687.368 806.023L701.425 802.849L714.122 806.476L700.972 809.65Z" fill="white" fill-opacity="0.3"/>
<circle r="76.5762" transform="matrix(-1 0 0 1 678.663 826.663)" fill="white" fill-opacity="0.3" stroke="black" stroke-width="2.17444"/>
<path d="M718.902 779.981C719.591 788.156 723.796 790.032 726.868 788.156C729.94 786.28 729.769 780.401 726.487 775.026C723.204 769.65 718.053 766.812 714.981 768.688C711.909 770.564 712.19 775.026 718.902 779.981Z" fill="white"/>
<path d="M543.494 1203.78C543.906 1203.77 544.322 1203.81 544.733 1203.91L580.053 1212.04C580.123 1212.05 580.193 1212.07 580.262 1212.09C583.696 1213.05 587.508 1213.1 591.352 1212.24C592.025 1211.99 592.712 1211.78 593.409 1211.61L628.923 1198.14L628.988 1198.11L629.056 1198.09C629.47 1198 629.882 1197.94 630.285 1197.94M543.494 1203.78L630.299 1199.03M543.494 1203.78C543.222 1203.78 542.711 1203.66 541.933 1203.41C541.66 1203.32 541.344 1203.21 541.013 1203.1C540.513 1202.93 539.978 1202.75 539.495 1202.6C538.673 1202.35 537.766 1202.12 536.976 1202.1C536.205 1202.09 535.121 1202.3 534.662 1203.4C534.357 1204.13 534.243 1205.04 534.243 1205.93C534.242 1206.85 534.359 1207.83 534.579 1208.75C534.797 1209.67 535.128 1210.58 535.584 1211.32C536.025 1212.04 536.686 1212.76 537.626 1212.98C537.627 1212.98 537.628 1212.98 537.629 1212.98L575.868 1222.05L575.874 1222.06C577.738 1222.49 578.84 1224.15 578.475 1226.23L577.704 1230.63C577.395 1232.39 576.572 1234.14 575.314 1235.67L557.74 1257.01C557.026 1257.88 556.056 1258.35 555.16 1258.44C554.266 1258.53 553.52 1258.23 553.074 1257.66L540.731 1241.75C540.014 1240.83 538.154 1239.1 536.242 1237.79C535.282 1237.13 534.24 1236.54 533.266 1236.21C532.357 1235.91 531.142 1235.72 530.2 1236.47L530.134 1236.53L530.077 1236.59C528.918 1237.85 528.348 1239.19 528.224 1240.53C528.103 1241.85 528.423 1243.08 528.899 1244.15C529.646 1245.83 530.888 1247.31 531.614 1248.17C531.784 1248.37 531.926 1248.54 532.026 1248.67L532.851 1248.03L532.026 1248.67L544.369 1264.57C546.845 1267.76 550.746 1269.04 554.675 1268.66C558.603 1268.27 562.634 1266.23 565.55 1262.69L580.597 1244.42M543.494 1203.78L580.597 1244.42M630.285 1197.94C630.286 1197.94 630.287 1197.94 630.288 1197.94L630.299 1199.03M630.285 1197.94C630.284 1197.94 630.282 1197.94 630.281 1197.94L630.299 1199.03M630.285 1197.94C630.804 1197.93 631.261 1198.13 631.617 1198.36C631.981 1198.59 632.315 1198.9 632.616 1199.23C633.218 1199.9 633.79 1200.77 634.283 1201.66C634.78 1202.56 635.219 1203.52 635.546 1204.38C635.861 1205.21 636.108 1206.05 636.152 1206.68C636.346 1209.44 634.185 1212.08 631.44 1212.74L594.987 1221.53M630.299 1199.03C632.158 1199 634.937 1204.91 635.067 1206.76C635.22 1208.92 633.482 1211.13 631.185 1211.68L594.722 1220.48L593.245 1220.87C593.116 1220.9 592.987 1220.93 592.858 1220.97M594.987 1221.53L594.998 1221.53L594.722 1220.48L594.977 1221.54L594.987 1221.53ZM594.987 1221.53L593.521 1221.92C593.418 1221.95 593.314 1221.97 593.211 1222M593.211 1222C593.237 1221.99 593.263 1221.98 593.289 1221.96L592.858 1220.97M593.211 1222C590.852 1223.05 589.05 1225.25 588.633 1227.62L587.624 1227.44L588.633 1227.62L588.059 1230.89C587.751 1232.65 587.969 1234.33 588.65 1235.74L598.8 1256.71C599.122 1257.38 599.763 1257.78 600.59 1257.85C601.398 1257.91 602.355 1257.63 603.178 1256.92L617.991 1235.59L618.062 1235.49L618.154 1235.4C619.312 1234.35 621.22 1233.69 623.142 1234.06C625.135 1234.45 626.982 1235.89 628.046 1238.74C628.947 1240.61 629.479 1242.25 629.486 1243.72C629.494 1245.27 628.912 1246.54 627.775 1247.57L609.782 1263.88C606.364 1266.97 602.14 1268.37 598.297 1268.08C594.444 1267.8 590.946 1265.81 589.172 1262.14L580.597 1244.42M593.211 1222C593.182 1222.01 593.152 1222.01 593.123 1222.02L592.858 1220.97M592.858 1220.97L580.597 1244.42M593.737 1212.75L593.731 1212.66" fill="#5E6FDB" stroke="black" stroke-width="2.17444"/>
<path d="M562.576 1257.41L577.545 1239.23L586.189 1257.1C589.631 1264.21 599.781 1264.96 606.775 1258.63L624.768 1242.32C627.083 1240.23 627.527 1236.99 625.762 1235.1C623.996 1233.2 620.688 1233.37 618.374 1235.46L600.381 1251.77C598.855 1253.15 596.642 1252.99 595.891 1251.43L585.741 1230.45C585.034 1228.99 584.822 1227.28 585.129 1225.53L585.704 1222.26C586.114 1219.92 587.856 1217.82 590.102 1216.81C590.2 1216.79 590.298 1216.76 590.396 1216.74L591.861 1216.35L628.312 1207.56C631.217 1206.86 633.415 1204.07 633.222 1201.33C633.057 1198.99 631.199 1197.45 628.85 1197.48C628.445 1197.49 628.027 1197.54 627.602 1197.64L627.672 1198.68L627.602 1197.64L590.715 1206.46C589.991 1206.63 589.278 1206.84 588.579 1207.1C584.763 1207.96 580.955 1207.9 577.5 1206.94C577.433 1206.92 577.365 1206.91 577.297 1206.89L541.977 1198.76C541.575 1198.67 541.162 1198.63 540.747 1198.64C538.382 1198.64 535.948 1200.25 534.957 1202.63C533.808 1205.39 535.044 1208.12 537.718 1208.75L572.738 1216.88C574.735 1217.34 575.883 1219.16 575.513 1221.27L574.742 1225.67C574.434 1227.42 573.62 1229.14 572.396 1230.63L554.821 1251.97C553.522 1253.55 551.24 1253.77 550.193 1252.42L537.851 1236.52C536.263 1234.47 532.998 1234.39 530.558 1236.34C528.118 1238.29 527.427 1241.53 529.015 1243.58L541.357 1259.48C546.155 1265.67 556.617 1264.64 562.576 1257.41Z" fill="#B0B8ED" stroke="black" stroke-width="2.17444"/>
<path d="M559.347 1211.65L572.951 1208.02L558.894 1204.85L546.197 1208.48L559.347 1211.65Z" fill="white" fill-opacity="0.3"/>
<circle cx="581.663" cy="1228.66" r="76.5762" fill="white" fill-opacity="0.3" stroke="black" stroke-width="2.17444"/>
<path d="M541.423 1181.98C540.735 1190.16 536.53 1192.03 533.458 1190.16C530.386 1188.28 530.556 1182.4 533.839 1177.03C537.122 1171.65 542.273 1168.81 545.345 1170.69C548.417 1172.56 548.136 1177.03 541.423 1181.98Z" fill="white"/>
<defs>
<linearGradient id="paint0_linear" x1="612.692" y1="669.225" x2="612.692" y2="1519.87" gradientUnits="userSpaceOnUse">
<stop offset="0.192708" stop-color="#D6DBFF" stop-opacity="0"/>
<stop offset="1" stop-color="#D6DBFF"/>
</linearGradient>
<linearGradient id="paint1_linear" x1="611.824" y1="703.433" x2="611.824" y2="1474.64" gradientUnits="userSpaceOnUse">
<stop offset="0.192708" stop-color="white" stop-opacity="0"/>
<stop offset="1" stop-color="white" stop-opacity="0.6"/>
</linearGradient>
</defs>
</svg>
