<svg width="394" height="666" viewBox="0 0 394 666" fill="none" xmlns="http://www.w3.org/2000/svg">

<style>
@keyframes float {
  0% { transform: translateY(0); }
  100% { transform: translateY(10px); }
}

#toit1 {
  animation: 1000ms ease-in-out 0ms infinite alternate float;
}
#toit2 {
  animation: 1800ms ease-in-out 0ms infinite alternate float;
}
#toit3 {
  animation: 900ms ease-in-out 0ms infinite alternate float;
}
#toit4 {
  animation: 1100ms ease-in-out 0ms infinite alternate float;
}
#toit5 {
  animation: 1900ms ease-in-out 0ms infinite alternate float;
}
#toit6 {
  animation: 1200ms ease-in-out 0ms infinite alternate float;
}
</style>

<g id="over-the-air-updates">
<g id="chip">
<g id="Group 1608">
<path id="Rectangle 1437" d="M203.326 663.998L390.489 555.939C392.202 554.95 393.052 553.651 393.039 552.355L392.985 527.691H1.29982L1.29898 552.355C1.2859 553.651 2.13591 554.95 3.84901 555.939L191.012 663.998C194.413 665.961 199.925 665.961 203.326 663.998Z" fill="#55A398" stroke="black" stroke-width="0.88818" stroke-linecap="round" stroke-linejoin="round"/>
<path id="Rectangle 1421" d="M191.01 415.997C194.411 414.034 199.923 414.034 203.324 415.997L390.487 524.056C393.887 526.019 393.887 529.202 390.487 531.165L203.324 639.224C199.923 641.187 194.411 641.187 191.01 639.224L3.84706 531.165C0.446812 529.202 0.446816 526.019 3.84706 524.056L191.01 415.997Z" fill="#BDDCD8" stroke="black" stroke-width="0.88818" stroke-linecap="round" stroke-linejoin="round"/>
</g>
<g id="Group 1611">
<rect id="Rectangle 1832" width="230.242" height="10.1088" transform="matrix(0.866025 0.5 -0.866025 0.5 138.496 446.303)" fill="#FFE496" stroke="black" stroke-width="0.88818" stroke-linecap="round" stroke-linejoin="round"/>
<rect id="Rectangle 1833" width="230.351" height="10.1088" transform="matrix(0.866025 0.5 -0.866025 0.5 114.52 460.112)" fill="#FFE496" stroke="black" stroke-width="0.88818" stroke-linecap="round" stroke-linejoin="round"/>
<rect id="Rectangle 1834" width="230.224" height="10.1088" transform="matrix(0.866025 0.5 -0.866025 0.5 90.7031 473.857)" fill="#FFE496" stroke="black" stroke-width="0.88818" stroke-linecap="round" stroke-linejoin="round"/>
<rect id="Rectangle 1835" width="230.33" height="10.1088" transform="matrix(0.866025 0.5 -0.866025 0.5 66.7305 487.715)" fill="#FFE496" stroke="black" stroke-width="0.88818" stroke-linecap="round" stroke-linejoin="round"/>
</g>
<g id="Group 1612">
<rect id="Rectangle 1832_2" width="230.242" height="10.1088" transform="matrix(-0.866025 0.5 0.866025 0.5 256.582 446.722)" fill="#FFE496" stroke="black" stroke-width="0.88818" stroke-linecap="round" stroke-linejoin="round"/>
<rect id="Rectangle 1833_2" width="230.351" height="10.1088" transform="matrix(-0.866025 0.5 0.866025 0.5 280.559 460.531)" fill="#FFE496" stroke="black" stroke-width="0.88818" stroke-linecap="round" stroke-linejoin="round"/>
<rect id="Rectangle 1834_2" width="230.224" height="10.1088" transform="matrix(-0.866025 0.5 0.866025 0.5 304.375 474.276)" fill="#FFE496" stroke="black" stroke-width="0.88818" stroke-linecap="round" stroke-linejoin="round"/>
<rect id="Rectangle 1835_2" width="230.33" height="10.1088" transform="matrix(-0.866025 0.5 0.866025 0.5 328.348 488.133)" fill="#FFE496" stroke="black" stroke-width="0.88818" stroke-linecap="round" stroke-linejoin="round"/>
</g>
<g id="Group 1610">
<path id="Rectangle 1437_2" d="M201.464 609.472L332.015 534.098C333.21 533.408 333.803 532.502 333.794 531.598L333.756 514.394H60.5456L60.545 531.598C60.5359 532.502 61.1288 533.408 62.3237 534.098L192.875 609.472C195.247 610.841 199.092 610.841 201.464 609.472Z" fill="black" stroke="black" stroke-width="0.88818" stroke-linecap="round" stroke-linejoin="round"/>
<path id="Rectangle 1421_2" d="M192.873 436.485C195.245 435.116 199.09 435.116 201.462 436.485L332.013 511.859C334.385 513.229 334.385 515.449 332.013 516.818L201.462 592.192C199.09 593.561 195.245 593.561 192.873 592.192L62.3218 516.818C59.95 515.449 59.95 513.229 62.3218 511.859L192.873 436.485Z" fill="#B3B3B3" stroke="black" stroke-width="0.88818" stroke-linecap="round" stroke-linejoin="round"/>
</g>
<circle id="Ellipse 214" r="3.86439" transform="matrix(0.866025 0.5 -0.866025 0.5 197.181 580.359)" fill="#505050" stroke="black" stroke-width="0.88818" stroke-linecap="round" stroke-linejoin="round"/>
<g id="Group 1617">
<g id="Group 1613">
<path id="Rectangle 1839" d="M239.834 577.607L248.955 583.218L240.376 598.08L231.079 592.724L231.079 582.661L239.834 577.607Z" fill="#B3B3B3" stroke="black" stroke-width="0.88818" stroke-linecap="round" stroke-linejoin="round"/>
<path id="Rectangle 1840" d="M248.979 583.221L248.979 593.017L240.446 597.943L240.446 587.981L248.979 583.221Z" fill="#B3B3B3" stroke="black" stroke-width="0.88818" stroke-linecap="round" stroke-linejoin="round"/>
<path id="Rectangle 1836" d="M239.687 577.537L249.026 582.986L240.444 588.084L231.196 582.615L239.687 577.537Z" fill="#D9D9D9" stroke="black" stroke-width="0.88818" stroke-linecap="round" stroke-linejoin="round"/>
</g>
<g id="Group 1614">
<path id="Rectangle 1839_2" d="M263.77 563.744L272.892 569.355L264.313 584.216L255.016 578.86L255.016 568.798L263.77 563.744Z" fill="#B3B3B3" stroke="black" stroke-width="0.88818" stroke-linecap="round" stroke-linejoin="round"/>
<path id="Rectangle 1840_2" d="M272.915 569.358L272.915 579.154L264.383 584.08L264.383 574.118L272.915 569.358Z" fill="#B3B3B3" stroke="black" stroke-width="0.88818" stroke-linecap="round" stroke-linejoin="round"/>
<path id="Rectangle 1836_2" d="M263.623 563.674L272.963 569.123L264.381 574.22L255.133 568.752L263.623 563.674Z" fill="#D9D9D9" stroke="black" stroke-width="0.88818" stroke-linecap="round" stroke-linejoin="round"/>
</g>
<g id="Group 1615">
<path id="Rectangle 1839_3" d="M287.836 549.969L296.957 555.58L288.378 570.442L279.081 565.086L279.081 555.024L287.836 549.969Z" fill="#B3B3B3" stroke="black" stroke-width="0.88818" stroke-linecap="round" stroke-linejoin="round"/>
<path id="Rectangle 1840_3" d="M296.979 555.583L296.979 565.38L288.447 570.306L288.447 560.344L296.979 555.583Z" fill="#B3B3B3" stroke="black" stroke-width="0.88818" stroke-linecap="round" stroke-linejoin="round"/>
<path id="Rectangle 1836_3" d="M287.688 549.9L297.027 555.348L288.445 560.446L279.197 554.977L287.688 549.9Z" fill="#D9D9D9" stroke="black" stroke-width="0.88818" stroke-linecap="round" stroke-linejoin="round"/>
</g>
<g id="Group 1616">
<path id="Rectangle 1839_4" d="M311.485 535.92L320.606 541.531L312.028 556.393L302.73 551.037L302.73 540.975L311.485 535.92Z" fill="#B3B3B3" stroke="black" stroke-width="0.88818" stroke-linecap="round" stroke-linejoin="round"/>
<path id="Rectangle 1840_4" d="M320.629 541.534L320.629 551.33L312.097 556.256L312.097 546.295L320.629 541.534Z" fill="#B3B3B3" stroke="black" stroke-width="0.88818" stroke-linecap="round" stroke-linejoin="round"/>
<path id="Rectangle 1836_4" d="M311.337 535.851L320.676 541.299L312.095 546.397L302.847 540.928L311.337 535.851Z" fill="#D9D9D9" stroke="black" stroke-width="0.88818" stroke-linecap="round" stroke-linejoin="round"/>
</g>
</g>
<g id="Group 1618">
<g id="Group 1613_2">
<path id="Rectangle 1839_5" d="M155.871 577.607L146.749 583.218L155.328 598.079L164.625 592.724L164.625 582.661L155.871 577.607Z" fill="#B3B3B3" stroke="black" stroke-width="0.88818" stroke-linecap="round" stroke-linejoin="round"/>
<path id="Rectangle 1840_5" d="M146.727 583.221L146.727 593.017L155.259 597.943L155.259 587.981L146.727 583.221Z" fill="#B3B3B3" stroke="black" stroke-width="0.88818" stroke-linecap="round" stroke-linejoin="round"/>
<path id="Rectangle 1836_5" d="M156.019 577.537L146.679 582.986L155.261 588.084L164.509 582.615L156.019 577.537Z" fill="#D9D9D9" stroke="black" stroke-width="0.88818" stroke-linecap="round" stroke-linejoin="round"/>
</g>
<g id="Group 1614_2">
<path id="Rectangle 1839_6" d="M131.934 563.744L122.813 569.355L131.391 584.216L140.688 578.86L140.688 568.798L131.934 563.744Z" fill="#B3B3B3" stroke="black" stroke-width="0.88818" stroke-linecap="round" stroke-linejoin="round"/>
<path id="Rectangle 1840_6" d="M122.79 569.358L122.79 579.154L131.322 584.08L131.322 574.118L122.79 569.358Z" fill="#B3B3B3" stroke="black" stroke-width="0.88818" stroke-linecap="round" stroke-linejoin="round"/>
<path id="Rectangle 1836_6" d="M132.082 563.674L122.743 569.123L131.324 574.22L140.572 568.752L132.082 563.674Z" fill="#D9D9D9" stroke="black" stroke-width="0.88818" stroke-linecap="round" stroke-linejoin="round"/>
</g>
<g id="Group 1615_2">
<path id="Rectangle 1839_7" d="M107.87 549.969L98.7481 555.58L107.327 570.442L116.624 565.086L116.624 555.024L107.87 549.969Z" fill="#B3B3B3" stroke="black" stroke-width="0.88818" stroke-linecap="round" stroke-linejoin="round"/>
<path id="Rectangle 1840_7" d="M98.7256 555.583L98.7256 565.38L107.258 570.306L107.258 560.344L98.7256 555.583Z" fill="#B3B3B3" stroke="black" stroke-width="0.88818" stroke-linecap="round" stroke-linejoin="round"/>
<path id="Rectangle 1836_7" d="M108.018 549.9L98.6781 555.348L107.26 560.446L116.508 554.977L108.018 549.9Z" fill="#D9D9D9" stroke="black" stroke-width="0.88818" stroke-linecap="round" stroke-linejoin="round"/>
</g>
<g id="Group 1616_2">
<path id="Rectangle 1839_8" d="M84.2191 535.92L75.0977 541.531L83.6763 556.393L92.9736 551.037L92.9736 540.975L84.2191 535.92Z" fill="#B3B3B3" stroke="black" stroke-width="0.88818" stroke-linecap="round" stroke-linejoin="round"/>
<path id="Rectangle 1840_8" d="M75.0752 541.534L75.0752 551.33L83.6074 556.256L83.6074 546.295L75.0752 541.534Z" fill="#B3B3B3" stroke="black" stroke-width="0.88818" stroke-linecap="round" stroke-linejoin="round"/>
<path id="Rectangle 1836_8" d="M84.3672 535.851L75.0277 541.299L83.6093 546.397L92.8573 540.928L84.3672 535.851Z" fill="#D9D9D9" stroke="black" stroke-width="0.88818" stroke-linecap="round" stroke-linejoin="round"/>
</g>
</g>
</g>
<g id="cloud">
<g id="Group 1533">
<path id="Ellipse 68" d="M197.997 539.988C230.803 539.988 257.398 526.323 257.398 509.467L275.188 221.73H119.567L138.595 509.467C138.595 526.323 165.19 539.988 197.997 539.988Z" fill="url(#paint0_linear)"/>
<path id="Ellipse 70" d="M197.672 523.066C213.249 523.066 225.876 516.562 225.876 508.538L234.322 234.529H160.434L169.468 508.538C169.468 516.562 182.095 523.066 197.672 523.066Z" fill="url(#paint1_linear)"/>
<path id="Ellipse 69" d="M122.044 162.702L138.713 509.038C138.713 525.903 165.349 539.576 198.205 539.576C231.062 539.576 257.697 525.903 257.697 509.038L273.124 162.702" stroke="black" stroke-width="0.813544" stroke-linecap="round" stroke-linejoin="round" stroke-dasharray="8.26 8.26"/>
</g>
<g id="toit6">
<g id="Group 1482">
<g id="Group 1192">
<g id="Group 1186">
<path id="Vector (Stroke)" fill-rule="evenodd" clip-rule="evenodd" d="M218.706 482.586C218.627 482.584 218.548 482.592 218.47 482.61L210.022 484.554C210.01 484.557 209.997 484.56 209.984 484.564C209.112 484.807 208.151 484.818 207.188 484.599C207.026 484.539 206.861 484.489 206.693 484.449L198.183 481.219C198.102 481.2 198.023 481.19 197.946 481.189C197.502 481.182 196.837 482.596 196.806 483.038C196.769 483.556 197.185 484.083 197.735 484.216L206.456 486.32L206.809 486.413C206.84 486.421 206.871 486.429 206.901 486.436C207.548 486.715 208.051 487.315 208.168 487.983L208.305 488.766C208.388 489.235 208.331 489.692 208.142 490.082L205.714 495.1C205.467 495.61 204.739 495.664 204.238 495.21L200.677 490.082C200.239 489.686 199.179 489.556 198.725 490.789C198.299 491.67 198.287 492.211 198.725 492.608L203.028 496.507C204.564 497.899 206.793 497.733 207.549 496.171L209.777 491.567L213.634 496.25C214.942 497.84 217.24 498.065 218.294 496.707L221.246 492.902C221.546 492.515 222.694 491.405 221.726 490.349C221.264 489.98 219.875 491.181 219.575 491.567L216.622 495.372C216.278 495.816 215.528 495.742 215.1 495.223L210.897 490.118C210.57 489.721 210.352 489.261 210.27 488.792L210.085 487.74C209.976 487.117 210.315 486.581 210.905 486.444L220.052 484.273C220.558 484.155 220.798 482.856 220.581 482.335C220.393 481.886 219.154 482.587 218.706 482.586Z" fill="#5E6FDB"/>
<path id="Vector (Stroke) (Stroke)" fill-rule="evenodd" clip-rule="evenodd" d="M198.183 481.219L206.693 484.449C206.861 484.489 207.026 484.539 207.188 484.599C208.151 484.818 209.113 484.807 209.984 484.564C209.997 484.56 210.01 484.557 210.023 484.554L218.471 482.609C218.548 482.592 218.627 482.584 218.706 482.586C218.864 482.586 219.12 482.499 219.394 482.406C219.897 482.235 220.46 482.044 220.581 482.335C220.798 482.856 220.558 484.155 220.052 484.273L210.905 486.444C210.315 486.581 209.976 487.117 210.086 487.74L210.27 488.792C210.352 489.26 210.57 489.721 210.897 490.118L215.101 495.223C215.528 495.742 216.279 495.815 216.623 495.372L219.575 491.567C219.875 491.18 221.264 489.98 221.726 490.348C222.594 491.295 221.762 492.285 221.364 492.759C221.317 492.814 221.277 492.862 221.246 492.902L218.294 496.707C217.24 498.065 214.943 497.84 213.634 496.25L209.777 491.566L207.549 496.171C206.793 497.733 204.565 497.899 203.028 496.507L198.725 492.607C198.287 492.211 198.299 491.669 198.725 490.789C199.18 489.556 200.239 489.685 200.677 490.082L204.238 495.21C204.74 495.664 205.468 495.61 205.715 495.1L208.142 490.082C208.331 489.692 208.388 489.235 208.306 488.766L208.168 487.983C208.051 487.315 207.548 486.715 206.902 486.436C206.871 486.429 206.84 486.421 206.809 486.413L206.456 486.32L197.735 484.215C197.185 484.083 196.77 483.556 196.806 483.038C196.837 482.595 197.502 481.182 197.947 481.189C198.023 481.19 198.102 481.2 198.183 481.219ZM197.957 480.376C197.687 480.372 197.471 480.475 197.333 480.563C197.191 480.654 197.074 480.765 196.982 480.867C196.799 481.069 196.638 481.318 196.51 481.551C196.378 481.789 196.261 482.042 196.174 482.273C196.095 482.483 196.011 482.746 195.995 482.981C195.927 483.945 196.659 484.793 197.544 485.006L206.257 487.109L206.603 487.2C206.612 487.202 206.622 487.204 206.631 487.207C207.023 487.396 207.304 487.765 207.367 488.124L207.504 488.907C207.56 489.224 207.517 489.506 207.41 489.728L205.001 494.706C204.967 494.706 204.907 494.694 204.84 494.65L201.292 489.542L201.223 489.479C200.823 489.116 200.192 488.903 199.554 489.025C198.866 489.157 198.29 489.651 197.976 490.469C197.754 490.935 197.59 491.41 197.587 491.876C197.585 492.408 197.794 492.861 198.179 493.21L202.482 497.11C203.405 497.946 204.562 498.338 205.642 498.258C206.729 498.177 207.758 497.606 208.282 496.525L209.956 493.064L213.006 496.767C213.795 497.726 214.892 498.287 215.98 498.393C217.07 498.5 218.205 498.148 218.937 497.205L221.889 493.401C221.9 493.387 221.92 493.363 221.948 493.33C222.103 493.148 222.487 492.698 222.705 492.207C222.844 491.894 222.952 491.501 222.912 491.064C222.87 490.613 222.677 490.182 222.325 489.799L222.283 489.752L222.234 489.713C221.775 489.346 221.234 489.472 220.979 489.557C220.676 489.659 220.378 489.834 220.131 490.003C219.642 490.337 219.149 490.789 218.932 491.069L215.998 494.849C215.992 494.85 215.983 494.85 215.972 494.849C215.906 494.842 215.808 494.802 215.729 494.706L211.525 489.601C211.28 489.303 211.127 488.97 211.071 488.651L210.887 487.6C210.864 487.471 210.893 487.389 210.921 487.344C210.948 487.302 210.996 487.258 211.089 487.236L220.237 485.065C220.237 485.065 220.238 485.065 220.239 485.064C220.673 484.963 220.934 484.644 221.072 484.42C221.221 484.178 221.318 483.9 221.379 483.643C221.442 483.382 221.475 483.103 221.475 482.84C221.475 482.591 221.444 482.291 221.332 482.022C221.088 481.437 220.516 481.367 220.258 481.371C219.985 481.376 219.704 481.453 219.503 481.514C219.385 481.55 219.231 481.602 219.101 481.646C219.026 481.672 218.959 481.694 218.912 481.709C218.753 481.761 218.694 481.77 218.694 481.772C218.694 481.772 218.694 481.772 218.694 481.772C218.561 481.771 218.424 481.785 218.288 481.817L209.84 483.761C209.815 483.767 209.79 483.773 209.766 483.78M197.957 480.376C198.096 480.377 198.235 480.395 198.373 480.428L198.423 480.44L206.935 483.67C207.098 483.711 207.259 483.76 207.416 483.816C208.244 483.997 209.05 483.98 209.766 483.78" fill="black"/>
<path id="Vector (Stroke)_2" fill-rule="evenodd" clip-rule="evenodd" d="M219.41 481.352C219.331 481.35 219.252 481.358 219.174 481.375L210.727 483.32C210.714 483.323 210.701 483.326 210.688 483.33C209.816 483.573 208.855 483.584 207.892 483.365C207.73 483.305 207.565 483.255 207.397 483.215L198.574 481.106C198.493 481.087 198.414 481.077 198.337 481.076C197.893 481.069 197.541 481.361 197.51 481.804C197.474 482.322 197.889 482.849 198.439 482.981L207.16 485.086L207.513 485.179C207.544 485.187 207.575 485.195 207.606 485.202C208.252 485.481 208.755 486.081 208.872 486.749L209.01 487.532C209.092 488.001 209.035 488.458 208.846 488.848L206.418 493.866C206.172 494.376 205.443 494.43 204.942 493.976L200.638 490.076C200.2 489.68 199.575 489.648 199.241 490.007C198.907 490.365 198.991 490.977 199.429 491.373L203.732 495.273C205.268 496.665 207.497 496.499 208.253 494.937L210.481 490.332L214.338 495.016C215.647 496.606 217.944 496.831 218.998 495.473L221.95 491.668C222.25 491.281 222.119 490.669 221.658 490.3C221.196 489.932 220.579 489.946 220.279 490.333L217.327 494.138C216.982 494.581 216.232 494.508 215.804 493.989L211.601 488.884C211.274 488.487 211.056 488.026 210.974 487.558L210.79 486.506C210.68 485.883 211.019 485.347 211.609 485.21L219.985 483.264C220.491 483.147 220.725 482.629 220.507 482.107C220.32 481.658 219.858 481.352 219.41 481.352Z" fill="#B0B8ED"/>
<path id="Vector (Stroke) (Stroke)_2" fill-rule="evenodd" clip-rule="evenodd" d="M207.513 485.179L207.16 485.086L198.439 482.982C197.89 482.849 197.474 482.322 197.51 481.804C197.541 481.361 197.893 481.069 198.338 481.076C198.414 481.077 198.493 481.087 198.574 481.106L207.397 483.215C207.565 483.255 207.73 483.305 207.892 483.365C208.855 483.584 209.817 483.573 210.688 483.33C210.701 483.326 210.714 483.323 210.727 483.32L219.175 481.375C219.252 481.358 219.331 481.35 219.41 481.352C219.858 481.352 220.32 481.658 220.507 482.107C220.725 482.629 220.491 483.147 219.985 483.264L211.609 485.21C211.019 485.347 210.68 485.883 210.79 486.506L210.974 487.558C211.056 488.026 211.274 488.487 211.601 488.884L215.805 493.989C216.232 494.508 216.983 494.581 217.327 494.138L220.279 490.333C220.579 489.946 221.197 489.932 221.658 490.3C222.119 490.669 222.25 491.281 221.95 491.668L218.998 495.473C217.944 496.831 215.647 496.606 214.338 495.016L210.481 490.332L208.253 494.937C207.497 496.499 205.269 496.665 203.733 495.273L199.429 491.373C198.991 490.977 198.907 490.365 199.241 490.007C199.575 489.649 200.201 489.68 200.638 490.076L204.942 493.976C205.444 494.43 206.172 494.376 206.419 493.866L208.846 488.848C209.035 488.458 209.092 488.001 209.01 487.532L208.872 486.749C208.755 486.081 208.252 485.481 207.606 485.202C207.575 485.195 207.544 485.187 207.513 485.179ZM207.335 485.973C207.326 485.971 207.316 485.968 207.307 485.966L206.961 485.875L198.248 483.772C197.363 483.559 196.631 482.711 196.699 481.747C196.763 480.832 197.516 480.25 198.348 480.263C198.487 480.265 198.626 480.282 198.763 480.315L207.586 482.423C207.768 482.467 207.946 482.52 208.121 482.582C208.948 482.763 209.754 482.746 210.47 482.546C210.495 482.539 210.519 482.533 210.544 482.527C210.544 482.527 210.544 482.527 210.544 482.527L218.992 480.583C219.136 480.55 219.28 480.536 219.421 480.539C220.205 480.543 220.95 481.056 221.258 481.794C221.444 482.24 221.456 482.736 221.259 483.172C221.059 483.615 220.666 483.941 220.169 484.057L211.793 486.002C211.7 486.024 211.652 486.068 211.625 486.11C211.597 486.155 211.568 486.237 211.591 486.366L211.776 487.417C211.832 487.736 211.984 488.069 212.229 488.367L216.433 493.472C216.512 493.568 216.61 493.608 216.676 493.615C216.687 493.616 216.696 493.616 216.702 493.615L219.636 489.835C220.3 488.979 221.469 489.108 222.166 489.665C222.861 490.22 223.247 491.323 222.593 492.167L219.641 495.972C218.909 496.914 217.774 497.266 216.684 497.159C215.597 497.053 214.499 496.492 213.71 495.534L210.66 491.83L208.986 495.291C208.463 496.372 207.433 496.943 206.346 497.024C205.266 497.104 204.109 496.712 203.186 495.876L198.883 491.976C198.222 491.377 197.908 490.244 198.646 489.452C199.374 488.671 200.526 488.876 201.185 489.473L205.488 493.373C205.577 493.453 205.662 493.472 205.706 493.472L208.114 488.494C208.221 488.272 208.264 487.99 208.208 487.673L208.071 486.89C208.008 486.531 207.727 486.162 207.335 485.973Z" fill="black"/>
</g>
<path id="Vector 285" d="M214.916 484.208L211.663 483.34L215.025 482.581L218.062 483.449L214.916 484.208Z" fill="white" fill-opacity="0.3"/>
</g>
<circle id="Ellipse 177" r="18.1686" transform="matrix(-1 0 0 1 209.579 488.276)" fill="white" fill-opacity="0.3" stroke="black" stroke-width="0.813544"/>
<path id="Ellipse 184" d="M219.201 477.109C219.366 479.064 220.372 479.513 221.107 479.064C221.841 478.615 221.8 477.209 221.015 475.924C220.23 474.638 218.998 473.959 218.263 474.408C217.529 474.856 217.596 475.924 219.201 477.109Z" fill="white"/>
</g>
</g>
<g id="toit5">
<g id="Group 1482_2">
<g id="Group 1192_2">
<g id="Group 1186_2">
<path id="Vector (Stroke)_3" fill-rule="evenodd" clip-rule="evenodd" d="M154.527 418.02C154.651 418.017 154.775 418.028 154.896 418.056L168.11 421.098C168.131 421.103 168.151 421.108 168.17 421.113C169.534 421.493 171.038 421.511 172.544 421.168C172.798 421.074 173.056 420.996 173.319 420.933L186.63 415.881C186.757 415.851 186.881 415.836 187.001 415.834C187.696 415.823 188.736 418.034 188.785 418.727C188.842 419.536 188.191 420.361 187.332 420.568L173.69 423.86L173.137 424.005C173.089 424.018 173.041 424.03 172.993 424.042C171.982 424.478 171.195 425.416 171.011 426.462L170.796 427.687C170.668 428.42 170.756 429.135 171.052 429.745L174.849 437.594C175.236 438.393 176.375 438.477 177.16 437.766L182.73 429.745C183.414 429.125 185.072 428.922 185.783 430.851C186.45 432.228 186.468 433.075 185.783 433.696L179.051 439.795C176.648 441.973 173.162 441.713 171.979 439.27L168.495 432.067L162.461 439.394C160.414 441.88 156.82 442.232 155.172 440.108L150.554 434.157C150.085 433.552 148.288 431.815 149.804 430.162C150.525 429.585 152.699 431.463 153.168 432.069L157.786 438.02C158.325 438.714 159.498 438.599 160.167 437.787L166.743 429.802C167.254 429.18 167.595 428.46 167.723 427.727L168.012 426.082C168.183 425.107 167.653 424.268 166.73 424.054L152.421 420.658C151.63 420.474 151.254 418.442 151.594 417.627C151.888 416.923 153.827 418.02 154.527 418.02Z" fill="#5E6FDB"/>
<path id="Vector (Stroke) (Stroke)_3" fill-rule="evenodd" clip-rule="evenodd" d="M186.63 415.881L173.319 420.933C173.056 420.996 172.798 421.074 172.544 421.168C171.038 421.511 169.534 421.493 168.17 421.113C168.15 421.108 168.13 421.102 168.11 421.098L154.895 418.056C154.775 418.028 154.651 418.016 154.527 418.02C154.28 418.02 153.879 417.883 153.45 417.738C152.663 417.47 151.784 417.171 151.594 417.627C151.254 418.442 151.63 420.474 152.421 420.657L166.73 424.054C167.652 424.268 168.183 425.107 168.012 426.082L167.723 427.727C167.594 428.46 167.254 429.18 166.742 429.802L160.167 437.786C159.498 438.599 158.324 438.714 157.786 438.02L153.168 432.068C152.698 431.463 150.525 429.585 149.803 430.162C148.445 431.643 149.747 433.191 150.37 433.933C150.442 434.019 150.505 434.094 150.554 434.157L155.172 440.108C156.82 442.232 160.414 441.88 162.461 439.394L168.495 432.067L171.979 439.269C173.162 441.713 176.648 441.973 179.051 439.795L185.783 433.695C186.468 433.075 186.449 432.228 185.783 430.851C185.072 428.922 183.414 429.125 182.73 429.745L177.159 437.766C176.374 438.477 175.236 438.393 174.849 437.594L171.052 429.745C170.756 429.134 170.667 428.42 170.796 427.687L171.011 426.462C171.194 425.416 171.981 424.478 172.992 424.042C173.041 424.03 173.089 424.018 173.137 424.005L173.69 423.86L187.332 420.568C188.191 420.361 188.841 419.536 188.784 418.726C188.736 418.034 187.696 415.823 187 415.834C186.881 415.835 186.757 415.85 186.63 415.881ZM186.99 415.021C186.808 415.023 186.624 415.046 186.441 415.089L186.39 415.102L173.077 420.154C172.819 420.218 172.564 420.295 172.315 420.385C170.944 420.69 169.596 420.666 168.389 420.329C168.357 420.321 168.325 420.312 168.293 420.305L155.078 417.263C154.894 417.221 154.708 417.203 154.526 417.206C154.519 417.205 154.481 417.202 154.4 417.182C154.31 417.161 154.199 417.128 154.064 417.085C153.976 417.057 153.863 417.019 153.742 416.977C153.547 416.911 153.328 416.837 153.146 416.782C152.835 416.686 152.449 416.584 152.091 416.578C151.749 416.572 151.114 416.665 150.843 417.313C150.7 417.657 150.655 418.057 150.655 418.418C150.655 418.792 150.703 419.191 150.792 419.567C150.88 419.938 151.017 420.323 151.218 420.648C151.406 420.954 151.729 421.331 152.234 421.449C152.235 421.45 152.236 421.45 152.237 421.45L166.546 424.846C167.018 424.956 167.312 425.361 167.21 425.941L166.922 427.586C166.819 428.17 166.544 428.762 166.114 429.284L159.539 437.269C159.339 437.512 159.075 437.636 158.848 437.658C158.624 437.68 158.493 437.604 158.429 437.521L153.811 431.57C153.509 431.181 152.778 430.505 152.039 430C151.667 429.746 151.241 429.499 150.825 429.36C150.458 429.237 149.82 429.108 149.296 429.526L149.246 429.566L149.204 429.612C148.715 430.145 148.46 430.727 148.405 431.324C148.351 431.907 148.494 432.44 148.691 432.883C148.999 433.575 149.524 434.195 149.786 434.505C149.841 434.569 149.884 434.62 149.911 434.655L154.529 440.607C155.558 441.932 157.166 442.444 158.746 442.289C160.325 442.135 161.931 441.318 163.089 439.911L168.315 433.564L171.247 439.624C171.983 441.146 173.434 441.96 174.997 442.077C176.553 442.192 178.241 441.627 179.597 440.398L186.329 434.298C186.838 433.838 187.107 433.252 187.103 432.553C187.1 431.92 186.874 431.244 186.532 430.531C186.091 429.366 185.301 428.716 184.399 428.543C183.549 428.38 182.707 428.667 182.183 429.142L182.114 429.205L176.551 437.216C176.33 437.39 176.094 437.448 175.915 437.435C175.728 437.421 175.63 437.339 175.582 437.24L171.784 429.391C171.57 428.949 171.495 428.409 171.597 427.827L171.812 426.602C171.941 425.869 172.504 425.161 173.259 424.814C173.287 424.807 173.315 424.799 173.343 424.792L173.888 424.649L187.523 421.359C188.717 421.071 189.684 419.925 189.596 418.669C189.575 418.372 189.465 418.012 189.344 417.693C189.215 417.352 189.042 416.976 188.847 416.622C188.654 416.275 188.423 415.919 188.169 415.638C188.042 415.498 187.889 415.354 187.713 415.241C187.541 415.131 187.292 415.016 186.99 415.021Z" fill="black"/>
<path id="Vector (Stroke)_4" fill-rule="evenodd" clip-rule="evenodd" d="M153.425 416.088C153.549 416.085 153.672 416.097 153.793 416.125L167.008 419.167C167.028 419.171 167.048 419.176 167.068 419.182C168.432 419.562 169.936 419.58 171.442 419.236C171.695 419.143 171.954 419.064 172.216 419.001L186.017 415.703C186.144 415.673 186.268 415.658 186.388 415.657C187.083 415.645 187.633 416.103 187.682 416.795C187.739 417.605 187.089 418.429 186.229 418.637L172.587 421.929L172.035 422.074C171.986 422.086 171.938 422.099 171.89 422.111C170.879 422.547 170.092 423.485 169.909 424.53L169.694 425.755C169.565 426.488 169.654 427.203 169.949 427.814L173.747 435.663C174.133 436.461 175.272 436.546 176.057 435.835L182.789 429.735C183.474 429.115 184.452 429.066 184.974 429.626C185.497 430.187 185.365 431.144 184.681 431.764L177.949 437.864C175.546 440.041 172.059 439.782 170.877 437.338L167.392 430.136L161.359 437.463C159.312 439.949 155.718 440.301 154.07 438.177L149.452 432.225C148.982 431.62 149.187 430.662 149.908 430.085C150.63 429.509 151.596 429.532 152.066 430.137L156.684 436.088C157.222 436.782 158.396 436.667 159.065 435.855L165.64 427.87C166.152 427.249 166.492 426.529 166.621 425.795L166.909 424.15C167.08 423.176 166.55 422.337 165.627 422.122L152.525 419.079C151.734 418.895 151.368 418.085 151.708 417.27C152.002 416.566 152.724 416.089 153.425 416.088Z" fill="#B0B8ED"/>
<path id="Vector (Stroke) (Stroke)_4" fill-rule="evenodd" clip-rule="evenodd" d="M188.493 416.738C188.411 415.573 187.46 414.827 186.377 414.843C186.195 414.845 186.011 414.868 185.828 414.912L172.027 418.21C171.75 418.276 171.478 418.358 171.212 418.454C169.841 418.759 168.493 418.735 167.286 418.398C167.254 418.389 167.222 418.381 167.19 418.374L153.975 415.332C153.788 415.289 153.599 415.271 153.414 415.275C152.377 415.28 151.371 415.965 150.957 416.956C150.71 417.549 150.701 418.191 150.951 418.746C151.204 419.307 151.701 419.723 152.341 419.871L165.443 422.915C165.915 423.025 166.21 423.43 166.108 424.01L165.819 425.655C165.717 426.239 165.442 426.831 165.012 427.353L158.436 435.338C158.237 435.581 157.972 435.705 157.746 435.727C157.521 435.749 157.391 435.673 157.326 435.59L152.708 429.638C151.875 428.565 150.358 428.685 149.4 429.45C148.445 430.213 147.985 431.662 148.809 432.724L153.427 438.675C154.455 440.001 156.064 440.513 157.644 440.358C159.222 440.204 160.828 439.386 161.987 437.98L167.213 431.633L170.144 437.692C170.881 439.214 172.331 440.029 173.895 440.145C175.45 440.261 177.139 439.696 178.495 438.467L185.227 432.367L184.68 431.764L177.948 437.864C175.546 440.041 172.059 439.782 170.877 437.338L167.392 430.136L161.359 437.463C159.311 439.949 155.718 440.301 154.069 438.177L149.452 432.225C148.982 431.62 149.186 430.662 149.908 430.085C150.63 429.509 151.596 429.532 152.066 430.137L156.683 436.088C157.222 436.782 158.396 436.667 159.065 435.855L165.64 427.87C166.151 427.249 166.492 426.529 166.621 425.796L166.909 424.151C167.08 423.176 166.55 422.337 165.627 422.122L152.525 419.079C151.734 418.895 151.368 418.085 151.708 417.27C152.002 416.566 152.724 416.089 153.425 416.088C153.549 416.085 153.672 416.097 153.793 416.125L167.008 419.167C167.028 419.171 167.048 419.176 167.068 419.182C168.431 419.562 169.935 419.58 171.442 419.236C171.695 419.143 171.954 419.064 172.216 419.001L186.017 415.703C186.144 415.673 186.268 415.658 186.388 415.657C187.083 415.645 187.633 416.103 187.682 416.795C187.739 417.605 187.089 418.43 186.229 418.637L172.587 421.929L172.035 422.074C171.986 422.087 171.938 422.099 171.89 422.111C170.879 422.547 170.092 423.485 169.908 424.53L170.71 424.671C170.838 423.938 171.401 423.23 172.157 422.883C172.185 422.875 172.213 422.868 172.241 422.861L172.786 422.718L186.42 419.428C187.615 419.139 188.582 417.994 188.493 416.738ZM169.694 425.755L169.908 424.53L170.71 424.671L170.495 425.896C170.393 426.478 170.468 427.017 170.682 427.46L174.479 435.309C174.527 435.408 174.625 435.49 174.813 435.504C175.008 435.518 175.273 435.447 175.511 435.232L182.242 429.132C183.148 428.311 184.653 428.088 185.569 429.072C186.496 430.065 186.135 431.544 185.227 432.367L184.68 431.764C185.365 431.144 185.497 430.187 184.974 429.626C184.452 429.066 183.473 429.115 182.789 429.735L176.057 435.835C175.272 436.546 174.133 436.461 173.747 435.663L169.949 427.814C169.654 427.203 169.565 426.488 169.694 425.755Z" fill="black"/>
</g>
<path id="Vector 285_2" d="M160.456 420.557L165.546 419.2L160.286 418.012L155.536 419.369L160.456 420.557Z" fill="white" fill-opacity="0.3"/>
</g>
<circle id="Ellipse 177_2" cx="168.803" cy="426.922" r="28.6502" fill="white" fill-opacity="0.3" stroke="black" stroke-width="0.813544"/>
<path id="Ellipse 184_2" d="M153.748 409.457C153.49 412.515 151.917 413.217 150.767 412.515C149.618 411.813 149.682 409.614 150.91 407.603C152.138 405.591 154.066 404.53 155.215 405.231C156.364 405.933 156.259 407.603 153.748 409.457Z" fill="white"/>
</g>
</g>
<g id="toit4">
<g id="Group 1482_3">
<g id="Group 1192_3">
<g id="Group 1186_3">
<path id="Vector (Stroke)_5" fill-rule="evenodd" clip-rule="evenodd" d="M229.873 362.56C229.796 362.558 229.72 362.565 229.645 362.582L221.485 364.46C221.473 364.463 221.46 364.466 221.448 364.47C220.606 364.705 219.677 364.716 218.747 364.503C218.591 364.446 218.431 364.397 218.269 364.358L210.049 361.239C209.971 361.22 209.895 361.211 209.821 361.21C209.391 361.203 208.749 362.568 208.719 362.996C208.684 363.496 209.085 364.005 209.616 364.133L218.04 366.166L218.381 366.256C218.411 366.263 218.441 366.271 218.471 366.279C219.095 366.548 219.581 367.127 219.694 367.773L219.827 368.529C219.906 368.982 219.851 369.423 219.669 369.8L217.324 374.647C217.085 375.14 216.382 375.192 215.897 374.753L212.458 369.8C212.035 369.417 211.012 369.292 210.572 370.483C210.161 371.333 210.15 371.856 210.572 372.239L214.729 376.006C216.213 377.35 218.366 377.19 219.096 375.681L221.248 371.234L224.974 375.758C226.238 377.293 228.457 377.511 229.475 376.199L232.326 372.524C232.616 372.15 233.726 371.078 232.79 370.057C232.344 369.701 231.002 370.861 230.712 371.235L227.861 374.91C227.528 375.338 226.803 375.267 226.39 374.766L222.33 369.835C222.014 369.451 221.804 369.006 221.724 368.554L221.546 367.538C221.441 366.936 221.768 366.418 222.338 366.286L231.173 364.188C231.662 364.075 231.894 362.82 231.684 362.317C231.503 361.883 230.305 362.56 229.873 362.56Z" fill="#5E6FDB"/>
<path id="Vector (Stroke) (Stroke)_5" fill-rule="evenodd" clip-rule="evenodd" d="M210.05 361.239L218.269 364.358C218.432 364.397 218.591 364.446 218.748 364.503C219.678 364.716 220.607 364.704 221.449 364.47C221.461 364.466 221.473 364.463 221.486 364.46L229.646 362.582C229.72 362.565 229.797 362.558 229.873 362.559C230.026 362.56 230.274 362.475 230.538 362.385C231.024 362.22 231.567 362.036 231.684 362.317C231.894 362.82 231.662 364.075 231.174 364.188L222.338 366.286C221.768 366.418 221.441 366.936 221.547 367.538L221.725 368.554C221.804 369.006 222.014 369.451 222.33 369.835L226.391 374.766C226.804 375.267 227.529 375.338 227.861 374.91L230.713 371.235C231.003 370.861 232.345 369.701 232.79 370.057C233.629 370.972 232.825 371.928 232.44 372.386C232.396 372.439 232.357 372.485 232.327 372.524L229.475 376.199C228.457 377.511 226.238 377.293 224.974 375.758L221.248 371.234L219.097 375.681C218.366 377.19 216.214 377.35 214.73 376.006L210.573 372.239C210.15 371.856 210.161 371.333 210.573 370.483C211.012 369.292 212.036 369.417 212.458 369.8L215.898 374.753C216.383 375.192 217.086 375.14 217.324 374.647L219.669 369.8C219.852 369.423 219.907 368.981 219.827 368.529L219.695 367.772C219.581 367.127 219.095 366.548 218.471 366.278C218.441 366.271 218.411 366.263 218.382 366.256L218.04 366.166L209.616 364.133C209.086 364.005 208.684 363.496 208.719 362.996C208.75 362.568 209.392 361.203 209.821 361.21C209.895 361.211 209.972 361.22 210.05 361.239ZM209.827 360.708C209.94 360.709 210.053 360.723 210.167 360.75L210.198 360.758L218.418 363.878C218.578 363.917 218.735 363.965 218.89 364.02C219.736 364.209 220.569 364.194 221.314 363.986C221.333 363.98 221.353 363.975 221.373 363.971L229.533 362.092C229.647 362.066 229.761 362.055 229.874 362.057C229.878 362.057 229.902 362.054 229.952 362.042C230.008 362.029 230.076 362.009 230.159 361.982C230.214 361.965 230.283 361.941 230.358 361.916C230.479 361.875 230.614 361.829 230.726 361.795C230.918 361.736 231.157 361.673 231.377 361.669C231.589 361.666 231.981 361.723 232.148 362.123C232.236 362.335 232.264 362.583 232.264 362.805C232.264 363.036 232.235 363.283 232.18 363.515C232.126 363.744 232.041 363.982 231.917 364.182C231.8 364.372 231.601 364.604 231.289 364.677C231.289 364.677 231.288 364.678 231.288 364.678L222.452 366.775C222.16 366.843 221.979 367.093 222.041 367.451L222.22 368.467C222.283 368.827 222.453 369.193 222.718 369.515L226.778 374.446C226.902 374.596 227.065 374.673 227.205 374.686C227.344 374.7 227.424 374.653 227.464 374.602L230.316 370.927C230.502 370.687 230.953 370.269 231.41 369.957C231.639 369.8 231.902 369.648 232.159 369.562C232.386 369.486 232.78 369.406 233.104 369.665L233.134 369.689L233.161 369.718C233.462 370.047 233.62 370.406 233.654 370.775C233.687 371.135 233.599 371.464 233.477 371.737C233.287 372.165 232.963 372.548 232.801 372.739C232.767 372.779 232.74 372.81 232.724 372.832L229.872 376.507C229.237 377.326 228.244 377.642 227.268 377.546C226.293 377.451 225.301 376.946 224.586 376.077L221.359 372.158L219.549 375.9C219.094 376.84 218.199 377.343 217.233 377.415C216.273 377.486 215.23 377.137 214.392 376.378L210.236 372.612C209.922 372.327 209.755 371.966 209.758 371.534C209.76 371.143 209.899 370.726 210.11 370.285C210.383 369.566 210.871 369.164 211.427 369.058C211.952 368.957 212.472 369.135 212.796 369.428L212.838 369.466L216.274 374.413C216.41 374.521 216.556 374.557 216.666 374.548C216.782 374.54 216.843 374.489 216.872 374.428L219.217 369.581C219.349 369.308 219.395 368.975 219.332 368.616L219.2 367.859C219.12 367.407 218.773 366.969 218.306 366.755C218.289 366.75 218.272 366.746 218.254 366.741L217.918 366.653L209.499 364.622C208.761 364.444 208.164 363.736 208.218 362.961C208.231 362.777 208.299 362.555 208.374 362.358C208.454 362.147 208.56 361.915 208.681 361.697C208.8 361.482 208.943 361.262 209.1 361.089C209.178 361.002 209.272 360.913 209.381 360.844C209.488 360.776 209.641 360.705 209.827 360.708Z" fill="black"/>
<path id="Vector (Stroke)_6" fill-rule="evenodd" clip-rule="evenodd" d="M230.553 361.367C230.477 361.365 230.401 361.372 230.326 361.389L222.166 363.268C222.153 363.271 222.141 363.274 222.129 363.277C221.287 363.512 220.358 363.523 219.428 363.311C219.272 363.253 219.112 363.205 218.95 363.166L210.428 361.129C210.349 361.111 210.273 361.101 210.199 361.1C209.769 361.093 209.43 361.376 209.4 361.803C209.364 362.303 209.766 362.813 210.297 362.941L218.721 364.974L219.062 365.063C219.092 365.071 219.121 365.078 219.151 365.086C219.775 365.355 220.261 365.934 220.375 366.58L220.507 367.336C220.587 367.789 220.532 368.23 220.35 368.607L218.005 373.454C217.766 373.947 217.063 374 216.578 373.56L212.421 369.794C211.998 369.411 211.394 369.381 211.072 369.727C210.749 370.073 210.83 370.664 211.253 371.047L215.41 374.813C216.894 376.158 219.047 375.998 219.777 374.489L221.929 370.041L225.654 374.566C226.918 376.101 229.138 376.318 230.155 375.007L233.007 371.332C233.297 370.958 233.171 370.366 232.725 370.01C232.279 369.654 231.683 369.668 231.393 370.042L228.541 373.717C228.209 374.146 227.484 374.075 227.071 373.573L223.011 368.642C222.695 368.259 222.484 367.814 222.405 367.361L222.227 366.345C222.121 365.743 222.449 365.225 223.018 365.093L231.109 363.214C231.598 363.1 231.823 362.6 231.613 362.096C231.432 361.662 230.986 361.367 230.553 361.367Z" fill="#B0B8ED"/>
<path id="Vector (Stroke) (Stroke)_6" fill-rule="evenodd" clip-rule="evenodd" d="M208.899 361.768C208.95 361.049 209.537 360.588 210.206 360.598C210.318 360.599 210.432 360.614 210.545 360.641L219.067 362.677C219.238 362.718 219.406 362.768 219.57 362.828C220.417 363.016 221.249 363.001 221.994 362.793C222.014 362.788 222.034 362.783 222.054 362.778L230.214 360.9C230.33 360.873 230.446 360.862 230.56 360.865C231.201 360.868 231.822 361.291 232.078 361.903C232.23 362.269 232.236 362.666 232.082 363.008C231.925 363.355 231.618 363.611 231.223 363.703L223.133 365.582C222.841 365.65 222.659 365.9 222.722 366.259L222.9 367.274C222.964 367.635 223.133 368.001 223.399 368.323L227.459 373.254C227.582 373.403 227.746 373.48 227.886 373.494C228.024 373.507 228.105 373.461 228.145 373.409L230.996 369.734C231.511 369.071 232.448 369.145 233.039 369.618C233.629 370.089 233.913 370.984 233.404 371.639L230.553 375.314C229.918 376.133 228.924 376.449 227.949 376.354C226.974 376.258 225.982 375.753 225.267 374.885L222.04 370.966L220.229 374.707C219.775 375.647 218.879 376.15 217.914 376.222C216.953 376.293 215.911 375.945 215.073 375.186L210.916 371.419L211.253 371.047L215.41 374.813C216.894 376.158 219.047 375.998 219.777 374.489L221.929 370.041L225.655 374.566C226.919 376.101 229.138 376.318 230.156 375.006L233.007 371.331C233.297 370.958 233.171 370.366 232.725 370.01C232.28 369.654 231.683 369.668 231.393 370.042L228.542 373.717C228.209 374.145 227.484 374.074 227.071 373.573L223.011 368.642C222.695 368.259 222.485 367.814 222.405 367.361L222.227 366.345C222.122 365.743 222.449 365.225 223.019 365.093L231.11 363.214C231.598 363.1 231.824 362.6 231.614 362.096C231.433 361.662 230.987 361.367 230.554 361.367C230.477 361.365 230.401 361.372 230.327 361.389L222.166 363.268C222.154 363.271 222.142 363.274 222.129 363.277C221.287 363.512 220.359 363.523 219.428 363.311C219.272 363.253 219.112 363.205 218.95 363.166L210.428 361.129C210.35 361.111 210.273 361.101 210.199 361.1C209.77 361.093 209.43 361.376 209.4 361.803C209.365 362.303 209.766 362.813 210.297 362.941L218.721 364.974L219.062 365.063C219.092 365.071 219.122 365.078 219.152 365.086C219.776 365.355 220.262 365.934 220.375 366.58L219.88 366.667C219.801 366.214 219.453 365.777 218.987 365.562C218.97 365.558 218.952 365.553 218.935 365.549L218.598 365.461L210.179 363.429C209.441 363.251 208.844 362.544 208.899 361.768ZM220.508 367.336L220.375 366.58L219.88 366.667L220.013 367.423C220.076 367.782 220.03 368.116 219.898 368.389L217.553 373.235C217.523 373.297 217.463 373.347 217.347 373.356C217.226 373.365 217.063 373.321 216.916 373.188L212.759 369.421C212.2 368.915 211.271 368.777 210.705 369.384C210.132 369.998 210.356 370.911 210.916 371.419L211.253 371.047C210.831 370.664 210.75 370.073 211.072 369.727C211.395 369.381 211.999 369.411 212.422 369.794L216.579 373.56C217.063 374 217.767 373.947 218.005 373.454L220.35 368.607C220.533 368.23 220.587 367.789 220.508 367.336Z" fill="black"/>
</g>
<path id="Vector 285_3" d="M226.212 364.126L223.069 363.288L226.317 362.555L229.25 363.393L226.212 364.126Z" fill="white" fill-opacity="0.3"/>
</g>
<circle id="Ellipse 177_3" r="17.5359" transform="matrix(-1 0 0 1 221.057 368.057)" fill="white" fill-opacity="0.3" stroke="black" stroke-width="0.813544"/>
<path id="Ellipse 184_3" d="M230.354 357.272C230.513 359.161 231.485 359.594 232.195 359.161C232.904 358.727 232.865 357.369 232.107 356.127C231.348 354.885 230.158 354.229 229.448 354.663C228.739 355.096 228.804 356.127 230.354 357.272Z" fill="white"/>
</g>
</g>
<g id="toit3">
<g id="Group 1482_4">
<g id="Group 1192_4">
<g id="Group 1186_4">
<path id="Vector (Stroke)_7" fill-rule="evenodd" clip-rule="evenodd" d="M152.127 314.445C152.204 314.443 152.28 314.451 152.355 314.468L160.515 316.346C160.527 316.349 160.54 316.352 160.552 316.356C161.394 316.59 162.323 316.601 163.253 316.389C163.409 316.331 163.569 316.283 163.731 316.244L171.951 313.125C172.029 313.106 172.105 313.097 172.179 313.096C172.609 313.089 173.251 314.454 173.281 314.882C173.316 315.382 172.915 315.891 172.384 316.019L163.96 318.052L163.619 318.141C163.589 318.149 163.559 318.157 163.529 318.164C162.905 318.433 162.419 319.013 162.306 319.658L162.173 320.415C162.094 320.867 162.149 321.309 162.331 321.686L164.676 326.533C164.915 327.026 165.618 327.078 166.103 326.639L169.542 321.686C169.965 321.303 170.988 321.177 171.428 322.368C171.839 323.219 171.85 323.742 171.428 324.125L167.271 327.892C165.787 329.236 163.634 329.076 162.904 327.567L160.752 323.12L157.026 327.644C155.762 329.179 153.543 329.396 152.525 328.085L149.674 324.41C149.384 324.036 148.274 322.964 149.21 321.943C149.656 321.587 150.998 322.747 151.288 323.12L154.139 326.795C154.472 327.224 155.197 327.153 155.61 326.651L159.67 321.721C159.986 321.337 160.196 320.892 160.276 320.439L160.454 319.424C160.559 318.822 160.232 318.304 159.662 318.171L150.827 316.074C150.338 315.961 150.106 314.706 150.316 314.203C150.497 313.768 151.695 314.445 152.127 314.445Z" fill="#5E6FDB"/>
<path id="Vector (Stroke) (Stroke)_7" fill-rule="evenodd" clip-rule="evenodd" d="M171.95 313.124L163.731 316.244C163.568 316.283 163.409 316.331 163.252 316.389C162.322 316.601 161.393 316.59 160.551 316.355C160.539 316.352 160.527 316.349 160.514 316.346L152.354 314.468C152.28 314.45 152.203 314.443 152.127 314.445C151.974 314.445 151.726 314.361 151.462 314.271C150.976 314.106 150.433 313.921 150.316 314.203C150.106 314.706 150.338 315.961 150.826 316.074L159.662 318.171C160.232 318.304 160.559 318.822 160.453 319.424L160.275 320.439C160.196 320.892 159.986 321.337 159.67 321.721L155.609 326.651C155.196 327.153 154.471 327.224 154.139 326.795L151.287 323.12C150.997 322.747 149.655 321.587 149.21 321.943C148.371 322.858 149.175 323.814 149.56 324.271C149.604 324.325 149.643 324.371 149.673 324.41L152.525 328.085C153.543 329.396 155.762 329.179 157.026 327.644L160.752 323.119L162.903 327.567C163.634 329.076 165.786 329.236 167.27 327.892L171.427 324.125C171.85 323.742 171.839 323.219 171.427 322.368C170.988 321.177 169.964 321.303 169.542 321.686L166.102 326.639C165.617 327.078 164.914 327.026 164.676 326.533L162.331 321.686C162.148 321.309 162.093 320.867 162.173 320.415L162.305 319.658C162.419 319.013 162.905 318.433 163.529 318.164C163.559 318.157 163.589 318.149 163.618 318.141L163.96 318.052L172.384 316.019C172.914 315.891 173.316 315.382 173.281 314.882C173.25 314.454 172.608 313.089 172.179 313.096C172.105 313.096 172.028 313.106 171.95 313.124ZM172.173 312.593C172.06 312.595 171.947 312.609 171.833 312.636L171.802 312.643L163.582 315.763C163.422 315.803 163.265 315.85 163.11 315.906C162.264 316.094 161.431 316.079 160.686 315.872C160.667 315.866 160.647 315.861 160.627 315.856L152.467 313.978C152.353 313.952 152.239 313.941 152.126 313.943C152.122 313.942 152.098 313.94 152.048 313.928C151.992 313.915 151.924 313.895 151.841 313.868C151.786 313.851 151.717 313.827 151.642 313.802C151.521 313.761 151.386 313.715 151.274 313.681C151.082 313.622 150.843 313.559 150.623 313.555C150.411 313.551 150.019 313.609 149.852 314.009C149.764 314.221 149.736 314.468 149.736 314.691C149.736 314.922 149.765 315.169 149.82 315.401C149.874 315.63 149.959 315.867 150.083 316.068C150.2 316.257 150.399 316.49 150.711 316.563C150.711 316.563 150.712 316.563 150.712 316.563L159.548 318.661C159.84 318.728 160.021 318.978 159.959 319.337L159.78 320.353C159.717 320.713 159.547 321.079 159.282 321.401L155.222 326.332C155.098 326.482 154.935 326.558 154.795 326.572C154.656 326.586 154.576 326.539 154.536 326.487L151.684 322.812C151.498 322.572 151.047 322.155 150.59 321.843C150.361 321.686 150.098 321.534 149.841 321.448C149.614 321.372 149.22 321.292 148.896 321.551L148.866 321.575L148.839 321.604C148.538 321.933 148.38 322.292 148.346 322.66C148.313 323.021 148.401 323.35 148.523 323.623C148.713 324.051 149.037 324.434 149.199 324.625C149.233 324.665 149.26 324.696 149.276 324.718L152.128 328.393C152.763 329.211 153.756 329.527 154.732 329.432C155.707 329.336 156.699 328.832 157.414 327.963L160.641 324.044L162.451 327.786C162.906 328.726 163.801 329.229 164.767 329.3C165.727 329.372 166.77 329.023 167.608 328.264L171.764 324.497C172.078 324.213 172.245 323.851 172.242 323.42C172.24 323.029 172.101 322.611 171.89 322.171C171.617 321.452 171.129 321.05 170.573 320.943C170.048 320.843 169.528 321.02 169.204 321.313L169.162 321.352L165.726 326.299C165.59 326.407 165.444 326.442 165.334 326.434C165.218 326.426 165.157 326.375 165.128 326.314L162.783 321.467C162.651 321.194 162.605 320.861 162.668 320.501L162.8 319.745C162.88 319.292 163.227 318.855 163.694 318.641C163.711 318.636 163.728 318.632 163.746 318.627L164.082 318.539L172.501 316.507C173.239 316.329 173.836 315.622 173.782 314.846C173.769 314.663 173.701 314.441 173.626 314.243C173.546 314.033 173.44 313.801 173.319 313.582C173.2 313.368 173.057 313.148 172.9 312.974C172.822 312.888 172.728 312.799 172.619 312.729C172.512 312.662 172.359 312.591 172.173 312.593Z" fill="black"/>
<path id="Vector (Stroke)_8" fill-rule="evenodd" clip-rule="evenodd" d="M151.447 313.253C151.523 313.251 151.599 313.258 151.674 313.275L159.834 315.154C159.847 315.156 159.859 315.16 159.871 315.163C160.713 315.398 161.642 315.409 162.572 315.197C162.728 315.139 162.888 315.09 163.05 315.052L171.572 313.015C171.651 312.996 171.727 312.987 171.801 312.986C172.231 312.979 172.57 313.262 172.6 313.689C172.636 314.189 172.234 314.698 171.703 314.826L163.279 316.859L162.938 316.949C162.908 316.957 162.879 316.964 162.849 316.972C162.225 317.241 161.739 317.82 161.625 318.466L161.493 319.222C161.413 319.675 161.468 320.116 161.65 320.493L163.995 325.34C164.234 325.833 164.937 325.885 165.422 325.446L169.579 321.679C170.002 321.296 170.606 321.266 170.928 321.612C171.251 321.958 171.17 322.549 170.747 322.933L166.59 326.699C165.106 328.044 162.953 327.884 162.223 326.374L160.071 321.927L156.346 326.451C155.082 327.987 152.862 328.204 151.845 326.892L148.993 323.217C148.703 322.844 148.829 322.252 149.275 321.896C149.721 321.54 150.317 321.554 150.607 321.928L153.459 325.603C153.791 326.031 154.516 325.96 154.929 325.459L158.989 320.528C159.305 320.144 159.516 319.7 159.595 319.247L159.773 318.231C159.879 317.629 159.551 317.111 158.982 316.979L150.891 315.099C150.402 314.986 150.177 314.486 150.387 313.982C150.568 313.548 151.014 313.253 151.447 313.253Z" fill="#B0B8ED"/>
<path id="Vector (Stroke) (Stroke)_8" fill-rule="evenodd" clip-rule="evenodd" d="M173.101 313.654C173.05 312.934 172.463 312.474 171.794 312.484C171.682 312.485 171.568 312.499 171.455 312.526L162.933 314.563C162.762 314.604 162.594 314.654 162.43 314.714C161.583 314.902 160.751 314.887 160.006 314.679C159.986 314.673 159.966 314.668 159.946 314.664L151.786 312.785C151.67 312.759 151.554 312.748 151.44 312.75C150.799 312.753 150.178 313.176 149.922 313.789C149.77 314.155 149.764 314.551 149.918 314.894C150.075 315.24 150.382 315.497 150.777 315.589L158.867 317.468C159.159 317.536 159.341 317.786 159.278 318.144L159.1 319.16C159.036 319.52 158.867 319.886 158.601 320.209L154.541 325.139C154.418 325.289 154.254 325.366 154.114 325.379C153.976 325.393 153.895 325.346 153.855 325.295L151.004 321.62C150.489 320.957 149.552 321.031 148.961 321.503C148.371 321.974 148.087 322.869 148.596 323.525L151.447 327.2C152.082 328.019 153.076 328.335 154.051 328.239C155.026 328.144 156.018 327.639 156.733 326.771L159.96 322.852L161.771 326.593C162.225 327.533 163.121 328.036 164.086 328.108C165.047 328.179 166.089 327.83 166.927 327.071L171.084 323.305L170.747 322.932L166.59 326.699C165.106 328.044 162.953 327.883 162.223 326.374L160.071 321.927L156.345 326.451C155.081 327.986 152.862 328.204 151.844 326.892L148.993 323.217C148.703 322.843 148.829 322.252 149.275 321.896C149.72 321.54 150.317 321.554 150.607 321.928L153.458 325.603C153.791 326.031 154.516 325.96 154.929 325.459L158.989 320.528C159.305 320.144 159.515 319.7 159.595 319.247L159.773 318.231C159.878 317.629 159.551 317.111 158.981 316.979L150.89 315.099C150.402 314.986 150.176 314.486 150.386 313.982C150.567 313.548 151.013 313.253 151.446 313.253C151.523 313.251 151.599 313.258 151.673 313.275L159.834 315.153C159.846 315.156 159.858 315.159 159.871 315.163C160.713 315.398 161.641 315.409 162.572 315.197C162.728 315.139 162.888 315.09 163.05 315.051L171.572 313.015C171.65 312.996 171.727 312.987 171.801 312.986C172.23 312.979 172.57 313.262 172.6 313.689C172.635 314.189 172.234 314.698 171.703 314.826L163.279 316.859L162.938 316.949C162.908 316.957 162.878 316.964 162.848 316.972C162.224 317.241 161.738 317.82 161.625 318.466L162.12 318.552C162.199 318.1 162.547 317.662 163.013 317.448C163.03 317.444 163.048 317.439 163.065 317.435L163.402 317.346L171.821 315.315C172.559 315.137 173.156 314.429 173.101 313.654ZM161.492 319.222L161.625 318.466L162.12 318.552L161.987 319.309C161.924 319.668 161.97 320.001 162.102 320.274L164.447 325.121C164.477 325.182 164.537 325.233 164.653 325.242C164.774 325.251 164.937 325.207 165.084 325.074L169.241 321.307C169.8 320.8 170.729 320.663 171.295 321.27C171.868 321.884 171.644 322.797 171.084 323.305L170.747 322.932C171.169 322.549 171.25 321.958 170.928 321.612C170.605 321.266 170.001 321.296 169.578 321.679L165.421 325.446C164.937 325.885 164.233 325.833 163.995 325.34L161.65 320.493C161.467 320.116 161.413 319.675 161.492 319.222Z" fill="black"/>
</g>
<path id="Vector 285_4" d="M155.788 316.012L158.931 315.174L155.683 314.441L152.75 315.279L155.788 316.012Z" fill="white" fill-opacity="0.3"/>
</g>
<circle id="Ellipse 177_4" cx="160.943" cy="319.943" r="17.5359" fill="white" fill-opacity="0.3" stroke="black" stroke-width="0.813544"/>
<path id="Ellipse 184_4" d="M151.646 309.158C151.487 311.046 150.515 311.48 149.805 311.046C149.096 310.613 149.135 309.255 149.893 308.013C150.652 306.771 151.842 306.115 152.552 306.549C153.261 306.982 153.196 308.013 151.646 309.158Z" fill="white"/>
</g>
</g>
<g id="toit2">
<g id="Group 1482_5">
<g id="Group 1192_5">
<g id="Group 1186_5">
<path id="Vector (Stroke)_9" fill-rule="evenodd" clip-rule="evenodd" d="M236.955 271.731C236.831 271.728 236.708 271.739 236.587 271.767L223.372 274.809C223.352 274.814 223.332 274.819 223.312 274.824C221.948 275.204 220.444 275.222 218.938 274.879C218.685 274.785 218.426 274.707 218.163 274.644L204.852 269.592C204.726 269.562 204.602 269.546 204.482 269.545C203.786 269.534 202.747 271.745 202.698 272.437C202.641 273.247 203.291 274.072 204.15 274.279L217.793 277.571L218.345 277.716C218.393 277.729 218.442 277.741 218.49 277.753C219.501 278.189 220.288 279.127 220.471 280.173L220.686 281.398C220.815 282.131 220.726 282.845 220.431 283.456L216.633 291.305C216.247 292.104 215.108 292.188 214.323 291.477L208.753 283.456C208.068 282.836 206.411 282.633 205.699 284.562C205.033 285.939 205.015 286.786 205.699 287.407L212.431 293.506C214.834 295.684 218.321 295.424 219.503 292.98L222.988 285.778L229.021 293.105C231.068 295.591 234.662 295.943 236.31 293.819L240.928 287.868C241.398 287.262 243.194 285.526 241.679 283.873C240.957 283.296 238.784 285.174 238.314 285.78L233.696 291.731C233.158 292.425 231.984 292.31 231.315 291.498L224.74 283.513C224.228 282.891 223.888 282.171 223.759 281.438L223.471 279.793C223.3 278.818 223.83 277.979 224.753 277.765L239.061 274.369C239.852 274.185 240.228 272.153 239.888 271.338C239.595 270.634 237.656 271.731 236.955 271.731Z" fill="#5E6FDB"/>
<path id="Vector (Stroke) (Stroke)_9" fill-rule="evenodd" clip-rule="evenodd" d="M204.852 269.592L218.164 274.644C218.426 274.707 218.685 274.785 218.938 274.879C220.445 275.222 221.949 275.204 223.312 274.824C223.332 274.819 223.352 274.814 223.372 274.809L236.587 271.767C236.708 271.739 236.831 271.728 236.955 271.731C237.202 271.731 237.604 271.595 238.032 271.449C238.819 271.181 239.698 270.883 239.888 271.338C240.228 272.153 239.853 274.185 239.062 274.369L224.753 277.765C223.83 277.979 223.3 278.818 223.471 279.793L223.759 281.438C223.888 282.171 224.228 282.891 224.74 283.513L231.315 291.498C231.984 292.31 233.158 292.425 233.696 291.731L238.314 285.78C238.784 285.174 240.957 283.296 241.679 283.873C243.037 285.354 241.736 286.902 241.113 287.644C241.04 287.73 240.977 287.805 240.928 287.868L236.31 293.819C234.662 295.943 231.068 295.591 229.021 293.105L222.988 285.778L219.503 292.981C218.321 295.424 214.834 295.684 212.431 293.506L205.699 287.407C205.015 286.786 205.033 285.939 205.699 284.562C206.411 282.633 208.068 282.836 208.753 283.456L214.323 291.477C215.108 292.188 216.247 292.104 216.633 291.305L220.431 283.456C220.726 282.846 220.815 282.131 220.686 281.398L220.471 280.173C220.288 279.127 219.501 278.189 218.49 277.753C218.442 277.741 218.394 277.729 218.345 277.716L217.793 277.571L204.151 274.279C203.291 274.072 202.641 273.247 202.698 272.438C202.747 271.745 203.787 269.534 204.482 269.545C204.602 269.547 204.726 269.562 204.852 269.592ZM204.492 268.732C204.674 268.734 204.858 268.757 205.042 268.801L205.092 268.813L218.405 273.865C218.664 273.929 218.918 274.007 219.168 274.097C220.538 274.402 221.887 274.377 223.094 274.041C223.126 274.032 223.158 274.024 223.19 274.016L236.405 270.974C236.589 270.932 236.774 270.914 236.956 270.917C236.963 270.916 237.002 270.913 237.083 270.894C237.173 270.872 237.284 270.84 237.418 270.796C237.507 270.768 237.619 270.73 237.741 270.689C237.936 270.623 238.154 270.548 238.337 270.493C238.647 270.398 239.034 270.295 239.391 270.289C239.734 270.283 240.369 270.376 240.639 271.025C240.782 271.368 240.827 271.768 240.827 272.129C240.828 272.503 240.78 272.902 240.691 273.278C240.603 273.649 240.465 274.034 240.265 274.359C240.076 274.666 239.753 275.042 239.248 275.161C239.247 275.161 239.246 275.161 239.246 275.161L224.937 278.557C224.465 278.667 224.17 279.072 224.272 279.652L224.561 281.297C224.663 281.881 224.938 282.474 225.368 282.996L231.943 290.981C232.143 291.223 232.408 291.347 232.634 291.369C232.859 291.391 232.989 291.316 233.054 291.232L237.672 285.281C237.973 284.892 238.704 284.216 239.443 283.711C239.815 283.457 240.241 283.21 240.657 283.071C241.024 282.948 241.663 282.819 242.187 283.237L242.236 283.277L242.279 283.323C242.767 283.856 243.022 284.438 243.077 285.035C243.131 285.618 242.988 286.151 242.792 286.594C242.484 287.286 241.958 287.907 241.696 288.216C241.642 288.28 241.598 288.331 241.571 288.367L236.953 294.318C235.925 295.643 234.316 296.155 232.736 296.001C231.158 295.846 229.551 295.029 228.393 293.622L223.167 287.276L220.235 293.335C219.499 294.857 218.049 295.671 216.485 295.788C214.93 295.903 213.241 295.338 211.885 294.109L205.153 288.009C204.645 287.549 204.376 286.963 204.379 286.264C204.382 285.631 204.609 284.955 204.95 284.242C205.392 283.077 206.182 282.427 207.083 282.254C207.933 282.091 208.775 282.379 209.299 282.853L209.368 282.916L214.931 290.927C215.152 291.101 215.389 291.159 215.567 291.146C215.755 291.132 215.853 291.05 215.901 290.951L219.698 283.102C219.912 282.66 219.987 282.12 219.885 281.538L219.67 280.313C219.542 279.58 218.979 278.872 218.223 278.525C218.195 278.518 218.167 278.511 218.139 278.503L217.594 278.36L203.96 275.07C202.765 274.782 201.798 273.636 201.886 272.38C201.907 272.083 202.018 271.723 202.139 271.404C202.268 271.063 202.44 270.687 202.636 270.334C202.828 269.986 203.059 269.63 203.314 269.349C203.441 269.209 203.593 269.065 203.77 268.952C203.942 268.842 204.191 268.728 204.492 268.732Z" fill="black"/>
<path id="Vector (Stroke)_10" fill-rule="evenodd" clip-rule="evenodd" d="M238.058 269.8C237.934 269.797 237.81 269.808 237.689 269.836L224.475 272.878C224.454 272.883 224.434 272.888 224.415 272.893C223.051 273.273 221.547 273.291 220.041 272.948C219.787 272.854 219.529 272.776 219.266 272.713L205.465 269.415C205.338 269.385 205.214 269.369 205.095 269.368C204.399 269.357 203.849 269.814 203.8 270.506C203.743 271.316 204.394 272.141 205.253 272.348L218.895 275.64L219.448 275.785C219.496 275.798 219.544 275.81 219.592 275.822C220.603 276.258 221.39 277.196 221.574 278.242L221.789 279.467C221.917 280.2 221.829 280.914 221.533 281.525L217.735 289.374C217.349 290.173 216.21 290.257 215.425 289.546L208.693 283.446C208.009 282.826 207.03 282.777 206.508 283.338C205.986 283.898 206.117 284.855 206.802 285.476L213.534 291.575C215.937 293.753 219.423 293.493 220.605 291.049L224.09 283.847L230.124 291.174C232.171 293.66 235.765 294.012 237.413 291.888L242.031 285.937C242.5 285.331 242.296 284.373 241.574 283.797C240.852 283.22 239.886 283.243 239.417 283.848L234.799 289.8C234.26 290.494 233.086 290.379 232.418 289.567L225.842 281.582C225.331 280.96 224.99 280.24 224.862 279.507L224.573 277.862C224.402 276.887 224.932 276.048 225.855 275.834L238.957 272.79C239.749 272.607 240.114 271.797 239.774 270.981C239.481 270.278 238.758 269.8 238.058 269.8Z" fill="#B0B8ED"/>
<path id="Vector (Stroke) (Stroke)_10" fill-rule="evenodd" clip-rule="evenodd" d="M202.989 270.449C203.071 269.285 204.023 268.538 205.106 268.555C205.287 268.557 205.471 268.58 205.654 268.624L219.455 271.922C219.732 271.988 220.004 272.069 220.27 272.166C221.641 272.471 222.989 272.446 224.196 272.11C224.228 272.101 224.26 272.093 224.292 272.085L237.507 269.043C237.694 269 237.883 268.982 238.068 268.986C239.106 268.991 240.111 269.676 240.525 270.668C240.772 271.261 240.782 271.903 240.532 272.457C240.278 273.019 239.781 273.434 239.142 273.583L226.039 276.626C225.567 276.736 225.273 277.141 225.375 277.721L225.663 279.366C225.766 279.95 226.041 280.543 226.471 281.065L233.046 289.049C233.246 289.292 233.51 289.416 233.737 289.438C233.961 289.46 234.091 289.385 234.156 289.301L238.774 283.35C239.607 282.276 241.125 282.396 242.082 283.161C243.037 283.924 243.498 285.374 242.674 286.435L238.056 292.387C237.027 293.712 235.419 294.224 233.839 294.07C232.26 293.915 230.654 293.098 229.496 291.691L224.27 285.345L221.338 291.404C220.602 292.926 219.151 293.74 217.588 293.857C216.032 293.972 214.344 293.407 212.988 292.178L206.256 286.078L206.802 285.476L213.534 291.575C215.937 293.753 219.423 293.493 220.606 291.05L224.09 283.847L230.124 291.174C232.171 293.66 235.765 294.012 237.413 291.888L242.031 285.937C242.5 285.332 242.296 284.373 241.574 283.797C240.852 283.22 239.886 283.243 239.417 283.849L234.799 289.8C234.261 290.494 233.087 290.379 232.418 289.567L225.843 281.582C225.331 280.96 224.99 280.24 224.862 279.507L224.573 277.862C224.402 276.887 224.932 276.048 225.855 275.834L238.958 272.79C239.749 272.607 240.114 271.797 239.774 270.981C239.481 270.278 238.758 269.8 238.058 269.8C237.934 269.797 237.81 269.808 237.69 269.836L224.475 272.878C224.455 272.883 224.435 272.888 224.415 272.893C223.051 273.273 221.547 273.291 220.041 272.948C219.787 272.854 219.529 272.776 219.266 272.713L205.465 269.415C205.339 269.385 205.214 269.369 205.095 269.368C204.399 269.357 203.849 269.814 203.801 270.507C203.744 271.316 204.394 272.141 205.253 272.348L218.895 275.64L219.448 275.785C219.496 275.798 219.544 275.81 219.593 275.822C220.604 276.258 221.391 277.196 221.574 278.242L220.773 278.382C220.644 277.649 220.081 276.941 219.326 276.594C219.298 276.587 219.27 276.58 219.242 276.572L218.697 276.429L205.062 273.139C203.868 272.851 202.901 271.705 202.989 270.449ZM221.789 279.467L221.574 278.242L220.773 278.382L220.988 279.607C221.09 280.189 221.015 280.729 220.801 281.171L217.003 289.02C216.955 289.119 216.857 289.201 216.67 289.215C216.474 289.23 216.21 289.159 215.972 288.943L209.24 282.843C208.334 282.023 206.83 281.8 205.913 282.783C204.987 283.777 205.348 285.256 206.256 286.078L206.802 285.476C206.117 284.855 205.986 283.898 206.508 283.338C207.031 282.777 208.009 282.826 208.694 283.446L215.426 289.546C216.211 290.257 217.349 290.173 217.736 289.374L221.533 281.525C221.829 280.915 221.917 280.2 221.789 279.467Z" fill="black"/>
</g>
<path id="Vector 285_5" d="M231.026 274.268L225.937 272.911L231.196 271.724L235.946 273.081L231.026 274.268Z" fill="white" fill-opacity="0.3"/>
</g>
<circle id="Ellipse 177_5" r="28.6502" transform="matrix(-1 0 0 1 222.679 280.634)" fill="white" fill-opacity="0.3" stroke="black" stroke-width="0.813544"/>
<path id="Ellipse 184_5" d="M237.734 263.168C237.991 266.227 239.565 266.929 240.714 266.227C241.863 265.525 241.8 263.326 240.571 261.314C239.343 259.303 237.416 258.242 236.267 258.943C235.117 259.645 235.222 261.314 237.734 263.168Z" fill="white"/>
</g>
</g>
<g id="toit1">
<g id="Group 1482_6">
<g id="Group 1192_6">
<g id="Group 1186_6">
<path id="Vector (Stroke)_11" fill-rule="evenodd" clip-rule="evenodd" d="M177.734 223.865C177.806 223.864 177.878 223.87 177.948 223.887L185.654 225.66C185.666 225.663 185.677 225.666 185.689 225.669C186.484 225.891 187.361 225.901 188.239 225.701C188.387 225.647 188.538 225.601 188.691 225.564L196.453 222.618C196.526 222.601 196.599 222.592 196.669 222.591C197.074 222.584 197.68 223.874 197.709 224.278C197.742 224.75 197.363 225.231 196.862 225.352L188.907 227.271L188.585 227.356C188.557 227.363 188.529 227.37 188.501 227.377C187.911 227.631 187.452 228.178 187.345 228.788L187.22 229.502C187.145 229.93 187.197 230.346 187.369 230.703L189.583 235.279C189.809 235.745 190.473 235.794 190.93 235.38L194.178 230.703C194.578 230.341 195.544 230.223 195.959 231.347C196.347 232.151 196.358 232.644 195.959 233.006L192.033 236.563C190.632 237.832 188.599 237.681 187.91 236.256L185.878 232.056L182.36 236.329C181.166 237.778 179.071 237.984 178.11 236.745L175.417 233.275C175.143 232.922 174.095 231.91 174.979 230.946C175.4 230.609 176.667 231.704 176.941 232.057L179.634 235.527C179.948 235.932 180.632 235.865 181.022 235.392L184.856 230.735C185.155 230.373 185.353 229.953 185.428 229.526L185.596 228.567C185.696 227.998 185.387 227.509 184.849 227.384L176.505 225.404C176.044 225.296 175.825 224.112 176.023 223.636C176.194 223.226 177.325 223.866 177.734 223.865Z" fill="#5E6FDB"/>
<path id="Vector (Stroke) (Stroke)_11" fill-rule="evenodd" clip-rule="evenodd" d="M196.452 222.618L188.69 225.564C188.537 225.601 188.386 225.647 188.238 225.701C187.36 225.901 186.483 225.891 185.688 225.669C185.676 225.666 185.665 225.663 185.653 225.66L177.947 223.887C177.877 223.87 177.805 223.864 177.733 223.865C177.589 223.866 177.355 223.786 177.105 223.701C176.646 223.545 176.133 223.371 176.023 223.636C175.824 224.112 176.043 225.296 176.505 225.404L184.848 227.384C185.386 227.509 185.695 227.998 185.596 228.567L185.427 229.526C185.352 229.953 185.154 230.373 184.855 230.735L181.021 235.392C180.631 235.865 179.947 235.932 179.633 235.528L176.94 232.057C176.666 231.704 175.399 230.609 174.978 230.946C174.186 231.809 174.945 232.712 175.309 233.144C175.351 233.194 175.388 233.238 175.416 233.275L178.109 236.745C179.07 237.984 181.165 237.778 182.359 236.329L185.877 232.057L187.909 236.256C188.598 237.681 190.631 237.832 192.033 236.563L195.958 233.006C196.357 232.644 196.346 232.151 195.958 231.347C195.543 230.223 194.577 230.341 194.178 230.703L190.93 235.38C190.472 235.794 189.808 235.745 189.583 235.279L187.368 230.703C187.196 230.346 187.144 229.93 187.219 229.502L187.344 228.788C187.451 228.178 187.91 227.631 188.5 227.377C188.528 227.37 188.556 227.363 188.584 227.356L188.906 227.271L196.861 225.352C197.362 225.231 197.741 224.75 197.708 224.278C197.68 223.874 197.073 222.584 196.668 222.591C196.598 222.592 196.526 222.601 196.452 222.618ZM196.662 222.117C196.556 222.118 196.448 222.131 196.342 222.157L196.312 222.164L188.549 225.11C188.399 225.147 188.25 225.192 188.105 225.245C187.305 225.423 186.519 225.409 185.815 225.212C185.797 225.207 185.778 225.202 185.759 225.198L178.054 223.424C177.946 223.4 177.838 223.389 177.732 223.391C177.728 223.391 177.706 223.388 177.658 223.377C177.606 223.365 177.541 223.346 177.463 223.321C177.411 223.304 177.346 223.282 177.275 223.258C177.161 223.219 177.033 223.176 176.927 223.144C176.746 223.088 176.521 223.028 176.312 223.025C176.113 223.021 175.742 223.076 175.585 223.454C175.501 223.654 175.475 223.887 175.475 224.098C175.475 224.316 175.503 224.549 175.555 224.768C175.606 224.984 175.686 225.208 175.803 225.398C175.913 225.577 176.101 225.796 176.396 225.865C176.396 225.865 176.397 225.866 176.397 225.866L184.741 227.846C185.016 227.91 185.188 228.146 185.128 228.485L184.96 229.444C184.9 229.784 184.74 230.13 184.489 230.434L180.655 235.09C180.539 235.231 180.384 235.304 180.252 235.317C180.121 235.33 180.045 235.285 180.008 235.237L177.315 231.767C177.139 231.54 176.713 231.146 176.282 230.851C176.065 230.703 175.817 230.559 175.574 230.478C175.36 230.406 174.988 230.331 174.682 230.575L174.653 230.598L174.629 230.625C174.344 230.936 174.195 231.275 174.163 231.623C174.132 231.963 174.215 232.274 174.33 232.532C174.509 232.936 174.816 233.298 174.968 233.478C175 233.515 175.025 233.545 175.041 233.566L177.734 237.036C178.334 237.809 179.272 238.107 180.193 238.017C181.113 237.927 182.05 237.451 182.725 236.63L185.773 232.93L187.482 236.463C187.911 237.35 188.757 237.825 189.669 237.893C190.576 237.961 191.56 237.631 192.351 236.914L196.276 233.358C196.573 233.089 196.73 232.748 196.728 232.34C196.726 231.971 196.594 231.577 196.395 231.161C196.137 230.482 195.677 230.102 195.151 230.002C194.656 229.907 194.165 230.074 193.859 230.351L193.819 230.387L190.575 235.059C190.446 235.16 190.308 235.194 190.204 235.187C190.095 235.178 190.037 235.131 190.01 235.073L187.795 230.496C187.67 230.238 187.627 229.924 187.686 229.584L187.812 228.87C187.887 228.442 188.215 228.03 188.655 227.827C188.672 227.823 188.688 227.819 188.704 227.815L189.022 227.731L196.972 225.813C197.669 225.645 198.233 224.977 198.181 224.244C198.169 224.071 198.105 223.861 198.034 223.675C197.959 223.476 197.858 223.257 197.744 223.051C197.632 222.848 197.497 222.64 197.349 222.477C197.275 222.395 197.186 222.311 197.083 222.245C196.983 222.181 196.838 222.114 196.662 222.117Z" fill="black"/>
<path id="Vector (Stroke)_12" fill-rule="evenodd" clip-rule="evenodd" d="M177.09 222.74C177.162 222.738 177.234 222.745 177.305 222.761L185.01 224.534C185.022 224.537 185.034 224.54 185.045 224.543C185.84 224.765 186.717 224.776 187.596 224.575C187.743 224.521 187.894 224.475 188.047 224.438L196.095 222.515C196.169 222.497 196.241 222.489 196.311 222.488C196.716 222.481 197.037 222.748 197.065 223.152C197.099 223.624 196.719 224.105 196.218 224.226L188.264 226.145L187.941 226.23C187.913 226.237 187.885 226.244 187.857 226.251C187.268 226.505 186.809 227.052 186.702 227.662L186.576 228.376C186.501 228.804 186.553 229.221 186.725 229.577L188.94 234.154C189.165 234.619 189.829 234.668 190.287 234.254L194.212 230.697C194.611 230.335 195.182 230.307 195.487 230.634C195.791 230.96 195.714 231.518 195.315 231.88L191.39 235.437C189.989 236.707 187.956 236.555 187.266 235.13L185.234 230.931L181.716 235.203C180.523 236.653 178.427 236.858 177.466 235.619L174.773 232.149C174.499 231.796 174.619 231.237 175.04 230.901C175.46 230.565 176.024 230.578 176.298 230.931L178.99 234.402C179.304 234.806 179.989 234.739 180.379 234.266L184.213 229.61C184.511 229.247 184.71 228.827 184.785 228.4L184.953 227.441C185.053 226.872 184.743 226.383 184.205 226.258L176.565 224.483C176.104 224.376 175.891 223.904 176.089 223.428C176.26 223.018 176.681 222.74 177.09 222.74Z" fill="#B0B8ED"/>
<path id="Vector (Stroke) (Stroke)_12" fill-rule="evenodd" clip-rule="evenodd" d="M197.539 223.118C197.491 222.439 196.936 222.004 196.305 222.014C196.199 222.015 196.091 222.028 195.985 222.054L187.937 223.977C187.776 224.015 187.617 224.063 187.462 224.119C186.663 224.297 185.877 224.283 185.173 224.086C185.154 224.081 185.136 224.077 185.117 224.072L177.411 222.298C177.302 222.273 177.192 222.263 177.084 222.265C176.479 222.268 175.893 222.668 175.651 223.246C175.507 223.591 175.502 223.966 175.648 224.289C175.795 224.617 176.085 224.859 176.458 224.945L184.098 226.72C184.373 226.784 184.545 227.02 184.486 227.359L184.317 228.318C184.258 228.658 184.097 229.004 183.847 229.308L180.013 233.964C179.896 234.106 179.742 234.178 179.61 234.191C179.479 234.204 179.403 234.159 179.365 234.111L176.672 230.641C176.187 230.015 175.302 230.085 174.744 230.531C174.187 230.976 173.918 231.821 174.399 232.44L177.091 235.91C177.691 236.683 178.629 236.982 179.55 236.891C180.471 236.801 181.407 236.325 182.083 235.505L185.13 231.804L186.839 235.337C187.269 236.224 188.114 236.699 189.026 236.767C189.933 236.835 190.918 236.505 191.709 235.789L195.634 232.232L195.315 231.88L191.39 235.437C189.989 236.707 187.956 236.555 187.266 235.13L185.235 230.931L181.716 235.203C180.523 236.653 178.427 236.858 177.466 235.619L174.773 232.149C174.5 231.796 174.619 231.237 175.04 230.901C175.461 230.565 176.024 230.578 176.298 230.931L178.99 234.402C179.304 234.806 179.989 234.739 180.379 234.266L184.213 229.61C184.511 229.247 184.71 228.827 184.785 228.4L184.953 227.441C185.053 226.872 184.744 226.383 184.205 226.258L176.565 224.483C176.104 224.376 175.891 223.904 176.089 223.428C176.26 223.018 176.682 222.74 177.09 222.74C177.162 222.738 177.234 222.745 177.305 222.761L185.01 224.534C185.022 224.537 185.034 224.54 185.045 224.543C185.841 224.765 186.718 224.776 187.596 224.575C187.744 224.521 187.894 224.475 188.048 224.438L196.095 222.515C196.169 222.497 196.241 222.489 196.311 222.488C196.716 222.481 197.037 222.748 197.066 223.152C197.099 223.624 196.72 224.105 196.218 224.226L188.264 226.145L187.942 226.23C187.913 226.237 187.885 226.244 187.857 226.251C187.268 226.505 186.809 227.052 186.702 227.662L187.169 227.744C187.244 227.317 187.572 226.904 188.013 226.701C188.029 226.697 188.045 226.693 188.062 226.689L188.38 226.605L196.33 224.687C197.026 224.519 197.59 223.851 197.539 223.118ZM186.577 228.376L186.702 227.662L187.169 227.744L187.044 228.458C186.984 228.798 187.028 229.112 187.153 229.37L189.367 233.947C189.395 234.005 189.452 234.053 189.561 234.061C189.675 234.069 189.83 234.028 189.968 233.902L193.894 230.345C194.422 229.867 195.299 229.737 195.834 230.31C196.374 230.89 196.163 231.752 195.634 232.232L195.315 231.88C195.715 231.518 195.791 230.96 195.487 230.634C195.182 230.307 194.612 230.335 194.212 230.697L190.287 234.254C189.829 234.668 189.165 234.619 188.94 234.154L186.726 229.577C186.553 229.221 186.502 228.804 186.577 228.376Z" fill="black"/>
</g>
<path id="Vector 285_6" d="M181.19 225.345L184.158 224.554L181.091 223.861L178.321 224.653L181.19 225.345Z" fill="white" fill-opacity="0.3"/>
</g>
<circle id="Ellipse 177_6" cx="186.057" cy="229.057" r="16.5363" fill="white" fill-opacity="0.3" stroke="black" stroke-width="0.813544"/>
<path id="Ellipse 184_6" d="M177.279 218.873C177.129 220.656 176.211 221.066 175.541 220.656C174.871 220.247 174.908 218.965 175.624 217.792C176.34 216.619 177.464 216 178.134 216.409C178.805 216.818 178.743 217.792 177.279 218.873Z" fill="white"/>
</g>
</g>
<g id="Group 1607">
<path id="Union" d="M244.35 107.918L244.312 107.931L244.277 107.951C243.29 108.521 242.315 109.028 241.355 109.474L241.283 109.507L241.229 109.565L139.224 218.492L139.174 218.546L139.145 218.614L127.239 247.253L126.906 247.058L124.824 245.846C123.029 244.8 120.459 243.303 117.362 241.501C111.168 237.896 102.865 233.068 94.4317 228.175C77.5766 218.395 60.1656 208.336 58.0507 207.285C53.0149 204.783 49.7847 198.844 49.7847 190.045C49.7847 176.044 57.983 159.475 69.1609 149.455L69.4381 149.206L69.2151 148.908C66.4195 145.171 64.7872 139.795 64.7872 132.991C64.7872 123.033 68.2853 111.972 73.9604 102.143C79.6356 92.313 87.4656 83.7531 96.0892 78.7743C97.3243 78.0612 98.5414 77.4414 99.7364 76.9122L99.9027 76.8386L99.9587 76.6656C108.95 48.896 128.709 21.8294 151.599 8.6143C167.977 -0.841691 182.629 -1.29366 192.86 5.45923C198.847 9.41101 203.37 15.8577 205.852 24.5178L206.046 25.1942L206.535 24.6886C210.434 20.6603 214.677 17.2369 219.11 14.6775C229.172 8.86807 238.111 8.71343 244.248 12.9882L244.262 12.9982L244.277 13.0069L311.562 51.7838V85.2236L244.35 107.918Z" fill="#B0B8ED" stroke="black" stroke-width="0.813544"/>
<path id="Union_2" d="M241.355 109.474L241.283 109.507L241.229 109.565L139.224 218.492L139.174 218.546L139.145 218.614L127.239 247.253L126.906 247.058L124.824 245.846C123.029 244.8 120.459 243.303 117.362 241.501C111.168 237.896 102.865 233.068 94.4317 228.175C77.5766 218.395 60.1656 208.336 58.0507 207.285C53.0149 204.783 49.7847 198.844 49.7847 190.045C49.7847 176.044 57.983 159.475 69.1609 149.455L69.4381 149.206L69.2151 148.908C66.4195 145.171 64.7872 139.795 64.7872 132.991C64.7872 123.033 68.2853 111.972 73.9604 102.143C79.6356 92.313 87.4656 83.7531 96.0892 78.7743C97.3243 78.0612 98.5413 77.4414 99.7364 76.9122L99.9027 76.8386L99.9587 76.6656C108.95 48.896 128.709 21.8294 151.599 8.6143C167.977 -0.841692 182.629 -1.29366 192.86 5.45923L192.87 5.46571L192.88 5.47161L258.68 43.6341L263.858 85.3857L244.218 107.985C243.251 108.541 242.296 109.037 241.355 109.474Z" fill="#B0B8ED" stroke="black" stroke-width="0.813544"/>
<path id="Union_3" d="M311.249 149.971L311.232 149.979L311.217 149.988L143.876 246.602V246.539L143.295 246.814C136.597 249.984 130.71 249.798 126.512 246.945C122.307 244.089 119.678 238.477 119.678 230.542C119.678 216.542 127.877 199.973 139.054 189.952L139.332 189.704L139.109 189.406C136.313 185.669 134.681 180.292 134.681 173.488C134.681 163.531 138.179 152.47 143.854 142.64C149.529 132.811 157.359 124.251 165.983 119.272C167.218 118.559 168.435 117.939 169.63 117.41L169.796 117.336L169.852 117.163C178.844 89.3936 198.603 62.3269 221.492 49.1119C234.467 41.6209 246.363 39.7812 255.826 42.6954C265.275 45.6055 272.382 53.2822 275.745 65.0153L275.939 65.6918L276.429 65.1861C280.328 61.1579 284.571 57.7345 289.004 55.1751C298.458 49.7166 306.922 49.2512 312.996 52.7581C319.07 56.265 322.899 63.8277 322.899 74.7448C322.899 75.184 322.893 75.6253 322.881 76.0684L322.866 76.5877L323.374 76.4772C329.354 75.1754 334.464 76.4978 338.083 79.9987C341.713 83.5095 343.903 89.269 343.903 96.951C343.903 106.408 340.58 116.915 335.189 126.252C329.798 135.59 322.361 143.72 314.17 148.449C313.184 149.019 312.209 149.526 311.249 149.971Z" fill="#B0B8ED" stroke="black" stroke-width="0.813544"/>
<path id="Union_4" d="M323.288 157.789L323.271 157.797L323.256 157.806L155.915 254.42V254.357L155.334 254.631C148.636 257.802 142.749 257.616 138.551 254.763C134.346 251.906 131.717 246.295 131.717 238.36C131.717 224.359 139.916 207.79 151.094 197.77L151.371 197.522L151.148 197.223C148.352 193.486 146.72 188.11 146.72 181.306C146.72 171.348 150.218 160.287 155.893 150.458C161.568 140.628 169.398 132.068 178.022 127.089C179.257 126.376 180.474 125.757 181.669 125.227L181.835 125.154L181.891 124.981C190.883 97.2112 210.642 70.1446 233.531 56.9295C246.506 49.4385 258.402 47.5988 267.865 50.5131C277.314 53.4231 284.421 61.0999 287.784 72.8329L287.978 73.5094L288.468 73.0038C292.367 68.9755 296.61 65.5521 301.043 62.9927C310.497 57.5342 318.961 57.0689 325.035 60.5758C331.109 64.0826 334.938 71.6454 334.938 82.5624C334.938 83.0017 334.932 83.4429 334.92 83.886L334.905 84.4053L335.413 84.2948C341.393 82.993 346.503 84.3154 350.122 87.8163C353.752 91.3271 355.942 97.0866 355.942 104.769C355.942 114.226 352.619 124.732 347.228 134.07C341.837 143.407 334.4 151.538 326.21 156.266C325.223 156.836 324.248 157.343 323.288 157.789Z" stroke="black" stroke-width="0.813544"/>
</g>
</g>
</g>
<defs>
<linearGradient id="paint0_linear" x1="197.997" y1="221.73" x2="197.997" y2="539.988" gradientUnits="userSpaceOnUse">
<stop offset="0.192708" stop-color="#D6DBFF" stop-opacity="0"/>
<stop offset="1" stop-color="#D6DBFF"/>
</linearGradient>
<linearGradient id="paint1_linear" x1="197.672" y1="234.529" x2="197.672" y2="523.066" gradientUnits="userSpaceOnUse">
<stop offset="0.192708" stop-color="white" stop-opacity="0"/>
<stop offset="1" stop-color="white" stop-opacity="0.6"/>
</linearGradient>
</defs>
</svg>
