<svg width="289" height="488" viewBox="0 0 289 488" fill="none" xmlns="http://www.w3.org/2000/svg">
<path d="M148.904 485.759L285.925 406.65C287.179 405.926 287.801 404.975 287.792 404.026L287.752 385.97H1.00268L1.00206 404.026C0.992491 404.975 1.61478 405.926 2.86892 406.65L139.89 485.759C142.379 487.196 146.415 487.196 148.904 485.759Z" fill="#55A398" stroke="black" stroke-width="0.650229" stroke-linecap="round" stroke-linejoin="round"/>
<path d="M139.888 304.2C142.377 302.763 146.413 302.763 148.902 304.2L285.923 383.309C288.412 384.746 288.412 387.076 285.923 388.513L148.902 467.622C146.413 469.059 142.377 469.059 139.888 467.622L2.86697 388.513C0.377676 387.076 0.377679 384.746 2.86697 383.309L139.888 304.2Z" fill="#BDDCD8" stroke="black" stroke-width="0.650229" stroke-linecap="round" stroke-linejoin="round"/>
<rect width="168.558" height="7.40058" transform="matrix(0.866025 0.5 -0.866025 0.5 101.443 326.386)" fill="#FFE496" stroke="black" stroke-width="0.650229" stroke-linecap="round" stroke-linejoin="round"/>
<rect width="168.638" height="7.40058" transform="matrix(0.866025 0.5 -0.866025 0.5 83.8896 336.496)" fill="#FFE496" stroke="black" stroke-width="0.650229" stroke-linecap="round" stroke-linejoin="round"/>
<rect width="168.545" height="7.40058" transform="matrix(0.866025 0.5 -0.866025 0.5 66.4546 346.558)" fill="#FFE496" stroke="black" stroke-width="0.650229" stroke-linecap="round" stroke-linejoin="round"/>
<rect width="168.623" height="7.40058" transform="matrix(0.866025 0.5 -0.866025 0.5 48.9043 356.703)" fill="#FFE496" stroke="black" stroke-width="0.650229" stroke-linecap="round" stroke-linejoin="round"/>
<rect width="168.558" height="7.40058" transform="matrix(-0.866025 0.5 0.866025 0.5 187.893 326.693)" fill="#FFE496" stroke="black" stroke-width="0.650229" stroke-linecap="round" stroke-linejoin="round"/>
<rect width="168.638" height="7.40058" transform="matrix(-0.866025 0.5 0.866025 0.5 205.446 336.802)" fill="#FFE496" stroke="black" stroke-width="0.650229" stroke-linecap="round" stroke-linejoin="round"/>
<rect width="168.545" height="7.40058" transform="matrix(-0.866025 0.5 0.866025 0.5 222.882 346.865)" fill="#FFE496" stroke="black" stroke-width="0.650229" stroke-linecap="round" stroke-linejoin="round"/>
<rect width="168.623" height="7.40058" transform="matrix(-0.866025 0.5 0.866025 0.5 240.431 357.01)" fill="#FFE496" stroke="black" stroke-width="0.650229" stroke-linecap="round" stroke-linejoin="round"/>
<path d="M147.54 445.841L243.115 390.66C243.99 390.155 244.424 389.492 244.417 388.83L244.39 376.235H44.3745L44.3741 388.83C44.3674 389.492 44.8015 390.155 45.6763 390.66L141.252 445.841C142.988 446.843 145.803 446.843 147.54 445.841Z" fill="black" stroke="black" stroke-width="0.650229" stroke-linecap="round" stroke-linejoin="round"/>
<path d="M141.251 319.199C142.987 318.197 145.802 318.197 147.539 319.199L243.114 374.38C244.851 375.382 244.851 377.007 243.114 378.01L147.539 433.19C145.802 434.193 142.987 434.193 141.251 433.19L45.6753 378.01C43.939 377.007 43.939 375.382 45.6753 374.38L141.251 319.199Z" fill="#B3B3B3" stroke="black" stroke-width="0.650229" stroke-linecap="round" stroke-linejoin="round"/>
<circle r="2.82909" transform="matrix(0.866025 0.5 -0.866025 0.5 144.404 424.527)" fill="#505050" stroke="black" stroke-width="0.650229" stroke-linecap="round" stroke-linejoin="round"/>
<path d="M175.632 422.513L182.309 426.62L176.029 437.501L169.223 433.58L169.223 426.213L175.632 422.513Z" fill="#B3B3B3" stroke="black" stroke-width="0.650229" stroke-linecap="round" stroke-linejoin="round"/>
<path d="M182.326 426.623L182.326 433.794L176.08 437.401L176.08 430.108L182.326 426.623Z" fill="#B3B3B3" stroke="black" stroke-width="0.650229" stroke-linecap="round" stroke-linejoin="round"/>
<path d="M175.524 422.462L182.361 426.45L176.079 430.182L169.308 426.179L175.524 422.462Z" fill="#D9D9D9" stroke="black" stroke-width="0.650229" stroke-linecap="round" stroke-linejoin="round"/>
<path d="M193.154 412.363L199.832 416.471L193.552 427.351L186.745 423.43L186.745 416.064L193.154 412.363Z" fill="#B3B3B3" stroke="black" stroke-width="0.650229" stroke-linecap="round" stroke-linejoin="round"/>
<path d="M199.849 416.474L199.849 423.645L193.603 427.252L193.603 419.959L199.849 416.474Z" fill="#B3B3B3" stroke="black" stroke-width="0.650229" stroke-linecap="round" stroke-linejoin="round"/>
<path d="M193.046 412.313L199.883 416.301L193.601 420.034L186.83 416.03L193.046 412.313Z" fill="#D9D9D9" stroke="black" stroke-width="0.650229" stroke-linecap="round" stroke-linejoin="round"/>
<path d="M210.772 402.279L217.45 406.387L211.17 417.267L204.363 413.346L204.363 405.979L210.772 402.279Z" fill="#B3B3B3" stroke="black" stroke-width="0.650229" stroke-linecap="round" stroke-linejoin="round"/>
<path d="M217.468 406.389L217.468 413.561L211.221 417.167L211.221 409.874L217.468 406.389Z" fill="#B3B3B3" stroke="black" stroke-width="0.650229" stroke-linecap="round" stroke-linejoin="round"/>
<path d="M210.666 402.228L217.503 406.217L211.22 409.949L204.45 405.946L210.666 402.228Z" fill="#D9D9D9" stroke="black" stroke-width="0.650229" stroke-linecap="round" stroke-linejoin="round"/>
<path d="M228.086 391.994L234.764 396.102L228.484 406.982L221.677 403.061L221.677 395.694L228.086 391.994Z" fill="#B3B3B3" stroke="black" stroke-width="0.650229" stroke-linecap="round" stroke-linejoin="round"/>
<path d="M234.782 396.104L234.782 403.276L228.535 406.882L228.535 399.589L234.782 396.104Z" fill="#B3B3B3" stroke="black" stroke-width="0.650229" stroke-linecap="round" stroke-linejoin="round"/>
<path d="M227.979 391.943L234.817 395.932L228.534 399.664L221.764 395.66L227.979 391.943Z" fill="#D9D9D9" stroke="black" stroke-width="0.650229" stroke-linecap="round" stroke-linejoin="round"/>
<path d="M114.163 422.513L107.485 426.62L113.766 437.501L120.572 433.58L120.572 426.213L114.163 422.513Z" fill="#B3B3B3" stroke="black" stroke-width="0.650229" stroke-linecap="round" stroke-linejoin="round"/>
<path d="M107.469 426.623L107.469 433.794L113.715 437.401L113.715 430.108L107.469 426.623Z" fill="#B3B3B3" stroke="black" stroke-width="0.650229" stroke-linecap="round" stroke-linejoin="round"/>
<path d="M114.271 422.462L107.434 426.45L113.716 430.182L120.487 426.179L114.271 422.462Z" fill="#D9D9D9" stroke="black" stroke-width="0.650229" stroke-linecap="round" stroke-linejoin="round"/>
<path d="M96.6397 412.363L89.962 416.471L96.2423 427.351L103.049 423.43L103.049 416.064L96.6397 412.363Z" fill="#B3B3B3" stroke="black" stroke-width="0.650229" stroke-linecap="round" stroke-linejoin="round"/>
<path d="M89.945 416.474L89.945 423.645L96.1914 427.252L96.1914 419.959L89.945 416.474Z" fill="#B3B3B3" stroke="black" stroke-width="0.650229" stroke-linecap="round" stroke-linejoin="round"/>
<path d="M96.7471 412.313L89.9097 416.301L96.1922 420.034L102.963 416.03L96.7471 412.313Z" fill="#D9D9D9" stroke="black" stroke-width="0.650229" stroke-linecap="round" stroke-linejoin="round"/>
<path d="M79.0221 402.279L72.3443 406.386L78.6247 417.267L85.4312 413.346L85.4312 405.979L79.0221 402.279Z" fill="#B3B3B3" stroke="black" stroke-width="0.650229" stroke-linecap="round" stroke-linejoin="round"/>
<path d="M72.3264 406.389L72.3264 413.561L78.5728 417.167L78.5728 409.875L72.3264 406.389Z" fill="#B3B3B3" stroke="black" stroke-width="0.650229" stroke-linecap="round" stroke-linejoin="round"/>
<path d="M79.1294 402.228L72.2921 406.217L78.5745 409.949L85.3449 405.946L79.1294 402.228Z" fill="#D9D9D9" stroke="black" stroke-width="0.650229" stroke-linecap="round" stroke-linejoin="round"/>
<path d="M61.7052 391.994L55.0275 396.102L61.3078 406.982L68.1143 403.061L68.1143 395.694L61.7052 391.994Z" fill="#B3B3B3" stroke="black" stroke-width="0.650229" stroke-linecap="round" stroke-linejoin="round"/>
<path d="M55.011 396.104L55.011 403.276L61.2573 406.882L61.2573 399.589L55.011 396.104Z" fill="#B3B3B3" stroke="black" stroke-width="0.650229" stroke-linecap="round" stroke-linejoin="round"/>
<path d="M61.813 391.943L54.9756 395.932L61.2581 399.664L68.0285 395.66L61.813 391.943Z" fill="#D9D9D9" stroke="black" stroke-width="0.650229" stroke-linecap="round" stroke-linejoin="round"/>
<path d="M145.002 394.973C169.019 394.973 188.489 384.969 188.489 372.628L201.512 161.978H87.584L101.514 372.628C101.514 384.969 120.984 394.973 145.002 394.973Z" fill="url(#paint0_linear)"/>
<path d="M144.763 382.584C156.167 382.584 165.411 377.822 165.411 371.948L171.595 171.348H117.501L124.116 371.948C124.116 377.822 133.36 382.584 144.763 382.584Z" fill="url(#paint1_linear)"/>
<path d="M89.3965 118.764L101.6 372.314C101.6 384.661 121.1 394.67 145.153 394.67C169.207 394.67 188.707 384.661 188.707 372.314L200.001 118.764" stroke="black" stroke-width="0.595589" stroke-linecap="round" stroke-linejoin="round" stroke-dasharray="6.04 6.04"/>
<path d="M169.132 264.836L169.151 264.831C169.231 264.812 169.311 264.802 169.39 264.801M169.132 264.836L169.394 265.099M169.132 264.836L169.115 264.842M169.132 264.836L169.115 264.842M169.39 264.801L169.394 265.099M169.39 264.801C169.39 264.801 169.389 264.801 169.389 264.801L169.394 265.099M169.39 264.801C169.509 264.8 169.61 264.845 169.682 264.891C169.757 264.939 169.822 265 169.879 265.063C169.992 265.188 170.097 265.348 170.185 265.508C170.275 265.67 170.354 265.842 170.413 265.998C170.469 266.146 170.517 266.305 170.526 266.432L170.228 266.453C170.206 266.128 169.719 265.094 169.394 265.099M169.115 264.842L162.902 267.2C162.781 267.23 162.661 267.266 162.544 267.309C161.888 267.455 161.242 267.445 160.661 267.283C160.647 267.279 160.633 267.275 160.62 267.272L160.553 267.562L160.62 267.272L154.435 265.849C154.355 265.83 154.274 265.822 154.194 265.824L169.115 264.842ZM163.237 269.144L163.24 269.143L163.164 268.855L163.234 269.145L163.237 269.144ZM160.875 272.991L160.733 272.696L160.524 272.949L160.667 273.244L160.875 272.991ZM169.103 272.024C169.101 272.019 169.1 272.014 169.098 272.01C169.096 272.006 169.094 272.001 169.092 271.997L168.824 272.127L169.103 272.024ZM164.588 275.143C164.58 275.15 164.572 275.156 164.565 275.163L164.543 275.193L164.788 275.363L164.588 275.143ZM162.91 269.229C162.918 269.227 162.927 269.225 162.935 269.223C162.942 269.22 162.949 269.217 162.956 269.214L162.838 268.94L162.91 269.229ZM153.142 267.646C153.142 267.646 153.142 267.646 153.143 267.646L153.141 267.646L153.142 267.646Z" fill="#5E6FDB" stroke="black" stroke-width="0.595589"/>
<path d="M160.123 272.333L157.616 275.377C156.525 276.703 154.608 276.891 153.729 275.758L151.568 272.973C151.257 272.572 151.393 271.938 151.87 271.557C152.348 271.175 152.987 271.19 153.298 271.591L155.459 274.376C155.604 274.562 155.919 274.531 156.098 274.314L159.176 270.576C159.376 270.334 159.509 270.052 159.559 269.765L159.694 268.995C159.75 268.675 159.576 268.399 159.273 268.328L153.141 266.904C152.617 266.782 152.375 266.246 152.6 265.707C152.794 265.242 153.27 264.927 153.732 264.925C153.734 264.925 153.735 264.925 153.736 264.925L153.681 265.218C153.739 265.217 153.797 265.222 153.853 265.235L160.123 272.333ZM160.123 272.333L161.571 275.326C162.201 276.629 164.06 276.767 165.342 275.606L168.492 272.751C168.945 272.341 169.032 271.707 168.687 271.336C168.341 270.966 167.693 270.998 167.24 271.408L164.09 274.263C163.879 274.454 163.574 274.431 163.47 274.217L161.693 270.544C161.577 270.305 161.542 270.025 161.593 269.739L161.693 269.165C161.757 268.801 162.027 268.473 162.376 268.313C162.39 268.309 162.403 268.306 162.417 268.302L162.672 268.235L169.054 266.695C169.623 266.558 170.053 266.012 170.015 265.476C169.983 265.018 169.619 264.716 169.159 264.723C169.08 264.724 168.998 264.734 168.915 264.754L168.935 265.038L168.915 264.754L162.456 266.297C162.328 266.328 162.201 266.366 162.076 266.411C161.429 266.556 160.783 266.546 160.197 266.383L160.066 266.666L160.197 266.383C160.183 266.379 160.17 266.376 160.157 266.373L160.123 272.333Z" fill="#B0B8ED" stroke="black" stroke-width="0.595589"/>
<path d="M156.971 267.309L159.352 266.674L156.891 266.118L154.668 266.753L156.971 267.309Z" fill="white" fill-opacity="0.3"/>
<circle cx="160.878" cy="270.286" r="13.3011" fill="white" fill-opacity="0.3" stroke="black" stroke-width="0.595589"/>
<path d="M153.834 262.112C153.713 263.543 152.977 263.872 152.439 263.543C151.901 263.215 151.931 262.185 152.506 261.244C153.08 260.303 153.982 259.806 154.52 260.134C155.058 260.463 155.009 261.244 153.834 262.112Z" fill="white"/>
<path d="M145.227 351.663L145.209 351.659C145.129 351.64 145.048 351.63 144.969 351.629M145.227 351.663L144.966 351.926M145.227 351.663L145.245 351.67M145.227 351.663L145.245 351.67M144.969 351.629L144.966 351.926M144.969 351.629C144.97 351.629 144.971 351.629 144.971 351.629L144.966 351.926M144.969 351.629C144.85 351.627 144.75 351.673 144.678 351.719C144.603 351.766 144.537 351.828 144.481 351.89C144.368 352.015 144.263 352.176 144.175 352.336C144.085 352.497 144.006 352.67 143.947 352.826C143.891 352.974 143.843 353.133 143.834 353.259L144.131 353.28C144.154 352.956 144.641 351.921 144.966 351.926M145.245 351.67L151.458 354.028C151.579 354.057 151.699 354.094 151.816 354.136C152.471 354.283 153.118 354.272 153.699 354.11C153.713 354.106 153.726 354.103 153.74 354.1L153.807 354.39L153.74 354.1L159.925 352.676C160.005 352.658 160.086 352.65 160.166 352.652L145.245 351.67ZM151.123 355.972L151.12 355.971L151.196 355.683L151.126 355.972L151.123 355.972ZM153.484 359.819L153.627 359.524L153.836 359.777L153.693 360.072L153.484 359.819ZM145.257 358.851C145.258 358.847 145.26 358.842 145.262 358.837C145.264 358.833 145.266 358.829 145.268 358.825L145.536 358.954L145.257 358.851ZM149.772 361.97C149.78 361.977 149.788 361.984 149.795 361.99L149.817 362.021L149.572 362.191L149.772 361.97ZM151.45 356.057C151.442 356.055 151.433 356.053 151.425 356.051C151.418 356.047 151.411 356.044 151.404 356.041L151.522 355.768L151.45 356.057ZM161.218 354.474C161.218 354.474 161.217 354.474 161.217 354.474L161.219 354.474L161.218 354.474Z" fill="#5E6FDB" stroke="black" stroke-width="0.595589"/>
<path d="M154.237 359.161L156.743 362.205C157.835 363.531 159.751 363.718 160.63 362.586L162.792 359.8C163.102 359.4 162.967 358.766 162.489 358.384C162.012 358.003 161.372 358.018 161.062 358.418L158.9 361.204C158.756 361.39 158.441 361.359 158.262 361.141L155.184 357.404C154.984 357.161 154.851 356.879 154.801 356.593L154.666 355.823C154.61 355.502 154.784 355.227 155.087 355.156L161.219 353.732C161.743 353.61 161.985 353.074 161.76 352.534C161.566 352.07 161.09 351.754 160.627 351.753C160.626 351.753 160.625 351.753 160.624 351.753L160.679 352.046C160.621 352.044 160.563 352.05 160.507 352.063L154.237 359.161ZM154.237 359.161L152.789 362.153C152.159 363.456 150.3 363.595 149.018 362.434L145.868 359.579C145.415 359.168 145.327 358.535 145.673 358.164C146.019 357.793 146.666 357.825 147.12 358.236L150.27 361.091C150.481 361.282 150.786 361.259 150.89 361.045L152.667 357.371C152.783 357.132 152.817 356.853 152.767 356.566L152.667 355.993C152.603 355.628 152.333 355.3 151.984 355.14C151.97 355.137 151.957 355.133 151.943 355.13L151.687 355.063L145.306 353.523C144.737 353.386 144.307 352.84 144.345 352.304C144.377 351.846 144.741 351.543 145.201 351.551C145.28 351.551 145.361 351.562 145.445 351.581L145.425 351.866L145.445 351.581L151.904 353.125C152.032 353.156 152.159 353.194 152.284 353.239C152.931 353.383 153.577 353.374 154.163 353.21L154.294 353.494L154.163 353.21C154.176 353.207 154.19 353.203 154.203 353.2L154.237 359.161Z" fill="#B0B8ED" stroke="black" stroke-width="0.595589"/>
<path d="M157.389 354.136L155.007 353.501L157.469 352.945L159.692 353.581L157.389 354.136Z" fill="white" fill-opacity="0.3"/>
<circle r="13.3011" transform="matrix(-1 0 0 1 153.482 357.114)" fill="white" fill-opacity="0.3" stroke="black" stroke-width="0.595589"/>
<path d="M160.527 348.939C160.648 350.371 161.384 350.699 161.922 350.371C162.46 350.042 162.43 349.013 161.855 348.072C161.28 347.13 160.378 346.634 159.841 346.962C159.303 347.29 159.352 348.072 160.527 348.939Z" fill="white"/>
<path d="M154.668 158.066L154.686 158.061C154.775 158.04 154.864 158.029 154.951 158.028M154.668 158.066L154.951 158.028M154.668 158.066L154.65 158.072L147.523 160.777C147.383 160.811 147.245 160.853 147.111 160.902C146.352 161.072 145.602 161.06 144.927 160.872C144.912 160.868 144.897 160.864 144.882 160.861L137.789 159.228C137.7 159.208 137.611 159.199 137.522 159.201C137.481 159.2 137.391 159.18 137.234 159.129C137.181 159.113 137.119 159.091 137.053 159.069C136.951 159.034 136.84 158.997 136.743 158.967C136.577 158.916 136.386 158.867 136.215 158.864C136.05 158.861 135.787 158.906 135.676 159.173C135.609 159.334 135.586 159.528 135.585 159.713C135.585 159.902 135.61 160.106 135.655 160.297C135.7 160.487 135.769 160.678 135.867 160.837C135.96 160.988 136.107 161.153 136.326 161.204C136.326 161.205 136.327 161.205 136.327 161.205L144.005 163.027L144.007 163.027C144.337 163.104 144.535 163.396 144.469 163.775L144.314 164.657C144.255 164.996 144.096 165.336 143.851 165.633L140.322 169.919C140.192 170.077 140.016 170.162 139.858 170.178C139.7 170.193 139.579 170.141 139.509 170.051L137.031 166.857C136.88 166.663 136.5 166.309 136.111 166.044C135.916 165.91 135.7 165.786 135.494 165.717C135.306 165.654 135.026 165.605 134.803 165.783L134.785 165.798L134.77 165.815C134.526 166.08 134.404 166.365 134.377 166.652C134.351 166.935 134.42 167.197 134.519 167.42C134.675 167.77 134.936 168.079 135.08 168.249C135.112 168.288 135.139 168.319 135.157 168.343L137.636 171.537C138.153 172.203 138.965 172.466 139.776 172.387C140.586 172.308 141.414 171.887 142.013 171.16L144.956 167.587L146.624 171.034C146.994 171.8 147.724 172.213 148.522 172.272C149.317 172.331 150.186 172.043 150.887 171.407L154.501 168.133C154.745 167.912 154.872 167.635 154.87 167.3C154.869 166.989 154.757 166.647 154.575 166.269C154.353 165.678 153.963 165.366 153.532 165.283C153.12 165.204 152.712 165.345 152.462 165.572L152.437 165.594L152.417 165.622L149.449 169.897C149.3 170.021 149.132 170.068 148.994 170.058C148.852 170.047 148.751 169.98 148.7 169.875L146.662 165.662C146.533 165.396 146.491 165.077 146.55 164.739L146.665 164.081C146.744 163.635 147.084 163.216 147.533 163.014C147.551 163.009 147.57 163.004 147.589 162.999L147.513 162.711L147.589 162.999L147.883 162.922M154.668 158.066L147.883 162.922M154.951 158.028C155.076 158.026 155.183 158.074 155.262 158.124C155.343 158.176 155.415 158.244 155.478 158.314C155.605 158.453 155.723 158.634 155.824 158.816C155.925 159 156.015 159.196 156.082 159.373C156.146 159.541 156.199 159.719 156.209 159.857C156.251 160.455 155.786 161.015 155.202 161.156L147.883 162.922M154.951 158.028L147.883 162.922" fill="#5E6FDB" stroke="black" stroke-width="0.595589"/>
<path d="M141.414 170.093L144.335 166.546L146.022 170.033C146.734 171.504 148.832 171.66 150.279 170.349L153.892 167.075C154.392 166.622 154.488 165.923 154.107 165.514C153.725 165.104 153.01 165.14 152.51 165.593L148.897 168.867C148.632 169.107 148.249 169.078 148.118 168.809L146.08 164.596C145.944 164.315 145.904 163.987 145.963 163.65L146.078 162.992C146.155 162.556 146.478 162.163 146.896 161.974C146.913 161.969 146.931 161.965 146.948 161.96L146.921 161.678L146.948 161.96L147.241 161.883L154.56 160.117C155.188 159.966 155.663 159.363 155.621 158.772C155.586 158.266 155.184 157.932 154.677 157.94C154.589 157.941 154.499 157.952 154.407 157.974L147 159.744C146.853 159.779 146.708 159.823 146.566 159.874C145.815 160.042 145.066 160.032 144.386 159.842C144.372 159.838 144.357 159.834 144.342 159.831L137.249 158.198C137.163 158.178 137.074 158.17 136.984 158.172C136.474 158.174 135.948 158.522 135.734 159.035C135.486 159.63 135.753 160.222 136.331 160.356L143.363 161.99C143.73 162.075 143.941 162.409 143.873 162.796L143.718 163.679C143.659 164.016 143.502 164.347 143.267 164.633L139.738 168.919C139.512 169.192 139.117 169.231 138.935 168.997L136.457 165.803C136.114 165.361 135.408 165.344 134.881 165.765C134.353 166.187 134.204 166.886 134.547 167.329L137.026 170.523C138.018 171.802 140.181 171.59 141.414 170.093Z" fill="#B0B8ED" stroke="black" stroke-width="0.595589"/>
<path d="M140.707 160.863L143.438 160.134L140.616 159.497L138.066 160.225L140.707 160.863Z" fill="white" fill-opacity="0.3"/>
<circle cx="145.187" cy="164.279" r="15.298" fill="#D6DBFF" fill-opacity="0.3" stroke="black" stroke-width="0.595589"/>
<path d="M137.107 154.904C136.969 156.546 136.125 156.922 135.508 156.546C134.891 156.169 134.925 154.989 135.584 153.909C136.243 152.829 137.278 152.26 137.895 152.636C138.512 153.013 138.455 153.909 137.107 154.904Z" fill="white"/>
<path d="M117.24 234.845L117.222 234.841C117.133 234.82 117.044 234.809 116.957 234.808M117.24 234.845L116.957 234.808M117.24 234.845L117.258 234.852L124.385 237.557C124.525 237.591 124.662 237.633 124.797 237.682C125.556 237.852 126.306 237.84 126.98 237.652C126.995 237.648 127.01 237.644 127.026 237.641L134.119 236.008C134.207 235.987 134.297 235.979 134.385 235.981C134.426 235.98 134.517 235.96 134.674 235.909C134.726 235.892 134.789 235.871 134.855 235.849C134.957 235.814 135.068 235.777 135.165 235.747C135.331 235.696 135.522 235.646 135.693 235.644C135.858 235.641 136.12 235.686 136.232 235.953C136.299 236.113 136.322 236.308 136.322 236.492C136.322 236.682 136.298 236.885 136.253 237.077C136.208 237.267 136.139 237.458 136.041 237.616C135.948 237.768 135.8 237.933 135.582 237.984C135.581 237.984 135.581 237.984 135.581 237.984L127.902 239.807L127.901 239.807C127.571 239.884 127.372 240.176 127.439 240.554L127.594 241.437C127.653 241.776 127.812 242.116 128.057 242.413L131.586 246.699C131.716 246.857 131.891 246.942 132.05 246.957C132.208 246.973 132.329 246.92 132.399 246.831L134.877 243.636C135.028 243.443 135.408 243.089 135.797 242.824C135.992 242.69 136.208 242.566 136.414 242.497C136.602 242.434 136.882 242.385 137.104 242.563L137.122 242.577L137.138 242.594C137.381 242.86 137.504 243.144 137.531 243.432C137.557 243.715 137.488 243.976 137.389 244.2C137.233 244.549 136.972 244.859 136.828 245.029C136.795 245.068 136.769 245.099 136.751 245.122L134.272 248.317C133.755 248.983 132.943 249.246 132.132 249.167C131.322 249.087 130.493 248.667 129.895 247.94L126.952 244.366L125.284 247.814C124.913 248.579 124.183 248.993 123.386 249.052C122.591 249.111 121.722 248.823 121.02 248.187L117.407 244.913C117.162 244.691 117.036 244.415 117.037 244.08C117.039 243.769 117.151 243.427 117.333 243.049C117.555 242.458 117.945 242.146 118.376 242.063C118.787 241.984 119.196 242.125 119.446 242.351L119.471 242.374L119.49 242.402L122.459 246.677C122.608 246.801 122.776 246.848 122.914 246.838C123.056 246.827 123.157 246.76 123.207 246.655L125.246 242.442C125.374 242.176 125.417 241.857 125.358 241.519L125.242 240.861C125.164 240.415 124.824 239.995 124.375 239.794C124.356 239.789 124.338 239.784 124.319 239.779L124.394 239.491L124.319 239.779L124.025 239.702M117.24 234.845L124.025 239.702M116.957 234.808C116.832 234.806 116.725 234.854 116.646 234.904C116.565 234.956 116.493 235.024 116.429 235.093C116.303 235.233 116.185 235.414 116.084 235.596C115.982 235.78 115.893 235.976 115.826 236.152C115.762 236.321 115.709 236.499 115.699 236.637C115.657 237.235 116.122 237.795 116.706 237.936L124.025 239.702M116.957 234.808L124.025 239.702" fill="#5E6FDB" stroke="black" stroke-width="0.595589"/>
<path d="M130.493 246.873L127.572 243.326L125.885 246.813C125.173 248.284 123.074 248.44 121.628 247.129L118.015 243.855C117.514 243.402 117.418 242.703 117.8 242.293C118.182 241.884 118.896 241.92 119.397 242.373L123.01 245.647C123.274 245.887 123.658 245.858 123.788 245.589L125.827 241.376C125.962 241.095 126.003 240.767 125.944 240.43L125.829 239.772C125.752 239.336 125.429 238.943 125.01 238.753C124.993 238.749 124.976 238.745 124.959 238.74L124.985 238.458L124.959 238.74L124.665 238.663L117.347 236.897C116.719 236.746 116.244 236.143 116.285 235.551C116.321 235.046 116.723 234.712 117.23 234.72C117.318 234.721 117.408 234.732 117.5 234.754L124.907 236.524C125.054 236.559 125.198 236.603 125.34 236.654C126.091 236.822 126.841 236.812 127.521 236.622C127.535 236.618 127.55 236.614 127.565 236.611L134.657 234.978C134.744 234.958 134.833 234.95 134.922 234.952C135.433 234.954 135.959 235.302 136.173 235.814C136.421 236.41 136.154 237.002 135.576 237.136L128.544 238.77C128.177 238.855 127.966 239.188 128.034 239.576L128.189 240.459C128.248 240.796 128.405 241.127 128.64 241.413L132.169 245.699C132.394 245.972 132.79 246.011 132.971 245.777L135.45 242.583C135.793 242.141 136.499 242.124 137.026 242.545C137.553 242.966 137.703 243.666 137.36 244.108L134.881 247.303C133.889 248.581 131.726 248.37 130.493 246.873Z" fill="#B0B8ED" stroke="black" stroke-width="0.595589"/>
<path d="M131.2 237.643L128.468 236.914L131.291 236.277L133.841 237.005L131.2 237.643Z" fill="white" fill-opacity="0.3"/>
<circle r="15.298" transform="matrix(-1 0 0 1 126.719 241.058)" fill="#D6DBFF" fill-opacity="0.3" stroke="black" stroke-width="0.595589"/>
<path d="M134.8 231.684C134.938 233.325 135.783 233.702 136.4 233.325C137.016 232.949 136.982 231.768 136.323 230.689C135.664 229.609 134.629 229.039 134.012 229.416C133.396 229.793 133.452 230.689 134.8 231.684Z" fill="white"/>
<path d="M178.938 78.6576L178.91 78.6671L178.884 78.6819C178.162 79.099 177.448 79.4702 176.745 79.7966L176.693 79.8209L176.653 79.8631L101.976 159.608L101.939 159.648L101.918 159.697L93.202 180.663L92.958 180.521L91.4338 179.633C90.1193 178.867 88.2379 177.772 85.9706 176.452C81.436 173.813 75.3579 170.279 69.1837 166.696C56.8442 159.537 44.0977 152.173 42.5494 151.404C38.8628 149.572 36.498 145.224 36.498 138.782C36.498 128.532 42.4999 116.402 50.6831 109.066L50.886 108.884L50.7228 108.666C48.6762 105.93 47.4812 101.994 47.4812 97.0132C47.4812 89.7232 50.0422 81.6256 54.1969 74.4294C58.3516 67.2333 64.0839 60.9666 70.3971 57.3216C71.3013 56.7996 72.1923 56.3458 73.0672 55.9584L73.1889 55.9045L73.23 55.7779C79.8124 35.448 94.2781 15.6328 111.035 5.95811C123.025 -0.964546 133.752 -1.29543 141.242 3.6483C145.626 6.54137 148.936 11.2609 150.753 17.6009L150.895 18.0961L151.254 17.726C154.108 14.7769 157.214 12.2706 160.46 10.3969C167.826 6.14389 174.37 6.03068 178.863 9.16022L178.873 9.16751L178.884 9.17387L228.143 37.5621V62.0432L178.938 78.6576Z" fill="#B0B8ED" stroke="black" stroke-width="0.595589"/>
<path d="M176.745 79.7966L176.693 79.8209L176.653 79.8631L101.976 159.608L101.939 159.648L101.918 159.697L93.202 180.663L92.958 180.521L91.4338 179.633C90.1193 178.867 88.2379 177.772 85.9706 176.452C81.436 173.813 75.3579 170.279 69.1837 166.696C56.8442 159.537 44.0977 152.173 42.5494 151.404C38.8628 149.572 36.498 145.224 36.498 138.782C36.498 128.532 42.4999 116.402 50.6831 109.066L50.886 108.884L50.7228 108.666C48.6762 105.93 47.4812 101.994 47.4812 97.0131C47.4812 89.7232 50.0422 81.6256 54.1969 74.4294C58.3516 67.2333 64.0839 60.9666 70.3971 57.3216C71.3013 56.7996 72.1923 56.3458 73.0672 55.9584L73.1889 55.9045L73.23 55.7779C79.8124 35.448 94.2781 15.6328 111.035 5.95811C123.025 -0.964547 133.752 -1.29543 141.242 3.6483L141.249 3.65305L141.257 3.65737L189.428 31.5958L193.219 62.1618L178.841 78.7067C178.133 79.1137 177.434 79.4767 176.745 79.7966Z" fill="#B0B8ED" stroke="black" stroke-width="0.595589"/>
<path d="M227.915 109.444L227.902 109.45L227.891 109.456L105.382 180.187V180.141L104.957 180.342C100.053 182.663 95.7434 182.527 92.67 180.438C89.5922 178.347 87.6674 174.239 87.6674 168.429C87.6674 158.18 93.6694 146.05 101.853 138.714L102.055 138.532L101.892 138.314C99.8457 135.578 98.6507 131.642 98.6507 126.661C98.6507 119.371 101.212 111.273 105.366 104.077C109.521 96.881 115.253 90.6143 121.567 86.9693C122.471 86.4473 123.362 85.9935 124.237 85.6061L124.358 85.5522L124.399 85.4256C130.982 65.0957 145.448 45.2805 162.205 35.6058C171.703 30.1217 180.413 28.7749 187.34 30.9084C194.257 33.0388 199.461 38.6589 201.923 47.2486L202.065 47.7438L202.423 47.3737C205.278 44.4246 208.384 41.9183 211.629 40.0446C218.551 36.0485 224.747 35.7078 229.194 38.2752C233.641 40.8426 236.444 46.3792 236.444 54.3714C236.444 54.693 236.439 55.0161 236.43 55.3405L236.42 55.7206L236.791 55.6397C241.17 54.6867 244.91 55.6548 247.56 58.2178C250.217 60.788 251.82 65.0045 251.82 70.6285C251.82 77.552 249.388 85.2437 245.441 92.0796C241.495 98.9156 236.049 104.868 230.054 108.33C229.331 108.747 228.618 109.118 227.915 109.444Z" fill="#B0B8ED" stroke="black" stroke-width="0.595589"/>
<path d="M236.727 115.168L236.715 115.173L236.704 115.18L114.195 185.91V185.864L113.77 186.065C108.866 188.386 104.556 188.25 101.483 186.161C98.4052 184.07 96.4804 179.962 96.4804 174.153C96.4804 163.903 102.482 151.773 110.666 144.437L110.868 144.255L110.705 144.037C108.659 141.301 107.464 137.365 107.464 132.384C107.464 125.094 110.025 116.997 114.179 109.8C118.334 102.604 124.066 96.3376 130.38 92.6927C131.284 92.1706 132.175 91.7169 133.05 91.3295L133.171 91.2756L133.212 91.1489C139.795 70.8191 154.261 51.0038 171.018 41.3291C180.516 35.845 189.226 34.4982 196.153 36.6317C203.07 38.7622 208.274 44.3822 210.736 52.9719L210.878 53.4672L211.236 53.097C214.091 50.1479 217.197 47.6417 220.442 45.768C227.364 41.7718 233.56 41.4312 238.007 43.9985C242.454 46.5659 245.257 52.1025 245.257 60.0948C245.257 60.4164 245.252 60.7394 245.243 61.0638L245.233 61.444L245.604 61.3631C249.983 60.41 253.723 61.3782 256.373 63.9411C259.03 66.5114 260.633 70.7279 260.633 76.3518C260.633 83.2753 258.201 90.967 254.254 97.8029C250.307 104.639 244.862 110.591 238.867 114.053C238.144 114.47 237.431 114.841 236.727 115.168Z" stroke="black" stroke-width="0.595589"/>
<path d="M149.754 196.686C149.864 196.687 149.977 196.701 150.09 196.728L150.109 196.733L150.127 196.739L159.854 200.431C160.045 200.478 160.233 200.535 160.418 200.602C161.471 200.839 162.515 200.824 163.455 200.562L163.535 200.845L163.455 200.562C163.474 200.556 163.493 200.551 163.513 200.547L173.187 198.32C173.299 198.294 173.413 198.283 173.526 198.286C173.601 198.285 173.741 198.252 173.954 198.183C174.029 198.159 174.115 198.13 174.206 198.099C174.343 198.052 174.489 198.002 174.622 197.962C174.847 197.893 175.095 197.83 175.312 197.826C175.523 197.822 175.82 197.88 175.945 198.181C176.029 198.382 176.06 198.631 176.06 198.875C176.06 199.125 176.028 199.394 175.968 199.648C175.909 199.899 175.818 200.149 175.693 200.352C175.572 200.548 175.391 200.745 175.133 200.805C175.133 200.805 175.133 200.805 175.133 200.805L164.659 203.291L164.657 203.291C164.147 203.41 163.845 203.865 163.945 204.434L164.156 205.639C164.241 206.121 164.466 206.601 164.811 207.02L169.624 212.866C169.82 213.103 170.085 213.233 170.331 213.257C170.576 213.281 170.78 213.201 170.902 213.043L174.283 208.686C174.479 208.433 174.989 207.958 175.513 207.6C175.776 207.421 176.061 207.257 176.328 207.168C176.577 207.085 176.91 207.034 177.167 207.24L177.186 207.255L177.201 207.272C177.519 207.618 177.675 207.984 177.709 208.351C177.742 208.712 177.654 209.051 177.524 209.344C177.319 209.804 176.979 210.208 176.78 210.443C176.734 210.499 176.695 210.545 176.667 210.58L173.287 214.937C172.608 215.811 171.54 216.16 170.464 216.055C169.388 215.95 168.284 215.391 167.485 214.421L163.363 209.416L161.015 214.27C160.529 215.275 159.571 215.82 158.515 215.899C157.463 215.977 156.306 215.594 155.37 214.746L150.441 210.28C150.13 209.998 149.97 209.65 149.973 209.225C149.975 208.824 150.12 208.373 150.367 207.86C150.658 207.081 151.164 206.685 151.71 206.58C152.237 206.479 152.759 206.66 153.077 206.947L153.102 206.97L153.121 206.998L157.179 212.841C157.404 213.034 157.666 213.111 157.887 213.094C158.114 213.078 158.289 212.967 158.378 212.784L161.158 207.038C161.344 206.653 161.404 206.194 161.32 205.712L161.162 204.816C161.048 204.165 160.555 203.562 159.908 203.276C159.88 203.268 159.852 203.261 159.824 203.254L159.422 203.148L149.437 200.739C148.686 200.557 148.094 199.836 148.147 199.08C148.159 198.908 148.227 198.678 148.313 198.45C148.402 198.214 148.523 197.951 148.659 197.705C148.794 197.461 148.951 197.222 149.115 197.04C149.198 196.949 149.289 196.864 149.389 196.8C149.487 196.738 149.612 196.684 149.754 196.686ZM149.754 196.686C149.754 196.686 149.755 196.686 149.755 196.686L149.75 196.984L149.753 196.686C149.753 196.686 149.754 196.686 149.754 196.686Z" fill="#5E6FDB" stroke="black" stroke-width="0.595589"/>
<path d="M150.147 196.561C150.258 196.562 150.373 196.576 150.489 196.604L160.593 199.018C160.791 199.066 160.986 199.125 161.178 199.194C162.223 199.429 163.266 199.415 164.212 199.151C164.231 199.146 164.249 199.141 164.268 199.137L173.942 196.91C174.052 196.885 174.165 196.874 174.279 196.877C174.927 196.879 175.594 197.32 175.865 197.97C176.18 198.725 175.841 199.475 175.109 199.645L165.517 201.874C164.97 202.001 164.655 202.498 164.757 203.076L164.968 204.28C165.052 204.761 165.275 205.233 165.61 205.64L170.424 211.485C170.78 211.918 171.405 211.979 171.692 211.609L175.072 207.253C175.507 206.692 176.401 206.671 177.07 207.205C177.738 207.739 177.927 208.626 177.493 209.186L174.112 213.543C172.798 215.237 169.932 214.956 168.3 212.974L164.2 207.995L161.832 212.889C160.889 214.838 158.11 215.044 156.194 213.308L151.265 208.843C150.631 208.268 150.51 207.382 150.993 206.863C151.477 206.344 152.383 206.389 153.017 206.964L157.945 211.43C158.363 211.808 158.969 211.763 159.175 211.338L161.955 205.592C162.149 205.192 162.207 204.723 162.123 204.243L161.965 203.346C161.853 202.706 161.376 202.13 160.76 201.855C160.734 201.848 160.707 201.841 160.68 201.834L160.279 201.729L150.295 199.32C149.499 199.128 148.897 198.364 148.95 197.615C148.995 196.973 149.504 196.55 150.147 196.561ZM150.147 196.561C150.148 196.561 150.148 196.561 150.148 196.561L150.199 196.854L150.146 196.561C150.147 196.561 150.147 196.561 150.147 196.561Z" fill="#B0B8ED" stroke="black" stroke-width="0.595589"/>
<path d="M169.184 200.441L165.458 199.448L169.308 198.578L172.786 199.572L169.184 200.441Z" fill="white" fill-opacity="0.3"/>
<circle r="20.9745" transform="matrix(-1 0 0 1 163.072 205.101)" fill="white" fill-opacity="0.3" stroke="black" stroke-width="0.595589"/>
<path d="M174.095 192.315C174.283 194.554 175.435 195.068 176.276 194.554C177.118 194.04 177.071 192.43 176.172 190.958C175.273 189.485 173.862 188.708 173.02 189.222C172.179 189.735 172.256 190.958 174.095 192.315Z" fill="white"/>
<path d="M149.823 306.796C149.712 306.797 149.6 306.811 149.486 306.838L149.468 306.843L149.45 306.849L139.722 310.541C139.531 310.588 139.343 310.645 139.159 310.712C138.106 310.949 137.062 310.934 136.121 310.671L136.042 310.955L136.121 310.671C136.102 310.666 136.083 310.661 136.064 310.657L126.39 308.43C126.277 308.404 126.163 308.393 126.05 308.396C125.976 308.395 125.836 308.361 125.623 308.293C125.548 308.269 125.462 308.239 125.371 308.209C125.234 308.162 125.087 308.112 124.955 308.072C124.73 308.003 124.482 307.939 124.265 307.936C124.054 307.932 123.757 307.99 123.631 308.291C123.548 308.491 123.517 308.74 123.516 308.985C123.516 309.235 123.548 309.504 123.608 309.757C123.668 310.009 123.759 310.259 123.884 310.461C124.005 310.657 124.186 310.855 124.443 310.915C124.443 310.915 124.444 310.915 124.444 310.915L134.918 313.401L134.919 313.401C135.43 313.52 135.732 313.975 135.632 314.544L135.421 315.749C135.336 316.231 135.111 316.711 134.766 317.13L129.952 322.975C129.757 323.213 129.491 323.343 129.246 323.367C129.001 323.391 128.797 323.31 128.674 323.153L125.294 318.796C125.097 318.543 124.588 318.068 124.064 317.71C123.801 317.531 123.516 317.367 123.249 317.278C123 317.195 122.667 317.144 122.409 317.35L122.391 317.364L122.376 317.382C122.058 317.728 121.902 318.094 121.868 318.461C121.835 318.822 121.922 319.161 122.053 319.454C122.257 319.914 122.598 320.317 122.796 320.553C122.843 320.608 122.882 320.654 122.909 320.69L126.29 325.047C126.968 325.921 128.037 326.27 129.113 326.165C130.189 326.06 131.293 325.501 132.092 324.531L136.213 319.526L138.562 324.38C139.048 325.384 140.006 325.93 141.061 326.008C142.114 326.087 143.271 325.704 144.207 324.856L149.135 320.39C149.447 320.108 149.606 319.76 149.604 319.335C149.602 318.934 149.456 318.483 149.21 317.97C148.918 317.191 148.412 316.795 147.866 316.69C147.34 316.589 146.817 316.77 146.5 317.057L146.475 317.08L146.455 317.108L142.398 322.95C142.173 323.144 141.911 323.221 141.689 323.204C141.463 323.187 141.287 323.077 141.199 322.894L138.419 317.148C138.232 316.763 138.173 316.304 138.257 315.822L138.414 314.925C138.528 314.275 139.022 313.672 139.668 313.385C139.696 313.378 139.725 313.371 139.753 313.364L140.155 313.258L150.139 310.849C150.891 310.667 151.483 309.946 151.43 309.19C151.418 309.018 151.35 308.788 151.264 308.56C151.174 308.323 151.054 308.061 150.918 307.815C150.783 307.571 150.626 307.332 150.461 307.15C150.379 307.059 150.287 306.974 150.188 306.91C150.09 306.848 149.965 306.794 149.823 306.796ZM149.823 306.796C149.822 306.796 149.822 306.796 149.822 306.796L149.827 307.094L149.824 306.796C149.823 306.796 149.823 306.796 149.823 306.796Z" fill="#5E6FDB" stroke="black" stroke-width="0.595589"/>
<path d="M149.429 306.67C149.319 306.672 149.204 306.686 149.088 306.714L138.984 309.128C138.786 309.175 138.591 309.234 138.399 309.304C137.354 309.539 136.311 309.525 135.364 309.261C135.346 309.256 135.328 309.251 135.309 309.247L125.634 307.02C125.524 306.995 125.411 306.984 125.298 306.986C124.65 306.988 123.983 307.43 123.712 308.08C123.397 308.835 123.735 309.585 124.468 309.755L134.06 311.983C134.607 312.111 134.922 312.608 134.82 313.186L134.609 314.39C134.525 314.87 134.302 315.342 133.966 315.749L129.153 321.595C128.797 322.028 128.172 322.089 127.885 321.719L124.504 317.362C124.069 316.802 123.175 316.781 122.507 317.314C121.839 317.848 121.649 318.735 122.084 319.296L125.465 323.653C126.779 325.346 129.644 325.066 131.277 323.084L135.377 318.105L137.744 322.999C138.687 324.947 141.467 325.154 143.383 323.418L148.311 318.953C148.945 318.378 149.067 317.492 148.583 316.973C148.1 316.454 147.194 316.499 146.56 317.074L141.632 321.539C141.214 321.918 140.607 321.873 140.402 321.448L137.622 315.702C137.428 315.301 137.37 314.833 137.454 314.353L137.611 313.456C137.724 312.816 138.201 312.24 138.816 311.965C138.843 311.958 138.87 311.951 138.897 311.944L139.298 311.839L149.282 309.43C150.078 309.238 150.68 308.474 150.627 307.724C150.582 307.083 150.073 306.66 149.429 306.67ZM149.429 306.67C149.429 306.671 149.429 306.671 149.428 306.671L149.378 306.964L149.43 306.67C149.43 306.67 149.43 306.67 149.429 306.67Z" fill="#B0B8ED" stroke="black" stroke-width="0.595589"/>
<path d="M130.393 310.551L134.119 309.558L130.269 308.688L126.791 309.682L130.393 310.551Z" fill="white" fill-opacity="0.3"/>
<circle cx="136.504" cy="315.211" r="20.9745" fill="white" fill-opacity="0.3" stroke="black" stroke-width="0.595589"/>
<path d="M125.483 302.425C125.294 304.664 124.142 305.177 123.301 304.664C122.459 304.15 122.506 302.54 123.405 301.067C124.304 299.595 125.715 298.818 126.557 299.331C127.398 299.845 127.321 301.067 125.483 302.425Z" fill="white"/>
<defs>
<linearGradient id="paint0_linear" x1="145.001" y1="161.978" x2="145.001" y2="394.973" gradientUnits="userSpaceOnUse">
<stop offset="0.192708" stop-color="#D6DBFF" stop-opacity="0"/>
<stop offset="1" stop-color="#D6DBFF"/>
</linearGradient>
<linearGradient id="paint1_linear" x1="144.763" y1="171.348" x2="144.763" y2="382.584" gradientUnits="userSpaceOnUse">
<stop offset="0.192708" stop-color="white" stop-opacity="0"/>
<stop offset="1" stop-color="white" stop-opacity="0.6"/>
</linearGradient>
</defs>
</svg>
