<svg width="1051" height="1780" viewBox="0 0 1051 1780" fill="none" xmlns="http://www.w3.org/2000/svg">
<path d="M541.932 1774.32L1042.18 1485.5C1046.76 1482.86 1049.03 1479.39 1049 1475.92L1048.85 1410H1.95725L1.95499 1475.92C1.92004 1479.39 4.19195 1482.86 8.77072 1485.5L509.021 1774.32C518.109 1779.57 532.844 1779.57 541.932 1774.32Z" fill="#55A398" stroke="black" stroke-width="2.37393" stroke-linecap="round" stroke-linejoin="round"/>
<path d="M509.018 1111.46C518.106 1106.22 532.841 1106.22 541.929 1111.46L1042.18 1400.28C1051.27 1405.53 1051.27 1414.04 1042.18 1419.28L541.929 1708.1C532.841 1713.35 518.106 1713.35 509.018 1708.1L8.7673 1419.28C-0.320879 1414.04 -0.320867 1405.53 8.76731 1400.28L509.018 1111.46Z" fill="#BDDCD8" stroke="black" stroke-width="2.37393" stroke-linecap="round" stroke-linejoin="round"/>
<rect width="615.391" height="27.0189" transform="matrix(0.866025 0.5 -0.866025 0.5 368.656 1192.46)" fill="#FFE496" stroke="black" stroke-width="2.37393" stroke-linecap="round" stroke-linejoin="round"/>
<rect width="615.683" height="27.0189" transform="matrix(0.866025 0.5 -0.866025 0.5 304.572 1229.37)" fill="#FFE496" stroke="black" stroke-width="2.37393" stroke-linecap="round" stroke-linejoin="round"/>
<rect width="615.343" height="27.0189" transform="matrix(0.866025 0.5 -0.866025 0.5 240.917 1266.11)" fill="#FFE496" stroke="black" stroke-width="2.37393" stroke-linecap="round" stroke-linejoin="round"/>
<rect width="615.627" height="27.0189" transform="matrix(0.866025 0.5 -0.866025 0.5 176.84 1303.15)" fill="#FFE496" stroke="black" stroke-width="2.37393" stroke-linecap="round" stroke-linejoin="round"/>
<rect width="615.391" height="27.0189" transform="matrix(-0.866025 0.5 0.866025 0.5 684.277 1193.58)" fill="#FFE496" stroke="black" stroke-width="2.37393" stroke-linecap="round" stroke-linejoin="round"/>
<rect width="615.683" height="27.0189" transform="matrix(-0.866025 0.5 0.866025 0.5 748.36 1230.49)" fill="#FFE496" stroke="black" stroke-width="2.37393" stroke-linecap="round" stroke-linejoin="round"/>
<rect width="615.343" height="27.0189" transform="matrix(-0.866025 0.5 0.866025 0.5 812.02 1267.23)" fill="#FFE496" stroke="black" stroke-width="2.37393" stroke-linecap="round" stroke-linejoin="round"/>
<rect width="615.627" height="27.0189" transform="matrix(-0.866025 0.5 0.866025 0.5 876.092 1304.27)" fill="#FFE496" stroke="black" stroke-width="2.37393" stroke-linecap="round" stroke-linejoin="round"/>
<path d="M536.956 1628.58L885.893 1427.12C889.087 1425.28 890.672 1422.86 890.647 1420.44L890.547 1374.46H160.309L160.307 1420.44C160.283 1422.86 161.868 1425.28 165.062 1427.12L513.999 1628.58C520.338 1632.24 530.616 1632.24 536.956 1628.58Z" fill="black" stroke="black" stroke-width="2.37393" stroke-linecap="round" stroke-linejoin="round"/>
<path d="M513.995 1166.22C520.335 1162.56 530.612 1162.56 536.952 1166.22L885.889 1367.68C892.229 1371.34 892.229 1377.28 885.889 1380.94L536.952 1582.4C530.612 1586.06 520.335 1586.06 513.995 1582.4L165.058 1380.94C158.718 1377.28 158.718 1371.34 165.058 1367.68L513.995 1166.22Z" fill="#B3B3B3" stroke="black" stroke-width="2.37393" stroke-linecap="round" stroke-linejoin="round"/>
<circle r="10.3287" transform="matrix(0.866025 0.5 -0.866025 0.5 525.508 1550.77)" fill="#505050" stroke="black" stroke-width="2.37393" stroke-linecap="round" stroke-linejoin="round"/>
<path d="M639.509 1543.41L663.889 1558.41L640.96 1598.13L616.11 1583.82L616.11 1556.92L639.509 1543.41Z" fill="#B3B3B3" stroke="black" stroke-width="2.37393" stroke-linecap="round" stroke-linejoin="round"/>
<path d="M663.951 1558.42L663.951 1584.6L641.146 1597.77L641.146 1571.14L663.951 1558.42Z" fill="#B3B3B3" stroke="black" stroke-width="2.37393" stroke-linecap="round" stroke-linejoin="round"/>
<path d="M639.115 1543.23L664.077 1557.79L641.141 1571.41L616.422 1556.8L639.115 1543.23Z" fill="#D9D9D9" stroke="black" stroke-width="2.37393" stroke-linecap="round" stroke-linejoin="round"/>
<path d="M703.485 1506.36L727.865 1521.35L704.936 1561.08L680.086 1546.76L680.086 1519.87L703.485 1506.36Z" fill="#B3B3B3" stroke="black" stroke-width="2.37393" stroke-linecap="round" stroke-linejoin="round"/>
<path d="M727.927 1521.36L727.927 1547.55L705.123 1560.71L705.123 1534.09L727.927 1521.36Z" fill="#B3B3B3" stroke="black" stroke-width="2.37393" stroke-linecap="round" stroke-linejoin="round"/>
<path d="M703.091 1506.17L728.054 1520.74L705.117 1534.36L680.399 1519.74L703.091 1506.17Z" fill="#D9D9D9" stroke="black" stroke-width="2.37393" stroke-linecap="round" stroke-linejoin="round"/>
<path d="M767.811 1469.54L792.191 1484.54L769.262 1524.26L744.412 1509.95L744.412 1483.05L767.811 1469.54Z" fill="#B3B3B3" stroke="black" stroke-width="2.37393" stroke-linecap="round" stroke-linejoin="round"/>
<path d="M792.253 1484.55L792.253 1510.73L769.448 1523.9L769.448 1497.27L792.253 1484.55Z" fill="#B3B3B3" stroke="black" stroke-width="2.37393" stroke-linecap="round" stroke-linejoin="round"/>
<path d="M767.417 1469.36L792.38 1483.92L769.443 1497.54L744.725 1482.93L767.417 1469.36Z" fill="#D9D9D9" stroke="black" stroke-width="2.37393" stroke-linecap="round" stroke-linejoin="round"/>
<path d="M831.018 1431.99L855.397 1446.99L832.469 1486.71L807.619 1472.4L807.619 1445.5L831.018 1431.99Z" fill="#B3B3B3" stroke="black" stroke-width="2.37393" stroke-linecap="round" stroke-linejoin="round"/>
<path d="M855.46 1447L855.46 1473.18L832.655 1486.35L832.655 1459.72L855.46 1447Z" fill="#B3B3B3" stroke="black" stroke-width="2.37393" stroke-linecap="round" stroke-linejoin="round"/>
<path d="M830.624 1431.81L855.586 1446.37L832.649 1459.99L807.931 1445.38L830.624 1431.81Z" fill="#D9D9D9" stroke="black" stroke-width="2.37393" stroke-linecap="round" stroke-linejoin="round"/>
<path d="M415.098 1543.41L390.718 1558.41L413.647 1598.13L438.497 1583.82L438.497 1556.92L415.098 1543.41Z" fill="#B3B3B3" stroke="black" stroke-width="2.37393" stroke-linecap="round" stroke-linejoin="round"/>
<path d="M390.656 1558.42L390.656 1584.6L413.461 1597.77L413.461 1571.14L390.656 1558.42Z" fill="#B3B3B3" stroke="black" stroke-width="2.37393" stroke-linecap="round" stroke-linejoin="round"/>
<path d="M415.492 1543.23L390.53 1557.79L413.466 1571.41L438.185 1556.8L415.492 1543.23Z" fill="#D9D9D9" stroke="black" stroke-width="2.37393" stroke-linecap="round" stroke-linejoin="round"/>
<path d="M351.121 1506.36L326.742 1521.35L349.671 1561.08L374.521 1546.76L374.521 1519.87L351.121 1506.36Z" fill="#B3B3B3" stroke="black" stroke-width="2.37393" stroke-linecap="round" stroke-linejoin="round"/>
<path d="M326.679 1521.36L326.679 1547.55L349.484 1560.71L349.484 1534.09L326.679 1521.36Z" fill="#B3B3B3" stroke="black" stroke-width="2.37393" stroke-linecap="round" stroke-linejoin="round"/>
<path d="M351.516 1506.17L326.553 1520.74L349.49 1534.36L374.208 1519.74L351.516 1506.17Z" fill="#D9D9D9" stroke="black" stroke-width="2.37393" stroke-linecap="round" stroke-linejoin="round"/>
<path d="M286.8 1469.54L262.42 1484.54L285.349 1524.26L310.199 1509.95L310.199 1483.05L286.8 1469.54Z" fill="#B3B3B3" stroke="black" stroke-width="2.37393" stroke-linecap="round" stroke-linejoin="round"/>
<path d="M262.358 1484.55L262.358 1510.73L285.163 1523.9L285.163 1497.27L262.358 1484.55Z" fill="#B3B3B3" stroke="black" stroke-width="2.37393" stroke-linecap="round" stroke-linejoin="round"/>
<path d="M287.194 1469.36L262.231 1483.92L285.168 1497.54L309.886 1482.93L287.194 1469.36Z" fill="#D9D9D9" stroke="black" stroke-width="2.37393" stroke-linecap="round" stroke-linejoin="round"/>
<path d="M223.586 1431.99L199.206 1446.99L222.135 1486.71L246.985 1472.4L246.985 1445.5L223.586 1431.99Z" fill="#B3B3B3" stroke="black" stroke-width="2.37393" stroke-linecap="round" stroke-linejoin="round"/>
<path d="M199.144 1447L199.144 1473.18L221.949 1486.35L221.949 1459.72L199.144 1447Z" fill="#B3B3B3" stroke="black" stroke-width="2.37393" stroke-linecap="round" stroke-linejoin="round"/>
<path d="M223.98 1431.81L199.017 1446.37L221.954 1459.99L246.672 1445.38L223.98 1431.81Z" fill="#D9D9D9" stroke="black" stroke-width="2.37393" stroke-linecap="round" stroke-linejoin="round"/>
<path d="M516.883 612.447L522.098 623.225C523.302 625.714 525.675 627.054 528.255 627.246C530.826 627.438 533.63 626.504 535.89 624.456L547.392 614.034C548.199 613.302 548.621 612.384 548.615 611.277C548.61 610.259 548.244 609.149 547.663 607.94C546.942 606.025 545.665 604.995 544.241 604.722C542.886 604.462 541.543 604.923 540.715 605.673L540.623 605.756L540.552 605.858L531.112 619.451C530.669 619.816 530.175 619.949 529.779 619.92C529.368 619.889 529.095 619.697 528.959 619.416L522.47 606.005C522.074 605.187 521.941 604.2 522.126 603.149L522.493 601.056L521.422 600.868L522.493 601.056C522.733 599.688 523.777 598.392 525.163 597.766C525.218 597.751 525.274 597.737 525.33 597.722L526.264 597.477L549.564 591.855C551.48 591.392 553.015 589.555 552.875 587.575C552.843 587.113 552.668 586.532 552.463 585.992C552.248 585.423 551.959 584.793 551.632 584.203C551.309 583.619 550.927 583.033 550.514 582.577C550.308 582.349 550.068 582.124 549.796 581.951C549.532 581.782 549.166 581.616 548.731 581.622C548.443 581.625 548.15 581.661 547.857 581.731L547.789 581.748L547.724 581.772L525.043 590.38C524.599 590.489 524.162 590.622 523.734 590.777C521.342 591.312 518.98 591.273 516.86 590.682C516.81 590.668 516.76 590.655 516.709 590.643L494.13 585.446C493.836 585.378 493.541 585.35 493.249 585.356C493.142 585.353 492.873 585.296 492.373 585.135C492.211 585.083 492.015 585.016 491.805 584.945C491.478 584.834 491.118 584.712 490.808 584.617C490.279 584.456 489.654 584.292 489.09 584.283C488.545 584.274 487.631 584.421 487.242 585.353C487.019 585.888 486.944 586.527 486.944 587.124C486.943 587.738 487.022 588.397 487.169 589.017C487.315 589.63 487.539 590.255 487.86 590.775C488.165 591.27 488.66 591.834 489.409 592.009C489.41 592.009 489.411 592.009 489.412 592.01L513.856 597.811L513.861 597.813C514.835 598.039 515.426 598.893 515.226 600.031L514.733 602.842C514.549 603.895 514.054 604.955 513.289 605.883L502.054 619.527C501.663 620.002 501.138 620.254 500.67 620.3C500.204 620.346 499.871 620.191 499.684 619.95L491.794 609.781C491.303 609.149 490.08 608.015 488.835 607.164C488.209 606.736 487.508 606.332 486.836 606.107C486.229 605.904 485.274 605.728 484.507 606.341L484.441 606.393L484.384 606.456C483.59 607.321 483.185 608.255 483.098 609.203C483.012 610.133 483.239 610.991 483.561 611.716C484.066 612.851 484.918 613.859 485.374 614.398C485.474 614.517 485.555 614.613 485.609 614.682L493.5 624.851C495.181 627.018 497.818 627.867 500.436 627.611C503.052 627.355 505.724 625.998 507.653 623.656L516.883 612.447Z" fill="#5E6FDB" stroke="black" stroke-width="2.17444"/>
<path d="M515.001 609.148L520.216 619.927C521.42 622.415 523.793 623.756 526.373 623.948C528.943 624.139 531.748 623.205 534.008 621.157L545.51 610.735C546.978 609.404 547.51 607.072 546.077 605.535C544.658 604.012 542.283 604.328 540.818 605.656L529.315 616.079C528.852 616.499 528.319 616.652 527.897 616.621C527.486 616.59 527.213 616.398 527.077 616.117L520.588 602.706C520.192 601.888 520.059 600.901 520.244 599.85L520.611 597.757L519.54 597.569L520.611 597.757C520.851 596.389 521.895 595.094 523.28 594.467C523.336 594.453 523.392 594.438 523.448 594.423L523.173 593.372L523.448 594.423L524.382 594.179L547.682 588.556C549.598 588.094 551.133 586.256 550.993 584.276C550.865 582.461 549.389 581.293 547.683 581.32C547.395 581.323 547.103 581.36 546.812 581.429L523.23 587.065C522.763 587.176 522.302 587.315 521.852 587.478C519.46 588.014 517.098 587.974 514.978 587.383C514.928 587.369 514.878 587.356 514.827 587.345C514.827 587.345 514.827 587.345 514.827 587.345L492.248 582.147C491.952 582.079 491.654 582.051 491.361 582.057C489.713 582.064 488.1 583.157 487.438 584.744C487.045 585.688 487.034 586.698 487.424 587.561C487.817 588.433 488.589 589.081 489.591 589.314L511.979 594.514C512.953 594.74 513.544 595.594 513.344 596.732L512.851 599.543C512.666 600.596 512.172 601.656 511.407 602.585L500.172 616.228C499.781 616.704 499.255 616.956 498.788 617.001C498.322 617.047 497.989 616.892 497.802 616.651L489.912 606.483C488.624 604.823 486.236 604.974 484.688 606.211C483.143 607.446 482.451 609.739 483.727 611.384L491.617 621.552C493.299 623.719 495.936 624.568 498.554 624.312C501.17 624.056 503.842 622.7 505.771 620.357L515.001 609.148Z" fill="#B0B8ED" stroke="black" stroke-width="2.17444"/>
<path d="M503.384 590.777L512.081 588.458L503.095 586.429L494.978 588.748L503.384 590.777Z" fill="white" fill-opacity="0.3"/>
<circle cx="517.648" cy="601.648" r="48.5611" fill="white" fill-opacity="0.3" stroke="black" stroke-width="2.17444"/>
<path d="M491.933 571.803C491.493 577.029 488.805 578.228 486.841 577.029C484.877 575.83 484.986 572.072 487.085 568.635C489.183 565.199 492.476 563.385 494.44 564.584C496.404 565.783 496.224 568.635 491.933 571.803Z" fill="white"/>
<path d="M527.692 1442.87C615.377 1442.87 686.46 1406.34 686.46 1361.29L734.009 592.225H318.066L368.924 1361.29C368.924 1406.34 440.007 1442.87 527.692 1442.87Z" fill="url(#paint0_linear)"/>
<path d="M526.824 1397.64C568.457 1397.64 602.207 1380.25 602.207 1358.81L624.783 626.434H427.293L451.441 1358.81C451.441 1380.25 485.191 1397.64 526.824 1397.64Z" fill="url(#paint1_linear)"/>
<path d="M324.683 434.454L369.237 1360.14C369.237 1405.22 440.428 1441.76 528.247 1441.76C616.066 1441.76 687.257 1405.22 687.257 1360.14L728.489 434.454" stroke="black" stroke-width="2.17444" stroke-linecap="round" stroke-linejoin="round" stroke-dasharray="22.07 22.07"/>
<path d="M584.882 998.447L590.097 1009.23C591.302 1011.71 593.674 1013.05 596.255 1013.25C598.825 1013.44 601.63 1012.5 603.889 1010.46L615.392 1000.03C616.199 999.302 616.62 998.384 616.615 997.277C616.61 996.259 616.243 995.148 615.663 993.94C614.941 992.025 613.665 990.994 612.241 990.721C610.886 990.462 609.542 990.922 608.715 991.672L608.622 991.756L608.552 991.858L599.112 1005.45C598.669 1005.82 598.175 1005.95 597.779 1005.92C597.368 1005.89 597.094 1005.7 596.959 1005.42L590.47 992.004C590.074 991.186 589.941 990.199 590.125 989.148L590.492 987.056L589.421 986.868L590.492 987.056C590.732 985.688 591.776 984.392 593.162 983.765C593.218 983.751 593.274 983.737 593.33 983.722L594.264 983.477L617.563 977.855C619.48 977.392 621.014 975.554 620.875 973.574C620.842 973.113 620.667 972.532 620.463 971.992C620.247 971.423 619.959 970.793 619.632 970.202C619.309 969.619 618.926 969.032 618.514 968.577C618.308 968.349 618.067 968.124 617.796 967.951C617.531 967.782 617.165 967.616 616.731 967.622C616.442 967.625 616.149 967.661 615.856 967.731L615.788 967.747L615.723 967.772L593.043 976.38C592.599 976.489 592.162 976.622 591.734 976.777C589.341 977.312 586.98 977.273 584.86 976.682C584.81 976.668 584.759 976.655 584.709 976.643L562.129 971.446C561.836 971.378 561.54 971.35 561.248 971.356C561.142 971.353 560.872 971.296 560.372 971.135C560.211 971.083 560.015 971.016 559.805 970.945C559.477 970.834 559.118 970.712 558.808 970.617C558.279 970.456 557.654 970.292 557.089 970.283C556.544 970.273 555.63 970.421 555.242 971.353C555.019 971.888 554.944 972.527 554.943 973.124C554.943 973.738 555.021 974.397 555.169 975.017C555.314 975.63 555.539 976.255 555.859 976.775C556.164 977.27 556.66 977.834 557.408 978.009C557.409 978.009 557.41 978.009 557.411 978.009L581.855 983.811L581.86 983.812C582.835 984.039 583.426 984.892 583.226 986.031L582.733 988.841C582.548 989.894 582.053 990.954 581.289 991.883L570.054 1005.53C569.662 1006 569.137 1006.25 568.669 1006.3C568.204 1006.35 567.87 1006.19 567.683 1005.95L559.793 995.781C559.303 995.149 558.08 994.015 556.835 993.164C556.208 992.736 555.508 992.331 554.835 992.107C554.228 991.904 553.274 991.727 552.506 992.341L552.44 992.393L552.383 992.455C551.59 993.321 551.185 994.255 551.098 995.203C551.012 996.133 551.239 996.991 551.561 997.716C552.065 998.851 552.917 999.859 553.373 1000.4C553.474 1000.52 553.555 1000.61 553.609 1000.68L561.499 1010.85C563.18 1013.02 565.818 1013.87 568.436 1013.61C571.052 1013.35 573.723 1012 575.652 1009.66L584.882 998.447Z" fill="#5E6FDB" stroke="black" stroke-width="2.17444"/>
<path d="M583 995.148L588.215 1005.93C589.419 1008.42 591.792 1009.76 594.373 1009.95C596.943 1010.14 599.747 1009.2 602.007 1007.16L613.51 996.735C614.978 995.404 615.51 993.071 614.077 991.535C612.658 990.012 610.283 990.328 608.817 991.656L597.315 1002.08C596.851 1002.5 596.318 1002.65 595.897 1002.62C595.486 1002.59 595.212 1002.4 595.076 1002.12L588.588 988.706C588.192 987.887 588.059 986.9 588.243 985.85L588.61 983.757L587.539 983.569L588.61 983.757C588.85 982.389 589.894 981.093 591.28 980.467C591.336 980.452 591.392 980.438 591.448 980.423L591.172 979.371L591.448 980.423L592.382 980.178L615.681 974.556C617.598 974.093 619.132 972.256 618.993 970.276C618.865 968.461 617.389 967.293 615.682 967.32C615.395 967.323 615.103 967.359 614.811 967.429L591.23 973.064C590.762 973.176 590.302 973.315 589.852 973.478C587.459 974.013 585.098 973.974 582.978 973.383C582.928 973.369 582.877 973.356 582.827 973.344C582.827 973.344 582.827 973.344 582.827 973.344L560.247 968.147C559.952 968.079 559.654 968.051 559.36 968.057C557.713 968.064 556.1 969.157 555.438 970.744C555.044 971.688 555.034 972.698 555.423 973.561C555.817 974.433 556.589 975.081 557.591 975.313L579.978 980.513C580.953 980.74 581.543 981.593 581.344 982.732L580.851 985.543C580.666 986.595 580.171 987.656 579.407 988.584L568.172 1002.23C567.78 1002.7 567.255 1002.96 566.787 1003C566.321 1003.05 565.988 1002.89 565.801 1002.65L557.911 992.482C556.623 990.822 554.235 990.974 552.687 992.211C551.142 993.445 550.451 995.739 551.727 997.383L559.617 1007.55C561.298 1009.72 563.936 1010.57 566.554 1010.31C569.169 1010.06 571.841 1008.7 573.77 1006.36L583 995.148Z" fill="#B0B8ED" stroke="black" stroke-width="2.17444"/>
<path d="M571.384 976.777L580.08 974.458L571.094 972.429L562.978 974.748L571.384 976.777Z" fill="white" fill-opacity="0.3"/>
<circle cx="585.648" cy="987.648" r="48.5611" fill="white" fill-opacity="0.3" stroke="black" stroke-width="2.17444"/>
<path d="M559.933 957.803C559.492 963.029 556.804 964.228 554.84 963.029C552.877 961.83 552.986 958.072 555.084 954.635C557.183 951.198 560.476 949.384 562.44 950.584C564.403 951.783 564.224 954.635 559.933 957.803Z" fill="white"/>
<path d="M527.572 1284.62C527.136 1284.62 526.769 1284.78 526.504 1284.95C526.232 1285.12 525.992 1285.35 525.786 1285.58C525.373 1286.03 524.991 1286.62 524.668 1287.2C524.341 1287.79 524.052 1288.42 523.837 1288.99C523.633 1289.53 523.457 1290.11 523.425 1290.57C523.285 1292.55 524.82 1294.39 526.736 1294.85L550.036 1300.48L550.97 1300.72C551.026 1300.74 551.082 1300.75 551.138 1300.77C552.523 1301.39 553.567 1302.69 553.807 1304.06L554.174 1306.15C554.359 1307.2 554.226 1308.19 553.83 1309L547.341 1322.42C547.205 1322.7 546.932 1322.89 546.521 1322.92C546.125 1322.95 545.631 1322.82 545.188 1322.45L535.748 1308.86L535.677 1308.76L535.585 1308.67C534.757 1307.92 533.414 1307.46 532.059 1307.72C530.635 1307.99 529.359 1309.02 528.637 1310.94C528.056 1312.15 527.69 1313.26 527.685 1314.28C527.679 1315.38 528.101 1316.3 528.908 1317.03L540.41 1327.46C542.67 1329.5 545.475 1330.44 548.045 1330.25C550.625 1330.05 552.998 1328.71 554.202 1326.22L559.417 1315.45L568.647 1326.66C570.576 1329 573.248 1330.35 575.864 1330.61C578.482 1330.87 581.119 1330.02 582.8 1327.85L590.691 1317.68C590.745 1317.61 590.826 1317.52 590.926 1317.4C591.382 1316.86 592.234 1315.85 592.739 1314.72C593.061 1313.99 593.288 1313.13 593.202 1312.2C593.115 1311.25 592.71 1310.32 591.916 1309.46L591.859 1309.39L591.793 1309.34C591.026 1308.73 590.071 1308.9 589.464 1309.11C588.792 1309.33 588.091 1309.74 587.465 1310.16C586.22 1311.01 584.997 1312.15 584.506 1312.78L576.616 1322.95C576.429 1323.19 576.096 1323.35 575.63 1323.3C575.162 1323.25 574.637 1323 574.246 1322.53L563.011 1308.88C562.246 1307.95 561.752 1306.89 561.567 1305.84L561.074 1303.03C560.874 1301.89 561.465 1301.04 562.439 1300.81L562.444 1300.81L586.888 1295.01C586.889 1295.01 586.89 1295.01 586.891 1295.01C587.64 1294.83 588.135 1294.27 588.44 1293.77C588.761 1293.25 588.985 1292.63 589.131 1292.02C589.278 1291.4 589.357 1290.74 589.356 1290.12C589.356 1289.53 589.281 1288.89 589.058 1288.35C588.669 1287.42 587.755 1287.27 587.21 1287.28C586.646 1287.29 586.021 1287.46 585.492 1287.62C585.182 1287.71 584.822 1287.83 584.495 1287.94C584.285 1288.02 584.089 1288.08 583.927 1288.13C583.427 1288.3 583.158 1288.35 583.051 1288.36C582.76 1288.35 582.464 1288.38 582.17 1288.45L559.591 1293.64C559.54 1293.65 559.49 1293.67 559.44 1293.68C557.32 1294.27 554.958 1294.31 552.566 1293.78C552.138 1293.62 551.701 1293.49 551.257 1293.38L528.576 1284.77L528.511 1284.75L528.443 1284.73C528.151 1284.66 527.859 1284.62 527.572 1284.62ZM527.572 1284.62C527.573 1284.62 527.574 1284.62 527.576 1284.62L527.558 1285.71L527.569 1284.62C527.57 1284.62 527.571 1284.62 527.572 1284.62Z" fill="#5E6FDB" stroke="black" stroke-width="2.17444"/>
<path d="M525.307 1287.28L525.307 1287.28C525.168 1289.26 526.702 1291.09 528.619 1291.56L551.918 1297.18L552.852 1297.42L552.852 1297.42C552.908 1297.44 552.964 1297.45 553.02 1297.47C554.405 1298.09 555.45 1299.39 555.69 1300.76L556.057 1302.85C556.241 1303.9 556.108 1304.89 555.712 1305.71L549.223 1319.12C549.087 1319.4 548.814 1319.59 548.403 1319.62C547.982 1319.65 547.449 1319.5 546.985 1319.08L535.482 1308.66L534.752 1309.46L535.482 1308.66C534.017 1307.33 531.642 1307.01 530.223 1308.53C528.79 1310.07 529.322 1312.4 530.79 1313.73L542.293 1324.16C544.552 1326.2 547.357 1327.14 549.927 1326.95C552.508 1326.76 554.88 1325.42 556.085 1322.93L561.299 1312.15L570.53 1323.36C572.459 1325.7 575.13 1327.06 577.746 1327.31C580.364 1327.57 583.001 1326.72 584.683 1324.55L592.573 1314.38C593.849 1312.74 593.158 1310.45 591.612 1309.21C590.064 1307.97 587.677 1307.82 586.389 1309.48L578.498 1319.65C578.312 1319.89 577.978 1320.05 577.513 1320C577.045 1319.96 576.52 1319.7 576.128 1319.23L564.893 1305.58C564.128 1304.66 563.634 1303.6 563.449 1302.54L562.956 1299.73C562.756 1298.59 563.347 1297.74 564.322 1297.51L586.709 1292.31C587.711 1292.08 588.483 1291.43 588.877 1290.56C589.266 1289.7 589.255 1288.69 588.862 1287.74C588.2 1286.16 586.587 1285.06 584.94 1285.06C584.646 1285.05 584.348 1285.08 584.053 1285.15L561.473 1290.34C561.422 1290.36 561.372 1290.37 561.322 1290.38C559.202 1290.97 556.84 1291.01 554.448 1290.48C553.998 1290.31 553.538 1290.18 553.07 1290.06L529.489 1284.43L529.237 1285.48L529.489 1284.43C529.197 1284.36 528.905 1284.32 528.618 1284.32C526.911 1284.29 525.435 1285.46 525.307 1287.28Z" fill="#B0B8ED" stroke="black" stroke-width="2.17444"/>
<path d="M572.915 1293.78L564.219 1291.46L573.205 1289.43L581.322 1291.75L572.915 1293.78Z" fill="white" fill-opacity="0.3"/>
<circle r="48.5611" transform="matrix(-1 0 0 1 558.648 1304.65)" fill="white" fill-opacity="0.3" stroke="black" stroke-width="2.17444"/>
<path d="M584.371 1274.8C584.811 1280.03 587.499 1281.23 589.463 1280.03C591.427 1278.83 591.318 1275.07 589.219 1271.64C587.121 1268.2 583.827 1266.38 581.864 1267.58C579.9 1268.78 580.079 1271.64 584.371 1274.8Z" fill="white"/>
<path d="M425.3 858.119C424.843 858.112 424.453 858.286 424.164 858.471C423.868 858.66 423.604 858.907 423.373 859.162C422.911 859.672 422.479 860.333 422.112 860.996C421.741 861.667 421.413 862.382 421.169 863.028C420.935 863.644 420.742 864.292 420.706 864.797L420.706 864.797C420.552 866.98 422.25 869.025 424.382 869.539L451.104 875.988L452.177 876.269C452.245 876.287 452.313 876.305 452.382 876.322C454.021 877.058 455.262 878.589 455.548 880.219L456.619 880.031L455.548 880.219L455.969 882.619C456.185 883.854 456.03 885.02 455.56 885.992L448.119 901.373C447.934 901.754 447.565 902.001 447.046 902.04C446.543 902.077 445.929 901.906 445.387 901.452L434.548 885.845L434.477 885.743L434.385 885.66C433.472 884.832 431.981 884.32 430.479 884.608C428.906 884.909 427.482 886.048 426.671 888.205C426.007 889.586 425.598 890.836 425.592 891.97C425.586 893.192 426.049 894.203 426.942 895.012L427.672 894.206L426.942 895.012L440.134 906.965C442.695 909.286 445.869 910.34 448.77 910.124C451.682 909.907 454.347 908.398 455.7 905.602L461.789 893.016L472.533 906.064C474.719 908.718 477.744 910.253 480.701 910.542C483.661 910.832 486.627 909.872 488.515 907.438L497.564 895.776C497.63 895.691 497.727 895.577 497.845 895.436C498.372 894.813 499.325 893.684 499.893 892.408C500.255 891.593 500.506 890.637 500.411 889.605C500.314 888.555 499.866 887.517 498.978 886.547L498.921 886.485L498.855 886.432C498.042 885.783 497.02 885.962 496.334 886.191C495.583 886.442 494.794 886.896 494.081 887.384C492.662 888.353 491.273 889.643 490.724 890.351L481.675 902.013C481.421 902.341 480.98 902.533 480.403 902.476C479.823 902.419 479.183 902.109 478.707 901.532L465.822 885.885C464.929 884.8 464.349 883.559 464.132 882.322L463.567 879.099C463.324 877.716 464.048 876.652 465.254 876.372L465.259 876.37L493.293 869.717C493.294 869.716 493.295 869.716 493.296 869.716C494.094 869.529 494.633 868.925 494.973 868.373C495.329 867.795 495.582 867.096 495.746 866.403C495.912 865.704 496.001 864.961 496 864.269C496 863.595 495.914 862.886 495.67 862.3C495.263 861.324 494.305 861.16 493.701 861.17C493.078 861.181 492.38 861.362 491.775 861.547C491.42 861.656 491.014 861.793 490.642 861.919C490.4 862.001 490.173 862.078 489.983 862.14C489.41 862.324 489.078 862.399 488.929 862.401C488.605 862.395 488.278 862.426 487.954 862.5L462.059 868.461C462.003 868.474 461.948 868.488 461.893 868.503C459.431 869.19 456.692 869.234 453.922 868.612C453.43 868.434 452.928 868.281 452.418 868.156L426.398 858.281L426.333 858.256L426.265 858.24C425.941 858.163 425.618 858.122 425.3 858.119ZM425.3 858.119C425.302 858.119 425.303 858.119 425.304 858.119L425.286 859.206L425.298 858.119C425.299 858.119 425.3 858.119 425.3 858.119Z" fill="#5E6FDB" stroke="black" stroke-width="2.17444"/>
<path d="M464.053 864.729L464.345 865.777L464.053 864.729C461.591 865.416 458.852 865.46 456.082 864.838C455.568 864.652 455.043 864.493 454.509 864.366L427.465 857.903L427.465 857.903C427.142 857.826 426.819 857.785 426.501 857.782C424.621 857.753 423.006 859.035 422.866 861.023L422.866 861.023C422.712 863.207 424.41 865.251 426.542 865.766L453.264 872.214L454.337 872.495C454.405 872.513 454.474 872.531 454.542 872.548C456.181 873.285 457.422 874.815 457.708 876.445L458.779 876.258L457.708 876.445L458.129 878.846C458.346 880.08 458.19 881.247 457.72 882.218L450.279 897.599C450.094 897.98 449.725 898.227 449.206 898.266C448.676 898.305 448.023 898.113 447.461 897.604L434.269 885.65C432.632 884.167 430.011 883.839 428.461 885.502C426.897 887.179 427.462 889.752 429.102 891.238L442.294 903.191C444.855 905.512 448.029 906.566 450.93 906.35C453.842 906.134 456.507 904.624 457.86 901.828L463.949 889.243L474.693 902.29C476.879 904.945 479.904 906.479 482.862 906.768C485.821 907.058 488.787 906.098 490.675 903.665L499.724 892.003C501.118 890.206 500.375 887.672 498.649 886.293C496.92 884.912 494.29 884.766 492.884 886.578L483.835 898.24C483.581 898.567 483.14 898.759 482.563 898.702C481.983 898.645 481.343 898.335 480.867 897.758L467.983 882.111C467.089 881.026 466.509 879.785 466.292 878.549L465.727 875.325C465.484 873.942 466.208 872.878 467.414 872.598L493.089 866.634C494.19 866.378 495.035 865.668 495.465 864.714C495.892 863.769 495.883 862.657 495.447 861.611C494.711 859.847 492.917 858.634 491.094 858.628C490.769 858.62 490.44 858.651 490.114 858.726L464.219 864.687C464.164 864.7 464.108 864.714 464.053 864.729Z" fill="#B0B8ED" stroke="black" stroke-width="2.17444"/>
<path d="M477.303 868.468L467.329 865.809L477.635 863.482L486.943 866.141L477.303 868.468Z" fill="white" fill-opacity="0.3"/>
<circle r="55.8515" transform="matrix(-1 0 0 1 460.939 880.939)" fill="#D6DBFF" fill-opacity="0.3" stroke="black" stroke-width="2.17444"/>
<path d="M490.441 846.714C490.946 852.707 494.029 854.082 496.281 852.707C498.533 851.332 498.408 847.022 496.001 843.081C493.595 839.139 489.818 837.059 487.566 838.434C485.313 839.81 485.519 843.081 490.441 846.714Z" fill="white"/>
<path d="M651.585 288.028L651.483 288.063L651.389 288.117C648.752 289.64 646.147 290.995 643.58 292.187L643.388 292.275L643.244 292.43L370.604 583.572L370.469 583.715L370.394 583.897L338.572 660.442L337.681 659.923C336.399 659.176 334.516 658.079 332.117 656.681C327.317 653.885 320.448 649.885 312.171 645.068C295.615 635.433 273.425 622.529 250.883 609.45C205.833 583.311 159.297 556.426 153.644 553.618C140.184 546.93 131.551 531.055 131.551 507.536C131.551 470.116 153.463 425.83 183.339 399.048L184.08 398.384L183.484 397.587C176.012 387.598 171.649 373.228 171.649 355.043C171.649 328.428 180.999 298.864 196.168 272.592C211.336 246.319 232.264 223.44 255.313 210.133C258.614 208.227 261.867 206.57 265.062 205.156L265.506 204.959L265.656 204.496C289.688 130.274 342.501 57.9302 403.679 22.609C447.455 -2.66503 486.617 -3.87305 513.963 14.1761C529.965 24.7384 542.053 41.9691 548.687 65.1158L549.205 66.9238L550.513 65.5723C560.934 54.8055 572.275 45.6554 584.124 38.8147C611.018 23.2872 634.909 22.8739 651.312 34.2996L651.35 34.3262L651.39 34.3494L831.228 137.992V227.371L651.585 288.028Z" fill="#B0B8ED" stroke="black" stroke-width="2.17444"/>
<path d="M338.572 660.442L337.681 659.923L335.318 658.546L332.117 656.681C327.317 653.885 320.448 649.885 312.171 645.068C295.615 635.433 273.425 622.529 250.883 609.45C205.833 583.311 159.297 556.426 153.644 553.618C140.184 546.93 131.551 531.055 131.551 507.536C131.551 470.116 153.463 425.83 183.339 399.048L184.08 398.384L183.484 397.587C176.012 387.598 171.649 373.228 171.649 355.043C171.649 328.428 180.999 298.864 196.168 272.592C211.336 246.319 232.264 223.44 255.313 210.133C258.614 208.227 261.867 206.57 265.062 205.156L265.506 204.959L265.656 204.496C289.688 130.274 342.501 57.9302 403.679 22.609C447.455 -2.66503 486.617 -3.87305 513.963 14.1761L513.989 14.1934L514.016 14.2092L689.885 116.21L703.726 227.804L651.232 288.208C648.648 289.694 646.096 291.019 643.58 292.187L643.389 292.275L643.244 292.43L370.604 583.572L370.469 583.716L370.394 583.897L338.572 660.442Z" fill="#B0B8ED" stroke="black" stroke-width="2.17444"/>
<path d="M830.392 400.428L830.348 400.448L830.306 400.472L383.038 658.703V658.534L381.486 659.268C363.583 667.742 347.847 667.245 336.627 659.62C325.39 651.984 318.363 636.987 318.363 615.777C318.363 578.357 340.275 534.071 370.151 507.289L370.892 506.625L370.296 505.828C362.824 495.84 358.461 481.469 358.461 463.284C358.461 436.669 367.811 407.105 382.98 380.833C398.148 354.56 419.076 331.681 442.125 318.374C445.427 316.468 448.679 314.811 451.874 313.397L452.318 313.2L452.468 312.738C476.5 238.515 529.313 166.171 590.491 130.85C625.17 110.828 656.967 105.911 682.258 113.7C707.513 121.478 726.511 141.997 735.499 173.357L736.017 175.165L737.325 173.814C747.747 163.047 759.087 153.897 770.936 147.056C796.206 132.466 818.828 131.223 835.063 140.596C851.298 149.969 861.532 170.183 861.532 199.362C861.532 200.536 861.516 201.715 861.483 202.9L861.444 204.288L862.801 203.992C878.785 200.513 892.442 204.047 902.115 213.405C911.816 222.788 917.67 238.182 917.67 258.715C917.67 283.992 908.79 312.073 894.381 337.031C879.971 361.988 860.092 383.72 838.202 396.358C835.564 397.881 832.959 399.236 830.392 400.428Z" fill="#B0B8ED" stroke="black" stroke-width="2.17444"/>
<path d="M862.569 421.323L862.526 421.344L862.484 421.368L415.215 679.598V679.429L413.663 680.164C395.76 688.637 380.025 688.14 368.804 680.516C357.567 672.88 350.54 657.882 350.54 636.673C350.54 599.253 372.452 554.967 402.329 528.185L403.069 527.52L402.473 526.724C395.002 516.735 390.639 502.365 390.639 484.18C390.639 457.565 399.988 428.001 415.157 401.728C430.325 375.456 451.254 352.577 474.303 339.269C477.604 337.363 480.857 335.707 484.051 334.292L484.495 334.096L484.645 333.633C508.677 259.411 561.49 187.067 622.668 151.746C657.347 131.724 689.144 126.807 714.435 134.596C739.69 142.374 758.688 162.892 767.676 194.252L768.194 196.061L769.503 194.709C779.924 183.942 791.265 174.792 803.113 167.951C828.383 153.362 851.005 152.118 867.24 161.491C883.475 170.865 893.709 191.078 893.709 220.257C893.709 221.431 893.693 222.611 893.66 223.795L893.621 225.183L894.978 224.888C910.962 221.408 924.619 224.943 934.293 234.3C943.993 243.684 949.847 259.078 949.847 279.61C949.847 304.887 940.967 332.969 926.558 357.926C912.149 382.884 892.269 404.615 870.379 417.254C867.741 418.776 865.136 420.132 862.569 421.323Z" stroke="black" stroke-width="2.17444"/>
<path d="M546.4 719.135L546.334 719.11L546.267 719.094C545.853 718.995 545.441 718.944 545.038 718.939C544.518 718.932 544.062 719.13 543.705 719.358C543.342 719.59 543.008 719.899 542.707 720.232C542.105 720.896 541.533 721.769 541.04 722.66C540.543 723.558 540.103 724.517 539.777 725.379C539.462 726.213 539.215 727.052 539.171 727.681L539.171 727.681C538.976 730.441 541.138 733.074 543.883 733.737L580.335 742.533L581.802 742.918C581.905 742.945 582.008 742.971 582.111 742.997C584.471 744.045 586.273 746.245 586.689 748.62L587.76 748.432L586.689 748.62L587.264 751.894C587.572 753.651 587.353 755.327 586.673 756.734L576.523 777.714C576.2 778.379 575.56 778.784 574.733 778.845C573.925 778.906 572.968 778.624 572.145 777.918L557.332 756.588L557.261 756.486L557.169 756.402C556.011 755.353 554.103 754.694 552.18 755.063C550.188 755.444 548.341 756.892 547.276 759.736C546.376 761.607 545.844 763.254 545.836 764.718C545.829 766.269 546.411 767.542 547.548 768.572L548.244 767.804L547.548 768.572L565.541 784.876C568.959 787.973 573.183 789.369 577.025 789.083C580.879 788.796 584.377 786.805 586.151 783.138L594.725 765.415L609.773 783.688C612.689 787.229 616.72 789.27 620.647 789.654C624.577 790.039 628.478 788.763 630.954 785.572L643.296 769.665C643.397 769.536 643.538 769.368 643.709 769.166C644.434 768.306 645.677 766.833 646.424 765.152C646.9 764.082 647.22 762.847 647.098 761.527C646.975 760.188 646.404 758.851 645.246 757.587L645.189 757.525L645.123 757.472C644.181 756.72 642.965 756.905 642.057 757.209C641.083 757.534 640.041 758.131 639.081 758.787C637.169 760.094 635.309 761.827 634.592 762.751L622.249 778.658C621.803 779.233 621.057 779.528 620.163 779.44C619.266 779.352 618.297 778.877 617.583 778.01L600.009 756.667C598.751 755.14 597.928 753.385 597.619 751.625L596.848 747.229C596.483 745.15 597.585 743.488 599.449 743.055L599.454 743.054L637.694 733.977C637.695 733.977 637.696 733.977 637.697 733.977C638.636 733.758 639.298 733.038 639.739 732.322C640.195 731.582 640.526 730.671 640.744 729.752C640.964 728.828 641.081 727.844 641.08 726.933C641.079 726.039 640.966 725.13 640.661 724.399C640.201 723.298 639.117 723.089 638.347 723.102C637.557 723.115 636.65 723.347 635.828 723.598C635.345 723.746 634.809 723.928 634.309 724.098C633.978 724.21 633.663 724.317 633.389 724.405C632.612 724.656 632.101 724.778 631.829 724.781C631.417 724.772 631.001 724.811 630.59 724.905L595.27 733.036C595.2 733.052 595.13 733.07 595.061 733.089C591.627 734.047 587.815 734.103 583.971 733.237C583.298 732.992 582.611 732.783 581.914 732.613L546.4 719.135Z" fill="#5E6FDB" stroke="black" stroke-width="2.17444"/>
<path d="M598.007 727.927L598.299 728.974L598.007 727.927C594.573 728.885 590.761 728.942 586.917 728.075C586.222 727.822 585.512 727.607 584.791 727.435L547.904 718.62C547.49 718.521 547.078 718.47 546.675 718.465C544.299 718.428 542.292 720.037 542.117 722.519L542.117 722.519C541.923 725.28 544.084 727.912 546.829 728.575L583.282 737.371L584.748 737.756C584.851 737.783 584.955 737.81 585.058 737.836C587.417 738.883 589.219 741.083 589.636 743.458L590.707 743.27L589.636 743.458L590.21 746.732C590.518 748.489 590.3 750.165 589.619 751.572L579.469 772.552C579.147 773.218 578.506 773.622 577.679 773.684C576.842 773.746 575.845 773.442 575.003 772.679L557.01 756.375C554.884 754.449 551.566 754.086 549.643 756.149C547.707 758.226 548.366 761.482 550.494 763.41L568.487 779.714C571.905 782.811 576.129 784.207 579.972 783.921C583.825 783.635 587.323 781.643 589.097 777.976L597.672 760.253L612.719 778.527C615.635 782.068 619.666 784.108 623.594 784.493C627.523 784.877 631.424 783.601 633.9 780.41L646.243 764.504C647.971 762.276 647.083 759.058 644.842 757.268C642.598 755.475 639.279 755.346 637.538 757.589L625.195 773.496C624.749 774.071 624.003 774.366 623.109 774.278C622.213 774.19 621.243 773.715 620.529 772.848L602.955 751.506C601.697 749.978 600.874 748.223 600.565 746.464L599.794 742.067C599.429 739.988 600.531 738.326 602.395 737.893L637.415 729.759C638.799 729.437 639.85 728.55 640.386 727.362C640.918 726.183 640.913 724.782 640.356 723.445C639.411 721.18 637.101 719.626 634.778 719.619C634.365 719.61 633.948 719.649 633.536 719.744L598.216 727.874C598.146 727.89 598.076 727.908 598.007 727.927Z" fill="#B0B8ED" stroke="black" stroke-width="2.17444"/>
<path d="M615.972 732.651L602.369 729.023L616.426 725.849L629.122 729.476L615.972 732.651Z" fill="white" fill-opacity="0.3"/>
<circle r="76.5762" transform="matrix(-1 0 0 1 593.663 749.663)" fill="white" fill-opacity="0.3" stroke="black" stroke-width="2.17444"/>
<path d="M633.902 702.981C634.591 711.156 638.796 713.032 641.868 711.156C644.94 709.28 644.769 703.401 641.487 698.025C638.204 692.65 633.053 689.812 629.981 691.688C626.909 693.564 627.19 698.025 633.902 702.981Z" fill="white"/>
<path d="M496.927 1110.13L496.992 1110.11L497.06 1110.09C497.474 1109.99 497.886 1109.94 498.289 1109.94C498.808 1109.93 499.264 1110.13 499.621 1110.36C499.984 1110.59 500.319 1110.9 500.62 1111.23C501.221 1111.9 501.794 1112.77 502.287 1113.66C502.784 1114.56 503.223 1115.52 503.55 1116.38C503.865 1117.21 504.112 1118.05 504.156 1118.68L504.156 1118.68C504.35 1121.44 502.189 1124.07 499.444 1124.74L462.991 1133.53L461.525 1133.92C461.421 1133.94 461.318 1133.97 461.215 1134C458.856 1135.04 457.054 1137.24 456.637 1139.62L455.566 1139.43L456.637 1139.62L456.063 1142.89C455.755 1144.65 455.973 1146.33 456.654 1147.73L466.804 1168.71C467.126 1169.38 467.767 1169.78 468.594 1169.85C469.402 1169.91 470.359 1169.62 471.182 1168.92L485.995 1147.59L486.066 1147.49L486.158 1147.4C487.316 1146.35 489.224 1145.69 491.146 1146.06C493.139 1146.44 494.986 1147.89 496.05 1150.74C496.951 1152.61 497.483 1154.25 497.49 1155.72C497.498 1157.27 496.916 1158.54 495.779 1159.57L495.083 1158.8L495.779 1159.57L477.786 1175.88C474.368 1178.97 470.144 1180.37 466.301 1180.08C462.448 1179.8 458.95 1177.8 457.176 1174.14L448.601 1156.42L433.554 1174.69C430.638 1178.23 426.607 1180.27 422.679 1180.65C418.75 1181.04 414.849 1179.76 412.373 1176.57L400.03 1160.67C399.93 1160.54 399.788 1160.37 399.618 1160.17C398.892 1159.31 397.65 1157.83 396.903 1156.15C396.427 1155.08 396.106 1153.85 396.228 1152.53C396.352 1151.19 396.922 1149.85 398.081 1148.59L398.138 1148.52L398.204 1148.47C399.145 1147.72 400.361 1147.91 401.27 1148.21C402.243 1148.53 403.286 1149.13 404.245 1149.79C406.158 1151.09 408.018 1152.83 408.735 1153.75L421.077 1169.66C421.524 1170.23 422.27 1170.53 423.164 1170.44C424.06 1170.35 425.03 1169.88 425.743 1169.01L443.318 1147.67C444.576 1146.14 445.399 1144.39 445.708 1142.63L446.479 1138.23C446.844 1136.15 445.741 1134.49 443.877 1134.05L443.872 1134.05L405.633 1124.98C405.632 1124.98 405.631 1124.98 405.63 1124.98C404.691 1124.76 404.029 1124.04 403.588 1123.32C403.132 1122.58 402.8 1121.67 402.582 1120.75C402.363 1119.83 402.246 1118.84 402.247 1117.93C402.247 1117.04 402.361 1116.13 402.666 1115.4C403.125 1114.3 404.209 1114.09 404.98 1114.1C405.77 1114.11 406.676 1114.35 407.499 1114.6C407.981 1114.75 408.517 1114.93 409.017 1115.1C409.348 1115.21 409.663 1115.32 409.937 1115.41C410.715 1115.66 411.226 1115.78 411.498 1115.78C411.91 1115.77 412.326 1115.81 412.736 1115.91L448.057 1124.04C448.127 1124.05 448.197 1124.07 448.266 1124.09C451.7 1125.05 455.511 1125.1 459.356 1124.24C460.029 1123.99 460.715 1123.78 461.413 1123.61L496.927 1110.13Z" fill="#5E6FDB" stroke="black" stroke-width="2.17444"/>
<path d="M445.319 1118.93L445.027 1119.97L445.319 1118.93C448.754 1119.88 452.565 1119.94 456.41 1119.08C457.105 1118.82 457.814 1118.61 458.536 1118.43L495.423 1109.62C495.837 1109.52 496.248 1109.47 496.651 1109.47C499.028 1109.43 501.035 1111.04 501.21 1113.52L501.21 1113.52C501.404 1116.28 499.243 1118.91 496.498 1119.57L460.045 1128.37L458.578 1128.76C458.475 1128.78 458.372 1128.81 458.269 1128.84C455.909 1129.88 454.108 1132.08 453.691 1134.46L452.62 1134.27L453.691 1134.46L453.117 1137.73C452.808 1139.49 453.027 1141.17 453.708 1142.57L463.858 1163.55C464.18 1164.22 464.821 1164.62 465.647 1164.68C466.485 1164.75 467.481 1164.44 468.323 1163.68L486.317 1147.38C488.442 1145.45 491.76 1145.09 493.683 1147.15C495.62 1149.23 494.961 1152.48 492.833 1154.41L474.84 1170.71C471.422 1173.81 467.198 1175.21 463.355 1174.92C459.502 1174.63 456.004 1172.64 454.23 1168.98L445.655 1151.25L430.608 1169.53C427.692 1173.07 423.66 1175.11 419.733 1175.49C415.803 1175.88 411.903 1174.6 409.427 1171.41L397.084 1155.5C395.355 1153.28 396.244 1150.06 398.485 1148.27C400.729 1146.48 404.048 1146.35 405.789 1148.59L418.131 1164.5C418.578 1165.07 419.324 1165.37 420.218 1165.28C421.114 1165.19 422.083 1164.71 422.797 1163.85L440.372 1142.51C441.63 1140.98 442.453 1139.22 442.761 1137.46L443.533 1133.07C443.897 1130.99 442.795 1129.33 440.931 1128.89L405.911 1120.76C404.528 1120.44 403.477 1119.55 402.941 1118.36C402.409 1117.18 402.413 1115.78 402.971 1114.44C403.916 1112.18 406.225 1110.63 408.548 1110.62C408.961 1110.61 409.378 1110.65 409.79 1110.74L445.111 1118.87C445.181 1118.89 445.25 1118.91 445.319 1118.93Z" fill="#B0B8ED" stroke="black" stroke-width="2.17444"/>
<path d="M427.354 1123.65L440.958 1120.02L426.901 1116.85L414.205 1120.48L427.354 1123.65Z" fill="white" fill-opacity="0.3"/>
<circle cx="449.663" cy="1140.66" r="76.5762" fill="white" fill-opacity="0.3" stroke="black" stroke-width="2.17444"/>
<path d="M409.424 1093.98C408.736 1102.16 404.531 1104.03 401.459 1102.16C398.387 1100.28 398.557 1094.4 401.84 1089.03C405.123 1083.65 410.274 1080.81 413.346 1082.69C416.418 1084.56 416.137 1089.03 409.424 1093.98Z" fill="white"/>
<defs>
<linearGradient id="paint0_linear" x1="527.692" y1="592.225" x2="527.692" y2="1442.87" gradientUnits="userSpaceOnUse">
<stop offset="0.192708" stop-color="#D6DBFF" stop-opacity="0"/>
<stop offset="1" stop-color="#D6DBFF"/>
</linearGradient>
<linearGradient id="paint1_linear" x1="526.824" y1="626.434" x2="526.824" y2="1397.64" gradientUnits="userSpaceOnUse">
<stop offset="0.192708" stop-color="white" stop-opacity="0"/>
<stop offset="1" stop-color="white" stop-opacity="0.6"/>
</linearGradient>
</defs>
</svg>
