<svg width="345" height="524" viewBox="0 0 345 524" fill="none" xmlns="http://www.w3.org/2000/svg">
<rect width="205.193" height="193.178" rx="15.5369" transform="matrix(0.866025 -0.5 0.866025 0.5 0 427.324)" fill="#C4C4C4" stroke="black" stroke-width="0.6" stroke-linecap="round" stroke-linejoin="round"/>
<rect width="183.379" height="163.336" rx="15.5369" transform="matrix(0.866025 -0.5 0.866025 0.5 23.5127 430.447)" fill="#BDDCD8" stroke="black" stroke-width="0.6" stroke-linecap="round" stroke-linejoin="round"/>
<rect width="183.249" height="24.9826" rx="12.4913" transform="matrix(0.866025 -0.5 0.866025 0.5 36.7266 437.064)" fill="#F0EBE6" stroke="black" stroke-width="0.6" stroke-linecap="round" stroke-linejoin="round"/>
<rect width="182" height="66.9229" rx="15.5369" transform="matrix(0.866025 -0.5 0.866025 0.5 36.4697 437.213)" fill="black" fill-opacity="0.5"/>
<rect width="183.249" height="11.1721" rx="5.58604" transform="matrix(0.866025 -0.5 0.866025 0.5 42.4424 440.363)" fill="#FFB5B5" stroke="black" stroke-width="0.6" stroke-linecap="round" stroke-linejoin="round"/>
<path d="M175.462 65.3259L215.178 88.256L215.178 370.257L175.462 347.327L175.462 65.3259Z" fill="#C4C4C4" stroke="black" stroke-width="0.6" stroke-linecap="round" stroke-linejoin="round"/>
<path d="M195.383 89.3826L73.3274 160.068C57.3052 169.347 47.4404 186.459 47.4404 204.974L47.4404 443.802L195.383 357.998V89.3826Z" fill="url(#paint0_linear)"/>
<path d="M47.4404 443.802L47.4404 204.974C47.4404 186.459 57.3052 169.347 73.3274 160.068L195.383 89.3826V357.998" stroke="black" stroke-width="0.6" stroke-linecap="round" stroke-linejoin="round"/>
<path d="M186.965 61.0078L220.449 80.0687L95.0414 146.261C78.0217 155.244 67.3711 172.909 67.3711 192.154L67.3711 455.605L27.6551 432.675L27.6544 160.305C27.6543 146.435 35.0507 133.617 47.0597 126.676L160.526 61.0946C168.698 56.3715 178.762 56.3384 186.965 61.0078Z" fill="#EDEDED" stroke="black" stroke-width="0.6" stroke-linecap="round" stroke-linejoin="round"/>
<rect width="164.976" height="24.9826" rx="12.4913" transform="matrix(0.866025 -0.5 0.866025 0.5 43.293 144.935)" fill="#C7C7C7"/>
<path d="M95.0563 157.235L212.874 89.0629C213.946 88.4406 215.289 89.2141 215.289 90.4537V370.397L226.144 364.13V90.4537C226.144 80.8469 215.733 74.8525 207.424 79.6755L89.6069 147.848C75.8103 155.857 67.3193 170.604 67.3193 186.556L67.3193 455.608L78.1738 449.341L78.1738 186.556C78.1738 174.472 84.6056 163.302 95.0563 157.235Z" fill="white" stroke="black" stroke-width="0.6" stroke-linecap="round" stroke-linejoin="round"/>
<path d="M81.4785 308.26L194.714 189.082V240.761L81.4785 359.269V308.26Z" fill="url(#paint1_linear)"/>
<path d="M81.4785 389.344L194.312 270.156V292.211L81.4785 410.728V389.344Z" fill="url(#paint2_linear)"/>
<path d="M179.077 196.407L140.567 203.279L101.363 241.275L101.363 282.508C101.129 292.075 109.199 311.132 140.567 312.425C171.935 274.911 179.31 246.938 179.077 237.64L179.077 196.407Z" fill="#FFCA31" fill-opacity="0.31" stroke="black" stroke-width="0.6" stroke-linecap="round" stroke-linejoin="round"/>
<path d="M185.224 2.20274L52.3274 78.8878C46.0218 82.5263 40.9102 91.375 40.9102 98.652V138.444C40.9102 142.169 42.2499 144.761 44.4038 145.914L51.8524 150.434L200.364 5.76033L192.783 1.14257C190.77 0.249606 188.123 0.529742 185.224 2.20274Z" fill="#C4C4C4" stroke="black" stroke-width="0.6" stroke-linecap="round" stroke-linejoin="round"/>
<path d="M48.1172 101.646C48.1172 95.9831 52.0931 89.0966 56.9977 86.2649L192.958 7.76846C200.389 3.47805 206.413 6.95611 206.413 15.5369L206.413 51.7341C206.413 60.3149 200.389 70.7491 192.958 75.0395L61.5726 150.895C54.1414 155.185 48.1172 151.707 48.1172 143.126L48.1172 101.646Z" fill="#EDEDED" stroke="black" stroke-width="0.6" stroke-linecap="round" stroke-linejoin="round"/>
<rect width="171.563" height="56.9908" rx="7.76846" transform="matrix(0.866025 -0.5 2.20305e-08 1 52.9766 93.7263)" fill="black" stroke="black" stroke-width="0.6" stroke-linecap="round" stroke-linejoin="round"/>
<path d="M99.1749 96.8974L91.4749 101.343L91.4749 110.705L88.1504 112.624L88.1504 90.5324L100.305 83.515L100.305 86.6103L91.4749 91.7083L91.4749 98.2781L99.1749 93.8325L99.1749 96.8974ZM106.034 102.299L102.841 104.142L102.841 80.837L106.034 78.9935L106.034 102.299ZM115.784 96.9733C113.76 98.1416 112.118 98.3565 110.856 97.6181C109.604 96.8645 108.977 95.2638 108.977 92.8159L108.977 92.3607C108.977 90.7221 109.249 89.1037 109.792 87.5055C110.344 85.8921 111.115 84.4406 112.105 83.1509C113.095 81.8612 114.198 80.8648 115.416 80.1618C117.352 79.0441 118.846 78.8949 119.897 79.7142C120.957 80.5285 121.487 82.2405 121.487 84.8502L121.487 86.3371L112.197 91.7007C112.293 93.0005 112.683 93.8477 113.366 94.2422C114.058 94.6316 114.925 94.5254 115.968 93.9235C117.431 93.0789 118.622 91.7083 119.542 89.8117L121.263 90.7145C120.694 92.0244 119.932 93.2281 118.977 94.3256C118.031 95.4079 116.966 96.2905 115.784 96.9733ZM115.403 83.1281C114.527 83.6339 113.817 84.3976 113.274 85.4192C112.74 86.4358 112.398 87.6192 112.249 88.9696L118.333 85.4571L118.333 85.184C118.263 83.9904 117.978 83.2242 117.479 82.8853C116.98 82.5364 116.288 82.6173 115.403 83.1281ZM130.238 88.6282C128.214 89.7965 126.572 90.0115 125.31 89.2731C124.058 88.5195 123.431 86.9188 123.431 84.4709L123.431 84.0157C123.431 82.377 123.703 80.7586 124.246 79.1604C124.798 77.547 125.569 76.0955 126.559 74.8058C127.549 73.5161 128.652 72.5198 129.87 71.8168C131.806 70.6991 133.3 70.5499 134.351 71.3692C135.411 72.1835 135.941 73.8955 135.941 76.5052L135.941 77.9921L126.651 83.3557C126.747 84.6555 127.137 85.5026 127.82 85.8971C128.512 86.2866 129.379 86.1804 130.422 85.5785C131.885 84.7339 133.076 83.3633 133.996 81.4667L135.717 82.3695C135.148 83.6794 134.386 84.8831 133.431 85.9806C132.485 87.0629 131.421 87.9455 130.238 88.6282ZM129.857 74.7831C128.981 75.2888 128.271 76.0525 127.728 77.0742C127.194 78.0907 126.852 79.2742 126.703 80.6246L132.787 77.1121L132.787 76.839C132.717 75.6454 132.432 74.8792 131.933 74.5403C131.434 74.1913 130.742 74.2723 129.857 74.7831ZM142.432 60.8772L142.432 64.8677L144.942 63.4187L144.942 66.1498L142.432 67.5988L142.432 76.7631C142.432 77.3903 142.537 77.7848 142.747 77.9466C142.966 78.0933 143.352 78.0073 143.904 77.6887C144.271 77.4762 144.644 77.2107 145.02 76.8921L145.02 79.7446C144.293 80.397 143.593 80.9179 142.918 81.3074C140.465 82.7235 139.239 81.8688 139.239 78.7432L139.239 69.4423L136.9 70.7926L136.9 68.0615L139.239 66.7112L139.239 62.7207L142.432 60.8772ZM166.754 67.2422L153.89 74.6693L153.89 72.1354L160.263 60.4296C161.183 58.7151 161.835 57.3521 162.221 56.3406C162.615 55.3139 162.812 54.401 162.812 53.6019C162.812 52.5499 162.554 51.8494 162.037 51.5004C161.529 51.1464 160.841 51.2197 159.974 51.7204C158.94 52.3172 158.139 53.1442 157.569 54.2012C157 55.2582 156.715 56.4189 156.715 57.6833L153.522 59.5268C153.522 58.1815 153.785 56.821 154.31 55.4454C154.845 54.0545 155.603 52.7775 156.584 51.6142C157.574 50.4459 158.712 49.49 160 48.7466C161.857 47.6744 163.32 47.3709 164.389 47.8362C165.466 48.2863 166.005 49.4622 166.005 51.3639C166.005 52.4664 165.733 53.7814 165.19 55.3088C164.656 56.821 163.776 58.6999 162.549 60.9455L157.871 69.4271L166.754 64.2987L166.754 67.2422Z" fill="#FFCA31"/>
<path d="M107.884 119.667L163.094 29.4809L195.122 10.988L144.333 98.628L107.884 119.667Z" fill="url(#paint3_linear)"/>
<path d="M67.9502 142.716L123.161 52.53L138.035 44.0876L87.2471 131.728L67.9502 142.716Z" fill="url(#paint4_linear)"/>
<path d="M32.6222 243.086L61.7853 259.923V337.048L54.6071 341.783L32.6222 320.21L25.2598 247.51L32.6222 243.086Z" fill="#C4C4C4"/>
<path d="M61.7853 259.923L32.6222 243.086L25.2598 247.51L32.6222 320.21L54.6071 341.783L61.7853 337.048V259.923ZM61.7853 259.923L54.4731 264.595" stroke="black" stroke-width="0.6" stroke-linecap="round" stroke-linejoin="round"/>
<path d="M25.1934 247.777L54.3564 264.614L54.3564 341.739L25.1934 324.902L25.1934 247.777Z" fill="#EDEDED" stroke="black" stroke-width="0.6" stroke-linecap="round" stroke-linejoin="round"/>
<path d="M28.8945 256.129L50.6538 268.691L50.6538 333.386L28.8945 320.824L28.8945 256.129Z" fill="#C4C4C4" stroke="black" stroke-width="0.6" stroke-linecap="round" stroke-linejoin="round"/>
<path d="M31.0898 257.396L50.6547 268.692L50.6547 330.228L31.0898 318.932L31.0898 257.396Z" fill="black" stroke="black" stroke-width="0.6" stroke-linecap="round" stroke-linejoin="round"/>
<path d="M36.1074 420.882C36.1074 413.805 41.0759 410.937 47.2048 414.475C53.3337 418.014 58.3022 426.619 58.3022 433.696L58.3022 450.198L36.1074 437.384L36.1074 420.882Z" fill="#C4C4C4" stroke="black" stroke-width="0.6" stroke-linecap="round" stroke-linejoin="round"/>
<rect width="46.6158" height="6.54032" rx="3.27016" transform="matrix(0.866025 -0.5 2.20305e-08 1 129.156 135.572)" fill="#FF8484" stroke="black" stroke-width="0.6" stroke-linecap="round" stroke-linejoin="round"/>
<path d="M168.455 116.385L130.531 138.563L141.118 501.719L310.769 404.43L168.455 116.385Z" fill="url(#paint5_linear)"/>
<circle r="4.95822" transform="matrix(0.866025 0.5 -2.20305e-08 1 46.2461 425.402)" fill="#EDEDED" stroke="black" stroke-width="0.6" stroke-linecap="round" stroke-linejoin="round"/>
<path d="M171.251 482.991C169.609 482.043 168.673 481.062 168.443 480.049C168.206 479.033 168.728 478.155 170.01 477.415C171.14 476.763 172.447 476.463 173.932 476.516L168.472 473.364L170.867 471.981L186.004 480.721L183.836 481.973L182.614 481.404C182.765 482.318 182.243 483.12 181.047 483.81C179.799 484.531 178.284 484.825 176.504 484.692C174.73 484.556 172.979 483.989 171.251 482.991ZM173.853 481.728C174.937 482.354 175.991 482.724 177.016 482.837C178.041 482.944 178.938 482.775 179.707 482.331C180.686 481.766 180.965 481.1 180.545 480.334L175.991 477.705C174.697 477.466 173.561 477.629 172.582 478.195C171.806 478.642 171.517 479.166 171.714 479.765C171.905 480.361 172.618 481.015 173.853 481.728ZM193.395 476.681C191.878 477.557 190.17 477.994 188.271 477.99C186.372 477.978 184.628 477.514 183.038 476.596L182.742 476.425C181.678 475.811 180.932 475.145 180.505 474.428C180.078 473.703 180.002 472.992 180.278 472.294C180.554 471.596 181.149 470.984 182.062 470.456C183.514 469.618 185.098 469.239 186.812 469.319C188.534 469.394 190.242 469.922 191.937 470.9L192.903 471.458L185.935 475.481C186.888 475.947 187.877 476.18 188.902 476.18C189.933 476.177 190.84 475.949 191.622 475.498C192.719 474.864 193.169 474.092 192.972 473.182L195.495 473.148C195.705 473.762 195.629 474.379 195.268 474.997C194.907 475.608 194.282 476.169 193.395 476.681ZM183.974 471.572C183.317 471.951 183.015 472.391 183.067 472.892C183.127 473.389 183.511 473.906 184.22 474.445L188.783 471.811L188.606 471.708C187.752 471.276 186.934 471.05 186.152 471.031C185.364 471.008 184.638 471.189 183.974 471.572ZM199.929 469.176L194.558 463.469L197.032 462.041L203.999 470.331L201.92 471.532L187.532 467.526L190.015 466.092L199.929 469.176ZM211.745 465.859L209.351 467.242L198.688 461.085L201.082 459.703L211.745 465.859ZM195.771 459.572C195.403 459.359 195.212 459.117 195.199 458.844C195.192 458.567 195.406 458.303 195.839 458.053C196.273 457.802 196.73 457.679 197.209 457.683C197.689 457.687 198.113 457.795 198.481 458.007C198.842 458.216 199.026 458.459 199.033 458.736C199.033 459.009 198.816 459.27 198.382 459.521C197.948 459.771 197.495 459.896 197.022 459.896C196.549 459.889 196.132 459.781 195.771 459.572ZM217.028 460.829C217.626 460.484 217.948 460.097 217.994 459.669C218.04 459.24 217.819 458.87 217.333 458.559L219.59 457.256C220.227 457.654 220.641 458.132 220.832 458.69C221.016 459.244 220.943 459.809 220.615 460.386C220.286 460.962 219.738 461.472 218.969 461.916C217.478 462.777 215.812 463.181 213.973 463.128C212.133 463.075 210.362 462.557 208.661 461.575L208.414 461.432C206.792 460.496 205.928 459.496 205.823 458.434C205.711 457.368 206.404 456.403 207.902 455.538C209.17 454.806 210.573 454.425 212.11 454.394C213.647 454.356 215.037 454.673 216.279 455.344L214.022 456.647C213.385 456.31 212.672 456.141 211.883 456.141C211.102 456.137 210.408 456.31 209.804 456.659C209.029 457.106 208.713 457.615 208.858 458.184C208.996 458.749 209.633 459.363 210.77 460.027L211.154 460.249C212.31 460.917 213.381 461.296 214.367 461.387C215.352 461.47 216.239 461.285 217.028 460.829ZM229.82 455.652C228.302 456.528 226.594 456.964 224.695 456.96C222.796 456.949 221.052 456.484 219.462 455.566L219.166 455.396C218.102 454.781 217.356 454.115 216.929 453.398C216.502 452.674 216.427 451.963 216.703 451.265C216.978 450.567 217.573 449.954 218.486 449.427C219.938 448.589 221.522 448.209 223.236 448.289C224.958 448.365 226.666 448.892 228.361 449.871L229.327 450.428L222.359 454.451C223.312 454.918 224.301 455.151 225.326 455.151C226.357 455.147 227.264 454.92 228.046 454.468C229.143 453.835 229.593 453.063 229.396 452.152L231.919 452.118C232.129 452.733 232.053 453.349 231.692 453.967C231.331 454.578 230.707 455.14 229.82 455.652ZM220.398 450.542C219.741 450.922 219.439 451.362 219.492 451.862C219.551 452.359 219.935 452.877 220.645 453.416L225.207 450.781L225.03 450.679C224.176 450.246 223.358 450.021 222.576 450.002C221.788 449.979 221.062 450.159 220.398 450.542ZM233.653 442.241C233.528 441.266 234.064 440.433 235.26 439.743C237.533 438.431 239.983 438.514 242.611 439.993L249.579 444.016L247.184 445.399L240.305 441.427C239.569 441.002 238.889 440.796 238.265 440.807C237.641 440.811 237.02 440.991 236.403 441.348C235.443 441.901 235.154 442.561 235.535 443.328L243.153 447.726L240.759 449.108L225.621 440.369L228.016 438.986L233.653 442.241ZM256.901 440.016C255.383 440.892 253.675 441.329 251.777 441.325C249.878 441.313 248.133 440.849 246.544 439.931L246.248 439.76C245.184 439.146 244.438 438.48 244.011 437.763C243.584 437.038 243.508 436.327 243.784 435.629C244.06 434.931 244.655 434.319 245.568 433.791C247.02 432.953 248.603 432.574 250.318 432.653C252.039 432.729 253.748 433.257 255.443 434.235L256.408 434.793L249.441 438.816C250.394 439.282 251.382 439.515 252.407 439.515C253.439 439.512 254.345 439.284 255.127 438.833C256.224 438.199 256.674 437.427 256.477 436.517L259 436.483C259.21 437.097 259.135 437.714 258.774 438.332C258.412 438.943 257.788 439.504 256.901 440.016ZM247.48 434.907C246.823 435.286 246.521 435.726 246.573 436.227C246.632 436.724 247.017 437.241 247.726 437.78L252.289 435.146L252.112 435.043C251.257 434.611 250.44 434.385 249.658 434.366C248.869 434.343 248.143 434.524 247.48 434.907ZM259.956 428.238C259.588 428.39 259.237 428.563 258.902 428.756C257.805 429.389 257.486 430.059 257.946 430.764L265.238 434.975L262.844 436.358L252.181 430.201L254.467 428.881L255.719 429.535C255.37 428.667 255.709 427.937 256.734 427.345C257.075 427.148 257.404 427.011 257.719 426.935L259.956 428.238ZM274.64 429.774C273.122 430.651 271.414 431.087 269.516 431.083C267.617 431.072 265.872 430.607 264.283 429.689L263.987 429.518C262.923 428.904 262.177 428.238 261.75 427.521C261.323 426.797 261.247 426.086 261.523 425.388C261.799 424.69 262.394 424.077 263.307 423.55C264.759 422.712 266.342 422.332 268.057 422.412C269.778 422.488 271.487 423.015 273.182 423.994L274.147 424.551L267.18 428.574C268.133 429.04 269.121 429.274 270.146 429.274C271.178 429.27 272.084 429.042 272.866 428.591C273.963 427.958 274.413 427.186 274.216 426.275L276.739 426.241C276.95 426.856 276.874 427.472 276.513 428.09C276.151 428.701 275.527 429.262 274.64 429.774ZM265.219 424.665C264.562 425.044 264.26 425.484 264.312 425.985C264.371 426.482 264.756 427 265.465 427.538L270.028 424.904L269.851 424.802C268.997 424.369 268.179 424.143 267.397 424.124C266.608 424.102 265.882 424.282 265.219 424.665Z" fill="white"/>
<path fill-rule="evenodd" clip-rule="evenodd" d="M40.5556 285.598C38.1373 284.202 36.1768 285.334 36.1768 288.126L36.1768 290.21L35.9224 290.063C34.7334 289.376 33.7695 289.933 33.7695 291.306L33.7695 297.644C33.7695 299.017 34.7334 300.687 35.9224 301.373L45.2303 306.747C46.4193 307.434 47.3832 306.877 47.3832 305.504L47.3832 299.166C47.3832 297.793 46.4193 296.123 45.2303 295.437L44.9344 295.266L44.9344 293.182C44.9344 290.39 42.9739 286.994 40.5556 285.598ZM43.5232 294.451L43.5232 292.368C43.5232 290.475 42.1946 288.174 40.5556 287.228C38.9166 286.281 37.588 287.048 37.588 288.941L37.588 291.024L43.5232 294.451ZM39.7474 297.279C39.7474 296.737 40.1283 296.517 40.5982 296.788C41.0682 297.059 41.4491 297.719 41.4491 298.262L41.4491 301.185C41.4491 301.728 41.0682 301.948 40.5982 301.676C40.1283 301.405 39.7474 300.745 39.7474 300.203L39.7474 297.279Z" fill="#FF8484"/>
<path d="M233.528 90.6224L235.715 98.7826L222.915 102.212C220.661 102.816 218.345 101.479 217.741 99.2256C217.137 96.9722 218.475 94.656 220.728 94.0522L233.528 90.6224Z" fill="#EDEDED" stroke="black" stroke-width="0.579832"/>
<mask id="path-33-inside-1" fill="white">
<path fill-rule="evenodd" clip-rule="evenodd" d="M267.449 84.0951C267.462 84.0523 267.474 84.0093 267.486 83.966C268.765 79.1927 262.615 73.3977 253.751 71.0225C244.886 68.6472 236.663 70.5911 235.384 75.3643L235.382 75.3639L226.715 107.712L258.816 116.314L267.449 84.0951Z"/>
</mask>
<path fill-rule="evenodd" clip-rule="evenodd" d="M267.449 84.0951C267.462 84.0523 267.474 84.0093 267.486 83.966C268.765 79.1927 262.615 73.3977 253.751 71.0225C244.886 68.6472 236.663 70.5911 235.384 75.3643L235.382 75.3639L226.715 107.712L258.816 116.314L267.449 84.0951Z" fill="white"/>
<path d="M267.449 84.0951L266.893 83.9298L266.891 83.9374L266.889 83.9451L267.449 84.0951ZM235.384 75.3643L235.234 75.9244L235.794 76.0745L235.944 75.5144L235.384 75.3643ZM235.382 75.3639L235.533 74.8038L234.972 74.6537L234.822 75.2138L235.382 75.3639ZM226.715 107.712L226.155 107.562L226.005 108.122L226.565 108.272L226.715 107.712ZM258.816 116.314L258.666 116.874L259.226 117.024L259.376 116.464L258.816 116.314ZM266.926 83.8159C266.915 83.8541 266.905 83.8921 266.893 83.9298L268.005 84.2604C268.019 84.2125 268.033 84.1644 268.046 84.116L266.926 83.8159ZM253.601 71.5825C257.959 72.7503 261.621 74.7525 264.024 77.0169C266.447 79.2998 267.484 81.734 266.926 83.8159L268.046 84.116C268.767 81.4247 267.368 78.5747 264.82 76.173C262.252 73.7528 258.407 71.6699 253.901 70.4624L253.601 71.5825ZM235.944 75.5144C236.502 73.4326 238.617 71.8428 241.856 71.077C245.07 70.3174 249.243 70.4148 253.601 71.5825L253.901 70.4624C249.394 69.2549 245.024 69.1366 241.59 69.9484C238.182 70.7541 235.545 72.5229 234.824 75.2142L235.944 75.5144ZM235.232 75.9239L235.234 75.9244L235.534 74.8043L235.533 74.8038L235.232 75.9239ZM227.275 107.862L235.943 75.5139L234.822 75.2138L226.155 107.562L227.275 107.862ZM258.966 115.754L226.865 107.152L226.565 108.272L258.666 116.874L258.966 115.754ZM266.889 83.9451L258.256 116.164L259.376 116.464L268.009 84.2452L266.889 83.9451Z" fill="black" mask="url(#path-33-inside-1)"/>
<path d="M258.538 116.24C257.939 118.474 255.694 120.109 252.413 120.885C249.144 121.657 244.922 121.555 240.526 120.377C236.131 119.199 232.423 117.177 229.979 114.874C227.525 112.561 226.398 110.023 226.996 107.789C227.595 105.554 229.84 103.92 233.122 103.144C236.39 102.371 240.613 102.474 245.008 103.652C249.403 104.829 253.111 106.852 255.555 109.155C258.009 111.468 259.137 114.006 258.538 116.24Z" fill="#EDEDED" stroke="black" stroke-width="0.579832"/>
<mask id="path-36-inside-2" fill="white">
<path fill-rule="evenodd" clip-rule="evenodd" d="M253.216 115.744L253.217 115.744L252.059 120.07L248.521 119.122C246.319 119.546 243.57 119.429 240.745 118.672C237.919 117.915 235.521 116.653 233.87 115.196L230.432 114.275L231.566 110.044C231.567 110.04 231.568 110.036 231.569 110.033C231.57 110.029 231.571 110.025 231.572 110.021L231.591 109.95L231.592 109.95C232.517 106.825 237.915 105.552 243.835 107.138C249.755 108.724 253.975 112.575 253.216 115.744Z"/>
</mask>
<path fill-rule="evenodd" clip-rule="evenodd" d="M253.216 115.744L253.217 115.744L252.059 120.07L248.521 119.122C246.319 119.546 243.57 119.429 240.745 118.672C237.919 117.915 235.521 116.653 233.87 115.196L230.432 114.275L231.566 110.044C231.567 110.04 231.568 110.036 231.569 110.033C231.57 110.029 231.571 110.025 231.572 110.021L231.591 109.95L231.592 109.95C232.517 106.825 237.915 105.552 243.835 107.138C249.755 108.724 253.975 112.575 253.216 115.744Z" fill="#C4C4C4"/>
<path d="M253.216 115.744L252.652 115.609L252.521 116.158L253.066 116.304L253.216 115.744ZM253.217 115.744L253.778 115.894L253.928 115.334L253.368 115.184L253.217 115.744ZM252.059 120.07L251.908 120.63L252.469 120.78L252.619 120.22L252.059 120.07ZM248.521 119.122L248.671 118.561L248.542 118.527L248.411 118.552L248.521 119.122ZM233.87 115.196L234.254 114.761L234.152 114.671L234.021 114.636L233.87 115.196ZM230.432 114.275L229.872 114.125L229.722 114.685L230.282 114.835L230.432 114.275ZM231.566 110.044L232.126 110.194L232.127 110.192L231.566 110.044ZM231.572 110.021L232.132 110.173L232.132 110.171L231.572 110.021ZM231.591 109.95L231.741 109.389L231.181 109.239L231.031 109.799L231.591 109.95ZM231.592 109.95L231.442 110.51L231.988 110.656L232.148 110.114L231.592 109.95ZM253.066 116.304L253.067 116.304L253.368 115.184L253.366 115.184L253.066 116.304ZM252.657 115.594L251.498 119.919L252.619 120.22L253.778 115.894L252.657 115.594ZM252.209 119.509L248.671 118.561L248.371 119.682L251.908 120.63L252.209 119.509ZM248.411 118.552C246.309 118.958 243.65 118.85 240.895 118.112L240.594 119.232C243.491 120.008 246.329 120.135 248.63 119.691L248.411 118.552ZM240.895 118.112C238.139 117.374 235.827 116.149 234.254 114.761L233.487 115.631C235.216 117.157 237.698 118.456 240.594 119.232L240.895 118.112ZM234.021 114.636L230.582 113.715L230.282 114.835L233.72 115.756L234.021 114.636ZM230.992 114.425L232.126 110.194L231.006 109.894L229.872 114.125L230.992 114.425ZM232.127 110.192C232.127 110.189 232.128 110.186 232.129 110.183L231.009 109.883C231.008 109.887 231.007 109.891 231.005 109.896L232.127 110.192ZM232.129 110.183C232.13 110.18 232.131 110.176 232.132 110.173L231.013 109.869C231.011 109.874 231.01 109.878 231.009 109.883L232.129 110.183ZM232.132 110.171L232.151 110.1L231.031 109.799L231.012 109.871L232.132 110.171ZM231.441 110.51L231.442 110.51L231.742 109.39L231.741 109.389L231.441 110.51ZM232.148 110.114C232.524 108.846 233.852 107.833 235.971 107.342C238.066 106.857 240.798 106.925 243.685 107.698L243.985 106.578C240.952 105.766 238.025 105.676 235.71 106.213C233.419 106.743 231.586 107.929 231.036 109.785L232.148 110.114ZM243.685 107.698C246.572 108.472 249.019 109.792 250.638 111.275C252.281 112.779 252.958 114.332 252.652 115.609L253.78 115.879C254.233 113.987 253.18 112.03 251.422 110.42C249.641 108.789 247.018 107.391 243.985 106.578L243.685 107.698Z" fill="black" mask="url(#path-36-inside-2)"/>
<path d="M251.826 119.813C251.426 121.306 249.944 122.423 247.743 122.964C245.554 123.502 242.722 123.448 239.774 122.658C236.826 121.868 234.348 120.499 232.721 118.938C231.085 117.369 230.36 115.662 230.76 114.169C231.16 112.676 232.642 111.56 234.843 111.019C237.032 110.48 239.863 110.534 242.811 111.324C245.759 112.114 248.238 113.483 249.865 115.044C251.5 116.613 252.226 118.32 251.826 119.813Z" fill="#E6EAEB" stroke="black" stroke-width="0.579832"/>
<mask id="path-39-inside-3" fill="white">
<path fill-rule="evenodd" clip-rule="evenodd" d="M250.883 120.244L247.527 132.768L228.244 127.602L231.603 115.068L231.603 115.068C232.364 112.228 237.297 111.083 242.622 112.509C247.947 113.936 251.646 117.395 250.885 120.235C250.885 120.238 250.884 120.241 250.883 120.244Z"/>
</mask>
<path fill-rule="evenodd" clip-rule="evenodd" d="M250.883 120.244L247.527 132.768L228.244 127.602L231.603 115.068L231.603 115.068C232.364 112.228 237.297 111.083 242.622 112.509C247.947 113.936 251.646 117.395 250.885 120.235C250.885 120.238 250.884 120.241 250.883 120.244Z" fill="#EDEDED"/>
<path d="M250.883 120.244L250.323 120.092L250.323 120.094L250.883 120.244ZM247.527 132.768L247.377 133.329L247.937 133.479L248.087 132.919L247.527 132.768ZM228.244 127.602L227.684 127.452L227.534 128.012L228.094 128.162L228.244 127.602ZM231.603 115.068L231.753 114.508L231.193 114.358L231.043 114.918L231.603 115.068ZM231.603 115.068L231.453 115.628L232.013 115.778L232.163 115.218L231.603 115.068ZM250.323 120.094L246.967 132.618L248.087 132.919L251.443 120.394L250.323 120.094ZM247.677 132.208L228.394 127.042L228.094 128.162L247.377 133.329L247.677 132.208ZM228.804 127.752L232.163 115.218L231.043 114.918L227.684 127.452L228.804 127.752ZM231.453 115.628L231.453 115.628L231.753 114.508L231.753 114.508L231.453 115.628ZM232.163 115.218C232.461 114.106 233.62 113.197 235.532 112.754C237.416 112.316 239.883 112.376 242.472 113.069L242.772 111.949C240.036 111.216 237.374 111.135 235.27 111.624C233.193 112.106 231.506 113.19 231.043 114.918L232.163 115.218ZM242.472 113.069C245.061 113.763 247.227 114.945 248.64 116.266C250.073 117.606 250.623 118.972 250.325 120.085L251.445 120.385C251.908 118.657 250.989 116.874 249.432 115.419C247.854 113.944 245.508 112.682 242.772 111.949L242.472 113.069ZM250.325 120.085C250.325 120.087 250.324 120.09 250.323 120.092L251.443 120.396C251.443 120.392 251.444 120.389 251.445 120.385L250.325 120.085Z" fill="black" mask="url(#path-39-inside-3)"/>
<path d="M247.29 132.533C246.937 133.848 245.63 134.838 243.672 135.319C241.726 135.797 239.207 135.75 236.583 135.047C233.958 134.344 231.753 133.125 230.307 131.738C228.852 130.342 228.215 128.831 228.567 127.516C228.92 126.201 230.227 125.211 232.185 124.73C234.131 124.251 236.65 124.298 239.274 125.002C241.899 125.705 244.104 126.923 245.55 128.311C247.005 129.706 247.642 131.218 247.29 132.533Z" fill="#C4C4C4" stroke="black" stroke-width="0.579832"/>
<path d="M244.719 131.844C244.515 132.606 243.651 133.202 242.236 133.465C240.844 133.723 239.02 133.633 237.1 133.119C235.18 132.604 233.555 131.77 232.478 130.85C231.384 129.915 230.934 128.967 231.139 128.205C231.343 127.443 232.206 126.846 233.622 126.584C235.014 126.325 236.838 126.415 238.758 126.93C240.678 127.444 242.303 128.279 243.379 129.198C244.474 130.133 244.923 131.082 244.719 131.844Z" fill="#FF8484" stroke="black" stroke-width="0.579832"/>
<defs>
<linearGradient id="paint0_linear" x1="217.36" y1="360.946" x2="140.708" y2="112.23" gradientUnits="userSpaceOnUse">
<stop stop-color="#FF8484" stop-opacity="0.8"/>
<stop offset="1" stop-color="#FF8484" stop-opacity="0.3"/>
</linearGradient>
<linearGradient id="paint1_linear" x1="194.775" y1="217.569" x2="72.5658" y2="323.963" gradientUnits="userSpaceOnUse">
<stop stop-color="white" stop-opacity="0.4"/>
<stop offset="1" stop-color="white" stop-opacity="0"/>
</linearGradient>
<linearGradient id="paint2_linear" x1="194.373" y1="293.686" x2="92.5813" y2="400.593" gradientUnits="userSpaceOnUse">
<stop stop-color="white" stop-opacity="0.4"/>
<stop offset="1" stop-color="white" stop-opacity="0"/>
</linearGradient>
<linearGradient id="paint3_linear" x1="195.169" y1="29.1797" x2="116.472" y2="111.836" gradientUnits="userSpaceOnUse">
<stop stop-color="white" stop-opacity="0.4"/>
<stop offset="1" stop-color="white" stop-opacity="0"/>
</linearGradient>
<linearGradient id="paint4_linear" x1="138.083" y1="62.2792" x2="59.3861" y2="144.935" gradientUnits="userSpaceOnUse">
<stop stop-color="white" stop-opacity="0.4"/>
<stop offset="1" stop-color="white" stop-opacity="0"/>
</linearGradient>
<linearGradient id="paint5_linear" x1="151.302" y1="126.301" x2="205.282" y2="404.683" gradientUnits="userSpaceOnUse">
<stop offset="0.177083" stop-color="#FF8484" stop-opacity="0.8"/>
<stop offset="0.645833" stop-color="#FF8484" stop-opacity="0"/>
</linearGradient>
</defs>
</svg>
