<svg width="401" height="609" viewBox="0 0 401 609" fill="none" xmlns="http://www.w3.org/2000/svg">

<style>
@keyframes pulsate {
  0% { opacity: 0; }
  50% { opacity: 1; }
  100% { opacity: 1; }
}

#scanner-light {
  animation: 2s ease-in-out 0ms infinite alternate pulsate;
}
</style>

<g id="security-gate">
<g id="Group 1589">
<g id="Group 1609">
<g id="Group 1588">
<g id="Group 1586">
<rect id="Rectangle 1698" width="238.323" height="224.369" rx="18.0455" transform="matrix(0.866025 -0.5 0.866025 0.5 0.258789 496.627)" fill="#C4C4C4" stroke="black" stroke-width="0.696875" stroke-linecap="round" stroke-linejoin="round"/>
<rect id="Rectangle 1711" width="212.987" height="189.708" rx="18.0455" transform="matrix(0.866025 -0.5 0.866025 0.5 27.5679 500.254)" fill="#BDDCD8" stroke="black" stroke-width="0.696875" stroke-linecap="round" stroke-linejoin="round"/>
<rect id="Rectangle 1694" width="212.837" height="29.0162" rx="14.5081" transform="matrix(0.866025 -0.5 0.866025 0.5 42.915 507.94)" fill="#F0EBE6" stroke="black" stroke-width="0.696875" stroke-linecap="round" stroke-linejoin="round"/>
<rect id="Rectangle 1723" width="211.385" height="77.7282" rx="18.0455" transform="matrix(0.866025 -0.5 0.866025 0.5 42.6172 508.112)" fill="black" fill-opacity="0.5"/>
<rect id="Rectangle 1697" width="212.837" height="12.9759" rx="6.48796" transform="matrix(0.866025 -0.5 0.866025 0.5 49.5537 511.771)" fill="#FFB5B5" stroke="black" stroke-width="0.696875" stroke-linecap="round" stroke-linejoin="round"/>
<path id="Rectangle 1687" d="M204.05 76.1814L250.179 102.814L250.179 430.346L204.05 403.714L204.05 76.1814Z" fill="#C4C4C4" stroke="black" stroke-width="0.696875" stroke-linecap="round" stroke-linejoin="round"/>
<path id="Union" d="M227.188 104.122L85.4255 186.221C66.8164 196.998 55.3589 216.873 55.3589 238.377L55.3589 515.766L227.188 416.108V104.122Z" fill="url(#paint0_linear)"/>
<path id="Union_2" d="M55.3589 515.766L55.3589 238.377C55.3589 216.873 66.8164 196.998 85.4255 186.221L227.188 104.122V416.108" stroke="black" stroke-width="0.696875" stroke-linecap="round" stroke-linejoin="round"/>
<path id="Union_3" d="M217.411 71.1662L256.301 93.3047L110.645 170.184C90.8775 180.618 78.5073 201.135 78.5073 223.487L78.5073 529.475L32.3788 502.843L32.378 186.496C32.378 170.386 40.9686 155.499 54.9164 147.437L186.703 71.267C196.195 65.7813 207.884 65.7429 217.411 71.1662Z" fill="#EDEDED" stroke="black" stroke-width="0.696875" stroke-linecap="round" stroke-linejoin="round"/>
<rect id="Rectangle 1708" width="191.613" height="29.0162" rx="14.5081" transform="matrix(0.866025 -0.5 0.866025 0.5 50.5415 168.644)" fill="#C7C7C7"/>
<path id="Subtract" d="M110.663 182.93L247.503 103.751C248.748 103.028 250.309 103.927 250.309 105.366V430.508L262.916 423.23V105.366C262.916 94.2085 250.824 87.2462 241.174 92.8479L104.334 172.027C88.3097 181.329 78.4478 198.457 78.4478 216.986L78.4478 529.477L91.0548 522.199L91.0548 216.986C91.0548 202.951 98.525 189.977 110.663 182.93Z" fill="white" stroke="black" stroke-width="0.696875" stroke-linecap="round" stroke-linejoin="round"/>
<path id="Vector 411" d="M94.8926 358.339L226.41 219.919V279.942L94.8926 417.585V358.339Z" fill="url(#paint1_linear)"/>
<path id="Vector 412" d="M94.8926 452.515L225.943 314.083V339.698L94.8926 477.352V452.515Z" fill="url(#paint2_linear)"/>
<path id="Vector" d="M208.249 228.427L163.522 236.408L117.987 280.539L117.987 328.43C117.716 339.541 127.089 361.675 163.522 363.177C199.954 319.606 208.52 287.116 208.249 276.317L208.249 228.427Z" fill="#FFCA31" fill-opacity="0.31" stroke="black" stroke-width="0.696875" stroke-linecap="round" stroke-linejoin="round"/>
<g id="Group 1583">
<path id="Rectangle 1703" d="M215.389 2.86648L61.0355 91.933C53.7119 96.1589 47.7749 106.436 47.7749 114.888V161.105C47.7749 165.432 49.331 168.442 51.8326 169.782L60.4839 175.031L232.974 6.99847L224.169 1.63513C221.831 0.597991 218.756 0.923357 215.389 2.86648Z" fill="#C4C4C4" stroke="black" stroke-width="0.696875" stroke-linecap="round" stroke-linejoin="round"/>
<path id="Rectangle 1702" d="M56.145 118.366C56.145 111.789 60.7629 103.79 66.4594 100.501L224.371 9.33093C233.002 4.34781 239.999 8.38743 239.999 18.3537L239.999 60.3952C239.999 70.3614 233.002 82.4803 224.371 87.4634L71.7729 175.566C63.1418 180.549 56.145 176.51 56.145 166.543L56.145 118.366Z" fill="#EDEDED" stroke="black" stroke-width="0.696875" stroke-linecap="round" stroke-linejoin="round"/>
<rect id="Rectangle 1704" width="199.264" height="66.1925" rx="9.02275" transform="matrix(0.866025 -0.5 2.20305e-08 1 61.7896 109.167)" fill="black" stroke="black" stroke-width="0.696875" stroke-linecap="round" stroke-linejoin="round"/>
<path id="Fleet 2" d="M115.447 112.715L106.504 117.879L106.504 128.752L102.642 130.981L102.642 105.322L116.759 97.172L116.759 100.767L106.504 106.688L106.504 114.319L115.447 109.155L115.447 112.715ZM123.413 118.989L119.705 121.13L119.705 94.0617L123.413 91.9205L123.413 118.989ZM134.738 112.803C132.387 114.16 130.48 114.41 129.014 113.552C127.56 112.677 126.832 110.818 126.832 107.975L126.832 107.446C126.832 105.543 127.147 103.663 127.778 101.807C128.419 99.9329 129.315 98.247 130.464 96.7491C131.614 95.2512 132.896 94.094 134.31 93.2774C136.559 91.9793 138.294 91.806 139.514 92.7576C140.746 93.7033 141.361 95.6917 141.361 98.7228L141.361 100.45L130.571 106.679C130.683 108.189 131.136 109.173 131.929 109.631C132.733 110.083 133.74 109.96 134.951 109.261C136.65 108.28 138.034 106.688 139.102 104.485L141.102 105.534C140.44 107.055 139.555 108.453 138.446 109.728C137.347 110.985 136.111 112.01 134.738 112.803ZM134.295 96.7227C133.278 97.3101 132.453 98.1971 131.823 99.3837C131.202 100.564 130.805 101.939 130.632 103.507L137.698 99.4277L137.698 99.1105C137.617 97.7242 137.286 96.8343 136.706 96.4407C136.126 96.0354 135.323 96.1294 134.295 96.7227ZM151.525 103.111C149.175 104.468 147.267 104.717 145.802 103.86C144.347 102.985 143.62 101.125 143.62 98.2822L143.62 97.7536C143.62 95.8503 143.935 93.9706 144.566 92.1144C145.207 90.2405 146.102 88.5546 147.252 87.0567C148.402 85.5588 149.684 84.4016 151.098 83.585C153.347 82.2868 155.081 82.1136 156.302 83.0652C157.533 84.0109 158.149 85.9993 158.149 89.0304L158.149 90.7574L147.359 96.987C147.471 98.4967 147.924 99.4806 148.717 99.9388C149.521 100.391 150.528 100.268 151.739 99.5687C153.438 98.5877 154.822 96.9958 155.89 94.793L157.889 95.8415C157.228 97.3629 156.343 98.761 155.234 100.036C154.135 101.293 152.899 102.318 151.525 103.111ZM151.083 87.0302C150.065 87.6177 149.241 88.5047 148.61 89.6913C147.99 90.872 147.593 92.2465 147.42 93.8149L154.486 89.7353L154.486 89.4181C154.405 88.0318 154.074 87.1419 153.494 86.7483C152.914 86.343 152.11 86.437 151.083 87.0302ZM165.688 70.8792L165.688 75.5139L168.603 73.831L168.603 77.003L165.688 78.686L165.688 89.33C165.688 90.0584 165.81 90.5166 166.054 90.7046C166.309 90.8749 166.756 90.775 167.397 90.405C167.825 90.1583 168.257 89.8499 168.695 89.4798L168.695 92.7928C167.85 93.5506 167.036 94.1556 166.253 94.608C163.404 96.2527 161.979 95.26 161.979 91.6297L161.979 80.8271L159.263 82.3955L159.263 79.2235L161.979 77.6551L161.979 73.0203L165.688 70.8792ZM193.937 78.2718L178.996 86.8981L178.996 83.9551L186.398 70.3593C187.466 68.368 188.224 66.7849 188.672 65.61C189.13 64.4176 189.359 63.3573 189.359 62.4292C189.359 61.2073 189.059 60.3938 188.458 59.9884C187.868 59.5773 187.07 59.6624 186.062 60.244C184.862 60.9371 183.931 61.8976 183.269 63.1253C182.608 64.353 182.277 65.7011 182.277 67.1696L178.569 69.3108C178.569 67.7482 178.874 66.1681 179.485 64.5703C180.105 62.9549 180.985 61.4717 182.125 60.1206C183.274 58.7637 184.597 57.6535 186.093 56.79C188.25 55.5446 189.949 55.1922 191.19 55.7326C192.442 56.2554 193.067 57.6211 193.067 59.8298C193.067 61.1104 192.752 62.6377 192.121 64.4117C191.5 66.1681 190.478 68.3503 189.054 70.9585L183.62 80.8095L193.937 74.8531L193.937 78.2718Z" fill="#FFCA31"/>
<path id="Vector 415" d="M125.562 139.296L189.687 34.5487L226.885 13.0701L167.897 114.86L125.562 139.296Z" fill="url(#paint3_linear)"/>
<path id="Vector 416" d="M79.1807 166.067L143.305 61.3194L160.582 51.5139L101.593 153.304L79.1807 166.067Z" fill="url(#paint4_linear)"/>
</g>
<g id="Rectangle 1709">
<path d="M38.1479 282.642L72.0196 302.198V391.775L63.6824 397.274L38.1479 372.219L29.5967 287.78L38.1479 282.642Z" fill="#C4C4C4"/>
<path d="M72.0196 302.198L38.1479 282.642L29.5967 287.78L38.1479 372.219L63.6824 397.274L72.0196 391.775V302.198ZM72.0196 302.198L63.5267 307.624" stroke="black" stroke-width="0.696875" stroke-linecap="round" stroke-linejoin="round"/>
</g>
<path id="Rectangle 1725" d="M29.52 288.091L63.3917 307.647L63.3917 397.224L29.52 377.668L29.52 288.091Z" fill="#EDEDED" stroke="black" stroke-width="0.696875" stroke-linecap="round" stroke-linejoin="round"/>
<path id="Rectangle 1726" d="M33.8184 297.791L59.0908 312.382L59.0908 387.522L33.8184 372.931L33.8184 297.791Z" fill="#C4C4C4" stroke="black" stroke-width="0.696875" stroke-linecap="round" stroke-linejoin="round"/>
<path id="Rectangle 1727" d="M36.3682 299.263L59.092 312.383L59.092 383.855L36.3682 370.735L36.3682 299.263Z" fill="black" stroke="black" stroke-width="0.696875" stroke-linecap="round" stroke-linejoin="round"/>
<path id="Rectangle 1724" d="M42.1963 489.145C42.1963 480.926 47.967 477.594 55.0854 481.704C62.2039 485.814 67.9746 495.809 67.9746 504.028L67.9746 523.194L42.1963 508.311L42.1963 489.145Z" fill="#C4C4C4" stroke="black" stroke-width="0.696875" stroke-linecap="round" stroke-linejoin="round"/>
<rect id="Rectangle 1713" width="54.1423" height="7.59631" rx="3.79815" transform="matrix(0.866025 -0.5 2.20305e-08 1 150.269 157.769)" fill="#FF8484" stroke="black" stroke-width="0.696875" stroke-linecap="round" stroke-linejoin="round"/>
<path id="scanner-light" d="M195.913 135.484L151.866 161.243L164.161 583.034L361.205 470.037L195.913 135.484Z" fill="url(#paint5_linear)"/>
<circle id="Ellipse 210" r="5.75877" transform="matrix(0.866025 0.5 -2.20305e-08 1 53.9716 494.395)" fill="#EDEDED" stroke="black" stroke-width="0.696875" stroke-linecap="round" stroke-linejoin="round"/>
</g>
<path id="device here" d="M199.268 561.345C197.36 560.243 196.273 559.104 196.006 557.928C195.731 556.747 196.338 555.728 197.826 554.868C199.138 554.111 200.657 553.763 202.381 553.824L196.04 550.163L198.822 548.557L216.403 558.708L213.885 560.162L212.466 559.501C212.641 560.563 212.034 561.495 210.646 562.296C209.196 563.133 207.437 563.475 205.369 563.321C203.309 563.162 201.275 562.503 199.268 561.345ZM202.29 559.878C203.549 560.605 204.774 561.034 205.964 561.166C207.155 561.29 208.196 561.094 209.089 560.578C210.226 559.922 210.55 559.149 210.062 558.259L204.774 555.205C203.27 554.928 201.95 555.117 200.813 555.774C199.913 556.294 199.577 556.902 199.806 557.598C200.027 558.289 200.855 559.049 202.29 559.878ZM224.988 554.016C223.225 555.034 221.241 555.54 219.036 555.536C216.83 555.523 214.804 554.983 212.958 553.917L212.614 553.719C211.378 553.005 210.512 552.232 210.016 551.399C209.52 550.558 209.432 549.731 209.753 548.921C210.073 548.11 210.764 547.399 211.825 546.786C213.511 545.813 215.35 545.372 217.342 545.465C219.341 545.553 221.325 546.165 223.294 547.302L224.415 547.949L216.323 552.622C217.429 553.163 218.578 553.434 219.768 553.434C220.966 553.43 222.019 553.166 222.927 552.641C224.202 551.906 224.724 551.009 224.495 549.952L227.426 549.912C227.67 550.626 227.582 551.342 227.162 552.06C226.743 552.769 226.018 553.421 224.988 554.016ZM214.045 548.082C213.282 548.522 212.931 549.033 212.992 549.615C213.061 550.192 213.507 550.793 214.331 551.419L219.631 548.359L219.425 548.24C218.433 547.738 217.483 547.476 216.575 547.454C215.659 547.427 214.816 547.637 214.045 548.082ZM232.576 545.299L226.338 538.671L229.211 537.012L237.304 546.641L234.889 548.035L218.177 543.383L221.062 541.718L232.576 545.299ZM246.3 541.447L243.519 543.053L231.134 535.902L233.916 534.296L246.3 541.447ZM227.746 534.144C227.319 533.898 227.098 533.616 227.082 533.298C227.075 532.977 227.323 532.671 227.826 532.38C228.33 532.089 228.86 531.946 229.417 531.95C229.974 531.955 230.467 532.08 230.894 532.327C231.314 532.569 231.527 532.851 231.535 533.173C231.535 533.49 231.283 533.794 230.779 534.085C230.276 534.376 229.749 534.521 229.2 534.521C228.65 534.512 228.166 534.387 227.746 534.144ZM252.436 535.605C253.13 535.204 253.504 534.754 253.557 534.257C253.611 533.759 253.355 533.329 252.79 532.968L255.412 531.455C256.152 531.917 256.633 532.472 256.854 533.12C257.067 533.763 256.984 534.42 256.602 535.089C256.22 535.759 255.583 536.352 254.69 536.867C252.958 537.867 251.024 538.336 248.887 538.275C246.751 538.213 244.694 537.612 242.718 536.47L242.432 536.305C240.547 535.217 239.543 534.056 239.421 532.823C239.292 531.585 240.097 530.463 241.836 529.459C243.309 528.609 244.938 528.166 246.724 528.131C248.51 528.087 250.123 528.454 251.566 529.234L248.945 530.748C248.204 530.355 247.376 530.159 246.461 530.159C245.553 530.155 244.748 530.355 244.046 530.761C243.145 531.281 242.779 531.871 242.947 532.532C243.107 533.188 243.847 533.902 245.167 534.673L245.614 534.931C246.957 535.706 248.201 536.147 249.345 536.252C250.49 536.349 251.52 536.133 252.436 535.605ZM267.293 529.591C265.53 530.609 263.546 531.115 261.341 531.111C259.135 531.098 257.109 530.558 255.263 529.492L254.919 529.294C253.683 528.58 252.817 527.807 252.321 526.974C251.825 526.133 251.737 525.307 252.058 524.496C252.378 523.685 253.069 522.974 254.13 522.361C255.816 521.388 257.655 520.947 259.647 521.04C261.646 521.128 263.63 521.74 265.599 522.877L266.72 523.525L258.628 528.197C259.734 528.739 260.883 529.01 262.073 529.01C263.271 529.005 264.324 528.741 265.232 528.217C266.507 527.481 267.029 526.584 266.801 525.527L269.731 525.487C269.975 526.201 269.887 526.917 269.468 527.635C269.048 528.344 268.323 528.996 267.293 529.591ZM256.35 523.657C255.587 524.097 255.236 524.608 255.297 525.19C255.366 525.767 255.812 526.368 256.636 526.994L261.936 523.934L261.73 523.815C260.738 523.313 259.788 523.051 258.88 523.029C257.964 523.002 257.121 523.212 256.35 523.657ZM271.745 514.015C271.6 512.883 272.222 511.916 273.611 511.114C276.251 509.589 279.098 509.686 282.15 511.405L290.242 516.077L287.461 517.683L279.471 513.07C278.617 512.577 277.827 512.336 277.102 512.35C276.377 512.354 275.656 512.563 274.939 512.977C273.825 513.621 273.489 514.387 273.932 515.277L282.779 520.386L279.998 521.991L262.417 511.841L265.198 510.235L271.745 514.015ZM298.747 511.431C296.984 512.449 295 512.955 292.795 512.951C290.59 512.938 288.564 512.398 286.717 511.332L286.374 511.134C285.137 510.42 284.271 509.647 283.775 508.814C283.279 507.973 283.191 507.147 283.512 506.336C283.832 505.525 284.523 504.814 285.584 504.201C287.27 503.228 289.109 502.787 291.101 502.88C293.1 502.968 295.084 503.58 297.053 504.717L298.175 505.364L290.082 510.037C291.189 510.579 292.337 510.85 293.527 510.85C294.725 510.845 295.778 510.581 296.687 510.056C297.961 509.321 298.484 508.424 298.255 507.367L301.185 507.327C301.429 508.041 301.341 508.757 300.922 509.475C300.502 510.184 299.777 510.836 298.747 511.431ZM287.804 505.497C287.041 505.937 286.69 506.448 286.751 507.03C286.82 507.607 287.266 508.208 288.09 508.834L293.39 505.774L293.184 505.655C292.192 505.153 291.242 504.891 290.334 504.869C289.418 504.842 288.575 505.052 287.804 505.497ZM302.295 497.752C301.868 497.928 301.46 498.128 301.07 498.353C299.796 499.089 299.426 499.866 299.96 500.686L308.43 505.576L305.649 507.182L293.264 500.031L295.92 498.498L297.373 499.258C296.969 498.249 297.362 497.401 298.552 496.714C298.949 496.485 299.331 496.326 299.697 496.238L302.295 497.752ZM319.35 499.536C317.587 500.554 315.603 501.06 313.398 501.056C311.193 501.043 309.167 500.503 307.32 499.437L306.977 499.238C305.74 498.525 304.874 497.752 304.378 496.919C303.882 496.077 303.795 495.251 304.115 494.441C304.436 493.63 305.126 492.919 306.187 492.306C307.873 491.333 309.712 490.892 311.704 490.984C313.703 491.073 315.687 491.685 317.656 492.822L318.778 493.469L310.685 498.141C311.792 498.683 312.94 498.954 314.131 498.954C315.329 498.95 316.382 498.686 317.29 498.161C318.564 497.426 319.087 496.529 318.858 495.472L321.788 495.432C322.032 496.146 321.944 496.862 321.525 497.58C321.105 498.289 320.38 498.941 319.35 499.536ZM308.407 493.601C307.644 494.042 307.293 494.553 307.354 495.135C307.423 495.712 307.869 496.313 308.694 496.939L313.993 493.879L313.787 493.76C312.795 493.258 311.845 492.996 310.937 492.974C310.021 492.947 309.178 493.156 308.407 493.601Z" fill="white"/>
</g>
<path id="Union_4" fill-rule="evenodd" clip-rule="evenodd" d="M47.3622 332.018C44.5534 330.397 42.2764 331.711 42.2764 334.955L42.2764 337.375L41.9809 337.204C40.6 336.407 39.4805 337.053 39.4805 338.648L39.4805 346.01C39.4805 347.604 40.6 349.543 41.9809 350.341L52.7917 356.582C54.1727 357.38 55.2922 356.733 55.2922 355.139L55.2922 347.777C55.2922 346.182 54.1727 344.243 52.7917 343.446L52.4479 343.247L52.4479 340.827C52.4479 337.584 50.171 333.64 47.3622 332.018ZM50.8089 342.301L50.8089 339.881C50.8089 337.683 49.2658 335.01 47.3622 333.911C45.4586 332.812 43.9154 333.703 43.9154 335.901L43.9154 338.321L50.8089 342.301ZM46.4232 345.585C46.4232 344.955 46.8656 344.7 47.4114 345.015C47.9572 345.33 48.3996 346.096 48.3996 346.727L48.3996 350.122C48.3996 350.752 47.9572 351.008 47.4114 350.693C46.8656 350.377 46.4232 349.611 46.4232 348.981L46.4232 345.585Z" fill="#FF8484"/>
</g>
</g>
<g id="Group 1591">
<g id="Group 1069">
<g id="Group 1067">
<g id="Group 1065">
<g id="Group 1058">
<path id="Rectangle 923" d="M271.492 105.563L274.032 115.04L259.165 119.024C256.548 119.725 253.858 118.172 253.156 115.555C252.455 112.938 254.008 110.247 256.625 109.546L271.492 105.563Z" fill="#EDEDED" stroke="black" stroke-width="0.673451"/>
<g id="Group 1055">
<g id="Union_5">
<mask id="path-33-inside-1" fill="white">
<path fill-rule="evenodd" clip-rule="evenodd" d="M310.886 97.9948C310.902 97.9408 310.918 97.8864 310.932 97.8317C312.418 92.2878 305.276 85.5571 294.98 82.7983C284.684 80.0396 275.133 82.2974 273.648 87.8412L273.645 87.8406L263.578 125.412L300.863 135.402L310.886 97.9948Z"/>
</mask>
<path fill-rule="evenodd" clip-rule="evenodd" d="M310.886 97.9948C310.902 97.9408 310.918 97.8864 310.932 97.8317C312.418 92.2878 305.276 85.5571 294.98 82.7983C284.684 80.0396 275.133 82.2974 273.648 87.8412L273.645 87.8406L263.578 125.412L300.863 135.402L310.886 97.9948Z" fill="white"/>
<path d="M310.886 97.9948L310.241 97.8013L310.238 97.8109L310.235 97.8205L310.886 97.9948ZM273.648 87.8412L273.473 88.4917L274.124 88.666L274.298 88.0155L273.648 87.8412ZM273.645 87.8406L273.82 87.1901L273.169 87.0158L272.995 87.6663L273.645 87.8406ZM263.578 125.412L262.928 125.238L262.753 125.888L263.404 126.062L263.578 125.412ZM300.863 135.402L300.688 136.053L301.339 136.227L301.513 135.577L300.863 135.402ZM310.282 97.6574C310.269 97.7056 310.255 97.7536 310.241 97.8013L311.531 98.1884C311.549 98.1279 311.566 98.0671 311.583 98.006L310.282 97.6574ZM294.805 83.4488C299.867 84.8051 304.121 87.1306 306.912 89.7607C309.726 92.4122 310.93 95.2394 310.282 97.6574L311.583 98.006C312.42 94.8801 310.796 91.57 307.836 88.7805C304.853 85.9696 300.388 83.5503 295.154 82.1478L294.805 83.4488ZM274.298 88.0155C274.946 85.5976 277.402 83.7511 281.165 82.8617C284.897 81.9794 289.744 82.0925 294.805 83.4488L295.154 82.1478C289.92 80.7454 284.844 80.608 280.855 81.5509C276.897 82.4866 273.835 84.541 272.997 87.6669L274.298 88.0155ZM273.471 88.4911L273.473 88.4917L273.822 87.1907L273.82 87.1901L273.471 88.4911ZM264.229 125.586L274.296 88.0149L272.995 87.6663L262.928 125.238L264.229 125.586ZM301.037 134.752L263.752 124.761L263.404 126.062L300.688 136.053L301.037 134.752ZM310.235 97.8205L300.212 135.228L301.513 135.577L311.536 98.1691L310.235 97.8205Z" fill="black" mask="url(#path-33-inside-1)"/>
</g>
<path id="Ellipse 19" d="M300.537 135.315C299.842 137.91 297.234 139.809 293.423 140.71C289.627 141.607 284.722 141.488 279.618 140.12C274.513 138.752 270.206 136.404 267.367 133.728C264.517 131.042 263.208 128.094 263.903 125.499C264.598 122.904 267.206 121.006 271.017 120.105C274.814 119.207 279.718 119.327 284.823 120.694C289.928 122.062 294.234 124.411 297.073 127.087C299.923 129.772 301.233 132.72 300.537 135.315Z" fill="#EDEDED" stroke="black" stroke-width="0.673451"/>
</g>
</g>
<g id="Group 1060">
<g id="Union_6">
<mask id="path-36-inside-2" fill="white">
<path fill-rule="evenodd" clip-rule="evenodd" d="M294.31 134.92C294.318 134.893 294.326 134.865 294.333 134.838C294.34 134.811 294.347 134.783 294.354 134.756L294.358 134.741L294.357 134.741C295.238 131.06 290.337 126.588 283.461 124.746C276.586 122.904 270.316 124.382 269.242 128.012L269.24 128.011L267.894 133.035L271.888 134.105C273.806 135.797 276.59 137.263 279.872 138.142C283.154 139.022 286.346 139.157 288.903 138.664L293.012 139.765L294.31 134.92Z"/>
</mask>
<path fill-rule="evenodd" clip-rule="evenodd" d="M294.31 134.92C294.318 134.893 294.326 134.865 294.333 134.838C294.34 134.811 294.347 134.783 294.354 134.756L294.358 134.741L294.357 134.741C295.238 131.06 290.337 126.588 283.461 124.746C276.586 122.904 270.316 124.382 269.242 128.012L269.24 128.011L267.894 133.035L271.888 134.105C273.806 135.797 276.59 137.263 279.872 138.142C283.154 139.022 286.346 139.157 288.903 138.664L293.012 139.765L294.31 134.92Z" fill="#C4C4C4"/>
<path d="M294.31 134.92L293.664 134.731L293.661 134.738L293.659 134.746L294.31 134.92ZM294.354 134.756L293.703 134.582L293.701 134.589L293.7 134.597L294.354 134.756ZM294.358 134.741L295.008 134.916L295.183 134.265L294.532 134.091L294.358 134.741ZM294.357 134.741L293.702 134.585L293.55 135.222L294.183 135.392L294.357 134.741ZM269.242 128.012L269.068 128.662L269.702 128.832L269.888 128.203L269.242 128.012ZM269.24 128.011L269.414 127.361L268.764 127.186L268.589 127.837L269.24 128.011ZM267.894 133.035L267.243 132.86L267.069 133.511L267.72 133.685L267.894 133.035ZM271.888 134.105L272.334 133.6L272.215 133.495L272.062 133.454L271.888 134.105ZM288.903 138.664L289.078 138.014L288.928 137.974L288.776 138.003L288.903 138.664ZM293.012 139.765L292.837 140.416L293.488 140.59L293.662 139.939L293.012 139.765ZM293.682 134.664C293.676 134.686 293.67 134.709 293.664 134.731L294.956 135.109C294.966 135.077 294.975 135.045 294.983 135.012L293.682 134.664ZM293.7 134.597C293.694 134.619 293.688 134.641 293.682 134.664L294.983 135.012C294.992 134.98 295 134.948 295.008 134.915L293.7 134.597ZM293.707 134.567L293.703 134.582L295.004 134.93L295.008 134.916L293.707 134.567ZM294.183 135.392L294.183 135.392L294.532 134.091L294.532 134.091L294.183 135.392ZM283.287 125.397C286.64 126.295 289.482 127.828 291.363 129.551C293.271 131.298 294.057 133.101 293.702 134.585L295.012 134.898C295.538 132.7 294.315 130.427 292.273 128.557C290.205 126.663 287.158 125.039 283.636 124.096L283.287 125.397ZM269.888 128.203C270.324 126.73 271.866 125.553 274.328 124.983C276.762 124.42 279.934 124.498 283.287 125.397L283.636 124.096C280.113 123.152 276.713 123.048 274.024 123.671C271.364 124.287 269.235 125.664 268.596 127.821L269.888 128.203ZM269.066 128.662L269.068 128.662L269.416 127.361L269.414 127.361L269.066 128.662ZM268.544 133.209L269.89 128.185L268.589 127.837L267.243 132.86L268.544 133.209ZM272.062 133.454L268.068 132.384L267.72 133.685L271.714 134.755L272.062 133.454ZM280.046 137.492C276.846 136.634 274.16 135.212 272.334 133.6L271.442 134.61C273.451 136.383 276.334 137.891 279.698 138.793L280.046 137.492ZM288.776 138.003C286.335 138.474 283.247 138.349 280.046 137.492L279.698 138.793C283.062 139.694 286.358 139.841 289.031 139.325L288.776 138.003ZM293.186 139.115L289.078 138.014L288.729 139.315L292.837 140.416L293.186 139.115ZM293.659 134.746L292.361 139.591L293.662 139.939L294.96 135.094L293.659 134.746Z" fill="black" mask="url(#path-36-inside-2)"/>
</g>
<path id="Ellipse 19_2" d="M292.743 139.469C292.278 141.203 290.556 142.499 288 143.127C285.458 143.752 282.169 143.69 278.745 142.773C275.321 141.855 272.442 140.265 270.553 138.452C268.653 136.63 267.811 134.647 268.275 132.913C268.74 131.179 270.461 129.882 273.017 129.254C275.56 128.629 278.849 128.691 282.273 129.608C285.697 130.526 288.576 132.116 290.465 133.929C292.365 135.751 293.207 137.735 292.743 139.469Z" fill="#E6EAEB" stroke="black" stroke-width="0.673451"/>
</g>
<g id="Group 1056">
<g id="Union_7">
<mask id="path-39-inside-3" fill="white">
<path fill-rule="evenodd" clip-rule="evenodd" d="M291.628 140.042C291.637 140.014 291.645 139.985 291.652 139.956C292.536 136.658 288.239 132.641 282.055 130.984C275.87 129.327 270.14 130.657 269.256 133.955L269.255 133.955L265.355 148.512L287.751 154.513L291.628 140.042Z"/>
</mask>
<path fill-rule="evenodd" clip-rule="evenodd" d="M291.628 140.042C291.637 140.014 291.645 139.985 291.652 139.956C292.536 136.658 288.239 132.641 282.055 130.984C275.87 129.327 270.14 130.657 269.256 133.955L269.255 133.955L265.355 148.512L287.751 154.513L291.628 140.042Z" fill="#EDEDED"/>
<path d="M291.628 140.042L290.983 139.851L290.98 139.859L290.978 139.868L291.628 140.042ZM269.256 133.955L269.082 134.606L269.733 134.78L269.907 134.13L269.256 133.955ZM269.255 133.955L269.43 133.304L268.779 133.13L268.605 133.781L269.255 133.955ZM265.355 148.512L264.704 148.338L264.53 148.989L265.18 149.163L265.355 148.512ZM287.751 154.513L287.576 155.164L288.227 155.338L288.401 154.688L287.751 154.513ZM291.002 139.782C290.996 139.805 290.989 139.828 290.983 139.851L292.274 140.234C292.284 140.2 292.294 140.165 292.303 140.131L291.002 139.782ZM281.88 131.634C284.887 132.44 287.403 133.812 289.044 135.347C290.709 136.903 291.348 138.49 291.002 139.782L292.303 140.131C292.84 138.124 291.773 136.053 289.964 134.363C288.132 132.649 285.406 131.185 282.229 130.333L281.88 131.634ZM269.907 134.13C270.253 132.838 271.6 131.783 273.82 131.267C276.009 130.759 278.873 130.828 281.88 131.634L282.229 130.333C279.052 129.482 275.959 129.388 273.516 129.955C271.104 130.515 269.144 131.775 268.606 133.781L269.907 134.13ZM269.081 134.606L269.082 134.606L269.431 133.305L269.43 133.304L269.081 134.606ZM266.005 148.687L269.906 134.129L268.605 133.781L264.704 148.338L266.005 148.687ZM287.925 153.863L265.529 147.862L265.18 149.163L287.576 155.164L287.925 153.863ZM290.978 139.868L287.1 154.339L288.401 154.688L292.279 140.217L290.978 139.868Z" fill="black" mask="url(#path-39-inside-3)"/>
</g>
<path id="Ellipse 19_3" d="M287.475 154.24C287.066 155.767 285.547 156.917 283.273 157.476C281.013 158.032 278.087 157.977 275.039 157.16C271.991 156.343 269.43 154.928 267.75 153.317C266.061 151.696 265.32 149.94 265.73 148.413C266.139 146.886 267.658 145.736 269.932 145.177C272.192 144.621 275.117 144.676 278.166 145.493C281.214 146.309 283.775 147.725 285.454 149.336C287.144 150.957 287.884 152.712 287.475 154.24Z" fill="#C4C4C4" stroke="black" stroke-width="0.673451"/>
<path id="Ellipse 21" d="M284.49 153.439C284.253 154.324 283.25 155.017 281.606 155.322C279.989 155.622 277.87 155.518 275.64 154.92C273.41 154.323 271.523 153.354 270.273 152.286C269.002 151.2 268.479 150.098 268.716 149.213C268.954 148.328 269.957 147.635 271.6 147.33C273.217 147.03 275.336 147.135 277.566 147.732C279.796 148.33 281.684 149.299 282.934 150.367C284.205 151.453 284.727 152.555 284.49 153.439Z" fill="#FF8484" stroke="black" stroke-width="0.673451"/>
</g>
</g>
</g>
</g>
</g>
</g>
<defs>
<linearGradient id="paint0_linear" x1="252.713" y1="419.532" x2="163.686" y2="130.659" gradientUnits="userSpaceOnUse">
<stop stop-color="#FF8484" stop-opacity="0.8"/>
<stop offset="1" stop-color="#FF8484" stop-opacity="0.3"/>
</linearGradient>
<linearGradient id="paint1_linear" x1="226.482" y1="253.006" x2="84.5408" y2="376.577" gradientUnits="userSpaceOnUse">
<stop stop-color="white" stop-opacity="0.4"/>
<stop offset="1" stop-color="white" stop-opacity="0"/>
</linearGradient>
<linearGradient id="paint2_linear" x1="226.015" y1="341.412" x2="107.788" y2="465.58" gradientUnits="userSpaceOnUse">
<stop stop-color="white" stop-opacity="0.4"/>
<stop offset="1" stop-color="white" stop-opacity="0"/>
</linearGradient>
<linearGradient id="paint3_linear" x1="226.94" y1="34.1989" x2="135.537" y2="130.2" gradientUnits="userSpaceOnUse">
<stop stop-color="white" stop-opacity="0.4"/>
<stop offset="1" stop-color="white" stop-opacity="0"/>
</linearGradient>
<linearGradient id="paint4_linear" x1="160.637" y1="72.6426" x2="69.2338" y2="168.644" gradientUnits="userSpaceOnUse">
<stop stop-color="white" stop-opacity="0.4"/>
<stop offset="1" stop-color="white" stop-opacity="0"/>
</linearGradient>
<linearGradient id="paint5_linear" x1="175.99" y1="147.001" x2="238.686" y2="470.33" gradientUnits="userSpaceOnUse">
<stop offset="0.177083" stop-color="#FF8484" stop-opacity="0.8"/>
<stop offset="0.645833" stop-color="#FF8484" stop-opacity="0"/>
</linearGradient>
</defs>
</svg>
