<svg width="435" height="290" viewBox="0 0 435 290" fill="none" xmlns="http://www.w3.org/2000/svg">
<path fill-rule="evenodd" clip-rule="evenodd" d="M95.8147 56.7464C96.8574 56.72 97.8967 56.8171 98.9116 57.0494L210.068 82.4804C210.238 82.5192 210.407 82.5618 210.573 82.608C222.043 85.7865 234.695 85.9364 247.366 83.0633C249.496 82.2825 251.671 81.6248 253.88 81.1001L365.848 38.8651C366.913 38.6121 367.957 38.4854 368.964 38.475C374.814 38.3795 383.56 56.8666 383.97 62.6547C384.45 69.425 378.979 76.3187 371.752 78.0523L257 105.575L252.352 106.786C251.946 106.891 251.541 106.995 251.135 107.096C242.631 110.738 236.011 118.581 234.468 127.323L232.661 137.562C231.579 143.691 232.326 149.667 234.811 154.772L266.755 220.392C270.003 227.066 279.583 227.774 286.185 221.828L333.04 154.772C338.799 149.586 352.74 147.89 358.723 164.015C364.328 175.532 364.482 182.611 358.723 187.797L302.097 238.793C281.886 256.994 252.559 254.827 242.614 234.396L213.302 174.184L162.552 235.437C145.331 256.222 115.102 259.164 101.238 241.406L62.3952 191.653C58.4449 186.593 43.3329 172.077 56.0799 158.256C62.1517 153.435 80.4325 169.135 84.3828 174.195L123.226 223.949C127.755 229.749 137.629 228.788 143.255 221.999L198.563 155.244C202.866 150.05 205.731 144.028 206.812 137.899L209.24 124.147C210.678 115.996 206.219 108.983 198.457 107.191L78.0974 78.7989C71.4427 77.2626 68.2834 60.2783 71.1444 53.4605C73.6118 47.5809 89.9208 56.7487 95.8147 56.7464Z" fill="#5E6FDB"/>
<path fill-rule="evenodd" clip-rule="evenodd" d="M253.099 81.2917C253.359 81.226 253.619 81.1621 253.88 81.1001L365.848 38.8651C366.913 38.6121 367.957 38.4854 368.964 38.475C374.814 38.3795 383.56 56.8666 383.97 62.6547C384.45 69.425 378.979 76.3187 371.752 78.0523L257 105.575L252.352 106.786C251.946 106.891 251.541 106.995 251.135 107.096C242.631 110.738 236.011 118.581 234.468 127.323L232.661 137.562C231.579 143.691 232.326 149.667 234.811 154.772L266.755 220.392C270.003 227.066 279.583 227.774 286.185 221.828L333.04 154.772C338.799 149.586 352.74 147.89 358.723 164.015C364.328 175.532 364.482 182.611 358.723 187.797L302.097 238.793C281.886 256.994 252.559 254.827 242.614 234.396L213.302 174.184L162.552 235.437C145.331 256.222 115.102 259.164 101.238 241.406L62.3952 191.653C61.9845 191.127 61.4531 190.498 60.8449 189.779C55.6037 183.582 44.6582 170.64 56.0799 158.256C62.1517 153.435 80.4325 169.135 84.3828 174.195L123.226 223.949C127.755 229.749 137.629 228.788 143.255 221.999L198.563 155.244C202.866 150.05 205.73 144.028 206.812 137.899L209.24 124.147C210.678 115.996 206.219 108.983 198.457 107.191L78.0974 78.7989C71.4427 77.2626 68.2834 60.2783 71.1444 53.4605C72.7415 49.6547 80.1379 52.1534 86.7553 54.389C90.3612 55.6072 93.7358 56.7472 95.8147 56.7464C96.8574 56.72 97.8967 56.8171 98.9116 57.0494L210.068 82.4804C210.238 82.5192 210.407 82.5618 210.573 82.608C222.043 85.7865 234.695 85.9364 247.366 83.0633C249.244 82.3748 251.158 81.782 253.099 81.2917ZM198.815 105.656L78.4637 77.2649L78.4563 77.2632C77.3943 77.018 76.2453 76.087 75.1517 74.3232C74.08 72.5949 73.2028 70.2861 72.5959 67.746C71.9913 65.2156 71.6722 62.5281 71.6743 60.0812C71.6764 57.6083 72.0065 55.5019 72.6085 54.0674C72.8411 53.5131 73.4285 53.041 75.1848 53.0701C76.9121 53.0988 79.1817 53.6325 81.7308 54.4071C83.2352 54.8643 84.7203 55.3665 86.1941 55.8648C87.2455 56.2203 88.2912 56.5739 89.334 56.9078C91.6925 57.6629 94.0521 58.3237 95.8153 58.323L95.8351 58.323L95.855 58.3225C96.7719 58.2993 97.6777 58.3849 98.5558 58.5858L209.712 84.0168C209.859 84.0503 210.004 84.0869 210.147 84.1266C221.895 87.3821 234.816 87.5261 247.718 84.6004L247.818 84.5778L247.914 84.5426C249.987 83.7828 252.103 83.1434 254.249 82.6335L254.348 82.61L366.313 40.376C367.233 40.1646 368.126 40.0603 368.98 40.0515L368.99 40.0514C369.3 40.0463 369.769 40.1662 370.417 40.5779C371.058 40.9846 371.775 41.614 372.543 42.457C374.078 44.1427 375.665 46.5106 377.119 49.1218C378.567 51.7223 379.849 54.5042 380.791 56.9792C381.75 59.4963 382.302 61.5586 382.388 62.7654C382.806 68.6711 377.953 74.943 371.379 76.5197L256.613 104.046L251.95 105.26C251.55 105.365 251.149 105.467 250.749 105.566L250.625 105.597L250.507 105.648C241.559 109.481 234.55 117.737 232.906 127.05L231.098 137.29C229.965 143.711 230.739 150.026 233.383 155.459L265.327 221.079C267.234 224.997 270.993 227.112 275.095 227.415C279.181 227.717 283.648 226.241 287.251 222.997L287.385 222.876L334.235 155.825C336.781 153.614 341.13 152.118 345.499 152.95C349.824 153.774 354.405 156.933 357.235 164.56L357.262 164.632L357.295 164.701C360.063 170.388 361.381 174.783 361.399 178.288C361.415 181.685 360.214 184.328 357.658 186.629L301.032 237.625C291.229 246.453 279.265 250.296 268.624 249.509C257.997 248.724 248.731 243.343 244.042 233.709L213.652 171.282L161.327 234.435C152.979 244.511 141.499 250.234 130.482 251.306C119.467 252.378 109.025 248.808 102.491 240.44L63.6484 190.686C63.1896 190.099 62.6186 189.423 61.9794 188.666C59.6605 185.92 56.4435 182.111 54.4256 177.599C53.1596 174.768 52.4312 171.776 52.7131 168.738C52.9897 165.759 54.2492 162.612 57.156 159.423C58.022 158.805 59.5657 158.686 62.0056 159.496C64.4333 160.302 67.2713 161.879 70.1319 163.822C75.8642 167.715 81.2846 172.798 83.1295 175.162L121.973 224.915C124.636 228.326 128.817 229.67 132.984 229.264C137.147 228.859 141.404 226.712 144.479 223.001L199.788 156.246C204.25 150.86 207.242 144.59 208.375 138.171L210.802 124.419C212.376 115.505 207.458 107.653 198.819 105.656C198.818 105.656 198.817 105.656 198.815 105.656Z" fill="black"/>
<path fill-rule="evenodd" clip-rule="evenodd" d="M86.543 40.6102C87.5858 40.5838 88.6251 40.6809 89.64 40.9131L200.797 66.3441C200.967 66.3829 201.135 66.4255 201.302 66.4717C212.772 69.6502 225.423 69.8001 238.094 66.9271C240.224 66.1462 242.4 65.4885 244.609 64.9638L360.696 37.3919C361.762 37.1389 362.805 37.0122 363.812 37.0017C369.662 36.9063 374.288 40.7303 374.698 46.5184C375.178 53.2887 369.708 60.1825 362.48 61.916L247.729 89.4384L243.08 90.6492C242.675 90.7549 242.269 90.8583 241.863 90.9594C233.36 94.6022 226.74 102.444 225.197 111.186L223.389 121.426C222.307 127.555 223.054 133.53 225.539 138.636L257.483 204.256C260.732 210.93 270.312 211.638 276.914 205.692L333.54 154.696C339.299 149.51 347.529 149.104 351.923 153.788C356.317 158.473 355.21 166.475 349.452 171.661L292.826 222.656C272.615 240.858 243.287 238.69 233.342 218.259L204.031 158.047L153.28 219.301C136.06 240.085 105.831 243.028 91.9666 225.27L53.1235 175.516C49.1732 170.456 50.893 162.447 56.9647 157.626C63.0364 152.805 71.1608 152.999 75.1111 158.059L113.954 207.812C118.483 213.613 128.358 212.652 133.983 205.862L189.291 139.107C193.595 133.914 196.459 127.891 197.541 121.762L199.968 108.01C201.407 99.8596 196.947 92.847 189.185 91.0551L78.9741 65.6118C72.3194 64.0755 69.244 57.3032 72.1051 50.4854C74.5724 44.6057 80.6491 40.6124 86.543 40.6102Z" fill="#B0B8ED"/>
<path fill-rule="evenodd" clip-rule="evenodd" d="M243.827 65.1554C244.087 65.0897 244.348 65.0259 244.609 64.9638L360.696 37.3919C361.762 37.1389 362.805 37.0122 363.812 37.0017C369.662 36.9063 374.288 40.7303 374.698 46.5184C375.178 53.2887 369.708 60.1825 362.48 61.916L247.729 89.4384L243.08 90.6492C242.675 90.7549 242.269 90.8583 241.863 90.9594C233.36 94.6022 226.74 102.444 225.197 111.186L223.389 121.426C222.307 127.555 223.054 133.53 225.539 138.636L257.483 204.256C260.732 210.93 270.312 211.638 276.914 205.692L333.54 154.696C339.299 149.51 347.529 149.104 351.923 153.788C356.317 158.473 355.21 166.475 349.452 171.661L292.826 222.656C272.615 240.858 243.287 238.69 233.342 218.259L204.031 158.047L153.28 219.301C136.06 240.085 105.831 243.028 91.9666 225.27L53.1235 175.516C49.1732 170.456 50.893 162.447 56.9647 157.626C63.0364 152.805 71.1608 152.999 75.1111 158.059L113.954 207.812C118.483 213.613 128.358 212.652 133.983 205.862L189.291 139.107C193.595 133.914 196.459 127.891 197.541 121.762L199.968 108.01C201.407 99.8596 196.947 92.847 189.185 91.0551L78.9741 65.6118C72.3194 64.0755 69.244 57.3032 72.1051 50.4854C74.5724 44.6057 80.6491 40.6124 86.543 40.6102C87.5858 40.5838 88.6251 40.6809 89.64 40.9131L200.797 66.3441C200.967 66.3829 201.135 66.4255 201.302 66.4717C212.772 69.6502 225.423 69.8001 238.094 66.9271C239.973 66.2385 241.886 65.6457 243.827 65.1554ZM86.5635 42.1867L86.5436 42.1868C81.3131 42.1888 75.7993 45.7779 73.5691 51.0923C72.289 54.1428 72.3737 57.0831 73.417 59.3806C74.4541 61.6644 76.4812 63.4177 79.333 64.0761L189.544 89.5194C198.185 91.5142 203.104 99.3672 201.53 108.283L199.103 122.035C197.97 128.453 194.979 134.723 190.516 140.11L135.207 206.865C132.132 210.576 127.875 212.722 123.712 213.128C119.546 213.533 115.364 212.19 112.701 208.779L73.8579 159.025C70.6161 154.873 63.5674 154.401 57.9548 158.858C52.338 163.317 51.1173 170.375 54.3768 174.55L93.2198 224.303C99.7532 232.672 110.196 236.242 121.21 235.17C132.228 234.097 143.708 228.374 152.055 218.299L204.38 155.145L234.77 217.573C239.46 227.207 248.726 232.587 259.352 233.373C269.994 234.159 281.957 230.317 291.761 221.488L348.387 170.493C353.71 165.699 354.369 158.708 350.763 154.863C347.137 150.998 339.932 151.067 334.605 155.865L277.979 206.86C274.376 210.105 269.909 211.58 265.823 211.278C261.721 210.975 257.962 208.861 256.055 204.942L224.111 139.322C221.467 133.89 220.693 127.575 221.827 121.154L223.634 110.914C225.278 101.601 232.288 93.3446 241.235 89.5116L241.353 89.4611L241.477 89.4301C241.878 89.3304 242.278 89.2284 242.678 89.1242L247.341 87.9094L362.108 60.3834C368.681 58.8068 373.534 52.5348 373.116 46.6291C372.771 41.7585 368.93 38.4951 363.838 38.5781L363.829 38.5783C362.945 38.5874 362.019 38.6988 361.065 38.9253L244.978 66.4973C242.831 67.0071 240.716 67.6465 238.643 68.4063L238.547 68.4415L238.447 68.4642C225.544 71.3898 212.623 71.2458 200.876 67.9903C200.732 67.9507 200.587 67.914 200.441 67.8805L89.2842 42.4495C88.4061 42.2486 87.5002 42.1631 86.5834 42.1862L86.5635 42.1867Z" fill="black"/>
<path d="M150.89 81.0385L199.56 68.0598L149.267 56.7034L103.842 69.6821L150.89 81.0385Z" fill="white" fill-opacity="0.3"/>
</svg>
