<svg width="1479" height="1081" viewBox="0 0 1479 1081" fill="none" xmlns="http://www.w3.org/2000/svg">
<path d="M144.566 53.0621L144.591 53.0621L144.616 53.0614C147.086 52.9986 149.539 53.2303 151.926 53.7797L432.219 118.301C432.618 118.393 433.013 118.493 433.403 118.602C462.677 126.764 494.918 127.137 527.161 119.781L527.287 119.752L527.408 119.708C532.708 117.753 538.118 116.108 543.609 114.796L543.734 114.766L543.854 114.72L826.07 7.61112C828.572 7.02232 831.014 6.72962 833.359 6.70521L833.371 6.70501C834.684 6.68347 836.255 7.18872 838.081 8.35502C839.897 9.51502 841.838 11.2482 843.846 13.4658C847.861 17.9006 851.948 24.054 855.653 30.7492C859.35 37.431 862.624 44.5761 865.034 50.945C867.464 57.3674 868.947 62.826 869.184 66.1925C870.316 82.2728 857.3 98.9742 839.899 103.173L550.542 173.001L550.523 173.006L550.504 173.011L538.783 176.083C537.767 176.349 536.751 176.609 535.734 176.864L535.577 176.904L535.429 176.968C513.427 186.451 496.242 206.873 492.224 229.777L487.667 255.756C484.874 271.677 486.791 287.268 493.258 300.636L573.807 467.121C578.26 476.325 587.043 481.349 596.787 482.073C606.511 482.797 617.243 479.264 625.948 471.377L626.117 471.223L626.247 471.035L744.263 301.097C751.101 295.006 762.794 290.927 774.546 293.179C786.244 295.42 798.3 304.003 805.64 323.906L805.674 323.997L805.716 324.085C812.739 338.605 816.216 350.077 816.262 359.418C816.308 368.62 813.026 375.863 806.174 382.072L663.385 511.453C638.284 534.198 607.586 544.158 580.172 542.119C552.778 540.081 528.716 526.089 516.534 500.909L442.623 348.143L441.263 345.332L439.279 347.743L311.305 503.151C289.925 529.115 260.495 543.9 232.176 546.674C203.862 549.447 176.798 540.219 159.821 518.34L61.8742 392.109C60.7787 390.698 59.389 389.043 57.8159 387.17C51.9689 380.21 43.5888 370.233 38.3704 358.493C35.0858 351.103 33.1368 343.16 33.8882 335.015C34.6331 326.941 38.0449 318.508 45.7338 310.076C48.7259 307.781 53.5331 307.712 59.9456 309.854C66.3215 311.984 73.654 316.101 80.9315 321.074C95.5004 331.03 109.342 344.062 114.158 350.269L212.105 476.5C218.317 484.506 228.13 487.745 238.095 486.769C248.057 485.794 258.31 480.613 265.733 471.598L405.2 302.233C416.252 288.811 423.634 273.218 426.427 257.301L432.548 222.411C436.345 200.762 424.522 181.906 403.845 177.1C403.843 177.1 403.841 177.099 403.839 177.099L100.351 105.066L100.341 105.064C96.9049 104.265 93.6341 101.372 90.7583 96.7058C87.9103 92.0843 85.6325 86.0091 84.0704 79.4314C82.5113 72.8659 81.6871 65.8917 81.6924 59.521C81.6978 53.1175 82.5414 47.4772 84.2022 43.4952C85.2732 40.9274 87.8822 39.6569 92.5779 39.7352C97.237 39.8129 103.193 41.2443 109.636 43.2144C113.435 44.3761 117.256 45.6754 121.012 46.9529C123.662 47.8541 126.281 48.7444 128.836 49.5678C134.831 51.4991 140.485 53.0637 144.566 53.0621Z" fill="#5E6FDB" stroke="black" stroke-width="4"/>
<path d="M120.817 12.0929L120.843 12.0929L120.868 12.0923C123.335 12.0295 125.795 12.2604 128.2 12.8141L408.493 77.3356C408.895 77.4281 409.293 77.5295 409.688 77.6395C438.918 85.7893 471.158 86.1735 503.446 78.807L503.593 78.7735L503.738 78.7203C509.022 76.7717 514.418 75.1303 519.897 73.8208L812.624 3.86735C815.149 3.2641 817.619 2.96262 820.001 2.93783L820.013 2.93763C833.859 2.71038 844.807 11.82 845.777 25.6014C846.912 41.7245 833.965 58.1415 816.857 62.2698L527.5 132.097L527.478 132.103L527.457 132.108L515.736 135.181C514.721 135.447 513.705 135.707 512.69 135.961L512.504 136.008L512.324 136.085C490.126 145.653 472.846 166.249 468.818 189.209L464.26 215.189C461.466 231.117 463.395 246.647 469.815 259.916L550.363 426.401C559.074 444.405 584.759 446.315 602.459 430.276L745.248 300.894C758.878 288.543 778.358 287.575 788.758 298.731C799.158 309.887 796.539 328.943 782.909 341.294L640.121 470.676C590.209 515.901 517.786 510.515 493.225 459.75L419.314 306.984L418.084 304.441L415.953 307.028L287.98 462.437C245.454 514.08 170.803 521.392 136.566 477.268L38.6189 351.037C29.2691 338.987 33.3395 319.912 47.7105 308.432C62.0814 296.952 81.3109 297.413 90.6608 309.463L188.608 435.693C200.75 451.342 227.224 448.749 242.306 430.434L381.772 261.068C392.888 247.57 400.286 231.918 403.08 215.99L409.201 181.099C412.989 159.508 401.247 140.933 380.812 136.186L102.904 71.6331C87.1534 67.9745 79.8745 51.8466 86.6462 35.6106C92.4851 21.611 106.867 12.0983 120.817 12.0929Z" fill="#B0B8ED" stroke="black" stroke-width="4"/>
<path d="M270.32 104.893L378.272 76.1055L266.722 50.9167L165.967 79.7039L270.32 104.893Z" fill="white" fill-opacity="0.3"/>
<path d="M986.132 176.569L986.04 176.56H985.948C985.338 176.56 984.273 176.389 982.737 175.983C981.242 175.588 979.431 175.006 977.386 174.269C973.3 172.798 968.371 170.742 963.33 168.425C953.185 163.763 942.859 158.17 938.048 154.284C936.721 153.212 936.1 151.409 936.1 149.159L936.1 118.081C936.1 114.487 936.451 111.909 937.458 110.241C938.317 108.819 939.865 107.735 943.359 107.735H1328.14C1331.69 107.735 1335.76 108.989 1339.46 111.111C1343.16 113.234 1346.3 116.117 1348.09 119.178L1374.17 163.767C1375.28 165.666 1375.87 167.825 1375.9 170.047C1376.09 183.367 1377.12 205.338 1377.47 212.524C1377.47 212.539 1377.47 212.545 1377.47 212.547C1377.47 212.552 1377.46 212.559 1377.46 212.566C1377.45 212.574 1377.44 212.578 1377.43 212.58C1377.43 212.582 1377.42 212.584 1377.41 212.583L986.132 176.569Z" fill="#BAD5D2" stroke="black" stroke-width="4"/>
<rect x="3.00966" y="1.72644" width="409.593" height="80.3647" rx="12.4037" transform="matrix(1 0 0.504829 0.863219 928.085 147.126)" fill="#53978E" stroke="black" stroke-width="4"/>
<path d="M1069.46 320.603L1069.37 320.595H1069.28C1068.67 320.595 1067.6 320.424 1066.07 320.018C1064.57 319.622 1062.76 319.04 1060.71 318.304C1056.63 316.832 1051.7 314.777 1046.66 312.46C1036.51 307.798 1026.19 302.205 1021.38 298.319C1020.05 297.247 1019.43 295.443 1019.43 293.193L1019.43 262.116C1019.43 258.522 1019.78 255.944 1020.79 254.276C1021.65 252.854 1023.19 251.77 1026.69 251.77H1411.47C1415.02 251.77 1419.09 253.023 1422.79 255.146C1426.49 257.269 1429.63 260.152 1431.42 263.213L1457.5 307.802C1458.61 309.7 1459.19 311.86 1459.23 314.082C1459.42 327.402 1460.45 349.372 1460.8 356.559L1462.8 356.462L1460.8 356.559C1460.8 356.569 1460.8 356.574 1460.8 356.578C1460.8 356.58 1460.8 356.581 1460.8 356.582C1460.8 356.586 1460.79 356.594 1460.78 356.601C1460.78 356.606 1460.77 356.609 1460.77 356.612C1460.77 356.613 1460.76 356.614 1460.76 356.615C1460.76 356.615 1460.76 356.616 1460.76 356.617C1460.75 356.618 1460.74 356.618 1460.73 356.617L1069.46 320.603Z" fill="#BAD5D2" stroke="black" stroke-width="4"/>
<path d="M1021.28 302.349C1019.48 299.275 1019.56 296.968 1020.37 295.561C1021.17 294.155 1023.13 292.925 1026.69 292.925H1411.47C1415.02 292.925 1419.09 294.178 1422.79 296.301C1426.49 298.424 1429.63 301.307 1431.42 304.368L1459.47 352.326C1461.27 355.4 1461.19 357.707 1460.38 359.113C1459.58 360.519 1457.62 361.75 1454.06 361.75H1069.28C1065.73 361.75 1061.66 360.496 1057.96 358.373C1054.26 356.251 1051.12 353.367 1049.33 350.307L1021.28 302.349Z" fill="#53978E" stroke="black" stroke-width="4"/>
<path d="M1072.68 110.808L990.79 147.222H1087.02L1160.72 110.808H1072.68Z" fill="white" fill-opacity="0.5"/>
<path d="M1156.72 1024.1C1156.88 1023.7 1157 1023.37 1157.1 1023.11C1153.47 1013.36 1147.24 1001.52 1138.95 987.38C1132.01 975.545 1123.7 962.188 1114.35 947.185C1112.28 943.862 1110.16 940.458 1108 936.972C1084.12 898.549 1054.72 850.333 1025.4 791.121C955.067 649.061 894.191 526.879 890.065 519.505C887.522 514.961 880.186 506.412 870.117 499.62C860.106 492.868 847.669 488.033 834.778 490.385L834.778 490.385C824.386 492.28 818.51 499.222 814.454 507.241C812.425 511.251 810.885 515.463 809.453 519.383L809.409 519.503C808.015 523.32 806.691 526.948 805.111 529.621C802.151 534.632 801.542 542.011 804.112 553.711C806.681 565.409 812.363 581.15 821.636 602.62C838.94 642.682 868.552 702.257 913.106 791.895C916.293 798.307 919.557 804.874 922.898 811.599L1055.42 1078.29L1092.92 1075.96C1093.51 1075.92 1094.09 1075.88 1094.67 1075.85C1104.94 1075.21 1113.6 1074.67 1120.63 1073.44C1128.05 1072.13 1133.34 1070.09 1136.66 1066.58C1138.29 1064.86 1140.42 1061.31 1142.73 1056.76C1145.01 1052.27 1147.39 1046.97 1149.56 1041.89C1151.73 1036.81 1153.67 1031.96 1155.07 1028.38C1155.77 1026.6 1156.33 1025.13 1156.72 1024.1Z" fill="#FF9999" stroke="black" stroke-width="4"/>
<path d="M1040.83 759.661L1040.82 759.652C970.489 617.592 909.612 495.41 905.487 488.036C904.284 485.887 902.777 484.257 900.845 483.031C898.885 481.787 896.351 480.873 893.01 480.371C886.261 479.355 876.713 480.081 863.134 482.558L863.134 482.558C861.508 482.855 859.923 483.14 858.379 483.418C851.517 484.652 845.459 485.742 840.21 487.04C833.781 488.629 828.76 490.487 825.121 493.167C821.534 495.809 819.241 499.284 818.344 504.257C817.436 509.29 817.943 515.946 820.169 524.963C824.631 543.027 835.826 569.939 855.141 610.885C872.668 648.042 896.807 696.608 928.506 760.383C931.701 766.809 934.972 773.39 938.32 780.129L1070.84 1046.82L1108.34 1044.49C1109.03 1044.44 1109.72 1044.4 1110.39 1044.36C1118.86 1043.83 1126.27 1043.38 1132.58 1042.53C1139.4 1041.61 1144.76 1040.25 1148.7 1037.98C1152.58 1035.75 1155.12 1032.6 1156.27 1027.95C1157.43 1023.24 1157.18 1016.85 1155.22 1008.1C1151.28 990.567 1140.6 964.207 1121.87 924.238C1103.17 884.318 1076.55 831.01 1040.83 759.661Z" fill="#FFB5B5" stroke="black" stroke-width="4"/>
<path d="M1071.9 1045.41L1056.17 1076.88" stroke="black" stroke-width="4"/>
<path d="M947.195 793.548L1013.95 712.629L1048.34 781.41L979.563 858.284L947.195 793.548Z" fill="white" fill-opacity="0.3"/>
<path d="M240.703 907.643C240.643 903.541 240.585 899.568 240.566 896.014C242.557 896.22 244.56 896.422 246.575 896.622L246.975 892.642L246.969 892.641C246.969 892.641 246.969 892.641 246.968 892.641L238.77 891.805C225.814 890.444 213.407 888.948 201.546 887.318C187.45 885.217 174.388 882.79 162.358 880.038L162.347 880.036L162.335 880.033C147.812 876.889 134.323 873.158 121.865 868.844C109.424 864.272 97.9009 858.921 87.2908 852.796C68.041 841.682 53.7916 830.053 44.4223 817.949C35.0602 805.592 30.8331 793.339 31.4863 781.143L31.4873 781.126L31.4879 781.109C31.5947 778.15 31.4258 773.484 31.2276 768.009C31.2079 767.463 31.1878 766.909 31.1677 766.348C30.9443 760.109 30.7097 752.885 30.7724 745.679C30.8353 738.464 31.1963 731.329 32.1483 725.264C33.1131 719.116 34.6381 714.408 36.7915 711.749C38.8423 709.252 41.637 708.333 45.3578 708.371C49.0944 708.408 53.4327 709.407 58.3555 710.541C58.4674 710.567 58.5797 710.593 58.6922 710.618C68.5193 712.88 80.459 715.592 91.0548 709.475C107.526 699.965 125.474 692.99 144.906 688.554C164.368 684.112 184.054 682.022 203.967 682.282C223.663 682.675 242.785 685.224 261.337 689.926C279.887 694.628 296.479 701.215 311.128 709.673C322.845 716.437 331.877 723.735 338.301 731.536L338.311 731.548L338.322 731.561C339.409 732.838 340.772 733.654 342.378 733.637C343.888 733.62 345.173 732.865 346.171 732.023C348.138 730.363 349.928 727.548 351.397 725.105C351.722 724.563 352.029 724.044 352.325 723.544C352.738 722.846 353.129 722.185 353.518 721.551C353.904 720.924 354.25 720.387 354.559 719.948C355.039 722.132 355.36 726.04 355.522 731.104C355.702 736.747 355.681 743.557 355.553 750.411C355.297 764.121 354.614 777.906 354.274 782.672C353.6 791.88 351.914 801.431 349.208 811.328L349.18 811.427L349.164 811.529L344.031 842.545L343.673 844.705L345.857 844.866L560.06 860.671L563.58 860.93L561.994 857.778C555.716 845.292 546.445 833.134 534.234 821.293C522.213 809.378 507.004 798.082 488.639 787.391V737.927L545.029 704.716C552.067 708.997 559.568 715.833 567.189 724.128C575.152 732.795 583.154 742.954 590.793 753.23C596.632 761.084 602.238 768.978 607.447 776.313C609.056 778.578 610.627 780.79 612.155 782.931C618.605 791.967 624.327 799.788 628.859 804.887L628.866 804.894L628.872 804.901C638.037 815.014 648.863 816.025 657.442 816.825C657.846 816.863 658.245 816.9 658.639 816.938C663.129 817.368 666.662 817.839 669.323 819.342C671.783 820.73 673.719 823.145 674.554 828.147L674.84 829.859L676.575 829.817L805.945 826.672V875.697L712.693 929.535L656.162 925.431L654.528 925.313L654.09 926.892C652.295 933.37 649.937 939.789 647.014 946.149L647.005 946.169L646.996 946.189C644.311 952.39 641.066 958.402 637.26 964.224C630.526 973.548 622.092 982.575 611.941 991.301L611.924 991.315L611.908 991.33C602.223 1000.04 590.366 1008.46 576.316 1016.57C553.651 1029.66 529.858 1039.6 504.932 1046.4C479.988 1053.21 455.286 1056.87 430.822 1057.39C406.349 1057.92 382.45 1055.5 359.121 1050.14C335.804 1044.52 314.431 1036.09 294.993 1024.87C280.079 1016.26 268.533 1007.11 260.282 997.46C252.234 987.646 246.678 977.362 243.568 966.605C241.119 957.209 240.112 947.349 240.557 937.016C241.025 929.7 240.858 918.241 240.703 907.643ZM479.215 994.569L479.227 994.567L334.113 907.512L336.081 907.868L334.112 907.515L334.113 907.512C332.468 916.603 332.811 925.272 335.179 933.49C337.281 941.436 340.33 948.363 344.354 954.238C348.323 960.034 352.773 965.042 357.71 969.25L357.734 969.271L357.76 969.291C362.616 973.163 367.375 976.449 372.036 979.14C382.222 985.021 393.323 989.692 405.331 993.158L405.35 993.164L405.37 993.169C417.387 996.371 429.636 998.106 442.113 998.373C454.597 998.64 466.966 997.372 479.215 994.569ZM141.938 796.785L141.955 796.804L141.972 796.822C146.932 802.141 153.491 807.13 161.597 811.809C167.643 815.3 174.367 818.377 181.764 821.046L181.776 821.05C188.921 823.579 196.856 825.902 205.578 828.022C213.612 830.01 222.211 831.797 231.375 833.384L231.393 833.387L231.41 833.39C240.784 834.842 250.727 836.227 261.237 837.547L263.033 837.772L263.436 836.007L271.627 800.146C273.953 793.126 274.703 786.753 273.722 781.09C272.757 775.519 270.578 770.601 267.174 766.378C264.312 762.53 260.861 759.168 256.83 756.294L256.822 756.288C252.683 753.367 248.98 750.961 245.719 749.078C239.413 745.437 232.426 742.482 224.766 740.203C216.878 737.792 208.978 736.315 201.071 735.777C192.928 735.107 184.895 735.443 176.975 736.788C169.01 738.14 161.823 740.65 155.437 744.337C146.614 749.431 140.253 754.974 136.59 761.037C132.972 767.026 131.665 773.053 132.913 779.028C133.906 785.261 136.967 791.181 141.938 796.785Z" fill="#FFCA31" stroke="black" stroke-width="4"/>
<path d="M31.4871 728.511C31.9239 716.404 36.945 704.297 46.7786 692.167C56.8434 679.901 71.5695 668.127 91.0539 656.877C107.526 647.368 125.473 640.392 144.905 635.957C164.367 631.514 184.053 629.424 203.966 629.685C223.662 630.077 242.784 632.626 261.336 637.328C279.886 642.03 296.478 648.617 311.128 657.075C322.844 663.84 331.877 671.137 338.3 678.938L338.311 678.951L338.321 678.963C344.768 686.536 349.059 694.504 351.254 702.869L351.265 702.908L351.276 702.946C353.94 711.66 354.941 720.698 354.274 730.075C353.599 739.283 351.913 748.834 349.207 758.73L349.18 758.83L349.163 758.931L344.03 789.948L343.673 792.108L345.856 792.269L560.06 808.073L563.579 808.333L561.994 805.18C555.715 792.695 546.445 780.536 534.233 768.696C522.647 757.212 508.099 746.303 490.62 735.957L558.152 696.967C587.889 714.241 611.438 732.69 628.858 752.289L628.865 752.296L628.871 752.303C646.69 771.967 657.313 792.503 660.888 813.915L661.146 815.465L662.714 815.58L801.315 825.772L712.693 876.938L656.162 872.834L654.527 872.715L654.089 874.294C652.294 880.772 649.936 887.191 647.014 893.551L647.004 893.572L646.996 893.592C644.311 899.793 641.066 905.804 637.259 911.626C630.525 920.95 622.091 929.977 611.941 938.703L611.924 938.718L611.907 938.733C602.222 947.445 590.366 955.861 576.316 963.972C553.651 977.058 529.857 987.001 504.932 993.804C479.988 1000.61 455.285 1004.27 430.821 1004.8C406.348 1005.32 382.449 1002.9 359.12 997.54C335.803 991.918 314.43 983.492 294.992 972.27C280.078 963.659 268.532 954.514 260.281 944.862C252.233 935.049 246.677 924.764 243.568 914.008C241.118 904.611 240.111 894.751 240.556 884.419C241.232 873.922 243.254 862.88 246.638 851.287L246.653 851.237L246.665 851.186L248.718 842.494L249.243 840.269L246.969 840.044C231.027 838.466 215.886 836.691 201.545 834.72C187.45 832.62 174.388 830.193 162.357 827.441L162.346 827.438L162.335 827.436C147.811 824.291 134.322 820.56 121.865 816.246C109.424 811.674 97.9001 806.324 87.2899 800.198C68.0402 789.084 53.7907 777.455 44.4215 765.352C35.0593 752.994 30.8322 740.741 31.4855 728.546L31.4864 728.529L31.4871 728.511ZM479.214 941.972L479.226 941.969L334.112 854.914L336.08 855.27L334.111 854.918L334.112 854.915C332.467 864.006 332.81 872.675 335.179 880.893C337.28 888.838 340.329 895.765 344.353 901.641C348.322 907.437 352.772 912.445 357.709 916.652L357.734 916.673L357.759 916.694C362.615 920.566 367.374 923.851 372.035 926.542C382.222 932.423 393.322 937.094 405.33 940.561L405.35 940.566L405.369 940.572C417.386 943.774 429.635 945.508 442.113 945.775C454.596 946.042 466.965 944.774 479.214 941.972ZM141.938 744.188L141.954 744.206L141.971 744.225C146.931 749.543 153.49 754.532 161.596 759.212C167.642 762.702 174.367 765.78 181.763 768.449L181.775 768.453C188.92 770.981 196.855 773.304 205.577 775.424C213.611 777.412 222.21 779.199 231.374 780.787L231.392 780.79L231.41 780.792C240.783 782.244 250.726 783.63 261.236 784.949L263.032 785.174L263.435 783.41L271.626 747.549C273.952 740.528 274.702 734.155 273.721 728.493C272.756 722.921 270.577 718.003 267.173 713.78C264.311 709.932 260.86 706.571 256.829 703.696L256.821 703.691C252.682 700.77 248.98 698.363 245.718 696.481C239.412 692.84 232.425 689.884 224.765 687.605C216.877 685.195 208.977 683.718 201.07 683.18C192.927 682.509 184.894 682.845 176.975 684.19C169.009 685.543 161.822 688.053 155.436 691.739C146.613 696.833 140.253 702.376 136.589 708.439C132.971 714.428 131.664 720.456 132.912 726.431C133.905 732.663 136.966 738.583 141.938 744.188Z" fill="#FFE598" stroke="black" stroke-width="4"/>
<path d="M712.94 876.371L712.94 928.969" stroke="black" stroke-width="4"/>
<path d="M342.324 781.41L194.647 831.984C166.44 826.284 150.654 823.244 121.819 813.777L210.83 779.387C217.304 781.005 249.941 785.456 265.451 787.479V785.456L275.566 740.95L352.439 734.881L342.324 781.41Z" fill="white" fill-opacity="0.4"/>
<path d="M1060.64 594.66C1090.65 611.984 1139.3 611.984 1169.3 594.66C1184.31 585.998 1191.81 574.648 1191.81 563.293C1191.81 562.385 1191.9 560.072 1192.02 556.99C1192.18 553.121 1192.38 548.038 1192.51 542.998C1192.63 538.447 1192.69 533.913 1192.6 530.274C1192.56 528.453 1192.48 526.869 1192.35 525.626C1192.22 524.333 1192.05 523.538 1191.89 523.207C1191.87 523.16 1191.85 523.116 1191.83 523.075C1191.33 523.403 1190.75 523.865 1190.06 524.46C1189.47 524.962 1188.88 525.503 1188.24 526.081C1187.89 526.394 1187.54 526.717 1187.17 527.05C1185.15 528.855 1182.68 530.955 1179.92 532.191C1178.51 532.824 1176.79 533.34 1174.82 533.359C1172.77 533.378 1170.91 532.855 1169.3 531.925C1139.3 514.601 1090.65 514.601 1060.64 531.925C1058.95 532.903 1057.03 533.47 1054.92 533.48C1052.87 533.488 1051.08 532.963 1049.63 532.301C1046.81 531.016 1044.39 528.809 1042.46 526.922C1042.02 526.491 1041.6 526.083 1041.21 525.693C1040.69 525.172 1040.2 524.684 1039.71 524.217C1039.25 523.776 1038.84 523.409 1038.48 523.115C1038.47 523.125 1038.47 523.134 1038.47 523.144C1038.36 523.415 1038.24 524.174 1038.13 525.452C1038.04 526.679 1037.97 528.266 1037.92 530.102C1037.82 533.772 1037.81 538.397 1037.84 543.031C1037.89 549.009 1038 555.036 1038.07 558.998C1038.11 561.154 1038.14 562.699 1038.14 563.293C1038.14 574.648 1045.64 585.998 1060.64 594.66ZM1191.39 522.466C1191.39 522.466 1191.39 522.467 1191.4 522.47C1191.39 522.467 1191.39 522.466 1191.39 522.466ZM1039.02 522.191C1039.02 522.191 1039.01 522.194 1039.01 522.199C1039.01 522.194 1039.02 522.191 1039.02 522.191Z" fill="#FFB681" stroke="black" stroke-width="4"/>
<path d="M1424.25 656.793L1424.25 656.618C1423.87 656.917 1423.44 657.294 1422.95 657.75C1422.44 658.221 1421.94 658.716 1421.39 659.245C1421 659.629 1420.59 660.031 1420.15 660.454C1418.17 662.342 1415.71 664.545 1412.86 665.828C1411.4 666.488 1409.61 667.01 1407.55 667.001C1405.44 666.992 1403.51 666.426 1401.82 665.446C1371.81 648.122 1323.16 648.122 1293.15 665.446C1291.43 666.443 1289.43 666.994 1287.24 666.911C1285.15 666.831 1283.37 666.191 1281.95 665.442C1279.15 663.966 1276.71 661.521 1274.72 659.38C1274.23 658.851 1273.78 658.356 1273.35 657.882C1272.85 657.331 1272.38 656.809 1271.9 656.297C1271.38 655.752 1270.92 655.289 1270.52 654.914C1270.43 655.304 1270.35 656.003 1270.28 657.028C1270.19 658.31 1270.13 659.977 1270.1 661.908C1270.04 665.768 1270.08 670.646 1270.16 675.533C1270.26 681.316 1270.41 687.131 1270.52 691.258C1270.6 694.086 1270.65 696.122 1270.65 696.814C1270.65 708.169 1278.15 719.519 1293.15 728.182C1323.16 745.506 1371.81 745.506 1401.82 728.182C1415.96 720.018 1423.43 709.467 1424.25 698.775C1424.4 696.785 1424.4 686.215 1424.36 676.074C1424.34 671.019 1424.31 666.09 1424.29 662.426C1424.28 660.593 1424.26 659.077 1424.26 658.019L1424.25 656.793ZM1271.08 653.781C1271.08 653.781 1271.08 653.784 1271.07 653.793C1271.08 653.786 1271.08 653.781 1271.08 653.781ZM1423.76 655.719C1423.76 655.72 1423.76 655.722 1423.77 655.727C1423.76 655.722 1423.76 655.719 1423.76 655.719Z" fill="#FFB681" stroke="black" stroke-width="4"/>
<circle r="62.7354" transform="matrix(-0.866025 0.5 0.866025 0.5 1114.97 522.834)" fill="#FFDBC0" stroke="black" stroke-width="4"/>
<circle r="62.7354" transform="matrix(-0.866025 0.5 0.866025 0.5 1347.49 656.351)" fill="#FFDBC0" stroke="black" stroke-width="4"/>
<path d="M1141.4 482.373L1042.28 530.925C1045.51 542.254 1061.16 551.829 1068.57 555.201L1169.72 494.511C1161.63 488.038 1147.47 483.722 1141.4 482.373Z" fill="white" fill-opacity="0.3"/>
</svg>
