<svg width="365" height="266" viewBox="0 0 365 266" fill="none" xmlns="http://www.w3.org/2000/svg">
<path fill-rule="evenodd" clip-rule="evenodd" d="M29.5034 12.4459C30.1512 12.4294 30.7967 12.4901 31.4272 12.6352L100.475 28.5295C100.58 28.5538 100.685 28.5804 100.788 28.6093C107.913 30.5958 115.772 30.6895 123.643 28.8939C124.966 28.4058 126.317 27.9948 127.69 27.6669L197.241 1.27019C197.903 1.11205 198.551 1.03287 199.176 1.02635C202.81 0.966711 208.243 12.521 208.498 16.1385C208.796 20.37 205.398 24.6785 200.908 25.762L129.628 42.9634L126.74 43.7201C126.488 43.7862 126.236 43.8508 125.984 43.914C120.702 46.1907 116.59 51.0921 115.631 56.5557L114.509 62.9556C113.837 66.786 114.3 70.5205 115.844 73.7115L135.687 114.724C137.705 118.895 143.656 119.337 147.757 115.621L176.861 73.7115C180.439 70.4702 189.099 69.4103 192.815 79.488C196.297 86.6863 196.393 91.1107 192.815 94.3521L157.641 126.224C145.086 137.6 126.869 136.245 120.691 123.476L102.484 85.8435L70.9587 124.127C60.2619 137.117 41.4844 138.956 32.8724 127.857L8.74415 96.7617C6.29033 93.5993 -3.09682 84.5268 4.82131 75.8888C8.59289 72.8759 19.9485 82.6884 22.4023 85.8508L46.5305 116.946C49.3437 120.572 55.4776 119.971 58.9718 115.728L93.328 74.0063C96.0011 70.7601 97.7802 66.9962 98.4522 63.1657L99.96 54.5708C100.854 49.4766 98.0834 45.0937 93.2618 43.9738L18.498 26.2286C14.3642 25.2684 12.4018 14.6533 14.179 10.3922C15.7116 6.71748 25.8423 12.4473 29.5034 12.4459Z" fill="#5E6FDB"/>
<path fill-rule="evenodd" clip-rule="evenodd" d="M127.204 27.7866C127.366 27.7455 127.527 27.7056 127.69 27.6669L197.241 1.27019C197.903 1.11205 198.551 1.03287 199.176 1.02635C202.81 0.966711 208.243 12.521 208.498 16.1385C208.796 20.37 205.398 24.6785 200.908 25.762L129.628 42.9634L126.74 43.7201C126.488 43.7862 126.236 43.8508 125.984 43.914C120.702 46.1907 116.59 51.0921 115.631 56.5557L114.509 62.9556C113.837 66.786 114.3 70.5205 115.844 73.7115L135.687 114.724C137.705 118.895 143.656 119.337 147.757 115.621L176.861 73.7115C180.439 70.4702 189.099 69.4103 192.815 79.488C196.297 86.6863 196.393 91.1107 192.815 94.3521L157.641 126.224C145.086 137.6 126.869 136.245 120.691 123.476L102.484 85.8435L70.9587 124.127C60.2619 137.117 41.4844 138.956 32.8724 127.857L8.74415 96.7617C8.48903 96.4329 8.15897 96.0402 7.7812 95.5908C4.52546 91.7175 -2.27359 83.6287 4.82131 75.8888C8.59289 72.8759 19.9485 82.6884 22.4023 85.8508L46.5305 116.946C49.3437 120.572 55.4776 119.971 58.9718 115.728L93.328 74.0063C96.0011 70.7601 97.7802 66.9962 98.4522 63.1657L99.96 54.5708C100.854 49.4766 98.0834 45.0937 93.2618 43.9738L18.498 26.2286C14.3642 25.2684 12.4018 14.6533 14.179 10.3922C15.171 8.01363 19.7655 9.57532 23.876 10.9725C26.1159 11.7339 28.2121 12.4464 29.5034 12.4459C30.1512 12.4294 30.7967 12.4901 31.4272 12.6352L100.475 28.5295C100.58 28.5538 100.685 28.5804 100.788 28.6093C107.913 30.5958 115.772 30.6895 123.643 28.8939C124.81 28.4635 125.998 28.093 127.204 27.7866ZM93.4847 43.014L18.7255 25.2698L18.7209 25.2688C18.0612 25.1155 17.3475 24.5337 16.6682 23.4313C16.0025 22.3512 15.4576 20.9081 15.0806 19.3206C14.705 17.7391 14.5068 16.0594 14.5081 14.5301C14.5094 12.9846 14.7145 11.6681 15.0884 10.7715C15.2329 10.4251 15.5978 10.1301 16.6887 10.1483C17.7617 10.1662 19.1715 10.4997 20.7549 10.9839C21.6894 11.2696 22.6119 11.5835 23.5274 11.8949C24.1805 12.1171 24.8301 12.3381 25.4778 12.5467C26.9429 13.0187 28.4086 13.4317 29.5038 13.4313L29.5162 13.4313L29.5285 13.431C30.098 13.4165 30.6607 13.4699 31.2062 13.5955L100.254 29.4897C100.345 29.5107 100.435 29.5336 100.524 29.5584C107.821 31.5931 115.847 31.6831 123.862 29.8545L123.924 29.8404L123.984 29.8184C125.271 29.3435 126.585 28.9439 127.919 28.6252L127.98 28.6105L197.53 2.21449C198.101 2.08236 198.656 2.01719 199.187 2.01168L199.192 2.01158C199.385 2.00842 199.676 2.08334 200.079 2.34066C200.477 2.59487 200.922 2.9882 201.4 3.51511C202.353 4.56868 203.339 6.04859 204.242 7.68056C205.141 9.30588 205.938 11.0446 206.523 12.5914C207.119 14.1646 207.462 15.4535 207.515 16.2077C207.775 19.8988 204.76 23.8187 200.677 24.8041L129.387 42.0077L126.49 42.767C126.242 42.8321 125.993 42.8958 125.745 42.9582L125.667 42.9775L125.594 43.0091C120.036 45.4047 115.682 50.5648 114.661 56.3855L113.538 62.7853C112.834 66.7986 113.315 70.7455 114.957 74.1407L134.8 115.153C135.985 117.602 138.32 118.923 140.867 119.113C143.406 119.302 146.18 118.379 148.418 116.351L148.502 116.276L177.604 74.3696C179.185 72.9876 181.887 72.0529 184.601 72.5729C187.287 73.0877 190.133 75.0621 191.891 79.8289L191.907 79.8739L191.928 79.917C193.647 83.4714 194.466 86.218 194.477 88.4088C194.488 90.5318 193.741 92.1835 192.154 93.6219L156.979 125.494C150.889 131.012 143.458 133.413 136.848 132.922C130.247 132.431 124.491 129.068 121.578 123.047L102.701 84.0298L70.198 123.501C65.0127 129.798 57.8816 133.374 51.0377 134.045C44.1958 134.715 37.7093 132.484 33.6509 127.253L9.52264 96.1576C9.23764 95.7903 8.88295 95.3678 8.48587 94.8948C7.04544 93.1789 5.04712 90.7985 3.79367 87.9784C3.00727 86.2091 2.55478 84.3385 2.72992 82.4402C2.90172 80.578 3.68409 78.6113 5.4897 76.6183C6.02768 76.2321 6.98657 76.1578 8.50218 76.6642C10.0102 77.1679 11.773 78.1533 13.55 79.3676C17.1107 81.8009 20.4777 84.9778 21.6238 86.4548L45.752 117.55C47.4062 119.682 50.0038 120.522 52.5918 120.269C55.1778 120.015 57.8223 118.674 59.7325 116.354L94.0886 74.6326C96.8608 71.2661 98.719 67.3476 99.4227 63.336L100.931 54.7411C101.908 49.1695 98.8531 44.262 93.4868 43.0145C93.4861 43.0143 93.4854 43.0141 93.4847 43.014Z" fill="black"/>
<path fill-rule="evenodd" clip-rule="evenodd" d="M23.7449 2.36083C24.3926 2.34435 25.0382 2.40503 25.6686 2.55016L94.7161 18.4444C94.8217 18.4687 94.9263 18.4953 95.0298 18.5242C102.155 20.5107 110.014 20.6044 117.884 18.8088C119.208 18.3208 120.559 17.9097 121.931 17.5818L194.042 0.349417C194.703 0.191285 195.352 0.112101 195.977 0.105583C199.611 0.0459414 202.485 2.43594 202.739 6.05346C203.037 10.2849 199.639 14.5934 195.149 15.6769L123.869 32.8783L120.982 33.635C120.73 33.7011 120.478 33.7657 120.226 33.8289C114.943 36.1056 110.831 41.007 109.873 46.4706L108.75 52.8704C108.078 56.7009 108.542 60.4354 110.086 63.6264L129.928 104.639C131.946 108.81 137.897 109.252 141.998 105.536L177.173 73.6642C180.75 70.4229 185.862 70.1687 188.592 73.0966C191.321 76.0245 190.634 81.0256 187.057 84.267L151.882 116.139C139.328 127.515 121.11 126.16 114.932 113.391L96.7251 75.7584L65.2001 114.042C54.5033 127.032 35.7258 128.871 27.1138 117.772L2.98558 86.6766C0.531759 83.5142 1.60002 78.5081 5.3716 75.4951C9.14319 72.4821 14.1899 72.6032 16.6437 75.7657L40.772 106.861C43.5851 110.487 49.719 109.886 53.2132 105.643L87.5694 63.9212C90.2425 60.675 92.0216 56.9111 92.6936 53.0806L94.2014 44.4857C95.0951 39.3915 92.3248 35.0086 87.5032 33.8887L19.0432 17.9867C14.9095 17.0266 12.9992 12.7939 14.7764 8.53281C16.3091 4.85805 20.0837 2.36224 23.7449 2.36083Z" fill="#B0B8ED"/>
<path fill-rule="evenodd" clip-rule="evenodd" d="M121.445 17.7015C121.607 17.6605 121.769 17.6205 121.931 17.5818L194.042 0.349417C194.703 0.191285 195.352 0.112101 195.977 0.105583C199.611 0.0459414 202.485 2.43594 202.739 6.05346C203.037 10.2849 199.639 14.5934 195.149 15.6769L123.869 32.8783L120.982 33.635C120.73 33.7011 120.478 33.7657 120.226 33.8289C114.943 36.1056 110.831 41.007 109.873 46.4706L108.75 52.8704C108.078 56.7009 108.542 60.4354 110.086 63.6264L129.928 104.639C131.946 108.81 137.897 109.252 141.998 105.536L177.173 73.6642C180.75 70.4229 185.862 70.1687 188.592 73.0966C191.321 76.0245 190.634 81.0256 187.057 84.267L151.882 116.139C139.328 127.515 121.11 126.16 114.932 113.391L96.7251 75.7584L65.2001 114.042C54.5033 127.032 35.7258 128.871 27.1138 117.772L2.98558 86.6766C0.531759 83.5142 1.60002 78.5081 5.3716 75.4951C9.14319 72.4821 14.1899 72.6032 16.6437 75.7657L40.772 106.861C43.5851 110.487 49.719 109.886 53.2132 105.643L87.5694 63.9212C90.2425 60.675 92.0216 56.9111 92.6936 53.0806L94.2014 44.4857C95.0951 39.3915 92.3248 35.0086 87.5032 33.8887L19.0432 17.9867C14.9095 17.0266 12.9992 12.7939 14.7764 8.53281C16.3091 4.85805 20.0837 2.36224 23.7449 2.36083C24.3926 2.34435 25.0382 2.40503 25.6686 2.55016L94.7161 18.4444C94.8217 18.4687 94.9263 18.4953 95.0298 18.5242C102.155 20.5107 110.014 20.6044 117.884 18.8088C119.051 18.3784 120.24 18.0079 121.445 17.7015ZM23.7576 3.34619L23.7453 3.34619C20.4962 3.34745 17.0712 5.59062 15.6858 8.91211C14.8907 10.8187 14.9433 12.6564 15.5914 14.0923C16.2356 15.5196 17.4947 16.6155 19.2662 17.0269L87.7262 32.9289C93.0937 34.1756 96.1495 39.0837 95.1719 44.656L93.6642 53.2509C92.9604 57.2625 91.1022 61.181 88.3301 64.5475L53.9739 106.269C52.0637 108.589 49.4193 109.93 46.8333 110.184C44.2453 110.437 41.6477 109.597 39.9935 107.465L15.8652 76.3697C13.8515 73.7745 9.47304 73.4798 5.98662 76.265C2.49765 79.0521 1.73939 83.4632 3.76407 86.0725L27.8923 117.168C31.9507 122.398 38.4372 124.63 45.2791 123.96C52.123 123.289 59.2541 119.712 64.4394 113.415L96.9422 73.9446L115.819 112.962C118.733 118.983 124.488 122.346 131.089 122.837C137.699 123.328 145.131 120.927 151.221 115.409L186.395 83.5368C189.702 80.5405 190.111 76.1713 187.871 73.7685C185.619 71.3527 181.143 71.396 177.834 74.3944L142.66 106.266C140.422 108.294 137.647 109.216 135.109 109.028C132.561 108.838 130.226 107.517 129.041 105.068L109.199 64.0556C107.556 60.6604 107.075 56.7135 107.779 52.7002L108.902 46.3004C109.923 40.4797 114.278 35.3196 119.835 32.924L119.909 32.8924L119.986 32.8731C120.235 32.8108 120.483 32.747 120.732 32.6819L123.629 31.9227L194.918 14.719C199.002 13.7336 202.016 9.8137 201.756 6.12267C201.542 3.07852 199.156 1.0389 195.993 1.09081L195.987 1.09091C195.438 1.09662 194.863 1.16621 194.271 1.30779L122.16 18.5401C120.827 18.8588 119.513 19.2584 118.225 19.7333L118.165 19.7553L118.103 19.7695C110.089 21.598 102.063 21.508 94.7652 19.4733C94.6762 19.4485 94.5862 19.4256 94.4951 19.4047L25.4476 3.51041C24.9021 3.38485 24.3395 3.33138 23.7699 3.34587L23.7576 3.34619Z" fill="black"/>
<path d="M60.4824 25.7064L87.0753 18.6149L59.596 12.4099L34.7759 19.5014L60.4824 25.7064Z" fill="white" fill-opacity="0.3"/>
<path d="M236.816 72.0244L236.794 72.0265H236.771C236.621 72.0265 236.358 72.0686 235.98 72.1687C235.612 72.266 235.165 72.4094 234.662 72.5908C233.655 72.9534 232.441 73.4598 231.199 74.0304C228.7 75.1789 226.156 76.5567 224.971 77.514C224.644 77.778 224.491 78.2223 224.491 78.7766L224.491 86.4323C224.491 87.3175 224.578 87.9526 224.826 88.3636C225.037 88.7139 225.419 88.981 226.279 88.981H321.068C321.941 88.981 322.945 88.6721 323.856 88.1492C324.768 87.6263 325.541 86.916 325.982 86.162L332.406 75.1779C332.679 74.7103 332.823 74.1783 332.831 73.6309C332.879 70.3496 333.133 64.9374 333.219 63.1671C333.219 63.1635 333.219 63.1621 333.218 63.1614C333.218 63.1607 333.218 63.1596 333.217 63.1585C333.216 63.1579 333.216 63.1573 333.215 63.1567C333.213 63.1549 333.211 63.1538 333.21 63.1533C333.209 63.1531 333.209 63.1529 333.208 63.1528C333.207 63.1526 333.205 63.1525 333.203 63.1527L236.816 72.0244Z" fill="#55A398" stroke="black" stroke-width="0.985362"/>
<rect x="0.741401" y="-0.425292" width="100.899" height="19.7971" rx="3.05554" transform="matrix(1 0 0.504829 -0.863219 222.946 78.5428)" fill="#BAD5D2" stroke="black" stroke-width="0.985362"/>
<path d="M257.343 36.543L257.32 36.5451H257.297C257.147 36.5451 256.885 36.5872 256.506 36.6872C256.138 36.7846 255.692 36.928 255.188 37.1094C254.182 37.4719 252.967 37.9783 251.726 38.549C249.226 39.6975 246.683 41.0753 245.497 42.0326C245.171 42.2966 245.018 42.7409 245.018 43.2951L245.018 50.9509C245.018 51.8361 245.104 52.4712 245.352 52.8821C245.564 53.2324 245.945 53.4995 246.806 53.4995H341.594C342.467 53.4995 343.471 53.1906 344.382 52.6677C345.294 52.1448 346.067 51.4345 346.508 50.6806L352.932 39.6964C353.205 39.2288 353.35 38.6969 353.358 38.1494C353.405 34.8681 353.659 29.456 353.745 27.6857C353.746 27.682 353.745 27.6806 353.745 27.68C353.744 27.6789 353.743 27.6771 353.741 27.6753C353.74 27.6735 353.738 27.6724 353.736 27.6718C353.735 27.6715 353.733 27.6709 353.729 27.6713L257.343 36.543Z" fill="#55A398" stroke="black" stroke-width="0.985362"/>
<path d="M245.474 41.0396C245.031 41.7968 245.05 42.3651 245.249 42.7115C245.448 43.0579 245.929 43.3611 246.806 43.3611H341.594C342.468 43.3611 343.471 43.0522 344.383 42.5293C345.294 42.0064 346.067 41.2961 346.508 40.5421L353.417 28.7281C353.86 27.9709 353.841 27.4026 353.643 27.0562C353.444 26.7098 352.963 26.4066 352.086 26.4066H257.297C256.424 26.4066 255.421 26.7155 254.509 27.2384C253.597 27.7613 252.824 28.4716 252.383 29.2256L245.474 41.0396Z" fill="#BAD5D2" stroke="black" stroke-width="0.985362"/>
<path d="M254.529 78.3269L286.281 62.1916H262.576L232.842 78.3269H254.529Z" fill="white" fill-opacity="0.5"/>
<path d="M271.28 42.8538L303.032 26.7185H279.327L249.593 42.8538H271.28Z" fill="white" fill-opacity="0.5"/>
<path d="M199.441 120.677L199.441 120.677C202.614 120.098 205.699 121.29 208.193 122.972C210.691 124.657 212.516 126.78 213.153 127.919C214.17 129.738 229.169 159.84 246.494 194.833C253.714 209.415 260.954 221.289 266.835 230.753C267.369 231.612 267.891 232.45 268.401 233.269C270.703 236.965 272.753 240.257 274.462 243.173C276.504 246.657 278.043 249.577 278.938 251.986C278.916 252.045 278.887 252.12 278.854 252.207C278.758 252.459 278.619 252.821 278.447 253.261C278.102 254.141 277.624 255.334 277.091 256.584C276.558 257.835 275.972 259.138 275.411 260.241C274.842 261.363 274.325 262.222 273.938 262.631C273.146 263.466 271.87 263.967 270.038 264.289C268.31 264.593 266.176 264.726 263.644 264.883C263.503 264.892 263.36 264.901 263.216 264.91L253.916 265.488L221.235 199.716C220.411 198.059 219.607 196.441 218.822 194.86C207.847 172.781 200.552 158.103 196.288 148.232C194.003 142.941 192.602 139.06 191.968 136.176C191.332 133.28 191.493 131.487 192.2 130.29C192.595 129.622 192.924 128.72 193.265 127.786L193.279 127.749C193.632 126.782 194.009 125.751 194.505 124.77C195.494 122.816 196.914 121.138 199.441 120.677ZM199.353 120.192L199.353 120.192L199.353 120.192Z" fill="#FF9999" stroke="black" stroke-width="0.985362"/>
<path d="M250.293 187.081L250.294 187.083C259.092 204.658 265.652 217.792 270.259 227.627C274.872 237.474 277.506 243.972 278.477 248.296C278.963 250.458 279.02 252.022 278.738 253.167C278.463 254.284 277.859 255.03 276.93 255.565C275.976 256.115 274.666 256.448 272.983 256.675C271.429 256.884 269.605 256.997 267.517 257.126C267.352 257.136 267.184 257.147 267.015 257.157L257.715 257.736L225.034 191.964C224.209 190.304 223.403 188.682 222.616 187.099C214.807 171.389 208.86 159.425 204.542 150.271C199.784 140.183 197.024 133.549 195.924 129.094C195.374 126.868 195.252 125.234 195.473 124.007C195.69 122.805 196.239 121.978 197.096 121.346C197.975 120.699 199.197 120.244 200.782 119.852C202.073 119.533 203.564 119.265 205.254 118.961C205.635 118.892 206.025 118.822 206.426 118.749L206.426 118.749C209.767 118.14 212.12 117.96 213.787 118.211C215.42 118.457 216.358 119.106 216.951 120.167C217.969 121.985 232.968 152.088 250.293 187.081Z" fill="#FFB5B5" stroke="black" stroke-width="0.985362"/>
<path d="M257.944 257.394L254.068 265.146" stroke="black" stroke-width="0.985362"/>
<path d="M227.224 195.35L243.669 175.416L252.141 192.36L235.198 211.297L227.224 195.35Z" fill="white" fill-opacity="0.3"/>
<path d="M66.3137 252.76C71.1464 255.551 76.4568 257.643 82.2449 259.038C88.033 260.369 93.9615 260.969 100.031 260.839C106.1 260.709 112.225 259.801 118.406 258.114C124.588 256.427 130.488 253.961 136.108 250.716C139.592 248.705 142.542 246.612 144.958 244.438C147.487 242.265 149.594 240.01 151.28 237.674C152.236 236.214 153.05 234.705 153.725 233.148C154.455 231.558 155.045 229.952 155.495 228.33L169.572 229.352L192.921 215.871V203.005L160.547 203.792C159.648 198.407 153.612 202.715 149.173 197.816C144.79 192.885 135.629 177.21 128.155 172.895L113.77 181.367V194.118C118.378 196.778 122.171 199.584 125.15 202.537C128.128 205.424 130.376 208.377 131.893 211.394L79.1261 207.501L80.3905 199.86C81.0648 197.394 81.4863 195.01 81.6549 192.706C81.8235 190.338 82.3292 179.088 81.6549 176.882C81.0929 174.741 79.2385 181.675 77.6088 179.761C75.9792 177.782 73.7033 175.949 70.7812 174.262C67.1285 172.153 62.9982 170.514 58.3902 169.347C53.7822 168.179 49.0337 167.546 44.1448 167.449C39.1996 167.384 34.3107 167.903 29.4779 169.006C24.6451 170.109 20.1777 171.845 16.0754 174.213C11.2427 177.003 5.10149 171.806 2.57272 174.889C0.10014 177.938 1.26807 189.154 1.15568 192.268C0.987091 195.415 2.08289 198.546 4.44308 201.661C6.80326 204.711 10.3716 207.614 15.1482 210.372C17.7894 211.897 20.6553 213.227 23.746 214.363C26.8367 215.433 30.1803 216.358 33.7768 217.137C36.7551 217.818 39.9863 218.418 43.4704 218.937C47.0107 219.424 50.7477 219.862 54.6813 220.251L52.6583 220.045C52.6583 223.228 52.8269 228.038 52.6583 230.666C52.5459 233.261 52.7988 235.743 53.4169 238.112C54.2037 240.837 55.6085 243.433 57.6315 245.898C59.7108 248.332 62.6048 250.619 66.3137 252.76ZM120.429 240.983C117.732 242.54 114.866 243.676 111.832 244.39C108.853 245.071 105.847 245.379 102.812 245.314C99.7777 245.25 96.7994 244.828 93.8773 244.049C90.9551 243.206 88.2578 242.07 85.7852 240.642C84.6613 239.994 83.5093 239.199 82.3292 238.258C81.1491 237.252 80.0814 236.052 79.1261 234.657C78.1708 233.261 77.4402 231.607 76.9345 229.693C76.3725 227.746 76.2883 225.686 76.6816 223.512L76.9345 222.101L133.157 226.529C132.82 227.697 132.371 228.833 131.809 229.936C131.191 231.007 130.516 232.077 129.786 233.148C128.606 234.608 127.257 236.003 125.74 237.333C124.166 238.631 122.396 239.848 120.429 240.983ZM33.9454 199.422C31.9786 198.287 30.4051 197.086 29.225 195.821C28.0449 194.491 27.3425 193.112 27.1177 191.684C26.8367 190.354 27.1177 188.991 27.9606 187.596C28.8036 186.201 30.2927 184.887 32.4281 183.654C33.9454 182.778 35.6593 182.178 37.57 181.854C39.4806 181.529 41.4193 181.448 43.3861 181.61C45.2968 181.74 47.2074 182.097 49.118 182.681C50.9725 183.233 52.6583 183.946 54.1756 184.822C54.9623 185.277 55.8614 185.861 56.8729 186.574C57.8282 187.256 58.6431 188.051 59.3174 188.959C60.1041 189.932 60.6099 191.068 60.8347 192.366C61.0594 193.663 60.8909 195.156 60.3289 196.843L58.3059 205.7C55.7209 205.376 53.2764 205.035 50.9725 204.678C48.7247 204.289 46.6173 203.851 44.6505 203.364C42.5151 202.845 40.5764 202.277 38.8344 201.661C37.0361 201.012 35.4065 200.266 33.9454 199.422Z" fill="#FFCA31"/>
<path fill-rule="evenodd" clip-rule="evenodd" d="M52.6628 221.036C52.6691 221.808 52.6813 222.642 52.6938 223.495C52.7319 226.097 52.7726 228.883 52.6583 230.666C52.5459 233.261 52.7988 235.743 53.4169 238.112C54.2037 240.837 55.6085 243.433 57.6315 245.898C59.7108 248.332 62.6048 250.619 66.3137 252.76C71.1464 255.551 76.4568 257.643 82.2449 259.038C88.033 260.369 93.9615 260.969 100.031 260.839C106.1 260.709 112.225 259.801 118.406 258.114C124.588 256.427 130.488 253.961 136.108 250.716C139.592 248.705 142.542 246.612 144.958 244.438C147.487 242.265 149.594 240.01 151.28 237.674C152.236 236.214 153.05 234.705 153.725 233.148C154.455 231.558 155.045 229.952 155.495 228.33L169.572 229.352L192.921 215.871V203.005L160.547 203.792C160.079 200.987 158.216 200.812 155.912 200.596C153.793 200.397 151.3 200.163 149.173 197.816C147.819 196.293 146.009 193.744 143.934 190.822C139.291 184.285 133.32 175.877 128.155 172.895L113.77 181.367V194.118C118.378 196.778 122.171 199.584 125.15 202.537C127.789 205.096 129.854 207.705 131.346 210.366C131.538 210.708 131.72 211.05 131.893 211.394L79.1261 207.501L80.3905 199.86C81.0648 197.394 81.4863 195.01 81.6549 192.706C81.8139 190.473 82.2727 180.341 81.7589 177.344C81.7585 177.341 81.7581 177.339 81.7578 177.337C81.727 177.159 81.6928 177.006 81.6549 176.882C81.466 176.162 81.1311 176.468 80.7078 177.118C80.7055 177.122 80.7032 177.125 80.7009 177.129C80.5612 177.344 80.4119 177.597 80.2551 177.862C79.4743 179.182 78.5074 180.817 77.6088 179.761C75.9792 177.782 73.7033 175.949 70.7812 174.262C67.1285 172.153 62.9982 170.514 58.3902 169.347C53.7822 168.179 49.0337 167.546 44.1448 167.449C39.1996 167.384 34.3107 167.903 29.4779 169.006C24.6451 170.109 20.1777 171.845 16.0754 174.213C13.6209 175.63 10.8289 174.987 8.34406 174.415C5.93641 173.86 3.81715 173.372 2.57272 174.889C0.66363 177.243 0.92481 184.466 1.09127 189.069C1.14041 190.428 1.18129 191.558 1.15568 192.268C0.987091 195.415 2.08289 198.546 4.44308 201.661C6.80326 204.711 10.3716 207.614 15.1482 210.372C17.7894 211.897 20.6553 213.227 23.746 214.363C26.8367 215.433 30.1803 216.358 33.7768 217.137C36.7551 217.818 39.9863 218.418 43.4704 218.937C46.0964 219.298 48.8306 219.633 51.6729 219.94C52 219.975 52.3284 220.01 52.6583 220.045C52.6583 220.361 52.66 220.692 52.6628 221.036ZM53.6492 221.138C53.6556 221.852 53.6669 222.624 53.6784 223.418C53.7166 226.037 53.7583 228.897 53.6423 230.719C53.5352 233.214 53.7784 235.59 54.3671 237.851C55.1123 240.425 56.4448 242.897 58.3871 245.266C60.3732 247.588 63.1677 249.806 66.8063 251.907C71.5506 254.646 76.7704 256.705 82.4709 258.079C88.1763 259.39 94.0218 259.982 100.01 259.854C105.994 259.726 112.039 258.83 118.147 257.163C124.246 255.499 130.068 253.066 135.615 249.863C139.053 247.878 141.944 245.824 144.299 243.706L144.308 243.698L144.316 243.691C146.788 241.566 148.836 239.373 150.468 237.116C151.388 235.707 152.172 234.254 152.821 232.756L152.825 232.746L152.829 232.736C153.539 231.193 154.11 229.636 154.545 228.067L154.761 227.289L169.341 228.347L191.935 215.303V204.015L159.716 204.798L159.575 203.955C159.389 202.837 158.98 202.388 158.531 202.134C157.981 201.823 157.218 201.71 156.094 201.603C155.992 201.593 155.888 201.583 155.783 201.574C153.673 201.378 150.832 201.114 148.443 198.478L148.437 198.471C147.299 197.192 145.874 195.243 144.289 193.021C143.911 192.492 143.523 191.946 143.126 191.387C141.844 189.581 140.467 187.642 139.032 185.712C137.155 183.187 135.195 180.7 133.25 178.583C131.476 176.652 129.751 175.07 128.147 174.044L114.756 181.93V193.551C119.196 196.158 122.896 198.916 125.839 201.833C128.878 204.779 131.197 207.817 132.773 210.951L133.555 212.505L77.9779 208.404L79.4266 199.649L79.44 199.6C80.0993 197.19 80.5087 194.868 80.6721 192.634C80.755 191.468 80.9229 188.083 80.9858 184.715C81.0173 183.03 81.0222 181.362 80.9782 179.984C80.9626 179.495 80.9411 179.06 80.9145 178.681C80.9021 178.702 80.8895 178.723 80.8767 178.744C80.522 179.334 80.042 180.101 79.485 180.571C79.1992 180.812 78.7743 181.079 78.2382 181.084C77.6549 181.091 77.1906 180.79 76.8585 180.4L76.8533 180.394L76.8482 180.387C75.3131 178.523 73.1389 176.761 70.2885 175.115C66.7235 173.057 62.6792 171.45 58.1481 170.302C53.616 169.153 48.9434 168.53 44.1285 168.434C39.2628 168.37 34.4529 168.881 29.6972 169.966C24.9559 171.049 20.5812 172.75 16.5681 175.066C13.7788 176.677 10.658 175.958 8.27653 175.41L8.19727 175.392C6.95006 175.105 5.92608 174.869 5.05977 174.86C4.23371 174.852 3.71453 175.052 3.33633 175.511C2.89343 176.059 2.53278 177.106 2.29744 178.606C2.06837 180.065 1.97985 181.795 1.96445 183.563C1.94909 185.326 2.00649 187.096 2.06153 188.632C2.06655 188.772 2.07157 188.911 2.07653 189.048C2.12506 190.388 2.16739 191.556 2.1404 192.304L2.14009 192.312L2.13963 192.321C1.98635 195.182 2.97316 198.088 5.22539 201.062C7.48127 203.975 10.9334 206.801 15.6409 209.519C18.2271 211.012 21.0385 212.318 24.0772 213.435C27.1239 214.49 30.4261 215.403 33.9853 216.174L33.9966 216.176C36.9453 216.851 40.1494 217.446 43.6101 217.962C46.525 218.363 49.575 218.73 52.7602 219.065L54.7813 219.271L54.5843 221.232C54.2713 221.201 53.9596 221.17 53.6492 221.138ZM112.057 245.349L112.051 245.35C108.994 246.05 105.907 246.366 102.791 246.3C99.6784 246.233 96.6219 245.8 93.6235 245.001L93.6137 244.999L93.604 244.996C90.6102 244.132 87.8385 242.966 85.2925 241.496C84.1199 240.819 82.9274 239.995 81.7149 239.028L81.7023 239.018L81.69 239.008C80.438 237.941 79.3132 236.674 78.3131 235.213C77.2862 233.714 76.5144 231.956 75.9847 229.955C75.3799 227.854 75.2948 225.643 75.7117 223.338M75.712 223.337L76.122 221.048L134.439 225.642L134.104 226.803C133.749 228.032 133.277 229.225 132.687 230.383L132.675 230.406L132.662 230.429C132.031 231.522 131.344 232.613 130.6 233.703L130.577 233.736L130.552 233.767C129.334 235.274 127.946 236.71 126.389 238.074L126.378 238.084L126.367 238.093C124.747 239.43 122.931 240.677 120.922 241.837C118.141 243.442 115.185 244.613 112.057 245.349M76.6816 223.512C76.2883 225.686 76.3725 227.746 76.9345 229.693C77.4402 231.607 78.1708 233.261 79.1261 234.657C80.0814 236.052 81.1491 237.252 82.3292 238.258C83.5093 239.199 84.6613 239.994 85.7852 240.642C88.2578 242.07 90.9551 243.206 93.8773 244.049C96.7994 244.828 99.7777 245.25 102.812 245.314C105.847 245.379 108.853 245.071 111.832 244.39C114.866 243.676 117.732 242.54 120.429 240.983C122.396 239.848 124.166 238.631 125.74 237.333C127.257 236.003 128.606 234.608 129.786 233.148C130.516 232.077 131.191 231.007 131.809 229.936C132.215 229.139 132.562 228.325 132.851 227.494C132.962 227.175 133.064 226.853 133.157 226.529L76.9345 222.101L76.6816 223.512ZM28.4961 196.484L28.4879 196.475C27.2182 195.044 26.4127 193.506 26.1483 191.863C25.8149 190.249 26.1773 188.642 27.1173 187.087C28.0792 185.495 29.7239 184.078 31.9355 182.801C33.5643 181.861 35.3912 181.224 37.405 180.882C39.396 180.544 41.415 180.46 43.46 180.628C45.4453 180.763 47.4266 181.134 49.4026 181.738C51.3219 182.309 53.0787 183.051 54.6682 183.969C55.4882 184.442 56.4132 185.044 57.441 185.769L57.4451 185.772C58.4754 186.507 59.361 187.368 60.0966 188.356C60.987 189.463 61.5549 190.75 61.8056 192.197C62.0639 193.689 61.8634 195.336 61.2791 197.108L59.068 206.789L58.1832 206.678C55.5899 206.352 53.136 206.01 50.8216 205.652L50.8129 205.651L50.8043 205.649C48.5371 205.256 46.4074 204.814 44.4159 204.321C42.2547 203.796 40.2839 203.219 38.5056 202.59L38.4999 202.588C36.6539 201.922 34.9704 201.152 33.4527 200.276C31.4262 199.106 29.7682 197.848 28.5044 196.493L28.4961 196.484ZM44.6505 203.364C46.6173 203.851 48.7247 204.289 50.9725 204.678C53.2764 205.035 55.7209 205.376 58.3059 205.7L60.3289 196.843C60.8909 195.156 61.0594 193.663 60.8347 192.366C60.6099 191.068 60.1041 189.932 59.3174 188.959C58.6431 188.051 57.8282 187.256 56.8729 186.574C55.8614 185.861 54.9623 185.277 54.1756 184.822C52.6583 183.946 50.9725 183.233 49.118 182.681C47.2074 182.097 45.2968 181.74 43.3861 181.61C41.4193 181.448 39.4806 181.529 37.57 181.854C35.6593 182.178 33.9454 182.778 32.4281 183.654C30.2927 184.887 28.8036 186.201 27.9606 187.596C27.1177 188.991 26.8367 190.354 27.1177 191.684C27.3425 193.112 28.0449 194.491 29.225 195.821C30.4051 197.086 31.9786 198.287 33.9454 199.422C35.4065 200.266 37.0361 201.012 38.8344 201.661C40.5764 202.277 42.5151 202.845 44.6505 203.364Z" fill="black"/>
<path d="M66.313 239.803C71.1458 242.594 76.4562 244.686 82.2443 246.081C88.0323 247.412 93.9609 248.012 100.03 247.882C106.099 247.752 112.224 246.844 118.406 245.157C124.587 243.47 130.488 241.004 136.107 237.759C139.591 235.748 142.541 233.655 144.958 231.481C147.487 229.308 149.594 227.053 151.28 224.717C152.235 223.257 153.05 221.748 153.724 220.191C154.455 218.601 155.045 216.995 155.494 215.373L169.571 216.395L192.92 202.914L157.18 200.286C156.281 194.901 153.612 189.758 149.172 184.859C144.789 179.928 138.861 175.304 131.387 170.989L113.77 181.161C118.378 183.821 122.171 186.627 125.149 189.58C128.127 192.467 130.375 195.42 131.892 198.437L79.1255 194.544L80.3898 186.903C81.0642 184.437 81.4856 182.053 81.6542 179.749C81.8228 177.381 81.5699 175.094 80.8956 172.887C80.3336 170.746 79.2379 168.718 77.6082 166.804C75.9785 164.825 73.7027 162.992 70.7805 161.305C67.1279 159.196 62.9975 157.557 58.3895 156.389C53.7816 155.221 49.0331 154.589 44.1441 154.491C39.199 154.427 34.31 154.946 29.4773 156.049C24.6445 157.152 20.177 158.888 16.0748 161.256C11.242 164.046 7.56126 166.982 5.03249 170.065C2.55991 173.114 1.26743 176.197 1.15504 179.311C0.986457 182.458 2.08226 185.589 4.44244 188.704C6.80263 191.754 10.371 194.657 15.1476 197.415C17.7887 198.94 20.6547 200.27 23.7454 201.406C26.8361 202.476 30.1797 203.401 33.7762 204.18C36.7545 204.861 39.9857 205.461 43.4698 205.98C47.0101 206.467 50.747 206.905 54.6807 207.294L54.1749 209.436C53.332 212.323 52.8262 215.081 52.6577 217.709C52.5453 220.304 52.7981 222.786 53.4163 225.155C54.203 227.88 55.6079 230.476 57.6309 232.941C59.7101 235.375 62.6042 237.662 66.313 239.803ZM120.429 228.026C117.731 229.583 114.865 230.719 111.831 231.433C108.853 232.114 105.846 232.422 102.812 232.357C99.7771 232.293 96.7988 231.871 93.8766 231.092C90.9545 230.249 88.2571 229.113 85.7846 227.685C84.6607 227.037 83.5087 226.242 82.3286 225.301C81.1485 224.295 80.0808 223.095 79.1255 221.7C78.1701 220.304 77.4396 218.65 76.9339 216.736C76.3719 214.789 76.2876 212.729 76.681 210.555L76.9339 209.144L133.157 213.572C132.82 214.74 132.37 215.876 131.808 216.979C131.19 218.05 130.516 219.12 129.785 220.191C128.605 221.651 127.256 223.046 125.739 224.376C124.166 225.674 122.396 226.891 120.429 228.026ZM33.9448 186.465C31.9779 185.33 30.4045 184.129 29.2244 182.864C28.0443 181.534 27.3419 180.155 27.1171 178.727C26.8361 177.397 27.1171 176.034 27.96 174.639C28.8029 173.244 30.2921 171.93 32.4275 170.697C33.9448 169.821 35.6587 169.221 37.5693 168.897C39.48 168.572 41.4187 168.491 43.3855 168.653C45.2961 168.783 47.2068 169.14 49.1174 169.724C50.9718 170.276 52.6577 170.989 54.1749 171.865C54.9617 172.32 55.8608 172.904 56.8723 173.617C57.8276 174.299 58.6424 175.094 59.3168 176.002C60.1035 176.975 60.6092 178.111 60.834 179.409C61.0588 180.706 60.8902 182.199 60.3283 183.886L58.3052 192.743C55.7203 192.419 53.2758 192.078 50.9718 191.721C48.724 191.332 46.6167 190.894 44.6499 190.407C42.5145 189.888 40.5758 189.32 38.8337 188.704C37.0355 188.055 35.4058 187.309 33.9448 186.465Z" fill="#FFE598"/>
<path fill-rule="evenodd" clip-rule="evenodd" d="M54.1749 209.436C53.332 212.323 52.8262 215.081 52.6577 217.709C52.5453 220.304 52.7981 222.786 53.4163 225.155C54.203 227.88 55.6079 230.476 57.6309 232.941C59.7101 235.375 62.6042 237.662 66.313 239.803C71.1458 242.594 76.4562 244.686 82.2443 246.081C88.0323 247.412 93.9609 248.012 100.03 247.882C106.099 247.752 112.224 246.844 118.406 245.157C124.587 243.47 130.488 241.004 136.107 237.759C139.591 235.748 142.541 233.655 144.958 231.481C147.487 229.308 149.594 227.053 151.28 224.717C152.235 223.257 153.05 221.748 153.724 220.191C154.455 218.601 155.045 216.995 155.494 215.373L169.571 216.395L192.92 202.914L157.18 200.286C156.281 194.901 153.612 189.758 149.172 184.859C144.789 179.928 138.861 175.304 131.387 170.989L113.77 181.161C114.1 181.351 114.425 181.542 114.747 181.734C118.917 184.224 122.384 186.839 125.149 189.58C127.788 192.138 129.854 194.748 131.346 197.409C131.537 197.751 131.72 198.093 131.892 198.437L79.1255 194.544L80.3898 186.903C81.0642 184.437 81.4856 182.053 81.6542 179.749C81.8228 177.381 81.5699 175.094 80.8956 172.887C80.3336 170.746 79.2379 168.718 77.6082 166.804C75.9785 164.825 73.7027 162.992 70.7805 161.305C67.1279 159.196 62.9975 157.557 58.3895 156.389C53.7816 155.221 49.0331 154.589 44.1441 154.491C39.199 154.427 34.31 154.946 29.4773 156.049C24.6445 157.152 20.177 158.888 16.0748 161.256C11.242 164.046 7.56126 166.982 5.03249 170.065C2.55991 173.114 1.26743 176.197 1.15504 179.311C0.986457 182.458 2.08226 185.589 4.44244 188.704C6.80263 191.754 10.371 194.657 15.1476 197.415C17.7887 198.94 20.6547 200.27 23.7454 201.406C26.8361 202.476 30.1797 203.401 33.7762 204.18C36.7545 204.861 39.9857 205.461 43.4698 205.98C46.7121 206.426 50.1194 206.831 53.6917 207.195C54.0199 207.228 54.3496 207.262 54.6807 207.294L54.1749 209.436ZM43.6094 205.005C47.1345 205.489 50.8572 205.926 54.7777 206.314L55.8986 206.425L55.128 209.687L55.1208 209.712C54.2965 212.536 53.8057 215.218 53.6417 217.762C53.5346 220.257 53.7778 222.633 54.3665 224.894C55.1116 227.468 56.4442 229.94 58.3865 232.309C60.3726 234.631 63.167 236.849 66.8057 238.95C71.55 241.689 76.7698 243.748 82.4703 245.122C88.1757 246.433 94.0212 247.025 100.009 246.897C105.993 246.769 112.038 245.873 118.146 244.206C124.245 242.541 130.067 240.109 135.614 236.906C139.052 234.921 141.944 232.867 144.299 230.749L144.307 230.741L144.315 230.734C146.788 228.609 148.835 226.416 150.467 224.159C151.388 222.75 152.171 221.297 152.82 219.799L152.824 219.789L152.829 219.779C153.538 218.236 154.11 216.679 154.545 215.11L154.76 214.332L169.341 215.39L189.654 203.662L156.336 201.212L156.208 200.449C155.346 195.285 152.782 190.31 148.442 185.521L148.436 185.514C144.236 180.788 138.562 176.323 131.385 172.128L115.722 181.171C119.736 183.607 123.112 186.174 125.839 188.876C128.877 191.822 131.197 194.86 132.773 197.994L133.554 199.548L77.9772 195.447L79.426 186.692L79.4394 186.643C80.0987 184.233 80.508 181.911 80.6715 179.677C80.8315 177.427 80.591 175.262 79.9533 173.175L79.9475 173.156L79.9425 173.137C79.4229 171.158 78.4047 169.26 76.8579 167.443L76.8527 167.437L76.8475 167.43C75.3124 165.566 73.1383 163.804 70.2878 162.158C66.7228 160.1 62.6786 158.493 58.1474 157.345C53.6153 156.196 48.9427 155.573 44.1279 155.477C39.2621 155.413 34.4522 155.924 29.6965 157.009C24.9553 158.092 20.5805 159.792 16.5675 162.109C11.8007 164.862 8.22616 167.726 5.79619 170.687C3.42397 173.614 2.24261 176.497 2.13976 179.347L2.13945 179.355L2.13899 179.364C1.98571 182.225 2.97253 185.131 5.22478 188.105C7.48066 191.018 10.9328 193.844 15.6403 196.562C18.2265 198.055 21.0379 199.361 24.0766 200.478C27.1233 201.533 30.4255 202.446 33.9847 203.217L33.9959 203.219C36.9446 203.894 40.1488 204.489 43.6094 205.005ZM112.057 232.392L112.051 232.393C108.994 233.093 105.907 233.409 102.791 233.343C99.6777 233.276 96.6213 232.843 93.6229 232.044L93.6131 232.042L93.6033 232.039C90.6095 231.175 87.8379 230.009 85.2919 228.539C84.1192 227.862 82.9268 227.038 81.7143 226.071L81.7017 226.061L81.6894 226.051C80.4374 224.984 79.3125 223.717 78.3124 222.256C77.2855 220.757 76.5137 218.999 75.9841 216.998C75.3793 214.897 75.2942 212.686 75.7111 210.381M75.7114 210.38L76.1214 208.091L134.439 212.685L134.104 213.846C133.749 215.075 133.276 216.268 132.686 217.426L132.674 217.449L132.662 217.472C132.03 218.565 131.343 219.656 130.599 220.746L130.577 220.779L130.551 220.81C129.333 222.317 127.945 223.753 126.389 225.117L126.378 225.127L126.366 225.136C124.746 226.472 122.93 227.72 120.921 228.879C118.141 230.485 115.185 231.656 112.057 232.392M76.681 210.555C76.2876 212.729 76.3719 214.789 76.9339 216.736C77.4396 218.65 78.1701 220.304 79.1255 221.7C80.0808 223.095 81.1485 224.295 82.3286 225.301C83.5087 226.242 84.6607 227.037 85.7846 227.685C88.2571 229.113 90.9545 230.249 93.8766 231.092C96.7988 231.871 99.7771 232.293 102.812 232.357C105.846 232.422 108.853 232.114 111.831 231.433C114.865 230.719 117.731 229.583 120.429 228.026C122.396 226.891 124.166 225.674 125.739 224.376C127.256 223.046 128.605 221.651 129.785 220.191C130.516 219.12 131.19 218.05 131.808 216.979C132.214 216.182 132.562 215.368 132.85 214.537C132.961 214.218 133.063 213.896 133.157 213.572L76.9339 209.144L76.681 210.555ZM28.4954 183.527L28.4873 183.518C27.2176 182.087 26.4121 180.549 26.1477 178.906C25.8142 177.292 26.1767 175.685 27.1166 174.13C28.0786 172.538 29.7233 171.121 31.9348 169.844C33.5636 168.904 35.3906 168.267 37.4044 167.925C39.3954 167.587 41.4144 167.503 43.4594 167.671C45.4447 167.806 47.426 168.177 49.402 168.781C51.3213 169.352 53.0781 170.094 54.6676 171.012C55.4875 171.485 56.4126 172.087 57.4404 172.812L57.4444 172.815C58.4748 173.55 59.3604 174.411 60.096 175.398C60.9864 176.506 61.5543 177.793 61.8049 179.24C62.0633 180.732 61.8628 182.379 61.2784 184.151L59.0673 193.832L58.1825 193.721C55.5893 193.395 53.1353 193.053 50.821 192.695L50.8123 192.694L50.8036 192.692C48.5364 192.299 46.4068 191.857 44.4153 191.364C42.254 190.839 40.2832 190.262 38.505 189.633L38.4993 189.631C36.6533 188.965 34.9697 188.195 33.4521 187.319C31.4255 186.149 29.7675 184.891 28.5038 183.536L28.4954 183.527ZM44.6499 190.407L44.4171 191.365L44.4153 191.364L44.4132 191.364L44.6499 190.407ZM38.8337 188.704C40.5758 189.32 42.5145 189.888 44.6499 190.407C46.6167 190.894 48.724 191.332 50.9718 191.721C53.2758 192.078 55.7203 192.419 58.3052 192.743L60.3283 183.886C60.8902 182.199 61.0588 180.706 60.834 179.409C60.6092 178.111 60.1035 176.975 59.3168 176.002C58.6424 175.094 57.8276 174.299 56.8723 173.617C55.8608 172.904 54.9617 172.32 54.1749 171.865C52.6577 170.989 50.9718 170.276 49.1174 169.724C47.2068 169.14 45.2961 168.783 43.3855 168.653C41.4187 168.491 39.48 168.572 37.5693 168.897C35.6587 169.221 33.9448 169.821 32.4275 170.697C30.2921 171.93 28.8029 173.244 27.96 174.639C27.1171 176.034 26.8361 177.397 27.1171 178.727C27.3419 180.155 28.0443 181.534 29.2244 182.864C30.4045 184.129 31.9779 185.33 33.9448 186.465C35.4058 187.309 37.0355 188.055 38.8337 188.704Z" fill="black"/>
<path d="M169.518 215.753L169.518 228.71" stroke="black" stroke-width="0.985362"/>
<path d="M78.2197 192.36L41.8407 204.819C34.8924 203.415 31.0035 202.666 23.9004 200.334L45.8274 191.862C47.4221 192.26 55.462 193.357 59.2827 193.855V193.357L61.7744 182.393L80.7114 180.898L78.2197 192.36Z" fill="white" fill-opacity="0.4"/>
<path d="M282.118 146.176C278.397 148.325 273.489 149.413 268.554 149.413C263.619 149.413 258.711 148.325 254.99 146.176C251.266 144.026 249.516 141.277 249.516 138.629C249.516 138.485 249.509 138.104 249.499 137.571C249.481 136.591 249.454 135.099 249.443 133.636C249.435 132.496 249.437 131.36 249.461 130.461C249.473 130.011 249.49 129.626 249.514 129.331C249.526 129.183 249.539 129.064 249.552 128.974C249.565 128.888 249.575 128.85 249.577 128.843C249.578 128.842 249.578 128.841 249.578 128.842C249.597 128.791 249.615 128.756 249.628 128.732C249.645 128.74 249.666 128.752 249.691 128.767C249.82 128.845 249.982 128.982 250.19 129.18C250.31 129.294 250.429 129.413 250.557 129.54C250.653 129.636 250.755 129.737 250.866 129.845C251.351 130.319 251.95 130.861 252.628 131.17C253.335 131.493 254.148 131.569 254.99 131.083C258.711 128.934 263.619 127.846 268.554 127.846C273.489 127.846 278.397 128.934 282.118 131.083C282.912 131.541 283.699 131.45 284.386 131.142C285.049 130.845 285.656 130.331 286.16 129.88C286.252 129.797 286.341 129.717 286.426 129.64C286.582 129.498 286.727 129.366 286.87 129.243C287.09 129.054 287.269 128.917 287.415 128.836C287.501 128.788 287.552 128.773 287.576 128.768C287.59 128.784 287.612 128.815 287.64 128.874L287.64 128.874C287.64 128.875 287.645 128.886 287.652 128.912C287.66 128.938 287.669 128.974 287.678 129.02C287.696 129.112 287.713 129.232 287.728 129.38C287.758 129.676 287.777 130.057 287.788 130.503C287.809 131.392 287.795 132.503 287.766 133.622C287.735 134.849 287.684 136.099 287.646 137.056C287.615 137.825 287.592 138.404 287.592 138.629C287.592 141.277 285.842 144.026 282.118 146.176ZM249.661 128.686C249.661 128.686 249.661 128.686 249.659 128.687C249.661 128.686 249.661 128.686 249.661 128.686ZM287.561 128.754C287.561 128.753 287.562 128.754 287.566 128.757C287.562 128.755 287.56 128.754 287.561 128.754Z" fill="#FFB681" stroke="black" stroke-width="0.985362"/>
<path d="M339.395 179.067C335.674 181.216 330.765 182.304 325.831 182.304C320.896 182.304 315.988 181.216 312.267 179.067C308.543 176.917 306.792 174.168 306.792 171.52C306.792 171.349 306.779 170.842 306.76 170.139C306.734 169.119 306.696 167.687 306.672 166.273C306.652 165.07 306.642 163.872 306.657 162.926C306.665 162.453 306.678 162.048 306.699 161.74C306.71 161.585 306.722 161.46 306.735 161.366C306.746 161.284 306.756 161.246 306.758 161.236C306.759 161.234 306.759 161.233 306.759 161.235C306.769 161.209 306.778 161.188 306.786 161.17C306.805 161.182 306.828 161.197 306.855 161.216C306.995 161.318 307.167 161.483 307.382 161.711C307.501 161.838 307.616 161.964 307.737 162.098C307.843 162.214 307.953 162.336 308.078 162.47C308.575 163.005 309.181 163.611 309.864 163.971C310.576 164.346 311.407 164.47 312.267 163.974C315.988 161.825 320.896 160.737 325.831 160.737C330.765 160.737 335.674 161.825 339.395 163.974C340.237 164.46 341.054 164.383 341.767 164.062C342.451 163.754 343.059 163.213 343.554 162.74C343.665 162.634 343.767 162.534 343.864 162.44C343.996 162.31 344.12 162.19 344.244 162.074C344.456 161.877 344.622 161.739 344.754 161.66C344.787 161.641 344.812 161.628 344.831 161.62C344.837 161.63 344.844 161.642 344.851 161.657L344.851 161.664L344.853 161.966C344.855 162.227 344.858 162.6 344.861 163.051C344.867 163.954 344.874 165.168 344.879 166.413C344.888 168.921 344.888 171.506 344.851 171.982C344.661 174.482 342.904 177.041 339.395 179.067ZM306.829 161.1C306.829 161.1 306.828 161.102 306.825 161.104C306.828 161.101 306.829 161.1 306.829 161.1ZM344.803 161.581C344.801 161.579 344.801 161.579 344.801 161.578C344.801 161.578 344.802 161.579 344.803 161.581Z" fill="#FFB681" stroke="black" stroke-width="0.985362"/>
<path d="M282.119 136.21C278.398 138.359 273.49 139.447 268.555 139.447C263.621 139.447 258.712 138.359 254.991 136.21C251.267 134.06 249.517 131.311 249.517 128.663C249.517 126.016 251.267 123.267 254.991 121.117C258.712 118.968 263.621 117.88 268.555 117.88C273.49 117.88 278.398 118.968 282.119 121.117C285.843 123.267 287.594 126.016 287.594 128.663C287.594 131.311 285.843 134.06 282.119 136.21Z" fill="#FFDBC0" stroke="black" stroke-width="0.985362"/>
<path d="M339.397 169.101C335.675 171.249 330.767 172.338 325.832 172.338C320.898 172.338 315.989 171.249 312.268 169.101C308.544 166.951 306.794 164.202 306.794 161.554C306.794 158.906 308.544 156.157 312.268 154.007C315.989 151.859 320.898 150.771 325.832 150.771C330.767 150.771 335.675 151.859 339.397 154.007C343.12 156.157 344.871 158.906 344.871 161.554C344.871 164.202 343.12 166.951 339.397 169.101Z" fill="#FFDBC0" stroke="black" stroke-width="0.985362"/>
<path d="M275.065 118.695L250.646 130.656C251.444 133.446 255.297 135.805 257.125 136.636L282.042 121.685C280.048 120.091 276.56 119.028 275.065 118.695Z" fill="white" fill-opacity="0.3"/>
</svg>
