<svg width="516" height="652" viewBox="0 0 516 652" fill="none" xmlns="http://www.w3.org/2000/svg">

<style>
@keyframes float {
  0% { transform: translateY(0); }
  100% { transform: translateY(5px); }
}
@keyframes grow {
  0% { transform: scale(1); }
  100% { transform: scale(1.05); }
}
@keyframes line-animation {
  0% { font-size: 15px; }
  100% { font-size: 5px; }
}

#hoover {
  animation: 1s ease-in-out 0ms infinite alternate float;
}
#thermostat {
  animation: 1s ease-in-out 300ms infinite alternate float;
}
#hoover-shadow {
  animation: 1s ease-in-out 0ms infinite alternate grow;
  transform-origin: 303px 290px;
}
#thermostat-shadow {
  animation: 1s ease-in-out 300ms infinite alternate grow;
  transform-origin: 264px 571px;
}
#hoover-legend-line1 {
  font-size: 15px;
  animation: 2s ease-in-out 0ms infinite alternate line-animation;
}
#hoover-legend-line2 {
  font-size: 15px;
  animation: 1.5s ease-in-out 1000ms infinite alternate line-animation;
}
#thermostat-legend-line1 {
  font-size: 15px;
  animation: 2s ease-in-out 100ms infinite alternate line-animation;
}
#thermostat-legend-line2 {
  font-size: 15px;
  animation: 1.5s ease-in-out 1300ms infinite alternate line-animation;
}
</style>

<!-- Beware when switching this SVG. The 4 lines have custom changes to them
that need to be adapted. -->

<g id="monitor-and-service-your-devices">
<rect id="backdrop" x="21.3789" y="0.389542" width="473.184" height="650.628" rx="17.7444" fill="#B2E0DA"/>
<ellipse id="hoover-shadow" cx="302.788" cy="289.69" rx="37.908" ry="10.4586" fill="black" fill-opacity="0.5"/>
<ellipse id="thermostat-shadow" cx="263.573" cy="570.765" rx="37.908" ry="10.4586" fill="black" fill-opacity="0.5"/>
<g id="hoover">
<g id="hoover-back-wheel">
<path id="Ellipse 171" d="M366.81 231.598C366.81 233.644 365.838 236.39 364.383 238.913C362.927 241.437 361.038 243.652 359.267 244.675C358.414 245.167 357.417 245.29 356.38 245.097C355.349 244.905 354.31 244.405 353.381 243.7C352.452 242.996 351.641 242.093 351.064 241.104C350.484 240.111 350.153 239.052 350.153 238.047C350.153 233.907 353.059 228.873 356.645 226.803C357.513 226.301 358.586 226.072 359.724 226.097C360.856 226.123 362.027 226.4 363.085 226.878C364.143 227.357 365.08 228.034 365.751 228.851C366.425 229.672 366.81 230.612 366.81 231.598Z" fill="#53978E" stroke="black" stroke-width="0.709776"/>
<path id="Ellipse 169" d="M367.322 233.169C367.322 237.309 364.416 242.344 360.831 244.414C357.246 246.484 354.34 244.806 354.34 240.666C354.34 236.525 357.246 231.491 360.831 229.421C364.416 227.351 367.322 229.029 367.322 233.169Z" fill="#53978E" stroke="black" stroke-width="0.709776"/>
</g>
<g id="hoover-front-wheel">
<path id="Ellipse 171_2" d="M331.711 249.552C331.711 251.787 330.65 254.78 329.065 257.53C327.479 260.279 325.42 262.695 323.485 263.812C322.551 264.352 321.461 264.485 320.333 264.275C319.21 264.065 318.078 263.521 317.067 262.754C316.056 261.988 315.174 261.005 314.546 259.928C313.914 258.847 313.552 257.693 313.552 256.593C313.552 252.076 316.723 246.583 320.635 244.325C321.585 243.776 322.756 243.526 323.994 243.554C325.227 243.581 326.501 243.883 327.653 244.404C328.804 244.925 329.825 245.662 330.555 246.551C331.289 247.446 331.711 248.471 331.711 249.552Z" fill="#53978E" stroke="black" stroke-width="0.709776"/>
<path id="Ellipse 169_2" d="M332.268 251.259C332.268 255.776 329.097 261.269 325.185 263.528C321.274 265.787 318.103 263.956 318.103 259.438C318.103 254.921 321.274 249.428 325.185 247.169C329.097 244.911 332.268 246.742 332.268 251.259Z" fill="#53978E" stroke="black" stroke-width="0.709776"/>
</g>
<g id="hoover-unit">
<path id="Vector 118" d="M374.737 215.816V215.825L374.737 215.834C375.118 223.437 371.414 231.188 363.766 235.411L343.171 246.784C314.888 262.402 279.95 260.26 253.849 241.309L239.682 231.023C234.358 227.157 231.504 221.553 231.007 215.801V184.74L374.737 187.868V215.816Z" fill="#53978E" stroke="black" stroke-width="0.709776"/>
<path id="Vector 119" d="M231.007 210.407V186.539L374.737 186.539V210.423V210.431L374.737 210.44C375.118 218.038 371.414 225.785 363.766 230.006L343.171 241.372C314.888 256.981 279.95 254.841 253.848 235.9L239.682 225.62C234.358 221.756 231.503 216.155 231.007 210.407Z" fill="white" stroke="black" stroke-width="0.709776"/>
<path id="Vector 124" d="M374.641 198.683C375.028 206.408 371.261 214.287 363.486 218.577L342.891 229.944C330.68 236.683 317.234 240.127 303.789 240.353" stroke="black" stroke-width="0.709776" stroke-linecap="round"/>
<path id="Vector 116" d="M258.039 215.146L237.272 199.848C225.749 191.36 226.905 173.786 239.442 166.881L266.597 151.924C290.846 138.568 320.506 139.789 343.575 155.092L367.708 171.1C379.948 179.219 379.247 197.417 366.42 204.57L338.356 220.22C312.903 234.415 281.503 232.431 258.039 215.146Z" fill="#BAD5D2" stroke="black" stroke-width="0.709776"/>
<path id="Vector 117" d="M258.645 209.115L244.058 198.347C233.994 190.918 235.006 175.564 245.957 169.519L266.132 158.383C290.468 144.951 320.263 146.214 343.375 161.656L360.893 173.361C371.54 180.475 370.926 196.323 359.76 202.591L339.209 214.13C313.705 228.448 282.176 226.486 258.645 209.115Z" fill="white" stroke="black" stroke-width="0.709776"/>
<g id="Group 1084">
<rect id="Rectangle 939" width="37.84" height="15.5241" rx="7.76206" transform="matrix(0.866 0.500044 -0.866 0.500044 313.621 155.481)" fill="#BAD5D2" stroke="black" stroke-width="0.709776"/>
<circle id="Ellipse 34" r="3.88103" transform="matrix(0.866 0.500044 -0.866 0.500044 332.946 174.402)" fill="#FFE598" stroke="black" stroke-width="0.709776"/>
</g>
<ellipse id="Ellipse 35" cx="280.313" cy="193.824" rx="20.7671" ry="12.6423" fill="#FFE598" stroke="black" stroke-width="0.709776"/>
<ellipse id="Ellipse 36" cx="280.313" cy="193.825" rx="16.2525" ry="9.93326" fill="#BAD5D2" stroke="black" stroke-width="0.709776"/>
</g>
<g id="hoover-legend">
<path id="Vector 77" d="M365.532 159.611L422.394 115.816V71.367" stroke="black" stroke-width="0.709776"/>
<rect id="hoover-legend-line2" x="436.475" y="96.5611" width="4em" height="11.0561" fill="#FFE598" stroke="black" stroke-width="0.709776"/>
<rect id="hoover-legend-line1" x="436.475" y="73.029" width="3em" height="14.9781" fill="#FF8484" stroke="black" stroke-width="0.709776"/>
</g>
</g>
<g id="thermostat">
<g id="thermostat-legend">
<path id="Vector 77_2" d="M186.449 387.085L129.587 343.29V298.841" stroke="black" stroke-width="0.709776"/>
<rect id="thermostat-legend-line1" x="calc(117px - 7em)" y="300" width="7em" height="15.8517" fill="#53978E" stroke="black" stroke-width="0.709776"/>
<rect id="thermostat-legend-line2" x="calc(117px - 5em)" y="326" width="5em" height="11.0561" fill="#FFE598" stroke="black" stroke-width="0.709776"/>
</g>
<g id="blinking-lines">
<path d="M165.632 457.993C165.444 457.94 165.247 458.049 165.193 458.237C165.14 458.426 165.249 458.622 165.437 458.676L174.587 461.29C174.776 461.344 174.972 461.235 175.026 461.046C175.08 460.858 174.971 460.662 174.782 460.608L165.632 457.993Z" fill="black"/>
<path d="M174.74 471.759C174.933 471.729 175.066 471.548 175.036 471.354C175.007 471.16 174.825 471.027 174.632 471.057L166.135 472.364C165.941 472.394 165.808 472.575 165.838 472.769C165.868 472.963 166.049 473.096 166.243 473.066L174.74 471.759Z" fill="black"/>
<path d="M174.889 481.503C175.05 481.391 175.089 481.17 174.976 481.009C174.864 480.849 174.643 480.81 174.482 480.922L167.946 485.498C167.786 485.61 167.747 485.831 167.859 485.992C167.971 486.152 168.193 486.192 168.353 486.079L174.889 481.503Z" fill="black"/>
</g>
<g id="thermostat-unit">
<path id="Vector 144" d="M295.835 348.276L319.019 362.081C321.113 363.328 322.396 365.585 322.396 368.023V472.223C322.396 477.882 319.432 483.127 314.586 486.046L217.229 544.69C212.577 547.492 206.763 547.513 202.092 544.743L183.567 533.76C180.066 531.684 177.919 527.915 177.919 523.845V420.747C177.919 415.873 180.485 411.358 184.673 408.864L286.399 348.276C289.306 346.544 292.928 346.544 295.835 348.276Z" fill="white" stroke="black" stroke-width="0.709776" stroke-linecap="round" stroke-linejoin="bevel"/>
<path id="Vector 145" d="M317.516 367L215.301 427.921C211.813 430 209.676 433.761 209.676 437.822V540.672C209.676 544.439 213.788 546.763 217.015 544.819L314.585 486.046C319.432 483.126 322.396 477.881 322.396 472.223V369.773C322.396 367.268 319.667 365.718 317.516 367Z" fill="#53978E" stroke="black" stroke-width="0.709776" stroke-linecap="round" stroke-linejoin="bevel"/>
<g id="Group 1104">
<path id="Union" d="M224.197 455.529L224.425 455.623L224.5 455.343L224.197 455.529ZM229.954 452.001L229.651 452.187L229.726 452.374L229.954 452.001ZM224.5 438.786C224.5 437.118 225.653 435.058 227.076 434.186V433.477C225.319 434.553 223.894 437.097 223.894 439.157L224.5 438.786ZM224.5 455.343V438.786L223.894 439.157V455.714L224.5 455.343ZM223.559 458.863C223.559 457.825 223.886 456.678 224.425 455.623L223.969 455.435C223.337 456.672 222.954 458.018 222.954 459.234L223.559 458.863ZM227.075 460.831C225.133 462.021 223.559 461.14 223.559 458.863L222.954 459.234C222.954 461.903 224.799 462.936 227.075 461.541V460.831ZM230.591 454.553C230.591 456.831 229.017 459.641 227.075 460.831V461.541C229.351 460.146 231.196 456.852 231.196 454.182L230.591 454.553ZM229.726 452.374C230.265 452.769 230.591 453.516 230.591 454.553L231.196 454.182C231.196 452.967 230.813 452.091 230.182 451.628L229.726 452.374ZM229.651 435.629V452.187L230.257 451.816V435.258L229.651 435.629ZM227.076 434.186C228.498 433.314 229.651 433.96 229.651 435.629L230.257 435.258C230.257 433.197 228.832 432.4 227.076 433.477V434.186Z" fill="white"/>
<path id="Union_2" fill-rule="evenodd" clip-rule="evenodd" d="M227.076 441.538C226.642 441.804 226.29 442.432 226.29 442.942V455.465C225.724 456.148 225.336 457.074 225.336 457.869C225.336 458.996 226.115 459.432 227.076 458.843C228.036 458.254 228.815 456.864 228.815 455.737C228.815 454.943 228.428 454.491 227.862 454.501V441.978C227.862 441.469 227.51 441.271 227.076 441.538Z" fill="white"/>
</g>
<path id="Vector 154" d="M264.919 515.349L283.746 387.972L314.695 368.858L292.303 498.803L264.919 515.349Z" fill="white" fill-opacity="0.2"/>
<path id="Vector 155" d="M210.152 451.019V437.337C210.152 433.963 211.908 430.832 214.788 429.074L239.817 413.79L210.58 508.788L210.152 451.019Z" fill="white" fill-opacity="0.2"/>
<g id="Group 1060">
<path id="Ellipse 20" d="M281.942 434.329C285.578 436.429 287.387 441.052 287.264 446.962C287.142 452.858 285.093 459.945 281.128 466.813C277.163 473.681 272.051 479 267.007 482.053C261.95 485.115 257.043 485.86 253.407 483.76C249.77 481.661 247.962 477.038 248.084 471.127C248.207 465.232 250.256 458.145 254.221 451.277C258.186 444.408 263.298 439.09 268.342 436.036C273.398 432.975 278.306 432.23 281.942 434.329Z" fill="#BAD5D2" stroke="black" stroke-width="0.709776"/>
<g id="Union_3">
<mask id="path-31-inside-1" fill="white">
<path fill-rule="evenodd" clip-rule="evenodd" d="M281.474 437.232L281.476 437.23L290.374 442.368L286.172 449.647C285.805 454.779 283.914 460.802 280.558 466.617C277.201 472.431 272.98 476.995 268.771 479.79L264.687 486.863L256.016 481.856C255.997 481.845 255.979 481.835 255.96 481.824C255.942 481.813 255.923 481.803 255.905 481.792L255.789 481.725L255.79 481.723C249.414 477.817 249.798 465.096 256.83 452.916C263.861 440.736 274.9 433.669 281.474 437.232Z"/>
</mask>
<path fill-rule="evenodd" clip-rule="evenodd" d="M281.474 437.232L281.476 437.23L290.374 442.368L286.172 449.647C285.805 454.779 283.914 460.802 280.558 466.617C277.201 472.431 272.98 476.995 268.771 479.79L264.687 486.863L256.016 481.856C255.997 481.845 255.979 481.835 255.96 481.824C255.942 481.813 255.923 481.803 255.905 481.792L255.789 481.725L255.79 481.723C249.414 477.817 249.798 465.096 256.83 452.916C263.861 440.736 274.9 433.669 281.474 437.232Z" fill="#BAD5D2"/>
<path d="M281.474 437.232L281.136 437.856L281.743 438.186L282.089 437.587L281.474 437.232ZM281.476 437.23L281.831 436.615L281.216 436.26L280.861 436.875L281.476 437.23ZM290.374 442.368L290.988 442.723L291.343 442.108L290.729 441.753L290.374 442.368ZM286.172 449.647L285.557 449.292L285.475 449.433L285.464 449.596L286.172 449.647ZM268.771 479.79L268.378 479.198L268.239 479.29L268.156 479.435L268.771 479.79ZM264.687 486.863L264.332 487.478L264.947 487.833L265.302 487.218L264.687 486.863ZM256.016 481.856L256.371 481.241L256.366 481.238L256.016 481.856ZM255.905 481.792L256.265 481.18L256.26 481.177L255.905 481.792ZM255.789 481.725L255.175 481.37L254.82 481.985L255.434 482.34L255.789 481.725ZM255.79 481.723L256.405 482.078L256.751 481.479L256.161 481.118L255.79 481.723ZM282.089 437.587L282.09 437.585L280.861 436.875L280.86 436.877L282.089 437.587ZM281.121 437.844L290.019 442.982L290.729 441.753L281.831 436.615L281.121 437.844ZM289.759 442.013L285.557 449.292L286.786 450.001L290.988 442.723L289.759 442.013ZM285.464 449.596C285.106 454.605 283.255 460.525 279.943 466.262L281.172 466.972C284.574 461.08 286.504 454.954 286.88 449.697L285.464 449.596ZM279.943 466.262C276.631 471.999 272.481 476.475 268.378 479.198L269.163 480.381C273.48 477.516 277.771 472.864 281.172 466.972L279.943 466.262ZM268.156 479.435L264.073 486.508L265.302 487.218L269.385 480.145L268.156 479.435ZM265.042 486.248L256.371 481.241L255.661 482.471L264.332 487.478L265.042 486.248ZM256.366 481.238C256.349 481.229 256.332 481.219 256.315 481.209L255.605 482.439C255.626 482.45 255.646 482.462 255.666 482.474L256.366 481.238ZM256.315 481.209C256.298 481.2 256.281 481.19 256.265 481.18L255.545 482.403C255.565 482.415 255.585 482.427 255.605 482.439L256.315 481.209ZM256.26 481.177L256.144 481.11L255.434 482.34L255.55 482.406L256.26 481.177ZM256.404 482.08L256.405 482.078L255.176 481.368L255.175 481.37L256.404 482.08ZM256.161 481.118C253.293 479.361 251.817 475.53 251.992 470.446C252.165 465.393 253.975 459.281 257.444 453.271L256.215 452.561C252.653 458.731 250.756 465.069 250.573 470.398C250.391 475.696 251.911 480.179 255.42 482.328L256.161 481.118ZM257.444 453.271C260.914 447.261 265.357 442.541 269.705 439.769C274.084 436.977 278.189 436.259 281.136 437.856L281.812 436.608C278.185 434.642 273.483 435.677 268.942 438.572C264.368 441.488 259.777 446.391 256.215 452.561L257.444 453.271Z" fill="black" mask="url(#path-31-inside-1)"/>
</g>
<path id="Vector 314" d="M252.462 470.101L260.305 474.676M254.423 460.95L262.266 465.525M258.998 451.145L266.841 455.72M264.227 444.608L272.07 449.184M271.416 438.725L279.259 443.301" stroke="black" stroke-width="0.709776" stroke-linecap="round"/>
<g id="Union_4">
<mask id="path-34-inside-2" fill="white">
<path fill-rule="evenodd" clip-rule="evenodd" d="M189.286 455.757C189.321 455.735 189.357 455.713 189.392 455.693C192.226 454.056 197.059 457.12 200.127 462.435C203.168 467.703 203.334 473.206 200.577 474.895L200.578 474.898L196.73 477.121L194.962 474.06C193.141 472.851 191.315 470.877 189.863 468.361C188.411 465.846 187.593 463.24 187.435 461.02L185.619 457.874L189.286 455.757Z"/>
</mask>
<path fill-rule="evenodd" clip-rule="evenodd" d="M189.286 455.757C189.321 455.735 189.357 455.713 189.392 455.693C192.226 454.056 197.059 457.12 200.127 462.435C203.168 467.703 203.334 473.206 200.577 474.895L200.578 474.898L196.73 477.121L194.962 474.06C193.141 472.851 191.315 470.877 189.863 468.361C188.411 465.846 187.593 463.24 187.435 461.02L185.619 457.874L189.286 455.757Z" fill="#C4C4C4"/>
<path d="M189.286 455.757L189.665 456.357L189.653 456.364L189.641 456.371L189.286 455.757ZM200.577 474.895L199.962 475.25L199.616 474.651L200.206 474.29L200.577 474.895ZM200.578 474.898L201.193 474.544L201.548 475.158L200.933 475.513L200.578 474.898ZM196.73 477.121L197.085 477.735L196.47 478.09L196.115 477.476L196.73 477.121ZM194.962 474.06L195.355 473.468L195.494 473.56L195.577 473.705L194.962 474.06ZM187.435 461.02L188.05 460.665L188.131 460.807L188.143 460.97L187.435 461.02ZM185.619 457.874L185.004 458.229L184.65 457.615L185.264 457.26L185.619 457.874ZM189.747 456.308C189.719 456.324 189.692 456.34 189.665 456.357L188.908 455.156C188.95 455.129 188.994 455.103 189.037 455.078L189.747 456.308ZM199.512 462.79C198.024 460.213 196.124 458.211 194.293 457.058C192.43 455.884 190.822 455.687 189.747 456.308L189.037 455.078C190.797 454.062 193.022 454.579 195.05 455.857C197.111 457.155 199.161 459.342 200.741 462.08L199.512 462.79ZM200.206 474.29C201.264 473.642 201.89 472.17 201.817 470.031C201.745 467.924 200.986 465.344 199.512 462.79L200.741 462.08C202.308 464.794 203.154 467.599 203.236 469.983C203.316 472.335 202.647 474.459 200.947 475.501L200.206 474.29ZM199.964 475.253L199.962 475.25L201.191 474.54L201.193 474.544L199.964 475.253ZM196.375 476.506L200.223 474.284L200.933 475.513L197.085 477.735L196.375 476.506ZM195.577 473.705L197.344 476.766L196.115 477.476L194.348 474.414L195.577 473.705ZM190.478 468.006C191.885 470.444 193.641 472.33 195.355 473.468L194.57 474.651C192.642 473.371 190.745 471.309 189.249 468.716L190.478 468.006ZM188.143 460.97C188.292 463.066 189.071 465.568 190.478 468.006L189.249 468.716C187.752 466.124 186.894 463.415 186.727 461.071L188.143 460.97ZM186.234 457.519L188.05 460.665L186.82 461.375L185.004 458.229L186.234 457.519ZM189.641 456.371L185.974 458.489L185.264 457.26L188.932 455.142L189.641 456.371Z" fill="black" mask="url(#path-34-inside-2)"/>
</g>
<path id="Ellipse 19" d="M289.825 442.461C293.039 444.317 294.646 448.409 294.537 453.658C294.428 458.892 292.609 465.187 289.086 471.288C285.564 477.39 281.023 482.113 276.545 484.825C272.055 487.543 267.708 488.198 264.493 486.342C261.279 484.485 259.672 480.393 259.781 475.145C259.89 469.911 261.709 463.616 265.232 457.514C268.754 451.412 273.295 446.689 277.773 443.978C282.263 441.259 286.61 440.605 289.825 442.461Z" fill="white" stroke="black" stroke-width="0.709776"/>
<path id="Ellipse 23" d="M185.956 458.09C184.658 458.839 183.972 460.516 184.018 462.754C184.065 464.978 184.839 467.668 186.349 470.283C187.859 472.899 189.801 474.915 191.704 476.067C193.619 477.226 195.415 477.47 196.712 476.721C198.01 475.972 198.696 474.295 198.65 472.057C198.603 469.833 197.829 467.143 196.319 464.527C194.809 461.912 192.867 459.896 190.964 458.744C189.049 457.584 187.253 457.34 185.956 458.09Z" fill="white" stroke="black" stroke-width="0.709776"/>
<path id="Ellipse 24" d="M185.834 460.766C184.368 461.612 183.476 463.189 183.252 465.1C183.028 467.01 183.477 469.231 184.67 471.298C185.864 473.366 187.562 474.865 189.329 475.626C191.096 476.387 192.907 476.404 194.373 475.557C195.815 474.724 196.39 473.341 196.306 471.608C196.22 469.856 195.457 467.779 194.243 465.676C193.028 463.573 191.633 461.91 190.182 460.997C188.749 460.095 187.282 459.929 185.834 460.766Z" fill="#5E6FDB" stroke="black" stroke-width="0.709776"/>
<ellipse id="Ellipse 47" rx="1.30717" ry="2.61434" transform="matrix(0.868271 -0.496002 0.496003 0.868371 186.267 467.791)" fill="#D7DCFF"/>
</g>
<g id="Group 1100">
<ellipse id="Ellipse 41" cx="187.332" cy="512.781" rx="0.855736" ry="2.13934" fill="black"/>
<ellipse id="Ellipse 43" cx="192.182" cy="515.491" rx="0.855736" ry="2.13934" fill="black"/>
<ellipse id="Ellipse 44" cx="197.031" cy="518.486" rx="0.855736" ry="2.13934" fill="black"/>
</g>
<g id="Group 1102">
<ellipse id="Ellipse 41_2" cx="187.332" cy="502.797" rx="0.855736" ry="2.13934" fill="black"/>
<ellipse id="Ellipse 43_2" cx="192.182" cy="505.507" rx="0.855736" ry="2.13934" fill="black"/>
<ellipse id="Ellipse 44_2" cx="197.031" cy="508.502" rx="0.855736" ry="2.13934" fill="black"/>
</g>
<path id="Vector 152" d="M177.919 485.252L209.724 503.938" stroke="black" stroke-width="0.709776" stroke-linecap="round" stroke-linejoin="bevel"/>
<path id="Vector 153" d="M199.312 400.239L230.689 418.497" stroke="black" stroke-width="0.709776" stroke-linecap="round" stroke-linejoin="bevel"/>
<g id="Group 1108">
<path id="Ellipse 45" d="M240.483 508.9C240.483 514.099 236.89 520.516 232.457 523.233C228.025 525.949 224.431 523.937 224.431 518.738C224.431 513.538 228.025 507.121 232.457 504.405C236.89 501.688 240.483 503.701 240.483 508.9Z" fill="white" stroke="black" stroke-width="0.709776"/>
<path id="Shape" d="M236.027 508.607L231.119 517.429L228.889 516.153" stroke="black" stroke-width="0.709776" stroke-linecap="round" stroke-linejoin="round"/>
</g>
<g id="Group 1106">
<path id="Ellipse 46" d="M314.647 464.111C314.647 469.31 311.054 475.727 306.621 478.444C302.189 481.161 298.596 479.148 298.596 473.949C298.596 468.749 302.189 462.332 306.621 459.616C311.054 456.899 314.647 458.912 314.647 464.111Z" fill="white" stroke="black" stroke-width="0.709776"/>
<g id="Group 1105">
<path id="Shape_2" d="M308.383 463.504L309.793 464.293L308.383 466.811" stroke="black" stroke-width="0.709776" stroke-linecap="round" stroke-linejoin="round"/>
<path id="Shape_3" d="M303.448 470.663V469.836C303.448 468.923 304.08 467.796 304.858 467.318L309.794 464.294" stroke="black" stroke-width="0.709776" stroke-linecap="round" stroke-linejoin="round"/>
<path id="Shape_4" d="M304.858 474.76L303.448 473.971L304.858 471.453" stroke="black" stroke-width="0.709776" stroke-linecap="round" stroke-linejoin="round"/>
<path id="Shape_5" d="M309.794 467.601V468.428C309.794 469.341 309.162 470.469 308.383 470.946L303.448 473.971" stroke="black" stroke-width="0.709776" stroke-linecap="round" stroke-linejoin="round"/>
</g>
</g>
<g id="Group 1101">
<path id="Rectangle 940" d="M287.407 416.577L293.029 413.231L293.029 421.865L287.407 425.211L287.407 416.577Z" fill="#FFB5B5" stroke="black" stroke-width="0.709776"/>
<path id="Rectangle 941" d="M297.474 401.117L303.096 397.771V416.145L297.474 419.491V401.117Z" fill="#FFE598" stroke="black" stroke-width="0.709776"/>
<rect id="Rectangle 942" x="0.304993" y="0.173436" width="6.54247" height="28.3017" transform="matrix(0.859406 -0.511293 0 1 307.28 385.066)" fill="#BAD5D2" stroke="black" stroke-width="0.709776"/>
</g>
</g>
</g>
</g>
</svg>
