<svg width="1380" height="1898" viewBox="0 0 1380 1898" fill="none" xmlns="http://www.w3.org/2000/svg">
<rect x="57.5215" y="79.0483" width="1264.77" height="1739.07" rx="47.4291" fill="#B2E0DA"/>
<path d="M980.826 697.048C980.826 702.516 978.228 709.854 974.337 716.6C970.446 723.346 965.397 729.266 960.663 732C958.385 733.315 955.718 733.645 952.947 733.128C950.192 732.614 947.413 731.277 944.93 729.394C942.448 727.512 940.281 725.098 938.738 722.455C937.188 719.8 936.303 716.971 936.303 714.285C936.303 703.218 944.072 689.762 953.654 684.229C955.976 682.889 958.843 682.276 961.884 682.344C964.91 682.411 968.04 683.152 970.868 684.431C973.697 685.711 976.202 687.521 977.994 689.704C979.795 691.899 980.826 694.411 980.826 697.048Z" fill="#53978E" stroke="black" stroke-width="1.89716"/>
<path d="M982.195 701.244C982.195 712.311 974.427 725.768 964.844 731.301C955.262 736.834 947.493 732.348 947.493 721.282C947.493 710.215 955.262 696.759 964.844 691.225C974.427 685.692 982.195 690.178 982.195 701.244Z" fill="#53978E" stroke="black" stroke-width="1.89716"/>
<path d="M887.01 745.038C887.01 751.01 884.175 759.013 879.937 766.361C875.699 773.709 870.194 780.168 865.023 783.154C862.527 784.595 859.614 784.952 856.597 784.39C853.596 783.83 850.571 782.374 847.868 780.325C845.167 778.277 842.808 775.65 841.129 772.772C839.442 769.882 838.474 766.797 838.474 763.859C838.474 751.784 846.95 737.102 857.406 731.065C859.945 729.599 863.073 728.931 866.383 729.005C869.678 729.079 873.085 729.885 876.163 731.277C879.241 732.67 881.969 734.639 883.92 737.017C885.882 739.408 887.01 742.149 887.01 745.038Z" fill="#53978E" stroke="black" stroke-width="1.89716"/>
<path d="M888.5 749.598C888.5 761.673 880.024 776.355 869.569 782.392C859.113 788.429 850.637 783.535 850.637 771.461C850.637 759.386 859.113 744.704 869.569 738.667C880.024 732.63 888.5 737.524 888.5 749.598Z" fill="#53978E" stroke="black" stroke-width="1.89716"/>
<ellipse cx="809.701" cy="852.319" rx="101.324" ry="27.9548" fill="black" fill-opacity="0.5"/>
<path d="M1002.01 654.862V654.886L1002.01 654.91C1003.03 675.231 993.132 695.949 972.688 707.238L917.64 737.636C842.043 779.382 748.657 773.657 678.89 723.001L641.025 695.508C626.794 685.175 619.164 670.195 617.836 654.821V571.799L1002.01 580.16V654.862Z" fill="#53978E" stroke="black" stroke-width="1.89716"/>
<path d="M617.836 640.405V576.606L1002.01 576.606V640.445V640.469L1002.01 640.493C1003.03 660.802 993.132 681.508 972.688 692.79L917.64 723.171C842.043 764.893 748.657 759.171 678.89 708.544L641.025 681.067C626.794 670.74 619.164 655.769 617.836 640.405Z" fill="white" stroke="black" stroke-width="1.89716"/>
<path d="M1001.76 609.067C1002.79 629.716 992.721 650.774 971.941 662.243L916.893 692.623C884.254 710.637 848.313 719.844 812.375 720.447" stroke="black" stroke-width="1.89716" stroke-linecap="round"/>
<path d="M690.09 653.07L634.582 612.181C603.782 589.492 606.873 542.519 640.382 524.063L712.967 484.084C777.78 448.386 857.059 451.648 918.72 492.551L983.227 535.34C1015.94 557.042 1014.07 605.681 979.781 624.802L904.771 666.633C836.736 704.574 752.809 699.272 690.09 653.07Z" fill="#BAD5D2" stroke="black" stroke-width="1.89716"/>
<path d="M691.71 636.949L652.722 608.168C625.822 588.31 628.526 547.269 657.798 531.112L711.724 501.347C776.77 465.445 856.409 468.82 918.185 510.095L965.01 541.381C993.469 560.396 991.827 602.755 961.982 619.511L907.05 650.352C838.881 688.625 754.607 683.379 691.71 636.949Z" fill="white" stroke="black" stroke-width="1.89716"/>
<rect width="101.143" height="41.4944" rx="20.7472" transform="matrix(0.866 0.500044 -0.866 0.500044 838.656 493.589)" fill="#BAD5D2" stroke="black" stroke-width="1.89716"/>
<circle r="10.3736" transform="matrix(0.866 0.500044 -0.866 0.500044 890.308 544.161)" fill="#FFE598" stroke="black" stroke-width="1.89716"/>
<ellipse cx="749.626" cy="596.079" rx="55.5085" ry="33.7917" fill="#FFE598" stroke="black" stroke-width="1.89716"/>
<ellipse cx="749.627" cy="596.082" rx="43.4414" ry="26.5506" fill="#BAD5D2" stroke="black" stroke-width="1.89716"/>
<path d="M977.411 504.633L1129.4 387.572V268.765" stroke="black" stroke-width="1.89716"/>
<rect x="1167.03" y="273.208" width="130.873" height="40.035" fill="#FF8484" stroke="black" stroke-width="1.89716"/>
<rect x="1167.03" y="336.107" width="211.233" height="29.552" fill="#FFE598" stroke="black" stroke-width="1.89716"/>
<path d="M498.739 1112.65L346.752 995.591V876.783" stroke="black" stroke-width="1.89716"/>
<rect x="-0.948581" y="0.948581" width="307.973" height="42.37" transform="matrix(-1 0 0 1 308.58 879.019)" fill="#53978E" stroke="black" stroke-width="1.89716"/>
<rect x="-0.948581" y="0.948581" width="211.233" height="29.552" transform="matrix(-1 0 0 1 308.169 957.153)" fill="#FFE598" stroke="black" stroke-width="1.89716"/>
<ellipse cx="704.882" cy="1603.61" rx="101.324" ry="27.9548" fill="black" fill-opacity="0.5"/>
<path d="M467.294 1310.08L442.836 1303.09" stroke="black" stroke-width="1.89716" stroke-linecap="round"/>
<path d="M467.295 1338.04L444.584 1341.53M467.295 1364.24L449.825 1376.47" stroke="black" stroke-width="1.89716" stroke-linecap="round"/>
<path d="M791.116 1008.91L853.082 1045.81C858.68 1049.15 862.11 1055.18 862.11 1061.7V1340.21C862.11 1355.34 854.188 1369.36 841.233 1377.16L581.008 1533.91C568.575 1541.4 553.033 1541.46 540.547 1534.05L491.034 1504.7C481.676 1499.15 475.938 1489.07 475.938 1478.19V1202.62C475.938 1189.59 482.796 1177.53 493.99 1170.86L765.893 1008.92C773.663 1004.29 783.345 1004.29 791.116 1008.91Z" fill="white" stroke="black" stroke-width="1.89716" stroke-linecap="round" stroke-linejoin="bevel"/>
<path d="M849.066 1058.97L575.855 1221.8C566.531 1227.36 560.819 1237.41 560.819 1248.27V1523.17C560.819 1533.24 571.812 1539.45 580.436 1534.26L841.232 1377.16C854.188 1369.36 862.109 1355.34 862.109 1340.22V1066.38C862.109 1059.68 854.816 1055.54 849.066 1058.97Z" fill="#53978E" stroke="black" stroke-width="1.89716" stroke-linecap="round" stroke-linejoin="bevel"/>
<path d="M599.633 1295.59L600.243 1295.84L600.442 1295.1L599.633 1295.59ZM615.022 1286.17L614.213 1286.66L614.412 1287.17L615.022 1286.17ZM600.442 1250.85C600.442 1246.39 603.525 1240.88 607.327 1238.55V1236.65C602.632 1239.53 598.825 1246.33 598.825 1251.84L600.442 1250.85ZM600.442 1295.1V1250.85L598.825 1251.84V1296.09L600.442 1295.1ZM597.928 1304.51C597.928 1301.73 598.801 1298.67 600.243 1295.84L599.024 1295.34C597.335 1298.65 596.311 1302.25 596.311 1305.5L597.928 1304.51ZM607.326 1309.77C602.136 1312.95 597.928 1310.59 597.928 1304.51L596.311 1305.5C596.311 1312.63 601.242 1315.39 607.326 1311.67V1309.77ZM616.723 1292.99C616.723 1299.08 612.516 1306.59 607.326 1309.77V1311.67C613.409 1307.94 618.341 1299.13 618.341 1292L616.723 1292.99ZM614.412 1287.17C615.852 1288.22 616.723 1290.22 616.723 1292.99L618.341 1292C618.341 1288.75 617.318 1286.41 615.631 1285.17L614.412 1287.17ZM614.213 1242.41V1286.66L615.83 1285.67V1241.41L614.213 1242.41ZM607.327 1238.55C611.13 1236.22 614.213 1237.95 614.213 1242.41L615.83 1241.41C615.83 1235.91 612.023 1233.77 607.327 1236.65V1238.55Z" fill="white"/>
<path fill-rule="evenodd" clip-rule="evenodd" d="M607.327 1258.2C606.166 1258.91 605.225 1260.59 605.225 1261.95V1295.42C603.714 1297.25 602.678 1299.73 602.678 1301.85C602.678 1304.86 604.76 1306.03 607.327 1304.45C609.895 1302.88 611.976 1299.16 611.976 1296.15C611.976 1294.03 610.94 1292.82 609.429 1292.85V1259.37C609.429 1258.01 608.488 1257.49 607.327 1258.2Z" fill="white"/>
<path d="M708.479 1455.49L758.8 1115.02L841.524 1063.93L781.673 1411.26L708.479 1455.49Z" fill="white" fill-opacity="0.2"/>
<path d="M562.091 1283.54V1246.97C562.091 1237.95 566.786 1229.58 574.483 1224.88L641.384 1184.03L563.234 1437.95L562.091 1283.54Z" fill="white" fill-opacity="0.2"/>
<path d="M753.979 1238.93C763.698 1244.54 768.532 1256.9 768.204 1272.7C767.877 1288.46 762.4 1307.4 751.803 1325.76C741.205 1344.12 727.54 1358.33 714.058 1366.49C700.543 1374.68 687.425 1376.67 677.706 1371.06C667.988 1365.44 663.153 1353.09 663.481 1337.29C663.808 1321.53 669.285 1302.59 679.883 1284.23C690.48 1265.87 704.145 1251.66 717.627 1243.49C731.143 1235.31 744.26 1233.32 753.979 1238.93Z" fill="#BAD5D2" stroke="black" stroke-width="1.89716"/>
<mask id="path-32-inside-1" fill="white">
<path fill-rule="evenodd" clip-rule="evenodd" d="M752.728 1246.69L752.733 1246.68L776.516 1260.42L765.285 1279.87C764.305 1293.59 759.251 1309.69 750.279 1325.23C741.307 1340.77 730.025 1352.97 718.773 1360.44L707.859 1379.35L684.76 1366.01C684.684 1365.97 684.608 1365.92 684.532 1365.88C684.457 1365.84 684.381 1365.79 684.306 1365.75L684.076 1365.61L684.078 1365.61C667.035 1355.17 668.063 1321.17 686.856 1288.61C705.65 1256.06 735.156 1237.17 752.728 1246.69Z"/>
</mask>
<path fill-rule="evenodd" clip-rule="evenodd" d="M752.728 1246.69L752.733 1246.68L776.516 1260.42L765.285 1279.87C764.305 1293.59 759.251 1309.69 750.279 1325.23C741.307 1340.77 730.025 1352.97 718.773 1360.44L707.859 1379.35L684.76 1366.01C684.684 1365.97 684.608 1365.92 684.532 1365.88C684.457 1365.84 684.381 1365.79 684.306 1365.75L684.076 1365.61L684.078 1365.61C667.035 1355.17 668.063 1321.17 686.856 1288.61C705.65 1256.06 735.156 1237.17 752.728 1246.69Z" fill="#BAD5D2"/>
<path d="M752.728 1246.69L751.825 1248.36L753.448 1249.24L754.371 1247.64L752.728 1246.69ZM752.733 1246.68L753.681 1245.04L752.038 1244.09L751.09 1245.73L752.733 1246.68ZM776.516 1260.42L778.159 1261.37L779.108 1259.72L777.465 1258.77L776.516 1260.42ZM765.285 1279.87L763.642 1278.92L763.423 1279.3L763.392 1279.74L765.285 1279.87ZM718.773 1360.44L717.724 1358.86L717.353 1359.11L717.13 1359.49L718.773 1360.44ZM707.859 1379.35L706.911 1380.99L708.554 1381.94L709.502 1380.3L707.859 1379.35ZM684.76 1366.01L685.708 1364.37L685.698 1364.36L685.687 1364.35L684.76 1366.01ZM684.306 1365.75L685.276 1364.12L685.265 1364.11L685.255 1364.11L684.306 1365.75ZM684.076 1365.61L682.433 1364.67L681.484 1366.31L683.127 1367.26L684.076 1365.61ZM684.078 1365.61L685.721 1366.56L686.645 1364.96L685.069 1363.99L684.078 1365.61ZM754.371 1247.64L754.376 1247.63L751.09 1245.73L751.085 1245.74L754.371 1247.64ZM751.784 1248.33L775.568 1262.06L777.465 1258.77L753.681 1245.04L751.784 1248.33ZM774.873 1259.47L763.642 1278.92L766.928 1280.82L778.159 1261.37L774.873 1259.47ZM763.392 1279.74C762.437 1293.13 757.489 1308.95 748.636 1324.28L751.922 1326.18C761.013 1310.43 766.174 1294.06 767.177 1280.01L763.392 1279.74ZM748.636 1324.28C739.784 1339.62 728.691 1351.58 717.724 1358.86L719.822 1362.02C731.36 1354.37 742.831 1341.93 751.922 1326.18L748.636 1324.28ZM717.13 1359.49L706.216 1378.4L709.502 1380.3L720.416 1361.39L717.13 1359.49ZM708.808 1377.7L685.708 1364.37L683.811 1367.65L706.911 1380.99L708.808 1377.7ZM685.687 1364.35C685.618 1364.32 685.549 1364.28 685.481 1364.24L683.584 1367.52C683.666 1367.57 683.749 1367.62 683.833 1367.67L685.687 1364.35ZM685.481 1364.24C685.412 1364.2 685.344 1364.16 685.276 1364.12L683.337 1367.38C683.419 1367.43 683.501 1367.48 683.584 1367.52L685.481 1364.24ZM685.255 1364.11L685.024 1363.97L683.127 1367.26L683.358 1367.39L685.255 1364.11ZM685.719 1366.56L685.721 1366.56L682.435 1364.66L682.433 1364.67L685.719 1366.56ZM685.069 1363.99C677.404 1359.3 673.459 1349.06 673.924 1335.47C674.387 1321.96 679.226 1305.62 688.499 1289.56L685.213 1287.66C675.693 1304.15 670.621 1321.09 670.132 1335.34C669.647 1349.5 673.709 1361.48 683.087 1367.23L685.069 1363.99ZM688.499 1289.56C697.773 1273.5 709.65 1260.88 721.27 1253.47C732.976 1246.01 743.948 1244.09 751.825 1248.36L753.632 1245.02C743.937 1239.77 731.369 1242.53 719.23 1250.27C707.006 1258.07 694.734 1271.17 685.213 1287.66L688.499 1289.56Z" fill="black" mask="url(#path-32-inside-1)"/>
<path d="M675.183 1334.54L696.146 1346.77M680.424 1310.08L701.387 1322.31M692.652 1283.88L713.616 1296.11M706.628 1266.4L727.592 1278.63M725.845 1250.68L746.808 1262.91" stroke="black" stroke-width="1.89716" stroke-linecap="round"/>
<mask id="path-35-inside-2" fill="white">
<path fill-rule="evenodd" clip-rule="evenodd" d="M506.313 1296.21C506.408 1296.14 506.505 1296.09 506.603 1296.03C514.179 1291.66 527.095 1299.85 535.295 1314.05C543.425 1328.13 543.869 1342.84 536.497 1347.36L536.502 1347.36L526.215 1353.3L521.491 1345.12C516.624 1341.89 511.743 1336.61 507.863 1329.89C503.982 1323.17 501.796 1316.2 501.372 1310.27L496.517 1301.86L506.313 1296.21Z"/>
</mask>
<path fill-rule="evenodd" clip-rule="evenodd" d="M506.313 1296.21C506.408 1296.14 506.505 1296.09 506.603 1296.03C514.179 1291.66 527.095 1299.85 535.295 1314.05C543.425 1328.13 543.869 1342.84 536.497 1347.36L536.502 1347.36L526.215 1353.3L521.491 1345.12C516.624 1341.89 511.743 1336.61 507.863 1329.89C503.982 1323.17 501.796 1316.2 501.372 1310.27L496.517 1301.86L506.313 1296.21Z" fill="#C4C4C4"/>
<path d="M506.313 1296.21L507.327 1297.81L507.295 1297.83L507.262 1297.85L506.313 1296.21ZM536.497 1347.36L534.855 1348.31L533.93 1346.7L535.506 1345.74L536.497 1347.36ZM536.502 1347.36L538.145 1346.42L539.094 1348.06L537.451 1349.01L536.502 1347.36ZM526.215 1353.3L527.164 1354.95L525.521 1355.9L524.572 1354.25L526.215 1353.3ZM521.491 1345.12L522.54 1343.54L522.911 1343.79L523.134 1344.17L521.491 1345.12ZM501.372 1310.27L503.015 1309.32L503.233 1309.7L503.264 1310.14L501.372 1310.27ZM496.517 1301.86L494.875 1302.81L493.926 1301.17L495.569 1300.22L496.517 1301.86ZM507.552 1297.67C507.476 1297.72 507.401 1297.76 507.327 1297.81L505.299 1294.6C505.416 1294.53 505.535 1294.46 505.655 1294.39L507.552 1297.67ZM533.652 1315C529.676 1308.11 524.597 1302.76 519.704 1299.68C514.723 1296.54 510.424 1296.01 507.552 1297.67L505.655 1294.39C510.358 1291.67 516.304 1293.05 521.726 1296.47C527.234 1299.94 532.714 1305.78 536.938 1313.1L533.652 1315ZM535.506 1345.74C538.336 1344.01 540.009 1340.07 539.813 1334.36C539.62 1328.72 537.594 1321.83 533.652 1315L536.938 1313.1C541.126 1320.36 543.387 1327.86 543.605 1334.23C543.821 1340.51 542.031 1346.19 537.488 1348.97L535.506 1345.74ZM534.859 1348.31L534.855 1348.31L538.14 1346.41L538.145 1346.42L534.859 1348.31ZM525.267 1351.66L535.554 1345.72L537.451 1349.01L527.164 1354.95L525.267 1351.66ZM523.134 1344.17L527.858 1352.36L524.572 1354.25L519.848 1346.07L523.134 1344.17ZM509.505 1328.94C513.267 1335.46 517.958 1340.5 522.54 1343.54L520.442 1346.7C515.289 1343.28 510.22 1337.77 506.22 1330.84L509.505 1328.94ZM503.264 1310.14C503.664 1315.74 505.744 1322.43 509.505 1328.94L506.22 1330.84C502.22 1323.91 499.927 1316.67 499.48 1310.41L503.264 1310.14ZM498.16 1300.91L503.015 1309.32L499.729 1311.22L494.875 1302.81L498.16 1300.91ZM507.262 1297.85L497.466 1303.5L495.569 1300.22L505.365 1294.56L507.262 1297.85Z" fill="black" mask="url(#path-35-inside-2)"/>
<path d="M775.049 1260.66C783.642 1265.62 787.936 1276.56 787.645 1290.59C787.354 1304.58 782.491 1321.41 773.076 1337.72C763.661 1354.02 751.523 1366.65 739.554 1373.9C727.551 1381.16 715.933 1382.91 707.341 1377.95C698.748 1372.99 694.454 1362.05 694.745 1348.02C695.036 1334.03 699.899 1317.21 709.314 1300.9C718.729 1284.59 730.867 1271.96 742.836 1264.72C754.839 1257.45 766.457 1255.7 775.049 1260.66Z" fill="white" stroke="black" stroke-width="1.89716"/>
<path d="M497.419 1302.44C493.95 1304.44 492.115 1308.92 492.24 1314.9C492.363 1320.85 494.434 1328.04 498.47 1335.03C502.506 1342.02 507.697 1347.41 512.783 1350.49C517.902 1353.59 522.701 1354.24 526.169 1352.24C529.637 1350.23 531.472 1345.75 531.348 1339.77C531.224 1333.82 529.154 1326.63 525.117 1319.64C521.081 1312.65 515.89 1307.26 510.805 1304.18C505.685 1301.09 500.887 1300.43 497.419 1302.44Z" fill="white" stroke="black" stroke-width="1.89716"/>
<path d="M497.09 1309.59C493.172 1311.86 490.789 1316.07 490.19 1321.18C489.59 1326.28 490.79 1332.22 493.98 1337.75C497.171 1343.27 501.711 1347.28 506.433 1349.31C511.156 1351.35 515.997 1351.39 519.915 1349.13C523.771 1346.9 525.307 1343.2 525.081 1338.57C524.853 1333.89 522.812 1328.34 519.567 1322.72C516.321 1317.1 512.591 1312.65 508.713 1310.21C504.883 1307.8 500.962 1307.36 497.09 1309.59Z" fill="#5E6FDB" stroke="black" stroke-width="1.89716"/>
<ellipse rx="3.49394" ry="6.98788" transform="matrix(0.868271 -0.496002 0.496003 0.868371 498.25 1328.37)" fill="#D7DCFF"/>
<ellipse cx="501.097" cy="1448.62" rx="2.2873" ry="5.71824" fill="black"/>
<ellipse cx="514.06" cy="1455.86" rx="2.2873" ry="5.71824" fill="black"/>
<ellipse cx="527.019" cy="1463.87" rx="2.2873" ry="5.71824" fill="black"/>
<ellipse cx="501.097" cy="1421.94" rx="2.2873" ry="5.71824" fill="black"/>
<ellipse cx="514.06" cy="1429.18" rx="2.2873" ry="5.71824" fill="black"/>
<ellipse cx="527.019" cy="1437.18" rx="2.2873" ry="5.71824" fill="black"/>
<path d="M475.938 1375.04L560.949 1424.98" stroke="black" stroke-width="1.89716" stroke-linecap="round" stroke-linejoin="bevel"/>
<path d="M533.118 1147.81L616.986 1196.61" stroke="black" stroke-width="1.89716" stroke-linecap="round" stroke-linejoin="bevel"/>
<path d="M643.165 1438.25C643.165 1452.14 633.56 1469.29 621.712 1476.56C609.865 1483.82 600.26 1478.44 600.26 1464.54C600.26 1450.64 609.865 1433.49 621.712 1426.23C633.56 1418.97 643.165 1424.35 643.165 1438.25Z" fill="white" stroke="black" stroke-width="1.89716"/>
<path d="M631.254 1437.46L618.136 1461.04L612.173 1457.63" stroke="black" stroke-width="1.89716" stroke-linecap="round" stroke-linejoin="round"/>
<path d="M841.397 1318.53C841.397 1332.43 831.793 1349.58 819.945 1356.84C808.097 1364.1 798.492 1358.72 798.492 1344.83C798.492 1330.93 808.097 1313.78 819.945 1306.52C831.793 1299.25 841.397 1304.63 841.397 1318.53Z" fill="white" stroke="black" stroke-width="1.89716"/>
<path d="M824.655 1316.91L828.424 1319.02L824.655 1325.75" stroke="black" stroke-width="1.89716" stroke-linecap="round" stroke-linejoin="round"/>
<path d="M811.464 1336.04V1333.83C811.464 1331.39 813.151 1328.38 815.233 1327.1L828.424 1319.02" stroke="black" stroke-width="1.89716" stroke-linecap="round" stroke-linejoin="round"/>
<path d="M815.233 1346.99L811.464 1344.88L815.233 1338.15" stroke="black" stroke-width="1.89716" stroke-linecap="round" stroke-linejoin="round"/>
<path d="M828.424 1327.86V1330.07C828.424 1332.51 826.737 1335.52 824.655 1336.8L811.464 1344.88" stroke="black" stroke-width="1.89716" stroke-linecap="round" stroke-linejoin="round"/>
<path d="M768.587 1191.47L783.615 1182.53L783.615 1205.61L768.587 1214.55L768.587 1191.47Z" fill="#FFB5B5" stroke="black" stroke-width="1.89716"/>
<path d="M795.494 1150.15L810.523 1141.21V1190.32L795.494 1199.26V1150.15Z" fill="#FFE598" stroke="black" stroke-width="1.89716"/>
<rect x="0.815217" y="0.463578" width="17.4874" height="75.6477" transform="matrix(0.859406 -0.511293 0 1 821.704 1107.25)" fill="#BAD5D2" stroke="black" stroke-width="1.89716"/>
</svg>
