<svg width="416" height="569" viewBox="0 0 416 569" fill="none" xmlns="http://www.w3.org/2000/svg">
<rect width="398" height="569" rx="15" fill="#B0B8ED"/>
<circle cx="189.617" cy="536.074" r="7.92555" fill="#FF9999" stroke="black" stroke-width="0.6" stroke-linecap="round" stroke-linejoin="round"/>
<path d="M186.277 532.221C188.157 533.307 191.204 533.307 193.084 532.221C194.023 531.679 194.493 530.968 194.493 530.257L194.493 489.272L184.867 489.272L184.867 530.257C184.867 530.968 185.337 531.679 186.277 532.221Z" fill="#D6D2CD" stroke="black" stroke-width="0.6" stroke-linecap="round" stroke-linejoin="round"/>
<path d="M186.535 522.496C188.274 523.5 191.093 523.5 192.831 522.496C193.7 521.994 194.135 521.336 194.135 520.679L194.133 503L185.229 503L185.231 520.679C185.231 521.336 185.666 521.994 186.535 522.496Z" fill="#BFBCB9"/>
<path d="M175.474 502.16C183.32 506.69 196.041 506.69 203.887 502.16C207.81 499.895 209.772 496.926 209.772 493.958L209.772 483.636L169.59 483.636L169.59 493.958C169.59 496.926 171.551 499.895 175.474 502.16Z" fill="#FFCA31" stroke="black" stroke-width="0.6" stroke-linecap="round" stroke-linejoin="round"/>
<circle r="16.404" transform="matrix(0.866025 -0.5 0.866025 0.5 189.68 483.729)" fill="#FFE598" stroke="black" stroke-width="0.6" stroke-linecap="round" stroke-linejoin="round"/>
<path d="M183.924 486.631C187.104 488.467 192.26 488.467 195.44 486.631C197.03 485.713 197.825 484.509 197.825 483.306L197.824 413.965L181.538 413.965L181.539 483.306C181.539 484.509 182.334 485.713 183.924 486.631Z" fill="#D6D2CD" stroke="black" stroke-width="0.6" stroke-linecap="round" stroke-linejoin="round"/>
<path d="M184.212 457.103C187 458 192 458 195.16 457.103C196.672 456.23 197.428 455.087 197.428 453.943L197.423 448.197L181.94 448.197L181.945 453.943C181.945 455.087 182.701 456.23 184.212 457.103Z" fill="#BFBCB9"/>
<path d="M197.823 476C197.823 477.203 197.028 478.406 195.438 479.324C192.258 481.16 187.102 481.16 183.922 479.324C182.332 478.406 181.537 477.203 181.537 476" stroke="black" stroke-width="0.6" stroke-linecap="round" stroke-linejoin="round"/>
<path d="M183.922 431.324C187.102 433.16 192.258 433.16 195.438 431.324C197.028 430.406 197.823 429.203 197.823 428" stroke="black" stroke-width="0.6" stroke-linecap="round" stroke-linejoin="round"/>
<path fill-rule="evenodd" clip-rule="evenodd" d="M129.597 401.77C128.754 403.603 128.167 405.467 127.835 407.344C129.238 415.275 135.202 422.988 145.728 429.065C170.016 443.087 209.394 443.087 233.682 429.065C244.207 422.988 250.172 415.275 251.574 407.344C251.242 405.467 250.655 403.603 249.813 401.77H259.365L259.365 412.259C259.365 422.554 252.563 432.85 238.957 440.705C211.747 456.415 167.629 456.415 140.418 440.705C126.813 432.85 120.01 422.554 120.01 412.259L120.01 401.77L129.597 401.77Z" fill="#FFCA31"/>
<path d="M127.835 407.344L127.47 407.322C127.467 407.336 127.467 407.351 127.47 407.365L127.835 407.344ZM129.597 401.77L129.952 401.825C129.981 401.761 129.957 401.693 129.888 401.641C129.818 401.589 129.711 401.558 129.597 401.558L129.597 401.77ZM251.574 407.344L251.94 407.365C251.942 407.351 251.942 407.336 251.94 407.322L251.574 407.344ZM249.813 401.77L249.813 401.558C249.699 401.558 249.591 401.589 249.522 401.641C249.452 401.693 249.429 401.761 249.458 401.825L249.813 401.77ZM259.365 401.77H259.733C259.733 401.653 259.568 401.558 259.365 401.558L259.365 401.77ZM259.365 412.259H259.733H259.365ZM120.01 412.259L120.378 412.259L120.378 412.259L120.01 412.259ZM120.01 401.77L120.01 401.558C119.913 401.558 119.819 401.58 119.75 401.62C119.681 401.66 119.643 401.714 119.643 401.77L120.01 401.77ZM128.201 407.365C128.531 405.5 129.114 403.647 129.952 401.825L129.242 401.716C128.394 403.56 127.804 405.435 127.47 407.322L128.201 407.365ZM145.988 428.915C135.524 422.874 129.595 415.206 128.201 407.322L127.47 407.365C128.881 415.343 134.881 423.102 145.468 429.215L145.988 428.915ZM233.422 428.915C209.278 442.855 170.132 442.855 145.988 428.915L145.468 429.215C169.899 443.32 209.51 443.32 233.942 429.215L233.422 428.915ZM251.209 407.322C249.814 415.206 243.886 422.874 233.422 428.915L233.942 429.215C244.529 423.102 250.529 415.343 251.94 407.365L251.209 407.322ZM249.458 401.825C250.295 403.647 250.879 405.5 251.209 407.365L251.94 407.322C251.606 405.435 251.015 403.56 250.168 401.716L249.458 401.825ZM259.365 401.558H249.813L249.813 401.982H259.365L259.365 401.558ZM259.733 412.259L259.733 401.77H258.998L258.998 412.259H259.733ZM239.217 440.855C252.894 432.958 259.733 422.608 259.733 412.259H258.998C258.998 422.5 252.231 432.741 238.698 440.555L239.217 440.855ZM140.159 440.855C167.513 456.648 211.863 456.648 239.217 440.855L238.698 440.555C211.63 456.182 167.745 456.182 140.678 440.555L140.159 440.855ZM119.643 412.259C119.643 422.608 126.481 432.958 140.159 440.855L140.678 440.555C127.144 432.741 120.378 422.5 120.378 412.259L119.643 412.259ZM119.643 401.77L119.643 412.259L120.378 412.259L120.378 401.77L119.643 401.77ZM129.597 401.558L120.01 401.558L120.01 401.982L129.597 401.982L129.597 401.558Z" fill="black"/>
<path fill-rule="evenodd" clip-rule="evenodd" d="M238.957 432.121C266.168 416.41 266.168 390.939 238.957 375.229C211.746 359.519 167.629 359.519 140.418 375.229C113.207 390.939 113.207 416.41 140.418 432.121C167.629 447.831 211.746 447.831 238.957 432.121ZM233.665 429.065C257.953 415.042 257.953 392.307 233.665 378.284C209.377 364.262 169.999 364.262 145.711 378.284C121.423 392.307 121.423 415.042 145.711 429.065C169.999 443.087 209.377 443.087 233.665 429.065Z" fill="#FFE598"/>
<path d="M238.697 375.379C265.765 391.006 265.765 416.343 238.697 431.971L239.217 432.271C266.571 416.478 266.571 390.872 239.217 375.079L238.697 375.379ZM140.678 375.379C167.745 359.752 211.63 359.752 238.697 375.379L239.217 375.079C211.863 359.286 167.512 359.286 140.158 375.079L140.678 375.379ZM140.678 431.971C113.61 416.343 113.61 391.006 140.678 375.379L140.158 375.079C112.804 390.872 112.804 416.478 140.158 432.271L140.678 431.971ZM238.697 431.971C211.63 447.598 167.745 447.598 140.678 431.971L140.158 432.271C167.512 448.064 211.863 448.064 239.217 432.271L238.697 431.971ZM233.405 378.434C257.55 392.374 257.55 414.975 233.405 428.915L233.925 429.215C258.356 415.109 258.356 392.24 233.925 378.134L233.405 378.434ZM145.971 378.434C170.115 364.495 209.261 364.495 233.405 378.434L233.925 378.134C209.493 364.029 169.882 364.029 145.451 378.134L145.971 378.434ZM145.971 428.915C121.826 414.975 121.826 392.374 145.971 378.434L145.451 378.134C121.02 392.24 121.02 415.109 145.451 429.215L145.971 428.915ZM233.405 428.915C209.261 442.855 170.115 442.855 145.971 428.915L145.451 429.215C169.882 443.32 209.493 443.32 233.925 429.215L233.405 428.915Z" fill="black"/>
<path fill-rule="evenodd" clip-rule="evenodd" d="M251.574 407.344C253.408 396.973 247.444 386.23 233.681 378.285C209.393 364.262 170.015 364.262 145.727 378.285C131.965 386.23 126.001 396.973 127.835 407.344C129.237 399.412 135.202 391.699 145.727 385.622C170.015 371.6 209.393 371.6 233.681 385.622C244.207 391.699 250.171 399.412 251.574 407.344Z" fill="#FFCA31"/>
<path d="M251.574 407.344L251.208 407.365C251.227 407.473 251.385 407.556 251.574 407.556C251.762 407.556 251.92 407.473 251.939 407.365L251.574 407.344ZM127.835 407.344L127.469 407.365C127.488 407.474 127.646 407.556 127.835 407.556C128.023 407.556 128.181 407.474 128.2 407.365L127.835 407.344ZM233.421 378.435C247.102 386.333 253.031 397.013 251.208 407.322L251.939 407.365C253.784 396.934 247.785 386.127 233.941 378.135L233.421 378.435ZM145.987 378.435C170.131 364.495 209.277 364.495 233.421 378.435L233.941 378.135C209.51 364.029 169.899 364.029 145.467 378.135L145.987 378.435ZM128.2 407.322C126.377 397.013 132.306 386.333 145.987 378.435L145.467 378.135C131.623 386.127 125.624 396.934 127.469 407.365L128.2 407.322ZM128.2 407.365C129.595 399.481 135.523 391.814 145.987 385.772L145.467 385.472C134.88 391.585 128.88 399.344 127.469 407.322L128.2 407.365ZM145.987 385.772C170.131 371.833 209.277 371.833 233.421 385.772L233.941 385.472C209.51 371.367 169.899 371.367 145.467 385.472L145.987 385.772ZM233.421 385.772C243.885 391.814 249.814 399.481 251.208 407.365L251.939 407.322C250.528 399.344 244.529 391.585 233.941 385.472L233.421 385.772Z" fill="black"/>
<circle r="6.69769" transform="matrix(0.866025 -0.5 0.866025 0.5 189.681 413.965)" fill="#FF9999" stroke="black" stroke-width="0.6" stroke-linecap="round" stroke-linejoin="round"/>
<path d="M180.25 419.504C185.459 422.511 193.903 422.511 199.111 419.504C201.715 418 203.017 416.029 203.017 414.059L203.017 360.377L176.344 360.377L176.344 414.059C176.344 416.029 177.646 418 180.25 419.504Z" fill="#FF8484" fill-opacity="0.2" stroke="black" stroke-width="0.6" stroke-linecap="round" stroke-linejoin="round"/>
<path d="M203.016 388.622C203.01 386.657 201.708 384.692 199.11 383.193C193.902 380.186 185.458 380.186 180.249 383.193C177.652 384.692 176.35 386.657 176.343 388.622" stroke="black" stroke-width="0.6" stroke-linecap="round" stroke-linejoin="round" stroke-dasharray="1.6 1.6"/>
<path d="M203.016 414.874C203.01 412.909 201.708 410.944 199.11 409.445C193.902 406.438 185.458 406.438 180.249 409.445C177.652 410.944 176.35 412.909 176.343 414.874" stroke="black" stroke-width="0.6" stroke-linecap="round" stroke-linejoin="round" stroke-dasharray="1.6 1.6"/>
<path d="M188.02 414.992C188.946 415.527 190.446 415.527 191.371 414.992C191.834 414.725 192.065 414.375 192.065 414.025L192.067 362.329L187.328 362.329L187.326 414.025C187.326 414.375 187.558 414.725 188.02 414.992Z" fill="#FFCA31" fill-opacity="0.5" stroke="black" stroke-width="0.6" stroke-linecap="round" stroke-linejoin="round"/>
<path d="M203.017 388.623C203.023 390.598 201.721 392.575 199.11 394.082C193.902 397.089 185.458 397.089 180.249 394.082C177.639 392.575 176.337 390.598 176.343 388.623" stroke="black" stroke-width="0.6" stroke-linecap="round" stroke-linejoin="round"/>
<path d="M66.6963 446.708C67.8407 444.41 69.8568 443.509 72.1722 442.978C73.5413 442.639 77.2821 442.156 81.2924 442.936C86.3053 443.91 87.1494 438.484 93.5448 434.957C95.2756 433.983 99.7398 433.081 103.75 437.268C104.278 433.779 106.981 426.842 113.575 427.003C120.17 427.164 122.873 429.351 123.401 430.424C126.341 427.322 136.233 427.003 136.737 435.456C139.911 434.114 146.58 433.283 147.863 440.689C151.66 440.894 157.569 442.662 155.712 449.754C154.396 454.779 153.553 454.367 149.066 454.779C140.043 455.181 137.437 457.395 131.221 460.012C125.005 462.629 121.997 460.414 121.195 460.012C116.543 457.114 110.536 456.161 108.115 456.046C104.411 456.046 99.9353 456.122 96.6739 458.206C77.0571 466.1 68.273 458.373 66.3331 453.522C65.8878 451.567 65.7814 448.544 66.6963 446.708Z" fill="white" stroke="black" stroke-width="0.6" stroke-linecap="round" stroke-linejoin="round"/>
<path d="M108.404 444.78C109.845 442.978 113.986 439.768 119.018 441.34C124.05 442.913 124.653 445.468 124.325 446.549C125.079 445.01 127.293 442.127 130.124 442.913C133.662 443.896 134.055 444.977 134.94 447.63" stroke="black" stroke-width="0.6"/>
<path d="M190 489.732C190 488.66 190.572 487.67 191.5 487.134L217.923 471.879C218.863 471.336 220.023 471.343 220.956 471.898L223.033 473.132C223.942 473.673 224.5 474.653 224.5 475.711V502.27C224.5 503.343 223.927 504.334 222.998 504.869L196.528 520.119C195.585 520.663 194.421 520.653 193.487 520.092L191.457 518.874C190.553 518.332 190 517.355 190 516.301L190 489.732Z" fill="#D6D2CD" stroke="black" stroke-width="0.6" stroke-linecap="round" stroke-linejoin="round"/>
<path d="M195 492.736C195 491.664 195.572 490.674 196.5 490.138L222.945 474.87C223.612 474.485 224.445 474.966 224.445 475.736L224.445 503.427C224.445 503.784 224.254 504.114 223.945 504.293L196.5 520.138C195.833 520.523 195 520.042 195 519.272L195 492.736Z" fill="#EEEEEE" stroke="black" stroke-width="0.6" stroke-linecap="round" stroke-linejoin="round"/>
<rect x="195" y="372" width="4" height="44" rx="2" fill="white" fill-opacity="0.8"/>
<ellipse cx="185.22" cy="539.011" rx="1" ry="2.87578" transform="rotate(-27.6409 185.22 539.011)" fill="#FFB5B5"/>
<path d="M414.396 166.808C412.623 163.249 409.5 161.853 405.913 161.03C403.792 160.506 397.997 159.758 391.785 160.965C384.019 162.474 382.712 154.068 372.805 148.606C370.124 147.097 363.208 145.7 356.996 152.185C356.179 146.781 351.991 136.034 341.776 136.284C331.56 136.533 327.372 139.921 326.555 141.584C322 136.778 306.676 136.284 305.896 149.379C300.979 147.3 290.648 146.012 288.66 157.486C284.817 156.031 275.46 153.993 268.781 157.486C260.431 161.851 250.144 157.532 246.106 163.433C244.623 164.803 243.481 166.547 243.12 168.177C236.717 180.115 246.106 186.482 254.182 182.117C262.258 177.752 272.819 178.688 286.797 179.311C300.774 179.935 304.812 183.365 314.441 187.418C324.071 191.471 328.73 188.041 329.972 187.418C337.179 182.928 346.483 181.452 350.235 181.275C355.971 181.275 362.905 181.393 367.957 184.62C398.346 196.849 411.953 184.879 414.958 177.365C415.648 174.335 415.813 169.654 414.396 166.808Z" fill="white" stroke="black" stroke-width="0.6" stroke-linecap="round" stroke-linejoin="round"/>
<path d="M344.527 161.096C342.294 158.304 335.88 153.331 328.085 155.767C320.29 158.203 319.356 162.161 319.863 163.836C318.696 161.451 315.266 156.985 310.881 158.203C305.4 159.725 304.791 161.4 303.421 165.511" stroke="black" stroke-width="0.6"/>
<path fill-rule="evenodd" clip-rule="evenodd" d="M147.59 255.569C144.916 253.807 141.713 252.781 138.271 252.781C128.906 252.781 121.314 260.373 121.314 269.738C121.314 279.103 128.906 286.695 138.271 286.695C143.721 286.695 148.571 284.124 151.673 280.129C152.67 268.679 149.642 259.867 147.59 255.569Z" fill="#FFE598"/>
<path d="M147.59 255.569L147.86 255.439C147.837 255.39 147.8 255.348 147.755 255.318L147.59 255.569ZM151.673 280.129L151.91 280.313C151.945 280.267 151.967 280.212 151.972 280.155L151.673 280.129ZM138.271 253.081C141.653 253.081 144.798 254.088 147.424 255.819L147.755 255.318C145.033 253.525 141.774 252.481 138.271 252.481V253.081ZM121.614 269.738C121.614 260.539 129.072 253.081 138.271 253.081V252.481C128.741 252.481 121.014 260.207 121.014 269.738H121.614ZM138.271 286.395C129.072 286.395 121.614 278.938 121.614 269.738H121.014C121.014 279.269 128.741 286.995 138.271 286.995V286.395ZM151.436 279.945C148.388 283.87 143.625 286.395 138.271 286.395V286.995C143.818 286.995 148.753 284.378 151.91 280.313L151.436 279.945ZM151.972 280.155C152.975 268.64 149.93 259.774 147.86 255.439L147.319 255.698C149.354 259.96 152.366 268.718 151.374 280.103L151.972 280.155Z" fill="black"/>
<path d="M143.407 277.652L179.988 299.017L182.723 294.114L146.282 272.739C144.9 271.928 143.12 272.419 142.348 273.824C141.605 275.176 142.075 276.874 143.407 277.652Z" fill="#FFE598" stroke="black" stroke-width="0.6" stroke-linecap="round" stroke-linejoin="round"/>
<path d="M274.494 288.723C274.494 298.088 266.902 305.68 257.537 305.68C248.172 305.68 240.58 298.088 240.58 288.723C240.58 279.358 248.172 271.766 257.537 271.766C266.902 271.766 274.494 279.358 274.494 288.723Z" fill="#FFE598" stroke="black" stroke-width="0.6" stroke-linecap="round" stroke-linejoin="round"/>
<path d="M274.495 290.566C274.495 298.2 268.306 304.389 260.671 304.389C253.037 304.389 246.848 298.2 246.848 290.566C246.848 282.931 253.037 276.742 260.671 276.742C268.306 276.742 274.495 282.931 274.495 290.566Z" fill="#FFCA31" stroke="black" stroke-width="0.6" stroke-linecap="round" stroke-linejoin="round"/>
<path d="M273.204 290.567C273.204 297.489 267.592 303.1 260.67 303.1C253.748 303.1 248.137 297.489 248.137 290.567C248.137 283.645 253.748 278.033 260.67 278.033C267.592 278.033 273.204 283.645 273.204 290.567Z" fill="#7B7B7B" stroke="black" stroke-width="0.6" stroke-linecap="round" stroke-linejoin="round"/>
<path fill-rule="evenodd" clip-rule="evenodd" d="M263.713 302.726C269.166 301.367 273.205 296.438 273.205 290.564C273.205 284.691 269.166 279.761 263.713 278.402C258.261 279.761 254.221 284.691 254.221 290.564C254.221 296.438 258.261 301.367 263.713 302.726Z" fill="#363636"/>
<path fill-rule="evenodd" clip-rule="evenodd" d="M263.711 302.729C258.259 301.37 254.219 296.44 254.219 290.567C254.219 284.693 258.259 279.764 263.711 278.405C262.737 278.162 261.719 278.033 260.67 278.033C253.748 278.033 248.137 283.645 248.137 290.567C248.137 297.489 253.748 303.1 260.67 303.1C261.719 303.1 262.738 302.971 263.711 302.729Z" fill="black"/>
<path d="M242.476 288.773L200.585 295.082L201.531 300.616L243.318 294.403C244.904 294.167 245.982 292.669 245.702 291.09C245.432 289.571 244.001 288.543 242.476 288.773Z" fill="#FFE598" stroke="black" stroke-width="0.6" stroke-linecap="round" stroke-linejoin="round"/>
<circle r="10.8894" transform="matrix(0.866025 -0.5 0.866025 0.5 189.679 360.438)" fill="#FF9999" stroke="black" stroke-width="0.6" stroke-linecap="round" stroke-linejoin="round"/>
<path d="M183.551 362.481C186.936 364.435 192.425 364.435 195.81 362.481C197.502 361.504 198.349 360.223 198.349 358.942L198.349 317.321L181.012 317.321L181.012 358.942C181.012 360.223 181.858 361.504 183.551 362.481Z" fill="#D6D2CD" stroke="black" stroke-width="0.6" stroke-linecap="round" stroke-linejoin="round"/>
<path d="M181.4 332L192.9 321L181.4 319V332Z" fill="#BFBCB9"/>
<path d="M198.351 356.005C198.351 357.285 197.504 358.566 195.812 359.543C192.427 361.498 186.938 361.498 183.553 359.543C181.86 358.566 181.014 357.285 181.014 356.005" stroke="black" stroke-width="0.6" stroke-linecap="round" stroke-linejoin="round"/>
<path d="M175.474 317.753C183.32 322.283 196.041 322.283 203.887 317.753C207.81 315.489 209.772 312.52 209.772 309.551L209.772 299.23L169.59 299.23L169.59 309.551C169.59 312.52 171.551 315.489 175.474 317.753Z" fill="#FFCA31" stroke="black" stroke-width="0.6" stroke-linecap="round" stroke-linejoin="round"/>
<circle r="16.404" transform="matrix(0.866025 -0.5 0.866025 0.5 189.68 299.322)" fill="#FFE598" stroke="black" stroke-width="0.6" stroke-linecap="round" stroke-linejoin="round"/>
<circle r="6.69769" transform="matrix(0.866025 -0.5 0.866025 0.5 189.681 299.23)" fill="#EEEEEE" stroke="black" stroke-width="0.6" stroke-linecap="round" stroke-linejoin="round"/>
<path d="M179.521 314.836L167.486 341.346L172.647 343.558L184.699 317.195C185.366 315.735 184.694 314.013 183.215 313.39C181.795 312.792 180.158 313.433 179.521 314.836Z" fill="#FFE598" stroke="black" stroke-width="0.6" stroke-linecap="round" stroke-linejoin="round"/>
<path fill-rule="evenodd" clip-rule="evenodd" d="M152.393 356.828C155.48 361.02 160.45 363.74 166.055 363.74C175.42 363.74 183.012 356.148 183.012 346.783C183.012 337.418 175.42 329.826 166.055 329.826C165.474 329.826 164.9 329.855 164.334 329.912C155.327 338.733 152.659 349.779 152.393 356.828Z" fill="#FFE598"/>
<path d="M152.393 356.828L152.093 356.817C152.09 356.885 152.111 356.952 152.151 357.006L152.393 356.828ZM164.334 329.912L164.304 329.614C164.236 329.621 164.173 329.65 164.124 329.698L164.334 329.912ZM166.055 363.44C160.549 363.44 155.667 360.769 152.634 356.651L152.151 357.006C155.292 361.272 160.351 364.04 166.055 364.04V363.44ZM182.712 346.783C182.712 355.983 175.255 363.44 166.055 363.44V364.04C175.586 364.04 183.312 356.314 183.312 346.783H182.712ZM166.055 330.126C175.255 330.126 182.712 337.584 182.712 346.783H183.312C183.312 337.252 175.586 329.526 166.055 329.526V330.126ZM164.364 330.211C164.92 330.155 165.484 330.126 166.055 330.126V329.526C165.464 329.526 164.88 329.556 164.304 329.614L164.364 330.211ZM164.124 329.698C155.048 338.586 152.361 349.714 152.093 356.817L152.692 356.84C152.956 349.844 155.606 338.88 164.544 330.127L164.124 329.698Z" fill="black"/>
<ellipse cx="162.041" cy="340.957" rx="2.21178" ry="5.34514" transform="rotate(22.5916 162.041 340.957)" fill="white"/>
<ellipse cx="129.347" cy="261.093" rx="2.21178" ry="5.34514" transform="rotate(39.0051 129.347 261.093)" fill="white"/>
<path d="M185.385 301.104C187.757 302.473 191.603 302.473 193.975 301.104C195.161 300.419 195.754 299.522 195.754 298.624L195.753 246.904L183.606 246.904L183.606 298.624C183.606 299.522 184.199 300.419 185.385 301.104Z" fill="#D6D2CD" stroke="black" stroke-width="0.6" stroke-linecap="round" stroke-linejoin="round"/>
<path d="M195.753 253C195.753 253.897 195.16 254.795 193.974 255.48C191.602 256.849 187.756 256.849 185.384 255.48C184.198 254.795 183.605 253.897 183.605 253" stroke="black" stroke-width="0.6" stroke-linecap="round" stroke-linejoin="round"/>
<circle r="4.99572" transform="matrix(0.866025 -0.5 0.866025 0.5 189.68 246.902)" fill="#EEEEEE" stroke="black" stroke-width="0.6" stroke-linecap="round" stroke-linejoin="round"/>
<path d="M150.989 180.186C124.357 148.967 117.191 118.308 116.929 106.925C116.931 66.815 149.474 34.3 189.618 34.3C229.762 34.3 262.305 66.815 262.306 106.924C262.044 118.308 254.878 148.967 228.247 180.186C216.632 193.802 208.108 205.462 202.033 214.834C201.028 216.384 199.248 217.572 197.039 218.372C194.834 219.17 192.229 219.572 189.618 219.572C187.006 219.572 184.402 219.17 182.197 218.372C179.988 217.572 178.208 216.384 177.203 214.834C171.127 205.462 162.604 193.802 150.989 180.186Z" fill="#FF9999" stroke="black" stroke-width="0.6"/>
<path d="M177.191 214.272C173.853 209.116 169.809 203.312 165 197C172.651 201.553 191.362 212.211 209 204C206.438 207.799 204.221 211.181 202.302 214.198C198.16 220.709 181.386 220.749 177.191 214.272Z" fill="#E78282"/>
<path d="M189.617 48.3766C202.754 48.3766 214.878 52.7121 224.637 60.0303M240.335 77.7749C245.24 86.3271 248.045 96.2383 248.045 106.805C248.045 121.607 242.541 135.123 233.468 145.419" stroke="black" stroke-width="0.6"/>
<path d="M206.206 208.915C201.393 210.787 195.747 211.864 189.71 211.864C183.672 211.864 178.026 210.787 173.214 208.915" stroke="black" stroke-width="0.6"/>
<path d="M225.743 183.48C215.23 187.574 202.898 189.931 189.71 189.931C176.521 189.931 164.189 187.574 153.676 183.48" stroke="black" stroke-width="0.6"/>
<ellipse cx="147.023" cy="69.6633" rx="9.40007" ry="16.1276" transform="rotate(41.0171 147.023 69.6633)" fill="#FFB5B5"/>
<path d="M183.72 246.699L173.398 209.283" stroke="black" stroke-width="0.6"/>
<path d="M195.885 246.699L206.207 209.283" stroke="black" stroke-width="0.6"/>
<path d="M183.352 189.932L187 256" stroke="black" stroke-width="0.6"/>
<path d="M195.9 189.93L192 256" stroke="black" stroke-width="0.6"/>
<circle r="4.04145" transform="matrix(0.866025 -0.5 2.20305e-08 1 202.5 498.021)" fill="#FF9999" stroke="black" stroke-width="0.6" stroke-linecap="round" stroke-linejoin="round"/>
<circle r="4.04145" transform="matrix(0.866025 -0.5 2.20305e-08 1 202.5 509.062)" fill="#FFE598" stroke="black" stroke-width="0.6" stroke-linecap="round" stroke-linejoin="round"/>
<rect width="11.4034" height="19.5487" transform="matrix(0.866025 -0.5 2.20305e-08 1 211.125 487.576)" fill="#D6D2CD" stroke="black" stroke-width="0.6" stroke-linecap="round" stroke-linejoin="round"/>
<rect width="2.16506" height="7.07881" transform="matrix(0.866025 -0.5 2.20305e-08 1 211.125 493.811)" fill="#D6D2CD" stroke="black" stroke-width="0.6" stroke-linecap="round" stroke-linejoin="round"/>
<path d="M229 482L238 476" stroke="black" stroke-linecap="round"/>
<path d="M229 490H239" stroke="black" stroke-linecap="round"/>
<path d="M229 496L238 502" stroke="black" stroke-linecap="round"/>
</svg>
